<?xml version="1.0" encoding="utf-8"?>
<svg xmlns="http://www.w3.org/2000/svg" xmlns:xlink="http://www.w3.org/1999/xlink" width="600" height="400" viewBox="0 0 2400 1600">
<defs>
  <clipPath id="clip750">
    <rect x="0" y="0" width="2400" height="1600"/>
  </clipPath>
</defs>
<path clip-path="url(#clip750)" d="M0 1600 L2400 1600 L2400 0 L0 0  Z" fill="#ffffff" fill-rule="evenodd" fill-opacity="1"/>
<defs>
  <clipPath id="clip751">
    <rect x="480" y="0" width="1681" height="1600"/>
  </clipPath>
</defs>
<path clip-path="url(#clip750)" d="M147.478 661.294 L2352.76 661.294 L2352.76 123.472 L147.478 123.472  Z" fill="#ffffff" fill-rule="evenodd" fill-opacity="1"/>
<defs>
  <clipPath id="clip752">
    <rect x="147" y="123" width="2206" height="539"/>
  </clipPath>
</defs>
<polyline clip-path="url(#clip752)" style="stroke:#000000; stroke-linecap:round; stroke-linejoin:round; stroke-width:2; stroke-opacity:0.1; fill:none" points="209.891,661.294 209.891,123.472 "/>
<polyline clip-path="url(#clip752)" style="stroke:#000000; stroke-linecap:round; stroke-linejoin:round; stroke-width:2; stroke-opacity:0.1; fill:none" points="625.982,661.294 625.982,123.472 "/>
<polyline clip-path="url(#clip752)" style="stroke:#000000; stroke-linecap:round; stroke-linejoin:round; stroke-width:2; stroke-opacity:0.1; fill:none" points="1042.07,661.294 1042.07,123.472 "/>
<polyline clip-path="url(#clip752)" style="stroke:#000000; stroke-linecap:round; stroke-linejoin:round; stroke-width:2; stroke-opacity:0.1; fill:none" points="1458.16,661.294 1458.16,123.472 "/>
<polyline clip-path="url(#clip752)" style="stroke:#000000; stroke-linecap:round; stroke-linejoin:round; stroke-width:2; stroke-opacity:0.1; fill:none" points="1874.25,661.294 1874.25,123.472 "/>
<polyline clip-path="url(#clip752)" style="stroke:#000000; stroke-linecap:round; stroke-linejoin:round; stroke-width:2; stroke-opacity:0.1; fill:none" points="2290.34,661.294 2290.34,123.472 "/>
<polyline clip-path="url(#clip752)" style="stroke:#000000; stroke-linecap:round; stroke-linejoin:round; stroke-width:2; stroke-opacity:0.1; fill:none" points="147.478,631.051 2352.76,631.051 "/>
<polyline clip-path="url(#clip752)" style="stroke:#000000; stroke-linecap:round; stroke-linejoin:round; stroke-width:2; stroke-opacity:0.1; fill:none" points="147.478,529.894 2352.76,529.894 "/>
<polyline clip-path="url(#clip752)" style="stroke:#000000; stroke-linecap:round; stroke-linejoin:round; stroke-width:2; stroke-opacity:0.1; fill:none" points="147.478,428.736 2352.76,428.736 "/>
<polyline clip-path="url(#clip752)" style="stroke:#000000; stroke-linecap:round; stroke-linejoin:round; stroke-width:2; stroke-opacity:0.1; fill:none" points="147.478,327.579 2352.76,327.579 "/>
<polyline clip-path="url(#clip752)" style="stroke:#000000; stroke-linecap:round; stroke-linejoin:round; stroke-width:2; stroke-opacity:0.1; fill:none" points="147.478,226.421 2352.76,226.421 "/>
<polyline clip-path="url(#clip752)" style="stroke:#000000; stroke-linecap:round; stroke-linejoin:round; stroke-width:2; stroke-opacity:0.1; fill:none" points="147.478,125.264 2352.76,125.264 "/>
<polyline clip-path="url(#clip750)" style="stroke:#000000; stroke-linecap:round; stroke-linejoin:round; stroke-width:4; stroke-opacity:1; fill:none" points="147.478,661.294 2352.76,661.294 "/>
<polyline clip-path="url(#clip750)" style="stroke:#000000; stroke-linecap:round; stroke-linejoin:round; stroke-width:4; stroke-opacity:1; fill:none" points="209.891,661.294 209.891,642.396 "/>
<polyline clip-path="url(#clip750)" style="stroke:#000000; stroke-linecap:round; stroke-linejoin:round; stroke-width:4; stroke-opacity:1; fill:none" points="625.982,661.294 625.982,642.396 "/>
<polyline clip-path="url(#clip750)" style="stroke:#000000; stroke-linecap:round; stroke-linejoin:round; stroke-width:4; stroke-opacity:1; fill:none" points="1042.07,661.294 1042.07,642.396 "/>
<polyline clip-path="url(#clip750)" style="stroke:#000000; stroke-linecap:round; stroke-linejoin:round; stroke-width:4; stroke-opacity:1; fill:none" points="1458.16,661.294 1458.16,642.396 "/>
<polyline clip-path="url(#clip750)" style="stroke:#000000; stroke-linecap:round; stroke-linejoin:round; stroke-width:4; stroke-opacity:1; fill:none" points="1874.25,661.294 1874.25,642.396 "/>
<polyline clip-path="url(#clip750)" style="stroke:#000000; stroke-linecap:round; stroke-linejoin:round; stroke-width:4; stroke-opacity:1; fill:none" points="2290.34,661.294 2290.34,642.396 "/>
<path clip-path="url(#clip750)" d="M209.891 692.213 Q206.28 692.213 204.452 695.777 Q202.646 699.319 202.646 706.449 Q202.646 713.555 204.452 717.12 Q206.28 720.661 209.891 720.661 Q213.526 720.661 215.331 717.12 Q217.16 713.555 217.16 706.449 Q217.16 699.319 215.331 695.777 Q213.526 692.213 209.891 692.213 M209.891 688.509 Q215.702 688.509 218.757 693.115 Q221.836 697.699 221.836 706.449 Q221.836 715.175 218.757 719.782 Q215.702 724.365 209.891 724.365 Q204.081 724.365 201.003 719.782 Q197.947 715.175 197.947 706.449 Q197.947 697.699 201.003 693.115 Q204.081 688.509 209.891 688.509 Z" fill="#000000" fill-rule="nonzero" fill-opacity="1" /><path clip-path="url(#clip750)" d="M616.364 719.759 L624.002 719.759 L624.002 693.393 L615.692 695.06 L615.692 690.801 L623.956 689.134 L628.632 689.134 L628.632 719.759 L636.271 719.759 L636.271 723.694 L616.364 723.694 L616.364 719.759 Z" fill="#000000" fill-rule="nonzero" fill-opacity="1" /><path clip-path="url(#clip750)" d="M1036.72 719.759 L1053.04 719.759 L1053.04 723.694 L1031.1 723.694 L1031.1 719.759 Q1033.76 717.004 1038.34 712.374 Q1042.95 707.722 1044.13 706.379 Q1046.38 703.856 1047.26 702.12 Q1048.16 700.361 1048.16 698.671 Q1048.16 695.916 1046.22 694.18 Q1044.29 692.444 1041.19 692.444 Q1038.99 692.444 1036.54 693.208 Q1034.11 693.972 1031.33 695.523 L1031.33 690.801 Q1034.16 689.666 1036.61 689.088 Q1039.06 688.509 1041.1 688.509 Q1046.47 688.509 1049.66 691.194 Q1052.86 693.879 1052.86 698.37 Q1052.86 700.5 1052.05 702.421 Q1051.26 704.319 1049.16 706.912 Q1048.58 707.583 1045.47 710.8 Q1042.37 713.995 1036.72 719.759 Z" fill="#000000" fill-rule="nonzero" fill-opacity="1" /><path clip-path="url(#clip750)" d="M1462.41 705.06 Q1465.77 705.777 1467.64 708.046 Q1469.54 710.314 1469.54 713.648 Q1469.54 718.763 1466.02 721.564 Q1462.5 724.365 1456.02 724.365 Q1453.84 724.365 1451.53 723.925 Q1449.24 723.509 1446.78 722.652 L1446.78 718.138 Q1448.73 719.273 1451.04 719.851 Q1453.36 720.43 1455.88 720.43 Q1460.28 720.43 1462.57 718.694 Q1464.89 716.958 1464.89 713.648 Q1464.89 710.592 1462.73 708.879 Q1460.6 707.143 1456.78 707.143 L1452.76 707.143 L1452.76 703.3 L1456.97 703.3 Q1460.42 703.3 1462.25 701.935 Q1464.08 700.546 1464.08 697.953 Q1464.08 695.291 1462.18 693.879 Q1460.3 692.444 1456.78 692.444 Q1454.86 692.444 1452.66 692.861 Q1450.47 693.277 1447.83 694.157 L1447.83 689.99 Q1450.49 689.25 1452.8 688.879 Q1455.14 688.509 1457.2 688.509 Q1462.53 688.509 1465.63 690.939 Q1468.73 693.347 1468.73 697.467 Q1468.73 700.338 1467.09 702.328 Q1465.44 704.296 1462.41 705.06 Z" fill="#000000" fill-rule="nonzero" fill-opacity="1" /><path clip-path="url(#clip750)" d="M1877.26 693.208 L1865.46 711.657 L1877.26 711.657 L1877.26 693.208 M1876.03 689.134 L1881.91 689.134 L1881.91 711.657 L1886.84 711.657 L1886.84 715.546 L1881.91 715.546 L1881.91 723.694 L1877.26 723.694 L1877.26 715.546 L1861.66 715.546 L1861.66 711.032 L1876.03 689.134 Z" fill="#000000" fill-rule="nonzero" fill-opacity="1" /><path clip-path="url(#clip750)" d="M2280.62 689.134 L2298.98 689.134 L2298.98 693.069 L2284.9 693.069 L2284.9 701.541 Q2285.92 701.194 2286.94 701.032 Q2287.96 700.847 2288.98 700.847 Q2294.76 700.847 2298.14 704.018 Q2301.52 707.189 2301.52 712.606 Q2301.52 718.185 2298.05 721.286 Q2294.58 724.365 2288.26 724.365 Q2286.08 724.365 2283.81 723.995 Q2281.57 723.624 2279.16 722.884 L2279.16 718.185 Q2281.25 719.319 2283.47 719.874 Q2285.69 720.43 2288.17 720.43 Q2292.17 720.43 2294.51 718.324 Q2296.85 716.217 2296.85 712.606 Q2296.85 708.995 2294.51 706.888 Q2292.17 704.782 2288.17 704.782 Q2286.29 704.782 2284.42 705.199 Q2282.56 705.615 2280.62 706.495 L2280.62 689.134 Z" fill="#000000" fill-rule="nonzero" fill-opacity="1" /><path clip-path="url(#clip750)" d="M1249.18 760.388 L1249.18 770.51 L1261.24 770.51 L1261.24 775.061 L1249.18 775.061 L1249.18 794.413 Q1249.18 798.774 1250.36 800.015 Q1251.57 801.256 1255.23 801.256 L1261.24 801.256 L1261.24 806.158 L1255.23 806.158 Q1248.45 806.158 1245.87 803.643 Q1243.29 801.097 1243.29 794.413 L1243.29 775.061 L1238.99 775.061 L1238.99 770.51 L1243.29 770.51 L1243.29 760.388 L1249.18 760.388 Z" fill="#000000" fill-rule="nonzero" fill-opacity="1" /><polyline clip-path="url(#clip750)" style="stroke:#000000; stroke-linecap:round; stroke-linejoin:round; stroke-width:4; stroke-opacity:1; fill:none" points="147.478,661.294 147.478,123.472 "/>
<polyline clip-path="url(#clip750)" style="stroke:#000000; stroke-linecap:round; stroke-linejoin:round; stroke-width:4; stroke-opacity:1; fill:none" points="147.478,631.051 166.376,631.051 "/>
<polyline clip-path="url(#clip750)" style="stroke:#000000; stroke-linecap:round; stroke-linejoin:round; stroke-width:4; stroke-opacity:1; fill:none" points="147.478,529.894 166.376,529.894 "/>
<polyline clip-path="url(#clip750)" style="stroke:#000000; stroke-linecap:round; stroke-linejoin:round; stroke-width:4; stroke-opacity:1; fill:none" points="147.478,428.736 166.376,428.736 "/>
<polyline clip-path="url(#clip750)" style="stroke:#000000; stroke-linecap:round; stroke-linejoin:round; stroke-width:4; stroke-opacity:1; fill:none" points="147.478,327.579 166.376,327.579 "/>
<polyline clip-path="url(#clip750)" style="stroke:#000000; stroke-linecap:round; stroke-linejoin:round; stroke-width:4; stroke-opacity:1; fill:none" points="147.478,226.421 166.376,226.421 "/>
<polyline clip-path="url(#clip750)" style="stroke:#000000; stroke-linecap:round; stroke-linejoin:round; stroke-width:4; stroke-opacity:1; fill:none" points="147.478,125.264 166.376,125.264 "/>
<path clip-path="url(#clip750)" d="M51.3625 631.503 L81.0383 631.503 L81.0383 635.438 L51.3625 635.438 L51.3625 631.503 Z" fill="#000000" fill-rule="nonzero" fill-opacity="1" /><path clip-path="url(#clip750)" d="M95.1586 644.396 L111.478 644.396 L111.478 648.331 L89.5336 648.331 L89.5336 644.396 Q92.1956 641.641 96.7789 637.012 Q101.385 632.359 102.566 631.017 Q104.811 628.493 105.691 626.757 Q106.594 624.998 106.594 623.308 Q106.594 620.554 104.649 618.818 Q102.728 617.081 99.6261 617.081 Q97.4271 617.081 94.9734 617.845 Q92.5428 618.609 89.7651 620.16 L89.7651 615.438 Q92.5891 614.304 95.0428 613.725 Q97.4965 613.146 99.5335 613.146 Q104.904 613.146 108.098 615.831 Q111.293 618.517 111.293 623.007 Q111.293 625.137 110.483 627.058 Q109.696 628.956 107.589 631.549 Q107.01 632.22 103.909 635.438 Q100.807 638.632 95.1586 644.396 Z" fill="#000000" fill-rule="nonzero" fill-opacity="1" /><path clip-path="url(#clip750)" d="M50.9921 530.345 L80.6679 530.345 L80.6679 534.28 L50.9921 534.28 L50.9921 530.345 Z" fill="#000000" fill-rule="nonzero" fill-opacity="1" /><path clip-path="url(#clip750)" d="M91.5706 543.239 L99.2095 543.239 L99.2095 516.873 L90.8993 518.54 L90.8993 514.28 L99.1632 512.614 L103.839 512.614 L103.839 543.239 L111.478 543.239 L111.478 547.174 L91.5706 547.174 L91.5706 543.239 Z" fill="#000000" fill-rule="nonzero" fill-opacity="1" /><path clip-path="url(#clip750)" d="M99.5335 414.535 Q95.9224 414.535 94.0937 418.1 Q92.2882 421.641 92.2882 428.771 Q92.2882 435.877 94.0937 439.442 Q95.9224 442.984 99.5335 442.984 Q103.168 442.984 104.973 439.442 Q106.802 435.877 106.802 428.771 Q106.802 421.641 104.973 418.1 Q103.168 414.535 99.5335 414.535 M99.5335 410.831 Q105.344 410.831 108.399 415.438 Q111.478 420.021 111.478 428.771 Q111.478 437.498 108.399 442.104 Q105.344 446.688 99.5335 446.688 Q93.7234 446.688 90.6447 442.104 Q87.5892 437.498 87.5892 428.771 Q87.5892 420.021 90.6447 415.438 Q93.7234 410.831 99.5335 410.831 Z" fill="#000000" fill-rule="nonzero" fill-opacity="1" /><path clip-path="url(#clip750)" d="M91.5706 340.924 L99.2095 340.924 L99.2095 314.558 L90.8993 316.225 L90.8993 311.966 L99.1632 310.299 L103.839 310.299 L103.839 340.924 L111.478 340.924 L111.478 344.859 L91.5706 344.859 L91.5706 340.924 Z" fill="#000000" fill-rule="nonzero" fill-opacity="1" /><path clip-path="url(#clip750)" d="M95.1586 239.766 L111.478 239.766 L111.478 243.701 L89.5336 243.701 L89.5336 239.766 Q92.1956 237.012 96.7789 232.382 Q101.385 227.729 102.566 226.387 Q104.811 223.864 105.691 222.127 Q106.594 220.368 106.594 218.678 Q106.594 215.924 104.649 214.188 Q102.728 212.452 99.6261 212.452 Q97.4271 212.452 94.9734 213.215 Q92.5428 213.979 89.7651 215.53 L89.7651 210.808 Q92.5891 209.674 95.0428 209.095 Q97.4965 208.516 99.5335 208.516 Q104.904 208.516 108.098 211.202 Q111.293 213.887 111.293 218.377 Q111.293 220.507 110.483 222.428 Q109.696 224.327 107.589 226.919 Q107.01 227.59 103.909 230.808 Q100.807 234.002 95.1586 239.766 Z" fill="#000000" fill-rule="nonzero" fill-opacity="1" /><path clip-path="url(#clip750)" d="M104.348 123.91 Q107.705 124.627 109.58 126.896 Q111.478 129.164 111.478 132.498 Q111.478 137.613 107.959 140.414 Q104.441 143.215 97.9595 143.215 Q95.7836 143.215 93.4688 142.775 Q91.1771 142.359 88.7234 141.502 L88.7234 136.988 Q90.6678 138.123 92.9826 138.701 Q95.2974 139.28 97.8206 139.28 Q102.219 139.28 104.51 137.544 Q106.825 135.808 106.825 132.498 Q106.825 129.442 104.672 127.729 Q102.543 125.993 98.7234 125.993 L94.6956 125.993 L94.6956 122.151 L98.9085 122.151 Q102.358 122.151 104.186 120.785 Q106.015 119.396 106.015 116.803 Q106.015 114.141 104.117 112.729 Q102.242 111.294 98.7234 111.294 Q96.8021 111.294 94.603 111.711 Q92.4039 112.127 89.7651 113.007 L89.7651 108.84 Q92.4271 108.1 94.7419 107.729 Q97.0798 107.359 99.14 107.359 Q104.464 107.359 107.566 109.79 Q110.668 112.197 110.668 116.317 Q110.668 119.188 109.024 121.178 Q107.381 123.146 104.348 123.91 Z" fill="#000000" fill-rule="nonzero" fill-opacity="1" /><path clip-path="url(#clip750)" d="M644.79 12.096 L652.973 12.096 L652.973 65.6895 L682.423 65.6895 L682.423 72.576 L644.79 72.576 L644.79 12.096 Z" fill="#000000" fill-rule="nonzero" fill-opacity="1" /><path clip-path="url(#clip750)" d="M711.306 49.7694 Q702.273 49.7694 698.789 51.8354 Q695.305 53.9013 695.305 58.8839 Q695.305 62.8538 697.898 65.2034 Q700.531 67.5124 705.027 67.5124 Q711.225 67.5124 714.952 63.1374 Q718.719 58.7219 718.719 51.4303 L718.719 49.7694 L711.306 49.7694 M726.173 46.6907 L726.173 72.576 L718.719 72.576 L718.719 65.6895 Q716.167 69.8214 712.359 71.8063 Q708.552 73.7508 703.042 73.7508 Q696.075 73.7508 691.943 69.8619 Q687.851 65.9325 687.851 59.3701 Q687.851 51.7138 692.956 47.825 Q698.1 43.9361 708.268 43.9361 L718.719 43.9361 L718.719 43.2069 Q718.719 38.0623 715.317 35.2672 Q711.954 32.4315 705.837 32.4315 Q701.949 32.4315 698.262 33.3632 Q694.576 34.295 691.173 36.1584 L691.173 29.2718 Q695.265 27.692 699.113 26.9223 Q702.961 26.1121 706.607 26.1121 Q716.451 26.1121 721.312 31.2163 Q726.173 36.3204 726.173 46.6907 Z" fill="#000000" fill-rule="nonzero" fill-opacity="1" /><path clip-path="url(#clip750)" d="M748.899 14.324 L748.899 27.2059 L764.251 27.2059 L764.251 32.9987 L748.899 32.9987 L748.899 57.6282 Q748.899 63.1779 750.397 64.7578 Q751.937 66.3376 756.595 66.3376 L764.251 66.3376 L764.251 72.576 L756.595 72.576 Q747.967 72.576 744.686 69.3758 Q741.404 66.1351 741.404 57.6282 L741.404 32.9987 L735.936 32.9987 L735.936 27.2059 L741.404 27.2059 L741.404 14.324 L748.899 14.324 Z" fill="#000000" fill-rule="nonzero" fill-opacity="1" /><path clip-path="url(#clip750)" d="M812.862 48.0275 L812.862 51.6733 L778.592 51.6733 Q779.078 59.3701 783.21 63.421 Q787.382 67.4314 794.795 67.4314 Q799.089 67.4314 803.1 66.3781 Q807.151 65.3249 811.12 63.2184 L811.12 70.267 Q807.11 71.9684 802.897 72.8596 Q798.684 73.7508 794.35 73.7508 Q783.493 73.7508 777.133 67.4314 Q770.814 61.1119 770.814 50.3365 Q770.814 39.1965 776.809 32.6746 Q782.845 26.1121 793.053 26.1121 Q802.208 26.1121 807.515 32.0264 Q812.862 37.9003 812.862 48.0275 M805.409 45.84 Q805.328 39.7232 801.965 36.0774 Q798.644 32.4315 793.134 32.4315 Q786.896 32.4315 783.129 35.9558 Q779.402 39.4801 778.835 45.8805 L805.409 45.84 Z" fill="#000000" fill-rule="nonzero" fill-opacity="1" /><path clip-path="url(#clip750)" d="M862.81 45.1919 L862.81 72.576 L855.356 72.576 L855.356 45.4349 Q855.356 38.994 852.845 35.7938 Q850.333 32.5936 845.31 32.5936 Q839.274 32.5936 835.79 36.4419 Q832.307 40.2903 832.307 46.9338 L832.307 72.576 L824.812 72.576 L824.812 27.2059 L832.307 27.2059 L832.307 34.2544 Q834.98 30.163 838.586 28.1376 Q842.231 26.1121 846.971 26.1121 Q854.789 26.1121 858.8 30.9732 Q862.81 35.7938 862.81 45.1919 Z" fill="#000000" fill-rule="nonzero" fill-opacity="1" /><path clip-path="url(#clip750)" d="M885.049 14.324 L885.049 27.2059 L900.402 27.2059 L900.402 32.9987 L885.049 32.9987 L885.049 57.6282 Q885.049 63.1779 886.548 64.7578 Q888.088 66.3376 892.746 66.3376 L900.402 66.3376 L900.402 72.576 L892.746 72.576 Q884.118 72.576 880.836 69.3758 Q877.555 66.1351 877.555 57.6282 L877.555 32.9987 L872.087 32.9987 L872.087 27.2059 L877.555 27.2059 L877.555 14.324 L885.049 14.324 Z" fill="#000000" fill-rule="nonzero" fill-opacity="1" /><path clip-path="url(#clip750)" d="M978.139 63.9476 L978.139 47.7034 L964.771 47.7034 L964.771 40.9789 L986.241 40.9789 L986.241 66.9452 Q981.501 70.3075 975.79 72.0494 Q970.078 73.7508 963.596 73.7508 Q949.418 73.7508 941.397 65.4869 Q933.417 57.1826 933.417 42.3968 Q933.417 27.5705 941.397 19.3066 Q949.418 11.0023 963.596 11.0023 Q969.511 11.0023 974.817 12.4606 Q980.165 13.9189 984.661 16.7545 L984.661 25.464 Q980.124 21.6156 975.02 19.6712 Q969.916 17.7268 964.285 17.7268 Q953.186 17.7268 947.595 23.9246 Q942.046 30.1225 942.046 42.3968 Q942.046 54.6305 947.595 60.8284 Q953.186 67.0263 964.285 67.0263 Q968.62 67.0263 972.022 66.2971 Q975.425 65.5274 978.139 63.9476 Z" fill="#000000" fill-rule="nonzero" fill-opacity="1" /><path clip-path="url(#clip750)" d="M1021.48 49.7694 Q1012.45 49.7694 1008.97 51.8354 Q1005.48 53.9013 1005.48 58.8839 Q1005.48 62.8538 1008.08 65.2034 Q1010.71 67.5124 1015.2 67.5124 Q1021.4 67.5124 1025.13 63.1374 Q1028.9 58.7219 1028.9 51.4303 L1028.9 49.7694 L1021.48 49.7694 M1036.35 46.6907 L1036.35 72.576 L1028.9 72.576 L1028.9 65.6895 Q1026.34 69.8214 1022.54 71.8063 Q1018.73 73.7508 1013.22 73.7508 Q1006.25 73.7508 1002.12 69.8619 Q998.029 65.9325 998.029 59.3701 Q998.029 51.7138 1003.13 47.825 Q1008.28 43.9361 1018.45 43.9361 L1028.9 43.9361 L1028.9 43.2069 Q1028.9 38.0623 1025.49 35.2672 Q1022.13 32.4315 1016.02 32.4315 Q1012.13 32.4315 1008.44 33.3632 Q1004.75 34.295 1001.35 36.1584 L1001.35 29.2718 Q1005.44 27.692 1009.29 26.9223 Q1013.14 26.1121 1016.78 26.1121 Q1026.63 26.1121 1031.49 31.2163 Q1036.35 36.3204 1036.35 46.6907 Z" fill="#000000" fill-rule="nonzero" fill-opacity="1" /><path clip-path="url(#clip750)" d="M1050.93 54.671 L1050.93 27.2059 L1058.39 27.2059 L1058.39 54.3874 Q1058.39 60.8284 1060.9 64.0691 Q1063.41 67.2693 1068.43 67.2693 Q1074.47 67.2693 1077.95 63.421 Q1081.48 59.5726 1081.48 52.9291 L1081.48 27.2059 L1088.93 27.2059 L1088.93 72.576 L1081.48 72.576 L1081.48 65.6084 Q1078.76 69.7404 1075.16 71.7658 Q1071.59 73.7508 1066.85 73.7508 Q1059.04 73.7508 1054.98 68.8897 Q1050.93 64.0286 1050.93 54.671 M1069.69 26.1121 L1069.69 26.1121 Z" fill="#000000" fill-rule="nonzero" fill-opacity="1" /><path clip-path="url(#clip750)" d="M1133.21 28.5427 L1133.21 35.5912 Q1130.05 33.9709 1126.65 33.1607 Q1123.24 32.3505 1119.6 32.3505 Q1114.05 32.3505 1111.25 34.0519 Q1108.5 35.7533 1108.5 39.156 Q1108.5 41.7486 1110.48 43.2475 Q1112.47 44.7058 1118.46 46.0426 L1121.01 46.6097 Q1128.95 48.3111 1132.28 51.4303 Q1135.64 54.509 1135.64 60.0587 Q1135.64 66.3781 1130.62 70.0644 Q1125.63 73.7508 1116.88 73.7508 Q1113.24 73.7508 1109.27 73.0216 Q1105.34 72.3329 1100.96 70.9151 L1100.96 63.2184 Q1105.09 65.3654 1109.1 66.4591 Q1113.12 67.5124 1117.04 67.5124 Q1122.31 67.5124 1125.15 65.73 Q1127.98 63.9071 1127.98 60.6258 Q1127.98 57.5877 1125.92 55.9673 Q1123.89 54.3469 1116.96 52.8481 L1114.37 52.2405 Q1107.44 50.7821 1104.37 47.7845 Q1101.29 44.7463 1101.29 39.4801 Q1101.29 33.0797 1105.82 29.5959 Q1110.36 26.1121 1118.71 26.1121 Q1122.84 26.1121 1126.48 26.7198 Q1130.13 27.3274 1133.21 28.5427 Z" fill="#000000" fill-rule="nonzero" fill-opacity="1" /><path clip-path="url(#clip750)" d="M1176.43 28.5427 L1176.43 35.5912 Q1173.27 33.9709 1169.87 33.1607 Q1166.47 32.3505 1162.82 32.3505 Q1157.27 32.3505 1154.48 34.0519 Q1151.72 35.7533 1151.72 39.156 Q1151.72 41.7486 1153.71 43.2475 Q1155.69 44.7058 1161.69 46.0426 L1164.24 46.6097 Q1172.18 48.3111 1175.5 51.4303 Q1178.86 54.509 1178.86 60.0587 Q1178.86 66.3781 1173.84 70.0644 Q1168.86 73.7508 1160.11 73.7508 Q1156.46 73.7508 1152.49 73.0216 Q1148.56 72.3329 1144.19 70.9151 L1144.19 63.2184 Q1148.32 65.3654 1152.33 66.4591 Q1156.34 67.5124 1160.27 67.5124 Q1165.53 67.5124 1168.37 65.73 Q1171.21 63.9071 1171.21 60.6258 Q1171.21 57.5877 1169.14 55.9673 Q1167.11 54.3469 1160.19 52.8481 L1157.59 52.2405 Q1150.67 50.7821 1147.59 47.7845 Q1144.51 44.7463 1144.51 39.4801 Q1144.51 33.0797 1149.05 29.5959 Q1153.58 26.1121 1161.93 26.1121 Q1166.06 26.1121 1169.71 26.7198 Q1173.35 27.3274 1176.43 28.5427 Z" fill="#000000" fill-rule="nonzero" fill-opacity="1" /><path clip-path="url(#clip750)" d="M1186.96 46.5287 L1208.8 46.5287 L1208.8 53.1722 L1186.96 53.1722 L1186.96 46.5287 Z" fill="#000000" fill-rule="nonzero" fill-opacity="1" /><path clip-path="url(#clip750)" d="M1220.99 12.096 L1233.18 12.096 L1248.62 53.2532 L1264.13 12.096 L1276.33 12.096 L1276.33 72.576 L1268.35 72.576 L1268.35 19.4686 L1252.75 60.9499 L1244.53 60.9499 L1228.93 19.4686 L1228.93 72.576 L1220.99 72.576 L1220.99 12.096 Z" fill="#000000" fill-rule="nonzero" fill-opacity="1" /><path clip-path="url(#clip750)" d="M1312.87 49.7694 Q1303.83 49.7694 1300.35 51.8354 Q1296.86 53.9013 1296.86 58.8839 Q1296.86 62.8538 1299.46 65.2034 Q1302.09 67.5124 1306.59 67.5124 Q1312.78 67.5124 1316.51 63.1374 Q1320.28 58.7219 1320.28 51.4303 L1320.28 49.7694 L1312.87 49.7694 M1327.73 46.6907 L1327.73 72.576 L1320.28 72.576 L1320.28 65.6895 Q1317.73 69.8214 1313.92 71.8063 Q1310.11 73.7508 1304.6 73.7508 Q1297.63 73.7508 1293.5 69.8619 Q1289.41 65.9325 1289.41 59.3701 Q1289.41 51.7138 1294.51 47.825 Q1299.66 43.9361 1309.83 43.9361 L1320.28 43.9361 L1320.28 43.2069 Q1320.28 38.0623 1316.88 35.2672 Q1313.51 32.4315 1307.4 32.4315 Q1303.51 32.4315 1299.82 33.3632 Q1296.14 34.295 1292.73 36.1584 L1292.73 29.2718 Q1296.82 27.692 1300.67 26.9223 Q1304.52 26.1121 1308.17 26.1121 Q1318.01 26.1121 1322.87 31.2163 Q1327.73 36.3204 1327.73 46.6907 Z" fill="#000000" fill-rule="nonzero" fill-opacity="1" /><path clip-path="url(#clip750)" d="M1369.38 34.1734 Q1368.12 33.4443 1366.62 33.1202 Q1365.16 32.7556 1363.38 32.7556 Q1357.06 32.7556 1353.66 36.8875 Q1350.3 40.9789 1350.3 48.6757 L1350.3 72.576 L1342.8 72.576 L1342.8 27.2059 L1350.3 27.2059 L1350.3 34.2544 Q1352.65 30.1225 1356.41 28.1376 Q1360.18 26.1121 1365.57 26.1121 Q1366.34 26.1121 1367.27 26.2337 Q1368.2 26.3147 1369.34 26.5172 L1369.38 34.1734 Z" fill="#000000" fill-rule="nonzero" fill-opacity="1" /><path clip-path="url(#clip750)" d="M1376.91 9.54393 L1384.4 9.54393 L1384.4 46.7717 L1406.64 27.2059 L1416.16 27.2059 L1392.1 48.4326 L1417.18 72.576 L1407.45 72.576 L1384.4 50.4176 L1384.4 72.576 L1376.91 72.576 L1376.91 9.54393 Z" fill="#000000" fill-rule="nonzero" fill-opacity="1" /><path clip-path="url(#clip750)" d="M1439.86 32.4315 Q1433.87 32.4315 1430.38 37.1306 Q1426.9 41.7891 1426.9 49.9314 Q1426.9 58.0738 1430.34 62.7728 Q1433.83 67.4314 1439.86 67.4314 Q1445.82 67.4314 1449.3 62.7323 Q1452.78 58.0333 1452.78 49.9314 Q1452.78 41.8701 1449.3 37.1711 Q1445.82 32.4315 1439.86 32.4315 M1439.86 26.1121 Q1449.58 26.1121 1455.13 32.4315 Q1460.68 38.7509 1460.68 49.9314 Q1460.68 61.0714 1455.13 67.4314 Q1449.58 73.7508 1439.86 73.7508 Q1430.1 73.7508 1424.55 67.4314 Q1419.04 61.0714 1419.04 49.9314 Q1419.04 38.7509 1424.55 32.4315 Q1430.1 26.1121 1439.86 26.1121 Z" fill="#000000" fill-rule="nonzero" fill-opacity="1" /><path clip-path="url(#clip750)" d="M1467.69 27.2059 L1475.59 27.2059 L1489.77 65.2844 L1503.95 27.2059 L1511.85 27.2059 L1494.83 72.576 L1484.7 72.576 L1467.69 27.2059 Z" fill="#000000" fill-rule="nonzero" fill-opacity="1" /><path clip-path="url(#clip750)" d="M1555.72 65.7705 L1555.72 89.8329 L1548.22 89.8329 L1548.22 27.2059 L1555.72 27.2059 L1555.72 34.0924 Q1558.07 30.0415 1561.63 28.0971 Q1565.24 26.1121 1570.22 26.1121 Q1578.48 26.1121 1583.63 32.6746 Q1588.81 39.2371 1588.81 49.9314 Q1588.81 60.6258 1583.63 67.1883 Q1578.48 73.7508 1570.22 73.7508 Q1565.24 73.7508 1561.63 71.8063 Q1558.07 69.8214 1555.72 65.7705 M1581.08 49.9314 Q1581.08 41.7081 1577.67 37.0496 Q1574.31 32.3505 1568.4 32.3505 Q1562.48 32.3505 1559.08 37.0496 Q1555.72 41.7081 1555.72 49.9314 Q1555.72 58.1548 1559.08 62.8538 Q1562.48 67.5124 1568.4 67.5124 Q1574.31 67.5124 1577.67 62.8538 Q1581.08 58.1548 1581.08 49.9314 Z" fill="#000000" fill-rule="nonzero" fill-opacity="1" /><path clip-path="url(#clip750)" d="M1627.46 34.1734 Q1626.2 33.4443 1624.7 33.1202 Q1623.25 32.7556 1621.46 32.7556 Q1615.14 32.7556 1611.74 36.8875 Q1608.38 40.9789 1608.38 48.6757 L1608.38 72.576 L1600.88 72.576 L1600.88 27.2059 L1608.38 27.2059 L1608.38 34.2544 Q1610.73 30.1225 1614.5 28.1376 Q1618.26 26.1121 1623.65 26.1121 Q1624.42 26.1121 1625.35 26.2337 Q1626.28 26.3147 1627.42 26.5172 L1627.46 34.1734 Z" fill="#000000" fill-rule="nonzero" fill-opacity="1" /><path clip-path="url(#clip750)" d="M1651.03 32.4315 Q1645.04 32.4315 1641.56 37.1306 Q1638.07 41.7891 1638.07 49.9314 Q1638.07 58.0738 1641.52 62.7728 Q1645 67.4314 1651.03 67.4314 Q1656.99 67.4314 1660.47 62.7323 Q1663.96 58.0333 1663.96 49.9314 Q1663.96 41.8701 1660.47 37.1711 Q1656.99 32.4315 1651.03 32.4315 M1651.03 26.1121 Q1660.76 26.1121 1666.31 32.4315 Q1671.86 38.7509 1671.86 49.9314 Q1671.86 61.0714 1666.31 67.4314 Q1660.76 73.7508 1651.03 73.7508 Q1641.27 73.7508 1635.72 67.4314 Q1630.21 61.0714 1630.21 49.9314 Q1630.21 38.7509 1635.72 32.4315 Q1641.27 26.1121 1651.03 26.1121 Z" fill="#000000" fill-rule="nonzero" fill-opacity="1" /><path clip-path="url(#clip750)" d="M1716.86 28.9478 L1716.86 35.9153 Q1713.7 34.1734 1710.5 33.3227 Q1707.34 32.4315 1704.1 32.4315 Q1696.85 32.4315 1692.84 37.0496 Q1688.83 41.6271 1688.83 49.9314 Q1688.83 58.2358 1692.84 62.8538 Q1696.85 67.4314 1704.1 67.4314 Q1707.34 67.4314 1710.5 66.5807 Q1713.7 65.6895 1716.86 63.9476 L1716.86 70.8341 Q1713.74 72.2924 1710.38 73.0216 Q1707.06 73.7508 1703.29 73.7508 Q1693.04 73.7508 1687.01 67.3098 Q1680.97 60.8689 1680.97 49.9314 Q1680.97 38.832 1687.05 32.472 Q1693.16 26.1121 1703.78 26.1121 Q1707.22 26.1121 1710.5 26.8413 Q1713.78 27.5299 1716.86 28.9478 Z" fill="#000000" fill-rule="nonzero" fill-opacity="1" /><path clip-path="url(#clip750)" d="M1768.63 48.0275 L1768.63 51.6733 L1734.36 51.6733 Q1734.85 59.3701 1738.98 63.421 Q1743.15 67.4314 1750.57 67.4314 Q1754.86 67.4314 1758.87 66.3781 Q1762.92 65.3249 1766.89 63.2184 L1766.89 70.267 Q1762.88 71.9684 1758.67 72.8596 Q1754.45 73.7508 1750.12 73.7508 Q1739.26 73.7508 1732.9 67.4314 Q1726.58 61.1119 1726.58 50.3365 Q1726.58 39.1965 1732.58 32.6746 Q1738.62 26.1121 1748.82 26.1121 Q1757.98 26.1121 1763.29 32.0264 Q1768.63 37.9003 1768.63 48.0275 M1761.18 45.84 Q1761.1 39.7232 1757.74 36.0774 Q1754.41 32.4315 1748.9 32.4315 Q1742.67 32.4315 1738.9 35.9558 Q1735.17 39.4801 1734.61 45.8805 L1761.18 45.84 Z" fill="#000000" fill-rule="nonzero" fill-opacity="1" /><path clip-path="url(#clip750)" d="M1809.79 28.5427 L1809.79 35.5912 Q1806.63 33.9709 1803.23 33.1607 Q1799.82 32.3505 1796.18 32.3505 Q1790.63 32.3505 1787.83 34.0519 Q1785.08 35.7533 1785.08 39.156 Q1785.08 41.7486 1787.06 43.2475 Q1789.05 44.7058 1795.04 46.0426 L1797.6 46.6097 Q1805.54 48.3111 1808.86 51.4303 Q1812.22 54.509 1812.22 60.0587 Q1812.22 66.3781 1807.2 70.0644 Q1802.21 73.7508 1793.46 73.7508 Q1789.82 73.7508 1785.85 73.0216 Q1781.92 72.3329 1777.54 70.9151 L1777.54 63.2184 Q1781.68 65.3654 1785.69 66.4591 Q1789.7 67.5124 1793.63 67.5124 Q1798.89 67.5124 1801.73 65.73 Q1804.56 63.9071 1804.56 60.6258 Q1804.56 57.5877 1802.5 55.9673 Q1800.47 54.3469 1793.55 52.8481 L1790.95 52.2405 Q1784.03 50.7821 1780.95 47.7845 Q1777.87 44.7463 1777.87 39.4801 Q1777.87 33.0797 1782.41 29.5959 Q1786.94 26.1121 1795.29 26.1121 Q1799.42 26.1121 1803.07 26.7198 Q1806.71 27.3274 1809.79 28.5427 Z" fill="#000000" fill-rule="nonzero" fill-opacity="1" /><path clip-path="url(#clip750)" d="M1853.01 28.5427 L1853.01 35.5912 Q1849.85 33.9709 1846.45 33.1607 Q1843.05 32.3505 1839.4 32.3505 Q1833.85 32.3505 1831.06 34.0519 Q1828.3 35.7533 1828.3 39.156 Q1828.3 41.7486 1830.29 43.2475 Q1832.27 44.7058 1838.27 46.0426 L1840.82 46.6097 Q1848.76 48.3111 1852.08 51.4303 Q1855.44 54.509 1855.44 60.0587 Q1855.44 66.3781 1850.42 70.0644 Q1845.44 73.7508 1836.69 73.7508 Q1833.04 73.7508 1829.07 73.0216 Q1825.14 72.3329 1820.77 70.9151 L1820.77 63.2184 Q1824.9 65.3654 1828.91 66.4591 Q1832.92 67.5124 1836.85 67.5124 Q1842.12 67.5124 1844.95 65.73 Q1847.79 63.9071 1847.79 60.6258 Q1847.79 57.5877 1845.72 55.9673 Q1843.7 54.3469 1836.77 52.8481 L1834.18 52.2405 Q1827.25 50.7821 1824.17 47.7845 Q1821.09 44.7463 1821.09 39.4801 Q1821.09 33.0797 1825.63 29.5959 Q1830.17 26.1121 1838.51 26.1121 Q1842.64 26.1121 1846.29 26.7198 Q1849.93 27.3274 1853.01 28.5427 Z" fill="#000000" fill-rule="nonzero" fill-opacity="1" /><polyline clip-path="url(#clip752)" style="stroke:#009af9; stroke-linecap:round; stroke-linejoin:round; stroke-width:4; stroke-opacity:1; fill:none" points="209.891,411.2 220.346,381.598 230.8,382.693 241.255,379.718 251.71,358.614 262.164,347.711 272.619,332.081 283.073,325.487 293.528,294.064 303.982,286.7 314.437,272.483 324.891,265.497 335.346,266.427 345.8,277.104 356.255,236.735 366.709,231.924 377.164,264.876 387.618,253.58 398.073,301.932 408.527,331.107 418.982,293.63 429.437,321.287 439.891,277.402 450.346,272.395 460.8,273.009 471.255,332.425 481.709,317.056 492.164,368.999 502.618,454.722 513.073,419.921 523.527,436.763 533.982,423.489 544.436,378.055 554.891,398.634 565.345,395.115 575.8,389.319 586.254,420.81 596.709,469.536 607.163,469.999 617.618,470.088 628.073,451.757 638.527,474.1 648.982,511.993 659.436,461.852 669.891,452.83 680.345,471.356 690.8,458.963 701.254,416.205 711.709,374.112 722.163,378.96 732.618,394.537 743.072,363.687 753.527,338.113 763.981,294.943 774.436,293.106 784.89,286.719 795.345,302.903 805.799,320.288 816.254,268.357 826.709,189.021 837.163,190.016 847.618,138.693 858.072,159.368 868.527,175.627 878.981,194.586 889.436,257.493 899.89,263.185 910.345,239.907 920.799,269.208 931.254,326.912 941.708,300.065 952.163,319.761 962.617,289.367 973.072,282.434 983.526,289.547 993.981,273.208 1004.44,287.01 1014.89,269.858 1025.34,294.722 1035.8,248.79 1046.25,264.918 1056.71,228.567 1067.16,201.824 1077.62,244.414 1088.07,259.517 1098.53,323.849 1108.98,294.902 1119.44,280.176 1129.89,282.746 1140.34,267.514 1150.8,289.52 1161.25,293.282 1171.71,260.044 1182.16,295.381 1192.62,265.009 1203.07,238.638 1213.53,252.35 1223.98,312.881 1234.44,337.351 1244.89,326.597 1255.34,367.938 1265.8,371.594 1276.25,349.811 1286.71,385.788 1297.16,415.243 1307.62,383.03 1318.07,357.468 1328.53,434.004 1338.98,422.675 1349.43,458.249 1359.89,506.383 1370.34,544.489 1380.8,523.685 1391.25,504.329 1401.71,491.446 1412.16,517.002 1422.62,517.225 1433.07,504.674 1443.53,543.542 1453.98,537.595 1464.43,534.244 1474.89,554.663 1485.34,569.668 1495.8,510.423 1506.25,443.599 1516.71,427.506 1527.16,447.933 1537.62,445.234 1548.07,441.99 1558.53,465.748 1568.98,459.297 1579.43,403.962 1589.89,395.903 1600.34,397.61 1610.8,400.514 1621.25,369.891 1631.71,386.78 1642.16,368.611 1652.62,364.454 1663.07,426.817 1673.53,435.583 1683.98,445.037 1694.43,420.775 1704.89,411.892 1715.34,415.04 1725.8,389.083 1736.25,390.033 1746.71,384.749 1757.16,325.224 1767.62,371.067 1778.07,426.163 1788.53,430.384 1798.98,377.25 1809.43,370.351 1819.89,386.729 1830.34,414.003 1840.8,400.528 1851.25,385.16 1861.71,434.87 1872.16,440.606 1882.62,490.244 1893.07,430.857 1903.52,396.377 1913.98,326.116 1924.43,305.321 1934.89,285.873 1945.34,356.245 1955.8,372.754 1966.25,418.32 1976.71,410.62 1987.16,422.742 1997.62,413.897 2008.07,425.236 2018.52,365.155 2028.98,371.422 2039.43,441.979 2049.89,449.102 2060.34,456.351 2070.8,475.88 2081.25,489.633 2091.71,480.856 2102.16,495.587 2112.62,515.094 2123.07,492.103 2133.52,475.29 2143.98,489.881 2154.43,495.181 2164.89,472.129 2175.34,443.327 2185.8,514.744 2196.25,553.204 2206.71,541.244 2217.16,584.138 2227.62,570.539 2238.07,582.851 2248.52,569.367 2258.98,572.143 2269.43,591.048 2279.89,646.072 2290.34,645.118 "/>
<path clip-path="url(#clip750)" d="M2006.24 245.08 L2279.25 245.08 L2279.25 141.4 L2006.24 141.4  Z" fill="#ffffff" fill-rule="evenodd" fill-opacity="1"/>
<polyline clip-path="url(#clip750)" style="stroke:#000000; stroke-linecap:round; stroke-linejoin:round; stroke-width:4; stroke-opacity:1; fill:none" points="2006.24,245.08 2279.25,245.08 2279.25,141.4 2006.24,141.4 2006.24,245.08 "/>
<polyline clip-path="url(#clip750)" style="stroke:#009af9; stroke-linecap:round; stroke-linejoin:round; stroke-width:4; stroke-opacity:1; fill:none" points="2030.75,193.24 2177.76,193.24 "/>
<path clip-path="url(#clip750)" d="M2226.92 184.594 L2217.54 197.209 L2227.41 210.52 L2222.38 210.52 L2214.84 200.334 L2207.29 210.52 L2202.27 210.52 L2212.34 196.955 L2203.12 184.594 L2208.15 184.594 L2215.02 193.83 L2221.9 184.594 L2226.92 184.594 Z" fill="#000000" fill-rule="nonzero" fill-opacity="1" /><path clip-path="url(#clip750)" d="M2234.84 206.584 L2242.48 206.584 L2242.48 180.219 L2234.16 181.885 L2234.16 177.626 L2242.43 175.96 L2247.1 175.96 L2247.1 206.584 L2254.74 206.584 L2254.74 210.52 L2234.84 210.52 L2234.84 206.584 Z" fill="#000000" fill-rule="nonzero" fill-opacity="1" /><path clip-path="url(#clip750)" d="M147.478 1423.18 L2352.76 1423.18 L2352.76 885.358 L147.478 885.358  Z" fill="#ffffff" fill-rule="evenodd" fill-opacity="1"/>
<defs>
  <clipPath id="clip753">
    <rect x="147" y="885" width="2206" height="539"/>
  </clipPath>
</defs>
<polyline clip-path="url(#clip753)" style="stroke:#000000; stroke-linecap:round; stroke-linejoin:round; stroke-width:2; stroke-opacity:0.1; fill:none" points="209.891,1423.18 209.891,885.358 "/>
<polyline clip-path="url(#clip753)" style="stroke:#000000; stroke-linecap:round; stroke-linejoin:round; stroke-width:2; stroke-opacity:0.1; fill:none" points="625.982,1423.18 625.982,885.358 "/>
<polyline clip-path="url(#clip753)" style="stroke:#000000; stroke-linecap:round; stroke-linejoin:round; stroke-width:2; stroke-opacity:0.1; fill:none" points="1042.07,1423.18 1042.07,885.358 "/>
<polyline clip-path="url(#clip753)" style="stroke:#000000; stroke-linecap:round; stroke-linejoin:round; stroke-width:2; stroke-opacity:0.1; fill:none" points="1458.16,1423.18 1458.16,885.358 "/>
<polyline clip-path="url(#clip753)" style="stroke:#000000; stroke-linecap:round; stroke-linejoin:round; stroke-width:2; stroke-opacity:0.1; fill:none" points="1874.25,1423.18 1874.25,885.358 "/>
<polyline clip-path="url(#clip753)" style="stroke:#000000; stroke-linecap:round; stroke-linejoin:round; stroke-width:2; stroke-opacity:0.1; fill:none" points="2290.34,1423.18 2290.34,885.358 "/>
<polyline clip-path="url(#clip753)" style="stroke:#000000; stroke-linecap:round; stroke-linejoin:round; stroke-width:2; stroke-opacity:0.1; fill:none" points="147.478,1303.46 2352.76,1303.46 "/>
<polyline clip-path="url(#clip753)" style="stroke:#000000; stroke-linecap:round; stroke-linejoin:round; stroke-width:2; stroke-opacity:0.1; fill:none" points="147.478,1179.47 2352.76,1179.47 "/>
<polyline clip-path="url(#clip753)" style="stroke:#000000; stroke-linecap:round; stroke-linejoin:round; stroke-width:2; stroke-opacity:0.1; fill:none" points="147.478,1055.48 2352.76,1055.48 "/>
<polyline clip-path="url(#clip753)" style="stroke:#000000; stroke-linecap:round; stroke-linejoin:round; stroke-width:2; stroke-opacity:0.1; fill:none" points="147.478,931.49 2352.76,931.49 "/>
<polyline clip-path="url(#clip750)" style="stroke:#000000; stroke-linecap:round; stroke-linejoin:round; stroke-width:4; stroke-opacity:1; fill:none" points="147.478,1423.18 2352.76,1423.18 "/>
<polyline clip-path="url(#clip750)" style="stroke:#000000; stroke-linecap:round; stroke-linejoin:round; stroke-width:4; stroke-opacity:1; fill:none" points="209.891,1423.18 209.891,1404.28 "/>
<polyline clip-path="url(#clip750)" style="stroke:#000000; stroke-linecap:round; stroke-linejoin:round; stroke-width:4; stroke-opacity:1; fill:none" points="625.982,1423.18 625.982,1404.28 "/>
<polyline clip-path="url(#clip750)" style="stroke:#000000; stroke-linecap:round; stroke-linejoin:round; stroke-width:4; stroke-opacity:1; fill:none" points="1042.07,1423.18 1042.07,1404.28 "/>
<polyline clip-path="url(#clip750)" style="stroke:#000000; stroke-linecap:round; stroke-linejoin:round; stroke-width:4; stroke-opacity:1; fill:none" points="1458.16,1423.18 1458.16,1404.28 "/>
<polyline clip-path="url(#clip750)" style="stroke:#000000; stroke-linecap:round; stroke-linejoin:round; stroke-width:4; stroke-opacity:1; fill:none" points="1874.25,1423.18 1874.25,1404.28 "/>
<polyline clip-path="url(#clip750)" style="stroke:#000000; stroke-linecap:round; stroke-linejoin:round; stroke-width:4; stroke-opacity:1; fill:none" points="2290.34,1423.18 2290.34,1404.28 "/>
<path clip-path="url(#clip750)" d="M209.891 1454.1 Q206.28 1454.1 204.452 1457.66 Q202.646 1461.2 202.646 1468.33 Q202.646 1475.44 204.452 1479.01 Q206.28 1482.55 209.891 1482.55 Q213.526 1482.55 215.331 1479.01 Q217.16 1475.44 217.16 1468.33 Q217.16 1461.2 215.331 1457.66 Q213.526 1454.1 209.891 1454.1 M209.891 1450.39 Q215.702 1450.39 218.757 1455 Q221.836 1459.58 221.836 1468.33 Q221.836 1477.06 218.757 1481.67 Q215.702 1486.25 209.891 1486.25 Q204.081 1486.25 201.003 1481.67 Q197.947 1477.06 197.947 1468.33 Q197.947 1459.58 201.003 1455 Q204.081 1450.39 209.891 1450.39 Z" fill="#000000" fill-rule="nonzero" fill-opacity="1" /><path clip-path="url(#clip750)" d="M616.364 1481.64 L624.002 1481.64 L624.002 1455.28 L615.692 1456.95 L615.692 1452.69 L623.956 1451.02 L628.632 1451.02 L628.632 1481.64 L636.271 1481.64 L636.271 1485.58 L616.364 1485.58 L616.364 1481.64 Z" fill="#000000" fill-rule="nonzero" fill-opacity="1" /><path clip-path="url(#clip750)" d="M1036.72 1481.64 L1053.04 1481.64 L1053.04 1485.58 L1031.1 1485.58 L1031.1 1481.64 Q1033.76 1478.89 1038.34 1474.26 Q1042.95 1469.61 1044.13 1468.27 Q1046.38 1465.74 1047.26 1464.01 Q1048.16 1462.25 1048.16 1460.56 Q1048.16 1457.8 1046.22 1456.07 Q1044.29 1454.33 1041.19 1454.33 Q1038.99 1454.33 1036.54 1455.09 Q1034.11 1455.86 1031.33 1457.41 L1031.33 1452.69 Q1034.16 1451.55 1036.61 1450.97 Q1039.06 1450.39 1041.1 1450.39 Q1046.47 1450.39 1049.66 1453.08 Q1052.86 1455.77 1052.86 1460.26 Q1052.86 1462.39 1052.05 1464.31 Q1051.26 1466.2 1049.16 1468.8 Q1048.58 1469.47 1045.47 1472.69 Q1042.37 1475.88 1036.72 1481.64 Z" fill="#000000" fill-rule="nonzero" fill-opacity="1" /><path clip-path="url(#clip750)" d="M1462.41 1466.95 Q1465.77 1467.66 1467.64 1469.93 Q1469.54 1472.2 1469.54 1475.53 Q1469.54 1480.65 1466.02 1483.45 Q1462.5 1486.25 1456.02 1486.25 Q1453.84 1486.25 1451.53 1485.81 Q1449.24 1485.39 1446.78 1484.54 L1446.78 1480.02 Q1448.73 1481.16 1451.04 1481.74 Q1453.36 1482.32 1455.88 1482.32 Q1460.28 1482.32 1462.57 1480.58 Q1464.89 1478.84 1464.89 1475.53 Q1464.89 1472.48 1462.73 1470.77 Q1460.6 1469.03 1456.78 1469.03 L1452.76 1469.03 L1452.76 1465.19 L1456.97 1465.19 Q1460.42 1465.19 1462.25 1463.82 Q1464.08 1462.43 1464.08 1459.84 Q1464.08 1457.18 1462.18 1455.77 Q1460.3 1454.33 1456.78 1454.33 Q1454.86 1454.33 1452.66 1454.75 Q1450.47 1455.16 1447.83 1456.04 L1447.83 1451.88 Q1450.49 1451.14 1452.8 1450.77 Q1455.14 1450.39 1457.2 1450.39 Q1462.53 1450.39 1465.63 1452.83 Q1468.73 1455.23 1468.73 1459.35 Q1468.73 1462.22 1467.09 1464.21 Q1465.44 1466.18 1462.41 1466.95 Z" fill="#000000" fill-rule="nonzero" fill-opacity="1" /><path clip-path="url(#clip750)" d="M1877.26 1455.09 L1865.46 1473.54 L1877.26 1473.54 L1877.26 1455.09 M1876.03 1451.02 L1881.91 1451.02 L1881.91 1473.54 L1886.84 1473.54 L1886.84 1477.43 L1881.91 1477.43 L1881.91 1485.58 L1877.26 1485.58 L1877.26 1477.43 L1861.66 1477.43 L1861.66 1472.92 L1876.03 1451.02 Z" fill="#000000" fill-rule="nonzero" fill-opacity="1" /><path clip-path="url(#clip750)" d="M2280.62 1451.02 L2298.98 1451.02 L2298.98 1454.96 L2284.9 1454.96 L2284.9 1463.43 Q2285.92 1463.08 2286.94 1462.92 Q2287.96 1462.73 2288.98 1462.73 Q2294.76 1462.73 2298.14 1465.9 Q2301.52 1469.08 2301.52 1474.49 Q2301.52 1480.07 2298.05 1483.17 Q2294.58 1486.25 2288.26 1486.25 Q2286.08 1486.25 2283.81 1485.88 Q2281.57 1485.51 2279.16 1484.77 L2279.16 1480.07 Q2281.25 1481.2 2283.47 1481.76 Q2285.69 1482.32 2288.17 1482.32 Q2292.17 1482.32 2294.51 1480.21 Q2296.85 1478.1 2296.85 1474.49 Q2296.85 1470.88 2294.51 1468.77 Q2292.17 1466.67 2288.17 1466.67 Q2286.29 1466.67 2284.42 1467.08 Q2282.56 1467.5 2280.62 1468.38 L2280.62 1451.02 Z" fill="#000000" fill-rule="nonzero" fill-opacity="1" /><path clip-path="url(#clip750)" d="M1249.18 1522.27 L1249.18 1532.4 L1261.24 1532.4 L1261.24 1536.95 L1249.18 1536.95 L1249.18 1556.3 Q1249.18 1560.66 1250.36 1561.9 Q1251.57 1563.14 1255.23 1563.14 L1261.24 1563.14 L1261.24 1568.04 L1255.23 1568.04 Q1248.45 1568.04 1245.87 1565.53 Q1243.29 1562.98 1243.29 1556.3 L1243.29 1536.95 L1238.99 1536.95 L1238.99 1532.4 L1243.29 1532.4 L1243.29 1522.27 L1249.18 1522.27 Z" fill="#000000" fill-rule="nonzero" fill-opacity="1" /><polyline clip-path="url(#clip750)" style="stroke:#000000; stroke-linecap:round; stroke-linejoin:round; stroke-width:4; stroke-opacity:1; fill:none" points="147.478,1423.18 147.478,885.358 "/>
<polyline clip-path="url(#clip750)" style="stroke:#000000; stroke-linecap:round; stroke-linejoin:round; stroke-width:4; stroke-opacity:1; fill:none" points="147.478,1303.46 166.376,1303.46 "/>
<polyline clip-path="url(#clip750)" style="stroke:#000000; stroke-linecap:round; stroke-linejoin:round; stroke-width:4; stroke-opacity:1; fill:none" points="147.478,1179.47 166.376,1179.47 "/>
<polyline clip-path="url(#clip750)" style="stroke:#000000; stroke-linecap:round; stroke-linejoin:round; stroke-width:4; stroke-opacity:1; fill:none" points="147.478,1055.48 166.376,1055.48 "/>
<polyline clip-path="url(#clip750)" style="stroke:#000000; stroke-linecap:round; stroke-linejoin:round; stroke-width:4; stroke-opacity:1; fill:none" points="147.478,931.49 166.376,931.49 "/>
<path clip-path="url(#clip750)" d="M51.3625 1303.91 L81.0383 1303.91 L81.0383 1307.84 L51.3625 1307.84 L51.3625 1303.91 Z" fill="#000000" fill-rule="nonzero" fill-opacity="1" /><path clip-path="url(#clip750)" d="M95.1586 1316.8 L111.478 1316.8 L111.478 1320.74 L89.5336 1320.74 L89.5336 1316.8 Q92.1956 1314.05 96.7789 1309.42 Q101.385 1304.76 102.566 1303.42 Q104.811 1300.9 105.691 1299.16 Q106.594 1297.4 106.594 1295.71 Q106.594 1292.96 104.649 1291.22 Q102.728 1289.49 99.6261 1289.49 Q97.4271 1289.49 94.9734 1290.25 Q92.5428 1291.01 89.7651 1292.57 L89.7651 1287.84 Q92.5891 1286.71 95.0428 1286.13 Q97.4965 1285.55 99.5335 1285.55 Q104.904 1285.55 108.098 1288.24 Q111.293 1290.92 111.293 1295.41 Q111.293 1297.54 110.483 1299.46 Q109.696 1301.36 107.589 1303.95 Q107.01 1304.63 103.909 1307.84 Q100.807 1311.04 95.1586 1316.8 Z" fill="#000000" fill-rule="nonzero" fill-opacity="1" /><path clip-path="url(#clip750)" d="M50.9921 1179.92 L80.6679 1179.92 L80.6679 1183.85 L50.9921 1183.85 L50.9921 1179.92 Z" fill="#000000" fill-rule="nonzero" fill-opacity="1" /><path clip-path="url(#clip750)" d="M91.5706 1192.81 L99.2095 1192.81 L99.2095 1166.45 L90.8993 1168.11 L90.8993 1163.85 L99.1632 1162.19 L103.839 1162.19 L103.839 1192.81 L111.478 1192.81 L111.478 1196.75 L91.5706 1196.75 L91.5706 1192.81 Z" fill="#000000" fill-rule="nonzero" fill-opacity="1" /><path clip-path="url(#clip750)" d="M99.5335 1041.28 Q95.9224 1041.28 94.0937 1044.84 Q92.2882 1048.38 92.2882 1055.51 Q92.2882 1062.62 94.0937 1066.18 Q95.9224 1069.73 99.5335 1069.73 Q103.168 1069.73 104.973 1066.18 Q106.802 1062.62 106.802 1055.51 Q106.802 1048.38 104.973 1044.84 Q103.168 1041.28 99.5335 1041.28 M99.5335 1037.57 Q105.344 1037.57 108.399 1042.18 Q111.478 1046.76 111.478 1055.51 Q111.478 1064.24 108.399 1068.85 Q105.344 1073.43 99.5335 1073.43 Q93.7234 1073.43 90.6447 1068.85 Q87.5892 1064.24 87.5892 1055.51 Q87.5892 1046.76 90.6447 1042.18 Q93.7234 1037.57 99.5335 1037.57 Z" fill="#000000" fill-rule="nonzero" fill-opacity="1" /><path clip-path="url(#clip750)" d="M91.5706 944.835 L99.2095 944.835 L99.2095 918.469 L90.8993 920.136 L90.8993 915.876 L99.1632 914.21 L103.839 914.21 L103.839 944.835 L111.478 944.835 L111.478 948.77 L91.5706 948.77 L91.5706 944.835 Z" fill="#000000" fill-rule="nonzero" fill-opacity="1" /><polyline clip-path="url(#clip753)" style="stroke:#009af9; stroke-linecap:round; stroke-linejoin:round; stroke-width:4; stroke-opacity:1; fill:none" points="209.891,1017.77 220.346,985.842 230.8,995.275 241.255,997.147 251.71,978.406 262.164,972.224 272.619,964.354 283.073,967.867 293.528,941.967 303.982,945.63 314.437,943.016 324.891,949.397 335.346,965.375 345.8,992.985 356.255,957.789 366.709,966.768 377.164,1021.95 387.618,1020.77 398.073,1089.53 408.527,1128.25 418.982,1087.04 429.437,1126.73 439.891,1076.97 450.346,1077.29 460.8,1085.37 471.255,1161.64 481.709,1144.46 492.164,1207.9 502.618,1304.03 513.073,1250.2 523.527,1261.32 533.982,1234.12 544.436,1172.48 554.891,1195.74 565.345,1187.16 575.8,1174.55 586.254,1206.48 596.709,1255.4 607.163,1243.09 617.618,1231.81 628.073,1199.54 638.527,1218.02 648.982,1252.91 659.436,1180.39 669.891,1160.85 680.345,1174.39 690.8,1151.48 701.254,1096.27 711.709,1045.56 722.163,1056.5 732.618,1079.41 743.072,1045.7 753.527,1020.72 763.981,977.107 774.436,986.057 784.89,991.382 795.345,1021.75 805.799,1050.95 816.254,996.98 826.709,917.403 837.163,940.265 847.618,900.579 858.072,949.727 868.527,989.566 878.981,1029.08 889.436,1115.32 899.89,1129.98 910.345,1107.8 920.799,1151.74 931.254,1222.9 941.708,1191.78 952.163,1215.68 962.617,1176.76 973.072,1169.63 983.526,1180.99 993.981,1164.68 1004.44,1186.05 1014.89,1168.5 1025.34,1201.28 1035.8,1148.71 1046.25,1173.31 1056.71,1136.32 1067.16,1111.92 1077.62,1173.82 1088.07,1197.87 1098.53,1277.75 1108.98,1238.76 1119.44,1222.29 1129.89,1223.77 1140.34,1209 1150.8,1236.95 1161.25,1241.37 1171.71,1202.52 1182.16,1247.21 1192.62,1210.43 1203.07,1182.15 1213.53,1203.74 1223.98,1277.12 1234.44,1302.64 1244.89,1283.48 1255.34,1325.4 1265.8,1321.29 1276.25,1285.51 1286.71,1319.11 1297.16,1343.84 1307.62,1293.03 1318.07,1254.12 1328.53,1337.54 1338.98,1310.64 1349.43,1341.5 1359.89,1382.66 1370.34,1407.96 1380.8,1359.78 1391.25,1316.3 1401.71,1283.92 1412.16,1297.59 1422.62,1281.47 1433.07,1249.87 1443.53,1281.13 1453.98,1256.91 1464.43,1237.26 1474.89,1246.03 1485.34,1246.7 1495.8,1160.33 1506.25,1071.99 1516.71,1051.49 1527.16,1074.97 1537.62,1069.01 1548.07,1062.93 1558.53,1088.94 1568.98,1078.7 1579.43,1011.22 1589.89,1004.84 1600.34,1011.42 1610.8,1017.97 1621.25,986.398 1631.71,1012.24 1642.16,995.777 1652.62,995.68 1663.07,1075.09 1673.53,1083.78 1683.98,1094.46 1694.43,1063.22 1704.89,1053.59 1715.34,1060.21 1725.8,1031 1736.25,1035.47 1746.71,1032.73 1757.16,968.896 1767.62,1031.44 1778.07,1102.33 1788.53,1105.35 1798.98,1038.82 1809.43,1034.54 1819.89,1057.58 1830.34,1091.11 1840.8,1075.7 1851.25,1058.87 1861.71,1121.57 1872.16,1124.93 1882.62,1177.31 1893.07,1099.14 1903.52,1056.01 1913.98,975.659 1924.43,962.249 1934.89,951.994 1945.34,1047.94 1955.8,1072.14 1966.25,1126.58 1976.71,1116.17 1987.16,1128.23 1997.62,1115.37 2008.07,1127.95 2018.52,1053.97 2028.98,1065.55 2039.43,1150.15 2049.89,1153.11 2060.34,1155.89 2070.8,1172.95 2081.25,1180.14 2091.71,1161.3 2102.16,1169.22 2112.62,1182.19 2123.07,1144.05 2133.52,1118.21 2143.98,1127.24 2154.43,1127.02 2164.89,1093.36 2175.34,1054.2 2185.8,1136.3 2196.25,1172.97 2206.71,1146.65 2217.16,1184.05 2227.62,1152.94 2238.07,1155.05 2248.52,1127.46 2258.98,1119.14 2269.43,1129.1 2279.89,1179.61 2290.34,1157.42 "/>
<path clip-path="url(#clip750)" d="M2006.61 1405.25 L2279.25 1405.25 L2279.25 1301.57 L2006.61 1301.57  Z" fill="#ffffff" fill-rule="evenodd" fill-opacity="1"/>
<polyline clip-path="url(#clip750)" style="stroke:#000000; stroke-linecap:round; stroke-linejoin:round; stroke-width:4; stroke-opacity:1; fill:none" points="2006.61,1405.25 2279.25,1405.25 2279.25,1301.57 2006.61,1301.57 2006.61,1405.25 "/>
<polyline clip-path="url(#clip750)" style="stroke:#009af9; stroke-linecap:round; stroke-linejoin:round; stroke-width:4; stroke-opacity:1; fill:none" points="2031.12,1353.41 2178.13,1353.41 "/>
<path clip-path="url(#clip750)" d="M2227.29 1344.77 L2217.92 1357.38 L2227.78 1370.69 L2222.75 1370.69 L2215.21 1360.51 L2207.66 1370.69 L2202.64 1370.69 L2212.71 1357.13 L2203.49 1344.77 L2208.52 1344.77 L2215.39 1354 L2222.27 1344.77 L2227.29 1344.77 Z" fill="#000000" fill-rule="nonzero" fill-opacity="1" /><path clip-path="url(#clip750)" d="M2238.42 1366.76 L2254.74 1366.76 L2254.74 1370.69 L2232.8 1370.69 L2232.8 1366.76 Q2235.46 1364 2240.04 1359.37 Q2244.65 1354.72 2245.83 1353.38 Q2248.08 1350.85 2248.96 1349.12 Q2249.86 1347.36 2249.86 1345.67 Q2249.86 1342.91 2247.91 1341.18 Q2245.99 1339.44 2242.89 1339.44 Q2240.69 1339.44 2238.24 1340.21 Q2235.81 1340.97 2233.03 1342.52 L2233.03 1337.8 Q2235.85 1336.66 2238.31 1336.09 Q2240.76 1335.51 2242.8 1335.51 Q2248.17 1335.51 2251.36 1338.19 Q2254.56 1340.88 2254.56 1345.37 Q2254.56 1347.5 2253.75 1349.42 Q2252.96 1351.32 2250.85 1353.91 Q2250.28 1354.58 2247.17 1357.8 Q2244.07 1360.99 2238.42 1366.76 Z" fill="#000000" fill-rule="nonzero" fill-opacity="1" /></svg>
