<?xml version="1.0" encoding="utf-8"?>
<svg xmlns="http://www.w3.org/2000/svg" xmlns:xlink="http://www.w3.org/1999/xlink" width="600" height="400" viewBox="0 0 2400 1600">
<defs>
  <clipPath id="clip380">
    <rect x="0" y="0" width="2400" height="1600"/>
  </clipPath>
</defs>
<path clip-path="url(#clip380)" d="M0 1600 L2400 1600 L2400 0 L0 0  Z" fill="#ffffff" fill-rule="evenodd" fill-opacity="1"/>
<defs>
  <clipPath id="clip381">
    <rect x="480" y="0" width="1681" height="1600"/>
  </clipPath>
</defs>
<path clip-path="url(#clip380)" d="M147.478 692.928 L2352.76 692.928 L2352.76 123.472 L147.478 123.472  Z" fill="#ffffff" fill-rule="evenodd" fill-opacity="1"/>
<defs>
  <clipPath id="clip382">
    <rect x="147" y="123" width="2206" height="570"/>
  </clipPath>
</defs>
<polyline clip-path="url(#clip382)" style="stroke:#000000; stroke-linecap:round; stroke-linejoin:round; stroke-width:2; stroke-opacity:0.1; fill:none" points="209.891,692.928 209.891,123.472 "/>
<polyline clip-path="url(#clip382)" style="stroke:#000000; stroke-linecap:round; stroke-linejoin:round; stroke-width:2; stroke-opacity:0.1; fill:none" points="625.982,692.928 625.982,123.472 "/>
<polyline clip-path="url(#clip382)" style="stroke:#000000; stroke-linecap:round; stroke-linejoin:round; stroke-width:2; stroke-opacity:0.1; fill:none" points="1042.07,692.928 1042.07,123.472 "/>
<polyline clip-path="url(#clip382)" style="stroke:#000000; stroke-linecap:round; stroke-linejoin:round; stroke-width:2; stroke-opacity:0.1; fill:none" points="1458.16,692.928 1458.16,123.472 "/>
<polyline clip-path="url(#clip382)" style="stroke:#000000; stroke-linecap:round; stroke-linejoin:round; stroke-width:2; stroke-opacity:0.1; fill:none" points="1874.25,692.928 1874.25,123.472 "/>
<polyline clip-path="url(#clip382)" style="stroke:#000000; stroke-linecap:round; stroke-linejoin:round; stroke-width:2; stroke-opacity:0.1; fill:none" points="2290.34,692.928 2290.34,123.472 "/>
<polyline clip-path="url(#clip382)" style="stroke:#000000; stroke-linecap:round; stroke-linejoin:round; stroke-width:2; stroke-opacity:0.1; fill:none" points="147.478,653.784 2352.76,653.784 "/>
<polyline clip-path="url(#clip382)" style="stroke:#000000; stroke-linecap:round; stroke-linejoin:round; stroke-width:2; stroke-opacity:0.1; fill:none" points="147.478,557.689 2352.76,557.689 "/>
<polyline clip-path="url(#clip382)" style="stroke:#000000; stroke-linecap:round; stroke-linejoin:round; stroke-width:2; stroke-opacity:0.1; fill:none" points="147.478,461.595 2352.76,461.595 "/>
<polyline clip-path="url(#clip382)" style="stroke:#000000; stroke-linecap:round; stroke-linejoin:round; stroke-width:2; stroke-opacity:0.1; fill:none" points="147.478,365.5 2352.76,365.5 "/>
<polyline clip-path="url(#clip382)" style="stroke:#000000; stroke-linecap:round; stroke-linejoin:round; stroke-width:2; stroke-opacity:0.1; fill:none" points="147.478,269.406 2352.76,269.406 "/>
<polyline clip-path="url(#clip382)" style="stroke:#000000; stroke-linecap:round; stroke-linejoin:round; stroke-width:2; stroke-opacity:0.1; fill:none" points="147.478,173.311 2352.76,173.311 "/>
<polyline clip-path="url(#clip380)" style="stroke:#000000; stroke-linecap:round; stroke-linejoin:round; stroke-width:4; stroke-opacity:1; fill:none" points="147.478,692.928 2352.76,692.928 "/>
<polyline clip-path="url(#clip380)" style="stroke:#000000; stroke-linecap:round; stroke-linejoin:round; stroke-width:4; stroke-opacity:1; fill:none" points="209.891,692.928 209.891,674.03 "/>
<polyline clip-path="url(#clip380)" style="stroke:#000000; stroke-linecap:round; stroke-linejoin:round; stroke-width:4; stroke-opacity:1; fill:none" points="625.982,692.928 625.982,674.03 "/>
<polyline clip-path="url(#clip380)" style="stroke:#000000; stroke-linecap:round; stroke-linejoin:round; stroke-width:4; stroke-opacity:1; fill:none" points="1042.07,692.928 1042.07,674.03 "/>
<polyline clip-path="url(#clip380)" style="stroke:#000000; stroke-linecap:round; stroke-linejoin:round; stroke-width:4; stroke-opacity:1; fill:none" points="1458.16,692.928 1458.16,674.03 "/>
<polyline clip-path="url(#clip380)" style="stroke:#000000; stroke-linecap:round; stroke-linejoin:round; stroke-width:4; stroke-opacity:1; fill:none" points="1874.25,692.928 1874.25,674.03 "/>
<polyline clip-path="url(#clip380)" style="stroke:#000000; stroke-linecap:round; stroke-linejoin:round; stroke-width:4; stroke-opacity:1; fill:none" points="2290.34,692.928 2290.34,674.03 "/>
<path clip-path="url(#clip380)" d="M209.891 723.847 Q206.28 723.847 204.452 727.411 Q202.646 730.953 202.646 738.083 Q202.646 745.189 204.452 748.754 Q206.28 752.295 209.891 752.295 Q213.526 752.295 215.331 748.754 Q217.16 745.189 217.16 738.083 Q217.16 730.953 215.331 727.411 Q213.526 723.847 209.891 723.847 M209.891 720.143 Q215.702 720.143 218.757 724.749 Q221.836 729.333 221.836 738.083 Q221.836 746.809 218.757 751.416 Q215.702 755.999 209.891 755.999 Q204.081 755.999 201.003 751.416 Q197.947 746.809 197.947 738.083 Q197.947 729.333 201.003 724.749 Q204.081 720.143 209.891 720.143 Z" fill="#000000" fill-rule="nonzero" fill-opacity="1" /><path clip-path="url(#clip380)" d="M616.364 751.393 L624.002 751.393 L624.002 725.027 L615.692 726.694 L615.692 722.435 L623.956 720.768 L628.632 720.768 L628.632 751.393 L636.271 751.393 L636.271 755.328 L616.364 755.328 L616.364 751.393 Z" fill="#000000" fill-rule="nonzero" fill-opacity="1" /><path clip-path="url(#clip380)" d="M1036.72 751.393 L1053.04 751.393 L1053.04 755.328 L1031.1 755.328 L1031.1 751.393 Q1033.76 748.638 1038.34 744.008 Q1042.95 739.356 1044.13 738.013 Q1046.38 735.49 1047.26 733.754 Q1048.16 731.995 1048.16 730.305 Q1048.16 727.55 1046.22 725.814 Q1044.29 724.078 1041.19 724.078 Q1038.99 724.078 1036.54 724.842 Q1034.11 725.606 1031.33 727.157 L1031.33 722.435 Q1034.16 721.3 1036.61 720.722 Q1039.06 720.143 1041.1 720.143 Q1046.47 720.143 1049.66 722.828 Q1052.86 725.513 1052.86 730.004 Q1052.86 732.134 1052.05 734.055 Q1051.26 735.953 1049.16 738.546 Q1048.58 739.217 1045.47 742.434 Q1042.37 745.629 1036.72 751.393 Z" fill="#000000" fill-rule="nonzero" fill-opacity="1" /><path clip-path="url(#clip380)" d="M1462.41 736.694 Q1465.77 737.411 1467.64 739.68 Q1469.54 741.948 1469.54 745.282 Q1469.54 750.397 1466.02 753.198 Q1462.5 755.999 1456.02 755.999 Q1453.84 755.999 1451.53 755.559 Q1449.24 755.143 1446.78 754.286 L1446.78 749.772 Q1448.73 750.907 1451.04 751.485 Q1453.36 752.064 1455.88 752.064 Q1460.28 752.064 1462.57 750.328 Q1464.89 748.592 1464.89 745.282 Q1464.89 742.226 1462.73 740.513 Q1460.6 738.777 1456.78 738.777 L1452.76 738.777 L1452.76 734.934 L1456.97 734.934 Q1460.42 734.934 1462.25 733.569 Q1464.08 732.18 1464.08 729.587 Q1464.08 726.925 1462.18 725.513 Q1460.3 724.078 1456.78 724.078 Q1454.86 724.078 1452.66 724.495 Q1450.47 724.911 1447.83 725.791 L1447.83 721.624 Q1450.49 720.884 1452.8 720.513 Q1455.14 720.143 1457.2 720.143 Q1462.53 720.143 1465.63 722.573 Q1468.73 724.981 1468.73 729.101 Q1468.73 731.972 1467.09 733.962 Q1465.44 735.93 1462.41 736.694 Z" fill="#000000" fill-rule="nonzero" fill-opacity="1" /><path clip-path="url(#clip380)" d="M1877.26 724.842 L1865.46 743.291 L1877.26 743.291 L1877.26 724.842 M1876.03 720.768 L1881.91 720.768 L1881.91 743.291 L1886.84 743.291 L1886.84 747.18 L1881.91 747.18 L1881.91 755.328 L1877.26 755.328 L1877.26 747.18 L1861.66 747.18 L1861.66 742.666 L1876.03 720.768 Z" fill="#000000" fill-rule="nonzero" fill-opacity="1" /><path clip-path="url(#clip380)" d="M2280.62 720.768 L2298.98 720.768 L2298.98 724.703 L2284.9 724.703 L2284.9 733.175 Q2285.92 732.828 2286.94 732.666 Q2287.96 732.481 2288.98 732.481 Q2294.76 732.481 2298.14 735.652 Q2301.52 738.823 2301.52 744.24 Q2301.52 749.819 2298.05 752.92 Q2294.58 755.999 2288.26 755.999 Q2286.08 755.999 2283.81 755.629 Q2281.57 755.258 2279.16 754.518 L2279.16 749.819 Q2281.25 750.953 2283.47 751.508 Q2285.69 752.064 2288.17 752.064 Q2292.17 752.064 2294.51 749.958 Q2296.85 747.851 2296.85 744.24 Q2296.85 740.629 2294.51 738.522 Q2292.17 736.416 2288.17 736.416 Q2286.29 736.416 2284.42 736.833 Q2282.56 737.249 2280.62 738.129 L2280.62 720.768 Z" fill="#000000" fill-rule="nonzero" fill-opacity="1" /><polyline clip-path="url(#clip380)" style="stroke:#000000; stroke-linecap:round; stroke-linejoin:round; stroke-width:4; stroke-opacity:1; fill:none" points="147.478,692.928 147.478,123.472 "/>
<polyline clip-path="url(#clip380)" style="stroke:#000000; stroke-linecap:round; stroke-linejoin:round; stroke-width:4; stroke-opacity:1; fill:none" points="147.478,653.784 166.376,653.784 "/>
<polyline clip-path="url(#clip380)" style="stroke:#000000; stroke-linecap:round; stroke-linejoin:round; stroke-width:4; stroke-opacity:1; fill:none" points="147.478,557.689 166.376,557.689 "/>
<polyline clip-path="url(#clip380)" style="stroke:#000000; stroke-linecap:round; stroke-linejoin:round; stroke-width:4; stroke-opacity:1; fill:none" points="147.478,461.595 166.376,461.595 "/>
<polyline clip-path="url(#clip380)" style="stroke:#000000; stroke-linecap:round; stroke-linejoin:round; stroke-width:4; stroke-opacity:1; fill:none" points="147.478,365.5 166.376,365.5 "/>
<polyline clip-path="url(#clip380)" style="stroke:#000000; stroke-linecap:round; stroke-linejoin:round; stroke-width:4; stroke-opacity:1; fill:none" points="147.478,269.406 166.376,269.406 "/>
<polyline clip-path="url(#clip380)" style="stroke:#000000; stroke-linecap:round; stroke-linejoin:round; stroke-width:4; stroke-opacity:1; fill:none" points="147.478,173.311 166.376,173.311 "/>
<path clip-path="url(#clip380)" d="M51.3625 654.235 L81.0383 654.235 L81.0383 658.17 L51.3625 658.17 L51.3625 654.235 Z" fill="#000000" fill-rule="nonzero" fill-opacity="1" /><path clip-path="url(#clip380)" d="M95.1586 667.128 L111.478 667.128 L111.478 671.064 L89.5336 671.064 L89.5336 667.128 Q92.1956 664.374 96.7789 659.744 Q101.385 655.091 102.566 653.749 Q104.811 651.226 105.691 649.49 Q106.594 647.73 106.594 646.041 Q106.594 643.286 104.649 641.55 Q102.728 639.814 99.6261 639.814 Q97.4271 639.814 94.9734 640.578 Q92.5428 641.342 89.7651 642.892 L89.7651 638.17 Q92.5891 637.036 95.0428 636.457 Q97.4965 635.879 99.5335 635.879 Q104.904 635.879 108.098 638.564 Q111.293 641.249 111.293 645.74 Q111.293 647.869 110.483 649.791 Q109.696 651.689 107.589 654.281 Q107.01 654.953 103.909 658.17 Q100.807 661.365 95.1586 667.128 Z" fill="#000000" fill-rule="nonzero" fill-opacity="1" /><path clip-path="url(#clip380)" d="M50.9921 558.141 L80.6679 558.141 L80.6679 562.076 L50.9921 562.076 L50.9921 558.141 Z" fill="#000000" fill-rule="nonzero" fill-opacity="1" /><path clip-path="url(#clip380)" d="M91.5706 571.034 L99.2095 571.034 L99.2095 544.668 L90.8993 546.335 L90.8993 542.076 L99.1632 540.409 L103.839 540.409 L103.839 571.034 L111.478 571.034 L111.478 574.969 L91.5706 574.969 L91.5706 571.034 Z" fill="#000000" fill-rule="nonzero" fill-opacity="1" /><path clip-path="url(#clip380)" d="M99.5335 447.393 Q95.9224 447.393 94.0937 450.958 Q92.2882 454.5 92.2882 461.629 Q92.2882 468.736 94.0937 472.301 Q95.9224 475.842 99.5335 475.842 Q103.168 475.842 104.973 472.301 Q106.802 468.736 106.802 461.629 Q106.802 454.5 104.973 450.958 Q103.168 447.393 99.5335 447.393 M99.5335 443.69 Q105.344 443.69 108.399 448.296 Q111.478 452.879 111.478 461.629 Q111.478 470.356 108.399 474.963 Q105.344 479.546 99.5335 479.546 Q93.7234 479.546 90.6447 474.963 Q87.5892 470.356 87.5892 461.629 Q87.5892 452.879 90.6447 448.296 Q93.7234 443.69 99.5335 443.69 Z" fill="#000000" fill-rule="nonzero" fill-opacity="1" /><path clip-path="url(#clip380)" d="M91.5706 378.845 L99.2095 378.845 L99.2095 352.479 L90.8993 354.146 L90.8993 349.887 L99.1632 348.22 L103.839 348.22 L103.839 378.845 L111.478 378.845 L111.478 382.78 L91.5706 382.78 L91.5706 378.845 Z" fill="#000000" fill-rule="nonzero" fill-opacity="1" /><path clip-path="url(#clip380)" d="M95.1586 282.751 L111.478 282.751 L111.478 286.686 L89.5336 286.686 L89.5336 282.751 Q92.1956 279.996 96.7789 275.366 Q101.385 270.714 102.566 269.371 Q104.811 266.848 105.691 265.112 Q106.594 263.353 106.594 261.663 Q106.594 258.908 104.649 257.172 Q102.728 255.436 99.6261 255.436 Q97.4271 255.436 94.9734 256.2 Q92.5428 256.964 89.7651 258.515 L89.7651 253.792 Q92.5891 252.658 95.0428 252.079 Q97.4965 251.501 99.5335 251.501 Q104.904 251.501 108.098 254.186 Q111.293 256.871 111.293 261.362 Q111.293 263.491 110.483 265.413 Q109.696 267.311 107.589 269.903 Q107.01 270.575 103.909 273.792 Q100.807 276.987 95.1586 282.751 Z" fill="#000000" fill-rule="nonzero" fill-opacity="1" /><path clip-path="url(#clip380)" d="M104.348 171.957 Q107.705 172.675 109.58 174.943 Q111.478 177.212 111.478 180.545 Q111.478 185.661 107.959 188.462 Q104.441 191.263 97.9595 191.263 Q95.7836 191.263 93.4688 190.823 Q91.1771 190.406 88.7234 189.55 L88.7234 185.036 Q90.6678 186.17 92.9826 186.749 Q95.2974 187.327 97.8206 187.327 Q102.219 187.327 104.51 185.591 Q106.825 183.855 106.825 180.545 Q106.825 177.49 104.672 175.777 Q102.543 174.04 98.7234 174.04 L94.6956 174.04 L94.6956 170.198 L98.9085 170.198 Q102.358 170.198 104.186 168.832 Q106.015 167.443 106.015 164.851 Q106.015 162.189 104.117 160.777 Q102.242 159.341 98.7234 159.341 Q96.8021 159.341 94.603 159.758 Q92.4039 160.175 89.7651 161.054 L89.7651 156.888 Q92.4271 156.147 94.7419 155.777 Q97.0798 155.406 99.14 155.406 Q104.464 155.406 107.566 157.837 Q110.668 160.244 110.668 164.365 Q110.668 167.235 109.024 169.226 Q107.381 171.193 104.348 171.957 Z" fill="#000000" fill-rule="nonzero" fill-opacity="1" /><path clip-path="url(#clip380)" d="M683.638 12.096 L718.395 12.096 L718.395 18.9825 L691.821 18.9825 L691.821 36.8065 L715.803 36.8065 L715.803 43.6931 L691.821 43.6931 L691.821 72.576 L683.638 72.576 L683.638 12.096 Z" fill="#000000" fill-rule="nonzero" fill-opacity="1" /><path clip-path="url(#clip380)" d="M724.998 27.2059 L732.452 27.2059 L732.452 72.576 L724.998 72.576 L724.998 27.2059 M724.998 9.54393 L732.452 9.54393 L732.452 18.9825 L724.998 18.9825 L724.998 9.54393 Z" fill="#000000" fill-rule="nonzero" fill-opacity="1" /><path clip-path="url(#clip380)" d="M748.048 9.54393 L755.502 9.54393 L755.502 72.576 L748.048 72.576 L748.048 9.54393 Z" fill="#000000" fill-rule="nonzero" fill-opacity="1" /><path clip-path="url(#clip380)" d="M778.47 14.324 L778.47 27.2059 L793.823 27.2059 L793.823 32.9987 L778.47 32.9987 L778.47 57.6282 Q778.47 63.1779 779.969 64.7578 Q781.508 66.3376 786.167 66.3376 L793.823 66.3376 L793.823 72.576 L786.167 72.576 Q777.538 72.576 774.257 69.3758 Q770.976 66.1351 770.976 57.6282 L770.976 32.9987 L765.507 32.9987 L765.507 27.2059 L770.976 27.2059 L770.976 14.324 L778.47 14.324 Z" fill="#000000" fill-rule="nonzero" fill-opacity="1" /><path clip-path="url(#clip380)" d="M842.434 48.0275 L842.434 51.6733 L808.163 51.6733 Q808.649 59.3701 812.781 63.421 Q816.954 67.4314 824.367 67.4314 Q828.661 67.4314 832.671 66.3781 Q836.722 65.3249 840.692 63.2184 L840.692 70.267 Q836.682 71.9684 832.469 72.8596 Q828.256 73.7508 823.921 73.7508 Q813.065 73.7508 806.705 67.4314 Q800.386 61.1119 800.386 50.3365 Q800.386 39.1965 806.381 32.6746 Q812.417 26.1121 822.625 26.1121 Q831.78 26.1121 837.087 32.0264 Q842.434 37.9003 842.434 48.0275 M834.98 45.84 Q834.899 39.7232 831.537 36.0774 Q828.215 32.4315 822.706 32.4315 Q816.468 32.4315 812.7 35.9558 Q808.973 39.4801 808.406 45.8805 L834.98 45.84 Z" fill="#000000" fill-rule="nonzero" fill-opacity="1" /><path clip-path="url(#clip380)" d="M880.958 34.1734 Q879.702 33.4443 878.203 33.1202 Q876.745 32.7556 874.963 32.7556 Q868.643 32.7556 865.24 36.8875 Q861.878 40.9789 861.878 48.6757 L861.878 72.576 L854.384 72.576 L854.384 27.2059 L861.878 27.2059 L861.878 34.2544 Q864.228 30.1225 867.995 28.1376 Q871.762 26.1121 877.15 26.1121 Q877.92 26.1121 878.852 26.2337 Q879.783 26.3147 880.917 26.5172 L880.958 34.1734 Z" fill="#000000" fill-rule="nonzero" fill-opacity="1" /><path clip-path="url(#clip380)" d="M953.955 48.0275 L953.955 51.6733 L919.685 51.6733 Q920.171 59.3701 924.303 63.421 Q928.475 67.4314 935.888 67.4314 Q940.182 67.4314 944.193 66.3781 Q948.244 65.3249 952.213 63.2184 L952.213 70.267 Q948.203 71.9684 943.99 72.8596 Q939.777 73.7508 935.443 73.7508 Q924.586 73.7508 918.226 67.4314 Q911.907 61.1119 911.907 50.3365 Q911.907 39.1965 917.902 32.6746 Q923.938 26.1121 934.146 26.1121 Q943.301 26.1121 948.608 32.0264 Q953.955 37.9003 953.955 48.0275 M946.502 45.84 Q946.421 39.7232 943.058 36.0774 Q939.737 32.4315 934.227 32.4315 Q927.989 32.4315 924.222 35.9558 Q920.495 39.4801 919.928 45.8805 L946.502 45.84 Z" fill="#000000" fill-rule="nonzero" fill-opacity="1" /><path clip-path="url(#clip380)" d="M995.112 28.5427 L995.112 35.5912 Q991.953 33.9709 988.55 33.1607 Q985.147 32.3505 981.501 32.3505 Q975.952 32.3505 973.157 34.0519 Q970.402 35.7533 970.402 39.156 Q970.402 41.7486 972.387 43.2475 Q974.372 44.7058 980.367 46.0426 L982.919 46.6097 Q990.859 48.3111 994.181 51.4303 Q997.543 54.509 997.543 60.0587 Q997.543 66.3781 992.52 70.0644 Q987.537 73.7508 978.787 73.7508 Q975.142 73.7508 971.172 73.0216 Q967.242 72.3329 962.867 70.9151 L962.867 63.2184 Q966.999 65.3654 971.01 66.4591 Q975.02 67.5124 978.949 67.5124 Q984.216 67.5124 987.051 65.73 Q989.887 63.9071 989.887 60.6258 Q989.887 57.5877 987.821 55.9673 Q985.795 54.3469 978.868 52.8481 L976.276 52.2405 Q969.349 50.7821 966.27 47.7845 Q963.191 44.7463 963.191 39.4801 Q963.191 33.0797 967.728 29.5959 Q972.265 26.1121 980.61 26.1121 Q984.742 26.1121 988.388 26.7198 Q992.034 27.3274 995.112 28.5427 Z" fill="#000000" fill-rule="nonzero" fill-opacity="1" /><path clip-path="url(#clip380)" d="M1016.78 14.324 L1016.78 27.2059 L1032.14 27.2059 L1032.14 32.9987 L1016.78 32.9987 L1016.78 57.6282 Q1016.78 63.1779 1018.28 64.7578 Q1019.82 66.3376 1024.48 66.3376 L1032.14 66.3376 L1032.14 72.576 L1024.48 72.576 Q1015.85 72.576 1012.57 69.3758 Q1009.29 66.1351 1009.29 57.6282 L1009.29 32.9987 L1003.82 32.9987 L1003.82 27.2059 L1009.29 27.2059 L1009.29 14.324 L1016.78 14.324 Z" fill="#000000" fill-rule="nonzero" fill-opacity="1" /><path clip-path="url(#clip380)" d="M1041.94 27.2059 L1049.39 27.2059 L1049.39 72.576 L1041.94 72.576 L1041.94 27.2059 M1041.94 9.54393 L1049.39 9.54393 L1049.39 18.9825 L1041.94 18.9825 L1041.94 9.54393 Z" fill="#000000" fill-rule="nonzero" fill-opacity="1" /><path clip-path="url(#clip380)" d="M1100.31 35.9153 Q1103.11 30.8922 1107 28.5022 Q1110.89 26.1121 1116.15 26.1121 Q1123.24 26.1121 1127.09 31.0947 Q1130.94 36.0368 1130.94 45.1919 L1130.94 72.576 L1123.45 72.576 L1123.45 45.4349 Q1123.45 38.913 1121.14 35.7533 Q1118.83 32.5936 1114.09 32.5936 Q1108.29 32.5936 1104.93 36.4419 Q1101.57 40.2903 1101.57 46.9338 L1101.57 72.576 L1094.08 72.576 L1094.08 45.4349 Q1094.08 38.8725 1091.77 35.7533 Q1089.46 32.5936 1084.64 32.5936 Q1078.93 32.5936 1075.56 36.4824 Q1072.2 40.3308 1072.2 46.9338 L1072.2 72.576 L1064.71 72.576 L1064.71 27.2059 L1072.2 27.2059 L1072.2 34.2544 Q1074.75 30.082 1078.32 28.0971 Q1081.88 26.1121 1086.78 26.1121 Q1091.73 26.1121 1095.17 28.6237 Q1098.65 31.1352 1100.31 35.9153 Z" fill="#000000" fill-rule="nonzero" fill-opacity="1" /><path clip-path="url(#clip380)" d="M1166.43 49.7694 Q1157.39 49.7694 1153.91 51.8354 Q1150.42 53.9013 1150.42 58.8839 Q1150.42 62.8538 1153.02 65.2034 Q1155.65 67.5124 1160.15 67.5124 Q1166.34 67.5124 1170.07 63.1374 Q1173.84 58.7219 1173.84 51.4303 L1173.84 49.7694 L1166.43 49.7694 M1181.29 46.6907 L1181.29 72.576 L1173.84 72.576 L1173.84 65.6895 Q1171.29 69.8214 1167.48 71.8063 Q1163.67 73.7508 1158.16 73.7508 Q1151.19 73.7508 1147.06 69.8619 Q1142.97 65.9325 1142.97 59.3701 Q1142.97 51.7138 1148.07 47.825 Q1153.22 43.9361 1163.39 43.9361 L1173.84 43.9361 L1173.84 43.2069 Q1173.84 38.0623 1170.44 35.2672 Q1167.07 32.4315 1160.96 32.4315 Q1157.07 32.4315 1153.38 33.3632 Q1149.69 34.295 1146.29 36.1584 L1146.29 29.2718 Q1150.38 27.692 1154.23 26.9223 Q1158.08 26.1121 1161.73 26.1121 Q1171.57 26.1121 1176.43 31.2163 Q1181.29 36.3204 1181.29 46.6907 Z" fill="#000000" fill-rule="nonzero" fill-opacity="1" /><path clip-path="url(#clip380)" d="M1204.02 14.324 L1204.02 27.2059 L1219.37 27.2059 L1219.37 32.9987 L1204.02 32.9987 L1204.02 57.6282 Q1204.02 63.1779 1205.52 64.7578 Q1207.06 66.3376 1211.71 66.3376 L1219.37 66.3376 L1219.37 72.576 L1211.71 72.576 Q1203.09 72.576 1199.8 69.3758 Q1196.52 66.1351 1196.52 57.6282 L1196.52 32.9987 L1191.05 32.9987 L1191.05 27.2059 L1196.52 27.2059 L1196.52 14.324 L1204.02 14.324 Z" fill="#000000" fill-rule="nonzero" fill-opacity="1" /><path clip-path="url(#clip380)" d="M1267.98 48.0275 L1267.98 51.6733 L1233.71 51.6733 Q1234.2 59.3701 1238.33 63.421 Q1242.5 67.4314 1249.91 67.4314 Q1254.21 67.4314 1258.22 66.3781 Q1262.27 65.3249 1266.24 63.2184 L1266.24 70.267 Q1262.23 71.9684 1258.02 72.8596 Q1253.8 73.7508 1249.47 73.7508 Q1238.61 73.7508 1232.25 67.4314 Q1225.93 61.1119 1225.93 50.3365 Q1225.93 39.1965 1231.93 32.6746 Q1237.96 26.1121 1248.17 26.1121 Q1257.33 26.1121 1262.63 32.0264 Q1267.98 37.9003 1267.98 48.0275 M1260.53 45.84 Q1260.45 39.7232 1257.08 36.0774 Q1253.76 32.4315 1248.25 32.4315 Q1242.02 32.4315 1238.25 35.9558 Q1234.52 39.4801 1233.95 45.8805 L1260.53 45.84 Z" fill="#000000" fill-rule="nonzero" fill-opacity="1" /><path clip-path="url(#clip380)" d="M1309.14 28.5427 L1309.14 35.5912 Q1305.98 33.9709 1302.58 33.1607 Q1299.17 32.3505 1295.53 32.3505 Q1289.98 32.3505 1287.18 34.0519 Q1284.43 35.7533 1284.43 39.156 Q1284.43 41.7486 1286.41 43.2475 Q1288.4 44.7058 1294.39 46.0426 L1296.95 46.6097 Q1304.89 48.3111 1308.21 51.4303 Q1311.57 54.509 1311.57 60.0587 Q1311.57 66.3781 1306.55 70.0644 Q1301.56 73.7508 1292.81 73.7508 Q1289.17 73.7508 1285.2 73.0216 Q1281.27 72.3329 1276.89 70.9151 L1276.89 63.2184 Q1281.03 65.3654 1285.04 66.4591 Q1289.05 67.5124 1292.98 67.5124 Q1298.24 67.5124 1301.08 65.73 Q1303.91 63.9071 1303.91 60.6258 Q1303.91 57.5877 1301.85 55.9673 Q1299.82 54.3469 1292.89 52.8481 L1290.3 52.2405 Q1283.37 50.7821 1280.3 47.7845 Q1277.22 44.7463 1277.22 39.4801 Q1277.22 33.0797 1281.75 29.5959 Q1286.29 26.1121 1294.64 26.1121 Q1298.77 26.1121 1302.41 26.7198 Q1306.06 27.3274 1309.14 28.5427 Z" fill="#000000" fill-rule="nonzero" fill-opacity="1" /><path clip-path="url(#clip380)" d="M1367.39 32.4315 Q1361.4 32.4315 1357.91 37.1306 Q1354.43 41.7891 1354.43 49.9314 Q1354.43 58.0738 1357.87 62.7728 Q1361.35 67.4314 1367.39 67.4314 Q1373.35 67.4314 1376.83 62.7323 Q1380.31 58.0333 1380.31 49.9314 Q1380.31 41.8701 1376.83 37.1711 Q1373.35 32.4315 1367.39 32.4315 M1367.39 26.1121 Q1377.11 26.1121 1382.66 32.4315 Q1388.21 38.7509 1388.21 49.9314 Q1388.21 61.0714 1382.66 67.4314 Q1377.11 73.7508 1367.39 73.7508 Q1357.63 73.7508 1352.08 67.4314 Q1346.57 61.0714 1346.57 49.9314 Q1346.57 38.7509 1352.08 32.4315 Q1357.63 26.1121 1367.39 26.1121 Z" fill="#000000" fill-rule="nonzero" fill-opacity="1" /><path clip-path="url(#clip380)" d="M1423.54 9.54393 L1423.54 15.7418 L1416.41 15.7418 Q1412.4 15.7418 1410.82 17.3622 Q1409.28 18.9825 1409.28 23.1955 L1409.28 27.2059 L1421.55 27.2059 L1421.55 32.9987 L1409.28 32.9987 L1409.28 72.576 L1401.78 72.576 L1401.78 32.9987 L1394.65 32.9987 L1394.65 27.2059 L1401.78 27.2059 L1401.78 24.0462 Q1401.78 16.471 1405.31 13.0277 Q1408.83 9.54393 1416.49 9.54393 L1423.54 9.54393 Z" fill="#000000" fill-rule="nonzero" fill-opacity="1" /><path clip-path="url(#clip380)" d="M1463.52 14.324 L1463.52 27.2059 L1478.87 27.2059 L1478.87 32.9987 L1463.52 32.9987 L1463.52 57.6282 Q1463.52 63.1779 1465.02 64.7578 Q1466.56 66.3376 1471.22 66.3376 L1478.87 66.3376 L1478.87 72.576 L1471.22 72.576 Q1462.59 72.576 1459.31 69.3758 Q1456.02 66.1351 1456.02 57.6282 L1456.02 32.9987 L1450.56 32.9987 L1450.56 27.2059 L1456.02 27.2059 L1456.02 14.324 L1463.52 14.324 Z" fill="#000000" fill-rule="nonzero" fill-opacity="1" /><path clip-path="url(#clip380)" d="M1526.39 45.1919 L1526.39 72.576 L1518.93 72.576 L1518.93 45.4349 Q1518.93 38.994 1516.42 35.7938 Q1513.91 32.5936 1508.89 32.5936 Q1502.85 32.5936 1499.37 36.4419 Q1495.89 40.2903 1495.89 46.9338 L1495.89 72.576 L1488.39 72.576 L1488.39 9.54393 L1495.89 9.54393 L1495.89 34.2544 Q1498.56 30.163 1502.16 28.1376 Q1505.81 26.1121 1510.55 26.1121 Q1518.37 26.1121 1522.38 30.9732 Q1526.39 35.7938 1526.39 45.1919 Z" fill="#000000" fill-rule="nonzero" fill-opacity="1" /><path clip-path="url(#clip380)" d="M1580.06 48.0275 L1580.06 51.6733 L1545.79 51.6733 Q1546.28 59.3701 1550.41 63.421 Q1554.58 67.4314 1562 67.4314 Q1566.29 67.4314 1570.3 66.3781 Q1574.35 65.3249 1578.32 63.2184 L1578.32 70.267 Q1574.31 71.9684 1570.1 72.8596 Q1565.88 73.7508 1561.55 73.7508 Q1550.69 73.7508 1544.33 67.4314 Q1538.01 61.1119 1538.01 50.3365 Q1538.01 39.1965 1544.01 32.6746 Q1550.05 26.1121 1560.25 26.1121 Q1569.41 26.1121 1574.72 32.0264 Q1580.06 37.9003 1580.06 48.0275 M1572.61 45.84 Q1572.53 39.7232 1569.17 36.0774 Q1565.84 32.4315 1560.34 32.4315 Q1554.1 32.4315 1550.33 35.9558 Q1546.6 39.4801 1546.04 45.8805 L1572.61 45.84 Z" fill="#000000" fill-rule="nonzero" fill-opacity="1" /><path clip-path="url(#clip380)" d="M1647.59 28.5427 L1647.59 35.5912 Q1644.43 33.9709 1641.03 33.1607 Q1637.63 32.3505 1633.98 32.3505 Q1628.43 32.3505 1625.64 34.0519 Q1622.88 35.7533 1622.88 39.156 Q1622.88 41.7486 1624.87 43.2475 Q1626.85 44.7058 1632.85 46.0426 L1635.4 46.6097 Q1643.34 48.3111 1646.66 51.4303 Q1650.02 54.509 1650.02 60.0587 Q1650.02 66.3781 1645 70.0644 Q1640.02 73.7508 1631.27 73.7508 Q1627.62 73.7508 1623.65 73.0216 Q1619.72 72.3329 1615.35 70.9151 L1615.35 63.2184 Q1619.48 65.3654 1623.49 66.4591 Q1627.5 67.5124 1631.43 67.5124 Q1636.69 67.5124 1639.53 65.73 Q1642.37 63.9071 1642.37 60.6258 Q1642.37 57.5877 1640.3 55.9673 Q1638.27 54.3469 1631.35 52.8481 L1628.75 52.2405 Q1621.83 50.7821 1618.75 47.7845 Q1615.67 44.7463 1615.67 39.4801 Q1615.67 33.0797 1620.21 29.5959 Q1624.74 26.1121 1633.09 26.1121 Q1637.22 26.1121 1640.87 26.7198 Q1644.51 27.3274 1647.59 28.5427 Z" fill="#000000" fill-rule="nonzero" fill-opacity="1" /><path clip-path="url(#clip380)" d="M1669.26 14.324 L1669.26 27.2059 L1684.62 27.2059 L1684.62 32.9987 L1669.26 32.9987 L1669.26 57.6282 Q1669.26 63.1779 1670.76 64.7578 Q1672.3 66.3376 1676.96 66.3376 L1684.62 66.3376 L1684.62 72.576 L1676.96 72.576 Q1668.33 72.576 1665.05 69.3758 Q1661.77 66.1351 1661.77 57.6282 L1661.77 32.9987 L1656.3 32.9987 L1656.3 27.2059 L1661.77 27.2059 L1661.77 14.324 L1669.26 14.324 Z" fill="#000000" fill-rule="nonzero" fill-opacity="1" /><path clip-path="url(#clip380)" d="M1715.04 49.7694 Q1706.01 49.7694 1702.52 51.8354 Q1699.04 53.9013 1699.04 58.8839 Q1699.04 62.8538 1701.63 65.2034 Q1704.26 67.5124 1708.76 67.5124 Q1714.96 67.5124 1718.69 63.1374 Q1722.45 58.7219 1722.45 51.4303 L1722.45 49.7694 L1715.04 49.7694 M1729.91 46.6907 L1729.91 72.576 L1722.45 72.576 L1722.45 65.6895 Q1719.9 69.8214 1716.09 71.8063 Q1712.28 73.7508 1706.78 73.7508 Q1699.81 73.7508 1695.68 69.8619 Q1691.58 65.9325 1691.58 59.3701 Q1691.58 51.7138 1696.69 47.825 Q1701.83 43.9361 1712 43.9361 L1722.45 43.9361 L1722.45 43.2069 Q1722.45 38.0623 1719.05 35.2672 Q1715.69 32.4315 1709.57 32.4315 Q1705.68 32.4315 1702 33.3632 Q1698.31 34.295 1694.91 36.1584 L1694.91 29.2718 Q1699 27.692 1702.85 26.9223 Q1706.69 26.1121 1710.34 26.1121 Q1720.18 26.1121 1725.04 31.2163 Q1729.91 36.3204 1729.91 46.6907 Z" fill="#000000" fill-rule="nonzero" fill-opacity="1" /><path clip-path="url(#clip380)" d="M1752.63 14.324 L1752.63 27.2059 L1767.98 27.2059 L1767.98 32.9987 L1752.63 32.9987 L1752.63 57.6282 Q1752.63 63.1779 1754.13 64.7578 Q1755.67 66.3376 1760.33 66.3376 L1767.98 66.3376 L1767.98 72.576 L1760.33 72.576 Q1751.7 72.576 1748.42 69.3758 Q1745.14 66.1351 1745.14 57.6282 L1745.14 32.9987 L1739.67 32.9987 L1739.67 27.2059 L1745.14 27.2059 L1745.14 14.324 L1752.63 14.324 Z" fill="#000000" fill-rule="nonzero" fill-opacity="1" /><path clip-path="url(#clip380)" d="M1816.6 48.0275 L1816.6 51.6733 L1782.32 51.6733 Q1782.81 59.3701 1786.94 63.421 Q1791.12 67.4314 1798.53 67.4314 Q1802.82 67.4314 1806.83 66.3781 Q1810.88 65.3249 1814.85 63.2184 L1814.85 70.267 Q1810.84 71.9684 1806.63 72.8596 Q1802.42 73.7508 1798.08 73.7508 Q1787.23 73.7508 1780.87 67.4314 Q1774.55 61.1119 1774.55 50.3365 Q1774.55 39.1965 1780.54 32.6746 Q1786.58 26.1121 1796.79 26.1121 Q1805.94 26.1121 1811.25 32.0264 Q1816.6 37.9003 1816.6 48.0275 M1809.14 45.84 Q1809.06 39.7232 1805.7 36.0774 Q1802.38 32.4315 1796.87 32.4315 Q1790.63 32.4315 1786.86 35.9558 Q1783.13 39.4801 1782.57 45.8805 L1809.14 45.84 Z" fill="#000000" fill-rule="nonzero" fill-opacity="1" /><polyline clip-path="url(#clip382)" style="stroke:#009af9; stroke-linecap:round; stroke-linejoin:round; stroke-width:4; stroke-opacity:1; fill:none" points="209.891,444.936 220.346,416.815 230.8,417.856 241.255,415.03 251.71,394.982 262.164,384.624 272.619,369.777 283.073,363.513 293.528,333.663 303.982,326.668 314.437,313.162 324.891,306.526 335.346,307.409 345.8,317.551 356.255,279.203 366.709,274.633 377.164,305.936 387.618,295.205 398.073,341.137 408.527,368.852 418.982,333.251 429.437,359.523 439.891,317.835 450.346,313.079 460.8,313.661 471.255,370.104 481.709,355.504 492.164,404.847 502.618,486.28 513.073,453.22 523.527,469.219 533.982,456.61 544.436,413.45 554.891,432.999 565.345,429.656 575.8,424.15 586.254,454.065 596.709,500.353 607.163,500.792 617.618,500.876 628.073,483.463 638.527,504.688 648.982,540.684 659.436,493.053 669.891,484.483 680.345,502.081 690.8,490.309 701.254,449.691 711.709,409.704 722.163,414.31 732.618,429.107 743.072,399.801 753.527,375.507 763.981,334.498 774.436,332.753 784.89,326.685 795.345,342.059 805.799,358.575 816.254,309.242 826.709,233.877 837.163,234.823 847.618,186.069 858.072,205.708 868.527,221.153 878.981,239.164 889.436,298.922 899.89,304.329 910.345,282.216 920.799,310.051 931.254,364.866 941.708,339.363 952.163,358.074 962.617,329.201 973.072,322.615 983.526,329.372 993.981,313.85 1004.44,326.962 1014.89,310.668 1025.34,334.288 1035.8,290.654 1046.25,305.975 1056.71,271.444 1067.16,246.04 1077.62,286.498 1088.07,300.845 1098.53,361.957 1108.98,334.459 1119.44,320.47 1129.89,322.911 1140.34,308.442 1150.8,329.346 1161.25,332.92 1171.71,301.345 1182.16,334.914 1192.62,306.062 1203.07,281.011 1213.53,294.037 1223.98,351.538 1234.44,374.783 1244.89,364.568 1255.34,403.84 1265.8,407.313 1276.25,386.62 1286.71,420.796 1297.16,448.776 1307.62,418.176 1318.07,393.893 1328.53,466.599 1338.98,455.836 1349.43,489.63 1359.89,535.355 1370.34,571.554 1380.8,551.791 1391.25,533.404 1401.71,521.166 1412.16,545.442 1422.62,545.654 1433.07,533.732 1443.53,570.655 1453.98,565.005 1464.43,561.822 1474.89,581.218 1485.34,595.473 1495.8,539.192 1506.25,475.714 1516.71,460.426 1527.16,479.831 1537.62,477.267 1548.07,474.185 1558.53,496.754 1568.98,490.626 1579.43,438.06 1589.89,430.404 1600.34,432.026 1610.8,434.785 1621.25,405.695 1631.71,421.739 1642.16,404.479 1652.62,400.529 1663.07,459.771 1673.53,468.099 1683.98,477.08 1694.43,454.032 1704.89,445.594 1715.34,448.584 1725.8,423.926 1736.25,424.828 1746.71,419.809 1757.16,363.263 1767.62,406.812 1778.07,459.15 1788.53,463.16 1798.98,412.685 1809.43,406.131 1819.89,421.69 1830.34,447.599 1840.8,434.798 1851.25,420.199 1861.71,467.421 1872.16,472.87 1882.62,520.024 1893.07,463.609 1903.52,430.855 1913.98,364.111 1924.43,344.357 1934.89,325.881 1945.34,392.731 1955.8,408.414 1966.25,451.7 1976.71,444.385 1987.16,455.901 1997.62,447.498 2008.07,458.269 2018.52,401.196 2028.98,407.149 2039.43,474.175 2049.89,480.941 2060.34,487.827 2070.8,506.379 2081.25,519.443 2091.71,511.106 2102.16,525.1 2112.62,543.63 2123.07,521.79 2133.52,505.819 2143.98,519.679 2154.43,524.714 2164.89,502.816 2175.34,475.456 2185.8,543.298 2196.25,579.832 2206.71,568.472 2217.16,609.218 2227.62,596.3 2238.07,607.996 2248.52,595.187 2258.98,597.823 2269.43,615.783 2279.89,668.053 2290.34,667.146 "/>
<path clip-path="url(#clip382)" d="M209.891 600.308 L220.346 626.037 L230.8 658.313 L241.255 657.348 L251.71 660.662 L262.164 618.294 L272.619 551.601 L283.073 497.121 L293.528 489.186 L303.982 463.755 L314.437 474.193 L324.891 537.575 L335.346 454.411 L345.8 439.595 L356.255 461.286 L366.709 455.199 L377.164 449.016 L387.618 440.228 L398.073 442.349 L408.527 439.098 L418.982 443.039 L429.437 433.303 L439.891 466.083 L450.346 461.923 L460.8 446.682 L471.255 459.44 L481.709 454.966 L492.164 462.687 L502.618 518.159 L513.073 540.041 L523.527 554.336 L533.982 575.416 L544.436 575.132 L554.891 582.188 L565.345 575.518 L575.8 571.923 L586.254 583.639 L596.709 595.792 L607.163 583.955 L617.618 545.727 L628.073 552.316 L638.527 593.839 L648.982 619.07 L659.436 611.74 L669.891 578.62 L680.345 554.303 L690.8 550.26 L701.254 545.74 L711.709 554.891 L722.163 578.009 L732.618 567.864 L743.072 540.524 L753.527 562.71 L763.981 594.163 L774.436 591.14 L784.89 574.008 L795.345 557.582 L805.799 518.055 L816.254 492.601 L826.709 479.86 L837.163 475.217 L847.618 443.942 L858.072 438.471 L868.527 393.428 L878.981 373.693 L889.436 384.372 L899.89 395.082 L910.345 389.826 L920.799 399.974 L931.254 414.8 L941.708 449.591 L952.163 448.758 L962.617 465.838 L973.072 489.409 L983.526 491.126 L993.981 462.624 L1004.44 493.966 L1014.89 456.135 L1025.34 476.241 L1035.8 478.684 L1046.25 491.734 L1056.71 491.125 L1067.16 456.23 L1077.62 447.168 L1088.07 453.42 L1098.53 484.389 L1108.98 453.422 L1119.44 443.218 L1129.89 487.747 L1140.34 505.143 L1150.8 490.384 L1161.25 517.667 L1171.71 487.861 L1182.16 479.834 L1192.62 460.298 L1203.07 460.752 L1213.53 471.123 L1223.98 464.43 L1234.44 463.568 L1244.89 467.574 L1255.34 476.393 L1265.8 480.705 L1276.25 465.531 L1286.71 484.611 L1297.16 495.927 L1307.62 517.064 L1318.07 523.442 L1328.53 554.501 L1338.98 546.174 L1349.43 526.776 L1359.89 556.168 L1370.34 547.998 L1380.8 598.55 L1391.25 618.029 L1401.71 590.819 L1412.16 607.458 L1422.62 618.822 L1433.07 624.742 L1443.53 637.31 L1453.98 614.077 L1464.43 606.123 L1474.89 616.22 L1485.34 643.86 L1495.8 652.528 L1506.25 668.488 L1516.71 661.969 L1527.16 643.438 L1537.62 621.742 L1548.07 617.226 L1558.53 607.482 L1568.98 605.973 L1579.43 605.122 L1589.89 593.721 L1600.34 597.216 L1610.8 580.796 L1621.25 588.445 L1631.71 607.977 L1642.16 616.929 L1652.62 561.855 L1663.07 538.925 L1673.53 559.89 L1683.98 527.81 L1694.43 574.06 L1704.89 583.749 L1715.34 575.629 L1725.8 561.796 L1736.25 554.015 L1746.71 561.203 L1757.16 572.478 L1767.62 567.434 L1778.07 572.003 L1788.53 581.823 L1798.98 545.256 L1809.43 521.476 L1819.89 497.12 L1830.34 512.696 L1840.8 491.859 L1851.25 519.279 L1861.71 563.122 L1872.16 573.856 L1882.62 557.273 L1893.07 587.59 L1903.52 600.883 L1913.98 635.302 L1924.43 630.549 L1934.89 575.762 L1945.34 556.284 L1955.8 533.684 L1966.25 476.187 L1976.71 443.763 L1987.16 502.384 L1997.62 514.564 L2008.07 536.976 L2018.52 550.967 L2028.98 553.169 L2039.43 571.013 L2049.89 573.275 L2060.34 591.559 L2070.8 573.24 L2081.25 573.932 L2091.71 594.459 L2102.16 574.362 L2112.62 612.42 L2123.07 632.32 L2133.52 606.448 L2143.98 601.152 L2154.43 599.828 L2164.89 603.886 L2175.34 605.204 L2185.8 596.111 L2196.25 599.536 L2206.71 614.314 L2217.16 604.002 L2227.62 633.203 L2238.07 642.244 L2248.52 644.64 L2258.98 650.089 L2269.43 642.944 L2279.89 632.23 L2290.34 676.811 L2290.34 442.707 L2279.89 398.125 L2269.43 408.84 L2258.98 415.984 L2248.52 410.536 L2238.07 408.139 L2227.62 399.099 L2217.16 369.897 L2206.71 380.209 L2196.25 365.431 L2185.8 362.007 L2175.34 371.1 L2164.89 369.781 L2154.43 365.724 L2143.98 367.048 L2133.52 372.344 L2123.07 398.216 L2112.62 378.315 L2102.16 340.257 L2091.71 360.355 L2081.25 339.828 L2070.8 339.135 L2060.34 357.454 L2049.89 339.171 L2039.43 336.909 L2028.98 319.065 L2018.52 316.863 L2008.07 302.872 L1997.62 280.459 L1987.16 268.28 L1976.71 209.659 L1966.25 242.082 L1955.8 299.58 L1945.34 322.179 L1934.89 341.658 L1924.43 396.444 L1913.98 401.198 L1903.52 366.778 L1893.07 353.485 L1882.62 323.169 L1872.16 339.752 L1861.71 329.017 L1851.25 285.175 L1840.8 257.755 L1830.34 278.592 L1819.89 263.016 L1809.43 287.372 L1798.98 311.152 L1788.53 347.719 L1778.07 337.899 L1767.62 333.33 L1757.16 338.374 L1746.71 327.099 L1736.25 319.91 L1725.8 327.692 L1715.34 341.525 L1704.89 349.645 L1694.43 339.956 L1683.98 293.706 L1673.53 325.785 L1663.07 304.821 L1652.62 327.75 L1642.16 382.825 L1631.71 373.873 L1621.25 354.341 L1610.8 346.691 L1600.34 363.112 L1589.89 359.617 L1579.43 371.017 L1568.98 371.869 L1558.53 373.378 L1548.07 383.121 L1537.62 387.637 L1527.16 409.333 L1516.71 427.865 L1506.25 434.383 L1495.8 418.423 L1485.34 409.756 L1474.89 382.115 L1464.43 372.019 L1453.98 379.973 L1443.53 403.206 L1433.07 390.637 L1422.62 384.718 L1412.16 373.354 L1401.71 356.715 L1391.25 383.924 L1380.8 364.446 L1370.34 313.894 L1359.89 322.064 L1349.43 292.672 L1338.98 312.07 L1328.53 320.396 L1318.07 289.338 L1307.62 282.96 L1297.16 261.823 L1286.71 250.507 L1276.25 231.427 L1265.8 246.601 L1255.34 242.288 L1244.89 233.469 L1234.44 229.464 L1223.98 230.325 L1213.53 237.019 L1203.07 226.648 L1192.62 226.193 L1182.16 245.729 L1171.71 253.757 L1161.25 283.563 L1150.8 256.279 L1140.34 271.038 L1129.89 253.643 L1119.44 209.113 L1108.98 219.318 L1098.53 250.284 L1088.07 219.316 L1077.62 213.064 L1067.16 222.126 L1056.71 257.021 L1046.25 257.63 L1035.8 244.579 L1025.34 242.137 L1014.89 222.031 L1004.44 259.862 L993.981 228.519 L983.526 257.022 L973.072 255.305 L962.617 231.733 L952.163 214.653 L941.708 215.487 L931.254 180.695 L920.799 165.869 L910.345 155.721 L899.89 160.977 L889.436 150.268 L878.981 139.589 L868.527 159.323 L858.072 204.367 L847.618 209.837 L837.163 241.113 L826.709 245.755 L816.254 258.497 L805.799 283.951 L795.345 323.478 L784.89 339.904 L774.436 357.036 L763.981 360.058 L753.527 328.606 L743.072 306.42 L732.618 333.76 L722.163 343.905 L711.709 320.786 L701.254 311.636 L690.8 316.155 L680.345 320.198 L669.891 344.515 L659.436 377.636 L648.982 384.966 L638.527 359.734 L628.073 318.211 L617.618 311.622 L607.163 349.851 L596.709 361.688 L586.254 349.535 L575.8 337.818 L565.345 341.414 L554.891 348.083 L544.436 341.028 L533.982 341.312 L523.527 320.231 L513.073 305.935 L502.618 284.051 L492.164 228.577 L481.709 220.852 L471.255 225.321 L460.8 212.556 L450.346 227.788 L439.891 231.939 L429.437 199.15 L418.982 208.878 L408.527 204.933 L398.073 208.183 L387.618 206.061 L377.164 214.835 L366.709 220.966 L356.255 226.911 L345.8 204.909 L335.346 219.118 L324.891 301.205 L314.437 236.058 L303.982 222.918 L293.528 244.496 L283.073 247.334 L272.619 295.633 L262.164 355.59 L251.71 391.585 L241.255 383.361 L230.8 381.724 L220.346 349.057 L209.891 322.103  Z" fill="#e26f46" fill-rule="evenodd" fill-opacity="0.5"/>
<polyline clip-path="url(#clip382)" style="stroke:#e26f46; stroke-linecap:round; stroke-linejoin:round; stroke-width:4; stroke-opacity:1; fill:none" points="209.891,461.206 220.346,487.547 230.8,520.018 241.255,520.355 251.71,526.123 262.164,486.942 272.619,423.617 283.073,372.228 293.528,366.841 303.982,343.336 314.437,355.126 324.891,419.39 335.346,336.764 345.8,322.252 356.255,344.099 366.709,338.083 377.164,331.926 387.618,323.144 398.073,325.266 408.527,322.015 418.982,325.958 429.437,316.227 439.891,349.011 450.346,344.855 460.8,329.619 471.255,342.381 481.709,337.909 492.164,345.632 502.618,401.105 513.073,422.988 523.527,437.284 533.982,458.364 544.436,458.08 554.891,465.135 565.345,458.466 575.8,454.87 586.254,466.587 596.709,478.74 607.163,466.903 617.618,428.674 628.073,435.264 638.527,476.787 648.982,502.018 659.436,494.688 669.891,461.567 680.345,437.25 690.8,433.207 701.254,428.688 711.709,437.838 722.163,460.957 732.618,450.812 743.072,423.472 753.527,445.658 763.981,477.111 774.436,474.088 784.89,456.956 795.345,440.53 805.799,401.003 816.254,375.549 826.709,362.807 837.163,358.165 847.618,326.889 858.072,321.419 868.527,276.376 878.981,256.641 889.436,267.32 899.89,278.029 910.345,272.773 920.799,282.922 931.254,297.748 941.708,332.539 952.163,331.706 962.617,348.785 973.072,372.357 983.526,374.074 993.981,345.572 1004.44,376.914 1014.89,339.083 1025.34,359.189 1035.8,361.632 1046.25,374.682 1056.71,374.073 1067.16,339.178 1077.62,330.116 1088.07,336.368 1098.53,367.337 1108.98,336.37 1119.44,326.165 1129.89,370.695 1140.34,388.09 1150.8,373.331 1161.25,400.615 1171.71,370.809 1182.16,362.782 1192.62,343.246 1203.07,343.7 1213.53,354.071 1223.98,347.377 1234.44,346.516 1244.89,350.521 1255.34,359.34 1265.8,363.653 1276.25,348.479 1286.71,367.559 1297.16,378.875 1307.62,400.012 1318.07,406.39 1328.53,437.449 1338.98,429.122 1349.43,409.724 1359.89,439.116 1370.34,430.946 1380.8,481.498 1391.25,500.977 1401.71,473.767 1412.16,490.406 1422.62,501.77 1433.07,507.689 1443.53,520.258 1453.98,497.025 1464.43,489.071 1474.89,499.168 1485.34,526.808 1495.8,535.475 1506.25,551.435 1516.71,544.917 1527.16,526.386 1537.62,504.69 1548.07,500.173 1558.53,490.43 1568.98,488.921 1579.43,488.069 1589.89,476.669 1600.34,480.164 1610.8,463.743 1621.25,471.393 1631.71,490.925 1642.16,499.877 1652.62,444.802 1663.07,421.873 1673.53,442.837 1683.98,410.758 1694.43,457.008 1704.89,466.697 1715.34,458.577 1725.8,444.744 1736.25,436.962 1746.71,444.151 1757.16,455.426 1767.62,450.382 1778.07,454.951 1788.53,464.771 1798.98,428.204 1809.43,404.424 1819.89,380.068 1830.34,395.644 1840.8,374.807 1851.25,402.227 1861.71,446.069 1872.16,456.804 1882.62,440.221 1893.07,470.537 1903.52,483.831 1913.98,518.25 1924.43,513.497 1934.89,458.71 1945.34,439.231 1955.8,416.632 1966.25,359.134 1976.71,326.711 1987.16,385.332 1997.62,397.512 2008.07,419.924 2018.52,433.915 2028.98,436.117 2039.43,453.961 2049.89,456.223 2060.34,474.506 2070.8,456.187 2081.25,456.88 2091.71,477.407 2102.16,457.309 2112.62,495.367 2123.07,515.268 2133.52,489.396 2143.98,484.1 2154.43,482.776 2164.89,486.834 2175.34,488.152 2185.8,479.059 2196.25,482.484 2206.71,497.261 2217.16,486.95 2227.62,516.151 2238.07,525.192 2248.52,527.588 2258.98,533.037 2269.43,525.892 2279.89,515.177 2290.34,559.759 "/>
<path clip-path="url(#clip380)" d="M1891.59 297.974 L2279.25 297.974 L2279.25 142.454 L1891.59 142.454  Z" fill="#ffffff" fill-rule="evenodd" fill-opacity="1"/>
<polyline clip-path="url(#clip380)" style="stroke:#000000; stroke-linecap:round; stroke-linejoin:round; stroke-width:4; stroke-opacity:1; fill:none" points="1891.59,297.974 2279.25,297.974 2279.25,142.454 1891.59,142.454 1891.59,297.974 "/>
<polyline clip-path="url(#clip380)" style="stroke:#009af9; stroke-linecap:round; stroke-linejoin:round; stroke-width:4; stroke-opacity:1; fill:none" points="1916.09,194.294 2063.11,194.294 "/>
<path clip-path="url(#clip380)" d="M2112.27 185.648 L2102.89 198.264 L2112.75 211.574 L2107.73 211.574 L2100.18 201.389 L2092.64 211.574 L2087.61 211.574 L2097.68 198.009 L2088.47 185.648 L2093.49 185.648 L2100.37 194.884 L2107.24 185.648 L2112.27 185.648 Z" fill="#000000" fill-rule="nonzero" fill-opacity="1" /><path clip-path="url(#clip380)" d="M2120.18 207.639 L2127.82 207.639 L2127.82 181.273 L2119.51 182.94 L2119.51 178.681 L2127.78 177.014 L2132.45 177.014 L2132.45 207.639 L2140.09 207.639 L2140.09 211.574 L2120.18 211.574 L2120.18 207.639 Z" fill="#000000" fill-rule="nonzero" fill-opacity="1" /><polyline clip-path="url(#clip380)" style="stroke:#e26f46; stroke-linecap:round; stroke-linejoin:round; stroke-width:4; stroke-opacity:1; fill:none" points="1916.09,246.134 2063.11,246.134 "/>
<path clip-path="url(#clip380)" d="M2112.27 237.488 L2102.89 250.104 L2112.75 263.414 L2107.73 263.414 L2100.18 253.229 L2092.64 263.414 L2087.61 263.414 L2097.68 249.849 L2088.47 237.488 L2093.49 237.488 L2100.37 246.724 L2107.24 237.488 L2112.27 237.488 Z" fill="#000000" fill-rule="nonzero" fill-opacity="1" /><path clip-path="url(#clip380)" d="M2120.18 259.479 L2127.82 259.479 L2127.82 233.113 L2119.51 234.78 L2119.51 230.521 L2127.78 228.854 L2132.45 228.854 L2132.45 259.479 L2140.09 259.479 L2140.09 263.414 L2120.18 263.414 L2120.18 259.479 Z" fill="#000000" fill-rule="nonzero" fill-opacity="1" /><path clip-path="url(#clip380)" d="M2162.06 227.396 L2162.06 230.937 L2157.98 230.937 Q2155.69 230.937 2154.79 231.863 Q2153.91 232.789 2153.91 235.197 L2153.91 237.488 L2160.92 237.488 L2160.92 240.798 L2153.91 240.798 L2153.91 263.414 L2149.63 263.414 L2149.63 240.798 L2145.55 240.798 L2145.55 237.488 L2149.63 237.488 L2149.63 235.683 Q2149.63 231.354 2151.64 229.386 Q2153.66 227.396 2158.03 227.396 L2162.06 227.396 Z" fill="#000000" fill-rule="nonzero" fill-opacity="1" /><path clip-path="url(#clip380)" d="M2165.62 237.488 L2169.88 237.488 L2169.88 263.414 L2165.62 263.414 L2165.62 237.488 M2165.62 227.396 L2169.88 227.396 L2169.88 232.789 L2165.62 232.789 L2165.62 227.396 Z" fill="#000000" fill-rule="nonzero" fill-opacity="1" /><path clip-path="url(#clip380)" d="M2178.79 227.396 L2183.05 227.396 L2183.05 263.414 L2178.79 263.414 L2178.79 227.396 Z" fill="#000000" fill-rule="nonzero" fill-opacity="1" /><path clip-path="url(#clip380)" d="M2196.18 230.127 L2196.18 237.488 L2204.95 237.488 L2204.95 240.798 L2196.18 240.798 L2196.18 254.872 Q2196.18 258.044 2197.04 258.946 Q2197.92 259.849 2200.58 259.849 L2204.95 259.849 L2204.95 263.414 L2200.58 263.414 Q2195.65 263.414 2193.77 261.585 Q2191.9 259.733 2191.9 254.872 L2191.9 240.798 L2188.77 240.798 L2188.77 237.488 L2191.9 237.488 L2191.9 230.127 L2196.18 230.127 Z" fill="#000000" fill-rule="nonzero" fill-opacity="1" /><path clip-path="url(#clip380)" d="M2232.73 249.386 L2232.73 251.47 L2213.15 251.47 Q2213.42 255.868 2215.79 258.183 Q2218.17 260.474 2222.41 260.474 Q2224.86 260.474 2227.15 259.872 Q2229.47 259.27 2231.73 258.067 L2231.73 262.095 Q2229.44 263.067 2227.04 263.576 Q2224.63 264.085 2222.15 264.085 Q2215.95 264.085 2212.31 260.474 Q2208.7 256.863 2208.7 250.706 Q2208.7 244.34 2212.13 240.613 Q2215.58 236.863 2221.41 236.863 Q2226.64 236.863 2229.67 240.243 Q2232.73 243.599 2232.73 249.386 M2228.47 248.136 Q2228.42 244.641 2226.5 242.558 Q2224.6 240.474 2221.46 240.474 Q2217.89 240.474 2215.74 242.488 Q2213.61 244.502 2213.29 248.159 L2228.47 248.136 Z" fill="#000000" fill-rule="nonzero" fill-opacity="1" /><path clip-path="url(#clip380)" d="M2254.74 241.47 Q2254.03 241.053 2253.17 240.868 Q2252.34 240.659 2251.32 240.659 Q2247.71 240.659 2245.76 243.021 Q2243.84 245.359 2243.84 249.757 L2243.84 263.414 L2239.56 263.414 L2239.56 237.488 L2243.84 237.488 L2243.84 241.516 Q2245.18 239.155 2247.34 238.021 Q2249.49 236.863 2252.57 236.863 Q2253.01 236.863 2253.54 236.933 Q2254.07 236.979 2254.72 237.095 L2254.74 241.47 Z" fill="#000000" fill-rule="nonzero" fill-opacity="1" /><path clip-path="url(#clip380)" d="M147.478 1423.18 L2352.76 1423.18 L2352.76 853.724 L147.478 853.724  Z" fill="#ffffff" fill-rule="evenodd" fill-opacity="1"/>
<defs>
  <clipPath id="clip383">
    <rect x="147" y="853" width="2206" height="570"/>
  </clipPath>
</defs>
<polyline clip-path="url(#clip383)" style="stroke:#000000; stroke-linecap:round; stroke-linejoin:round; stroke-width:2; stroke-opacity:0.1; fill:none" points="209.891,1423.18 209.891,853.724 "/>
<polyline clip-path="url(#clip383)" style="stroke:#000000; stroke-linecap:round; stroke-linejoin:round; stroke-width:2; stroke-opacity:0.1; fill:none" points="625.982,1423.18 625.982,853.724 "/>
<polyline clip-path="url(#clip383)" style="stroke:#000000; stroke-linecap:round; stroke-linejoin:round; stroke-width:2; stroke-opacity:0.1; fill:none" points="1042.07,1423.18 1042.07,853.724 "/>
<polyline clip-path="url(#clip383)" style="stroke:#000000; stroke-linecap:round; stroke-linejoin:round; stroke-width:2; stroke-opacity:0.1; fill:none" points="1458.16,1423.18 1458.16,853.724 "/>
<polyline clip-path="url(#clip383)" style="stroke:#000000; stroke-linecap:round; stroke-linejoin:round; stroke-width:2; stroke-opacity:0.1; fill:none" points="1874.25,1423.18 1874.25,853.724 "/>
<polyline clip-path="url(#clip383)" style="stroke:#000000; stroke-linecap:round; stroke-linejoin:round; stroke-width:2; stroke-opacity:0.1; fill:none" points="2290.34,1423.18 2290.34,853.724 "/>
<polyline clip-path="url(#clip383)" style="stroke:#000000; stroke-linecap:round; stroke-linejoin:round; stroke-width:2; stroke-opacity:0.1; fill:none" points="147.478,1312.62 2352.76,1312.62 "/>
<polyline clip-path="url(#clip383)" style="stroke:#000000; stroke-linecap:round; stroke-linejoin:round; stroke-width:2; stroke-opacity:0.1; fill:none" points="147.478,1200.57 2352.76,1200.57 "/>
<polyline clip-path="url(#clip383)" style="stroke:#000000; stroke-linecap:round; stroke-linejoin:round; stroke-width:2; stroke-opacity:0.1; fill:none" points="147.478,1088.52 2352.76,1088.52 "/>
<polyline clip-path="url(#clip383)" style="stroke:#000000; stroke-linecap:round; stroke-linejoin:round; stroke-width:2; stroke-opacity:0.1; fill:none" points="147.478,976.467 2352.76,976.467 "/>
<polyline clip-path="url(#clip383)" style="stroke:#000000; stroke-linecap:round; stroke-linejoin:round; stroke-width:2; stroke-opacity:0.1; fill:none" points="147.478,864.415 2352.76,864.415 "/>
<polyline clip-path="url(#clip380)" style="stroke:#000000; stroke-linecap:round; stroke-linejoin:round; stroke-width:4; stroke-opacity:1; fill:none" points="147.478,1423.18 2352.76,1423.18 "/>
<polyline clip-path="url(#clip380)" style="stroke:#000000; stroke-linecap:round; stroke-linejoin:round; stroke-width:4; stroke-opacity:1; fill:none" points="209.891,1423.18 209.891,1404.28 "/>
<polyline clip-path="url(#clip380)" style="stroke:#000000; stroke-linecap:round; stroke-linejoin:round; stroke-width:4; stroke-opacity:1; fill:none" points="625.982,1423.18 625.982,1404.28 "/>
<polyline clip-path="url(#clip380)" style="stroke:#000000; stroke-linecap:round; stroke-linejoin:round; stroke-width:4; stroke-opacity:1; fill:none" points="1042.07,1423.18 1042.07,1404.28 "/>
<polyline clip-path="url(#clip380)" style="stroke:#000000; stroke-linecap:round; stroke-linejoin:round; stroke-width:4; stroke-opacity:1; fill:none" points="1458.16,1423.18 1458.16,1404.28 "/>
<polyline clip-path="url(#clip380)" style="stroke:#000000; stroke-linecap:round; stroke-linejoin:round; stroke-width:4; stroke-opacity:1; fill:none" points="1874.25,1423.18 1874.25,1404.28 "/>
<polyline clip-path="url(#clip380)" style="stroke:#000000; stroke-linecap:round; stroke-linejoin:round; stroke-width:4; stroke-opacity:1; fill:none" points="2290.34,1423.18 2290.34,1404.28 "/>
<path clip-path="url(#clip380)" d="M209.891 1454.1 Q206.28 1454.1 204.452 1457.66 Q202.646 1461.2 202.646 1468.33 Q202.646 1475.44 204.452 1479.01 Q206.28 1482.55 209.891 1482.55 Q213.526 1482.55 215.331 1479.01 Q217.16 1475.44 217.16 1468.33 Q217.16 1461.2 215.331 1457.66 Q213.526 1454.1 209.891 1454.1 M209.891 1450.39 Q215.702 1450.39 218.757 1455 Q221.836 1459.58 221.836 1468.33 Q221.836 1477.06 218.757 1481.67 Q215.702 1486.25 209.891 1486.25 Q204.081 1486.25 201.003 1481.67 Q197.947 1477.06 197.947 1468.33 Q197.947 1459.58 201.003 1455 Q204.081 1450.39 209.891 1450.39 Z" fill="#000000" fill-rule="nonzero" fill-opacity="1" /><path clip-path="url(#clip380)" d="M616.364 1481.64 L624.002 1481.64 L624.002 1455.28 L615.692 1456.95 L615.692 1452.69 L623.956 1451.02 L628.632 1451.02 L628.632 1481.64 L636.271 1481.64 L636.271 1485.58 L616.364 1485.58 L616.364 1481.64 Z" fill="#000000" fill-rule="nonzero" fill-opacity="1" /><path clip-path="url(#clip380)" d="M1036.72 1481.64 L1053.04 1481.64 L1053.04 1485.58 L1031.1 1485.58 L1031.1 1481.64 Q1033.76 1478.89 1038.34 1474.26 Q1042.95 1469.61 1044.13 1468.27 Q1046.38 1465.74 1047.26 1464.01 Q1048.16 1462.25 1048.16 1460.56 Q1048.16 1457.8 1046.22 1456.07 Q1044.29 1454.33 1041.19 1454.33 Q1038.99 1454.33 1036.54 1455.09 Q1034.11 1455.86 1031.33 1457.41 L1031.33 1452.69 Q1034.16 1451.55 1036.61 1450.97 Q1039.06 1450.39 1041.1 1450.39 Q1046.47 1450.39 1049.66 1453.08 Q1052.86 1455.77 1052.86 1460.26 Q1052.86 1462.39 1052.05 1464.31 Q1051.26 1466.2 1049.16 1468.8 Q1048.58 1469.47 1045.47 1472.69 Q1042.37 1475.88 1036.72 1481.64 Z" fill="#000000" fill-rule="nonzero" fill-opacity="1" /><path clip-path="url(#clip380)" d="M1462.41 1466.95 Q1465.77 1467.66 1467.64 1469.93 Q1469.54 1472.2 1469.54 1475.53 Q1469.54 1480.65 1466.02 1483.45 Q1462.5 1486.25 1456.02 1486.25 Q1453.84 1486.25 1451.53 1485.81 Q1449.24 1485.39 1446.78 1484.54 L1446.78 1480.02 Q1448.73 1481.16 1451.04 1481.74 Q1453.36 1482.32 1455.88 1482.32 Q1460.28 1482.32 1462.57 1480.58 Q1464.89 1478.84 1464.89 1475.53 Q1464.89 1472.48 1462.73 1470.77 Q1460.6 1469.03 1456.78 1469.03 L1452.76 1469.03 L1452.76 1465.19 L1456.97 1465.19 Q1460.42 1465.19 1462.25 1463.82 Q1464.08 1462.43 1464.08 1459.84 Q1464.08 1457.18 1462.18 1455.77 Q1460.3 1454.33 1456.78 1454.33 Q1454.86 1454.33 1452.66 1454.75 Q1450.47 1455.16 1447.83 1456.04 L1447.83 1451.88 Q1450.49 1451.14 1452.8 1450.77 Q1455.14 1450.39 1457.2 1450.39 Q1462.53 1450.39 1465.63 1452.83 Q1468.73 1455.23 1468.73 1459.35 Q1468.73 1462.22 1467.09 1464.21 Q1465.44 1466.18 1462.41 1466.95 Z" fill="#000000" fill-rule="nonzero" fill-opacity="1" /><path clip-path="url(#clip380)" d="M1877.26 1455.09 L1865.46 1473.54 L1877.26 1473.54 L1877.26 1455.09 M1876.03 1451.02 L1881.91 1451.02 L1881.91 1473.54 L1886.84 1473.54 L1886.84 1477.43 L1881.91 1477.43 L1881.91 1485.58 L1877.26 1485.58 L1877.26 1477.43 L1861.66 1477.43 L1861.66 1472.92 L1876.03 1451.02 Z" fill="#000000" fill-rule="nonzero" fill-opacity="1" /><path clip-path="url(#clip380)" d="M2280.62 1451.02 L2298.98 1451.02 L2298.98 1454.96 L2284.9 1454.96 L2284.9 1463.43 Q2285.92 1463.08 2286.94 1462.92 Q2287.96 1462.73 2288.98 1462.73 Q2294.76 1462.73 2298.14 1465.9 Q2301.52 1469.08 2301.52 1474.49 Q2301.52 1480.07 2298.05 1483.17 Q2294.58 1486.25 2288.26 1486.25 Q2286.08 1486.25 2283.81 1485.88 Q2281.57 1485.51 2279.16 1484.77 L2279.16 1480.07 Q2281.25 1481.2 2283.47 1481.76 Q2285.69 1482.32 2288.17 1482.32 Q2292.17 1482.32 2294.51 1480.21 Q2296.85 1478.1 2296.85 1474.49 Q2296.85 1470.88 2294.51 1468.77 Q2292.17 1466.67 2288.17 1466.67 Q2286.29 1466.67 2284.42 1467.08 Q2282.56 1467.5 2280.62 1468.38 L2280.62 1451.02 Z" fill="#000000" fill-rule="nonzero" fill-opacity="1" /><path clip-path="url(#clip380)" d="M1249.18 1522.27 L1249.18 1532.4 L1261.24 1532.4 L1261.24 1536.95 L1249.18 1536.95 L1249.18 1556.3 Q1249.18 1560.66 1250.36 1561.9 Q1251.57 1563.14 1255.23 1563.14 L1261.24 1563.14 L1261.24 1568.04 L1255.23 1568.04 Q1248.45 1568.04 1245.87 1565.53 Q1243.29 1562.98 1243.29 1556.3 L1243.29 1536.95 L1238.99 1536.95 L1238.99 1532.4 L1243.29 1532.4 L1243.29 1522.27 L1249.18 1522.27 Z" fill="#000000" fill-rule="nonzero" fill-opacity="1" /><polyline clip-path="url(#clip380)" style="stroke:#000000; stroke-linecap:round; stroke-linejoin:round; stroke-width:4; stroke-opacity:1; fill:none" points="147.478,1423.18 147.478,853.724 "/>
<polyline clip-path="url(#clip380)" style="stroke:#000000; stroke-linecap:round; stroke-linejoin:round; stroke-width:4; stroke-opacity:1; fill:none" points="147.478,1312.62 166.376,1312.62 "/>
<polyline clip-path="url(#clip380)" style="stroke:#000000; stroke-linecap:round; stroke-linejoin:round; stroke-width:4; stroke-opacity:1; fill:none" points="147.478,1200.57 166.376,1200.57 "/>
<polyline clip-path="url(#clip380)" style="stroke:#000000; stroke-linecap:round; stroke-linejoin:round; stroke-width:4; stroke-opacity:1; fill:none" points="147.478,1088.52 166.376,1088.52 "/>
<polyline clip-path="url(#clip380)" style="stroke:#000000; stroke-linecap:round; stroke-linejoin:round; stroke-width:4; stroke-opacity:1; fill:none" points="147.478,976.467 166.376,976.467 "/>
<polyline clip-path="url(#clip380)" style="stroke:#000000; stroke-linecap:round; stroke-linejoin:round; stroke-width:4; stroke-opacity:1; fill:none" points="147.478,864.415 166.376,864.415 "/>
<path clip-path="url(#clip380)" d="M51.3625 1313.07 L81.0383 1313.07 L81.0383 1317.01 L51.3625 1317.01 L51.3625 1313.07 Z" fill="#000000" fill-rule="nonzero" fill-opacity="1" /><path clip-path="url(#clip380)" d="M95.1586 1325.97 L111.478 1325.97 L111.478 1329.9 L89.5336 1329.9 L89.5336 1325.97 Q92.1956 1323.21 96.7789 1318.58 Q101.385 1313.93 102.566 1312.59 Q104.811 1310.06 105.691 1308.33 Q106.594 1306.57 106.594 1304.88 Q106.594 1302.12 104.649 1300.39 Q102.728 1298.65 99.6261 1298.65 Q97.4271 1298.65 94.9734 1299.42 Q92.5428 1300.18 89.7651 1301.73 L89.7651 1297.01 Q92.5891 1295.87 95.0428 1295.3 Q97.4965 1294.72 99.5335 1294.72 Q104.904 1294.72 108.098 1297.4 Q111.293 1300.09 111.293 1304.58 Q111.293 1306.71 110.483 1308.63 Q109.696 1310.53 107.589 1313.12 Q107.01 1313.79 103.909 1317.01 Q100.807 1320.2 95.1586 1325.97 Z" fill="#000000" fill-rule="nonzero" fill-opacity="1" /><path clip-path="url(#clip380)" d="M50.9921 1201.02 L80.6679 1201.02 L80.6679 1204.96 L50.9921 1204.96 L50.9921 1201.02 Z" fill="#000000" fill-rule="nonzero" fill-opacity="1" /><path clip-path="url(#clip380)" d="M91.5706 1213.92 L99.2095 1213.92 L99.2095 1187.55 L90.8993 1189.22 L90.8993 1184.96 L99.1632 1183.29 L103.839 1183.29 L103.839 1213.92 L111.478 1213.92 L111.478 1217.85 L91.5706 1217.85 L91.5706 1213.92 Z" fill="#000000" fill-rule="nonzero" fill-opacity="1" /><path clip-path="url(#clip380)" d="M99.5335 1074.32 Q95.9224 1074.32 94.0937 1077.88 Q92.2882 1081.42 92.2882 1088.55 Q92.2882 1095.66 94.0937 1099.22 Q95.9224 1102.77 99.5335 1102.77 Q103.168 1102.77 104.973 1099.22 Q106.802 1095.66 106.802 1088.55 Q106.802 1081.42 104.973 1077.88 Q103.168 1074.32 99.5335 1074.32 M99.5335 1070.61 Q105.344 1070.61 108.399 1075.22 Q111.478 1079.8 111.478 1088.55 Q111.478 1097.28 108.399 1101.89 Q105.344 1106.47 99.5335 1106.47 Q93.7234 1106.47 90.6447 1101.89 Q87.5892 1097.28 87.5892 1088.55 Q87.5892 1079.8 90.6447 1075.22 Q93.7234 1070.61 99.5335 1070.61 Z" fill="#000000" fill-rule="nonzero" fill-opacity="1" /><path clip-path="url(#clip380)" d="M91.5706 989.811 L99.2095 989.811 L99.2095 963.446 L90.8993 965.112 L90.8993 960.853 L99.1632 959.187 L103.839 959.187 L103.839 989.811 L111.478 989.811 L111.478 993.747 L91.5706 993.747 L91.5706 989.811 Z" fill="#000000" fill-rule="nonzero" fill-opacity="1" /><path clip-path="url(#clip380)" d="M95.1586 877.759 L111.478 877.759 L111.478 881.695 L89.5336 881.695 L89.5336 877.759 Q92.1956 875.005 96.7789 870.375 Q101.385 865.722 102.566 864.38 Q104.811 861.857 105.691 860.121 Q106.594 858.361 106.594 856.672 Q106.594 853.917 104.649 852.181 Q102.728 850.445 99.6261 850.445 Q97.4271 850.445 94.9734 851.209 Q92.5428 851.973 89.7651 853.523 L89.7651 848.801 Q92.5891 847.667 95.0428 847.088 Q97.4965 846.51 99.5335 846.51 Q104.904 846.51 108.098 849.195 Q111.293 851.88 111.293 856.371 Q111.293 858.5 110.483 860.422 Q109.696 862.32 107.589 864.912 Q107.01 865.584 103.909 868.801 Q100.807 871.996 95.1586 877.759 Z" fill="#000000" fill-rule="nonzero" fill-opacity="1" /><polyline clip-path="url(#clip383)" style="stroke:#009af9; stroke-linecap:round; stroke-linejoin:round; stroke-width:4; stroke-opacity:1; fill:none" points="209.891,1054.44 220.346,1025.59 230.8,1034.11 241.255,1035.8 251.71,1018.87 262.164,1013.28 272.619,1006.17 283.073,1009.34 293.528,985.935 303.982,989.246 314.437,986.883 324.891,992.65 335.346,1007.09 345.8,1032.04 356.255,1000.23 366.709,1008.35 377.164,1058.21 387.618,1057.16 398.073,1119.29 408.527,1154.29 418.982,1117.04 429.437,1152.91 439.891,1107.94 450.346,1108.23 460.8,1115.53 471.255,1184.46 481.709,1168.94 492.164,1226.27 502.618,1313.14 513.073,1264.49 523.527,1274.54 533.982,1249.97 544.436,1194.25 554.891,1215.28 565.345,1207.52 575.8,1196.13 586.254,1224.98 596.709,1269.19 607.163,1258.07 617.618,1247.87 628.073,1218.71 638.527,1235.41 648.982,1266.94 659.436,1201.41 669.891,1183.74 680.345,1195.98 690.8,1175.28 701.254,1125.39 711.709,1079.56 722.163,1089.44 732.618,1110.14 743.072,1079.69 753.527,1057.11 763.981,1017.69 774.436,1025.78 784.89,1030.59 795.345,1058.04 805.799,1084.43 816.254,1035.65 826.709,963.736 837.163,984.397 847.618,948.532 858.072,992.948 868.527,1028.95 878.981,1064.66 889.436,1142.6 899.89,1155.85 910.345,1135.81 920.799,1175.51 931.254,1239.82 941.708,1211.7 952.163,1233.29 962.617,1198.12 973.072,1191.68 983.526,1201.95 993.981,1187.21 1004.44,1206.52 1014.89,1190.66 1025.34,1220.29 1035.8,1172.77 1046.25,1195 1056.71,1161.57 1067.16,1139.53 1077.62,1195.46 1088.07,1217.2 1098.53,1289.39 1108.98,1254.16 1119.44,1239.27 1129.89,1240.6 1140.34,1227.26 1150.8,1252.52 1161.25,1256.51 1171.71,1221.4 1182.16,1261.79 1192.62,1228.56 1203.07,1203 1213.53,1222.5 1223.98,1288.82 1234.44,1311.89 1244.89,1294.57 1255.34,1332.46 1265.8,1328.74 1276.25,1296.41 1286.71,1326.77 1297.16,1349.12 1307.62,1303.2 1318.07,1268.04 1328.53,1343.42 1338.98,1319.11 1349.43,1347 1359.89,1384.2 1370.34,1407.06 1380.8,1363.52 1391.25,1324.23 1401.71,1294.97 1412.16,1307.32 1422.62,1292.75 1433.07,1264.2 1443.53,1292.44 1453.98,1270.55 1464.43,1252.8 1474.89,1260.72 1485.34,1261.33 1495.8,1183.27 1506.25,1103.44 1516.71,1084.91 1527.16,1106.14 1537.62,1100.75 1548.07,1095.26 1558.53,1118.75 1568.98,1109.5 1579.43,1048.52 1589.89,1042.76 1600.34,1048.7 1610.8,1054.62 1621.25,1026.09 1631.71,1049.44 1642.16,1034.56 1652.62,1034.48 1663.07,1106.24 1673.53,1114.1 1683.98,1123.75 1694.43,1095.51 1704.89,1086.82 1715.34,1092.79 1725.8,1066.4 1736.25,1070.44 1746.71,1067.96 1757.16,1010.27 1767.62,1066.79 1778.07,1130.86 1788.53,1133.59 1798.98,1073.46 1809.43,1069.6 1819.89,1090.42 1830.34,1120.72 1840.8,1106.79 1851.25,1091.58 1861.71,1148.25 1872.16,1151.28 1882.62,1198.62 1893.07,1127.98 1903.52,1089 1913.98,1016.38 1924.43,1004.26 1934.89,994.997 1945.34,1081.71 1955.8,1103.58 1966.25,1152.78 1976.71,1143.37 1987.16,1154.26 1997.62,1142.64 2008.07,1154.01 2018.52,1087.15 2028.98,1097.62 2039.43,1174.07 2049.89,1176.75 2060.34,1179.26 2070.8,1194.68 2081.25,1201.18 2091.71,1184.15 2102.16,1191.31 2112.62,1203.03 2123.07,1168.56 2133.52,1145.21 2143.98,1153.38 2154.43,1153.17 2164.89,1122.76 2175.34,1087.37 2185.8,1161.56 2196.25,1194.7 2206.71,1170.91 2217.16,1204.71 2227.62,1176.6 2238.07,1178.5 2248.52,1153.57 2258.98,1146.05 2269.43,1155.05 2279.89,1200.7 2290.34,1180.65 "/>
<path clip-path="url(#clip383)" d="M209.891 1251.17 L220.346 1232.44 L230.8 1227.56 L241.255 1215.7 L251.71 1207.13 L262.164 1173.56 L272.619 1130.99 L283.073 1103.76 L293.528 1109.99 L303.982 1107.12 L314.437 1127 L324.891 1174.42 L335.346 1133.28 L345.8 1138.88 L356.255 1165.51 L366.709 1173.7 L377.164 1181.92 L387.618 1188.79 L398.073 1202.09 L408.527 1211.57 L418.982 1224.84 L429.437 1229.56 L439.891 1258.4 L450.346 1262.62 L460.8 1260.85 L471.255 1275.95 L481.709 1279.69 L492.164 1290.38 L502.618 1326.31 L513.073 1337.22 L523.527 1341.56 L533.982 1348.22 L544.436 1340.97 L554.891 1338.15 L565.345 1327.28 L575.8 1319.21 L586.254 1320.31 L596.709 1320.61 L607.163 1306.6 L617.618 1279.67 L628.073 1282.08 L638.527 1303.14 L648.982 1310.66 L659.436 1297.66 L669.891 1271.65 L680.345 1254.58 L690.8 1251.62 L701.254 1248.87 L711.709 1254.21 L722.163 1266.24 L732.618 1257.32 L743.072 1240.19 L753.527 1253.6 L763.981 1269.61 L774.436 1263.11 L784.89 1249.38 L795.345 1238.16 L805.799 1216.09 L816.254 1206.22 L826.709 1206.01 L837.163 1211.37 L847.618 1202.13 L858.072 1210.25 L868.527 1196.54 L878.981 1201.3 L889.436 1224.32 L899.89 1245.33 L910.345 1255.58 L920.799 1274.28 L931.254 1293.81 L941.708 1322.17 L952.163 1326.5 L962.617 1340.59 L973.072 1356.15 L983.526 1356.86 L993.981 1340.68 L1004.44 1360.8 L1014.89 1339.03 L1025.34 1353.56 L1035.8 1355.91 L1046.25 1363.82 L1056.71 1362.67 L1067.16 1342.67 L1077.62 1340.88 L1088.07 1348.41 L1098.53 1368.73 L1108.98 1351.17 L1119.44 1348.56 L1129.89 1377.23 L1140.34 1385.73 L1150.8 1374.55 L1161.25 1388.43 L1171.71 1367.74 L1182.16 1362.63 L1192.62 1352.07 L1203.07 1354.74 L1213.53 1362.73 L1223.98 1360.01 L1234.44 1361.22 L1244.89 1365.13 L1255.34 1371.18 L1265.8 1373.69 L1276.25 1364.93 L1286.71 1376.84 L1297.16 1382.26 L1307.62 1391.89 L1318.07 1391.1 L1328.53 1403.46 L1338.98 1390.81 L1349.43 1373.36 L1359.89 1385.39 L1370.34 1373.57 L1380.8 1395.51 L1391.25 1394.92 L1401.71 1366.89 L1412.16 1366.78 L1422.62 1362.36 L1433.07 1354.18 L1443.53 1349.58 L1453.98 1324.34 L1464.43 1310.75 L1474.89 1308.48 L1485.34 1315.18 L1495.8 1308.73 L1506.25 1305.89 L1516.71 1289.41 L1527.16 1267.64 L1537.62 1246.75 L1548.07 1238.22 L1558.53 1227.59 L1568.98 1222.87 L1579.43 1218.86 L1589.89 1209.29 L1600.34 1209.39 L1610.8 1198.17 L1621.25 1202.2 L1631.71 1211.97 L1642.16 1213.75 L1652.62 1179.27 L1663.07 1168.91 L1673.53 1185.28 L1683.98 1169.72 L1694.43 1200.98 L1704.89 1206.57 L1715.34 1201.22 L1725.8 1193.65 L1736.25 1190.97 L1746.71 1197.36 L1757.16 1205.09 L1767.62 1202.46 L1778.07 1205.71 L1788.53 1211.31 L1798.98 1190.15 L1809.43 1180.19 L1819.89 1172.4 L1830.34 1189.13 L1840.8 1183.59 L1851.25 1206.78 L1861.71 1235.6 L1872.16 1241 L1882.62 1230.11 L1893.07 1247.1 L1903.52 1251.29 L1913.98 1265.83 L1924.43 1255.09 L1934.89 1217.6 L1945.34 1206.09 L1955.8 1195.07 L1966.25 1167.18 L1976.71 1159.39 L1987.16 1205.08 L1997.62 1217.89 L2008.07 1234.71 L2018.52 1244.16 L2028.98 1245.44 L2039.43 1255.12 L2049.89 1254.21 L2060.34 1262.01 L2070.8 1247.64 L2081.25 1246.04 L2091.71 1255.43 L2102.16 1240.15 L2112.62 1259.5 L2123.07 1264.63 L2133.52 1242.52 L2143.98 1235.05 L2154.43 1230.6 L2164.89 1229.45 L2175.34 1226.5 L2185.8 1217.82 L2196.25 1217.26 L2206.71 1222.72 L2217.16 1212.79 L2227.62 1226.07 L2238.07 1225.09 L2248.52 1219.71 L2258.98 1216.09 L2269.43 1205.21 L2279.89 1193.5 L2290.34 1213.86 L2290.34 995.286 L2279.89 974.928 L2269.43 986.642 L2258.98 997.516 L2248.52 1001.14 L2238.07 1006.52 L2227.62 1007.5 L2217.16 994.216 L2206.71 1004.15 L2196.25 998.69 L2185.8 999.249 L2175.34 1007.93 L2164.89 1010.88 L2154.43 1012.02 L2143.98 1016.48 L2133.52 1023.95 L2123.07 1046.06 L2112.62 1040.92 L2102.16 1021.58 L2091.71 1036.86 L2081.25 1027.47 L2070.8 1029.07 L2060.34 1043.44 L2049.89 1035.64 L2039.43 1036.55 L2028.98 1026.86 L2018.52 1025.58 L2008.07 1016.14 L1997.62 999.318 L1987.16 986.504 L1976.71 940.813 L1966.25 948.61 L1955.8 976.496 L1945.34 987.519 L1934.89 999.023 L1924.43 1036.52 L1913.98 1047.26 L1903.52 1032.71 L1893.07 1028.53 L1882.62 1011.54 L1872.16 1022.43 L1861.71 1017.03 L1851.25 988.206 L1840.8 965.02 L1830.34 970.561 L1819.89 953.823 L1809.43 961.614 L1798.98 971.579 L1788.53 992.741 L1778.07 987.134 L1767.62 983.889 L1757.16 986.517 L1746.71 978.786 L1736.25 972.396 L1725.8 975.076 L1715.34 982.643 L1704.89 987.995 L1694.43 982.403 L1683.98 951.151 L1673.53 966.703 L1663.07 950.339 L1652.62 960.7 L1642.16 995.181 L1631.71 993.396 L1621.25 983.632 L1610.8 979.599 L1600.34 990.817 L1589.89 990.718 L1579.43 1000.29 L1568.98 1004.29 L1558.53 1009.02 L1548.07 1019.65 L1537.62 1028.18 L1527.16 1049.07 L1516.71 1070.84 L1506.25 1087.32 L1495.8 1090.15 L1485.34 1096.61 L1474.89 1089.91 L1464.43 1092.18 L1453.98 1105.77 L1443.53 1131.01 L1433.07 1135.6 L1422.62 1143.78 L1412.16 1148.21 L1401.71 1148.31 L1391.25 1176.35 L1380.8 1176.94 L1370.34 1155 L1359.89 1166.82 L1349.43 1154.79 L1338.98 1172.24 L1328.53 1184.89 L1318.07 1172.52 L1307.62 1173.31 L1297.16 1163.68 L1286.71 1158.27 L1276.25 1146.36 L1265.8 1155.12 L1255.34 1152.6 L1244.89 1146.56 L1234.44 1142.65 L1223.98 1141.44 L1213.53 1144.16 L1203.07 1136.17 L1192.62 1133.5 L1182.16 1144.05 L1171.71 1149.17 L1161.25 1169.86 L1150.8 1155.98 L1140.34 1167.16 L1129.89 1158.66 L1119.44 1129.99 L1108.98 1132.59 L1098.53 1150.15 L1088.07 1129.84 L1077.62 1122.3 L1067.16 1124.09 L1056.71 1144.1 L1046.25 1145.24 L1035.8 1137.34 L1025.34 1134.99 L1014.89 1120.45 L1004.44 1142.23 L993.981 1122.11 L983.526 1138.29 L973.072 1137.58 L962.617 1122.02 L952.163 1107.92 L941.708 1103.59 L931.254 1075.23 L920.799 1055.71 L910.345 1037 L899.89 1026.76 L889.436 1005.75 L878.981 982.729 L868.527 977.965 L858.072 991.675 L847.618 983.553 L837.163 992.799 L826.709 987.439 L816.254 987.644 L805.799 997.513 L795.345 1019.58 L784.89 1030.81 L774.436 1044.54 L763.981 1051.04 L753.527 1035.03 L743.072 1021.62 L732.618 1038.75 L722.163 1047.66 L711.709 1035.63 L701.254 1030.3 L690.8 1033.04 L680.345 1036.01 L669.891 1053.08 L659.436 1079.09 L648.982 1092.08 L638.527 1084.57 L628.073 1063.5 L617.618 1061.09 L607.163 1088.02 L596.709 1102.04 L586.254 1101.74 L575.8 1100.64 L565.345 1108.71 L554.891 1119.58 L544.436 1122.39 L533.982 1129.65 L523.527 1122.98 L513.073 1118.65 L502.618 1107.74 L492.164 1071.8 L481.709 1061.11 L471.255 1057.36 L460.8 1042.25 L450.346 1044.01 L439.891 1039.77 L429.437 1010.92 L418.982 1006.17 L408.527 992.882 L398.073 983.375 L387.618 970.07 L377.164 963.188 L366.709 954.967 L356.255 946.755 L345.8 920.018 L335.346 914.13 L324.891 954.593 L314.437 905.809 L303.982 883.489 L293.528 882.292 L283.073 869.841 L272.619 888.286 L262.164 919.492 L251.71 939.661 L241.255 933.895 L230.8 931.661 L220.346 923.179 L209.891 926.771  Z" fill="#e26f46" fill-rule="evenodd" fill-opacity="0.5"/>
<polyline clip-path="url(#clip383)" style="stroke:#e26f46; stroke-linecap:round; stroke-linejoin:round; stroke-width:4; stroke-opacity:1; fill:none" points="209.891,1088.97 220.346,1077.81 230.8,1079.61 241.255,1074.8 251.71,1073.4 262.164,1046.53 272.619,1009.64 283.073,986.799 293.528,996.14 303.982,995.306 314.437,1016.4 324.891,1064.51 335.346,1023.71 345.8,1029.45 356.255,1056.13 366.709,1064.33 377.164,1072.55 387.618,1079.43 398.073,1092.73 408.527,1102.23 418.982,1115.51 429.437,1120.24 439.891,1149.09 450.346,1153.31 460.8,1151.55 471.255,1166.65 481.709,1170.4 492.164,1181.09 502.618,1217.03 513.073,1227.94 523.527,1232.27 533.982,1238.94 544.436,1231.68 554.891,1228.86 565.345,1218 575.8,1209.93 586.254,1211.03 596.709,1211.32 607.163,1197.31 617.618,1170.38 628.073,1172.79 638.527,1193.85 648.982,1201.37 659.436,1188.38 669.891,1162.37 680.345,1145.3 690.8,1142.33 701.254,1139.58 711.709,1144.92 722.163,1156.95 732.618,1148.04 743.072,1130.9 753.527,1144.32 763.981,1160.33 774.436,1153.83 784.89,1140.09 795.345,1128.87 805.799,1106.8 816.254,1096.93 826.709,1096.73 837.163,1102.09 847.618,1092.84 858.072,1100.96 868.527,1087.25 878.981,1092.02 889.436,1115.04 899.89,1136.05 910.345,1146.29 920.799,1165 931.254,1184.52 941.708,1212.88 952.163,1217.21 962.617,1231.31 973.072,1246.86 983.526,1247.58 993.981,1231.39 1004.44,1251.52 1014.89,1229.74 1025.34,1244.27 1035.8,1246.63 1046.25,1254.53 1056.71,1253.39 1067.16,1233.38 1077.62,1231.59 1088.07,1239.13 1098.53,1259.44 1108.98,1241.88 1119.44,1239.28 1129.89,1267.95 1140.34,1276.44 1150.8,1265.27 1161.25,1279.14 1171.71,1258.45 1182.16,1253.34 1192.62,1242.79 1203.07,1245.46 1213.53,1253.45 1223.98,1250.73 1234.44,1251.93 1244.89,1255.85 1255.34,1261.89 1265.8,1264.4 1276.25,1255.65 1286.71,1267.55 1297.16,1272.97 1307.62,1282.6 1318.07,1281.81 1328.53,1294.18 1338.98,1281.53 1349.43,1264.07 1359.89,1276.11 1370.34,1264.29 1380.8,1286.23 1391.25,1285.64 1401.71,1257.6 1412.16,1257.49 1422.62,1253.07 1433.07,1244.89 1443.53,1240.29 1453.98,1215.05 1464.43,1201.46 1474.89,1199.2 1485.34,1205.9 1495.8,1199.44 1506.25,1196.6 1516.71,1180.12 1527.16,1158.35 1537.62,1137.46 1548.07,1128.93 1558.53,1118.31 1568.98,1113.58 1579.43,1109.58 1589.89,1100 1600.34,1100.1 1610.8,1088.89 1621.25,1092.92 1631.71,1102.68 1642.16,1104.47 1652.62,1069.99 1663.07,1059.63 1673.53,1075.99 1683.98,1060.44 1694.43,1091.69 1704.89,1097.28 1715.34,1091.93 1725.8,1084.36 1736.25,1081.68 1746.71,1088.07 1757.16,1095.8 1767.62,1093.18 1778.07,1096.42 1788.53,1102.03 1798.98,1080.87 1809.43,1070.9 1819.89,1063.11 1830.34,1079.85 1840.8,1074.31 1851.25,1097.49 1861.71,1126.32 1872.16,1131.71 1882.62,1120.82 1893.07,1137.82 1903.52,1142 1913.98,1156.55 1924.43,1145.81 1934.89,1108.31 1945.34,1096.81 1955.8,1085.78 1966.25,1057.9 1976.71,1050.1 1987.16,1095.79 1997.62,1108.6 2008.07,1125.42 2018.52,1134.87 2028.98,1136.15 2039.43,1145.84 2049.89,1144.92 2060.34,1152.73 2070.8,1138.36 2081.25,1136.75 2091.71,1146.14 2102.16,1130.87 2112.62,1150.21 2123.07,1155.35 2133.52,1133.23 2143.98,1125.77 2154.43,1121.31 2164.89,1120.16 2175.34,1117.21 2185.8,1108.54 2196.25,1107.98 2206.71,1113.44 2217.16,1103.5 2227.62,1116.79 2238.07,1115.8 2248.52,1110.43 2258.98,1106.8 2269.43,1095.93 2279.89,1084.22 2290.34,1104.57 "/>
<path clip-path="url(#clip380)" d="M1891.59 1404.2 L2279.25 1404.2 L2279.25 1248.68 L1891.59 1248.68  Z" fill="#ffffff" fill-rule="evenodd" fill-opacity="1"/>
<polyline clip-path="url(#clip380)" style="stroke:#000000; stroke-linecap:round; stroke-linejoin:round; stroke-width:4; stroke-opacity:1; fill:none" points="1891.59,1404.2 2279.25,1404.2 2279.25,1248.68 1891.59,1248.68 1891.59,1404.2 "/>
<polyline clip-path="url(#clip380)" style="stroke:#009af9; stroke-linecap:round; stroke-linejoin:round; stroke-width:4; stroke-opacity:1; fill:none" points="1916.09,1300.52 2063.11,1300.52 "/>
<path clip-path="url(#clip380)" d="M2112.27 1291.87 L2102.89 1304.49 L2112.75 1317.8 L2107.73 1317.8 L2100.18 1307.61 L2092.64 1317.8 L2087.61 1317.8 L2097.68 1304.23 L2088.47 1291.87 L2093.49 1291.87 L2100.37 1301.11 L2107.24 1291.87 L2112.27 1291.87 Z" fill="#000000" fill-rule="nonzero" fill-opacity="1" /><path clip-path="url(#clip380)" d="M2123.4 1313.86 L2139.72 1313.86 L2139.72 1317.8 L2117.78 1317.8 L2117.78 1313.86 Q2120.44 1311.11 2125.02 1306.48 Q2129.63 1301.83 2130.81 1300.48 Q2133.05 1297.96 2133.93 1296.22 Q2134.84 1294.46 2134.84 1292.77 Q2134.84 1290.02 2132.89 1288.28 Q2130.97 1286.55 2127.87 1286.55 Q2125.67 1286.55 2123.22 1287.31 Q2120.79 1288.08 2118.01 1289.63 L2118.01 1284.9 Q2120.83 1283.77 2123.29 1283.19 Q2125.74 1282.61 2127.78 1282.61 Q2133.15 1282.61 2136.34 1285.3 Q2139.54 1287.98 2139.54 1292.47 Q2139.54 1294.6 2138.73 1296.52 Q2137.94 1298.42 2135.83 1301.02 Q2135.25 1301.69 2132.15 1304.9 Q2129.05 1308.1 2123.4 1313.86 Z" fill="#000000" fill-rule="nonzero" fill-opacity="1" /><polyline clip-path="url(#clip380)" style="stroke:#e26f46; stroke-linecap:round; stroke-linejoin:round; stroke-width:4; stroke-opacity:1; fill:none" points="1916.09,1352.36 2063.11,1352.36 "/>
<path clip-path="url(#clip380)" d="M2112.27 1343.71 L2102.89 1356.33 L2112.75 1369.64 L2107.73 1369.64 L2100.18 1359.45 L2092.64 1369.64 L2087.61 1369.64 L2097.68 1356.07 L2088.47 1343.71 L2093.49 1343.71 L2100.37 1352.95 L2107.24 1343.71 L2112.27 1343.71 Z" fill="#000000" fill-rule="nonzero" fill-opacity="1" /><path clip-path="url(#clip380)" d="M2123.4 1365.7 L2139.72 1365.7 L2139.72 1369.64 L2117.78 1369.64 L2117.78 1365.7 Q2120.44 1362.95 2125.02 1358.32 Q2129.63 1353.67 2130.81 1352.32 Q2133.05 1349.8 2133.93 1348.06 Q2134.84 1346.3 2134.84 1344.61 Q2134.84 1341.86 2132.89 1340.12 Q2130.97 1338.39 2127.87 1338.39 Q2125.67 1338.39 2123.22 1339.15 Q2120.79 1339.92 2118.01 1341.47 L2118.01 1336.74 Q2120.83 1335.61 2123.29 1335.03 Q2125.74 1334.45 2127.78 1334.45 Q2133.15 1334.45 2136.34 1337.14 Q2139.54 1339.82 2139.54 1344.31 Q2139.54 1346.44 2138.73 1348.36 Q2137.94 1350.26 2135.83 1352.86 Q2135.25 1353.53 2132.15 1356.74 Q2129.05 1359.94 2123.4 1365.7 Z" fill="#000000" fill-rule="nonzero" fill-opacity="1" /><path clip-path="url(#clip380)" d="M2162.06 1333.62 L2162.06 1337.16 L2157.98 1337.16 Q2155.69 1337.16 2154.79 1338.09 Q2153.91 1339.01 2153.91 1341.42 L2153.91 1343.71 L2160.92 1343.71 L2160.92 1347.02 L2153.91 1347.02 L2153.91 1369.64 L2149.63 1369.64 L2149.63 1347.02 L2145.55 1347.02 L2145.55 1343.71 L2149.63 1343.71 L2149.63 1341.91 Q2149.63 1337.58 2151.64 1335.61 Q2153.66 1333.62 2158.03 1333.62 L2162.06 1333.62 Z" fill="#000000" fill-rule="nonzero" fill-opacity="1" /><path clip-path="url(#clip380)" d="M2165.62 1343.71 L2169.88 1343.71 L2169.88 1369.64 L2165.62 1369.64 L2165.62 1343.71 M2165.62 1333.62 L2169.88 1333.62 L2169.88 1339.01 L2165.62 1339.01 L2165.62 1333.62 Z" fill="#000000" fill-rule="nonzero" fill-opacity="1" /><path clip-path="url(#clip380)" d="M2178.79 1333.62 L2183.05 1333.62 L2183.05 1369.64 L2178.79 1369.64 L2178.79 1333.62 Z" fill="#000000" fill-rule="nonzero" fill-opacity="1" /><path clip-path="url(#clip380)" d="M2196.18 1336.35 L2196.18 1343.71 L2204.95 1343.71 L2204.95 1347.02 L2196.18 1347.02 L2196.18 1361.1 Q2196.18 1364.27 2197.04 1365.17 Q2197.92 1366.07 2200.58 1366.07 L2204.95 1366.07 L2204.95 1369.64 L2200.58 1369.64 Q2195.65 1369.64 2193.77 1367.81 Q2191.9 1365.96 2191.9 1361.1 L2191.9 1347.02 L2188.77 1347.02 L2188.77 1343.71 L2191.9 1343.71 L2191.9 1336.35 L2196.18 1336.35 Z" fill="#000000" fill-rule="nonzero" fill-opacity="1" /><path clip-path="url(#clip380)" d="M2232.73 1355.61 L2232.73 1357.69 L2213.15 1357.69 Q2213.42 1362.09 2215.79 1364.41 Q2218.17 1366.7 2222.41 1366.7 Q2224.86 1366.7 2227.15 1366.1 Q2229.47 1365.49 2231.73 1364.29 L2231.73 1368.32 Q2229.44 1369.29 2227.04 1369.8 Q2224.63 1370.31 2222.15 1370.31 Q2215.95 1370.31 2212.31 1366.7 Q2208.7 1363.09 2208.7 1356.93 Q2208.7 1350.56 2212.13 1346.84 Q2215.58 1343.09 2221.41 1343.09 Q2226.64 1343.09 2229.67 1346.47 Q2232.73 1349.82 2232.73 1355.61 M2228.47 1354.36 Q2228.42 1350.86 2226.5 1348.78 Q2224.6 1346.7 2221.46 1346.7 Q2217.89 1346.7 2215.74 1348.71 Q2213.61 1350.73 2213.29 1354.38 L2228.47 1354.36 Z" fill="#000000" fill-rule="nonzero" fill-opacity="1" /><path clip-path="url(#clip380)" d="M2254.74 1347.69 Q2254.03 1347.28 2253.17 1347.09 Q2252.34 1346.88 2251.32 1346.88 Q2247.71 1346.88 2245.76 1349.24 Q2243.84 1351.58 2243.84 1355.98 L2243.84 1369.64 L2239.56 1369.64 L2239.56 1343.71 L2243.84 1343.71 L2243.84 1347.74 Q2245.18 1345.38 2247.34 1344.24 Q2249.49 1343.09 2252.57 1343.09 Q2253.01 1343.09 2253.54 1343.16 Q2254.07 1343.2 2254.72 1343.32 L2254.74 1347.69 Z" fill="#000000" fill-rule="nonzero" fill-opacity="1" /></svg>
