<?xml version="1.0" encoding="utf-8"?>
<svg xmlns="http://www.w3.org/2000/svg" xmlns:xlink="http://www.w3.org/1999/xlink" width="600" height="400" viewBox="0 0 2400 1600">
<defs>
  <clipPath id="clip060">
    <rect x="0" y="0" width="2400" height="1600"/>
  </clipPath>
</defs>
<path clip-path="url(#clip060)" d="M0 1600 L2400 1600 L2400 0 L0 0  Z" fill="#ffffff" fill-rule="evenodd" fill-opacity="1"/>
<defs>
  <clipPath id="clip061">
    <rect x="480" y="0" width="1681" height="1600"/>
  </clipPath>
</defs>
<path clip-path="url(#clip060)" d="M147.478 1423.18 L2352.76 1423.18 L2352.76 47.2441 L147.478 47.2441  Z" fill="#ffffff" fill-rule="evenodd" fill-opacity="1"/>
<defs>
  <clipPath id="clip062">
    <rect x="147" y="47" width="2206" height="1377"/>
  </clipPath>
</defs>
<polyline clip-path="url(#clip062)" style="stroke:#000000; stroke-linecap:round; stroke-linejoin:round; stroke-width:2; stroke-opacity:0.1; fill:none" points="209.891,1423.18 209.891,47.2441 "/>
<polyline clip-path="url(#clip062)" style="stroke:#000000; stroke-linecap:round; stroke-linejoin:round; stroke-width:2; stroke-opacity:0.1; fill:none" points="625.982,1423.18 625.982,47.2441 "/>
<polyline clip-path="url(#clip062)" style="stroke:#000000; stroke-linecap:round; stroke-linejoin:round; stroke-width:2; stroke-opacity:0.1; fill:none" points="1042.07,1423.18 1042.07,47.2441 "/>
<polyline clip-path="url(#clip062)" style="stroke:#000000; stroke-linecap:round; stroke-linejoin:round; stroke-width:2; stroke-opacity:0.1; fill:none" points="1458.16,1423.18 1458.16,47.2441 "/>
<polyline clip-path="url(#clip062)" style="stroke:#000000; stroke-linecap:round; stroke-linejoin:round; stroke-width:2; stroke-opacity:0.1; fill:none" points="1874.25,1423.18 1874.25,47.2441 "/>
<polyline clip-path="url(#clip062)" style="stroke:#000000; stroke-linecap:round; stroke-linejoin:round; stroke-width:2; stroke-opacity:0.1; fill:none" points="2290.34,1423.18 2290.34,47.2441 "/>
<polyline clip-path="url(#clip062)" style="stroke:#000000; stroke-linecap:round; stroke-linejoin:round; stroke-width:2; stroke-opacity:0.1; fill:none" points="147.478,1318.15 2352.76,1318.15 "/>
<polyline clip-path="url(#clip062)" style="stroke:#000000; stroke-linecap:round; stroke-linejoin:round; stroke-width:2; stroke-opacity:0.1; fill:none" points="147.478,945.812 2352.76,945.812 "/>
<polyline clip-path="url(#clip062)" style="stroke:#000000; stroke-linecap:round; stroke-linejoin:round; stroke-width:2; stroke-opacity:0.1; fill:none" points="147.478,573.472 2352.76,573.472 "/>
<polyline clip-path="url(#clip062)" style="stroke:#000000; stroke-linecap:round; stroke-linejoin:round; stroke-width:2; stroke-opacity:0.1; fill:none" points="147.478,201.133 2352.76,201.133 "/>
<polyline clip-path="url(#clip060)" style="stroke:#000000; stroke-linecap:round; stroke-linejoin:round; stroke-width:4; stroke-opacity:1; fill:none" points="147.478,1423.18 2352.76,1423.18 "/>
<polyline clip-path="url(#clip060)" style="stroke:#000000; stroke-linecap:round; stroke-linejoin:round; stroke-width:4; stroke-opacity:1; fill:none" points="209.891,1423.18 209.891,1404.28 "/>
<polyline clip-path="url(#clip060)" style="stroke:#000000; stroke-linecap:round; stroke-linejoin:round; stroke-width:4; stroke-opacity:1; fill:none" points="625.982,1423.18 625.982,1404.28 "/>
<polyline clip-path="url(#clip060)" style="stroke:#000000; stroke-linecap:round; stroke-linejoin:round; stroke-width:4; stroke-opacity:1; fill:none" points="1042.07,1423.18 1042.07,1404.28 "/>
<polyline clip-path="url(#clip060)" style="stroke:#000000; stroke-linecap:round; stroke-linejoin:round; stroke-width:4; stroke-opacity:1; fill:none" points="1458.16,1423.18 1458.16,1404.28 "/>
<polyline clip-path="url(#clip060)" style="stroke:#000000; stroke-linecap:round; stroke-linejoin:round; stroke-width:4; stroke-opacity:1; fill:none" points="1874.25,1423.18 1874.25,1404.28 "/>
<polyline clip-path="url(#clip060)" style="stroke:#000000; stroke-linecap:round; stroke-linejoin:round; stroke-width:4; stroke-opacity:1; fill:none" points="2290.34,1423.18 2290.34,1404.28 "/>
<path clip-path="url(#clip060)" d="M209.891 1454.1 Q206.28 1454.1 204.452 1457.66 Q202.646 1461.2 202.646 1468.33 Q202.646 1475.44 204.452 1479.01 Q206.28 1482.55 209.891 1482.55 Q213.526 1482.55 215.331 1479.01 Q217.16 1475.44 217.16 1468.33 Q217.16 1461.2 215.331 1457.66 Q213.526 1454.1 209.891 1454.1 M209.891 1450.39 Q215.702 1450.39 218.757 1455 Q221.836 1459.58 221.836 1468.33 Q221.836 1477.06 218.757 1481.67 Q215.702 1486.25 209.891 1486.25 Q204.081 1486.25 201.003 1481.67 Q197.947 1477.06 197.947 1468.33 Q197.947 1459.58 201.003 1455 Q204.081 1450.39 209.891 1450.39 Z" fill="#000000" fill-rule="nonzero" fill-opacity="1" /><path clip-path="url(#clip060)" d="M616.364 1481.64 L624.002 1481.64 L624.002 1455.28 L615.692 1456.95 L615.692 1452.69 L623.956 1451.02 L628.632 1451.02 L628.632 1481.64 L636.271 1481.64 L636.271 1485.58 L616.364 1485.58 L616.364 1481.64 Z" fill="#000000" fill-rule="nonzero" fill-opacity="1" /><path clip-path="url(#clip060)" d="M1036.72 1481.64 L1053.04 1481.64 L1053.04 1485.58 L1031.1 1485.58 L1031.1 1481.64 Q1033.76 1478.89 1038.34 1474.26 Q1042.95 1469.61 1044.13 1468.27 Q1046.38 1465.74 1047.26 1464.01 Q1048.16 1462.25 1048.16 1460.56 Q1048.16 1457.8 1046.22 1456.07 Q1044.29 1454.33 1041.19 1454.33 Q1038.99 1454.33 1036.54 1455.09 Q1034.11 1455.86 1031.33 1457.41 L1031.33 1452.69 Q1034.16 1451.55 1036.61 1450.97 Q1039.06 1450.39 1041.1 1450.39 Q1046.47 1450.39 1049.66 1453.08 Q1052.86 1455.77 1052.86 1460.26 Q1052.86 1462.39 1052.05 1464.31 Q1051.26 1466.2 1049.16 1468.8 Q1048.58 1469.47 1045.47 1472.69 Q1042.37 1475.88 1036.72 1481.64 Z" fill="#000000" fill-rule="nonzero" fill-opacity="1" /><path clip-path="url(#clip060)" d="M1462.41 1466.95 Q1465.77 1467.66 1467.64 1469.93 Q1469.54 1472.2 1469.54 1475.53 Q1469.54 1480.65 1466.02 1483.45 Q1462.5 1486.25 1456.02 1486.25 Q1453.84 1486.25 1451.53 1485.81 Q1449.24 1485.39 1446.78 1484.54 L1446.78 1480.02 Q1448.73 1481.16 1451.04 1481.74 Q1453.36 1482.32 1455.88 1482.32 Q1460.28 1482.32 1462.57 1480.58 Q1464.89 1478.84 1464.89 1475.53 Q1464.89 1472.48 1462.73 1470.77 Q1460.6 1469.03 1456.78 1469.03 L1452.76 1469.03 L1452.76 1465.19 L1456.97 1465.19 Q1460.42 1465.19 1462.25 1463.82 Q1464.08 1462.43 1464.08 1459.84 Q1464.08 1457.18 1462.18 1455.77 Q1460.3 1454.33 1456.78 1454.33 Q1454.86 1454.33 1452.66 1454.75 Q1450.47 1455.16 1447.83 1456.04 L1447.83 1451.88 Q1450.49 1451.14 1452.8 1450.77 Q1455.14 1450.39 1457.2 1450.39 Q1462.53 1450.39 1465.63 1452.83 Q1468.73 1455.23 1468.73 1459.35 Q1468.73 1462.22 1467.09 1464.21 Q1465.44 1466.18 1462.41 1466.95 Z" fill="#000000" fill-rule="nonzero" fill-opacity="1" /><path clip-path="url(#clip060)" d="M1877.26 1455.09 L1865.46 1473.54 L1877.26 1473.54 L1877.26 1455.09 M1876.03 1451.02 L1881.91 1451.02 L1881.91 1473.54 L1886.84 1473.54 L1886.84 1477.43 L1881.91 1477.43 L1881.91 1485.58 L1877.26 1485.58 L1877.26 1477.43 L1861.66 1477.43 L1861.66 1472.92 L1876.03 1451.02 Z" fill="#000000" fill-rule="nonzero" fill-opacity="1" /><path clip-path="url(#clip060)" d="M2280.62 1451.02 L2298.98 1451.02 L2298.98 1454.96 L2284.9 1454.96 L2284.9 1463.43 Q2285.92 1463.08 2286.94 1462.92 Q2287.96 1462.73 2288.98 1462.73 Q2294.76 1462.73 2298.14 1465.9 Q2301.52 1469.08 2301.52 1474.49 Q2301.52 1480.07 2298.05 1483.17 Q2294.58 1486.25 2288.26 1486.25 Q2286.08 1486.25 2283.81 1485.88 Q2281.57 1485.51 2279.16 1484.77 L2279.16 1480.07 Q2281.25 1481.2 2283.47 1481.76 Q2285.69 1482.32 2288.17 1482.32 Q2292.17 1482.32 2294.51 1480.21 Q2296.85 1478.1 2296.85 1474.49 Q2296.85 1470.88 2294.51 1468.77 Q2292.17 1466.67 2288.17 1466.67 Q2286.29 1466.67 2284.42 1467.08 Q2282.56 1467.5 2280.62 1468.38 L2280.62 1451.02 Z" fill="#000000" fill-rule="nonzero" fill-opacity="1" /><path clip-path="url(#clip060)" d="M1249.18 1522.27 L1249.18 1532.4 L1261.24 1532.4 L1261.24 1536.95 L1249.18 1536.95 L1249.18 1556.3 Q1249.18 1560.66 1250.36 1561.9 Q1251.57 1563.14 1255.23 1563.14 L1261.24 1563.14 L1261.24 1568.04 L1255.23 1568.04 Q1248.45 1568.04 1245.87 1565.53 Q1243.29 1562.98 1243.29 1556.3 L1243.29 1536.95 L1238.99 1536.95 L1238.99 1532.4 L1243.29 1532.4 L1243.29 1522.27 L1249.18 1522.27 Z" fill="#000000" fill-rule="nonzero" fill-opacity="1" /><polyline clip-path="url(#clip060)" style="stroke:#000000; stroke-linecap:round; stroke-linejoin:round; stroke-width:4; stroke-opacity:1; fill:none" points="147.478,1423.18 147.478,47.2441 "/>
<polyline clip-path="url(#clip060)" style="stroke:#000000; stroke-linecap:round; stroke-linejoin:round; stroke-width:4; stroke-opacity:1; fill:none" points="147.478,1318.15 166.376,1318.15 "/>
<polyline clip-path="url(#clip060)" style="stroke:#000000; stroke-linecap:round; stroke-linejoin:round; stroke-width:4; stroke-opacity:1; fill:none" points="147.478,945.812 166.376,945.812 "/>
<polyline clip-path="url(#clip060)" style="stroke:#000000; stroke-linecap:round; stroke-linejoin:round; stroke-width:4; stroke-opacity:1; fill:none" points="147.478,573.472 166.376,573.472 "/>
<polyline clip-path="url(#clip060)" style="stroke:#000000; stroke-linecap:round; stroke-linejoin:round; stroke-width:4; stroke-opacity:1; fill:none" points="147.478,201.133 166.376,201.133 "/>
<path clip-path="url(#clip060)" d="M50.9921 1318.6 L80.6679 1318.6 L80.6679 1322.54 L50.9921 1322.54 L50.9921 1318.6 Z" fill="#000000" fill-rule="nonzero" fill-opacity="1" /><path clip-path="url(#clip060)" d="M91.5706 1331.5 L99.2095 1331.5 L99.2095 1305.13 L90.8993 1306.8 L90.8993 1302.54 L99.1632 1300.87 L103.839 1300.87 L103.839 1331.5 L111.478 1331.5 L111.478 1335.43 L91.5706 1335.43 L91.5706 1331.5 Z" fill="#000000" fill-rule="nonzero" fill-opacity="1" /><path clip-path="url(#clip060)" d="M99.5335 931.611 Q95.9224 931.611 94.0937 935.176 Q92.2882 938.717 92.2882 945.847 Q92.2882 952.953 94.0937 956.518 Q95.9224 960.06 99.5335 960.06 Q103.168 960.06 104.973 956.518 Q106.802 952.953 106.802 945.847 Q106.802 938.717 104.973 935.176 Q103.168 931.611 99.5335 931.611 M99.5335 927.907 Q105.344 927.907 108.399 932.513 Q111.478 937.097 111.478 945.847 Q111.478 954.574 108.399 959.18 Q105.344 963.763 99.5335 963.763 Q93.7234 963.763 90.6447 959.18 Q87.5892 954.574 87.5892 945.847 Q87.5892 937.097 90.6447 932.513 Q93.7234 927.907 99.5335 927.907 Z" fill="#000000" fill-rule="nonzero" fill-opacity="1" /><path clip-path="url(#clip060)" d="M91.5706 586.817 L99.2095 586.817 L99.2095 560.452 L90.8993 562.118 L90.8993 557.859 L99.1632 556.192 L103.839 556.192 L103.839 586.817 L111.478 586.817 L111.478 590.752 L91.5706 590.752 L91.5706 586.817 Z" fill="#000000" fill-rule="nonzero" fill-opacity="1" /><path clip-path="url(#clip060)" d="M95.1586 214.478 L111.478 214.478 L111.478 218.413 L89.5336 218.413 L89.5336 214.478 Q92.1956 211.723 96.7789 207.093 Q101.385 202.441 102.566 201.098 Q104.811 198.575 105.691 196.839 Q106.594 195.08 106.594 193.39 Q106.594 190.635 104.649 188.899 Q102.728 187.163 99.6261 187.163 Q97.4271 187.163 94.9734 187.927 Q92.5428 188.691 89.7651 190.242 L89.7651 185.519 Q92.5891 184.385 95.0428 183.806 Q97.4965 183.228 99.5335 183.228 Q104.904 183.228 108.098 185.913 Q111.293 188.598 111.293 193.089 Q111.293 195.218 110.483 197.14 Q109.696 199.038 107.589 201.63 Q107.01 202.302 103.909 205.519 Q100.807 208.714 95.1586 214.478 Z" fill="#000000" fill-rule="nonzero" fill-opacity="1" /><polyline clip-path="url(#clip062)" style="stroke:#009af9; stroke-linecap:round; stroke-linejoin:round; stroke-width:4; stroke-opacity:1; fill:none" points="209.891,980.25 220.346,970.992 230.8,953.814 241.255,942.096 251.71,926.965 262.164,911.713 272.619,887.744 283.073,863.123 293.528,836.335 303.982,809.39 314.437,777.938 324.891,746.206 335.346,714.699 345.8,683.857 356.255,653.527 366.709,621.938 377.164,590.534 387.618,563.625 398.073,543.473 408.527,537.178 418.982,527.158 429.437,514.861 439.891,506.301 450.346,492.595 460.8,477.026 471.255,469.709 481.709,466.183 492.164,466.676 502.618,485.661 513.073,509.391 523.527,529.605 533.982,552.811 544.436,565.463 554.891,569.629 565.345,578.691 575.8,590.378 586.254,604.545 596.709,627.488 607.163,654.822 617.618,679.018 628.073,699.819 638.527,718.732 648.982,743.276 659.436,766.756 669.891,784.773 680.345,804.242 690.8,820.634 701.254,826.569 711.709,824.697 722.163,814.089 732.618,805.992 743.072,797.262 753.527,783.756 763.981,764.004 774.436,740.218 784.89,712.287 795.345,689.922 805.799,673.163 816.254,652.608 826.709,615.099 837.163,569.143 847.618,519.834 858.072,469.282 868.527,427.003 878.981,392.45 889.436,373.038 899.89,356.727 910.345,343.235 920.799,326.205 931.254,325.29 941.708,321.48 952.163,322.014 962.617,325.541 973.072,322.643 983.526,317.026 993.981,309.135 1004.44,299.667 1014.89,292.292 1025.34,287.4 1035.8,279.5 1046.25,269.237 1056.71,253.175 1067.16,235.373 1077.62,214.787 1088.07,203.03 1098.53,200.849 1108.98,208.288 1119.44,204.934 1129.89,208.49 1140.34,200.212 1150.8,198.118 1161.25,198.537 1171.71,194.528 1182.16,191.607 1192.62,190.637 1203.07,182.054 1213.53,171.907 1223.98,173.638 1234.44,183.121 1244.89,195.817 1255.34,214.4 1265.8,232.647 1276.25,251.928 1286.71,274.219 1297.16,298.367 1307.62,322.435 1318.07,338.507 1328.53,360.588 1338.98,388.221 1349.43,415.277 1359.89,453.15 1370.34,498.612 1380.8,546.777 1391.25,588.722 1401.71,623.946 1412.16,661.432 1422.62,696.252 1433.07,730.668 1443.53,765.472 1453.98,801.417 1464.43,834.417 1474.89,868.943 1485.34,906.579 1495.8,935.776 1506.25,949.434 1516.71,951.082 1527.16,954.38 1537.62,960.019 1548.07,964.476 1558.53,971.099 1568.98,976.043 1579.43,975.316 1589.89,967.877 1600.34,958.35 1610.8,952.008 1621.25,939.344 1631.71,928.428 1642.16,916.098 1652.62,905.482 1663.07,899.18 1673.53,903.537 1683.98,905.462 1694.43,908.658 1704.89,905.973 1715.34,900.124 1725.8,894.576 1736.25,887.564 1746.71,879.642 1757.16,860.254 1767.62,846.764 1778.07,839.63 1788.53,844.203 1798.98,847.187 1809.43,838.313 1819.89,832.016 1830.34,831.806 1840.8,829.46 1851.25,825.202 1861.71,821.425 1872.16,829.238 1882.62,847.193 1893.07,858.608 1903.52,860.459 1913.98,848.215 1924.43,822.567 1934.89,793.723 1945.34,773.146 1955.8,764.727 1966.25,767.713 1976.71,769.782 1987.16,775.73 1997.62,780.016 2008.07,782.818 2018.52,783.54 2028.98,775.25 2039.43,779.253 2049.89,791.501 2060.34,804.473 2070.8,819.061 2081.25,839.598 2091.71,856.754 2102.16,878.282 2112.62,901.521 2123.07,922.67 2133.52,933.778 2143.98,952.562 2154.43,966.833 2164.89,978.307 2175.34,986.494 2185.8,998.04 2196.25,1020.28 2206.71,1045.05 2217.16,1077.27 2227.62,1107.92 2238.07,1135.49 2248.52,1158.98 2258.98,1183.89 2269.43,1211.94 2279.89,1247.89 2290.34,1292.52 "/>
<circle clip-path="url(#clip062)" cx="209.891" cy="943.466" r="14.4" fill="#000000" fill-rule="evenodd" fill-opacity="1" stroke="none"/>
<circle clip-path="url(#clip062)" cx="220.346" cy="1147.73" r="14.4" fill="#000000" fill-rule="evenodd" fill-opacity="1" stroke="none"/>
<circle clip-path="url(#clip062)" cx="230.8" cy="1283.78" r="14.4" fill="#000000" fill-rule="evenodd" fill-opacity="1" stroke="none"/>
<circle clip-path="url(#clip062)" cx="241.255" cy="1153.24" r="14.4" fill="#000000" fill-rule="evenodd" fill-opacity="1" stroke="none"/>
<circle clip-path="url(#clip062)" cx="251.71" cy="1194.01" r="14.4" fill="#000000" fill-rule="evenodd" fill-opacity="1" stroke="none"/>
<circle clip-path="url(#clip062)" cx="262.164" cy="971.39" r="14.4" fill="#000000" fill-rule="evenodd" fill-opacity="1" stroke="none"/>
<circle clip-path="url(#clip062)" cx="272.619" cy="786.345" r="14.4" fill="#000000" fill-rule="evenodd" fill-opacity="1" stroke="none"/>
<circle clip-path="url(#clip062)" cx="283.073" cy="733.13" r="14.4" fill="#000000" fill-rule="evenodd" fill-opacity="1" stroke="none"/>
<circle clip-path="url(#clip062)" cx="293.528" cy="864.739" r="14.4" fill="#000000" fill-rule="evenodd" fill-opacity="1" stroke="none"/>
<circle clip-path="url(#clip062)" cx="303.982" cy="727.363" r="14.4" fill="#000000" fill-rule="evenodd" fill-opacity="1" stroke="none"/>
<circle clip-path="url(#clip062)" cx="314.437" cy="848.255" r="14.4" fill="#000000" fill-rule="evenodd" fill-opacity="1" stroke="none"/>
<circle clip-path="url(#clip062)" cx="324.891" cy="1134.79" r="14.4" fill="#000000" fill-rule="evenodd" fill-opacity="1" stroke="none"/>
<circle clip-path="url(#clip062)" cx="335.346" cy="394.504" r="14.4" fill="#000000" fill-rule="evenodd" fill-opacity="1" stroke="none"/>
<circle clip-path="url(#clip062)" cx="345.8" cy="613.763" r="14.4" fill="#000000" fill-rule="evenodd" fill-opacity="1" stroke="none"/>
<circle clip-path="url(#clip062)" cx="356.255" cy="765.316" r="14.4" fill="#000000" fill-rule="evenodd" fill-opacity="1" stroke="none"/>
<circle clip-path="url(#clip062)" cx="366.709" cy="612.786" r="14.4" fill="#000000" fill-rule="evenodd" fill-opacity="1" stroke="none"/>
<circle clip-path="url(#clip062)" cx="377.164" cy="574.56" r="14.4" fill="#000000" fill-rule="evenodd" fill-opacity="1" stroke="none"/>
<circle clip-path="url(#clip062)" cx="387.618" cy="521.433" r="14.4" fill="#000000" fill-rule="evenodd" fill-opacity="1" stroke="none"/>
<circle clip-path="url(#clip062)" cx="398.073" cy="541.926" r="14.4" fill="#000000" fill-rule="evenodd" fill-opacity="1" stroke="none"/>
<circle clip-path="url(#clip062)" cx="408.527" cy="487.581" r="14.4" fill="#000000" fill-rule="evenodd" fill-opacity="1" stroke="none"/>
<circle clip-path="url(#clip062)" cx="418.982" cy="498.051" r="14.4" fill="#000000" fill-rule="evenodd" fill-opacity="1" stroke="none"/>
<circle clip-path="url(#clip062)" cx="429.437" cy="401.106" r="14.4" fill="#000000" fill-rule="evenodd" fill-opacity="1" stroke="none"/>
<circle clip-path="url(#clip062)" cx="439.891" cy="607.643" r="14.4" fill="#000000" fill-rule="evenodd" fill-opacity="1" stroke="none"/>
<circle clip-path="url(#clip062)" cx="450.346" cy="431.274" r="14.4" fill="#000000" fill-rule="evenodd" fill-opacity="1" stroke="none"/>
<circle clip-path="url(#clip062)" cx="460.8" cy="344.15" r="14.4" fill="#000000" fill-rule="evenodd" fill-opacity="1" stroke="none"/>
<circle clip-path="url(#clip062)" cx="471.255" cy="463.214" r="14.4" fill="#000000" fill-rule="evenodd" fill-opacity="1" stroke="none"/>
<circle clip-path="url(#clip062)" cx="481.709" cy="369.27" r="14.4" fill="#000000" fill-rule="evenodd" fill-opacity="1" stroke="none"/>
<circle clip-path="url(#clip062)" cx="492.164" cy="417.862" r="14.4" fill="#000000" fill-rule="evenodd" fill-opacity="1" stroke="none"/>
<circle clip-path="url(#clip062)" cx="502.618" cy="696.643" r="14.4" fill="#000000" fill-rule="evenodd" fill-opacity="1" stroke="none"/>
<circle clip-path="url(#clip062)" cx="513.073" cy="595.476" r="14.4" fill="#000000" fill-rule="evenodd" fill-opacity="1" stroke="none"/>
<circle clip-path="url(#clip062)" cx="523.527" cy="595.876" r="14.4" fill="#000000" fill-rule="evenodd" fill-opacity="1" stroke="none"/>
<circle clip-path="url(#clip062)" cx="533.982" cy="670.819" r="14.4" fill="#000000" fill-rule="evenodd" fill-opacity="1" stroke="none"/>
<circle clip-path="url(#clip062)" cx="544.436" cy="597.858" r="14.4" fill="#000000" fill-rule="evenodd" fill-opacity="1" stroke="none"/>
<circle clip-path="url(#clip062)" cx="554.891" cy="655.958" r="14.4" fill="#000000" fill-rule="evenodd" fill-opacity="1" stroke="none"/>
<circle clip-path="url(#clip062)" cx="565.345" cy="604.498" r="14.4" fill="#000000" fill-rule="evenodd" fill-opacity="1" stroke="none"/>
<circle clip-path="url(#clip062)" cx="575.8" cy="625.667" r="14.4" fill="#000000" fill-rule="evenodd" fill-opacity="1" stroke="none"/>
<circle clip-path="url(#clip062)" cx="586.254" cy="721.618" r="14.4" fill="#000000" fill-rule="evenodd" fill-opacity="1" stroke="none"/>
<circle clip-path="url(#clip062)" cx="596.709" cy="758.649" r="14.4" fill="#000000" fill-rule="evenodd" fill-opacity="1" stroke="none"/>
<circle clip-path="url(#clip062)" cx="607.163" cy="656.467" r="14.4" fill="#000000" fill-rule="evenodd" fill-opacity="1" stroke="none"/>
<circle clip-path="url(#clip062)" cx="617.618" cy="496.625" r="14.4" fill="#000000" fill-rule="evenodd" fill-opacity="1" stroke="none"/>
<circle clip-path="url(#clip062)" cx="628.073" cy="697.498" r="14.4" fill="#000000" fill-rule="evenodd" fill-opacity="1" stroke="none"/>
<circle clip-path="url(#clip062)" cx="638.527" cy="916.511" r="14.4" fill="#000000" fill-rule="evenodd" fill-opacity="1" stroke="none"/>
<circle clip-path="url(#clip062)" cx="648.982" cy="905.411" r="14.4" fill="#000000" fill-rule="evenodd" fill-opacity="1" stroke="none"/>
<circle clip-path="url(#clip062)" cx="659.436" cy="778.377" r="14.4" fill="#000000" fill-rule="evenodd" fill-opacity="1" stroke="none"/>
<circle clip-path="url(#clip062)" cx="669.891" cy="633.975" r="14.4" fill="#000000" fill-rule="evenodd" fill-opacity="1" stroke="none"/>
<circle clip-path="url(#clip062)" cx="680.345" cy="638.974" r="14.4" fill="#000000" fill-rule="evenodd" fill-opacity="1" stroke="none"/>
<circle clip-path="url(#clip062)" cx="690.8" cy="718.619" r="14.4" fill="#000000" fill-rule="evenodd" fill-opacity="1" stroke="none"/>
<circle clip-path="url(#clip062)" cx="701.254" cy="709.722" r="14.4" fill="#000000" fill-rule="evenodd" fill-opacity="1" stroke="none"/>
<circle clip-path="url(#clip062)" cx="711.709" cy="781.282" r="14.4" fill="#000000" fill-rule="evenodd" fill-opacity="1" stroke="none"/>
<circle clip-path="url(#clip062)" cx="722.163" cy="879.631" r="14.4" fill="#000000" fill-rule="evenodd" fill-opacity="1" stroke="none"/>
<circle clip-path="url(#clip062)" cx="732.618" cy="731.757" r="14.4" fill="#000000" fill-rule="evenodd" fill-opacity="1" stroke="none"/>
<circle clip-path="url(#clip062)" cx="743.072" cy="619.461" r="14.4" fill="#000000" fill-rule="evenodd" fill-opacity="1" stroke="none"/>
<circle clip-path="url(#clip062)" cx="753.527" cy="860.215" r="14.4" fill="#000000" fill-rule="evenodd" fill-opacity="1" stroke="none"/>
<circle clip-path="url(#clip062)" cx="763.981" cy="954.216" r="14.4" fill="#000000" fill-rule="evenodd" fill-opacity="1" stroke="none"/>
<circle clip-path="url(#clip062)" cx="774.436" cy="816.66" r="14.4" fill="#000000" fill-rule="evenodd" fill-opacity="1" stroke="none"/>
<circle clip-path="url(#clip062)" cx="784.89" cy="739.414" r="14.4" fill="#000000" fill-rule="evenodd" fill-opacity="1" stroke="none"/>
<circle clip-path="url(#clip062)" cx="795.345" cy="720.197" r="14.4" fill="#000000" fill-rule="evenodd" fill-opacity="1" stroke="none"/>
<circle clip-path="url(#clip062)" cx="805.799" cy="558.832" r="14.4" fill="#000000" fill-rule="evenodd" fill-opacity="1" stroke="none"/>
<circle clip-path="url(#clip062)" cx="816.254" cy="565.546" r="14.4" fill="#000000" fill-rule="evenodd" fill-opacity="1" stroke="none"/>
<circle clip-path="url(#clip062)" cx="826.709" cy="581.436" r="14.4" fill="#000000" fill-rule="evenodd" fill-opacity="1" stroke="none"/>
<circle clip-path="url(#clip062)" cx="837.163" cy="588.929" r="14.4" fill="#000000" fill-rule="evenodd" fill-opacity="1" stroke="none"/>
<circle clip-path="url(#clip062)" cx="847.618" cy="407.073" r="14.4" fill="#000000" fill-rule="evenodd" fill-opacity="1" stroke="none"/>
<circle clip-path="url(#clip062)" cx="858.072" cy="479.531" r="14.4" fill="#000000" fill-rule="evenodd" fill-opacity="1" stroke="none"/>
<circle clip-path="url(#clip062)" cx="868.527" cy="213.471" r="14.4" fill="#000000" fill-rule="evenodd" fill-opacity="1" stroke="none"/>
<circle clip-path="url(#clip062)" cx="878.981" cy="249.599" r="14.4" fill="#000000" fill-rule="evenodd" fill-opacity="1" stroke="none"/>
<circle clip-path="url(#clip062)" cx="889.436" cy="354.005" r="14.4" fill="#000000" fill-rule="evenodd" fill-opacity="1" stroke="none"/>
<circle clip-path="url(#clip062)" cx="899.89" cy="336.413" r="14.4" fill="#000000" fill-rule="evenodd" fill-opacity="1" stroke="none"/>
<circle clip-path="url(#clip062)" cx="910.345" cy="230.175" r="14.4" fill="#000000" fill-rule="evenodd" fill-opacity="1" stroke="none"/>
<circle clip-path="url(#clip062)" cx="920.799" cy="280.502" r="14.4" fill="#000000" fill-rule="evenodd" fill-opacity="1" stroke="none"/>
<circle clip-path="url(#clip062)" cx="931.254" cy="297.965" r="14.4" fill="#000000" fill-rule="evenodd" fill-opacity="1" stroke="none"/>
<circle clip-path="url(#clip062)" cx="941.708" cy="417.466" r="14.4" fill="#000000" fill-rule="evenodd" fill-opacity="1" stroke="none"/>
<circle clip-path="url(#clip062)" cx="952.163" cy="256.139" r="14.4" fill="#000000" fill-rule="evenodd" fill-opacity="1" stroke="none"/>
<circle clip-path="url(#clip062)" cx="962.617" cy="348.256" r="14.4" fill="#000000" fill-rule="evenodd" fill-opacity="1" stroke="none"/>
<circle clip-path="url(#clip062)" cx="973.072" cy="408.449" r="14.4" fill="#000000" fill-rule="evenodd" fill-opacity="1" stroke="none"/>
<circle clip-path="url(#clip062)" cx="983.526" cy="320.626" r="14.4" fill="#000000" fill-rule="evenodd" fill-opacity="1" stroke="none"/>
<circle clip-path="url(#clip062)" cx="993.981" cy="148.297" r="14.4" fill="#000000" fill-rule="evenodd" fill-opacity="1" stroke="none"/>
<circle clip-path="url(#clip062)" cx="1004.44" cy="443.413" r="14.4" fill="#000000" fill-rule="evenodd" fill-opacity="1" stroke="none"/>
<circle clip-path="url(#clip062)" cx="1014.89" cy="94.0778" r="14.4" fill="#000000" fill-rule="evenodd" fill-opacity="1" stroke="none"/>
<circle clip-path="url(#clip062)" cx="1025.34" cy="361.157" r="14.4" fill="#000000" fill-rule="evenodd" fill-opacity="1" stroke="none"/>
<circle clip-path="url(#clip062)" cx="1035.8" cy="289.119" r="14.4" fill="#000000" fill-rule="evenodd" fill-opacity="1" stroke="none"/>
<circle clip-path="url(#clip062)" cx="1046.25" cy="353.39" r="14.4" fill="#000000" fill-rule="evenodd" fill-opacity="1" stroke="none"/>
<circle clip-path="url(#clip062)" cx="1056.71" cy="297.266" r="14.4" fill="#000000" fill-rule="evenodd" fill-opacity="1" stroke="none"/>
<circle clip-path="url(#clip062)" cx="1067.16" cy="98.0545" r="14.4" fill="#000000" fill-rule="evenodd" fill-opacity="1" stroke="none"/>
<circle clip-path="url(#clip062)" cx="1077.62" cy="183.304" r="14.4" fill="#000000" fill-rule="evenodd" fill-opacity="1" stroke="none"/>
<circle clip-path="url(#clip062)" cx="1088.07" cy="247.993" r="14.4" fill="#000000" fill-rule="evenodd" fill-opacity="1" stroke="none"/>
<circle clip-path="url(#clip062)" cx="1098.53" cy="394.936" r="14.4" fill="#000000" fill-rule="evenodd" fill-opacity="1" stroke="none"/>
<circle clip-path="url(#clip062)" cx="1108.98" cy="86.1857" r="14.4" fill="#000000" fill-rule="evenodd" fill-opacity="1" stroke="none"/>
<circle clip-path="url(#clip062)" cx="1119.44" cy="148.8" r="14.4" fill="#000000" fill-rule="evenodd" fill-opacity="1" stroke="none"/>
<circle clip-path="url(#clip062)" cx="1129.89" cy="441.474" r="14.4" fill="#000000" fill-rule="evenodd" fill-opacity="1" stroke="none"/>
<circle clip-path="url(#clip062)" cx="1140.34" cy="359.657" r="14.4" fill="#000000" fill-rule="evenodd" fill-opacity="1" stroke="none"/>
<circle clip-path="url(#clip062)" cx="1150.8" cy="208.099" r="14.4" fill="#000000" fill-rule="evenodd" fill-opacity="1" stroke="none"/>
<circle clip-path="url(#clip062)" cx="1161.25" cy="431.595" r="14.4" fill="#000000" fill-rule="evenodd" fill-opacity="1" stroke="none"/>
<circle clip-path="url(#clip062)" cx="1171.71" cy="153.854" r="14.4" fill="#000000" fill-rule="evenodd" fill-opacity="1" stroke="none"/>
<circle clip-path="url(#clip062)" cx="1182.16" cy="233.047" r="14.4" fill="#000000" fill-rule="evenodd" fill-opacity="1" stroke="none"/>
<circle clip-path="url(#clip062)" cx="1192.62" cy="152.081" r="14.4" fill="#000000" fill-rule="evenodd" fill-opacity="1" stroke="none"/>
<circle clip-path="url(#clip062)" cx="1203.07" cy="230.584" r="14.4" fill="#000000" fill-rule="evenodd" fill-opacity="1" stroke="none"/>
<circle clip-path="url(#clip062)" cx="1213.53" cy="283.85" r="14.4" fill="#000000" fill-rule="evenodd" fill-opacity="1" stroke="none"/>
<circle clip-path="url(#clip062)" cx="1223.98" cy="199.231" r="14.4" fill="#000000" fill-rule="evenodd" fill-opacity="1" stroke="none"/>
<circle clip-path="url(#clip062)" cx="1234.44" cy="218.195" r="14.4" fill="#000000" fill-rule="evenodd" fill-opacity="1" stroke="none"/>
<circle clip-path="url(#clip062)" cx="1244.89" cy="241.153" r="14.4" fill="#000000" fill-rule="evenodd" fill-opacity="1" stroke="none"/>
<circle clip-path="url(#clip062)" cx="1255.34" cy="273.098" r="14.4" fill="#000000" fill-rule="evenodd" fill-opacity="1" stroke="none"/>
<circle clip-path="url(#clip062)" cx="1265.8" cy="261.129" r="14.4" fill="#000000" fill-rule="evenodd" fill-opacity="1" stroke="none"/>
<circle clip-path="url(#clip062)" cx="1276.25" cy="155.53" r="14.4" fill="#000000" fill-rule="evenodd" fill-opacity="1" stroke="none"/>
<circle clip-path="url(#clip062)" cx="1286.71" cy="326.908" r="14.4" fill="#000000" fill-rule="evenodd" fill-opacity="1" stroke="none"/>
<circle clip-path="url(#clip062)" cx="1297.16" cy="315.216" r="14.4" fill="#000000" fill-rule="evenodd" fill-opacity="1" stroke="none"/>
<circle clip-path="url(#clip062)" cx="1307.62" cy="396.036" r="14.4" fill="#000000" fill-rule="evenodd" fill-opacity="1" stroke="none"/>
<circle clip-path="url(#clip062)" cx="1318.07" cy="355.134" r="14.4" fill="#000000" fill-rule="evenodd" fill-opacity="1" stroke="none"/>
<circle clip-path="url(#clip062)" cx="1328.53" cy="520.869" r="14.4" fill="#000000" fill-rule="evenodd" fill-opacity="1" stroke="none"/>
<circle clip-path="url(#clip062)" cx="1338.98" cy="361.6" r="14.4" fill="#000000" fill-rule="evenodd" fill-opacity="1" stroke="none"/>
<circle clip-path="url(#clip062)" cx="1349.43" cy="299.078" r="14.4" fill="#000000" fill-rule="evenodd" fill-opacity="1" stroke="none"/>
<circle clip-path="url(#clip062)" cx="1359.89" cy="561.299" r="14.4" fill="#000000" fill-rule="evenodd" fill-opacity="1" stroke="none"/>
<circle clip-path="url(#clip062)" cx="1370.34" cy="408.147" r="14.4" fill="#000000" fill-rule="evenodd" fill-opacity="1" stroke="none"/>
<circle clip-path="url(#clip062)" cx="1380.8" cy="751.075" r="14.4" fill="#000000" fill-rule="evenodd" fill-opacity="1" stroke="none"/>
<circle clip-path="url(#clip062)" cx="1391.25" cy="680.326" r="14.4" fill="#000000" fill-rule="evenodd" fill-opacity="1" stroke="none"/>
<circle clip-path="url(#clip062)" cx="1401.71" cy="470.929" r="14.4" fill="#000000" fill-rule="evenodd" fill-opacity="1" stroke="none"/>
<circle clip-path="url(#clip062)" cx="1412.16" cy="703.366" r="14.4" fill="#000000" fill-rule="evenodd" fill-opacity="1" stroke="none"/>
<circle clip-path="url(#clip062)" cx="1422.62" cy="725.323" r="14.4" fill="#000000" fill-rule="evenodd" fill-opacity="1" stroke="none"/>
<circle clip-path="url(#clip062)" cx="1433.07" cy="739.303" r="14.4" fill="#000000" fill-rule="evenodd" fill-opacity="1" stroke="none"/>
<circle clip-path="url(#clip062)" cx="1443.53" cy="814.998" r="14.4" fill="#000000" fill-rule="evenodd" fill-opacity="1" stroke="none"/>
<circle clip-path="url(#clip062)" cx="1453.98" cy="656.222" r="14.4" fill="#000000" fill-rule="evenodd" fill-opacity="1" stroke="none"/>
<circle clip-path="url(#clip062)" cx="1464.43" cy="728.421" r="14.4" fill="#000000" fill-rule="evenodd" fill-opacity="1" stroke="none"/>
<circle clip-path="url(#clip062)" cx="1474.89" cy="838.922" r="14.4" fill="#000000" fill-rule="evenodd" fill-opacity="1" stroke="none"/>
<circle clip-path="url(#clip062)" cx="1485.34" cy="978.081" r="14.4" fill="#000000" fill-rule="evenodd" fill-opacity="1" stroke="none"/>
<circle clip-path="url(#clip062)" cx="1495.8" cy="939.675" r="14.4" fill="#000000" fill-rule="evenodd" fill-opacity="1" stroke="none"/>
<circle clip-path="url(#clip062)" cx="1506.25" cy="1023.94" r="14.4" fill="#000000" fill-rule="evenodd" fill-opacity="1" stroke="none"/>
<circle clip-path="url(#clip062)" cx="1516.71" cy="949.577" r="14.4" fill="#000000" fill-rule="evenodd" fill-opacity="1" stroke="none"/>
<circle clip-path="url(#clip062)" cx="1527.16" cy="895.83" r="14.4" fill="#000000" fill-rule="evenodd" fill-opacity="1" stroke="none"/>
<circle clip-path="url(#clip062)" cx="1537.62" cy="867.594" r="14.4" fill="#000000" fill-rule="evenodd" fill-opacity="1" stroke="none"/>
<circle clip-path="url(#clip062)" cx="1548.07" cy="946.002" r="14.4" fill="#000000" fill-rule="evenodd" fill-opacity="1" stroke="none"/>
<circle clip-path="url(#clip062)" cx="1558.53" cy="920.358" r="14.4" fill="#000000" fill-rule="evenodd" fill-opacity="1" stroke="none"/>
<circle clip-path="url(#clip062)" cx="1568.98" cy="961.373" r="14.4" fill="#000000" fill-rule="evenodd" fill-opacity="1" stroke="none"/>
<circle clip-path="url(#clip062)" cx="1579.43" cy="971.01" r="14.4" fill="#000000" fill-rule="evenodd" fill-opacity="1" stroke="none"/>
<circle clip-path="url(#clip062)" cx="1589.89" cy="915.783" r="14.4" fill="#000000" fill-rule="evenodd" fill-opacity="1" stroke="none"/>
<circle clip-path="url(#clip062)" cx="1600.34" cy="988.05" r="14.4" fill="#000000" fill-rule="evenodd" fill-opacity="1" stroke="none"/>
<circle clip-path="url(#clip062)" cx="1610.8" cy="882.762" r="14.4" fill="#000000" fill-rule="evenodd" fill-opacity="1" stroke="none"/>
<circle clip-path="url(#clip062)" cx="1621.25" cy="996.355" r="14.4" fill="#000000" fill-rule="evenodd" fill-opacity="1" stroke="none"/>
<circle clip-path="url(#clip062)" cx="1631.71" cy="1080.72" r="14.4" fill="#000000" fill-rule="evenodd" fill-opacity="1" stroke="none"/>
<circle clip-path="url(#clip062)" cx="1642.16" cy="1058.82" r="14.4" fill="#000000" fill-rule="evenodd" fill-opacity="1" stroke="none"/>
<circle clip-path="url(#clip062)" cx="1652.62" cy="709.862" r="14.4" fill="#000000" fill-rule="evenodd" fill-opacity="1" stroke="none"/>
<circle clip-path="url(#clip062)" cx="1663.07" cy="800.624" r="14.4" fill="#000000" fill-rule="evenodd" fill-opacity="1" stroke="none"/>
<circle clip-path="url(#clip062)" cx="1673.53" cy="1007.32" r="14.4" fill="#000000" fill-rule="evenodd" fill-opacity="1" stroke="none"/>
<circle clip-path="url(#clip062)" cx="1683.98" cy="727.679" r="14.4" fill="#000000" fill-rule="evenodd" fill-opacity="1" stroke="none"/>
<circle clip-path="url(#clip062)" cx="1694.43" cy="1117.85" r="14.4" fill="#000000" fill-rule="evenodd" fill-opacity="1" stroke="none"/>
<circle clip-path="url(#clip062)" cx="1704.89" cy="980.741" r="14.4" fill="#000000" fill-rule="evenodd" fill-opacity="1" stroke="none"/>
<circle clip-path="url(#clip062)" cx="1715.34" cy="894.99" r="14.4" fill="#000000" fill-rule="evenodd" fill-opacity="1" stroke="none"/>
<circle clip-path="url(#clip062)" cx="1725.8" cy="848.043" r="14.4" fill="#000000" fill-rule="evenodd" fill-opacity="1" stroke="none"/>
<circle clip-path="url(#clip062)" cx="1736.25" cy="856.609" r="14.4" fill="#000000" fill-rule="evenodd" fill-opacity="1" stroke="none"/>
<circle clip-path="url(#clip062)" cx="1746.71" cy="925.32" r="14.4" fill="#000000" fill-rule="evenodd" fill-opacity="1" stroke="none"/>
<circle clip-path="url(#clip062)" cx="1757.16" cy="957.529" r="14.4" fill="#000000" fill-rule="evenodd" fill-opacity="1" stroke="none"/>
<circle clip-path="url(#clip062)" cx="1767.62" cy="880.681" r="14.4" fill="#000000" fill-rule="evenodd" fill-opacity="1" stroke="none"/>
<circle clip-path="url(#clip062)" cx="1778.07" cy="926.682" r="14.4" fill="#000000" fill-rule="evenodd" fill-opacity="1" stroke="none"/>
<circle clip-path="url(#clip062)" cx="1788.53" cy="964.446" r="14.4" fill="#000000" fill-rule="evenodd" fill-opacity="1" stroke="none"/>
<circle clip-path="url(#clip062)" cx="1798.98" cy="712.498" r="14.4" fill="#000000" fill-rule="evenodd" fill-opacity="1" stroke="none"/>
<circle clip-path="url(#clip062)" cx="1809.43" cy="719.019" r="14.4" fill="#000000" fill-rule="evenodd" fill-opacity="1" stroke="none"/>
<circle clip-path="url(#clip062)" cx="1819.89" cy="662.949" r="14.4" fill="#000000" fill-rule="evenodd" fill-opacity="1" stroke="none"/>
<circle clip-path="url(#clip062)" cx="1830.34" cy="836.316" r="14.4" fill="#000000" fill-rule="evenodd" fill-opacity="1" stroke="none"/>
<circle clip-path="url(#clip062)" cx="1840.8" cy="635.783" r="14.4" fill="#000000" fill-rule="evenodd" fill-opacity="1" stroke="none"/>
<circle clip-path="url(#clip062)" cx="1851.25" cy="863.745" r="14.4" fill="#000000" fill-rule="evenodd" fill-opacity="1" stroke="none"/>
<circle clip-path="url(#clip062)" cx="1861.71" cy="994.117" r="14.4" fill="#000000" fill-rule="evenodd" fill-opacity="1" stroke="none"/>
<circle clip-path="url(#clip062)" cx="1872.16" cy="874.972" r="14.4" fill="#000000" fill-rule="evenodd" fill-opacity="1" stroke="none"/>
<circle clip-path="url(#clip062)" cx="1882.62" cy="737.53" r="14.4" fill="#000000" fill-rule="evenodd" fill-opacity="1" stroke="none"/>
<circle clip-path="url(#clip062)" cx="1893.07" cy="982.941" r="14.4" fill="#000000" fill-rule="evenodd" fill-opacity="1" stroke="none"/>
<circle clip-path="url(#clip062)" cx="1903.52" cy="941.336" r="14.4" fill="#000000" fill-rule="evenodd" fill-opacity="1" stroke="none"/>
<circle clip-path="url(#clip062)" cx="1913.98" cy="1097.04" r="14.4" fill="#000000" fill-rule="evenodd" fill-opacity="1" stroke="none"/>
<circle clip-path="url(#clip062)" cx="1924.43" cy="944.734" r="14.4" fill="#000000" fill-rule="evenodd" fill-opacity="1" stroke="none"/>
<circle clip-path="url(#clip062)" cx="1934.89" cy="662.114" r="14.4" fill="#000000" fill-rule="evenodd" fill-opacity="1" stroke="none"/>
<circle clip-path="url(#clip062)" cx="1945.34" cy="778.956" r="14.4" fill="#000000" fill-rule="evenodd" fill-opacity="1" stroke="none"/>
<circle clip-path="url(#clip062)" cx="1955.8" cy="725.054" r="14.4" fill="#000000" fill-rule="evenodd" fill-opacity="1" stroke="none"/>
<circle clip-path="url(#clip062)" cx="1966.25" cy="475.01" r="14.4" fill="#000000" fill-rule="evenodd" fill-opacity="1" stroke="none"/>
<circle clip-path="url(#clip062)" cx="1976.71" cy="502.18" r="14.4" fill="#000000" fill-rule="evenodd" fill-opacity="1" stroke="none"/>
<circle clip-path="url(#clip062)" cx="1987.16" cy="948.05" r="14.4" fill="#000000" fill-rule="evenodd" fill-opacity="1" stroke="none"/>
<circle clip-path="url(#clip062)" cx="1997.62" cy="760.091" r="14.4" fill="#000000" fill-rule="evenodd" fill-opacity="1" stroke="none"/>
<circle clip-path="url(#clip062)" cx="2008.07" cy="829.507" r="14.4" fill="#000000" fill-rule="evenodd" fill-opacity="1" stroke="none"/>
<circle clip-path="url(#clip062)" cx="2018.52" cy="813.505" r="14.4" fill="#000000" fill-rule="evenodd" fill-opacity="1" stroke="none"/>
<circle clip-path="url(#clip062)" cx="2028.98" cy="767.797" r="14.4" fill="#000000" fill-rule="evenodd" fill-opacity="1" stroke="none"/>
<circle clip-path="url(#clip062)" cx="2039.43" cy="863.052" r="14.4" fill="#000000" fill-rule="evenodd" fill-opacity="1" stroke="none"/>
<circle clip-path="url(#clip062)" cx="2049.89" cy="806.849" r="14.4" fill="#000000" fill-rule="evenodd" fill-opacity="1" stroke="none"/>
<circle clip-path="url(#clip062)" cx="2060.34" cy="909.406" r="14.4" fill="#000000" fill-rule="evenodd" fill-opacity="1" stroke="none"/>
<circle clip-path="url(#clip062)" cx="2070.8" cy="736.268" r="14.4" fill="#000000" fill-rule="evenodd" fill-opacity="1" stroke="none"/>
<circle clip-path="url(#clip062)" cx="2081.25" cy="821.434" r="14.4" fill="#000000" fill-rule="evenodd" fill-opacity="1" stroke="none"/>
<circle clip-path="url(#clip062)" cx="2091.71" cy="942.815" r="14.4" fill="#000000" fill-rule="evenodd" fill-opacity="1" stroke="none"/>
<circle clip-path="url(#clip062)" cx="2102.16" cy="749.758" r="14.4" fill="#000000" fill-rule="evenodd" fill-opacity="1" stroke="none"/>
<circle clip-path="url(#clip062)" cx="2112.62" cy="1059.51" r="14.4" fill="#000000" fill-rule="evenodd" fill-opacity="1" stroke="none"/>
<circle clip-path="url(#clip062)" cx="2123.07" cy="1030.45" r="14.4" fill="#000000" fill-rule="evenodd" fill-opacity="1" stroke="none"/>
<circle clip-path="url(#clip062)" cx="2133.52" cy="814.915" r="14.4" fill="#000000" fill-rule="evenodd" fill-opacity="1" stroke="none"/>
<circle clip-path="url(#clip062)" cx="2143.98" cy="902.688" r="14.4" fill="#000000" fill-rule="evenodd" fill-opacity="1" stroke="none"/>
<circle clip-path="url(#clip062)" cx="2154.43" cy="925.826" r="14.4" fill="#000000" fill-rule="evenodd" fill-opacity="1" stroke="none"/>
<circle clip-path="url(#clip062)" cx="2164.89" cy="962.978" r="14.4" fill="#000000" fill-rule="evenodd" fill-opacity="1" stroke="none"/>
<circle clip-path="url(#clip062)" cx="2175.34" cy="962.369" r="14.4" fill="#000000" fill-rule="evenodd" fill-opacity="1" stroke="none"/>
<circle clip-path="url(#clip062)" cx="2185.8" cy="912.435" r="14.4" fill="#000000" fill-rule="evenodd" fill-opacity="1" stroke="none"/>
<circle clip-path="url(#clip062)" cx="2196.25" cy="976.111" r="14.4" fill="#000000" fill-rule="evenodd" fill-opacity="1" stroke="none"/>
<circle clip-path="url(#clip062)" cx="2206.71" cy="1054.34" r="14.4" fill="#000000" fill-rule="evenodd" fill-opacity="1" stroke="none"/>
<circle clip-path="url(#clip062)" cx="2217.16" cy="942.487" r="14.4" fill="#000000" fill-rule="evenodd" fill-opacity="1" stroke="none"/>
<circle clip-path="url(#clip062)" cx="2227.62" cy="1162.49" r="14.4" fill="#000000" fill-rule="evenodd" fill-opacity="1" stroke="none"/>
<circle clip-path="url(#clip062)" cx="2238.07" cy="1107.37" r="14.4" fill="#000000" fill-rule="evenodd" fill-opacity="1" stroke="none"/>
<circle clip-path="url(#clip062)" cx="2248.52" cy="1099.34" r="14.4" fill="#000000" fill-rule="evenodd" fill-opacity="1" stroke="none"/>
<circle clip-path="url(#clip062)" cx="2258.98" cy="1136.7" r="14.4" fill="#000000" fill-rule="evenodd" fill-opacity="1" stroke="none"/>
<circle clip-path="url(#clip062)" cx="2269.43" cy="1088.57" r="14.4" fill="#000000" fill-rule="evenodd" fill-opacity="1" stroke="none"/>
<circle clip-path="url(#clip062)" cx="2279.89" cy="1069.54" r="14.4" fill="#000000" fill-rule="evenodd" fill-opacity="1" stroke="none"/>
<circle clip-path="url(#clip062)" cx="2290.34" cy="1384.24" r="14.4" fill="#000000" fill-rule="evenodd" fill-opacity="1" stroke="none"/>
<path clip-path="url(#clip062)" d="M209.891 1233.82 L220.346 1198.06 L230.8 1162.17 L241.255 1125.41 L251.71 1087.45 L262.164 1048.37 L272.619 1008.88 L283.073 969.852 L293.528 931.666 L303.982 894.207 L314.437 857.277 L324.891 820.486 L335.346 783.942 L345.8 748.855 L356.255 715.642 L366.709 684.342 L377.164 655.354 L387.618 629.173 L398.073 606.243 L408.527 586.894 L418.982 571.438 L429.437 560.117 L439.891 553.084 L450.346 550.32 L460.8 552.139 L471.255 558.704 L481.709 569.675 L492.164 584.427 L502.618 601.814 L513.073 620.407 L523.527 639.303 L533.982 657.92 L544.436 675.876 L554.891 693.083 L565.345 709.527 L575.8 725.266 L586.254 740.242 L596.709 754.312 L607.163 767.54 L617.618 780.252 L628.073 792.515 L638.527 803.619 L648.982 812.74 L659.436 819.781 L669.891 825.367 L680.345 830.252 L690.8 834.696 L701.254 838.41 L711.709 840.794 L722.163 841.014 L732.618 838.308 L743.072 832.245 L753.527 822.227 L763.981 807.217 L774.436 786.58 L784.89 760.571 L795.345 729.98 L805.799 695.88 L816.254 659.517 L826.709 621.934 L837.163 584.056 L847.618 546.955 L858.072 511.929 L868.527 480.152 L878.981 452.716 L889.436 429.998 L899.89 411.777 L910.345 397.726 L920.799 387.436 L931.254 380.157 L941.708 374.94 L952.163 370.879 L962.617 367.406 L973.072 363.951 L983.526 360.183 L993.981 356.226 L1004.44 352.297 L1014.89 348.309 L1025.34 344.457 L1035.8 340.526 L1046.25 336.46 L1056.71 332.418 L1067.16 328.903 L1077.62 326.484 L1088.07 325.162 L1098.53 324.56 L1108.98 324.344 L1119.44 324.514 L1129.89 324.535 L1140.34 323.539 L1150.8 321.288 L1161.25 318.028 L1171.71 314.102 L1182.16 310.364 L1192.62 307.519 L1203.07 306.109 L1213.53 306.387 L1223.98 308.573 L1234.44 313.022 L1244.89 319.993 L1255.34 329.639 L1265.8 342.093 L1276.25 357.536 L1286.71 376.033 L1297.16 397.229 L1307.62 420.741 L1318.07 446.213 L1328.53 473.434 L1338.98 502.271 L1349.43 532.923 L1359.89 565.325 L1370.34 598.868 L1380.8 632.932 L1391.25 666.714 L1401.71 700.016 L1412.16 732.949 L1422.62 765.192 L1433.07 796.452 L1443.53 826.581 L1453.98 855.545 L1464.43 883.407 L1474.89 909.766 L1485.34 933.818 L1495.8 954.77 L1506.25 972.249 L1516.71 986.251 L1527.16 997.244 L1537.62 1005.87 L1548.07 1012.62 L1558.53 1017.74 L1568.98 1021.37 L1579.43 1023.58 L1589.89 1024.47 L1600.34 1024.16 L1610.8 1022.65 L1621.25 1020.01 L1631.71 1016.1 L1642.16 1010.99 L1652.62 1005.35 L1663.07 1000.17 L1673.53 995.669 L1683.98 991.503 L1694.43 987.341 L1704.89 982.435 L1715.34 976.607 L1725.8 970.067 L1736.25 962.996 L1746.71 955.358 L1757.16 946.984 L1767.62 937.874 L1778.07 928.341 L1788.53 918.872 L1798.98 910.292 L1809.43 903.776 L1819.89 900.077 L1830.34 899.328 L1840.8 901.021 L1851.25 904.379 L1861.71 908.007 L1872.16 910.578 L1882.62 911.344 L1893.07 909.711 L1903.52 904.874 L1913.98 896.5 L1924.43 884.952 L1934.89 871.693 L1945.34 858.731 L1955.8 847.706 L1966.25 840.075 L1976.71 836.878 L1987.16 837.911 L1997.62 842.003 L2008.07 848.374 L2018.52 856.415 L2028.98 865.713 L2039.43 875.975 L2049.89 886.893 L2060.34 898.324 L2070.8 910.214 L2081.25 922.693 L2091.71 935.586 L2102.16 948.592 L2112.62 961.54 L2123.07 974.033 L2133.52 986.235 L2143.98 998.796 L2154.43 1012.11 L2164.89 1026.37 L2175.34 1041.73 L2185.8 1058.33 L2196.25 1076.27 L2206.71 1095.39 L2217.16 1115.49 L2227.62 1136.47 L2238.07 1158.18 L2248.52 1180.93 L2258.98 1205.3 L2269.43 1231.84 L2279.89 1260.79 L2290.34 1291.75 L2290.34 1062.34 L2279.89 1060.64 L2269.43 1054.25 L2258.98 1043.62 L2248.52 1029.36 L2238.07 1012.34 L2227.62 993.454 L2217.16 973.65 L2206.71 953.923 L2196.25 934.861 L2185.8 916.924 L2175.34 900.359 L2164.89 885.094 L2154.43 870.96 L2143.98 857.794 L2133.52 845.368 L2123.07 833.28 L2112.62 820.878 L2102.16 807.994 L2091.71 795.032 L2081.25 782.168 L2070.8 769.705 L2060.34 757.823 L2049.89 746.396 L2039.43 735.48 L2028.98 725.219 L2018.52 715.921 L2008.07 707.88 L1997.62 701.509 L1987.16 697.417 L1976.71 696.384 L1966.25 699.581 L1955.8 707.212 L1945.34 718.237 L1934.89 731.199 L1924.43 744.459 L1913.98 756.007 L1903.52 764.381 L1893.07 769.218 L1882.62 770.851 L1872.16 770.085 L1861.71 767.514 L1851.25 763.886 L1840.8 760.528 L1830.34 758.835 L1819.89 759.584 L1809.43 763.283 L1798.98 769.799 L1788.53 778.379 L1778.07 787.848 L1767.62 797.381 L1757.16 806.491 L1746.71 814.865 L1736.25 822.503 L1725.8 829.574 L1715.34 836.114 L1704.89 841.942 L1694.43 846.848 L1683.98 851.01 L1673.53 855.176 L1663.07 859.68 L1652.62 864.858 L1642.16 870.495 L1631.71 875.604 L1621.25 879.517 L1610.8 882.16 L1600.34 883.662 L1589.89 883.98 L1579.43 883.09 L1568.98 880.873 L1558.53 877.242 L1548.07 872.129 L1537.62 865.376 L1527.16 856.751 L1516.71 845.758 L1506.25 831.756 L1495.8 814.277 L1485.34 793.325 L1474.89 769.273 L1464.43 742.914 L1453.98 715.052 L1443.53 686.088 L1433.07 655.959 L1422.62 624.699 L1412.16 592.456 L1401.71 559.523 L1391.25 526.221 L1380.8 492.439 L1370.34 458.375 L1359.89 424.832 L1349.43 392.43 L1338.98 361.778 L1328.53 332.941 L1318.07 305.72 L1307.62 280.248 L1297.16 256.736 L1286.71 235.54 L1276.25 217.043 L1265.8 201.6 L1255.34 189.146 L1244.89 179.5 L1234.44 172.529 L1223.98 168.08 L1213.53 165.894 L1203.07 165.616 L1192.62 167.026 L1182.16 169.871 L1171.71 173.609 L1161.25 177.535 L1150.8 180.795 L1140.34 183.046 L1129.89 184.042 L1119.44 184.021 L1108.98 183.851 L1098.53 184.067 L1088.07 184.669 L1077.62 185.991 L1067.16 188.41 L1056.71 191.925 L1046.25 195.967 L1035.8 200.033 L1025.34 203.964 L1014.89 207.816 L1004.44 211.804 L993.981 215.733 L983.526 219.69 L973.072 223.458 L962.617 226.913 L952.163 230.386 L941.708 234.447 L931.254 239.664 L920.799 246.943 L910.345 257.233 L899.89 271.284 L889.436 289.505 L878.981 312.223 L868.527 339.659 L858.072 371.436 L847.618 406.462 L837.163 443.563 L826.709 481.441 L816.254 519.024 L805.799 555.387 L795.345 589.487 L784.89 620.078 L774.436 646.087 L763.981 666.724 L753.527 681.734 L743.072 691.752 L732.618 697.815 L722.163 700.521 L711.709 700.301 L701.254 697.917 L690.8 694.203 L680.345 689.759 L669.891 684.874 L659.436 679.288 L648.982 672.247 L638.527 663.126 L628.073 652.022 L617.618 639.759 L607.163 627.047 L596.709 613.818 L586.254 599.749 L575.8 584.772 L565.345 569.034 L554.891 552.59 L544.436 535.382 L533.982 517.427 L523.527 498.809 L513.073 479.912 L502.618 461.319 L492.164 443.933 L481.709 429.181 L471.255 418.209 L460.8 411.644 L450.346 409.824 L439.891 412.583 L429.437 419.607 L418.982 430.912 L408.527 446.34 L398.073 465.646 L387.618 488.51 L377.164 514.601 L366.709 543.475 L356.255 574.639 L345.8 607.709 L335.346 642.666 L324.891 679.118 L314.437 715.871 L303.982 752.801 L293.528 790.2 L283.073 828.017 L272.619 865.87 L262.164 902.519 L251.71 935.876 L241.255 963.726 L230.8 984.582 L220.346 997.908 L209.891 1004.42  Z" fill="#3da44d" fill-rule="evenodd" fill-opacity="0.5"/>
<polyline clip-path="url(#clip062)" style="stroke:#3da44d; stroke-linecap:round; stroke-linejoin:round; stroke-width:4; stroke-opacity:1; fill:none" points="209.891,1119.12 220.346,1097.99 230.8,1073.38 241.255,1044.57 251.71,1011.66 262.164,975.443 272.619,937.376 283.073,898.935 293.528,860.933 303.982,823.504 314.437,786.574 324.891,749.802 335.346,713.304 345.8,678.282 356.255,645.141 366.709,613.908 377.164,584.977 387.618,558.842 398.073,535.944 408.527,516.617 418.982,501.175 429.437,489.862 439.891,482.833 450.346,480.072 460.8,481.892 471.255,488.457 481.709,499.428 492.164,514.18 502.618,531.566 513.073,550.159 523.527,569.056 533.982,587.674 544.436,605.629 554.891,622.836 565.345,639.28 575.8,655.019 586.254,669.995 596.709,684.065 607.163,697.293 617.618,710.005 628.073,722.269 638.527,733.373 648.982,742.494 659.436,749.534 669.891,755.121 680.345,760.005 690.8,764.449 701.254,768.163 711.709,770.547 722.163,770.768 732.618,768.062 743.072,761.999 753.527,751.981 763.981,736.97 774.436,716.334 784.89,690.324 795.345,659.733 805.799,625.633 816.254,589.271 826.709,551.687 837.163,513.809 847.618,476.708 858.072,441.683 868.527,409.905 878.981,382.47 889.436,359.751 899.89,341.531 910.345,327.48 920.799,317.189 931.254,309.91 941.708,304.694 952.163,300.632 962.617,297.159 973.072,293.705 983.526,289.936 993.981,285.98 1004.44,282.05 1014.89,278.063 1025.34,274.211 1035.8,270.28 1046.25,266.213 1056.71,262.171 1067.16,258.656 1077.62,256.237 1088.07,254.915 1098.53,254.314 1108.98,254.098 1119.44,254.267 1129.89,254.288 1140.34,253.292 1150.8,251.042 1161.25,247.782 1171.71,243.856 1182.16,240.118 1192.62,237.273 1203.07,235.862 1213.53,236.141 1223.98,238.327 1234.44,242.775 1244.89,249.746 1255.34,259.393 1265.8,271.847 1276.25,287.29 1286.71,305.786 1297.16,326.983 1307.62,350.494 1318.07,375.967 1328.53,403.188 1338.98,432.024 1349.43,462.676 1359.89,495.079 1370.34,528.621 1380.8,562.686 1391.25,596.468 1401.71,629.769 1412.16,662.702 1422.62,694.946 1433.07,726.206 1443.53,756.335 1453.98,785.299 1464.43,813.161 1474.89,839.52 1485.34,863.571 1495.8,884.523 1506.25,902.002 1516.71,916.005 1527.16,926.997 1537.62,935.622 1548.07,942.375 1558.53,947.489 1568.98,951.12 1579.43,953.336 1589.89,954.227 1600.34,953.909 1610.8,952.407 1621.25,949.764 1631.71,945.85 1642.16,940.742 1652.62,935.105 1663.07,929.926 1673.53,925.423 1683.98,921.256 1694.43,917.094 1704.89,912.189 1715.34,906.361 1725.8,899.82 1736.25,892.749 1746.71,885.112 1757.16,876.738 1767.62,867.627 1778.07,858.095 1788.53,848.626 1798.98,840.046 1809.43,833.53 1819.89,829.831 1830.34,829.081 1840.8,830.774 1851.25,834.133 1861.71,837.761 1872.16,840.332 1882.62,841.097 1893.07,839.465 1903.52,834.627 1913.98,826.254 1924.43,814.705 1934.89,801.446 1945.34,788.484 1955.8,777.459 1966.25,769.828 1976.71,766.631 1987.16,767.664 1997.62,771.756 2008.07,778.127 2018.52,786.168 2028.98,795.466 2039.43,805.728 2049.89,816.644 2060.34,828.073 2070.8,839.96 2081.25,852.431 2091.71,865.309 2102.16,878.293 2112.62,891.209 2123.07,903.657 2133.52,915.802 2143.98,928.295 2154.43,941.533 2164.89,955.732 2175.34,971.043 2185.8,987.627 2196.25,1005.56 2206.71,1024.66 2217.16,1044.57 2227.62,1064.96 2238.07,1085.26 2248.52,1105.15 2258.98,1124.46 2269.43,1143.04 2279.89,1160.71 2290.34,1177.05 "/>
<path clip-path="url(#clip060)" d="M1613.95 300.469 L2279.25 300.469 L2279.25 93.1086 L1613.95 93.1086  Z" fill="#ffffff" fill-rule="evenodd" fill-opacity="1"/>
<polyline clip-path="url(#clip060)" style="stroke:#000000; stroke-linecap:round; stroke-linejoin:round; stroke-width:4; stroke-opacity:1; fill:none" points="1613.95,300.469 2279.25,300.469 2279.25,93.1086 1613.95,93.1086 1613.95,300.469 "/>
<polyline clip-path="url(#clip060)" style="stroke:#009af9; stroke-linecap:round; stroke-linejoin:round; stroke-width:4; stroke-opacity:1; fill:none" points="1638.46,144.949 1785.47,144.949 "/>
<path clip-path="url(#clip060)" d="M1821.88 139.289 Q1818.45 139.289 1816.46 141.974 Q1814.47 144.636 1814.47 149.289 Q1814.47 153.942 1816.44 156.627 Q1818.43 159.289 1821.88 159.289 Q1825.28 159.289 1827.27 156.604 Q1829.26 153.918 1829.26 149.289 Q1829.26 144.682 1827.27 141.997 Q1825.28 139.289 1821.88 139.289 M1821.88 135.678 Q1827.43 135.678 1830.6 139.289 Q1833.77 142.9 1833.77 149.289 Q1833.77 155.655 1830.6 159.289 Q1827.43 162.9 1821.88 162.9 Q1816.3 162.9 1813.13 159.289 Q1809.98 155.655 1809.98 149.289 Q1809.98 142.9 1813.13 139.289 Q1816.3 135.678 1821.88 135.678 Z" fill="#000000" fill-rule="nonzero" fill-opacity="1" /><path clip-path="url(#clip060)" d="M1840.39 151.997 L1840.39 136.303 L1844.65 136.303 L1844.65 151.835 Q1844.65 155.516 1846.09 157.368 Q1847.52 159.196 1850.39 159.196 Q1853.84 159.196 1855.83 156.997 Q1857.85 154.798 1857.85 151.002 L1857.85 136.303 L1862.11 136.303 L1862.11 162.229 L1857.85 162.229 L1857.85 158.247 Q1856.3 160.608 1854.24 161.766 Q1852.2 162.9 1849.49 162.9 Q1845.02 162.9 1842.71 160.122 Q1840.39 157.344 1840.39 151.997 M1851.11 135.678 L1851.11 135.678 Z" fill="#000000" fill-rule="nonzero" fill-opacity="1" /><path clip-path="url(#clip060)" d="M1875.09 128.942 L1875.09 136.303 L1883.87 136.303 L1883.87 139.613 L1875.09 139.613 L1875.09 153.687 Q1875.09 156.858 1875.95 157.761 Q1876.83 158.664 1879.49 158.664 L1883.87 158.664 L1883.87 162.229 L1879.49 162.229 Q1874.56 162.229 1872.69 160.4 Q1870.81 158.548 1870.81 153.687 L1870.81 139.613 L1867.69 139.613 L1867.69 136.303 L1870.81 136.303 L1870.81 128.942 L1875.09 128.942 Z" fill="#000000" fill-rule="nonzero" fill-opacity="1" /><path clip-path="url(#clip060)" d="M1893.59 158.34 L1893.59 172.09 L1889.31 172.09 L1889.31 136.303 L1893.59 136.303 L1893.59 140.238 Q1894.93 137.923 1896.97 136.812 Q1899.03 135.678 1901.88 135.678 Q1906.6 135.678 1909.54 139.428 Q1912.5 143.178 1912.5 149.289 Q1912.5 155.4 1909.54 159.15 Q1906.6 162.9 1901.88 162.9 Q1899.03 162.9 1896.97 161.789 Q1894.93 160.655 1893.59 158.34 M1908.08 149.289 Q1908.08 144.59 1906.13 141.928 Q1904.21 139.243 1900.83 139.243 Q1897.45 139.243 1895.51 141.928 Q1893.59 144.59 1893.59 149.289 Q1893.59 153.988 1895.51 156.673 Q1897.45 159.335 1900.83 159.335 Q1904.21 159.335 1906.13 156.673 Q1908.08 153.988 1908.08 149.289 Z" fill="#000000" fill-rule="nonzero" fill-opacity="1" /><path clip-path="url(#clip060)" d="M1919.12 151.997 L1919.12 136.303 L1923.38 136.303 L1923.38 151.835 Q1923.38 155.516 1924.81 157.368 Q1926.25 159.196 1929.12 159.196 Q1932.57 159.196 1934.56 156.997 Q1936.57 154.798 1936.57 151.002 L1936.57 136.303 L1940.83 136.303 L1940.83 162.229 L1936.57 162.229 L1936.57 158.247 Q1935.02 160.608 1932.96 161.766 Q1930.93 162.9 1928.22 162.9 Q1923.75 162.9 1921.44 160.122 Q1919.12 157.344 1919.12 151.997 M1929.84 135.678 L1929.84 135.678 Z" fill="#000000" fill-rule="nonzero" fill-opacity="1" /><path clip-path="url(#clip060)" d="M1953.82 128.942 L1953.82 136.303 L1962.59 136.303 L1962.59 139.613 L1953.82 139.613 L1953.82 153.687 Q1953.82 156.858 1954.68 157.761 Q1955.56 158.664 1958.22 158.664 L1962.59 158.664 L1962.59 162.229 L1958.22 162.229 Q1953.29 162.229 1951.41 160.4 Q1949.54 158.548 1949.54 153.687 L1949.54 139.613 L1946.41 139.613 L1946.41 136.303 L1949.54 136.303 L1949.54 128.942 L1953.82 128.942 Z" fill="#000000" fill-rule="nonzero" fill-opacity="1" /><circle clip-path="url(#clip060)" cx="1711.97" cy="196.789" r="20.48" fill="#000000" fill-rule="evenodd" fill-opacity="1" stroke="none"/>
<path clip-path="url(#clip060)" d="M1830.32 193.12 Q1831.92 190.249 1834.14 188.884 Q1836.37 187.518 1839.38 187.518 Q1843.43 187.518 1845.63 190.365 Q1847.82 193.189 1847.82 198.421 L1847.82 214.069 L1843.54 214.069 L1843.54 198.559 Q1843.54 194.833 1842.22 193.027 Q1840.9 191.222 1838.19 191.222 Q1834.88 191.222 1832.96 193.421 Q1831.04 195.62 1831.04 199.416 L1831.04 214.069 L1826.76 214.069 L1826.76 198.559 Q1826.76 194.809 1825.44 193.027 Q1824.12 191.222 1821.37 191.222 Q1818.1 191.222 1816.18 193.444 Q1814.26 195.643 1814.26 199.416 L1814.26 214.069 L1809.98 214.069 L1809.98 188.143 L1814.26 188.143 L1814.26 192.171 Q1815.72 189.786 1817.76 188.652 Q1819.79 187.518 1822.59 187.518 Q1825.42 187.518 1827.38 188.953 Q1829.38 190.388 1830.32 193.12 Z" fill="#000000" fill-rule="nonzero" fill-opacity="1" /><path clip-path="url(#clip060)" d="M1878.5 200.041 L1878.5 202.124 L1858.91 202.124 Q1859.19 206.522 1861.55 208.837 Q1863.94 211.129 1868.17 211.129 Q1870.63 211.129 1872.92 210.527 Q1875.23 209.925 1877.5 208.721 L1877.5 212.749 Q1875.21 213.721 1872.8 214.231 Q1870.39 214.74 1867.92 214.74 Q1861.71 214.74 1858.08 211.129 Q1854.47 207.518 1854.47 201.36 Q1854.47 194.995 1857.89 191.268 Q1861.34 187.518 1867.18 187.518 Q1872.41 187.518 1875.44 190.897 Q1878.5 194.254 1878.5 200.041 M1874.24 198.791 Q1874.19 195.296 1872.27 193.212 Q1870.37 191.129 1867.22 191.129 Q1863.66 191.129 1861.5 193.143 Q1859.38 195.157 1859.05 198.814 L1874.24 198.791 Z" fill="#000000" fill-rule="nonzero" fill-opacity="1" /><path clip-path="url(#clip060)" d="M1897.27 201.036 Q1892.11 201.036 1890.12 202.217 Q1888.13 203.397 1888.13 206.245 Q1888.13 208.513 1889.61 209.856 Q1891.11 211.175 1893.68 211.175 Q1897.22 211.175 1899.35 208.675 Q1901.5 206.152 1901.5 201.985 L1901.5 201.036 L1897.27 201.036 M1905.76 199.277 L1905.76 214.069 L1901.5 214.069 L1901.5 210.133 Q1900.05 212.495 1897.87 213.629 Q1895.69 214.74 1892.55 214.74 Q1888.56 214.74 1886.2 212.518 Q1883.87 210.272 1883.87 206.522 Q1883.87 202.147 1886.78 199.925 Q1889.72 197.703 1895.53 197.703 L1901.5 197.703 L1901.5 197.286 Q1901.5 194.347 1899.56 192.749 Q1897.64 191.129 1894.14 191.129 Q1891.92 191.129 1889.81 191.661 Q1887.71 192.194 1885.76 193.259 L1885.76 189.323 Q1888.1 188.421 1890.3 187.981 Q1892.5 187.518 1894.58 187.518 Q1900.21 187.518 1902.99 190.434 Q1905.76 193.351 1905.76 199.277 Z" fill="#000000" fill-rule="nonzero" fill-opacity="1" /><path clip-path="url(#clip060)" d="M1931.06 188.907 L1931.06 192.934 Q1929.26 192.009 1927.31 191.546 Q1925.37 191.083 1923.29 191.083 Q1920.12 191.083 1918.52 192.055 Q1916.94 193.027 1916.94 194.971 Q1916.94 196.453 1918.08 197.309 Q1919.21 198.143 1922.64 198.907 L1924.1 199.231 Q1928.63 200.203 1930.53 201.985 Q1932.45 203.745 1932.45 206.916 Q1932.45 210.527 1929.58 212.633 Q1926.74 214.74 1921.74 214.74 Q1919.65 214.74 1917.38 214.323 Q1915.14 213.93 1912.64 213.12 L1912.64 208.721 Q1915 209.948 1917.29 210.573 Q1919.58 211.175 1921.83 211.175 Q1924.84 211.175 1926.46 210.157 Q1928.08 209.115 1928.08 207.24 Q1928.08 205.504 1926.9 204.578 Q1925.74 203.652 1921.78 202.796 L1920.3 202.448 Q1916.34 201.615 1914.58 199.902 Q1912.82 198.166 1912.82 195.157 Q1912.82 191.499 1915.42 189.509 Q1918.01 187.518 1922.78 187.518 Q1925.14 187.518 1927.22 187.865 Q1929.31 188.212 1931.06 188.907 Z" fill="#000000" fill-rule="nonzero" fill-opacity="1" /><path clip-path="url(#clip060)" d="M1938.8 203.837 L1938.8 188.143 L1943.06 188.143 L1943.06 203.675 Q1943.06 207.356 1944.49 209.208 Q1945.93 211.036 1948.8 211.036 Q1952.25 211.036 1954.24 208.837 Q1956.25 206.638 1956.25 202.842 L1956.25 188.143 L1960.51 188.143 L1960.51 214.069 L1956.25 214.069 L1956.25 210.087 Q1954.7 212.448 1952.64 213.606 Q1950.6 214.74 1947.89 214.74 Q1943.43 214.74 1941.11 211.962 Q1938.8 209.184 1938.8 203.837 M1949.51 187.518 L1949.51 187.518 Z" fill="#000000" fill-rule="nonzero" fill-opacity="1" /><path clip-path="url(#clip060)" d="M1984.31 192.124 Q1983.59 191.708 1982.73 191.522 Q1981.9 191.314 1980.88 191.314 Q1977.27 191.314 1975.32 193.675 Q1973.4 196.013 1973.4 200.411 L1973.4 214.069 L1969.12 214.069 L1969.12 188.143 L1973.4 188.143 L1973.4 192.171 Q1974.75 189.809 1976.9 188.675 Q1979.05 187.518 1982.13 187.518 Q1982.57 187.518 1983.1 187.587 Q1983.63 187.634 1984.28 187.749 L1984.31 192.124 Z" fill="#000000" fill-rule="nonzero" fill-opacity="1" /><path clip-path="url(#clip060)" d="M2009.91 200.041 L2009.91 202.124 L1990.32 202.124 Q1990.6 206.522 1992.96 208.837 Q1995.35 211.129 1999.58 211.129 Q2002.04 211.129 2004.33 210.527 Q2006.64 209.925 2008.91 208.721 L2008.91 212.749 Q2006.62 213.721 2004.21 214.231 Q2001.81 214.74 1999.33 214.74 Q1993.12 214.74 1989.49 211.129 Q1985.88 207.518 1985.88 201.36 Q1985.88 194.995 1989.31 191.268 Q1992.75 187.518 1998.59 187.518 Q2003.82 187.518 2006.85 190.897 Q2009.91 194.254 2009.91 200.041 M2005.65 198.791 Q2005.6 195.296 2003.68 193.212 Q2001.78 191.129 1998.63 191.129 Q1995.07 191.129 1992.92 193.143 Q1990.79 195.157 1990.46 198.814 L2005.65 198.791 Z" fill="#000000" fill-rule="nonzero" fill-opacity="1" /><path clip-path="url(#clip060)" d="M2037.08 193.12 Q2038.68 190.249 2040.9 188.884 Q2043.12 187.518 2046.13 187.518 Q2050.18 187.518 2052.38 190.365 Q2054.58 193.189 2054.58 198.421 L2054.58 214.069 L2050.3 214.069 L2050.3 198.559 Q2050.3 194.833 2048.98 193.027 Q2047.66 191.222 2044.95 191.222 Q2041.64 191.222 2039.72 193.421 Q2037.8 195.62 2037.8 199.416 L2037.8 214.069 L2033.52 214.069 L2033.52 198.559 Q2033.52 194.809 2032.2 193.027 Q2030.88 191.222 2028.12 191.222 Q2024.86 191.222 2022.94 193.444 Q2021.02 195.643 2021.02 199.416 L2021.02 214.069 L2016.74 214.069 L2016.74 188.143 L2021.02 188.143 L2021.02 192.171 Q2022.48 189.786 2024.51 188.652 Q2026.55 187.518 2029.35 187.518 Q2032.18 187.518 2034.14 188.953 Q2036.13 190.388 2037.08 193.12 Z" fill="#000000" fill-rule="nonzero" fill-opacity="1" /><path clip-path="url(#clip060)" d="M2085.25 200.041 L2085.25 202.124 L2065.67 202.124 Q2065.95 206.522 2068.31 208.837 Q2070.69 211.129 2074.93 211.129 Q2077.38 211.129 2079.68 210.527 Q2081.99 209.925 2084.26 208.721 L2084.26 212.749 Q2081.97 213.721 2079.56 214.231 Q2077.15 214.74 2074.68 214.74 Q2068.47 214.74 2064.84 211.129 Q2061.23 207.518 2061.23 201.36 Q2061.23 194.995 2064.65 191.268 Q2068.1 187.518 2073.93 187.518 Q2079.17 187.518 2082.2 190.897 Q2085.25 194.254 2085.25 200.041 M2080.99 198.791 Q2080.95 195.296 2079.03 193.212 Q2077.13 191.129 2073.98 191.129 Q2070.42 191.129 2068.26 193.143 Q2066.13 195.157 2065.81 198.814 L2080.99 198.791 Z" fill="#000000" fill-rule="nonzero" fill-opacity="1" /><path clip-path="url(#clip060)" d="M2113.8 198.421 L2113.8 214.069 L2109.54 214.069 L2109.54 198.559 Q2109.54 194.879 2108.1 193.05 Q2106.67 191.222 2103.8 191.222 Q2100.35 191.222 2098.36 193.421 Q2096.36 195.62 2096.36 199.416 L2096.36 214.069 L2092.08 214.069 L2092.08 188.143 L2096.36 188.143 L2096.36 192.171 Q2097.89 189.833 2099.95 188.675 Q2102.04 187.518 2104.74 187.518 Q2109.21 187.518 2111.5 190.296 Q2113.8 193.05 2113.8 198.421 Z" fill="#000000" fill-rule="nonzero" fill-opacity="1" /><path clip-path="url(#clip060)" d="M2126.5 180.782 L2126.5 188.143 L2135.28 188.143 L2135.28 191.453 L2126.5 191.453 L2126.5 205.527 Q2126.5 208.698 2127.36 209.601 Q2128.24 210.504 2130.9 210.504 L2135.28 210.504 L2135.28 214.069 L2130.9 214.069 Q2125.97 214.069 2124.1 212.24 Q2122.22 210.388 2122.22 205.527 L2122.22 191.453 L2119.1 191.453 L2119.1 188.143 L2122.22 188.143 L2122.22 180.782 L2126.5 180.782 Z" fill="#000000" fill-rule="nonzero" fill-opacity="1" /><polyline clip-path="url(#clip060)" style="stroke:#3da44d; stroke-linecap:round; stroke-linejoin:round; stroke-width:4; stroke-opacity:1; fill:none" points="1638.46,248.629 1785.47,248.629 "/>
<path clip-path="url(#clip060)" d="M1828.4 240.747 L1828.4 244.774 Q1826.6 243.849 1824.65 243.386 Q1822.71 242.923 1820.63 242.923 Q1817.45 242.923 1815.86 243.895 Q1814.28 244.867 1814.28 246.811 Q1814.28 248.293 1815.42 249.149 Q1816.55 249.983 1819.98 250.747 L1821.44 251.071 Q1825.97 252.043 1827.87 253.825 Q1829.79 255.585 1829.79 258.756 Q1829.79 262.367 1826.92 264.473 Q1824.07 266.58 1819.07 266.58 Q1816.99 266.58 1814.72 266.163 Q1812.48 265.77 1809.98 264.96 L1809.98 260.561 Q1812.34 261.788 1814.63 262.413 Q1816.92 263.015 1819.17 263.015 Q1822.18 263.015 1823.8 261.997 Q1825.42 260.955 1825.42 259.08 Q1825.42 257.344 1824.24 256.418 Q1823.08 255.492 1819.12 254.636 L1817.64 254.288 Q1813.68 253.455 1811.92 251.742 Q1810.16 250.006 1810.16 246.997 Q1810.16 243.339 1812.76 241.349 Q1815.35 239.358 1820.12 239.358 Q1822.48 239.358 1824.56 239.705 Q1826.64 240.052 1828.4 240.747 Z" fill="#000000" fill-rule="nonzero" fill-opacity="1" /><path clip-path="url(#clip060)" d="M1856.76 244.96 Q1858.36 242.089 1860.58 240.724 Q1862.8 239.358 1865.81 239.358 Q1869.86 239.358 1872.06 242.205 Q1874.26 245.029 1874.26 250.261 L1874.26 265.909 L1869.98 265.909 L1869.98 250.399 Q1869.98 246.673 1868.66 244.867 Q1867.34 243.062 1864.63 243.062 Q1861.32 243.062 1859.4 245.261 Q1857.48 247.46 1857.48 251.256 L1857.48 265.909 L1853.19 265.909 L1853.19 250.399 Q1853.19 246.649 1851.88 244.867 Q1850.56 243.062 1847.8 243.062 Q1844.54 243.062 1842.62 245.284 Q1840.69 247.483 1840.69 251.256 L1840.69 265.909 L1836.41 265.909 L1836.41 239.983 L1840.69 239.983 L1840.69 244.011 Q1842.15 241.626 1844.19 240.492 Q1846.23 239.358 1849.03 239.358 Q1851.85 239.358 1853.82 240.793 Q1855.81 242.228 1856.76 244.96 Z" fill="#000000" fill-rule="nonzero" fill-opacity="1" /><path clip-path="url(#clip060)" d="M1892.8 242.969 Q1889.38 242.969 1887.38 245.654 Q1885.39 248.316 1885.39 252.969 Q1885.39 257.622 1887.36 260.307 Q1889.35 262.969 1892.8 262.969 Q1896.2 262.969 1898.19 260.284 Q1900.19 257.598 1900.19 252.969 Q1900.19 248.362 1898.19 245.677 Q1896.2 242.969 1892.8 242.969 M1892.8 239.358 Q1898.36 239.358 1901.53 242.969 Q1904.7 246.58 1904.7 252.969 Q1904.7 259.335 1901.53 262.969 Q1898.36 266.58 1892.8 266.58 Q1887.22 266.58 1884.05 262.969 Q1880.9 259.335 1880.9 252.969 Q1880.9 246.58 1884.05 242.969 Q1887.22 239.358 1892.8 239.358 Z" fill="#000000" fill-rule="nonzero" fill-opacity="1" /><path clip-path="url(#clip060)" d="M1921.81 242.969 Q1918.38 242.969 1916.39 245.654 Q1914.4 248.316 1914.4 252.969 Q1914.4 257.622 1916.37 260.307 Q1918.36 262.969 1921.81 262.969 Q1925.21 262.969 1927.2 260.284 Q1929.19 257.598 1929.19 252.969 Q1929.19 248.362 1927.2 245.677 Q1925.21 242.969 1921.81 242.969 M1921.81 239.358 Q1927.36 239.358 1930.53 242.969 Q1933.7 246.58 1933.7 252.969 Q1933.7 259.335 1930.53 262.969 Q1927.36 266.58 1921.81 266.58 Q1916.23 266.58 1913.06 262.969 Q1909.91 259.335 1909.91 252.969 Q1909.91 246.58 1913.06 242.969 Q1916.23 239.358 1921.81 239.358 Z" fill="#000000" fill-rule="nonzero" fill-opacity="1" /><path clip-path="url(#clip060)" d="M1944.98 232.622 L1944.98 239.983 L1953.75 239.983 L1953.75 243.293 L1944.98 243.293 L1944.98 257.367 Q1944.98 260.538 1945.83 261.441 Q1946.71 262.344 1949.37 262.344 L1953.75 262.344 L1953.75 265.909 L1949.37 265.909 Q1944.44 265.909 1942.57 264.08 Q1940.69 262.228 1940.69 257.367 L1940.69 243.293 L1937.57 243.293 L1937.57 239.983 L1940.69 239.983 L1940.69 232.622 L1944.98 232.622 Z" fill="#000000" fill-rule="nonzero" fill-opacity="1" /><path clip-path="url(#clip060)" d="M1980.9 250.261 L1980.9 265.909 L1976.64 265.909 L1976.64 250.399 Q1976.64 246.719 1975.21 244.89 Q1973.77 243.062 1970.9 243.062 Q1967.45 243.062 1965.46 245.261 Q1963.47 247.46 1963.47 251.256 L1963.47 265.909 L1959.19 265.909 L1959.19 229.89 L1963.47 229.89 L1963.47 244.011 Q1965 241.673 1967.06 240.515 Q1969.14 239.358 1971.85 239.358 Q1976.32 239.358 1978.61 242.136 Q1980.9 244.89 1980.9 250.261 Z" fill="#000000" fill-rule="nonzero" fill-opacity="1" /><path clip-path="url(#clip060)" d="M2011.57 251.881 L2011.57 253.964 L1991.99 253.964 Q1992.27 258.362 1994.63 260.677 Q1997.01 262.969 2001.25 262.969 Q2003.7 262.969 2005.99 262.367 Q2008.31 261.765 2010.58 260.561 L2010.58 264.589 Q2008.29 265.561 2005.88 266.071 Q2003.47 266.58 2000.99 266.58 Q1994.79 266.58 1991.16 262.969 Q1987.55 259.358 1987.55 253.2 Q1987.55 246.835 1990.97 243.108 Q1994.42 239.358 2000.25 239.358 Q2005.49 239.358 2008.52 242.737 Q2011.57 246.094 2011.57 251.881 M2007.31 250.631 Q2007.27 247.136 2005.35 245.052 Q2003.45 242.969 2000.3 242.969 Q1996.74 242.969 1994.58 244.983 Q1992.45 246.997 1992.13 250.654 L2007.31 250.631 Z" fill="#000000" fill-rule="nonzero" fill-opacity="1" /><path clip-path="url(#clip060)" d="M2033.59 243.964 Q2032.87 243.548 2032.01 243.362 Q2031.18 243.154 2030.16 243.154 Q2026.55 243.154 2024.61 245.515 Q2022.68 247.853 2022.68 252.251 L2022.68 265.909 L2018.4 265.909 L2018.4 239.983 L2022.68 239.983 L2022.68 244.011 Q2024.03 241.649 2026.18 240.515 Q2028.33 239.358 2031.41 239.358 Q2031.85 239.358 2032.38 239.427 Q2032.92 239.474 2033.56 239.589 L2033.59 243.964 Z" fill="#000000" fill-rule="nonzero" fill-opacity="1" /><path clip-path="url(#clip060)" d="M2075.3 251.881 L2075.3 253.964 L2055.72 253.964 Q2055.99 258.362 2058.36 260.677 Q2060.74 262.969 2064.98 262.969 Q2067.43 262.969 2069.72 262.367 Q2072.04 261.765 2074.3 260.561 L2074.3 264.589 Q2072.01 265.561 2069.61 266.071 Q2067.2 266.58 2064.72 266.58 Q2058.52 266.58 2054.88 262.969 Q2051.27 259.358 2051.27 253.2 Q2051.27 246.835 2054.7 243.108 Q2058.15 239.358 2063.98 239.358 Q2069.21 239.358 2072.24 242.737 Q2075.3 246.094 2075.3 251.881 M2071.04 250.631 Q2070.99 247.136 2069.07 245.052 Q2067.18 242.969 2064.03 242.969 Q2060.46 242.969 2058.31 244.983 Q2056.18 246.997 2055.86 250.654 L2071.04 250.631 Z" fill="#000000" fill-rule="nonzero" fill-opacity="1" /><path clip-path="url(#clip060)" d="M2098.82 240.747 L2098.82 244.774 Q2097.01 243.849 2095.07 243.386 Q2093.12 242.923 2091.04 242.923 Q2087.87 242.923 2086.27 243.895 Q2084.7 244.867 2084.7 246.811 Q2084.7 248.293 2085.83 249.149 Q2086.97 249.983 2090.39 250.747 L2091.85 251.071 Q2096.39 252.043 2098.29 253.825 Q2100.21 255.585 2100.21 258.756 Q2100.21 262.367 2097.34 264.473 Q2094.49 266.58 2089.49 266.58 Q2087.41 266.58 2085.14 266.163 Q2082.89 265.77 2080.39 264.96 L2080.39 260.561 Q2082.75 261.788 2085.05 262.413 Q2087.34 263.015 2089.58 263.015 Q2092.59 263.015 2094.21 261.997 Q2095.83 260.955 2095.83 259.08 Q2095.83 257.344 2094.65 256.418 Q2093.49 255.492 2089.54 254.636 L2088.05 254.288 Q2084.1 253.455 2082.34 251.742 Q2080.58 250.006 2080.58 246.997 Q2080.58 243.339 2083.17 241.349 Q2085.76 239.358 2090.53 239.358 Q2092.89 239.358 2094.98 239.705 Q2097.06 240.052 2098.82 240.747 Z" fill="#000000" fill-rule="nonzero" fill-opacity="1" /><path clip-path="url(#clip060)" d="M2111.2 232.622 L2111.2 239.983 L2119.98 239.983 L2119.98 243.293 L2111.2 243.293 L2111.2 257.367 Q2111.2 260.538 2112.06 261.441 Q2112.94 262.344 2115.6 262.344 L2119.98 262.344 L2119.98 265.909 L2115.6 265.909 Q2110.67 265.909 2108.8 264.08 Q2106.92 262.228 2106.92 257.367 L2106.92 243.293 L2103.8 243.293 L2103.8 239.983 L2106.92 239.983 L2106.92 232.622 L2111.2 232.622 Z" fill="#000000" fill-rule="nonzero" fill-opacity="1" /><path clip-path="url(#clip060)" d="M2125.58 239.983 L2129.84 239.983 L2129.84 265.909 L2125.58 265.909 L2125.58 239.983 M2125.58 229.89 L2129.84 229.89 L2129.84 235.284 L2125.58 235.284 L2125.58 229.89 Z" fill="#000000" fill-rule="nonzero" fill-opacity="1" /><path clip-path="url(#clip060)" d="M2158.93 244.96 Q2160.53 242.089 2162.75 240.724 Q2164.98 239.358 2167.98 239.358 Q2172.04 239.358 2174.23 242.205 Q2176.43 245.029 2176.43 250.261 L2176.43 265.909 L2172.15 265.909 L2172.15 250.399 Q2172.15 246.673 2170.83 244.867 Q2169.51 243.062 2166.8 243.062 Q2163.49 243.062 2161.57 245.261 Q2159.65 247.46 2159.65 251.256 L2159.65 265.909 L2155.37 265.909 L2155.37 250.399 Q2155.37 246.649 2154.05 244.867 Q2152.73 243.062 2149.98 243.062 Q2146.71 243.062 2144.79 245.284 Q2142.87 247.483 2142.87 251.256 L2142.87 265.909 L2138.59 265.909 L2138.59 239.983 L2142.87 239.983 L2142.87 244.011 Q2144.33 241.626 2146.36 240.492 Q2148.4 239.358 2151.2 239.358 Q2154.03 239.358 2155.99 240.793 Q2157.98 242.228 2158.93 244.96 Z" fill="#000000" fill-rule="nonzero" fill-opacity="1" /><path clip-path="url(#clip060)" d="M2196.71 252.876 Q2191.55 252.876 2189.56 254.057 Q2187.57 255.237 2187.57 258.085 Q2187.57 260.353 2189.05 261.696 Q2190.55 263.015 2193.12 263.015 Q2196.67 263.015 2198.79 260.515 Q2200.95 257.992 2200.95 253.825 L2200.95 252.876 L2196.71 252.876 M2205.21 251.117 L2205.21 265.909 L2200.95 265.909 L2200.95 261.973 Q2199.49 264.335 2197.31 265.469 Q2195.14 266.58 2191.99 266.58 Q2188.01 266.58 2185.65 264.358 Q2183.31 262.112 2183.31 258.362 Q2183.31 253.987 2186.23 251.765 Q2189.17 249.543 2194.98 249.543 L2200.95 249.543 L2200.95 249.126 Q2200.95 246.187 2199 244.589 Q2197.08 242.969 2193.59 242.969 Q2191.36 242.969 2189.26 243.501 Q2187.15 244.034 2185.21 245.099 L2185.21 241.163 Q2187.54 240.261 2189.74 239.821 Q2191.94 239.358 2194.03 239.358 Q2199.65 239.358 2202.43 242.274 Q2205.21 245.191 2205.21 251.117 Z" fill="#000000" fill-rule="nonzero" fill-opacity="1" /><path clip-path="url(#clip060)" d="M2218.19 232.622 L2218.19 239.983 L2226.97 239.983 L2226.97 243.293 L2218.19 243.293 L2218.19 257.367 Q2218.19 260.538 2219.05 261.441 Q2219.93 262.344 2222.59 262.344 L2226.97 262.344 L2226.97 265.909 L2222.59 265.909 Q2217.66 265.909 2215.79 264.08 Q2213.91 262.228 2213.91 257.367 L2213.91 243.293 L2210.79 243.293 L2210.79 239.983 L2213.91 239.983 L2213.91 232.622 L2218.19 232.622 Z" fill="#000000" fill-rule="nonzero" fill-opacity="1" /><path clip-path="url(#clip060)" d="M2254.74 251.881 L2254.74 253.964 L2235.16 253.964 Q2235.44 258.362 2237.8 260.677 Q2240.18 262.969 2244.42 262.969 Q2246.87 262.969 2249.16 262.367 Q2251.48 261.765 2253.75 260.561 L2253.75 264.589 Q2251.46 265.561 2249.05 266.071 Q2246.64 266.58 2244.16 266.58 Q2237.96 266.58 2234.33 262.969 Q2230.72 259.358 2230.72 253.2 Q2230.72 246.835 2234.14 243.108 Q2237.59 239.358 2243.42 239.358 Q2248.66 239.358 2251.69 242.737 Q2254.74 246.094 2254.74 251.881 M2250.48 250.631 Q2250.44 247.136 2248.52 245.052 Q2246.62 242.969 2243.47 242.969 Q2239.91 242.969 2237.75 244.983 Q2235.62 246.997 2235.3 250.654 L2250.48 250.631 Z" fill="#000000" fill-rule="nonzero" fill-opacity="1" /></svg>
