<?xml version="1.0" encoding="utf-8"?>
<svg xmlns="http://www.w3.org/2000/svg" xmlns:xlink="http://www.w3.org/1999/xlink" width="600" height="400" viewBox="0 0 2400 1600">
<defs>
  <clipPath id="clip420">
    <rect x="0" y="0" width="2400" height="1600"/>
  </clipPath>
</defs>
<path clip-path="url(#clip420)" d="M0 1600 L2400 1600 L2400 0 L0 0  Z" fill="#ffffff" fill-rule="evenodd" fill-opacity="1"/>
<defs>
  <clipPath id="clip421">
    <rect x="480" y="0" width="1681" height="1600"/>
  </clipPath>
</defs>
<path clip-path="url(#clip420)" d="M147.478 692.928 L2352.76 692.928 L2352.76 123.472 L147.478 123.472  Z" fill="#ffffff" fill-rule="evenodd" fill-opacity="1"/>
<defs>
  <clipPath id="clip422">
    <rect x="147" y="123" width="2206" height="570"/>
  </clipPath>
</defs>
<polyline clip-path="url(#clip422)" style="stroke:#000000; stroke-linecap:round; stroke-linejoin:round; stroke-width:2; stroke-opacity:0.1; fill:none" points="209.891,692.928 209.891,123.472 "/>
<polyline clip-path="url(#clip422)" style="stroke:#000000; stroke-linecap:round; stroke-linejoin:round; stroke-width:2; stroke-opacity:0.1; fill:none" points="625.982,692.928 625.982,123.472 "/>
<polyline clip-path="url(#clip422)" style="stroke:#000000; stroke-linecap:round; stroke-linejoin:round; stroke-width:2; stroke-opacity:0.1; fill:none" points="1042.07,692.928 1042.07,123.472 "/>
<polyline clip-path="url(#clip422)" style="stroke:#000000; stroke-linecap:round; stroke-linejoin:round; stroke-width:2; stroke-opacity:0.1; fill:none" points="1458.16,692.928 1458.16,123.472 "/>
<polyline clip-path="url(#clip422)" style="stroke:#000000; stroke-linecap:round; stroke-linejoin:round; stroke-width:2; stroke-opacity:0.1; fill:none" points="1874.25,692.928 1874.25,123.472 "/>
<polyline clip-path="url(#clip422)" style="stroke:#000000; stroke-linecap:round; stroke-linejoin:round; stroke-width:2; stroke-opacity:0.1; fill:none" points="2290.34,692.928 2290.34,123.472 "/>
<polyline clip-path="url(#clip422)" style="stroke:#000000; stroke-linecap:round; stroke-linejoin:round; stroke-width:2; stroke-opacity:0.1; fill:none" points="147.478,652.161 2352.76,652.161 "/>
<polyline clip-path="url(#clip422)" style="stroke:#000000; stroke-linecap:round; stroke-linejoin:round; stroke-width:2; stroke-opacity:0.1; fill:none" points="147.478,549.295 2352.76,549.295 "/>
<polyline clip-path="url(#clip422)" style="stroke:#000000; stroke-linecap:round; stroke-linejoin:round; stroke-width:2; stroke-opacity:0.1; fill:none" points="147.478,446.429 2352.76,446.429 "/>
<polyline clip-path="url(#clip422)" style="stroke:#000000; stroke-linecap:round; stroke-linejoin:round; stroke-width:2; stroke-opacity:0.1; fill:none" points="147.478,343.564 2352.76,343.564 "/>
<polyline clip-path="url(#clip422)" style="stroke:#000000; stroke-linecap:round; stroke-linejoin:round; stroke-width:2; stroke-opacity:0.1; fill:none" points="147.478,240.698 2352.76,240.698 "/>
<polyline clip-path="url(#clip422)" style="stroke:#000000; stroke-linecap:round; stroke-linejoin:round; stroke-width:2; stroke-opacity:0.1; fill:none" points="147.478,137.832 2352.76,137.832 "/>
<polyline clip-path="url(#clip420)" style="stroke:#000000; stroke-linecap:round; stroke-linejoin:round; stroke-width:4; stroke-opacity:1; fill:none" points="147.478,692.928 2352.76,692.928 "/>
<polyline clip-path="url(#clip420)" style="stroke:#000000; stroke-linecap:round; stroke-linejoin:round; stroke-width:4; stroke-opacity:1; fill:none" points="209.891,692.928 209.891,674.03 "/>
<polyline clip-path="url(#clip420)" style="stroke:#000000; stroke-linecap:round; stroke-linejoin:round; stroke-width:4; stroke-opacity:1; fill:none" points="625.982,692.928 625.982,674.03 "/>
<polyline clip-path="url(#clip420)" style="stroke:#000000; stroke-linecap:round; stroke-linejoin:round; stroke-width:4; stroke-opacity:1; fill:none" points="1042.07,692.928 1042.07,674.03 "/>
<polyline clip-path="url(#clip420)" style="stroke:#000000; stroke-linecap:round; stroke-linejoin:round; stroke-width:4; stroke-opacity:1; fill:none" points="1458.16,692.928 1458.16,674.03 "/>
<polyline clip-path="url(#clip420)" style="stroke:#000000; stroke-linecap:round; stroke-linejoin:round; stroke-width:4; stroke-opacity:1; fill:none" points="1874.25,692.928 1874.25,674.03 "/>
<polyline clip-path="url(#clip420)" style="stroke:#000000; stroke-linecap:round; stroke-linejoin:round; stroke-width:4; stroke-opacity:1; fill:none" points="2290.34,692.928 2290.34,674.03 "/>
<path clip-path="url(#clip420)" d="M209.891 723.847 Q206.28 723.847 204.452 727.411 Q202.646 730.953 202.646 738.083 Q202.646 745.189 204.452 748.754 Q206.28 752.295 209.891 752.295 Q213.526 752.295 215.331 748.754 Q217.16 745.189 217.16 738.083 Q217.16 730.953 215.331 727.411 Q213.526 723.847 209.891 723.847 M209.891 720.143 Q215.702 720.143 218.757 724.749 Q221.836 729.333 221.836 738.083 Q221.836 746.809 218.757 751.416 Q215.702 755.999 209.891 755.999 Q204.081 755.999 201.003 751.416 Q197.947 746.809 197.947 738.083 Q197.947 729.333 201.003 724.749 Q204.081 720.143 209.891 720.143 Z" fill="#000000" fill-rule="nonzero" fill-opacity="1" /><path clip-path="url(#clip420)" d="M616.364 751.393 L624.002 751.393 L624.002 725.027 L615.692 726.694 L615.692 722.435 L623.956 720.768 L628.632 720.768 L628.632 751.393 L636.271 751.393 L636.271 755.328 L616.364 755.328 L616.364 751.393 Z" fill="#000000" fill-rule="nonzero" fill-opacity="1" /><path clip-path="url(#clip420)" d="M1036.72 751.393 L1053.04 751.393 L1053.04 755.328 L1031.1 755.328 L1031.1 751.393 Q1033.76 748.638 1038.34 744.008 Q1042.95 739.356 1044.13 738.013 Q1046.38 735.49 1047.26 733.754 Q1048.16 731.995 1048.16 730.305 Q1048.16 727.55 1046.22 725.814 Q1044.29 724.078 1041.19 724.078 Q1038.99 724.078 1036.54 724.842 Q1034.11 725.606 1031.33 727.157 L1031.33 722.435 Q1034.16 721.3 1036.61 720.722 Q1039.06 720.143 1041.1 720.143 Q1046.47 720.143 1049.66 722.828 Q1052.86 725.513 1052.86 730.004 Q1052.86 732.134 1052.05 734.055 Q1051.26 735.953 1049.16 738.546 Q1048.58 739.217 1045.47 742.434 Q1042.37 745.629 1036.72 751.393 Z" fill="#000000" fill-rule="nonzero" fill-opacity="1" /><path clip-path="url(#clip420)" d="M1462.41 736.694 Q1465.77 737.411 1467.64 739.68 Q1469.54 741.948 1469.54 745.282 Q1469.54 750.397 1466.02 753.198 Q1462.5 755.999 1456.02 755.999 Q1453.84 755.999 1451.53 755.559 Q1449.24 755.143 1446.78 754.286 L1446.78 749.772 Q1448.73 750.907 1451.04 751.485 Q1453.36 752.064 1455.88 752.064 Q1460.28 752.064 1462.57 750.328 Q1464.89 748.592 1464.89 745.282 Q1464.89 742.226 1462.73 740.513 Q1460.6 738.777 1456.78 738.777 L1452.76 738.777 L1452.76 734.934 L1456.97 734.934 Q1460.42 734.934 1462.25 733.569 Q1464.08 732.18 1464.08 729.587 Q1464.08 726.925 1462.18 725.513 Q1460.3 724.078 1456.78 724.078 Q1454.86 724.078 1452.66 724.495 Q1450.47 724.911 1447.83 725.791 L1447.83 721.624 Q1450.49 720.884 1452.8 720.513 Q1455.14 720.143 1457.2 720.143 Q1462.53 720.143 1465.63 722.573 Q1468.73 724.981 1468.73 729.101 Q1468.73 731.972 1467.09 733.962 Q1465.44 735.93 1462.41 736.694 Z" fill="#000000" fill-rule="nonzero" fill-opacity="1" /><path clip-path="url(#clip420)" d="M1877.26 724.842 L1865.46 743.291 L1877.26 743.291 L1877.26 724.842 M1876.03 720.768 L1881.91 720.768 L1881.91 743.291 L1886.84 743.291 L1886.84 747.18 L1881.91 747.18 L1881.91 755.328 L1877.26 755.328 L1877.26 747.18 L1861.66 747.18 L1861.66 742.666 L1876.03 720.768 Z" fill="#000000" fill-rule="nonzero" fill-opacity="1" /><path clip-path="url(#clip420)" d="M2280.62 720.768 L2298.98 720.768 L2298.98 724.703 L2284.9 724.703 L2284.9 733.175 Q2285.92 732.828 2286.94 732.666 Q2287.96 732.481 2288.98 732.481 Q2294.76 732.481 2298.14 735.652 Q2301.52 738.823 2301.52 744.24 Q2301.52 749.819 2298.05 752.92 Q2294.58 755.999 2288.26 755.999 Q2286.08 755.999 2283.81 755.629 Q2281.57 755.258 2279.16 754.518 L2279.16 749.819 Q2281.25 750.953 2283.47 751.508 Q2285.69 752.064 2288.17 752.064 Q2292.17 752.064 2294.51 749.958 Q2296.85 747.851 2296.85 744.24 Q2296.85 740.629 2294.51 738.522 Q2292.17 736.416 2288.17 736.416 Q2286.29 736.416 2284.42 736.833 Q2282.56 737.249 2280.62 738.129 L2280.62 720.768 Z" fill="#000000" fill-rule="nonzero" fill-opacity="1" /><polyline clip-path="url(#clip420)" style="stroke:#000000; stroke-linecap:round; stroke-linejoin:round; stroke-width:4; stroke-opacity:1; fill:none" points="147.478,692.928 147.478,123.472 "/>
<polyline clip-path="url(#clip420)" style="stroke:#000000; stroke-linecap:round; stroke-linejoin:round; stroke-width:4; stroke-opacity:1; fill:none" points="147.478,652.161 166.376,652.161 "/>
<polyline clip-path="url(#clip420)" style="stroke:#000000; stroke-linecap:round; stroke-linejoin:round; stroke-width:4; stroke-opacity:1; fill:none" points="147.478,549.295 166.376,549.295 "/>
<polyline clip-path="url(#clip420)" style="stroke:#000000; stroke-linecap:round; stroke-linejoin:round; stroke-width:4; stroke-opacity:1; fill:none" points="147.478,446.429 166.376,446.429 "/>
<polyline clip-path="url(#clip420)" style="stroke:#000000; stroke-linecap:round; stroke-linejoin:round; stroke-width:4; stroke-opacity:1; fill:none" points="147.478,343.564 166.376,343.564 "/>
<polyline clip-path="url(#clip420)" style="stroke:#000000; stroke-linecap:round; stroke-linejoin:round; stroke-width:4; stroke-opacity:1; fill:none" points="147.478,240.698 166.376,240.698 "/>
<polyline clip-path="url(#clip420)" style="stroke:#000000; stroke-linecap:round; stroke-linejoin:round; stroke-width:4; stroke-opacity:1; fill:none" points="147.478,137.832 166.376,137.832 "/>
<path clip-path="url(#clip420)" d="M51.3625 652.612 L81.0383 652.612 L81.0383 656.548 L51.3625 656.548 L51.3625 652.612 Z" fill="#000000" fill-rule="nonzero" fill-opacity="1" /><path clip-path="url(#clip420)" d="M95.1586 665.506 L111.478 665.506 L111.478 669.441 L89.5336 669.441 L89.5336 665.506 Q92.1956 662.751 96.7789 658.122 Q101.385 653.469 102.566 652.126 Q104.811 649.603 105.691 647.867 Q106.594 646.108 106.594 644.418 Q106.594 641.663 104.649 639.927 Q102.728 638.191 99.6261 638.191 Q97.4271 638.191 94.9734 638.955 Q92.5428 639.719 89.7651 641.27 L89.7651 636.548 Q92.5891 635.413 95.0428 634.835 Q97.4965 634.256 99.5335 634.256 Q104.904 634.256 108.098 636.941 Q111.293 639.626 111.293 644.117 Q111.293 646.247 110.483 648.168 Q109.696 650.066 107.589 652.659 Q107.01 653.33 103.909 656.548 Q100.807 659.742 95.1586 665.506 Z" fill="#000000" fill-rule="nonzero" fill-opacity="1" /><path clip-path="url(#clip420)" d="M50.9921 549.747 L80.6679 549.747 L80.6679 553.682 L50.9921 553.682 L50.9921 549.747 Z" fill="#000000" fill-rule="nonzero" fill-opacity="1" /><path clip-path="url(#clip420)" d="M91.5706 562.64 L99.2095 562.64 L99.2095 536.274 L90.8993 537.941 L90.8993 533.682 L99.1632 532.015 L103.839 532.015 L103.839 562.64 L111.478 562.64 L111.478 566.575 L91.5706 566.575 L91.5706 562.64 Z" fill="#000000" fill-rule="nonzero" fill-opacity="1" /><path clip-path="url(#clip420)" d="M99.5335 432.228 Q95.9224 432.228 94.0937 435.793 Q92.2882 439.335 92.2882 446.464 Q92.2882 453.571 94.0937 457.135 Q95.9224 460.677 99.5335 460.677 Q103.168 460.677 104.973 457.135 Q106.802 453.571 106.802 446.464 Q106.802 439.335 104.973 435.793 Q103.168 432.228 99.5335 432.228 M99.5335 428.524 Q105.344 428.524 108.399 433.131 Q111.478 437.714 111.478 446.464 Q111.478 455.191 108.399 459.797 Q105.344 464.381 99.5335 464.381 Q93.7234 464.381 90.6447 459.797 Q87.5892 455.191 87.5892 446.464 Q87.5892 437.714 90.6447 433.131 Q93.7234 428.524 99.5335 428.524 Z" fill="#000000" fill-rule="nonzero" fill-opacity="1" /><path clip-path="url(#clip420)" d="M91.5706 356.909 L99.2095 356.909 L99.2095 330.543 L90.8993 332.21 L90.8993 327.95 L99.1632 326.284 L103.839 326.284 L103.839 356.909 L111.478 356.909 L111.478 360.844 L91.5706 360.844 L91.5706 356.909 Z" fill="#000000" fill-rule="nonzero" fill-opacity="1" /><path clip-path="url(#clip420)" d="M95.1586 254.043 L111.478 254.043 L111.478 257.978 L89.5336 257.978 L89.5336 254.043 Q92.1956 251.288 96.7789 246.659 Q101.385 242.006 102.566 240.663 Q104.811 238.14 105.691 236.404 Q106.594 234.645 106.594 232.955 Q106.594 230.2 104.649 228.464 Q102.728 226.728 99.6261 226.728 Q97.4271 226.728 94.9734 227.492 Q92.5428 228.256 89.7651 229.807 L89.7651 225.085 Q92.5891 223.95 95.0428 223.372 Q97.4965 222.793 99.5335 222.793 Q104.904 222.793 108.098 225.478 Q111.293 228.163 111.293 232.654 Q111.293 234.784 110.483 236.705 Q109.696 238.603 107.589 241.196 Q107.01 241.867 103.909 245.084 Q100.807 248.279 95.1586 254.043 Z" fill="#000000" fill-rule="nonzero" fill-opacity="1" /><path clip-path="url(#clip420)" d="M104.348 136.478 Q107.705 137.196 109.58 139.464 Q111.478 141.733 111.478 145.066 Q111.478 150.182 107.959 152.983 Q104.441 155.783 97.9595 155.783 Q95.7836 155.783 93.4688 155.344 Q91.1771 154.927 88.7234 154.071 L88.7234 149.557 Q90.6678 150.691 92.9826 151.27 Q95.2974 151.848 97.8206 151.848 Q102.219 151.848 104.51 150.112 Q106.825 148.376 106.825 145.066 Q106.825 142.01 104.672 140.297 Q102.543 138.561 98.7234 138.561 L94.6956 138.561 L94.6956 134.719 L98.9085 134.719 Q102.358 134.719 104.186 133.353 Q106.015 131.964 106.015 129.372 Q106.015 126.71 104.117 125.298 Q102.242 123.862 98.7234 123.862 Q96.8021 123.862 94.603 124.279 Q92.4039 124.696 89.7651 125.575 L89.7651 121.409 Q92.4271 120.668 94.7419 120.298 Q97.0798 119.927 99.14 119.927 Q104.464 119.927 107.566 122.358 Q110.668 124.765 110.668 128.885 Q110.668 131.756 109.024 133.747 Q107.381 135.714 104.348 136.478 Z" fill="#000000" fill-rule="nonzero" fill-opacity="1" /><path clip-path="url(#clip420)" d="M621.336 14.0809 L621.336 22.0612 Q616.677 19.8332 612.545 18.7395 Q608.413 17.6457 604.565 17.6457 Q597.881 17.6457 594.235 20.2383 Q590.63 22.8309 590.63 27.611 Q590.63 31.6214 593.02 33.6873 Q595.45 35.7128 602.175 36.9686 L607.117 37.9813 Q616.272 39.7232 620.606 44.1387 Q624.981 48.5136 624.981 55.8863 Q624.981 64.6767 619.067 69.2137 Q613.193 73.7508 601.81 73.7508 Q597.516 73.7508 592.655 72.7785 Q587.835 71.8063 582.649 69.9024 L582.649 61.4765 Q587.632 64.2716 592.412 65.6895 Q597.192 67.1073 601.81 67.1073 Q608.818 67.1073 612.626 64.3527 Q616.434 61.598 616.434 56.4939 Q616.434 52.0379 613.679 49.5264 Q610.965 47.0148 604.727 45.759 L599.744 44.7868 Q590.589 42.9639 586.498 39.075 Q582.406 35.1862 582.406 28.2591 Q582.406 20.2383 588.037 15.6203 Q593.708 11.0023 603.633 11.0023 Q607.887 11.0023 612.302 11.7719 Q616.718 12.5416 621.336 14.0809 Z" fill="#000000" fill-rule="nonzero" fill-opacity="1" /><path clip-path="url(#clip420)" d="M672.742 35.9153 Q675.537 30.8922 679.426 28.5022 Q683.314 26.1121 688.581 26.1121 Q695.67 26.1121 699.518 31.0947 Q703.366 36.0368 703.366 45.1919 L703.366 72.576 L695.872 72.576 L695.872 45.4349 Q695.872 38.913 693.563 35.7533 Q691.254 32.5936 686.515 32.5936 Q680.722 32.5936 677.36 36.4419 Q673.997 40.2903 673.997 46.9338 L673.997 72.576 L666.503 72.576 L666.503 45.4349 Q666.503 38.8725 664.194 35.7533 Q661.885 32.5936 657.065 32.5936 Q651.353 32.5936 647.991 36.4824 Q644.628 40.3308 644.628 46.9338 L644.628 72.576 L637.134 72.576 L637.134 27.2059 L644.628 27.2059 L644.628 34.2544 Q647.18 30.082 650.745 28.0971 Q654.31 26.1121 659.212 26.1121 Q664.154 26.1121 667.597 28.6237 Q671.081 31.1352 672.742 35.9153 Z" fill="#000000" fill-rule="nonzero" fill-opacity="1" /><path clip-path="url(#clip420)" d="M735.814 32.4315 Q729.819 32.4315 726.335 37.1306 Q722.851 41.7891 722.851 49.9314 Q722.851 58.0738 726.294 62.7728 Q729.778 67.4314 735.814 67.4314 Q741.769 67.4314 745.253 62.7323 Q748.736 58.0333 748.736 49.9314 Q748.736 41.8701 745.253 37.1711 Q741.769 32.4315 735.814 32.4315 M735.814 26.1121 Q745.536 26.1121 751.086 32.4315 Q756.636 38.7509 756.636 49.9314 Q756.636 61.0714 751.086 67.4314 Q745.536 73.7508 735.814 73.7508 Q726.051 73.7508 720.502 67.4314 Q714.992 61.0714 714.992 49.9314 Q714.992 38.7509 720.502 32.4315 Q726.051 26.1121 735.814 26.1121 Z" fill="#000000" fill-rule="nonzero" fill-opacity="1" /><path clip-path="url(#clip420)" d="M786.572 32.4315 Q780.577 32.4315 777.093 37.1306 Q773.609 41.7891 773.609 49.9314 Q773.609 58.0738 777.052 62.7728 Q780.536 67.4314 786.572 67.4314 Q792.527 67.4314 796.011 62.7323 Q799.494 58.0333 799.494 49.9314 Q799.494 41.8701 796.011 37.1711 Q792.527 32.4315 786.572 32.4315 M786.572 26.1121 Q796.294 26.1121 801.844 32.4315 Q807.394 38.7509 807.394 49.9314 Q807.394 61.0714 801.844 67.4314 Q796.294 73.7508 786.572 73.7508 Q776.809 73.7508 771.26 67.4314 Q765.75 61.0714 765.75 49.9314 Q765.75 38.7509 771.26 32.4315 Q776.809 26.1121 786.572 26.1121 Z" fill="#000000" fill-rule="nonzero" fill-opacity="1" /><path clip-path="url(#clip420)" d="M827.121 14.324 L827.121 27.2059 L842.474 27.2059 L842.474 32.9987 L827.121 32.9987 L827.121 57.6282 Q827.121 63.1779 828.62 64.7578 Q830.16 66.3376 834.818 66.3376 L842.474 66.3376 L842.474 72.576 L834.818 72.576 Q826.19 72.576 822.909 69.3758 Q819.627 66.1351 819.627 57.6282 L819.627 32.9987 L814.159 32.9987 L814.159 27.2059 L819.627 27.2059 L819.627 14.324 L827.121 14.324 Z" fill="#000000" fill-rule="nonzero" fill-opacity="1" /><path clip-path="url(#clip420)" d="M889.992 45.1919 L889.992 72.576 L882.538 72.576 L882.538 45.4349 Q882.538 38.994 880.026 35.7938 Q877.515 32.5936 872.492 32.5936 Q866.456 32.5936 862.972 36.4419 Q859.488 40.2903 859.488 46.9338 L859.488 72.576 L851.994 72.576 L851.994 9.54393 L859.488 9.54393 L859.488 34.2544 Q862.162 30.163 865.767 28.1376 Q869.413 26.1121 874.152 26.1121 Q881.971 26.1121 885.981 30.9732 Q889.992 35.7938 889.992 45.1919 Z" fill="#000000" fill-rule="nonzero" fill-opacity="1" /><path clip-path="url(#clip420)" d="M943.666 48.0275 L943.666 51.6733 L909.395 51.6733 Q909.881 59.3701 914.013 63.421 Q918.186 67.4314 925.599 67.4314 Q929.893 67.4314 933.903 66.3781 Q937.954 65.3249 941.924 63.2184 L941.924 70.267 Q937.914 71.9684 933.701 72.8596 Q929.488 73.7508 925.153 73.7508 Q914.297 73.7508 907.937 67.4314 Q901.618 61.1119 901.618 50.3365 Q901.618 39.1965 907.613 32.6746 Q913.649 26.1121 923.857 26.1121 Q933.012 26.1121 938.319 32.0264 Q943.666 37.9003 943.666 48.0275 M936.212 45.84 Q936.131 39.7232 932.769 36.0774 Q929.447 32.4315 923.938 32.4315 Q917.7 32.4315 913.932 35.9558 Q910.206 39.4801 909.638 45.8805 L936.212 45.84 Z" fill="#000000" fill-rule="nonzero" fill-opacity="1" /><path clip-path="url(#clip420)" d="M982.19 34.1734 Q980.934 33.4443 979.435 33.1202 Q977.977 32.7556 976.195 32.7556 Q969.875 32.7556 966.473 36.8875 Q963.11 40.9789 963.11 48.6757 L963.11 72.576 L955.616 72.576 L955.616 27.2059 L963.11 27.2059 L963.11 34.2544 Q965.46 30.1225 969.227 28.1376 Q972.995 26.1121 978.382 26.1121 Q979.152 26.1121 980.084 26.2337 Q981.015 26.3147 982.15 26.5172 L982.19 34.1734 Z" fill="#000000" fill-rule="nonzero" fill-opacity="1" /><path clip-path="url(#clip420)" d="M1055.19 48.0275 L1055.19 51.6733 L1020.92 51.6733 Q1021.4 59.3701 1025.53 63.421 Q1029.71 67.4314 1037.12 67.4314 Q1041.41 67.4314 1045.42 66.3781 Q1049.48 65.3249 1053.45 63.2184 L1053.45 70.267 Q1049.44 71.9684 1045.22 72.8596 Q1041.01 73.7508 1036.67 73.7508 Q1025.82 73.7508 1019.46 67.4314 Q1013.14 61.1119 1013.14 50.3365 Q1013.14 39.1965 1019.13 32.6746 Q1025.17 26.1121 1035.38 26.1121 Q1044.53 26.1121 1049.84 32.0264 Q1055.19 37.9003 1055.19 48.0275 M1047.73 45.84 Q1047.65 39.7232 1044.29 36.0774 Q1040.97 32.4315 1035.46 32.4315 Q1029.22 32.4315 1025.45 35.9558 Q1021.73 39.4801 1021.16 45.8805 L1047.73 45.84 Z" fill="#000000" fill-rule="nonzero" fill-opacity="1" /><path clip-path="url(#clip420)" d="M1096.34 28.5427 L1096.34 35.5912 Q1093.18 33.9709 1089.78 33.1607 Q1086.38 32.3505 1082.73 32.3505 Q1077.18 32.3505 1074.39 34.0519 Q1071.63 35.7533 1071.63 39.156 Q1071.63 41.7486 1073.62 43.2475 Q1075.6 44.7058 1081.6 46.0426 L1084.15 46.6097 Q1092.09 48.3111 1095.41 51.4303 Q1098.78 54.509 1098.78 60.0587 Q1098.78 66.3781 1093.75 70.0644 Q1088.77 73.7508 1080.02 73.7508 Q1076.37 73.7508 1072.4 73.0216 Q1068.47 72.3329 1064.1 70.9151 L1064.1 63.2184 Q1068.23 65.3654 1072.24 66.4591 Q1076.25 67.5124 1080.18 67.5124 Q1085.45 67.5124 1088.28 65.73 Q1091.12 63.9071 1091.12 60.6258 Q1091.12 57.5877 1089.05 55.9673 Q1087.03 54.3469 1080.1 52.8481 L1077.51 52.2405 Q1070.58 50.7821 1067.5 47.7845 Q1064.42 44.7463 1064.42 39.4801 Q1064.42 33.0797 1068.96 29.5959 Q1073.5 26.1121 1081.84 26.1121 Q1085.97 26.1121 1089.62 26.7198 Q1093.27 27.3274 1096.34 28.5427 Z" fill="#000000" fill-rule="nonzero" fill-opacity="1" /><path clip-path="url(#clip420)" d="M1118.02 14.324 L1118.02 27.2059 L1133.37 27.2059 L1133.37 32.9987 L1118.02 32.9987 L1118.02 57.6282 Q1118.02 63.1779 1119.52 64.7578 Q1121.06 66.3376 1125.71 66.3376 L1133.37 66.3376 L1133.37 72.576 L1125.71 72.576 Q1117.09 72.576 1113.8 69.3758 Q1110.52 66.1351 1110.52 57.6282 L1110.52 32.9987 L1105.05 32.9987 L1105.05 27.2059 L1110.52 27.2059 L1110.52 14.324 L1118.02 14.324 Z" fill="#000000" fill-rule="nonzero" fill-opacity="1" /><path clip-path="url(#clip420)" d="M1143.17 27.2059 L1150.63 27.2059 L1150.63 72.576 L1143.17 72.576 L1143.17 27.2059 M1143.17 9.54393 L1150.63 9.54393 L1150.63 18.9825 L1143.17 18.9825 L1143.17 9.54393 Z" fill="#000000" fill-rule="nonzero" fill-opacity="1" /><path clip-path="url(#clip420)" d="M1201.55 35.9153 Q1204.34 30.8922 1208.23 28.5022 Q1212.12 26.1121 1217.39 26.1121 Q1224.47 26.1121 1228.32 31.0947 Q1232.17 36.0368 1232.17 45.1919 L1232.17 72.576 L1224.68 72.576 L1224.68 45.4349 Q1224.68 38.913 1222.37 35.7533 Q1220.06 32.5936 1215.32 32.5936 Q1209.53 32.5936 1206.16 36.4419 Q1202.8 40.2903 1202.8 46.9338 L1202.8 72.576 L1195.31 72.576 L1195.31 45.4349 Q1195.31 38.8725 1193 35.7533 Q1190.69 32.5936 1185.87 32.5936 Q1180.16 32.5936 1176.8 36.4824 Q1173.43 40.3308 1173.43 46.9338 L1173.43 72.576 L1165.94 72.576 L1165.94 27.2059 L1173.43 27.2059 L1173.43 34.2544 Q1175.99 30.082 1179.55 28.0971 Q1183.11 26.1121 1188.02 26.1121 Q1192.96 26.1121 1196.4 28.6237 Q1199.89 31.1352 1201.55 35.9153 Z" fill="#000000" fill-rule="nonzero" fill-opacity="1" /><path clip-path="url(#clip420)" d="M1267.66 49.7694 Q1258.62 49.7694 1255.14 51.8354 Q1251.66 53.9013 1251.66 58.8839 Q1251.66 62.8538 1254.25 65.2034 Q1256.88 67.5124 1261.38 67.5124 Q1267.58 67.5124 1271.3 63.1374 Q1275.07 58.7219 1275.07 51.4303 L1275.07 49.7694 L1267.66 49.7694 M1282.52 46.6907 L1282.52 72.576 L1275.07 72.576 L1275.07 65.6895 Q1272.52 69.8214 1268.71 71.8063 Q1264.9 73.7508 1259.39 73.7508 Q1252.43 73.7508 1248.29 69.8619 Q1244.2 65.9325 1244.2 59.3701 Q1244.2 51.7138 1249.31 47.825 Q1254.45 43.9361 1264.62 43.9361 L1275.07 43.9361 L1275.07 43.2069 Q1275.07 38.0623 1271.67 35.2672 Q1268.31 32.4315 1262.19 32.4315 Q1258.3 32.4315 1254.61 33.3632 Q1250.93 34.295 1247.52 36.1584 L1247.52 29.2718 Q1251.62 27.692 1255.46 26.9223 Q1259.31 26.1121 1262.96 26.1121 Q1272.8 26.1121 1277.66 31.2163 Q1282.52 36.3204 1282.52 46.6907 Z" fill="#000000" fill-rule="nonzero" fill-opacity="1" /><path clip-path="url(#clip420)" d="M1305.25 14.324 L1305.25 27.2059 L1320.6 27.2059 L1320.6 32.9987 L1305.25 32.9987 L1305.25 57.6282 Q1305.25 63.1779 1306.75 64.7578 Q1308.29 66.3376 1312.95 66.3376 L1320.6 66.3376 L1320.6 72.576 L1312.95 72.576 Q1304.32 72.576 1301.04 69.3758 Q1297.76 66.1351 1297.76 57.6282 L1297.76 32.9987 L1292.29 32.9987 L1292.29 27.2059 L1297.76 27.2059 L1297.76 14.324 L1305.25 14.324 Z" fill="#000000" fill-rule="nonzero" fill-opacity="1" /><path clip-path="url(#clip420)" d="M1369.21 48.0275 L1369.21 51.6733 L1334.94 51.6733 Q1335.43 59.3701 1339.56 63.421 Q1343.73 67.4314 1351.15 67.4314 Q1355.44 67.4314 1359.45 66.3781 Q1363.5 65.3249 1367.47 63.2184 L1367.47 70.267 Q1363.46 71.9684 1359.25 72.8596 Q1355.04 73.7508 1350.7 73.7508 Q1339.84 73.7508 1333.48 67.4314 Q1327.17 61.1119 1327.17 50.3365 Q1327.17 39.1965 1333.16 32.6746 Q1339.2 26.1121 1349.4 26.1121 Q1358.56 26.1121 1363.87 32.0264 Q1369.21 37.9003 1369.21 48.0275 M1361.76 45.84 Q1361.68 39.7232 1358.32 36.0774 Q1354.99 32.4315 1349.49 32.4315 Q1343.25 32.4315 1339.48 35.9558 Q1335.75 39.4801 1335.19 45.8805 L1361.76 45.84 Z" fill="#000000" fill-rule="nonzero" fill-opacity="1" /><path clip-path="url(#clip420)" d="M1410.37 28.5427 L1410.37 35.5912 Q1407.21 33.9709 1403.81 33.1607 Q1400.41 32.3505 1396.76 32.3505 Q1391.21 32.3505 1388.41 34.0519 Q1385.66 35.7533 1385.66 39.156 Q1385.66 41.7486 1387.65 43.2475 Q1389.63 44.7058 1395.63 46.0426 L1398.18 46.6097 Q1406.12 48.3111 1409.44 51.4303 Q1412.8 54.509 1412.8 60.0587 Q1412.8 66.3781 1407.78 70.0644 Q1402.8 73.7508 1394.05 73.7508 Q1390.4 73.7508 1386.43 73.0216 Q1382.5 72.3329 1378.13 70.9151 L1378.13 63.2184 Q1382.26 65.3654 1386.27 66.4591 Q1390.28 67.5124 1394.21 67.5124 Q1399.47 67.5124 1402.31 65.73 Q1405.15 63.9071 1405.15 60.6258 Q1405.15 57.5877 1403.08 55.9673 Q1401.05 54.3469 1394.13 52.8481 L1391.53 52.2405 Q1384.61 50.7821 1381.53 47.7845 Q1378.45 44.7463 1378.45 39.4801 Q1378.45 33.0797 1382.99 29.5959 Q1387.52 26.1121 1395.87 26.1121 Q1400 26.1121 1403.65 26.7198 Q1407.29 27.3274 1410.37 28.5427 Z" fill="#000000" fill-rule="nonzero" fill-opacity="1" /><path clip-path="url(#clip420)" d="M1468.62 32.4315 Q1462.63 32.4315 1459.14 37.1306 Q1455.66 41.7891 1455.66 49.9314 Q1455.66 58.0738 1459.1 62.7728 Q1462.59 67.4314 1468.62 67.4314 Q1474.58 67.4314 1478.06 62.7323 Q1481.55 58.0333 1481.55 49.9314 Q1481.55 41.8701 1478.06 37.1711 Q1474.58 32.4315 1468.62 32.4315 M1468.62 26.1121 Q1478.34 26.1121 1483.89 32.4315 Q1489.44 38.7509 1489.44 49.9314 Q1489.44 61.0714 1483.89 67.4314 Q1478.34 73.7508 1468.62 73.7508 Q1458.86 73.7508 1453.31 67.4314 Q1447.8 61.0714 1447.8 49.9314 Q1447.8 38.7509 1453.31 32.4315 Q1458.86 26.1121 1468.62 26.1121 Z" fill="#000000" fill-rule="nonzero" fill-opacity="1" /><path clip-path="url(#clip420)" d="M1524.77 9.54393 L1524.77 15.7418 L1517.64 15.7418 Q1513.63 15.7418 1512.05 17.3622 Q1510.51 18.9825 1510.51 23.1955 L1510.51 27.2059 L1522.78 27.2059 L1522.78 32.9987 L1510.51 32.9987 L1510.51 72.576 L1503.01 72.576 L1503.01 32.9987 L1495.89 32.9987 L1495.89 27.2059 L1503.01 27.2059 L1503.01 24.0462 Q1503.01 16.471 1506.54 13.0277 Q1510.06 9.54393 1517.72 9.54393 L1524.77 9.54393 Z" fill="#000000" fill-rule="nonzero" fill-opacity="1" /><path clip-path="url(#clip420)" d="M1564.75 14.324 L1564.75 27.2059 L1580.1 27.2059 L1580.1 32.9987 L1564.75 32.9987 L1564.75 57.6282 Q1564.75 63.1779 1566.25 64.7578 Q1567.79 66.3376 1572.45 66.3376 L1580.1 66.3376 L1580.1 72.576 L1572.45 72.576 Q1563.82 72.576 1560.54 69.3758 Q1557.26 66.1351 1557.26 57.6282 L1557.26 32.9987 L1551.79 32.9987 L1551.79 27.2059 L1557.26 27.2059 L1557.26 14.324 L1564.75 14.324 Z" fill="#000000" fill-rule="nonzero" fill-opacity="1" /><path clip-path="url(#clip420)" d="M1627.62 45.1919 L1627.62 72.576 L1620.17 72.576 L1620.17 45.4349 Q1620.17 38.994 1617.66 35.7938 Q1615.14 32.5936 1610.12 32.5936 Q1604.08 32.5936 1600.6 36.4419 Q1597.12 40.2903 1597.12 46.9338 L1597.12 72.576 L1589.62 72.576 L1589.62 9.54393 L1597.12 9.54393 L1597.12 34.2544 Q1599.79 30.163 1603.4 28.1376 Q1607.04 26.1121 1611.78 26.1121 Q1619.6 26.1121 1623.61 30.9732 Q1627.62 35.7938 1627.62 45.1919 Z" fill="#000000" fill-rule="nonzero" fill-opacity="1" /><path clip-path="url(#clip420)" d="M1681.3 48.0275 L1681.3 51.6733 L1647.02 51.6733 Q1647.51 59.3701 1651.64 63.421 Q1655.81 67.4314 1663.23 67.4314 Q1667.52 67.4314 1671.53 66.3781 Q1675.58 65.3249 1679.55 63.2184 L1679.55 70.267 Q1675.54 71.9684 1671.33 72.8596 Q1667.12 73.7508 1662.78 73.7508 Q1651.93 73.7508 1645.57 67.4314 Q1639.25 61.1119 1639.25 50.3365 Q1639.25 39.1965 1645.24 32.6746 Q1651.28 26.1121 1661.49 26.1121 Q1670.64 26.1121 1675.95 32.0264 Q1681.3 37.9003 1681.3 48.0275 M1673.84 45.84 Q1673.76 39.7232 1670.4 36.0774 Q1667.08 32.4315 1661.57 32.4315 Q1655.33 32.4315 1651.56 35.9558 Q1647.83 39.4801 1647.27 45.8805 L1673.84 45.84 Z" fill="#000000" fill-rule="nonzero" fill-opacity="1" /><path clip-path="url(#clip420)" d="M1748.82 28.5427 L1748.82 35.5912 Q1745.66 33.9709 1742.26 33.1607 Q1738.86 32.3505 1735.21 32.3505 Q1729.66 32.3505 1726.87 34.0519 Q1724.11 35.7533 1724.11 39.156 Q1724.11 41.7486 1726.1 43.2475 Q1728.08 44.7058 1734.08 46.0426 L1736.63 46.6097 Q1744.57 48.3111 1747.89 51.4303 Q1751.25 54.509 1751.25 60.0587 Q1751.25 66.3781 1746.23 70.0644 Q1741.25 73.7508 1732.5 73.7508 Q1728.85 73.7508 1724.88 73.0216 Q1720.95 72.3329 1716.58 70.9151 L1716.58 63.2184 Q1720.71 65.3654 1724.72 66.4591 Q1728.73 67.5124 1732.66 67.5124 Q1737.93 67.5124 1740.76 65.73 Q1743.6 63.9071 1743.6 60.6258 Q1743.6 57.5877 1741.53 55.9673 Q1739.51 54.3469 1732.58 52.8481 L1729.99 52.2405 Q1723.06 50.7821 1719.98 47.7845 Q1716.9 44.7463 1716.9 39.4801 Q1716.9 33.0797 1721.44 29.5959 Q1725.98 26.1121 1734.32 26.1121 Q1738.45 26.1121 1742.1 26.7198 Q1745.75 27.3274 1748.82 28.5427 Z" fill="#000000" fill-rule="nonzero" fill-opacity="1" /><path clip-path="url(#clip420)" d="M1770.5 14.324 L1770.5 27.2059 L1785.85 27.2059 L1785.85 32.9987 L1770.5 32.9987 L1770.5 57.6282 Q1770.5 63.1779 1771.99 64.7578 Q1773.53 66.3376 1778.19 66.3376 L1785.85 66.3376 L1785.85 72.576 L1778.19 72.576 Q1769.56 72.576 1766.28 69.3758 Q1763 66.1351 1763 57.6282 L1763 32.9987 L1757.53 32.9987 L1757.53 27.2059 L1763 27.2059 L1763 14.324 L1770.5 14.324 Z" fill="#000000" fill-rule="nonzero" fill-opacity="1" /><path clip-path="url(#clip420)" d="M1816.27 49.7694 Q1807.24 49.7694 1803.75 51.8354 Q1800.27 53.9013 1800.27 58.8839 Q1800.27 62.8538 1802.86 65.2034 Q1805.5 67.5124 1809.99 67.5124 Q1816.19 67.5124 1819.92 63.1374 Q1823.68 58.7219 1823.68 51.4303 L1823.68 49.7694 L1816.27 49.7694 M1831.14 46.6907 L1831.14 72.576 L1823.68 72.576 L1823.68 65.6895 Q1821.13 69.8214 1817.32 71.8063 Q1813.52 73.7508 1808.01 73.7508 Q1801.04 73.7508 1796.91 69.8619 Q1792.82 65.9325 1792.82 59.3701 Q1792.82 51.7138 1797.92 47.825 Q1803.07 43.9361 1813.23 43.9361 L1823.68 43.9361 L1823.68 43.2069 Q1823.68 38.0623 1820.28 35.2672 Q1816.92 32.4315 1810.8 32.4315 Q1806.91 32.4315 1803.23 33.3632 Q1799.54 34.295 1796.14 36.1584 L1796.14 29.2718 Q1800.23 27.692 1804.08 26.9223 Q1807.93 26.1121 1811.57 26.1121 Q1821.42 26.1121 1826.28 31.2163 Q1831.14 36.3204 1831.14 46.6907 Z" fill="#000000" fill-rule="nonzero" fill-opacity="1" /><path clip-path="url(#clip420)" d="M1853.86 14.324 L1853.86 27.2059 L1869.22 27.2059 L1869.22 32.9987 L1853.86 32.9987 L1853.86 57.6282 Q1853.86 63.1779 1855.36 64.7578 Q1856.9 66.3376 1861.56 66.3376 L1869.22 66.3376 L1869.22 72.576 L1861.56 72.576 Q1852.93 72.576 1849.65 69.3758 Q1846.37 66.1351 1846.37 57.6282 L1846.37 32.9987 L1840.9 32.9987 L1840.9 27.2059 L1846.37 27.2059 L1846.37 14.324 L1853.86 14.324 Z" fill="#000000" fill-rule="nonzero" fill-opacity="1" /><path clip-path="url(#clip420)" d="M1917.83 48.0275 L1917.83 51.6733 L1883.56 51.6733 Q1884.04 59.3701 1888.17 63.421 Q1892.35 67.4314 1899.76 67.4314 Q1904.05 67.4314 1908.06 66.3781 Q1912.12 65.3249 1916.09 63.2184 L1916.09 70.267 Q1912.08 71.9684 1907.86 72.8596 Q1903.65 73.7508 1899.31 73.7508 Q1888.46 73.7508 1882.1 67.4314 Q1875.78 61.1119 1875.78 50.3365 Q1875.78 39.1965 1881.77 32.6746 Q1887.81 26.1121 1898.02 26.1121 Q1907.17 26.1121 1912.48 32.0264 Q1917.83 37.9003 1917.83 48.0275 M1910.37 45.84 Q1910.29 39.7232 1906.93 36.0774 Q1903.61 32.4315 1898.1 32.4315 Q1891.86 32.4315 1888.09 35.9558 Q1884.37 39.4801 1883.8 45.8805 L1910.37 45.84 Z" fill="#000000" fill-rule="nonzero" fill-opacity="1" /><polyline clip-path="url(#clip422)" style="stroke:#009af9; stroke-linecap:round; stroke-linejoin:round; stroke-width:4; stroke-opacity:1; fill:none" points="209.891,428.596 220.346,398.495 230.8,399.608 241.255,396.583 251.71,375.123 262.164,364.035 272.619,348.142 283.073,341.437 293.528,309.483 303.982,301.995 314.437,287.537 324.891,280.434 335.346,281.379 345.8,292.236 356.255,251.186 366.709,246.293 377.164,279.802 387.618,268.316 398.073,317.484 408.527,347.151 418.982,309.042 429.437,337.165 439.891,292.539 450.346,287.448 460.8,288.072 471.255,348.492 481.709,332.863 492.164,385.683 502.618,472.854 513.073,437.465 523.527,454.592 533.982,441.094 544.436,394.892 554.891,415.819 565.345,412.24 575.8,406.346 586.254,438.369 596.709,487.918 607.163,488.389 617.618,488.479 628.073,469.838 638.527,492.559 648.982,531.092 659.436,480.105 669.891,470.93 680.345,489.769 690.8,477.167 701.254,433.687 711.709,390.882 722.163,395.812 732.618,411.653 743.072,380.282 753.527,354.276 763.981,310.377 774.436,308.509 784.89,302.014 795.345,318.471 805.799,336.15 816.254,283.341 826.709,202.666 837.163,203.678 847.618,151.488 858.072,172.512 868.527,189.046 878.981,208.325 889.436,272.294 899.89,278.082 910.345,254.411 920.799,284.208 931.254,342.885 941.708,315.585 952.163,335.614 962.617,304.707 973.072,297.656 983.526,304.889 993.981,288.274 1004.44,302.309 1014.89,284.868 1025.34,310.152 1035.8,263.444 1046.25,279.844 1056.71,242.879 1067.16,215.685 1077.62,258.994 1088.07,274.352 1098.53,339.771 1108.98,310.335 1119.44,295.36 1129.89,297.974 1140.34,282.485 1150.8,304.862 1161.25,308.687 1171.71,274.888 1182.16,310.822 1192.62,279.937 1203.07,253.12 1213.53,267.064 1223.98,328.618 1234.44,353.501 1244.89,342.565 1255.34,384.605 1265.8,388.323 1276.25,366.172 1286.71,402.756 1297.16,432.708 1307.62,399.952 1318.07,373.957 1328.53,451.786 1338.98,440.265 1349.43,476.44 1359.89,525.387 1370.34,564.137 1380.8,542.982 1391.25,523.299 1401.71,510.199 1412.16,536.185 1422.62,536.412 1433.07,523.65 1443.53,563.174 1453.98,557.126 1464.43,553.719 1474.89,574.482 1485.34,589.742 1495.8,529.495 1506.25,461.543 1516.71,445.179 1527.16,465.951 1537.62,463.206 1548.07,459.907 1558.53,484.066 1568.98,477.506 1579.43,421.237 1589.89,413.041 1600.34,414.777 1610.8,417.73 1621.25,386.591 1631.71,403.765 1642.16,385.289 1652.62,381.061 1663.07,444.478 1673.53,453.392 1683.98,463.005 1694.43,438.334 1704.89,429.301 1715.34,432.502 1725.8,406.106 1736.25,407.072 1746.71,401.7 1757.16,341.169 1767.62,387.787 1778.07,443.813 1788.53,448.105 1798.98,394.073 1809.43,387.058 1819.89,403.713 1830.34,431.447 1840.8,417.744 1851.25,402.117 1861.71,452.667 1872.16,458.499 1882.62,508.976 1893.07,448.586 1903.52,413.524 1913.98,342.076 1924.43,320.93 1934.89,301.153 1945.34,372.714 1955.8,389.502 1966.25,435.837 1976.71,428.007 1987.16,440.334 1997.62,431.34 2008.07,442.87 2018.52,381.775 2028.98,388.148 2039.43,459.896 2049.89,467.139 2060.34,474.51 2070.8,494.369 2081.25,508.354 2091.71,499.43 2102.16,514.409 2112.62,534.245 2123.07,510.866 2133.52,493.77 2143.98,508.607 2154.43,513.996 2164.89,490.555 2175.34,461.267 2185.8,533.89 2196.25,572.999 2206.71,560.837 2217.16,604.455 2227.62,590.627 2238.07,603.147 2248.52,589.435 2258.98,592.257 2269.43,611.483 2279.89,667.436 2290.34,666.465 "/>
<path clip-path="url(#clip422)" d="M209.891 503.858 L220.346 484.346 L230.8 459.794 L241.255 433.151 L251.71 407.941 L262.164 387.361 L272.619 373.475 L283.073 364.955 L293.528 358.699 L303.982 352.99 L314.437 346.769 L324.891 339.527 L335.346 335.62 L345.8 335.907 L356.255 336.697 L366.709 338.576 L377.164 342.837 L387.618 349.521 L398.073 358.313 L408.527 369.044 L418.982 381.636 L429.437 395.907 L439.891 411.076 L450.346 427.591 L460.8 446.361 L471.255 465.681 L481.709 483.978 L492.164 499.688 L502.618 510.429 L513.073 516.647 L523.527 520.266 L533.982 521.892 L544.436 522.536 L554.891 522.919 L565.345 523.28 L575.8 523.61 L586.254 523.256 L596.709 522.401 L607.163 522.291 L617.618 523.317 L628.073 522.981 L638.527 518.786 L648.982 512.106 L659.436 506.302 L669.891 503.356 L680.345 502.489 L690.8 501.358 L701.254 498.252 L711.709 492.011 L722.163 481.972 L732.618 469.12 L743.072 454.028 L753.527 434.749 L763.981 410.659 L774.436 384.744 L784.89 360.084 L795.345 338.214 L805.799 320.353 L816.254 306.631 L826.709 296.335 L837.163 289.698 L847.618 287.979 L858.072 291.526 L868.527 300.317 L878.981 313.09 L889.436 326.774 L899.89 340.063 L910.345 352.885 L920.799 364.244 L931.254 372.754 L941.708 377.816 L952.163 380.292 L962.617 380.781 L973.072 379.256 L983.526 377.303 L993.981 376.391 L1004.44 375.521 L1014.89 374.927 L1025.34 374.441 L1035.8 373.081 L1046.25 371.893 L1056.71 371.971 L1067.16 374.64 L1077.62 378.807 L1088.07 382.207 L1098.53 384.015 L1108.98 385.512 L1119.44 386.452 L1129.89 384.055 L1140.34 378.964 L1150.8 374.021 L1161.25 369.895 L1171.71 368.042 L1182.16 369.569 L1192.62 373.682 L1203.07 379.619 L1213.53 386.584 L1223.98 395.093 L1234.44 405.358 L1244.89 416.865 L1255.34 429.387 L1265.8 443.07 L1276.25 458.053 L1286.71 473.02 L1297.16 486.882 L1307.62 499.721 L1318.07 511.859 L1328.53 523.549 L1338.98 535.765 L1349.43 549.061 L1359.89 561.163 L1370.34 571.031 L1380.8 578.037 L1391.25 582.705 L1401.71 587.684 L1412.16 592.255 L1422.62 595.188 L1433.07 597.116 L1443.53 598.423 L1453.98 599.794 L1464.43 600.528 L1474.89 598.417 L1485.34 592.427 L1495.8 583.476 L1506.25 573.103 L1516.71 562.985 L1527.16 554.684 L1537.62 548.298 L1548.07 542.904 L1558.53 537.879 L1568.98 532.989 L1579.43 528.054 L1589.89 523.339 L1600.34 518.638 L1610.8 513.888 L1621.25 508.726 L1631.71 502.875 L1642.16 498.114 L1652.62 497.052 L1663.07 498.825 L1673.53 499.989 L1683.98 500.022 L1694.43 497.761 L1704.89 493.124 L1715.34 488.717 L1725.8 485.129 L1736.25 481.762 L1746.71 477.732 L1757.16 473.035 L1767.62 468.852 L1778.07 466.159 L1788.53 465.856 L1798.98 469.933 L1809.43 478.536 L1819.89 489.476 L1830.34 500.064 L1840.8 508.68 L1851.25 513.365 L1861.71 512.238 L1872.16 506.867 L1882.62 498.966 L1893.07 487.699 L1903.52 473.251 L1913.98 457.96 L1924.43 445.557 L1934.89 440.237 L1945.34 442.288 L1955.8 450.589 L1966.25 464.87 L1976.71 481.991 L1987.16 496.486 L1997.62 507.374 L2008.07 516.222 L2018.52 523.348 L2028.98 529.478 L2039.43 534.58 L2049.89 538.904 L2060.34 542.908 L2070.8 547.3 L2081.25 551.897 L2091.71 555.35 L2102.16 558.065 L2112.62 559.505 L2123.07 559.978 L2133.52 562.416 L2143.98 567.199 L2154.43 573.168 L2164.89 579.983 L2175.34 587.639 L2185.8 596.24 L2196.25 605.119 L2206.71 613.42 L2217.16 621.378 L2227.62 628.575 L2238.07 635.226 L2248.52 642.733 L2258.98 651.303 L2269.43 660.75 L2279.89 670.06 L2290.34 676.811 L2290.34 426.211 L2279.89 439.771 L2269.43 450.429 L2258.98 458.858 L2248.52 464.986 L2238.07 468.597 L2227.62 469.668 L2217.16 467.381 L2206.71 462.262 L2196.25 455.435 L2185.8 447.223 L2175.34 438.868 L2164.89 431.273 L2154.43 424.462 L2143.98 418.498 L2133.52 413.737 L2123.07 411.338 L2112.62 410.913 L2102.16 409.521 L2091.71 406.85 L2081.25 403.433 L2070.8 398.863 L2060.34 394.49 L2049.89 390.498 L2039.43 386.181 L2028.98 381.084 L2018.52 374.956 L2008.07 367.831 L1997.62 358.983 L1987.16 348.095 L1976.71 333.6 L1966.25 316.479 L1955.8 302.198 L1945.34 293.897 L1934.89 291.846 L1924.43 297.167 L1913.98 309.57 L1903.52 324.861 L1893.07 339.309 L1882.62 350.576 L1872.16 358.477 L1861.71 363.848 L1851.25 364.975 L1840.8 360.29 L1830.34 351.673 L1819.89 341.086 L1809.43 330.146 L1798.98 321.543 L1788.53 317.465 L1778.07 317.769 L1767.62 320.461 L1757.16 324.645 L1746.71 329.342 L1736.25 333.371 L1725.8 336.738 L1715.34 340.326 L1704.89 344.734 L1694.43 349.371 L1683.98 351.632 L1673.53 351.599 L1663.07 350.435 L1652.62 348.662 L1642.16 349.724 L1631.71 354.484 L1621.25 360.336 L1610.8 365.498 L1600.34 370.247 L1589.89 374.949 L1579.43 379.664 L1568.98 384.599 L1558.53 389.488 L1548.07 394.514 L1537.62 399.908 L1527.16 406.294 L1516.71 414.594 L1506.25 424.712 L1495.8 435.086 L1485.34 444.037 L1474.89 450.026 L1464.43 452.138 L1453.98 451.403 L1443.53 450.033 L1433.07 448.725 L1422.62 446.798 L1412.16 443.865 L1401.71 439.294 L1391.25 434.315 L1380.8 429.647 L1370.34 422.641 L1359.89 412.773 L1349.43 400.671 L1338.98 387.375 L1328.53 375.158 L1318.07 363.469 L1307.62 351.331 L1297.16 338.491 L1286.71 324.629 L1276.25 309.663 L1265.8 294.68 L1255.34 280.997 L1244.89 268.475 L1234.44 256.967 L1223.98 246.703 L1213.53 238.194 L1203.07 231.228 L1192.62 225.292 L1182.16 221.178 L1171.71 219.652 L1161.25 221.504 L1150.8 225.631 L1140.34 230.573 L1129.89 235.665 L1119.44 238.061 L1108.98 237.121 L1098.53 235.625 L1088.07 233.817 L1077.62 230.417 L1067.16 226.25 L1056.71 223.58 L1046.25 223.503 L1035.8 224.69 L1025.34 226.051 L1014.89 226.537 L1004.44 227.131 L993.981 228 L983.526 228.913 L973.072 230.866 L962.617 232.39 L952.163 231.902 L941.708 229.425 L931.254 224.364 L920.799 215.854 L910.345 204.495 L899.89 191.672 L889.436 178.384 L878.981 164.7 L868.527 151.926 L858.072 143.135 L847.618 139.589 L837.163 141.307 L826.709 147.944 L816.254 158.241 L805.799 171.962 L795.345 189.824 L784.89 211.693 L774.436 236.354 L763.981 262.268 L753.527 286.359 L743.072 305.638 L732.618 320.73 L722.163 333.582 L711.709 343.621 L701.254 349.862 L690.8 352.967 L680.345 354.099 L669.891 354.966 L659.436 357.912 L648.982 363.716 L638.527 370.396 L628.073 374.591 L617.618 374.927 L607.163 373.901 L596.709 374.01 L586.254 374.865 L575.8 375.219 L565.345 374.89 L554.891 374.528 L544.436 374.146 L533.982 373.502 L523.527 371.875 L513.073 368.257 L502.618 362.038 L492.164 351.297 L481.709 335.585 L471.255 317.287 L460.8 297.964 L450.346 279.189 L439.891 262.667 L429.437 247.487 L418.982 233.202 L408.527 220.595 L398.073 209.847 L387.618 201.04 L377.164 194.345 L366.709 190.079 L356.255 188.2 L345.8 187.404 L335.346 187.076 L324.891 190.851 L314.437 197.769 L303.982 203.312 L293.528 207.763 L283.073 211.889 L272.619 217.092 L262.164 226.199 L251.71 240.41 L241.255 257.801 L230.8 275.673 L220.346 291.389 L209.891 303.204  Z" fill="#e26f46" fill-rule="evenodd" fill-opacity="0.5"/>
<polyline clip-path="url(#clip422)" style="stroke:#e26f46; stroke-linecap:round; stroke-linejoin:round; stroke-width:4; stroke-opacity:1; fill:none" points="209.891,403.531 220.346,387.867 230.8,367.734 241.255,345.476 251.71,324.175 262.164,306.78 272.619,295.284 283.073,288.422 293.528,283.231 303.982,278.151 314.437,272.269 324.891,265.189 335.346,261.348 345.8,261.655 356.255,262.449 366.709,264.327 377.164,268.591 387.618,275.28 398.073,284.08 408.527,294.82 418.982,307.419 429.437,321.697 439.891,336.871 450.346,353.39 460.8,372.163 471.255,391.484 481.709,409.781 492.164,425.493 502.618,436.234 513.073,442.452 523.527,446.071 533.982,447.697 544.436,448.341 554.891,448.724 565.345,449.085 575.8,449.414 586.254,449.06 596.709,448.205 607.163,448.096 617.618,449.122 628.073,448.786 638.527,444.591 648.982,437.911 659.436,432.107 669.891,429.161 680.345,428.294 690.8,427.162 701.254,424.057 711.709,417.816 722.163,407.777 732.618,394.925 743.072,379.833 753.527,360.554 763.981,336.463 774.436,310.549 784.89,285.888 795.345,264.019 805.799,246.158 816.254,232.436 826.709,222.14 837.163,215.503 847.618,213.784 858.072,217.33 868.527,226.122 878.981,238.895 889.436,252.579 899.89,265.868 910.345,278.69 920.799,290.049 931.254,298.559 941.708,303.62 952.163,306.097 962.617,306.586 973.072,305.061 983.526,303.108 993.981,302.196 1004.44,301.326 1014.89,300.732 1025.34,300.246 1035.8,298.886 1046.25,297.698 1056.71,297.776 1067.16,300.445 1077.62,304.612 1088.07,308.012 1098.53,309.82 1108.98,311.316 1119.44,312.257 1129.89,309.86 1140.34,304.769 1150.8,299.826 1161.25,295.699 1171.71,293.847 1182.16,295.373 1192.62,299.487 1203.07,305.423 1213.53,312.389 1223.98,320.898 1234.44,331.162 1244.89,342.67 1255.34,355.192 1265.8,368.875 1276.25,383.858 1286.71,398.825 1297.16,412.687 1307.62,425.526 1318.07,437.664 1328.53,449.353 1338.98,461.57 1349.43,474.866 1359.89,486.968 1370.34,496.836 1380.8,503.842 1391.25,508.51 1401.71,513.489 1412.16,518.06 1422.62,520.993 1433.07,522.92 1443.53,524.228 1453.98,525.599 1464.43,526.333 1474.89,524.222 1485.34,518.232 1495.8,509.281 1506.25,498.908 1516.71,488.789 1527.16,480.489 1537.62,474.103 1548.07,468.709 1558.53,463.683 1568.98,458.794 1579.43,453.859 1589.89,449.144 1600.34,444.443 1610.8,439.693 1621.25,434.531 1631.71,428.68 1642.16,423.919 1652.62,422.857 1663.07,424.63 1673.53,425.794 1683.98,425.827 1694.43,423.566 1704.89,418.929 1715.34,414.522 1725.8,410.934 1736.25,407.566 1746.71,403.537 1757.16,398.84 1767.62,394.657 1778.07,391.964 1788.53,391.66 1798.98,395.738 1809.43,404.341 1819.89,415.281 1830.34,425.868 1840.8,434.485 1851.25,439.17 1861.71,438.043 1872.16,432.672 1882.62,424.771 1893.07,413.504 1903.52,399.056 1913.98,383.765 1924.43,371.362 1934.89,366.041 1945.34,368.092 1955.8,376.393 1966.25,390.674 1976.71,407.795 1987.16,422.291 1997.62,433.178 2008.07,442.027 2018.52,449.152 2028.98,455.281 2039.43,460.38 2049.89,464.701 2060.34,468.699 2070.8,473.081 2081.25,477.665 2091.71,481.1 2102.16,483.793 2112.62,485.209 2123.07,485.658 2133.52,488.077 2143.98,492.849 2154.43,498.815 2164.89,505.628 2175.34,513.253 2185.8,521.732 2196.25,530.277 2206.71,537.841 2217.16,544.379 2227.62,549.122 2238.07,551.912 2248.52,553.859 2258.98,555.08 2269.43,555.589 2279.89,554.916 2290.34,551.511 "/>
<path clip-path="url(#clip420)" d="M1775.69 297.974 L2279.25 297.974 L2279.25 142.454 L1775.69 142.454  Z" fill="#ffffff" fill-rule="evenodd" fill-opacity="1"/>
<polyline clip-path="url(#clip420)" style="stroke:#000000; stroke-linecap:round; stroke-linejoin:round; stroke-width:4; stroke-opacity:1; fill:none" points="1775.69,297.974 2279.25,297.974 2279.25,142.454 1775.69,142.454 1775.69,297.974 "/>
<polyline clip-path="url(#clip420)" style="stroke:#009af9; stroke-linecap:round; stroke-linejoin:round; stroke-width:4; stroke-opacity:1; fill:none" points="1800.19,194.294 1947.21,194.294 "/>
<path clip-path="url(#clip420)" d="M1996.37 185.648 L1986.99 198.264 L1996.85 211.574 L1991.83 211.574 L1984.28 201.389 L1976.74 211.574 L1971.71 211.574 L1981.78 198.009 L1972.57 185.648 L1977.59 185.648 L1984.47 194.884 L1991.34 185.648 L1996.37 185.648 Z" fill="#000000" fill-rule="nonzero" fill-opacity="1" /><path clip-path="url(#clip420)" d="M2004.28 207.639 L2011.92 207.639 L2011.92 181.273 L2003.61 182.94 L2003.61 178.681 L2011.87 177.014 L2016.55 177.014 L2016.55 207.639 L2024.19 207.639 L2024.19 211.574 L2004.28 211.574 L2004.28 207.639 Z" fill="#000000" fill-rule="nonzero" fill-opacity="1" /><polyline clip-path="url(#clip420)" style="stroke:#e26f46; stroke-linecap:round; stroke-linejoin:round; stroke-width:4; stroke-opacity:1; fill:none" points="1800.19,246.134 1947.21,246.134 "/>
<path clip-path="url(#clip420)" d="M1996.37 237.488 L1986.99 250.104 L1996.85 263.414 L1991.83 263.414 L1984.28 253.229 L1976.74 263.414 L1971.71 263.414 L1981.78 249.849 L1972.57 237.488 L1977.59 237.488 L1984.47 246.724 L1991.34 237.488 L1996.37 237.488 Z" fill="#000000" fill-rule="nonzero" fill-opacity="1" /><path clip-path="url(#clip420)" d="M2004.28 259.479 L2011.92 259.479 L2011.92 233.113 L2003.61 234.78 L2003.61 230.521 L2011.87 228.854 L2016.55 228.854 L2016.55 259.479 L2024.19 259.479 L2024.19 263.414 L2004.28 263.414 L2004.28 259.479 Z" fill="#000000" fill-rule="nonzero" fill-opacity="1" /><path clip-path="url(#clip420)" d="M2049.56 238.252 L2049.56 242.28 Q2047.75 241.354 2045.81 240.891 Q2043.87 240.428 2041.78 240.428 Q2038.61 240.428 2037.01 241.4 Q2035.44 242.372 2035.44 244.317 Q2035.44 245.798 2036.57 246.655 Q2037.71 247.488 2041.13 248.252 L2042.59 248.576 Q2047.13 249.548 2049.03 251.331 Q2050.95 253.09 2050.95 256.261 Q2050.95 259.872 2048.08 261.979 Q2045.23 264.085 2040.23 264.085 Q2038.15 264.085 2035.88 263.669 Q2033.63 263.275 2031.13 262.465 L2031.13 258.067 Q2033.49 259.294 2035.79 259.919 Q2038.08 260.52 2040.32 260.52 Q2043.33 260.52 2044.95 259.502 Q2046.57 258.46 2046.57 256.585 Q2046.57 254.849 2045.39 253.923 Q2044.24 252.997 2040.28 252.141 L2038.8 251.794 Q2034.84 250.96 2033.08 249.247 Q2031.32 247.511 2031.32 244.502 Q2031.32 240.845 2033.91 238.854 Q2036.5 236.863 2041.27 236.863 Q2043.63 236.863 2045.72 237.21 Q2047.8 237.558 2049.56 238.252 Z" fill="#000000" fill-rule="nonzero" fill-opacity="1" /><path clip-path="url(#clip420)" d="M2077.92 242.465 Q2079.51 239.595 2081.74 238.229 Q2083.96 236.863 2086.97 236.863 Q2091.02 236.863 2093.22 239.71 Q2095.42 242.534 2095.42 247.766 L2095.42 263.414 L2091.13 263.414 L2091.13 247.905 Q2091.13 244.178 2089.81 242.372 Q2088.49 240.567 2085.79 240.567 Q2082.48 240.567 2080.55 242.766 Q2078.63 244.965 2078.63 248.761 L2078.63 263.414 L2074.35 263.414 L2074.35 247.905 Q2074.35 244.155 2073.03 242.372 Q2071.71 240.567 2068.96 240.567 Q2065.69 240.567 2063.77 242.789 Q2061.85 244.988 2061.85 248.761 L2061.85 263.414 L2057.57 263.414 L2057.57 237.488 L2061.85 237.488 L2061.85 241.516 Q2063.31 239.132 2065.35 237.997 Q2067.38 236.863 2070.18 236.863 Q2073.01 236.863 2074.98 238.298 Q2076.97 239.734 2077.92 242.465 Z" fill="#000000" fill-rule="nonzero" fill-opacity="1" /><path clip-path="url(#clip420)" d="M2113.96 240.474 Q2110.53 240.474 2108.54 243.159 Q2106.55 245.821 2106.55 250.474 Q2106.55 255.127 2108.52 257.812 Q2110.51 260.474 2113.96 260.474 Q2117.36 260.474 2119.35 257.789 Q2121.34 255.104 2121.34 250.474 Q2121.34 245.868 2119.35 243.183 Q2117.36 240.474 2113.96 240.474 M2113.96 236.863 Q2119.51 236.863 2122.68 240.474 Q2125.86 244.085 2125.86 250.474 Q2125.86 256.84 2122.68 260.474 Q2119.51 264.085 2113.96 264.085 Q2108.38 264.085 2105.21 260.474 Q2102.06 256.84 2102.06 250.474 Q2102.06 244.085 2105.21 240.474 Q2108.38 236.863 2113.96 236.863 Z" fill="#000000" fill-rule="nonzero" fill-opacity="1" /><path clip-path="url(#clip420)" d="M2142.96 240.474 Q2139.54 240.474 2137.55 243.159 Q2135.55 245.821 2135.55 250.474 Q2135.55 255.127 2137.52 257.812 Q2139.51 260.474 2142.96 260.474 Q2146.36 260.474 2148.36 257.789 Q2150.35 255.104 2150.35 250.474 Q2150.35 245.868 2148.36 243.183 Q2146.36 240.474 2142.96 240.474 M2142.96 236.863 Q2148.52 236.863 2151.69 240.474 Q2154.86 244.085 2154.86 250.474 Q2154.86 256.84 2151.69 260.474 Q2148.52 264.085 2142.96 264.085 Q2137.38 264.085 2134.21 260.474 Q2131.06 256.84 2131.06 250.474 Q2131.06 244.085 2134.21 240.474 Q2137.38 236.863 2142.96 236.863 Z" fill="#000000" fill-rule="nonzero" fill-opacity="1" /><path clip-path="url(#clip420)" d="M2166.13 230.127 L2166.13 237.488 L2174.91 237.488 L2174.91 240.798 L2166.13 240.798 L2166.13 254.872 Q2166.13 258.044 2166.99 258.946 Q2167.87 259.849 2170.53 259.849 L2174.91 259.849 L2174.91 263.414 L2170.53 263.414 Q2165.6 263.414 2163.73 261.585 Q2161.85 259.733 2161.85 254.872 L2161.85 240.798 L2158.73 240.798 L2158.73 237.488 L2161.85 237.488 L2161.85 230.127 L2166.13 230.127 Z" fill="#000000" fill-rule="nonzero" fill-opacity="1" /><path clip-path="url(#clip420)" d="M2202.06 247.766 L2202.06 263.414 L2197.8 263.414 L2197.8 247.905 Q2197.8 244.224 2196.36 242.396 Q2194.93 240.567 2192.06 240.567 Q2188.61 240.567 2186.62 242.766 Q2184.63 244.965 2184.63 248.761 L2184.63 263.414 L2180.35 263.414 L2180.35 227.396 L2184.63 227.396 L2184.63 241.516 Q2186.16 239.178 2188.22 238.021 Q2190.3 236.863 2193.01 236.863 Q2197.48 236.863 2199.77 239.641 Q2202.06 242.396 2202.06 247.766 Z" fill="#000000" fill-rule="nonzero" fill-opacity="1" /><path clip-path="url(#clip420)" d="M2232.73 249.386 L2232.73 251.47 L2213.15 251.47 Q2213.42 255.868 2215.79 258.183 Q2218.17 260.474 2222.41 260.474 Q2224.86 260.474 2227.15 259.872 Q2229.47 259.27 2231.73 258.067 L2231.73 262.095 Q2229.44 263.067 2227.04 263.576 Q2224.63 264.085 2222.15 264.085 Q2215.95 264.085 2212.31 260.474 Q2208.7 256.863 2208.7 250.706 Q2208.7 244.34 2212.13 240.613 Q2215.58 236.863 2221.41 236.863 Q2226.64 236.863 2229.67 240.243 Q2232.73 243.599 2232.73 249.386 M2228.47 248.136 Q2228.42 244.641 2226.5 242.558 Q2224.6 240.474 2221.46 240.474 Q2217.89 240.474 2215.74 242.488 Q2213.61 244.502 2213.29 248.159 L2228.47 248.136 Z" fill="#000000" fill-rule="nonzero" fill-opacity="1" /><path clip-path="url(#clip420)" d="M2254.74 241.47 Q2254.03 241.053 2253.17 240.868 Q2252.34 240.659 2251.32 240.659 Q2247.71 240.659 2245.76 243.021 Q2243.84 245.359 2243.84 249.757 L2243.84 263.414 L2239.56 263.414 L2239.56 237.488 L2243.84 237.488 L2243.84 241.516 Q2245.18 239.155 2247.34 238.021 Q2249.49 236.863 2252.57 236.863 Q2253.01 236.863 2253.54 236.933 Q2254.07 236.979 2254.72 237.095 L2254.74 241.47 Z" fill="#000000" fill-rule="nonzero" fill-opacity="1" /><path clip-path="url(#clip420)" d="M147.478 1423.18 L2352.76 1423.18 L2352.76 853.724 L147.478 853.724  Z" fill="#ffffff" fill-rule="evenodd" fill-opacity="1"/>
<defs>
  <clipPath id="clip423">
    <rect x="147" y="853" width="2206" height="570"/>
  </clipPath>
</defs>
<polyline clip-path="url(#clip423)" style="stroke:#000000; stroke-linecap:round; stroke-linejoin:round; stroke-width:2; stroke-opacity:0.1; fill:none" points="209.891,1423.18 209.891,853.724 "/>
<polyline clip-path="url(#clip423)" style="stroke:#000000; stroke-linecap:round; stroke-linejoin:round; stroke-width:2; stroke-opacity:0.1; fill:none" points="625.982,1423.18 625.982,853.724 "/>
<polyline clip-path="url(#clip423)" style="stroke:#000000; stroke-linecap:round; stroke-linejoin:round; stroke-width:2; stroke-opacity:0.1; fill:none" points="1042.07,1423.18 1042.07,853.724 "/>
<polyline clip-path="url(#clip423)" style="stroke:#000000; stroke-linecap:round; stroke-linejoin:round; stroke-width:2; stroke-opacity:0.1; fill:none" points="1458.16,1423.18 1458.16,853.724 "/>
<polyline clip-path="url(#clip423)" style="stroke:#000000; stroke-linecap:round; stroke-linejoin:round; stroke-width:2; stroke-opacity:0.1; fill:none" points="1874.25,1423.18 1874.25,853.724 "/>
<polyline clip-path="url(#clip423)" style="stroke:#000000; stroke-linecap:round; stroke-linejoin:round; stroke-width:2; stroke-opacity:0.1; fill:none" points="2290.34,1423.18 2290.34,853.724 "/>
<polyline clip-path="url(#clip423)" style="stroke:#000000; stroke-linecap:round; stroke-linejoin:round; stroke-width:2; stroke-opacity:0.1; fill:none" points="147.478,1319.06 2352.76,1319.06 "/>
<polyline clip-path="url(#clip423)" style="stroke:#000000; stroke-linecap:round; stroke-linejoin:round; stroke-width:2; stroke-opacity:0.1; fill:none" points="147.478,1214.66 2352.76,1214.66 "/>
<polyline clip-path="url(#clip423)" style="stroke:#000000; stroke-linecap:round; stroke-linejoin:round; stroke-width:2; stroke-opacity:0.1; fill:none" points="147.478,1110.25 2352.76,1110.25 "/>
<polyline clip-path="url(#clip423)" style="stroke:#000000; stroke-linecap:round; stroke-linejoin:round; stroke-width:2; stroke-opacity:0.1; fill:none" points="147.478,1005.84 2352.76,1005.84 "/>
<polyline clip-path="url(#clip423)" style="stroke:#000000; stroke-linecap:round; stroke-linejoin:round; stroke-width:2; stroke-opacity:0.1; fill:none" points="147.478,901.432 2352.76,901.432 "/>
<polyline clip-path="url(#clip420)" style="stroke:#000000; stroke-linecap:round; stroke-linejoin:round; stroke-width:4; stroke-opacity:1; fill:none" points="147.478,1423.18 2352.76,1423.18 "/>
<polyline clip-path="url(#clip420)" style="stroke:#000000; stroke-linecap:round; stroke-linejoin:round; stroke-width:4; stroke-opacity:1; fill:none" points="209.891,1423.18 209.891,1404.28 "/>
<polyline clip-path="url(#clip420)" style="stroke:#000000; stroke-linecap:round; stroke-linejoin:round; stroke-width:4; stroke-opacity:1; fill:none" points="625.982,1423.18 625.982,1404.28 "/>
<polyline clip-path="url(#clip420)" style="stroke:#000000; stroke-linecap:round; stroke-linejoin:round; stroke-width:4; stroke-opacity:1; fill:none" points="1042.07,1423.18 1042.07,1404.28 "/>
<polyline clip-path="url(#clip420)" style="stroke:#000000; stroke-linecap:round; stroke-linejoin:round; stroke-width:4; stroke-opacity:1; fill:none" points="1458.16,1423.18 1458.16,1404.28 "/>
<polyline clip-path="url(#clip420)" style="stroke:#000000; stroke-linecap:round; stroke-linejoin:round; stroke-width:4; stroke-opacity:1; fill:none" points="1874.25,1423.18 1874.25,1404.28 "/>
<polyline clip-path="url(#clip420)" style="stroke:#000000; stroke-linecap:round; stroke-linejoin:round; stroke-width:4; stroke-opacity:1; fill:none" points="2290.34,1423.18 2290.34,1404.28 "/>
<path clip-path="url(#clip420)" d="M209.891 1454.1 Q206.28 1454.1 204.452 1457.66 Q202.646 1461.2 202.646 1468.33 Q202.646 1475.44 204.452 1479.01 Q206.28 1482.55 209.891 1482.55 Q213.526 1482.55 215.331 1479.01 Q217.16 1475.44 217.16 1468.33 Q217.16 1461.2 215.331 1457.66 Q213.526 1454.1 209.891 1454.1 M209.891 1450.39 Q215.702 1450.39 218.757 1455 Q221.836 1459.58 221.836 1468.33 Q221.836 1477.06 218.757 1481.67 Q215.702 1486.25 209.891 1486.25 Q204.081 1486.25 201.003 1481.67 Q197.947 1477.06 197.947 1468.33 Q197.947 1459.58 201.003 1455 Q204.081 1450.39 209.891 1450.39 Z" fill="#000000" fill-rule="nonzero" fill-opacity="1" /><path clip-path="url(#clip420)" d="M616.364 1481.64 L624.002 1481.64 L624.002 1455.28 L615.692 1456.95 L615.692 1452.69 L623.956 1451.02 L628.632 1451.02 L628.632 1481.64 L636.271 1481.64 L636.271 1485.58 L616.364 1485.58 L616.364 1481.64 Z" fill="#000000" fill-rule="nonzero" fill-opacity="1" /><path clip-path="url(#clip420)" d="M1036.72 1481.64 L1053.04 1481.64 L1053.04 1485.58 L1031.1 1485.58 L1031.1 1481.64 Q1033.76 1478.89 1038.34 1474.26 Q1042.95 1469.61 1044.13 1468.27 Q1046.38 1465.74 1047.26 1464.01 Q1048.16 1462.25 1048.16 1460.56 Q1048.16 1457.8 1046.22 1456.07 Q1044.29 1454.33 1041.19 1454.33 Q1038.99 1454.33 1036.54 1455.09 Q1034.11 1455.86 1031.33 1457.41 L1031.33 1452.69 Q1034.16 1451.55 1036.61 1450.97 Q1039.06 1450.39 1041.1 1450.39 Q1046.47 1450.39 1049.66 1453.08 Q1052.86 1455.77 1052.86 1460.26 Q1052.86 1462.39 1052.05 1464.31 Q1051.26 1466.2 1049.16 1468.8 Q1048.58 1469.47 1045.47 1472.69 Q1042.37 1475.88 1036.72 1481.64 Z" fill="#000000" fill-rule="nonzero" fill-opacity="1" /><path clip-path="url(#clip420)" d="M1462.41 1466.95 Q1465.77 1467.66 1467.64 1469.93 Q1469.54 1472.2 1469.54 1475.53 Q1469.54 1480.65 1466.02 1483.45 Q1462.5 1486.25 1456.02 1486.25 Q1453.84 1486.25 1451.53 1485.81 Q1449.24 1485.39 1446.78 1484.54 L1446.78 1480.02 Q1448.73 1481.16 1451.04 1481.74 Q1453.36 1482.32 1455.88 1482.32 Q1460.28 1482.32 1462.57 1480.58 Q1464.89 1478.84 1464.89 1475.53 Q1464.89 1472.48 1462.73 1470.77 Q1460.6 1469.03 1456.78 1469.03 L1452.76 1469.03 L1452.76 1465.19 L1456.97 1465.19 Q1460.42 1465.19 1462.25 1463.82 Q1464.08 1462.43 1464.08 1459.84 Q1464.08 1457.18 1462.18 1455.77 Q1460.3 1454.33 1456.78 1454.33 Q1454.86 1454.33 1452.66 1454.75 Q1450.47 1455.16 1447.83 1456.04 L1447.83 1451.88 Q1450.49 1451.14 1452.8 1450.77 Q1455.14 1450.39 1457.2 1450.39 Q1462.53 1450.39 1465.63 1452.83 Q1468.73 1455.23 1468.73 1459.35 Q1468.73 1462.22 1467.09 1464.21 Q1465.44 1466.18 1462.41 1466.95 Z" fill="#000000" fill-rule="nonzero" fill-opacity="1" /><path clip-path="url(#clip420)" d="M1877.26 1455.09 L1865.46 1473.54 L1877.26 1473.54 L1877.26 1455.09 M1876.03 1451.02 L1881.91 1451.02 L1881.91 1473.54 L1886.84 1473.54 L1886.84 1477.43 L1881.91 1477.43 L1881.91 1485.58 L1877.26 1485.58 L1877.26 1477.43 L1861.66 1477.43 L1861.66 1472.92 L1876.03 1451.02 Z" fill="#000000" fill-rule="nonzero" fill-opacity="1" /><path clip-path="url(#clip420)" d="M2280.62 1451.02 L2298.98 1451.02 L2298.98 1454.96 L2284.9 1454.96 L2284.9 1463.43 Q2285.92 1463.08 2286.94 1462.92 Q2287.96 1462.73 2288.98 1462.73 Q2294.76 1462.73 2298.14 1465.9 Q2301.52 1469.08 2301.52 1474.49 Q2301.52 1480.07 2298.05 1483.17 Q2294.58 1486.25 2288.26 1486.25 Q2286.08 1486.25 2283.81 1485.88 Q2281.57 1485.51 2279.16 1484.77 L2279.16 1480.07 Q2281.25 1481.2 2283.47 1481.76 Q2285.69 1482.32 2288.17 1482.32 Q2292.17 1482.32 2294.51 1480.21 Q2296.85 1478.1 2296.85 1474.49 Q2296.85 1470.88 2294.51 1468.77 Q2292.17 1466.67 2288.17 1466.67 Q2286.29 1466.67 2284.42 1467.08 Q2282.56 1467.5 2280.62 1468.38 L2280.62 1451.02 Z" fill="#000000" fill-rule="nonzero" fill-opacity="1" /><path clip-path="url(#clip420)" d="M1249.18 1522.27 L1249.18 1532.4 L1261.24 1532.4 L1261.24 1536.95 L1249.18 1536.95 L1249.18 1556.3 Q1249.18 1560.66 1250.36 1561.9 Q1251.57 1563.14 1255.23 1563.14 L1261.24 1563.14 L1261.24 1568.04 L1255.23 1568.04 Q1248.45 1568.04 1245.87 1565.53 Q1243.29 1562.98 1243.29 1556.3 L1243.29 1536.95 L1238.99 1536.95 L1238.99 1532.4 L1243.29 1532.4 L1243.29 1522.27 L1249.18 1522.27 Z" fill="#000000" fill-rule="nonzero" fill-opacity="1" /><polyline clip-path="url(#clip420)" style="stroke:#000000; stroke-linecap:round; stroke-linejoin:round; stroke-width:4; stroke-opacity:1; fill:none" points="147.478,1423.18 147.478,853.724 "/>
<polyline clip-path="url(#clip420)" style="stroke:#000000; stroke-linecap:round; stroke-linejoin:round; stroke-width:4; stroke-opacity:1; fill:none" points="147.478,1319.06 166.376,1319.06 "/>
<polyline clip-path="url(#clip420)" style="stroke:#000000; stroke-linecap:round; stroke-linejoin:round; stroke-width:4; stroke-opacity:1; fill:none" points="147.478,1214.66 166.376,1214.66 "/>
<polyline clip-path="url(#clip420)" style="stroke:#000000; stroke-linecap:round; stroke-linejoin:round; stroke-width:4; stroke-opacity:1; fill:none" points="147.478,1110.25 166.376,1110.25 "/>
<polyline clip-path="url(#clip420)" style="stroke:#000000; stroke-linecap:round; stroke-linejoin:round; stroke-width:4; stroke-opacity:1; fill:none" points="147.478,1005.84 166.376,1005.84 "/>
<polyline clip-path="url(#clip420)" style="stroke:#000000; stroke-linecap:round; stroke-linejoin:round; stroke-width:4; stroke-opacity:1; fill:none" points="147.478,901.432 166.376,901.432 "/>
<path clip-path="url(#clip420)" d="M51.3625 1319.52 L81.0383 1319.52 L81.0383 1323.45 L51.3625 1323.45 L51.3625 1319.52 Z" fill="#000000" fill-rule="nonzero" fill-opacity="1" /><path clip-path="url(#clip420)" d="M95.1586 1332.41 L111.478 1332.41 L111.478 1336.34 L89.5336 1336.34 L89.5336 1332.41 Q92.1956 1329.66 96.7789 1325.03 Q101.385 1320.37 102.566 1319.03 Q104.811 1316.51 105.691 1314.77 Q106.594 1313.01 106.594 1311.32 Q106.594 1308.57 104.649 1306.83 Q102.728 1305.1 99.6261 1305.1 Q97.4271 1305.1 94.9734 1305.86 Q92.5428 1306.62 89.7651 1308.17 L89.7651 1303.45 Q92.5891 1302.32 95.0428 1301.74 Q97.4965 1301.16 99.5335 1301.16 Q104.904 1301.16 108.098 1303.85 Q111.293 1306.53 111.293 1311.02 Q111.293 1313.15 110.483 1315.07 Q109.696 1316.97 107.589 1319.56 Q107.01 1320.23 103.909 1323.45 Q100.807 1326.65 95.1586 1332.41 Z" fill="#000000" fill-rule="nonzero" fill-opacity="1" /><path clip-path="url(#clip420)" d="M50.9921 1215.11 L80.6679 1215.11 L80.6679 1219.04 L50.9921 1219.04 L50.9921 1215.11 Z" fill="#000000" fill-rule="nonzero" fill-opacity="1" /><path clip-path="url(#clip420)" d="M91.5706 1228 L99.2095 1228 L99.2095 1201.64 L90.8993 1203.3 L90.8993 1199.04 L99.1632 1197.38 L103.839 1197.38 L103.839 1228 L111.478 1228 L111.478 1231.94 L91.5706 1231.94 L91.5706 1228 Z" fill="#000000" fill-rule="nonzero" fill-opacity="1" /><path clip-path="url(#clip420)" d="M99.5335 1096.05 Q95.9224 1096.05 94.0937 1099.61 Q92.2882 1103.15 92.2882 1110.28 Q92.2882 1117.39 94.0937 1120.95 Q95.9224 1124.5 99.5335 1124.5 Q103.168 1124.5 104.973 1120.95 Q106.802 1117.39 106.802 1110.28 Q106.802 1103.15 104.973 1099.61 Q103.168 1096.05 99.5335 1096.05 M99.5335 1092.34 Q105.344 1092.34 108.399 1096.95 Q111.478 1101.53 111.478 1110.28 Q111.478 1119.01 108.399 1123.62 Q105.344 1128.2 99.5335 1128.2 Q93.7234 1128.2 90.6447 1123.62 Q87.5892 1119.01 87.5892 1110.28 Q87.5892 1101.53 90.6447 1096.95 Q93.7234 1092.34 99.5335 1092.34 Z" fill="#000000" fill-rule="nonzero" fill-opacity="1" /><path clip-path="url(#clip420)" d="M91.5706 1019.18 L99.2095 1019.18 L99.2095 992.819 L90.8993 994.486 L90.8993 990.227 L99.1632 988.56 L103.839 988.56 L103.839 1019.18 L111.478 1019.18 L111.478 1023.12 L91.5706 1023.12 L91.5706 1019.18 Z" fill="#000000" fill-rule="nonzero" fill-opacity="1" /><path clip-path="url(#clip420)" d="M95.1586 914.777 L111.478 914.777 L111.478 918.712 L89.5336 918.712 L89.5336 914.777 Q92.1956 912.022 96.7789 907.392 Q101.385 902.74 102.566 901.397 Q104.811 898.874 105.691 897.138 Q106.594 895.379 106.594 893.689 Q106.594 890.934 104.649 889.198 Q102.728 887.462 99.6261 887.462 Q97.4271 887.462 94.9734 888.226 Q92.5428 888.99 89.7651 890.541 L89.7651 885.818 Q92.5891 884.684 95.0428 884.105 Q97.4965 883.527 99.5335 883.527 Q104.904 883.527 108.098 886.212 Q111.293 888.897 111.293 893.388 Q111.293 895.517 110.483 897.439 Q109.696 899.337 107.589 901.929 Q107.01 902.601 103.909 905.818 Q100.807 909.013 95.1586 914.777 Z" fill="#000000" fill-rule="nonzero" fill-opacity="1" /><polyline clip-path="url(#clip423)" style="stroke:#009af9; stroke-linecap:round; stroke-linejoin:round; stroke-width:4; stroke-opacity:1; fill:none" points="209.891,1078.49 220.346,1051.61 230.8,1059.55 241.255,1061.13 251.71,1045.35 262.164,1040.14 272.619,1033.51 283.073,1036.47 293.528,1014.66 303.982,1017.75 314.437,1015.55 324.891,1020.92 335.346,1034.37 345.8,1057.62 356.255,1027.99 366.709,1035.55 377.164,1082.01 387.618,1081.02 398.073,1138.92 408.527,1171.53 418.982,1136.82 429.437,1170.24 439.891,1128.34 450.346,1128.61 460.8,1135.42 471.255,1199.65 481.709,1185.18 492.164,1238.6 502.618,1319.55 513.073,1274.22 523.527,1283.58 533.982,1260.68 544.436,1208.77 554.891,1228.36 565.345,1221.13 575.8,1210.52 586.254,1237.4 596.709,1278.59 607.163,1268.23 617.618,1258.73 628.073,1231.56 638.527,1247.12 648.982,1276.5 659.436,1215.44 669.891,1198.98 680.345,1210.38 690.8,1191.09 701.254,1144.6 711.709,1101.9 722.163,1111.11 732.618,1130.4 743.072,1102.02 753.527,1080.98 763.981,1044.25 774.436,1051.79 784.89,1056.27 795.345,1081.85 805.799,1106.44 816.254,1060.99 826.709,993.978 837.163,1013.23 847.618,979.811 858.072,1021.2 868.527,1054.74 878.981,1088.02 889.436,1160.64 899.89,1172.99 910.345,1154.31 920.799,1191.31 931.254,1251.23 941.708,1225.03 952.163,1245.15 962.617,1212.38 973.072,1206.37 983.526,1215.94 993.981,1202.2 1004.44,1220.2 1014.89,1205.42 1025.34,1233.03 1035.8,1188.75 1046.25,1209.47 1056.71,1178.32 1067.16,1157.78 1077.62,1209.9 1088.07,1230.15 1098.53,1297.41 1108.98,1264.59 1119.44,1250.72 1129.89,1251.96 1140.34,1239.52 1150.8,1263.06 1161.25,1266.78 1171.71,1234.06 1182.16,1271.7 1192.62,1240.73 1203.07,1216.92 1213.53,1235.09 1223.98,1296.88 1234.44,1318.38 1244.89,1302.25 1255.34,1337.55 1265.8,1334.08 1276.25,1303.95 1286.71,1332.25 1297.16,1353.07 1307.62,1310.28 1318.07,1277.52 1328.53,1347.76 1338.98,1325.11 1349.43,1351.1 1359.89,1385.76 1370.34,1407.06 1380.8,1366.49 1391.25,1329.88 1401.71,1302.61 1412.16,1314.12 1422.62,1300.55 1433.07,1273.94 1443.53,1300.26 1453.98,1279.87 1464.43,1263.32 1474.89,1270.7 1485.34,1271.27 1495.8,1198.54 1506.25,1124.15 1516.71,1106.89 1527.16,1126.66 1537.62,1121.64 1548.07,1116.53 1558.53,1138.42 1568.98,1129.8 1579.43,1072.98 1589.89,1067.61 1600.34,1073.15 1610.8,1078.66 1621.25,1052.08 1631.71,1073.84 1642.16,1059.97 1652.62,1059.89 1663.07,1126.76 1673.53,1134.08 1683.98,1143.07 1694.43,1116.77 1704.89,1108.66 1715.34,1114.23 1725.8,1089.64 1736.25,1093.4 1746.71,1091.09 1757.16,1037.34 1767.62,1090 1778.07,1149.7 1788.53,1152.24 1798.98,1096.22 1809.43,1092.62 1819.89,1112.02 1830.34,1140.25 1840.8,1127.27 1851.25,1113.1 1861.71,1165.91 1872.16,1168.73 1882.62,1212.84 1893.07,1147.02 1903.52,1110.7 1913.98,1043.03 1924.43,1031.74 1934.89,1023.11 1945.34,1103.9 1955.8,1124.28 1966.25,1170.12 1976.71,1161.36 1987.16,1171.51 1997.62,1160.68 2008.07,1171.27 2018.52,1108.97 2028.98,1118.73 2039.43,1189.97 2049.89,1192.46 2060.34,1194.8 2070.8,1209.17 2081.25,1215.22 2091.71,1199.36 2102.16,1206.03 2112.62,1216.95 2123.07,1184.83 2133.52,1163.07 2143.98,1170.68 2154.43,1170.49 2164.89,1142.15 2175.34,1109.18 2185.8,1178.31 2196.25,1209.18 2206.71,1187.02 2217.16,1218.51 2227.62,1192.32 2238.07,1194.1 2248.52,1170.86 2258.98,1163.85 2269.43,1172.24 2279.89,1214.78 2290.34,1196.09 "/>
<path clip-path="url(#clip423)" d="M209.891 1125.16 L220.346 1107.33 L230.8 1086.52 L241.255 1066.28 L251.71 1050.25 L262.164 1041.32 L272.619 1040.83 L283.073 1046.61 L293.528 1054.97 L303.982 1063.91 L314.437 1072.25 L324.891 1079.52 L335.346 1090.07 L345.8 1104.26 L356.255 1118.21 L366.709 1132.49 L377.164 1148.27 L387.618 1165.4 L398.073 1183.39 L408.527 1201.93 L418.982 1220.82 L429.437 1239.79 L439.891 1257.97 L450.346 1275.82 L460.8 1294.15 L471.255 1311.16 L481.709 1325.38 L492.164 1335.47 L502.618 1339.48 L513.073 1338.42 L523.527 1334.6 L533.982 1328.87 L544.436 1322.4 L554.891 1315.96 L565.345 1309.81 L575.8 1303.9 L586.254 1297.6 L596.709 1291.16 L607.163 1285.8 L617.618 1281.8 L628.073 1276.6 L638.527 1267.94 L648.982 1257.54 L659.436 1248.85 L669.891 1243.65 L680.345 1240.83 L690.8 1237.92 L701.254 1233.3 L711.709 1226.02 L722.163 1215.74 L732.618 1203.77 L743.072 1190.85 L753.527 1175.26 L763.981 1156.76 L774.436 1138.64 L784.89 1123.92 L795.345 1113.86 L805.799 1109.25 L816.254 1109.74 L826.709 1114.2 L837.163 1122.48 L847.618 1135.45 L858.072 1152.94 L868.527 1174.46 L878.981 1198.31 L889.436 1221.21 L899.89 1241.92 L910.345 1260.51 L920.799 1276.12 L931.254 1287.64 L941.708 1294.85 L952.163 1298.97 L962.617 1300.85 L973.072 1300.67 L983.526 1300.18 L993.981 1300.82 L1004.44 1301.5 L1014.89 1302.48 L1025.34 1303.51 L1035.8 1303.69 L1046.25 1304.1 L1056.71 1305.78 L1067.16 1309.88 L1077.62 1315.07 L1088.07 1319.05 L1098.53 1321.12 L1108.98 1322.72 L1119.44 1323.61 L1129.89 1321.17 L1140.34 1316.4 L1150.8 1312.27 L1161.25 1309.38 L1171.71 1309.05 L1182.16 1312.09 L1192.62 1317.39 L1203.07 1323.97 L1213.53 1330.93 L1223.98 1338.7 L1234.44 1347.36 L1244.89 1356.27 L1255.34 1365.16 L1265.8 1374.11 L1276.25 1383.19 L1286.71 1391.05 L1297.16 1396.71 L1307.62 1400.42 L1318.07 1402.64 L1328.53 1403.71 L1338.98 1404.67 L1349.43 1406.01 L1359.89 1405.45 L1370.34 1402.16 L1380.8 1395.76 L1391.25 1387.1 L1401.71 1378.95 L1412.16 1370.53 L1422.62 1360.72 L1433.07 1350.28 L1443.53 1339.66 L1453.98 1329.57 L1464.43 1319.26 L1474.89 1306.67 L1485.34 1291.05 L1495.8 1273.66 L1506.25 1256.19 L1516.71 1240.37 L1527.16 1227.59 L1537.62 1217.69 L1548.07 1209.53 L1558.53 1202.4 L1568.98 1196 L1579.43 1190.11 L1589.89 1184.97 L1600.34 1180.33 L1610.8 1176.1 L1621.25 1171.91 L1631.71 1167.52 L1642.16 1164.72 L1652.62 1165.88 L1663.07 1169.73 L1673.53 1172.7 L1683.98 1174.38 L1694.43 1173.74 L1704.89 1170.98 L1715.34 1168.81 L1725.8 1167.77 L1736.25 1167.15 L1746.71 1166.09 L1757.16 1164.65 L1767.62 1164.01 L1778.07 1165.06 L1788.53 1168.51 L1798.98 1176.05 L1809.43 1187.36 L1819.89 1199.93 L1830.34 1210.98 L1840.8 1219.05 L1851.25 1222.48 L1861.71 1219.89 L1872.16 1213.42 L1882.62 1205.1 L1893.07 1194.31 L1903.52 1181.56 L1913.98 1169.36 L1924.43 1161.36 L1934.89 1161.21 L1945.34 1168.43 L1955.8 1181.23 L1966.25 1198.75 L1976.71 1217.4 L1987.16 1231.7 L1997.62 1241.13 L2008.07 1247.59 L2018.52 1251.63 L2028.98 1254.16 L2039.43 1255.27 L2049.89 1255.33 L2060.34 1254.86 L2070.8 1254.6 L2081.25 1254.31 L2091.71 1252.7 L2102.16 1250.29 L2112.62 1246.62 L2123.07 1242.14 L2133.52 1239.78 L2143.98 1239.67 L2154.43 1240.48 L2164.89 1241.79 L2175.34 1243.52 L2185.8 1245.71 L2196.25 1247.62 L2206.71 1248.36 L2217.16 1248.18 L2227.62 1246.59 L2238.07 1243.8 L2248.52 1241.12 L2258.98 1238.67 L2269.43 1236.27 L2279.89 1233.06 L2290.34 1227.04 L2290.34 1023.38 L2279.89 1037.21 L2269.43 1049.39 L2258.98 1060.69 L2248.52 1071.08 L2238.07 1080.22 L2227.62 1087.87 L2217.16 1092.82 L2206.71 1095.16 L2196.25 1095.7 L2185.8 1094.48 L2175.34 1092.62 L2164.89 1091.01 L2154.43 1089.75 L2143.98 1088.95 L2133.52 1089.06 L2123.07 1091.42 L2112.62 1095.91 L2102.16 1099.6 L2091.71 1102.03 L2081.25 1103.65 L2070.8 1103.95 L2060.34 1104.22 L2049.89 1104.7 L2039.43 1104.65 L2028.98 1103.54 L2018.52 1101.01 L2008.07 1096.97 L1997.62 1090.51 L1987.16 1081.09 L1976.71 1066.78 L1966.25 1048.14 L1955.8 1030.62 L1945.34 1017.82 L1934.89 1010.6 L1924.43 1010.74 L1913.98 1018.75 L1903.52 1030.95 L1893.07 1043.69 L1882.62 1054.48 L1872.16 1062.81 L1861.71 1069.28 L1851.25 1071.86 L1840.8 1068.44 L1830.34 1060.36 L1819.89 1049.32 L1809.43 1036.75 L1798.98 1025.43 L1788.53 1017.89 L1778.07 1014.44 L1767.62 1013.4 L1757.16 1014.03 L1746.71 1015.48 L1736.25 1016.54 L1725.8 1017.15 L1715.34 1018.2 L1704.89 1020.36 L1694.43 1023.12 L1683.98 1023.77 L1673.53 1022.08 L1663.07 1019.11 L1652.62 1015.26 L1642.16 1014.1 L1631.71 1016.91 L1621.25 1021.3 L1610.8 1025.49 L1600.34 1029.71 L1589.89 1034.36 L1579.43 1039.5 L1568.98 1045.39 L1558.53 1051.79 L1548.07 1058.92 L1537.62 1067.07 L1527.16 1076.97 L1516.71 1089.76 L1506.25 1105.58 L1495.8 1123.04 L1485.34 1140.43 L1474.89 1156.05 L1464.43 1168.65 L1453.98 1178.95 L1443.53 1189.04 L1433.07 1199.67 L1422.62 1210.11 L1412.16 1219.92 L1401.71 1228.34 L1391.25 1236.49 L1380.8 1245.15 L1370.34 1251.54 L1359.89 1254.83 L1349.43 1255.4 L1338.98 1254.06 L1328.53 1253.09 L1318.07 1252.02 L1307.62 1249.8 L1297.16 1246.1 L1286.71 1240.43 L1276.25 1232.58 L1265.8 1223.49 L1255.34 1214.54 L1244.89 1205.66 L1234.44 1196.74 L1223.98 1188.09 L1213.53 1180.32 L1203.07 1173.36 L1192.62 1166.77 L1182.16 1161.47 L1171.71 1158.44 L1161.25 1158.76 L1150.8 1161.66 L1140.34 1165.78 L1129.89 1170.56 L1119.44 1173 L1108.98 1172.11 L1098.53 1170.5 L1088.07 1168.43 L1077.62 1164.46 L1067.16 1159.27 L1056.71 1155.16 L1046.25 1153.48 L1035.8 1153.07 L1025.34 1152.9 L1014.89 1151.86 L1004.44 1150.88 L993.981 1150.21 L983.526 1149.56 L973.072 1150.05 L962.617 1150.23 L952.163 1148.36 L941.708 1144.23 L931.254 1137.03 L920.799 1125.5 L910.345 1109.89 L899.89 1091.31 L889.436 1070.59 L878.981 1047.69 L868.527 1023.85 L858.072 1002.32 L847.618 984.835 L837.163 971.867 L826.709 963.582 L816.254 959.129 L805.799 958.636 L795.345 963.243 L784.89 973.309 L774.436 988.025 L763.981 1006.14 L753.527 1024.64 L743.072 1040.24 L732.618 1053.15 L722.163 1065.12 L711.709 1075.4 L701.254 1082.68 L690.8 1087.31 L680.345 1090.22 L669.891 1093.03 L659.436 1098.24 L648.982 1106.92 L638.527 1117.32 L628.073 1125.98 L617.618 1131.19 L607.163 1135.19 L596.709 1140.54 L586.254 1146.99 L575.8 1153.29 L565.345 1159.19 L554.891 1165.35 L544.436 1171.78 L533.982 1178.25 L523.527 1183.98 L513.073 1187.8 L502.618 1188.87 L492.164 1184.86 L481.709 1174.76 L471.255 1160.54 L460.8 1143.53 L450.346 1125.19 L439.891 1107.33 L429.437 1089.13 L418.982 1070.13 L408.527 1051.2 L398.073 1032.62 L387.618 1014.58 L377.164 997.402 L366.709 981.581 L356.255 967.278 L345.8 953.328 L335.346 939.125 L324.891 928.519 L314.437 920.998 L303.982 911.984 L293.528 901.55 L283.073 890.308 L272.619 879.536 L262.164 872.19 L251.71 869.841 L241.255 870.953 L230.8 873.049 L220.346 873.591 L209.891 870.799  Z" fill="#e26f46" fill-rule="evenodd" fill-opacity="0.5"/>
<polyline clip-path="url(#clip423)" style="stroke:#e26f46; stroke-linecap:round; stroke-linejoin:round; stroke-width:4; stroke-opacity:1; fill:none" points="209.891,997.978 220.346,990.462 230.8,979.786 241.255,968.618 251.71,960.047 262.164,956.754 272.619,960.181 283.073,968.461 293.528,978.262 303.982,987.949 314.437,996.624 324.891,1004.02 335.346,1014.6 345.8,1028.8 356.255,1042.74 366.709,1057.04 377.164,1072.84 387.618,1089.99 398.073,1108 408.527,1126.57 418.982,1145.48 429.437,1164.46 439.891,1182.65 450.346,1200.51 460.8,1218.84 471.255,1235.85 481.709,1250.07 492.164,1260.17 502.618,1264.17 513.073,1263.11 523.527,1259.29 533.982,1253.56 544.436,1247.09 554.891,1240.66 565.345,1234.5 575.8,1228.6 586.254,1222.3 596.709,1215.85 607.163,1210.49 617.618,1206.49 628.073,1201.29 638.527,1192.63 648.982,1182.23 659.436,1173.55 669.891,1168.34 680.345,1165.52 690.8,1162.61 701.254,1157.99 711.709,1150.71 722.163,1140.43 732.618,1128.46 743.072,1115.55 753.527,1099.95 763.981,1081.45 774.436,1063.33 784.89,1048.62 795.345,1038.55 805.799,1033.94 816.254,1034.44 826.709,1038.89 837.163,1047.17 847.618,1060.14 858.072,1077.63 868.527,1099.16 878.981,1123 889.436,1145.9 899.89,1166.61 910.345,1185.2 920.799,1200.81 931.254,1212.33 941.708,1219.54 952.163,1223.67 962.617,1225.54 973.072,1225.36 983.526,1224.87 993.981,1225.52 1004.44,1226.19 1014.89,1227.17 1025.34,1228.2 1035.8,1228.38 1046.25,1228.79 1056.71,1230.47 1067.16,1234.57 1077.62,1239.76 1088.07,1243.74 1098.53,1245.81 1108.98,1247.42 1119.44,1248.3 1129.89,1245.86 1140.34,1241.09 1150.8,1236.97 1161.25,1234.07 1171.71,1233.75 1182.16,1236.78 1192.62,1242.08 1203.07,1248.67 1213.53,1255.63 1223.98,1263.4 1234.44,1272.05 1244.89,1280.97 1255.34,1289.85 1265.8,1298.8 1276.25,1307.88 1286.71,1315.74 1297.16,1321.4 1307.62,1325.11 1318.07,1327.33 1328.53,1328.4 1338.98,1329.36 1349.43,1330.7 1359.89,1330.14 1370.34,1326.85 1380.8,1320.45 1391.25,1311.8 1401.71,1303.64 1412.16,1295.22 1422.62,1285.41 1433.07,1274.97 1443.53,1264.35 1453.98,1254.26 1464.43,1243.95 1474.89,1231.36 1485.34,1215.74 1495.8,1198.35 1506.25,1180.89 1516.71,1165.06 1527.16,1152.28 1537.62,1142.38 1548.07,1134.23 1558.53,1127.1 1568.98,1120.69 1579.43,1114.81 1589.89,1109.67 1600.34,1105.02 1610.8,1100.8 1621.25,1096.6 1631.71,1092.22 1642.16,1089.41 1652.62,1090.57 1663.07,1094.42 1673.53,1097.39 1683.98,1099.07 1694.43,1098.43 1704.89,1095.67 1715.34,1093.51 1725.8,1092.46 1736.25,1091.85 1746.71,1090.78 1757.16,1089.34 1767.62,1088.7 1778.07,1089.75 1788.53,1093.2 1798.98,1100.74 1809.43,1112.06 1819.89,1124.63 1830.34,1135.67 1840.8,1143.74 1851.25,1147.17 1861.71,1144.58 1872.16,1138.11 1882.62,1129.79 1893.07,1119 1903.52,1106.26 1913.98,1094.06 1924.43,1086.05 1934.89,1085.9 1945.34,1093.13 1955.8,1105.92 1966.25,1123.45 1976.71,1142.09 1987.16,1156.39 1997.62,1165.82 2008.07,1172.28 2018.52,1176.32 2028.98,1178.85 2039.43,1179.96 2049.89,1180.02 2060.34,1179.54 2070.8,1179.28 2081.25,1178.98 2091.71,1177.36 2102.16,1174.95 2112.62,1171.26 2123.07,1166.78 2133.52,1164.42 2143.98,1164.31 2154.43,1165.12 2164.89,1166.4 2175.34,1168.07 2185.8,1170.1 2196.25,1171.66 2206.71,1171.76 2217.16,1170.5 2227.62,1167.23 2238.07,1162.01 2248.52,1156.1 2258.98,1149.68 2269.43,1142.83 2279.89,1135.14 2290.34,1125.21 "/>
<path clip-path="url(#clip420)" d="M1775.69 1028.23 L2279.25 1028.23 L2279.25 872.706 L1775.69 872.706  Z" fill="#ffffff" fill-rule="evenodd" fill-opacity="1"/>
<polyline clip-path="url(#clip420)" style="stroke:#000000; stroke-linecap:round; stroke-linejoin:round; stroke-width:4; stroke-opacity:1; fill:none" points="1775.69,1028.23 2279.25,1028.23 2279.25,872.706 1775.69,872.706 1775.69,1028.23 "/>
<polyline clip-path="url(#clip420)" style="stroke:#009af9; stroke-linecap:round; stroke-linejoin:round; stroke-width:4; stroke-opacity:1; fill:none" points="1800.19,924.546 1947.21,924.546 "/>
<path clip-path="url(#clip420)" d="M1996.37 915.9 L1986.99 928.516 L1996.85 941.826 L1991.83 941.826 L1984.28 931.641 L1976.74 941.826 L1971.71 941.826 L1981.78 928.261 L1972.57 915.9 L1977.59 915.9 L1984.47 925.136 L1991.34 915.9 L1996.37 915.9 Z" fill="#000000" fill-rule="nonzero" fill-opacity="1" /><path clip-path="url(#clip420)" d="M2007.5 937.891 L2023.82 937.891 L2023.82 941.826 L2001.87 941.826 L2001.87 937.891 Q2004.54 935.136 2009.12 930.507 Q2013.73 925.854 2014.91 924.511 Q2017.15 921.988 2018.03 920.252 Q2018.93 918.493 2018.93 916.803 Q2018.93 914.048 2016.99 912.312 Q2015.07 910.576 2011.97 910.576 Q2009.77 910.576 2007.31 911.34 Q2004.88 912.104 2002.11 913.655 L2002.11 908.933 Q2004.93 907.798 2007.38 907.22 Q2009.84 906.641 2011.87 906.641 Q2017.24 906.641 2020.44 909.326 Q2023.63 912.011 2023.63 916.502 Q2023.63 918.632 2022.82 920.553 Q2022.04 922.451 2019.93 925.044 Q2019.35 925.715 2016.25 928.933 Q2013.15 932.127 2007.5 937.891 Z" fill="#000000" fill-rule="nonzero" fill-opacity="1" /><polyline clip-path="url(#clip420)" style="stroke:#e26f46; stroke-linecap:round; stroke-linejoin:round; stroke-width:4; stroke-opacity:1; fill:none" points="1800.19,976.386 1947.21,976.386 "/>
<path clip-path="url(#clip420)" d="M1996.37 967.74 L1986.99 980.356 L1996.85 993.666 L1991.83 993.666 L1984.28 983.481 L1976.74 993.666 L1971.71 993.666 L1981.78 980.101 L1972.57 967.74 L1977.59 967.74 L1984.47 976.976 L1991.34 967.74 L1996.37 967.74 Z" fill="#000000" fill-rule="nonzero" fill-opacity="1" /><path clip-path="url(#clip420)" d="M2007.5 989.731 L2023.82 989.731 L2023.82 993.666 L2001.87 993.666 L2001.87 989.731 Q2004.54 986.976 2009.12 982.347 Q2013.73 977.694 2014.91 976.351 Q2017.15 973.828 2018.03 972.092 Q2018.93 970.333 2018.93 968.643 Q2018.93 965.888 2016.99 964.152 Q2015.07 962.416 2011.97 962.416 Q2009.77 962.416 2007.31 963.18 Q2004.88 963.944 2002.11 965.495 L2002.11 960.773 Q2004.93 959.638 2007.38 959.06 Q2009.84 958.481 2011.87 958.481 Q2017.24 958.481 2020.44 961.166 Q2023.63 963.851 2023.63 968.342 Q2023.63 970.472 2022.82 972.393 Q2022.04 974.291 2019.93 976.884 Q2019.35 977.555 2016.25 980.773 Q2013.15 983.967 2007.5 989.731 Z" fill="#000000" fill-rule="nonzero" fill-opacity="1" /><path clip-path="url(#clip420)" d="M2049.56 968.504 L2049.56 972.532 Q2047.75 971.606 2045.81 971.143 Q2043.87 970.68 2041.78 970.68 Q2038.61 970.68 2037.01 971.652 Q2035.44 972.624 2035.44 974.569 Q2035.44 976.05 2036.57 976.907 Q2037.71 977.74 2041.13 978.504 L2042.59 978.828 Q2047.13 979.8 2049.03 981.583 Q2050.95 983.342 2050.95 986.513 Q2050.95 990.124 2048.08 992.231 Q2045.23 994.337 2040.23 994.337 Q2038.15 994.337 2035.88 993.921 Q2033.63 993.527 2031.13 992.717 L2031.13 988.319 Q2033.49 989.546 2035.79 990.171 Q2038.08 990.772 2040.32 990.772 Q2043.33 990.772 2044.95 989.754 Q2046.57 988.712 2046.57 986.837 Q2046.57 985.101 2045.39 984.175 Q2044.24 983.249 2040.28 982.393 L2038.8 982.046 Q2034.84 981.212 2033.08 979.499 Q2031.32 977.763 2031.32 974.754 Q2031.32 971.097 2033.91 969.106 Q2036.5 967.115 2041.27 967.115 Q2043.63 967.115 2045.72 967.462 Q2047.8 967.81 2049.56 968.504 Z" fill="#000000" fill-rule="nonzero" fill-opacity="1" /><path clip-path="url(#clip420)" d="M2077.92 972.717 Q2079.51 969.847 2081.74 968.481 Q2083.96 967.115 2086.97 967.115 Q2091.02 967.115 2093.22 969.962 Q2095.42 972.786 2095.42 978.018 L2095.42 993.666 L2091.13 993.666 L2091.13 978.157 Q2091.13 974.43 2089.81 972.624 Q2088.49 970.819 2085.79 970.819 Q2082.48 970.819 2080.55 973.018 Q2078.63 975.217 2078.63 979.013 L2078.63 993.666 L2074.35 993.666 L2074.35 978.157 Q2074.35 974.407 2073.03 972.624 Q2071.71 970.819 2068.96 970.819 Q2065.69 970.819 2063.77 973.041 Q2061.85 975.24 2061.85 979.013 L2061.85 993.666 L2057.57 993.666 L2057.57 967.74 L2061.85 967.74 L2061.85 971.768 Q2063.31 969.384 2065.35 968.249 Q2067.38 967.115 2070.18 967.115 Q2073.01 967.115 2074.98 968.55 Q2076.97 969.986 2077.92 972.717 Z" fill="#000000" fill-rule="nonzero" fill-opacity="1" /><path clip-path="url(#clip420)" d="M2113.96 970.726 Q2110.53 970.726 2108.54 973.411 Q2106.55 976.073 2106.55 980.726 Q2106.55 985.379 2108.52 988.064 Q2110.51 990.726 2113.96 990.726 Q2117.36 990.726 2119.35 988.041 Q2121.34 985.356 2121.34 980.726 Q2121.34 976.12 2119.35 973.435 Q2117.36 970.726 2113.96 970.726 M2113.96 967.115 Q2119.51 967.115 2122.68 970.726 Q2125.86 974.337 2125.86 980.726 Q2125.86 987.092 2122.68 990.726 Q2119.51 994.337 2113.96 994.337 Q2108.38 994.337 2105.21 990.726 Q2102.06 987.092 2102.06 980.726 Q2102.06 974.337 2105.21 970.726 Q2108.38 967.115 2113.96 967.115 Z" fill="#000000" fill-rule="nonzero" fill-opacity="1" /><path clip-path="url(#clip420)" d="M2142.96 970.726 Q2139.54 970.726 2137.55 973.411 Q2135.55 976.073 2135.55 980.726 Q2135.55 985.379 2137.52 988.064 Q2139.51 990.726 2142.96 990.726 Q2146.36 990.726 2148.36 988.041 Q2150.35 985.356 2150.35 980.726 Q2150.35 976.12 2148.36 973.435 Q2146.36 970.726 2142.96 970.726 M2142.96 967.115 Q2148.52 967.115 2151.69 970.726 Q2154.86 974.337 2154.86 980.726 Q2154.86 987.092 2151.69 990.726 Q2148.52 994.337 2142.96 994.337 Q2137.38 994.337 2134.21 990.726 Q2131.06 987.092 2131.06 980.726 Q2131.06 974.337 2134.21 970.726 Q2137.38 967.115 2142.96 967.115 Z" fill="#000000" fill-rule="nonzero" fill-opacity="1" /><path clip-path="url(#clip420)" d="M2166.13 960.379 L2166.13 967.74 L2174.91 967.74 L2174.91 971.05 L2166.13 971.05 L2166.13 985.124 Q2166.13 988.296 2166.99 989.198 Q2167.87 990.101 2170.53 990.101 L2174.91 990.101 L2174.91 993.666 L2170.53 993.666 Q2165.6 993.666 2163.73 991.837 Q2161.85 989.985 2161.85 985.124 L2161.85 971.05 L2158.73 971.05 L2158.73 967.74 L2161.85 967.74 L2161.85 960.379 L2166.13 960.379 Z" fill="#000000" fill-rule="nonzero" fill-opacity="1" /><path clip-path="url(#clip420)" d="M2202.06 978.018 L2202.06 993.666 L2197.8 993.666 L2197.8 978.157 Q2197.8 974.476 2196.36 972.648 Q2194.93 970.819 2192.06 970.819 Q2188.61 970.819 2186.62 973.018 Q2184.63 975.217 2184.63 979.013 L2184.63 993.666 L2180.35 993.666 L2180.35 957.648 L2184.63 957.648 L2184.63 971.768 Q2186.16 969.43 2188.22 968.273 Q2190.3 967.115 2193.01 967.115 Q2197.48 967.115 2199.77 969.893 Q2202.06 972.648 2202.06 978.018 Z" fill="#000000" fill-rule="nonzero" fill-opacity="1" /><path clip-path="url(#clip420)" d="M2232.73 979.638 L2232.73 981.722 L2213.15 981.722 Q2213.42 986.12 2215.79 988.434 Q2218.17 990.726 2222.41 990.726 Q2224.86 990.726 2227.15 990.124 Q2229.47 989.522 2231.73 988.319 L2231.73 992.347 Q2229.44 993.319 2227.04 993.828 Q2224.63 994.337 2222.15 994.337 Q2215.95 994.337 2212.31 990.726 Q2208.7 987.115 2208.7 980.958 Q2208.7 974.592 2212.13 970.865 Q2215.58 967.115 2221.41 967.115 Q2226.64 967.115 2229.67 970.495 Q2232.73 973.851 2232.73 979.638 M2228.47 978.388 Q2228.42 974.893 2226.5 972.81 Q2224.6 970.726 2221.46 970.726 Q2217.89 970.726 2215.74 972.74 Q2213.61 974.754 2213.29 978.411 L2228.47 978.388 Z" fill="#000000" fill-rule="nonzero" fill-opacity="1" /><path clip-path="url(#clip420)" d="M2254.74 971.722 Q2254.03 971.305 2253.17 971.12 Q2252.34 970.911 2251.32 970.911 Q2247.71 970.911 2245.76 973.273 Q2243.84 975.61 2243.84 980.009 L2243.84 993.666 L2239.56 993.666 L2239.56 967.74 L2243.84 967.74 L2243.84 971.768 Q2245.18 969.407 2247.34 968.273 Q2249.49 967.115 2252.57 967.115 Q2253.01 967.115 2253.54 967.185 Q2254.07 967.231 2254.72 967.347 L2254.74 971.722 Z" fill="#000000" fill-rule="nonzero" fill-opacity="1" /></svg>
