<?xml version="1.0" encoding="utf-8"?>
<svg xmlns="http://www.w3.org/2000/svg" xmlns:xlink="http://www.w3.org/1999/xlink" width="600" height="400" viewBox="0 0 2400 1600">
<defs>
  <clipPath id="clip850">
    <rect x="0" y="0" width="2400" height="1600"/>
  </clipPath>
</defs>
<path clip-path="url(#clip850)" d="M0 1600 L2400 1600 L2400 0 L0 0  Z" fill="#ffffff" fill-rule="evenodd" fill-opacity="1"/>
<defs>
  <clipPath id="clip851">
    <rect x="480" y="0" width="1681" height="1600"/>
  </clipPath>
</defs>
<path clip-path="url(#clip850)" d="M147.478 1423.18 L2352.76 1423.18 L2352.76 47.2441 L147.478 47.2441  Z" fill="#ffffff" fill-rule="evenodd" fill-opacity="1"/>
<defs>
  <clipPath id="clip852">
    <rect x="147" y="47" width="2206" height="1377"/>
  </clipPath>
</defs>
<polyline clip-path="url(#clip852)" style="stroke:#000000; stroke-linecap:round; stroke-linejoin:round; stroke-width:2; stroke-opacity:0.1; fill:none" points="209.891,1423.18 209.891,47.2441 "/>
<polyline clip-path="url(#clip852)" style="stroke:#000000; stroke-linecap:round; stroke-linejoin:round; stroke-width:2; stroke-opacity:0.1; fill:none" points="625.982,1423.18 625.982,47.2441 "/>
<polyline clip-path="url(#clip852)" style="stroke:#000000; stroke-linecap:round; stroke-linejoin:round; stroke-width:2; stroke-opacity:0.1; fill:none" points="1042.07,1423.18 1042.07,47.2441 "/>
<polyline clip-path="url(#clip852)" style="stroke:#000000; stroke-linecap:round; stroke-linejoin:round; stroke-width:2; stroke-opacity:0.1; fill:none" points="1458.16,1423.18 1458.16,47.2441 "/>
<polyline clip-path="url(#clip852)" style="stroke:#000000; stroke-linecap:round; stroke-linejoin:round; stroke-width:2; stroke-opacity:0.1; fill:none" points="1874.25,1423.18 1874.25,47.2441 "/>
<polyline clip-path="url(#clip852)" style="stroke:#000000; stroke-linecap:round; stroke-linejoin:round; stroke-width:2; stroke-opacity:0.1; fill:none" points="2290.34,1423.18 2290.34,47.2441 "/>
<polyline clip-path="url(#clip852)" style="stroke:#000000; stroke-linecap:round; stroke-linejoin:round; stroke-width:2; stroke-opacity:0.1; fill:none" points="147.478,1318.15 2352.76,1318.15 "/>
<polyline clip-path="url(#clip852)" style="stroke:#000000; stroke-linecap:round; stroke-linejoin:round; stroke-width:2; stroke-opacity:0.1; fill:none" points="147.478,945.812 2352.76,945.812 "/>
<polyline clip-path="url(#clip852)" style="stroke:#000000; stroke-linecap:round; stroke-linejoin:round; stroke-width:2; stroke-opacity:0.1; fill:none" points="147.478,573.472 2352.76,573.472 "/>
<polyline clip-path="url(#clip852)" style="stroke:#000000; stroke-linecap:round; stroke-linejoin:round; stroke-width:2; stroke-opacity:0.1; fill:none" points="147.478,201.133 2352.76,201.133 "/>
<polyline clip-path="url(#clip850)" style="stroke:#000000; stroke-linecap:round; stroke-linejoin:round; stroke-width:4; stroke-opacity:1; fill:none" points="147.478,1423.18 2352.76,1423.18 "/>
<polyline clip-path="url(#clip850)" style="stroke:#000000; stroke-linecap:round; stroke-linejoin:round; stroke-width:4; stroke-opacity:1; fill:none" points="209.891,1423.18 209.891,1404.28 "/>
<polyline clip-path="url(#clip850)" style="stroke:#000000; stroke-linecap:round; stroke-linejoin:round; stroke-width:4; stroke-opacity:1; fill:none" points="625.982,1423.18 625.982,1404.28 "/>
<polyline clip-path="url(#clip850)" style="stroke:#000000; stroke-linecap:round; stroke-linejoin:round; stroke-width:4; stroke-opacity:1; fill:none" points="1042.07,1423.18 1042.07,1404.28 "/>
<polyline clip-path="url(#clip850)" style="stroke:#000000; stroke-linecap:round; stroke-linejoin:round; stroke-width:4; stroke-opacity:1; fill:none" points="1458.16,1423.18 1458.16,1404.28 "/>
<polyline clip-path="url(#clip850)" style="stroke:#000000; stroke-linecap:round; stroke-linejoin:round; stroke-width:4; stroke-opacity:1; fill:none" points="1874.25,1423.18 1874.25,1404.28 "/>
<polyline clip-path="url(#clip850)" style="stroke:#000000; stroke-linecap:round; stroke-linejoin:round; stroke-width:4; stroke-opacity:1; fill:none" points="2290.34,1423.18 2290.34,1404.28 "/>
<path clip-path="url(#clip850)" d="M209.891 1454.1 Q206.28 1454.1 204.452 1457.66 Q202.646 1461.2 202.646 1468.33 Q202.646 1475.44 204.452 1479.01 Q206.28 1482.55 209.891 1482.55 Q213.526 1482.55 215.331 1479.01 Q217.16 1475.44 217.16 1468.33 Q217.16 1461.2 215.331 1457.66 Q213.526 1454.1 209.891 1454.1 M209.891 1450.39 Q215.702 1450.39 218.757 1455 Q221.836 1459.58 221.836 1468.33 Q221.836 1477.06 218.757 1481.67 Q215.702 1486.25 209.891 1486.25 Q204.081 1486.25 201.003 1481.67 Q197.947 1477.06 197.947 1468.33 Q197.947 1459.58 201.003 1455 Q204.081 1450.39 209.891 1450.39 Z" fill="#000000" fill-rule="nonzero" fill-opacity="1" /><path clip-path="url(#clip850)" d="M616.364 1481.64 L624.002 1481.64 L624.002 1455.28 L615.692 1456.95 L615.692 1452.69 L623.956 1451.02 L628.632 1451.02 L628.632 1481.64 L636.271 1481.64 L636.271 1485.58 L616.364 1485.58 L616.364 1481.64 Z" fill="#000000" fill-rule="nonzero" fill-opacity="1" /><path clip-path="url(#clip850)" d="M1036.72 1481.64 L1053.04 1481.64 L1053.04 1485.58 L1031.1 1485.58 L1031.1 1481.64 Q1033.76 1478.89 1038.34 1474.26 Q1042.95 1469.61 1044.13 1468.27 Q1046.38 1465.74 1047.26 1464.01 Q1048.16 1462.25 1048.16 1460.56 Q1048.16 1457.8 1046.22 1456.07 Q1044.29 1454.33 1041.19 1454.33 Q1038.99 1454.33 1036.54 1455.09 Q1034.11 1455.86 1031.33 1457.41 L1031.33 1452.69 Q1034.16 1451.55 1036.61 1450.97 Q1039.06 1450.39 1041.1 1450.39 Q1046.47 1450.39 1049.66 1453.08 Q1052.86 1455.77 1052.86 1460.26 Q1052.86 1462.39 1052.05 1464.31 Q1051.26 1466.2 1049.16 1468.8 Q1048.58 1469.47 1045.47 1472.69 Q1042.37 1475.88 1036.72 1481.64 Z" fill="#000000" fill-rule="nonzero" fill-opacity="1" /><path clip-path="url(#clip850)" d="M1462.41 1466.95 Q1465.77 1467.66 1467.64 1469.93 Q1469.54 1472.2 1469.54 1475.53 Q1469.54 1480.65 1466.02 1483.45 Q1462.5 1486.25 1456.02 1486.25 Q1453.84 1486.25 1451.53 1485.81 Q1449.24 1485.39 1446.78 1484.54 L1446.78 1480.02 Q1448.73 1481.16 1451.04 1481.74 Q1453.36 1482.32 1455.88 1482.32 Q1460.28 1482.32 1462.57 1480.58 Q1464.89 1478.84 1464.89 1475.53 Q1464.89 1472.48 1462.73 1470.77 Q1460.6 1469.03 1456.78 1469.03 L1452.76 1469.03 L1452.76 1465.19 L1456.97 1465.19 Q1460.42 1465.19 1462.25 1463.82 Q1464.08 1462.43 1464.08 1459.84 Q1464.08 1457.18 1462.18 1455.77 Q1460.3 1454.33 1456.78 1454.33 Q1454.86 1454.33 1452.66 1454.75 Q1450.47 1455.16 1447.83 1456.04 L1447.83 1451.88 Q1450.49 1451.14 1452.8 1450.77 Q1455.14 1450.39 1457.2 1450.39 Q1462.53 1450.39 1465.63 1452.83 Q1468.73 1455.23 1468.73 1459.35 Q1468.73 1462.22 1467.09 1464.21 Q1465.44 1466.18 1462.41 1466.95 Z" fill="#000000" fill-rule="nonzero" fill-opacity="1" /><path clip-path="url(#clip850)" d="M1877.26 1455.09 L1865.46 1473.54 L1877.26 1473.54 L1877.26 1455.09 M1876.03 1451.02 L1881.91 1451.02 L1881.91 1473.54 L1886.84 1473.54 L1886.84 1477.43 L1881.91 1477.43 L1881.91 1485.58 L1877.26 1485.58 L1877.26 1477.43 L1861.66 1477.43 L1861.66 1472.92 L1876.03 1451.02 Z" fill="#000000" fill-rule="nonzero" fill-opacity="1" /><path clip-path="url(#clip850)" d="M2280.62 1451.02 L2298.98 1451.02 L2298.98 1454.96 L2284.9 1454.96 L2284.9 1463.43 Q2285.92 1463.08 2286.94 1462.92 Q2287.96 1462.73 2288.98 1462.73 Q2294.76 1462.73 2298.14 1465.9 Q2301.52 1469.08 2301.52 1474.49 Q2301.52 1480.07 2298.05 1483.17 Q2294.58 1486.25 2288.26 1486.25 Q2286.08 1486.25 2283.81 1485.88 Q2281.57 1485.51 2279.16 1484.77 L2279.16 1480.07 Q2281.25 1481.2 2283.47 1481.76 Q2285.69 1482.32 2288.17 1482.32 Q2292.17 1482.32 2294.51 1480.21 Q2296.85 1478.1 2296.85 1474.49 Q2296.85 1470.88 2294.51 1468.77 Q2292.17 1466.67 2288.17 1466.67 Q2286.29 1466.67 2284.42 1467.08 Q2282.56 1467.5 2280.62 1468.38 L2280.62 1451.02 Z" fill="#000000" fill-rule="nonzero" fill-opacity="1" /><path clip-path="url(#clip850)" d="M1249.18 1522.27 L1249.18 1532.4 L1261.24 1532.4 L1261.24 1536.95 L1249.18 1536.95 L1249.18 1556.3 Q1249.18 1560.66 1250.36 1561.9 Q1251.57 1563.14 1255.23 1563.14 L1261.24 1563.14 L1261.24 1568.04 L1255.23 1568.04 Q1248.45 1568.04 1245.87 1565.53 Q1243.29 1562.98 1243.29 1556.3 L1243.29 1536.95 L1238.99 1536.95 L1238.99 1532.4 L1243.29 1532.4 L1243.29 1522.27 L1249.18 1522.27 Z" fill="#000000" fill-rule="nonzero" fill-opacity="1" /><polyline clip-path="url(#clip850)" style="stroke:#000000; stroke-linecap:round; stroke-linejoin:round; stroke-width:4; stroke-opacity:1; fill:none" points="147.478,1423.18 147.478,47.2441 "/>
<polyline clip-path="url(#clip850)" style="stroke:#000000; stroke-linecap:round; stroke-linejoin:round; stroke-width:4; stroke-opacity:1; fill:none" points="147.478,1318.15 166.376,1318.15 "/>
<polyline clip-path="url(#clip850)" style="stroke:#000000; stroke-linecap:round; stroke-linejoin:round; stroke-width:4; stroke-opacity:1; fill:none" points="147.478,945.812 166.376,945.812 "/>
<polyline clip-path="url(#clip850)" style="stroke:#000000; stroke-linecap:round; stroke-linejoin:round; stroke-width:4; stroke-opacity:1; fill:none" points="147.478,573.472 166.376,573.472 "/>
<polyline clip-path="url(#clip850)" style="stroke:#000000; stroke-linecap:round; stroke-linejoin:round; stroke-width:4; stroke-opacity:1; fill:none" points="147.478,201.133 166.376,201.133 "/>
<path clip-path="url(#clip850)" d="M50.9921 1318.6 L80.6679 1318.6 L80.6679 1322.54 L50.9921 1322.54 L50.9921 1318.6 Z" fill="#000000" fill-rule="nonzero" fill-opacity="1" /><path clip-path="url(#clip850)" d="M91.5706 1331.5 L99.2095 1331.5 L99.2095 1305.13 L90.8993 1306.8 L90.8993 1302.54 L99.1632 1300.87 L103.839 1300.87 L103.839 1331.5 L111.478 1331.5 L111.478 1335.43 L91.5706 1335.43 L91.5706 1331.5 Z" fill="#000000" fill-rule="nonzero" fill-opacity="1" /><path clip-path="url(#clip850)" d="M99.5335 931.611 Q95.9224 931.611 94.0937 935.176 Q92.2882 938.717 92.2882 945.847 Q92.2882 952.953 94.0937 956.518 Q95.9224 960.06 99.5335 960.06 Q103.168 960.06 104.973 956.518 Q106.802 952.953 106.802 945.847 Q106.802 938.717 104.973 935.176 Q103.168 931.611 99.5335 931.611 M99.5335 927.907 Q105.344 927.907 108.399 932.513 Q111.478 937.097 111.478 945.847 Q111.478 954.574 108.399 959.18 Q105.344 963.763 99.5335 963.763 Q93.7234 963.763 90.6447 959.18 Q87.5892 954.574 87.5892 945.847 Q87.5892 937.097 90.6447 932.513 Q93.7234 927.907 99.5335 927.907 Z" fill="#000000" fill-rule="nonzero" fill-opacity="1" /><path clip-path="url(#clip850)" d="M91.5706 586.817 L99.2095 586.817 L99.2095 560.452 L90.8993 562.118 L90.8993 557.859 L99.1632 556.192 L103.839 556.192 L103.839 586.817 L111.478 586.817 L111.478 590.752 L91.5706 590.752 L91.5706 586.817 Z" fill="#000000" fill-rule="nonzero" fill-opacity="1" /><path clip-path="url(#clip850)" d="M95.1586 214.478 L111.478 214.478 L111.478 218.413 L89.5336 218.413 L89.5336 214.478 Q92.1956 211.723 96.7789 207.093 Q101.385 202.441 102.566 201.098 Q104.811 198.575 105.691 196.839 Q106.594 195.08 106.594 193.39 Q106.594 190.635 104.649 188.899 Q102.728 187.163 99.6261 187.163 Q97.4271 187.163 94.9734 187.927 Q92.5428 188.691 89.7651 190.242 L89.7651 185.519 Q92.5891 184.385 95.0428 183.806 Q97.4965 183.228 99.5335 183.228 Q104.904 183.228 108.098 185.913 Q111.293 188.598 111.293 193.089 Q111.293 195.218 110.483 197.14 Q109.696 199.038 107.589 201.63 Q107.01 202.302 103.909 205.519 Q100.807 208.714 95.1586 214.478 Z" fill="#000000" fill-rule="nonzero" fill-opacity="1" /><polyline clip-path="url(#clip852)" style="stroke:#009af9; stroke-linecap:round; stroke-linejoin:round; stroke-width:4; stroke-opacity:1; fill:none" points="209.891,980.25 220.346,970.992 230.8,953.814 241.255,942.096 251.71,926.965 262.164,911.713 272.619,887.744 283.073,863.123 293.528,836.335 303.982,809.39 314.437,777.938 324.891,746.206 335.346,714.699 345.8,683.857 356.255,653.527 366.709,621.938 377.164,590.534 387.618,563.625 398.073,543.473 408.527,537.178 418.982,527.158 429.437,514.861 439.891,506.301 450.346,492.595 460.8,477.026 471.255,469.709 481.709,466.183 492.164,466.676 502.618,485.661 513.073,509.391 523.527,529.605 533.982,552.811 544.436,565.463 554.891,569.629 565.345,578.691 575.8,590.378 586.254,604.545 596.709,627.488 607.163,654.822 617.618,679.018 628.073,699.819 638.527,718.732 648.982,743.276 659.436,766.756 669.891,784.773 680.345,804.242 690.8,820.634 701.254,826.569 711.709,824.697 722.163,814.089 732.618,805.992 743.072,797.262 753.527,783.756 763.981,764.004 774.436,740.218 784.89,712.287 795.345,689.922 805.799,673.163 816.254,652.608 826.709,615.099 837.163,569.143 847.618,519.834 858.072,469.282 868.527,427.003 878.981,392.45 889.436,373.038 899.89,356.727 910.345,343.235 920.799,326.205 931.254,325.29 941.708,321.48 952.163,322.014 962.617,325.541 973.072,322.643 983.526,317.026 993.981,309.135 1004.44,299.667 1014.89,292.292 1025.34,287.4 1035.8,279.5 1046.25,269.237 1056.71,253.175 1067.16,235.373 1077.62,214.787 1088.07,203.03 1098.53,200.849 1108.98,208.288 1119.44,204.934 1129.89,208.49 1140.34,200.212 1150.8,198.118 1161.25,198.537 1171.71,194.528 1182.16,191.607 1192.62,190.637 1203.07,182.054 1213.53,171.907 1223.98,173.638 1234.44,183.121 1244.89,195.817 1255.34,214.4 1265.8,232.647 1276.25,251.928 1286.71,274.219 1297.16,298.367 1307.62,322.435 1318.07,338.507 1328.53,360.588 1338.98,388.221 1349.43,415.277 1359.89,453.15 1370.34,498.612 1380.8,546.777 1391.25,588.722 1401.71,623.946 1412.16,661.432 1422.62,696.252 1433.07,730.668 1443.53,765.472 1453.98,801.417 1464.43,834.417 1474.89,868.943 1485.34,906.579 1495.8,935.776 1506.25,949.434 1516.71,951.082 1527.16,954.38 1537.62,960.019 1548.07,964.476 1558.53,971.099 1568.98,976.043 1579.43,975.316 1589.89,967.877 1600.34,958.35 1610.8,952.008 1621.25,939.344 1631.71,928.428 1642.16,916.098 1652.62,905.482 1663.07,899.18 1673.53,903.537 1683.98,905.462 1694.43,908.658 1704.89,905.973 1715.34,900.124 1725.8,894.576 1736.25,887.564 1746.71,879.642 1757.16,860.254 1767.62,846.764 1778.07,839.63 1788.53,844.203 1798.98,847.187 1809.43,838.313 1819.89,832.016 1830.34,831.806 1840.8,829.46 1851.25,825.202 1861.71,821.425 1872.16,829.238 1882.62,847.193 1893.07,858.608 1903.52,860.459 1913.98,848.215 1924.43,822.567 1934.89,793.723 1945.34,773.146 1955.8,764.727 1966.25,767.713 1976.71,769.782 1987.16,775.73 1997.62,780.016 2008.07,782.818 2018.52,783.54 2028.98,775.25 2039.43,779.253 2049.89,791.501 2060.34,804.473 2070.8,819.061 2081.25,839.598 2091.71,856.754 2102.16,878.282 2112.62,901.521 2123.07,922.67 2133.52,933.778 2143.98,952.562 2154.43,966.833 2164.89,978.307 2175.34,986.494 2185.8,998.04 2196.25,1020.28 2206.71,1045.05 2217.16,1077.27 2227.62,1107.92 2238.07,1135.49 2248.52,1158.98 2258.98,1183.89 2269.43,1211.94 2279.89,1247.89 2290.34,1292.52 "/>
<circle clip-path="url(#clip852)" cx="209.891" cy="943.466" r="14.4" fill="#000000" fill-rule="evenodd" fill-opacity="1" stroke="none"/>
<circle clip-path="url(#clip852)" cx="220.346" cy="1147.73" r="14.4" fill="#000000" fill-rule="evenodd" fill-opacity="1" stroke="none"/>
<circle clip-path="url(#clip852)" cx="230.8" cy="1283.78" r="14.4" fill="#000000" fill-rule="evenodd" fill-opacity="1" stroke="none"/>
<circle clip-path="url(#clip852)" cx="241.255" cy="1153.24" r="14.4" fill="#000000" fill-rule="evenodd" fill-opacity="1" stroke="none"/>
<circle clip-path="url(#clip852)" cx="251.71" cy="1194.01" r="14.4" fill="#000000" fill-rule="evenodd" fill-opacity="1" stroke="none"/>
<circle clip-path="url(#clip852)" cx="262.164" cy="971.39" r="14.4" fill="#000000" fill-rule="evenodd" fill-opacity="1" stroke="none"/>
<circle clip-path="url(#clip852)" cx="272.619" cy="786.345" r="14.4" fill="#000000" fill-rule="evenodd" fill-opacity="1" stroke="none"/>
<circle clip-path="url(#clip852)" cx="283.073" cy="733.13" r="14.4" fill="#000000" fill-rule="evenodd" fill-opacity="1" stroke="none"/>
<circle clip-path="url(#clip852)" cx="293.528" cy="864.739" r="14.4" fill="#000000" fill-rule="evenodd" fill-opacity="1" stroke="none"/>
<circle clip-path="url(#clip852)" cx="303.982" cy="727.363" r="14.4" fill="#000000" fill-rule="evenodd" fill-opacity="1" stroke="none"/>
<circle clip-path="url(#clip852)" cx="314.437" cy="848.255" r="14.4" fill="#000000" fill-rule="evenodd" fill-opacity="1" stroke="none"/>
<circle clip-path="url(#clip852)" cx="324.891" cy="1134.79" r="14.4" fill="#000000" fill-rule="evenodd" fill-opacity="1" stroke="none"/>
<circle clip-path="url(#clip852)" cx="335.346" cy="394.504" r="14.4" fill="#000000" fill-rule="evenodd" fill-opacity="1" stroke="none"/>
<circle clip-path="url(#clip852)" cx="345.8" cy="613.763" r="14.4" fill="#000000" fill-rule="evenodd" fill-opacity="1" stroke="none"/>
<circle clip-path="url(#clip852)" cx="356.255" cy="765.316" r="14.4" fill="#000000" fill-rule="evenodd" fill-opacity="1" stroke="none"/>
<circle clip-path="url(#clip852)" cx="366.709" cy="612.786" r="14.4" fill="#000000" fill-rule="evenodd" fill-opacity="1" stroke="none"/>
<circle clip-path="url(#clip852)" cx="377.164" cy="574.56" r="14.4" fill="#000000" fill-rule="evenodd" fill-opacity="1" stroke="none"/>
<circle clip-path="url(#clip852)" cx="387.618" cy="521.433" r="14.4" fill="#000000" fill-rule="evenodd" fill-opacity="1" stroke="none"/>
<circle clip-path="url(#clip852)" cx="398.073" cy="541.926" r="14.4" fill="#000000" fill-rule="evenodd" fill-opacity="1" stroke="none"/>
<circle clip-path="url(#clip852)" cx="408.527" cy="487.581" r="14.4" fill="#000000" fill-rule="evenodd" fill-opacity="1" stroke="none"/>
<circle clip-path="url(#clip852)" cx="418.982" cy="498.051" r="14.4" fill="#000000" fill-rule="evenodd" fill-opacity="1" stroke="none"/>
<circle clip-path="url(#clip852)" cx="429.437" cy="401.106" r="14.4" fill="#000000" fill-rule="evenodd" fill-opacity="1" stroke="none"/>
<circle clip-path="url(#clip852)" cx="439.891" cy="607.643" r="14.4" fill="#000000" fill-rule="evenodd" fill-opacity="1" stroke="none"/>
<circle clip-path="url(#clip852)" cx="450.346" cy="431.274" r="14.4" fill="#000000" fill-rule="evenodd" fill-opacity="1" stroke="none"/>
<circle clip-path="url(#clip852)" cx="460.8" cy="344.15" r="14.4" fill="#000000" fill-rule="evenodd" fill-opacity="1" stroke="none"/>
<circle clip-path="url(#clip852)" cx="471.255" cy="463.214" r="14.4" fill="#000000" fill-rule="evenodd" fill-opacity="1" stroke="none"/>
<circle clip-path="url(#clip852)" cx="481.709" cy="369.27" r="14.4" fill="#000000" fill-rule="evenodd" fill-opacity="1" stroke="none"/>
<circle clip-path="url(#clip852)" cx="492.164" cy="417.862" r="14.4" fill="#000000" fill-rule="evenodd" fill-opacity="1" stroke="none"/>
<circle clip-path="url(#clip852)" cx="502.618" cy="696.643" r="14.4" fill="#000000" fill-rule="evenodd" fill-opacity="1" stroke="none"/>
<circle clip-path="url(#clip852)" cx="513.073" cy="595.476" r="14.4" fill="#000000" fill-rule="evenodd" fill-opacity="1" stroke="none"/>
<circle clip-path="url(#clip852)" cx="523.527" cy="595.876" r="14.4" fill="#000000" fill-rule="evenodd" fill-opacity="1" stroke="none"/>
<circle clip-path="url(#clip852)" cx="533.982" cy="670.819" r="14.4" fill="#000000" fill-rule="evenodd" fill-opacity="1" stroke="none"/>
<circle clip-path="url(#clip852)" cx="544.436" cy="597.858" r="14.4" fill="#000000" fill-rule="evenodd" fill-opacity="1" stroke="none"/>
<circle clip-path="url(#clip852)" cx="554.891" cy="655.958" r="14.4" fill="#000000" fill-rule="evenodd" fill-opacity="1" stroke="none"/>
<circle clip-path="url(#clip852)" cx="565.345" cy="604.498" r="14.4" fill="#000000" fill-rule="evenodd" fill-opacity="1" stroke="none"/>
<circle clip-path="url(#clip852)" cx="575.8" cy="625.667" r="14.4" fill="#000000" fill-rule="evenodd" fill-opacity="1" stroke="none"/>
<circle clip-path="url(#clip852)" cx="586.254" cy="721.618" r="14.4" fill="#000000" fill-rule="evenodd" fill-opacity="1" stroke="none"/>
<circle clip-path="url(#clip852)" cx="596.709" cy="758.649" r="14.4" fill="#000000" fill-rule="evenodd" fill-opacity="1" stroke="none"/>
<circle clip-path="url(#clip852)" cx="607.163" cy="656.467" r="14.4" fill="#000000" fill-rule="evenodd" fill-opacity="1" stroke="none"/>
<circle clip-path="url(#clip852)" cx="617.618" cy="496.625" r="14.4" fill="#000000" fill-rule="evenodd" fill-opacity="1" stroke="none"/>
<circle clip-path="url(#clip852)" cx="628.073" cy="697.498" r="14.4" fill="#000000" fill-rule="evenodd" fill-opacity="1" stroke="none"/>
<circle clip-path="url(#clip852)" cx="638.527" cy="916.511" r="14.4" fill="#000000" fill-rule="evenodd" fill-opacity="1" stroke="none"/>
<circle clip-path="url(#clip852)" cx="648.982" cy="905.411" r="14.4" fill="#000000" fill-rule="evenodd" fill-opacity="1" stroke="none"/>
<circle clip-path="url(#clip852)" cx="659.436" cy="778.377" r="14.4" fill="#000000" fill-rule="evenodd" fill-opacity="1" stroke="none"/>
<circle clip-path="url(#clip852)" cx="669.891" cy="633.975" r="14.4" fill="#000000" fill-rule="evenodd" fill-opacity="1" stroke="none"/>
<circle clip-path="url(#clip852)" cx="680.345" cy="638.974" r="14.4" fill="#000000" fill-rule="evenodd" fill-opacity="1" stroke="none"/>
<circle clip-path="url(#clip852)" cx="690.8" cy="718.619" r="14.4" fill="#000000" fill-rule="evenodd" fill-opacity="1" stroke="none"/>
<circle clip-path="url(#clip852)" cx="701.254" cy="709.722" r="14.4" fill="#000000" fill-rule="evenodd" fill-opacity="1" stroke="none"/>
<circle clip-path="url(#clip852)" cx="711.709" cy="781.282" r="14.4" fill="#000000" fill-rule="evenodd" fill-opacity="1" stroke="none"/>
<circle clip-path="url(#clip852)" cx="722.163" cy="879.631" r="14.4" fill="#000000" fill-rule="evenodd" fill-opacity="1" stroke="none"/>
<circle clip-path="url(#clip852)" cx="732.618" cy="731.757" r="14.4" fill="#000000" fill-rule="evenodd" fill-opacity="1" stroke="none"/>
<circle clip-path="url(#clip852)" cx="743.072" cy="619.461" r="14.4" fill="#000000" fill-rule="evenodd" fill-opacity="1" stroke="none"/>
<circle clip-path="url(#clip852)" cx="753.527" cy="860.215" r="14.4" fill="#000000" fill-rule="evenodd" fill-opacity="1" stroke="none"/>
<circle clip-path="url(#clip852)" cx="763.981" cy="954.216" r="14.4" fill="#000000" fill-rule="evenodd" fill-opacity="1" stroke="none"/>
<circle clip-path="url(#clip852)" cx="774.436" cy="816.66" r="14.4" fill="#000000" fill-rule="evenodd" fill-opacity="1" stroke="none"/>
<circle clip-path="url(#clip852)" cx="784.89" cy="739.414" r="14.4" fill="#000000" fill-rule="evenodd" fill-opacity="1" stroke="none"/>
<circle clip-path="url(#clip852)" cx="795.345" cy="720.197" r="14.4" fill="#000000" fill-rule="evenodd" fill-opacity="1" stroke="none"/>
<circle clip-path="url(#clip852)" cx="805.799" cy="558.832" r="14.4" fill="#000000" fill-rule="evenodd" fill-opacity="1" stroke="none"/>
<circle clip-path="url(#clip852)" cx="816.254" cy="565.546" r="14.4" fill="#000000" fill-rule="evenodd" fill-opacity="1" stroke="none"/>
<circle clip-path="url(#clip852)" cx="826.709" cy="581.436" r="14.4" fill="#000000" fill-rule="evenodd" fill-opacity="1" stroke="none"/>
<circle clip-path="url(#clip852)" cx="837.163" cy="588.929" r="14.4" fill="#000000" fill-rule="evenodd" fill-opacity="1" stroke="none"/>
<circle clip-path="url(#clip852)" cx="847.618" cy="407.073" r="14.4" fill="#000000" fill-rule="evenodd" fill-opacity="1" stroke="none"/>
<circle clip-path="url(#clip852)" cx="858.072" cy="479.531" r="14.4" fill="#000000" fill-rule="evenodd" fill-opacity="1" stroke="none"/>
<circle clip-path="url(#clip852)" cx="868.527" cy="213.471" r="14.4" fill="#000000" fill-rule="evenodd" fill-opacity="1" stroke="none"/>
<circle clip-path="url(#clip852)" cx="878.981" cy="249.599" r="14.4" fill="#000000" fill-rule="evenodd" fill-opacity="1" stroke="none"/>
<circle clip-path="url(#clip852)" cx="889.436" cy="354.005" r="14.4" fill="#000000" fill-rule="evenodd" fill-opacity="1" stroke="none"/>
<circle clip-path="url(#clip852)" cx="899.89" cy="336.413" r="14.4" fill="#000000" fill-rule="evenodd" fill-opacity="1" stroke="none"/>
<circle clip-path="url(#clip852)" cx="910.345" cy="230.175" r="14.4" fill="#000000" fill-rule="evenodd" fill-opacity="1" stroke="none"/>
<circle clip-path="url(#clip852)" cx="920.799" cy="280.502" r="14.4" fill="#000000" fill-rule="evenodd" fill-opacity="1" stroke="none"/>
<circle clip-path="url(#clip852)" cx="931.254" cy="297.965" r="14.4" fill="#000000" fill-rule="evenodd" fill-opacity="1" stroke="none"/>
<circle clip-path="url(#clip852)" cx="941.708" cy="417.466" r="14.4" fill="#000000" fill-rule="evenodd" fill-opacity="1" stroke="none"/>
<circle clip-path="url(#clip852)" cx="952.163" cy="256.139" r="14.4" fill="#000000" fill-rule="evenodd" fill-opacity="1" stroke="none"/>
<circle clip-path="url(#clip852)" cx="962.617" cy="348.256" r="14.4" fill="#000000" fill-rule="evenodd" fill-opacity="1" stroke="none"/>
<circle clip-path="url(#clip852)" cx="973.072" cy="408.449" r="14.4" fill="#000000" fill-rule="evenodd" fill-opacity="1" stroke="none"/>
<circle clip-path="url(#clip852)" cx="983.526" cy="320.626" r="14.4" fill="#000000" fill-rule="evenodd" fill-opacity="1" stroke="none"/>
<circle clip-path="url(#clip852)" cx="993.981" cy="148.297" r="14.4" fill="#000000" fill-rule="evenodd" fill-opacity="1" stroke="none"/>
<circle clip-path="url(#clip852)" cx="1004.44" cy="443.413" r="14.4" fill="#000000" fill-rule="evenodd" fill-opacity="1" stroke="none"/>
<circle clip-path="url(#clip852)" cx="1014.89" cy="94.0778" r="14.4" fill="#000000" fill-rule="evenodd" fill-opacity="1" stroke="none"/>
<circle clip-path="url(#clip852)" cx="1025.34" cy="361.157" r="14.4" fill="#000000" fill-rule="evenodd" fill-opacity="1" stroke="none"/>
<circle clip-path="url(#clip852)" cx="1035.8" cy="289.119" r="14.4" fill="#000000" fill-rule="evenodd" fill-opacity="1" stroke="none"/>
<circle clip-path="url(#clip852)" cx="1046.25" cy="353.39" r="14.4" fill="#000000" fill-rule="evenodd" fill-opacity="1" stroke="none"/>
<circle clip-path="url(#clip852)" cx="1056.71" cy="297.266" r="14.4" fill="#000000" fill-rule="evenodd" fill-opacity="1" stroke="none"/>
<circle clip-path="url(#clip852)" cx="1067.16" cy="98.0545" r="14.4" fill="#000000" fill-rule="evenodd" fill-opacity="1" stroke="none"/>
<circle clip-path="url(#clip852)" cx="1077.62" cy="183.304" r="14.4" fill="#000000" fill-rule="evenodd" fill-opacity="1" stroke="none"/>
<circle clip-path="url(#clip852)" cx="1088.07" cy="247.993" r="14.4" fill="#000000" fill-rule="evenodd" fill-opacity="1" stroke="none"/>
<circle clip-path="url(#clip852)" cx="1098.53" cy="394.936" r="14.4" fill="#000000" fill-rule="evenodd" fill-opacity="1" stroke="none"/>
<circle clip-path="url(#clip852)" cx="1108.98" cy="86.1857" r="14.4" fill="#000000" fill-rule="evenodd" fill-opacity="1" stroke="none"/>
<circle clip-path="url(#clip852)" cx="1119.44" cy="148.8" r="14.4" fill="#000000" fill-rule="evenodd" fill-opacity="1" stroke="none"/>
<circle clip-path="url(#clip852)" cx="1129.89" cy="441.474" r="14.4" fill="#000000" fill-rule="evenodd" fill-opacity="1" stroke="none"/>
<circle clip-path="url(#clip852)" cx="1140.34" cy="359.657" r="14.4" fill="#000000" fill-rule="evenodd" fill-opacity="1" stroke="none"/>
<circle clip-path="url(#clip852)" cx="1150.8" cy="208.099" r="14.4" fill="#000000" fill-rule="evenodd" fill-opacity="1" stroke="none"/>
<circle clip-path="url(#clip852)" cx="1161.25" cy="431.595" r="14.4" fill="#000000" fill-rule="evenodd" fill-opacity="1" stroke="none"/>
<circle clip-path="url(#clip852)" cx="1171.71" cy="153.854" r="14.4" fill="#000000" fill-rule="evenodd" fill-opacity="1" stroke="none"/>
<circle clip-path="url(#clip852)" cx="1182.16" cy="233.047" r="14.4" fill="#000000" fill-rule="evenodd" fill-opacity="1" stroke="none"/>
<circle clip-path="url(#clip852)" cx="1192.62" cy="152.081" r="14.4" fill="#000000" fill-rule="evenodd" fill-opacity="1" stroke="none"/>
<circle clip-path="url(#clip852)" cx="1203.07" cy="230.584" r="14.4" fill="#000000" fill-rule="evenodd" fill-opacity="1" stroke="none"/>
<circle clip-path="url(#clip852)" cx="1213.53" cy="283.85" r="14.4" fill="#000000" fill-rule="evenodd" fill-opacity="1" stroke="none"/>
<circle clip-path="url(#clip852)" cx="1223.98" cy="199.231" r="14.4" fill="#000000" fill-rule="evenodd" fill-opacity="1" stroke="none"/>
<circle clip-path="url(#clip852)" cx="1234.44" cy="218.195" r="14.4" fill="#000000" fill-rule="evenodd" fill-opacity="1" stroke="none"/>
<circle clip-path="url(#clip852)" cx="1244.89" cy="241.153" r="14.4" fill="#000000" fill-rule="evenodd" fill-opacity="1" stroke="none"/>
<circle clip-path="url(#clip852)" cx="1255.34" cy="273.098" r="14.4" fill="#000000" fill-rule="evenodd" fill-opacity="1" stroke="none"/>
<circle clip-path="url(#clip852)" cx="1265.8" cy="261.129" r="14.4" fill="#000000" fill-rule="evenodd" fill-opacity="1" stroke="none"/>
<circle clip-path="url(#clip852)" cx="1276.25" cy="155.53" r="14.4" fill="#000000" fill-rule="evenodd" fill-opacity="1" stroke="none"/>
<circle clip-path="url(#clip852)" cx="1286.71" cy="326.908" r="14.4" fill="#000000" fill-rule="evenodd" fill-opacity="1" stroke="none"/>
<circle clip-path="url(#clip852)" cx="1297.16" cy="315.216" r="14.4" fill="#000000" fill-rule="evenodd" fill-opacity="1" stroke="none"/>
<circle clip-path="url(#clip852)" cx="1307.62" cy="396.036" r="14.4" fill="#000000" fill-rule="evenodd" fill-opacity="1" stroke="none"/>
<circle clip-path="url(#clip852)" cx="1318.07" cy="355.134" r="14.4" fill="#000000" fill-rule="evenodd" fill-opacity="1" stroke="none"/>
<circle clip-path="url(#clip852)" cx="1328.53" cy="520.869" r="14.4" fill="#000000" fill-rule="evenodd" fill-opacity="1" stroke="none"/>
<circle clip-path="url(#clip852)" cx="1338.98" cy="361.6" r="14.4" fill="#000000" fill-rule="evenodd" fill-opacity="1" stroke="none"/>
<circle clip-path="url(#clip852)" cx="1349.43" cy="299.078" r="14.4" fill="#000000" fill-rule="evenodd" fill-opacity="1" stroke="none"/>
<circle clip-path="url(#clip852)" cx="1359.89" cy="561.299" r="14.4" fill="#000000" fill-rule="evenodd" fill-opacity="1" stroke="none"/>
<circle clip-path="url(#clip852)" cx="1370.34" cy="408.147" r="14.4" fill="#000000" fill-rule="evenodd" fill-opacity="1" stroke="none"/>
<circle clip-path="url(#clip852)" cx="1380.8" cy="751.075" r="14.4" fill="#000000" fill-rule="evenodd" fill-opacity="1" stroke="none"/>
<circle clip-path="url(#clip852)" cx="1391.25" cy="680.326" r="14.4" fill="#000000" fill-rule="evenodd" fill-opacity="1" stroke="none"/>
<circle clip-path="url(#clip852)" cx="1401.71" cy="470.929" r="14.4" fill="#000000" fill-rule="evenodd" fill-opacity="1" stroke="none"/>
<circle clip-path="url(#clip852)" cx="1412.16" cy="703.366" r="14.4" fill="#000000" fill-rule="evenodd" fill-opacity="1" stroke="none"/>
<circle clip-path="url(#clip852)" cx="1422.62" cy="725.323" r="14.4" fill="#000000" fill-rule="evenodd" fill-opacity="1" stroke="none"/>
<circle clip-path="url(#clip852)" cx="1433.07" cy="739.303" r="14.4" fill="#000000" fill-rule="evenodd" fill-opacity="1" stroke="none"/>
<circle clip-path="url(#clip852)" cx="1443.53" cy="814.998" r="14.4" fill="#000000" fill-rule="evenodd" fill-opacity="1" stroke="none"/>
<circle clip-path="url(#clip852)" cx="1453.98" cy="656.222" r="14.4" fill="#000000" fill-rule="evenodd" fill-opacity="1" stroke="none"/>
<circle clip-path="url(#clip852)" cx="1464.43" cy="728.421" r="14.4" fill="#000000" fill-rule="evenodd" fill-opacity="1" stroke="none"/>
<circle clip-path="url(#clip852)" cx="1474.89" cy="838.922" r="14.4" fill="#000000" fill-rule="evenodd" fill-opacity="1" stroke="none"/>
<circle clip-path="url(#clip852)" cx="1485.34" cy="978.081" r="14.4" fill="#000000" fill-rule="evenodd" fill-opacity="1" stroke="none"/>
<circle clip-path="url(#clip852)" cx="1495.8" cy="939.675" r="14.4" fill="#000000" fill-rule="evenodd" fill-opacity="1" stroke="none"/>
<circle clip-path="url(#clip852)" cx="1506.25" cy="1023.94" r="14.4" fill="#000000" fill-rule="evenodd" fill-opacity="1" stroke="none"/>
<circle clip-path="url(#clip852)" cx="1516.71" cy="949.577" r="14.4" fill="#000000" fill-rule="evenodd" fill-opacity="1" stroke="none"/>
<circle clip-path="url(#clip852)" cx="1527.16" cy="895.83" r="14.4" fill="#000000" fill-rule="evenodd" fill-opacity="1" stroke="none"/>
<circle clip-path="url(#clip852)" cx="1537.62" cy="867.594" r="14.4" fill="#000000" fill-rule="evenodd" fill-opacity="1" stroke="none"/>
<circle clip-path="url(#clip852)" cx="1548.07" cy="946.002" r="14.4" fill="#000000" fill-rule="evenodd" fill-opacity="1" stroke="none"/>
<circle clip-path="url(#clip852)" cx="1558.53" cy="920.358" r="14.4" fill="#000000" fill-rule="evenodd" fill-opacity="1" stroke="none"/>
<circle clip-path="url(#clip852)" cx="1568.98" cy="961.373" r="14.4" fill="#000000" fill-rule="evenodd" fill-opacity="1" stroke="none"/>
<circle clip-path="url(#clip852)" cx="1579.43" cy="971.01" r="14.4" fill="#000000" fill-rule="evenodd" fill-opacity="1" stroke="none"/>
<circle clip-path="url(#clip852)" cx="1589.89" cy="915.783" r="14.4" fill="#000000" fill-rule="evenodd" fill-opacity="1" stroke="none"/>
<circle clip-path="url(#clip852)" cx="1600.34" cy="988.05" r="14.4" fill="#000000" fill-rule="evenodd" fill-opacity="1" stroke="none"/>
<circle clip-path="url(#clip852)" cx="1610.8" cy="882.762" r="14.4" fill="#000000" fill-rule="evenodd" fill-opacity="1" stroke="none"/>
<circle clip-path="url(#clip852)" cx="1621.25" cy="996.355" r="14.4" fill="#000000" fill-rule="evenodd" fill-opacity="1" stroke="none"/>
<circle clip-path="url(#clip852)" cx="1631.71" cy="1080.72" r="14.4" fill="#000000" fill-rule="evenodd" fill-opacity="1" stroke="none"/>
<circle clip-path="url(#clip852)" cx="1642.16" cy="1058.82" r="14.4" fill="#000000" fill-rule="evenodd" fill-opacity="1" stroke="none"/>
<circle clip-path="url(#clip852)" cx="1652.62" cy="709.862" r="14.4" fill="#000000" fill-rule="evenodd" fill-opacity="1" stroke="none"/>
<circle clip-path="url(#clip852)" cx="1663.07" cy="800.624" r="14.4" fill="#000000" fill-rule="evenodd" fill-opacity="1" stroke="none"/>
<circle clip-path="url(#clip852)" cx="1673.53" cy="1007.32" r="14.4" fill="#000000" fill-rule="evenodd" fill-opacity="1" stroke="none"/>
<circle clip-path="url(#clip852)" cx="1683.98" cy="727.679" r="14.4" fill="#000000" fill-rule="evenodd" fill-opacity="1" stroke="none"/>
<circle clip-path="url(#clip852)" cx="1694.43" cy="1117.85" r="14.4" fill="#000000" fill-rule="evenodd" fill-opacity="1" stroke="none"/>
<circle clip-path="url(#clip852)" cx="1704.89" cy="980.741" r="14.4" fill="#000000" fill-rule="evenodd" fill-opacity="1" stroke="none"/>
<circle clip-path="url(#clip852)" cx="1715.34" cy="894.99" r="14.4" fill="#000000" fill-rule="evenodd" fill-opacity="1" stroke="none"/>
<circle clip-path="url(#clip852)" cx="1725.8" cy="848.043" r="14.4" fill="#000000" fill-rule="evenodd" fill-opacity="1" stroke="none"/>
<circle clip-path="url(#clip852)" cx="1736.25" cy="856.609" r="14.4" fill="#000000" fill-rule="evenodd" fill-opacity="1" stroke="none"/>
<circle clip-path="url(#clip852)" cx="1746.71" cy="925.32" r="14.4" fill="#000000" fill-rule="evenodd" fill-opacity="1" stroke="none"/>
<circle clip-path="url(#clip852)" cx="1757.16" cy="957.529" r="14.4" fill="#000000" fill-rule="evenodd" fill-opacity="1" stroke="none"/>
<circle clip-path="url(#clip852)" cx="1767.62" cy="880.681" r="14.4" fill="#000000" fill-rule="evenodd" fill-opacity="1" stroke="none"/>
<circle clip-path="url(#clip852)" cx="1778.07" cy="926.682" r="14.4" fill="#000000" fill-rule="evenodd" fill-opacity="1" stroke="none"/>
<circle clip-path="url(#clip852)" cx="1788.53" cy="964.446" r="14.4" fill="#000000" fill-rule="evenodd" fill-opacity="1" stroke="none"/>
<circle clip-path="url(#clip852)" cx="1798.98" cy="712.498" r="14.4" fill="#000000" fill-rule="evenodd" fill-opacity="1" stroke="none"/>
<circle clip-path="url(#clip852)" cx="1809.43" cy="719.019" r="14.4" fill="#000000" fill-rule="evenodd" fill-opacity="1" stroke="none"/>
<circle clip-path="url(#clip852)" cx="1819.89" cy="662.949" r="14.4" fill="#000000" fill-rule="evenodd" fill-opacity="1" stroke="none"/>
<circle clip-path="url(#clip852)" cx="1830.34" cy="836.316" r="14.4" fill="#000000" fill-rule="evenodd" fill-opacity="1" stroke="none"/>
<circle clip-path="url(#clip852)" cx="1840.8" cy="635.783" r="14.4" fill="#000000" fill-rule="evenodd" fill-opacity="1" stroke="none"/>
<circle clip-path="url(#clip852)" cx="1851.25" cy="863.745" r="14.4" fill="#000000" fill-rule="evenodd" fill-opacity="1" stroke="none"/>
<circle clip-path="url(#clip852)" cx="1861.71" cy="994.117" r="14.4" fill="#000000" fill-rule="evenodd" fill-opacity="1" stroke="none"/>
<circle clip-path="url(#clip852)" cx="1872.16" cy="874.972" r="14.4" fill="#000000" fill-rule="evenodd" fill-opacity="1" stroke="none"/>
<circle clip-path="url(#clip852)" cx="1882.62" cy="737.53" r="14.4" fill="#000000" fill-rule="evenodd" fill-opacity="1" stroke="none"/>
<circle clip-path="url(#clip852)" cx="1893.07" cy="982.941" r="14.4" fill="#000000" fill-rule="evenodd" fill-opacity="1" stroke="none"/>
<circle clip-path="url(#clip852)" cx="1903.52" cy="941.336" r="14.4" fill="#000000" fill-rule="evenodd" fill-opacity="1" stroke="none"/>
<circle clip-path="url(#clip852)" cx="1913.98" cy="1097.04" r="14.4" fill="#000000" fill-rule="evenodd" fill-opacity="1" stroke="none"/>
<circle clip-path="url(#clip852)" cx="1924.43" cy="944.734" r="14.4" fill="#000000" fill-rule="evenodd" fill-opacity="1" stroke="none"/>
<circle clip-path="url(#clip852)" cx="1934.89" cy="662.114" r="14.4" fill="#000000" fill-rule="evenodd" fill-opacity="1" stroke="none"/>
<circle clip-path="url(#clip852)" cx="1945.34" cy="778.956" r="14.4" fill="#000000" fill-rule="evenodd" fill-opacity="1" stroke="none"/>
<circle clip-path="url(#clip852)" cx="1955.8" cy="725.054" r="14.4" fill="#000000" fill-rule="evenodd" fill-opacity="1" stroke="none"/>
<circle clip-path="url(#clip852)" cx="1966.25" cy="475.01" r="14.4" fill="#000000" fill-rule="evenodd" fill-opacity="1" stroke="none"/>
<circle clip-path="url(#clip852)" cx="1976.71" cy="502.18" r="14.4" fill="#000000" fill-rule="evenodd" fill-opacity="1" stroke="none"/>
<circle clip-path="url(#clip852)" cx="1987.16" cy="948.05" r="14.4" fill="#000000" fill-rule="evenodd" fill-opacity="1" stroke="none"/>
<circle clip-path="url(#clip852)" cx="1997.62" cy="760.091" r="14.4" fill="#000000" fill-rule="evenodd" fill-opacity="1" stroke="none"/>
<circle clip-path="url(#clip852)" cx="2008.07" cy="829.507" r="14.4" fill="#000000" fill-rule="evenodd" fill-opacity="1" stroke="none"/>
<circle clip-path="url(#clip852)" cx="2018.52" cy="813.505" r="14.4" fill="#000000" fill-rule="evenodd" fill-opacity="1" stroke="none"/>
<circle clip-path="url(#clip852)" cx="2028.98" cy="767.797" r="14.4" fill="#000000" fill-rule="evenodd" fill-opacity="1" stroke="none"/>
<circle clip-path="url(#clip852)" cx="2039.43" cy="863.052" r="14.4" fill="#000000" fill-rule="evenodd" fill-opacity="1" stroke="none"/>
<circle clip-path="url(#clip852)" cx="2049.89" cy="806.849" r="14.4" fill="#000000" fill-rule="evenodd" fill-opacity="1" stroke="none"/>
<circle clip-path="url(#clip852)" cx="2060.34" cy="909.406" r="14.4" fill="#000000" fill-rule="evenodd" fill-opacity="1" stroke="none"/>
<circle clip-path="url(#clip852)" cx="2070.8" cy="736.268" r="14.4" fill="#000000" fill-rule="evenodd" fill-opacity="1" stroke="none"/>
<circle clip-path="url(#clip852)" cx="2081.25" cy="821.434" r="14.4" fill="#000000" fill-rule="evenodd" fill-opacity="1" stroke="none"/>
<circle clip-path="url(#clip852)" cx="2091.71" cy="942.815" r="14.4" fill="#000000" fill-rule="evenodd" fill-opacity="1" stroke="none"/>
<circle clip-path="url(#clip852)" cx="2102.16" cy="749.758" r="14.4" fill="#000000" fill-rule="evenodd" fill-opacity="1" stroke="none"/>
<circle clip-path="url(#clip852)" cx="2112.62" cy="1059.51" r="14.4" fill="#000000" fill-rule="evenodd" fill-opacity="1" stroke="none"/>
<circle clip-path="url(#clip852)" cx="2123.07" cy="1030.45" r="14.4" fill="#000000" fill-rule="evenodd" fill-opacity="1" stroke="none"/>
<circle clip-path="url(#clip852)" cx="2133.52" cy="814.915" r="14.4" fill="#000000" fill-rule="evenodd" fill-opacity="1" stroke="none"/>
<circle clip-path="url(#clip852)" cx="2143.98" cy="902.688" r="14.4" fill="#000000" fill-rule="evenodd" fill-opacity="1" stroke="none"/>
<circle clip-path="url(#clip852)" cx="2154.43" cy="925.826" r="14.4" fill="#000000" fill-rule="evenodd" fill-opacity="1" stroke="none"/>
<circle clip-path="url(#clip852)" cx="2164.89" cy="962.978" r="14.4" fill="#000000" fill-rule="evenodd" fill-opacity="1" stroke="none"/>
<circle clip-path="url(#clip852)" cx="2175.34" cy="962.369" r="14.4" fill="#000000" fill-rule="evenodd" fill-opacity="1" stroke="none"/>
<circle clip-path="url(#clip852)" cx="2185.8" cy="912.435" r="14.4" fill="#000000" fill-rule="evenodd" fill-opacity="1" stroke="none"/>
<circle clip-path="url(#clip852)" cx="2196.25" cy="976.111" r="14.4" fill="#000000" fill-rule="evenodd" fill-opacity="1" stroke="none"/>
<circle clip-path="url(#clip852)" cx="2206.71" cy="1054.34" r="14.4" fill="#000000" fill-rule="evenodd" fill-opacity="1" stroke="none"/>
<circle clip-path="url(#clip852)" cx="2217.16" cy="942.487" r="14.4" fill="#000000" fill-rule="evenodd" fill-opacity="1" stroke="none"/>
<circle clip-path="url(#clip852)" cx="2227.62" cy="1162.49" r="14.4" fill="#000000" fill-rule="evenodd" fill-opacity="1" stroke="none"/>
<circle clip-path="url(#clip852)" cx="2238.07" cy="1107.37" r="14.4" fill="#000000" fill-rule="evenodd" fill-opacity="1" stroke="none"/>
<circle clip-path="url(#clip852)" cx="2248.52" cy="1099.34" r="14.4" fill="#000000" fill-rule="evenodd" fill-opacity="1" stroke="none"/>
<circle clip-path="url(#clip852)" cx="2258.98" cy="1136.7" r="14.4" fill="#000000" fill-rule="evenodd" fill-opacity="1" stroke="none"/>
<circle clip-path="url(#clip852)" cx="2269.43" cy="1088.57" r="14.4" fill="#000000" fill-rule="evenodd" fill-opacity="1" stroke="none"/>
<circle clip-path="url(#clip852)" cx="2279.89" cy="1069.54" r="14.4" fill="#000000" fill-rule="evenodd" fill-opacity="1" stroke="none"/>
<circle clip-path="url(#clip852)" cx="2290.34" cy="1384.24" r="14.4" fill="#000000" fill-rule="evenodd" fill-opacity="1" stroke="none"/>
<path clip-path="url(#clip852)" d="M209.891 1163.72 L220.346 1202.33 L230.8 1262.36 L241.255 1263.3 L251.71 1277.8 L262.164 1232.15 L272.619 1145.1 L283.073 1057.96 L293.528 1021.11 L303.982 958.331 L314.437 940.591 L324.891 1003.12 L335.346 872.126 L345.8 818.468 L356.255 815.304 L366.709 779.321 L377.164 742.978 L387.618 702.651 L398.073 677.156 L408.527 645.904 L418.982 625.484 L429.437 587.695 L439.891 609.744 L450.346 588.427 L460.8 550.82 L471.255 550.301 L481.709 529.238 L492.164 525.277 L502.618 592.832 L513.073 627.151 L523.527 656.14 L533.982 698.229 L544.436 714.501 L554.891 740.449 L565.345 747.709 L575.8 756.822 L586.254 786.341 L596.709 818.936 L607.163 819.431 L617.618 777.968 L628.073 790.359 L638.527 854.633 L648.982 906.103 L659.436 916.554 L669.891 886.922 L680.345 860.407 L690.8 856.3 L701.254 850.364 L711.709 862.9 L722.163 897.975 L732.618 891.121 L743.072 856.473 L753.527 885.744 L763.981 934.299 L774.436 941.29 L784.89 926.619 L795.345 907.988 L805.799 851.547 L816.254 804.996 L826.709 770.568 L837.163 745.253 L847.618 681.288 L858.072 647.217 L868.527 556.017 L878.981 490.754 L889.436 465.921 L899.89 445.898 L910.345 407.429 L920.799 391.278 L931.254 386.028 L941.708 414.711 L952.163 402.259 L962.617 415.932 L973.072 443.961 L983.526 446.985 L993.981 406.919 L1004.44 445.51 L1014.89 393.03 L1025.34 413.966 L1035.8 415.126 L1046.25 432.316 L1056.71 433.334 L1067.16 384.733 L1077.62 364.109 L1088.07 363.534 L1098.53 400.654 L1108.98 357.071 L1119.44 335.225 L1129.89 389.866 L1140.34 417.563 L1150.8 403.387 L1161.25 445.535 L1171.71 412.487 L1182.16 402.508 L1192.62 373.779 L1203.07 368.747 L1213.53 378.391 L1223.98 366.439 L1234.44 361.245 L1244.89 363.027 L1255.34 372.984 L1265.8 378.897 L1276.25 357.895 L1286.71 382.199 L1297.16 400.476 L1307.62 435.76 L1318.07 455.089 L1328.53 511.129 L1338.98 518.038 L1349.43 505.9 L1359.89 558.158 L1370.34 563.541 L1380.8 650.497 L1391.25 705.254 L1401.71 696.579 L1412.16 742.42 L1422.62 783.95 L1433.07 819.383 L1443.53 864.62 L1453.98 860.271 L1464.43 870.41 L1474.89 903.399 L1485.34 963.387 L1495.8 1002.31 L1506.25 1052.7 L1516.71 1073.56 L1527.16 1073.94 L1537.62 1063.58 L1548.07 1071.25 L1558.53 1069.52 L1568.98 1076.49 L1579.43 1083.57 L1589.89 1074.83 L1600.34 1084.17 L1610.8 1065.54 L1621.25 1077.02 L1631.71 1107.59 L1642.16 1127.92 L1652.62 1058.05 L1663.07 1019.57 L1673.53 1038.56 L1683.98 987.209 L1694.43 1040.49 L1704.89 1053.9 L1715.34 1044.23 L1725.8 1024.11 L1736.25 1009.09 L1746.71 1013.77 L1757.16 1026.5 L1767.62 1018.85 L1778.07 1023.74 L1788.53 1037.47 L1798.98 987.008 L1809.43 945.271 L1819.89 896.844 L1830.34 900.19 L1840.8 856.121 L1851.25 876.768 L1861.71 929.165 L1872.16 945.897 L1882.62 926.044 L1893.07 969.181 L1903.52 995.77 L1913.98 1055.89 L1924.43 1068.11 L1934.89 1006.11 L1945.34 979.768 L1955.8 943.751 L1966.25 851.738 L1976.71 781.224 L1987.16 834.478 L1997.62 837.74 L2008.07 859.625 L2018.52 875.763 L2028.98 878.786 L2039.43 904.916 L2049.89 913.261 L2060.34 945.018 L2070.8 928.593 L2081.25 934.258 L2091.71 968.435 L2102.16 949.266 L2112.62 1008.09 L2123.07 1050.54 L2133.52 1031.62 L2143.98 1034.65 L2154.43 1041.5 L2164.89 1055.31 L2175.34 1065.86 L2185.8 1061.33 L2196.25 1072.03 L2206.71 1099.68 L2217.16 1094.77 L2227.62 1143.57 L2238.07 1170.65 L2248.52 1189.85 L2258.98 1213.29 L2269.43 1219.27 L2279.89 1217.43 L2290.34 1291.75 L2290.34 1062.34 L2279.89 988.032 L2269.43 989.865 L2258.98 983.89 L2248.52 960.445 L2238.07 941.251 L2227.62 914.168 L2217.16 865.373 L2206.71 870.283 L2196.25 842.625 L2185.8 831.929 L2175.34 836.455 L2164.89 825.912 L2154.43 812.095 L2143.98 805.253 L2133.52 802.221 L2123.07 821.142 L2112.62 778.691 L2102.16 719.866 L2091.71 739.034 L2081.25 704.858 L2070.8 699.193 L2060.34 715.617 L2049.89 683.861 L2039.43 675.515 L2028.98 649.386 L2018.52 646.362 L2008.07 630.225 L1997.62 608.34 L1987.16 605.077 L1976.71 551.823 L1966.25 622.337 L1955.8 714.351 L1945.34 750.367 L1934.89 776.706 L1924.43 838.71 L1913.98 826.493 L1903.52 766.369 L1893.07 739.78 L1882.62 696.644 L1872.16 716.497 L1861.71 699.764 L1851.25 647.368 L1840.8 626.721 L1830.34 670.79 L1819.89 667.443 L1809.43 715.87 L1798.98 757.607 L1788.53 808.074 L1778.07 794.341 L1767.62 789.448 L1757.16 797.094 L1746.71 784.368 L1736.25 779.685 L1725.8 794.707 L1715.34 814.83 L1704.89 824.502 L1694.43 811.094 L1683.98 757.808 L1673.53 809.158 L1663.07 790.17 L1652.62 828.646 L1642.16 898.523 L1631.71 878.191 L1621.25 847.619 L1610.8 836.137 L1600.34 854.767 L1589.89 845.425 L1579.43 854.169 L1568.98 847.094 L1558.53 840.123 L1548.07 841.853 L1537.62 834.18 L1527.16 844.539 L1516.71 844.162 L1506.25 823.299 L1495.8 772.906 L1485.34 733.986 L1474.89 673.998 L1464.43 641.009 L1453.98 630.87 L1443.53 635.22 L1433.07 589.982 L1422.62 554.549 L1412.16 513.019 L1401.71 467.179 L1391.25 475.854 L1380.8 421.096 L1370.34 334.141 L1359.89 328.757 L1349.43 276.499 L1338.98 288.638 L1328.53 281.728 L1318.07 225.689 L1307.62 206.359 L1297.16 171.076 L1286.71 152.798 L1276.25 128.494 L1265.8 149.496 L1255.34 143.584 L1244.89 133.627 L1234.44 131.844 L1223.98 137.038 L1213.53 148.99 L1203.07 139.346 L1192.62 144.378 L1182.16 173.108 L1171.71 183.087 L1161.25 216.135 L1150.8 173.987 L1140.34 188.162 L1129.89 160.465 L1119.44 105.824 L1108.98 127.671 L1098.53 171.253 L1088.07 134.134 L1077.62 134.709 L1067.16 155.333 L1056.71 203.934 L1046.25 202.915 L1035.8 185.726 L1025.34 184.565 L1014.89 163.629 L1004.44 216.109 L993.981 177.519 L983.526 217.584 L973.072 214.56 L962.617 186.532 L952.163 172.858 L941.708 185.31 L931.254 156.627 L920.799 161.878 L910.345 178.029 L899.89 216.498 L889.436 236.52 L878.981 261.354 L868.527 326.617 L858.072 417.816 L847.618 451.888 L837.163 515.853 L826.709 541.167 L816.254 575.595 L805.799 622.146 L795.345 678.587 L784.89 697.218 L774.436 711.889 L763.981 704.898 L753.527 656.343 L743.072 627.073 L732.618 661.72 L722.163 668.574 L711.709 633.499 L701.254 620.964 L690.8 626.9 L680.345 631.007 L669.891 657.521 L659.436 687.154 L648.982 676.702 L638.527 625.232 L628.073 560.958 L617.618 548.567 L607.163 590.031 L596.709 589.535 L586.254 556.94 L575.8 527.421 L565.345 518.308 L554.891 511.048 L544.436 485.099 L533.982 468.826 L523.527 426.736 L513.073 397.747 L502.618 363.426 L492.164 295.87 L481.709 299.829 L471.255 320.892 L460.8 321.41 L450.346 359.017 L439.891 380.334 L429.437 358.28 L418.982 396.057 L408.527 416.445 L398.073 447.633 L387.618 473.009 L377.164 513.134 L366.709 549.16 L356.255 584.676 L345.8 587.2 L335.346 640.039 L324.891 770.067 L314.437 706.513 L303.982 723.31 L293.528 785.41 L283.073 821.972 L272.619 909.108 L262.164 995.7 L251.71 1038.49 L241.255 1014.78 L230.8 991.273 L220.346 881.822 L209.891 723.641  Z" fill="#3da44d" fill-rule="evenodd" fill-opacity="0.5"/>
<polyline clip-path="url(#clip852)" style="stroke:#3da44d; stroke-linecap:round; stroke-linejoin:round; stroke-width:4; stroke-opacity:1; fill:none" points="209.891,943.68 220.346,1042.08 230.8,1126.82 241.255,1139.04 251.71,1158.14 262.164,1113.92 272.619,1027.1 283.073,939.967 293.528,903.261 303.982,840.821 314.437,823.552 324.891,886.593 335.346,756.082 345.8,702.834 356.255,699.99 366.709,664.24 377.164,628.056 387.618,587.83 398.073,562.394 408.527,531.175 418.982,510.771 429.437,472.988 439.891,495.039 450.346,473.722 460.8,436.115 471.255,435.597 481.709,414.533 492.164,410.573 502.618,478.129 513.073,512.449 523.527,541.438 533.982,583.528 544.436,599.8 554.891,625.748 565.345,633.008 575.8,642.122 586.254,671.64 596.709,704.236 607.163,704.731 617.618,663.267 628.073,675.659 638.527,739.932 648.982,791.403 659.436,801.854 669.891,772.222 680.345,745.707 690.8,741.6 701.254,735.664 711.709,748.199 722.163,783.274 732.618,776.421 743.072,741.773 753.527,771.044 763.981,819.598 774.436,826.59 784.89,811.918 795.345,793.287 805.799,736.847 816.254,690.295 826.709,655.868 837.163,630.553 847.618,566.588 858.072,532.516 868.527,441.317 878.981,376.054 889.436,351.221 899.89,331.198 910.345,292.729 920.799,276.578 931.254,271.327 941.708,300.01 952.163,287.558 962.617,301.232 973.072,329.261 983.526,332.284 993.981,292.219 1004.44,330.81 1014.89,278.329 1025.34,299.265 1035.8,300.426 1046.25,317.616 1056.71,318.634 1067.16,270.033 1077.62,249.409 1088.07,248.834 1098.53,285.953 1108.98,242.371 1119.44,220.524 1129.89,275.165 1140.34,302.862 1150.8,288.687 1161.25,330.835 1171.71,297.787 1182.16,287.808 1192.62,259.079 1203.07,254.046 1213.53,263.691 1223.98,251.739 1234.44,246.545 1244.89,248.327 1255.34,258.284 1265.8,264.196 1276.25,243.195 1286.71,267.499 1297.16,285.776 1307.62,321.059 1318.07,340.389 1328.53,396.429 1338.98,403.338 1349.43,391.199 1359.89,443.457 1370.34,448.841 1380.8,535.796 1391.25,590.554 1401.71,581.879 1412.16,627.72 1422.62,669.25 1433.07,704.682 1443.53,749.92 1453.98,745.57 1464.43,755.71 1474.89,788.698 1485.34,848.687 1495.8,887.606 1506.25,937.999 1516.71,958.862 1527.16,959.239 1537.62,948.881 1548.07,956.554 1558.53,954.823 1568.98,961.794 1579.43,968.869 1589.89,960.125 1600.34,969.467 1610.8,950.838 1621.25,962.32 1631.71,992.891 1642.16,1013.22 1652.62,943.347 1663.07,904.871 1673.53,923.858 1683.98,872.509 1694.43,925.794 1704.89,939.202 1715.34,929.531 1725.8,909.407 1736.25,894.386 1746.71,899.068 1757.16,911.795 1767.62,904.148 1778.07,909.041 1788.53,922.774 1798.98,872.308 1809.43,830.57 1819.89,782.144 1830.34,785.49 1840.8,741.421 1851.25,762.068 1861.71,814.464 1872.16,831.197 1882.62,811.344 1893.07,854.48 1903.52,881.07 1913.98,941.194 1924.43,953.41 1934.89,891.406 1945.34,865.068 1955.8,829.051 1966.25,737.038 1976.71,666.524 1987.16,719.778 1997.62,723.04 2008.07,744.925 2018.52,761.063 2028.98,764.086 2039.43,790.215 2049.89,798.561 2060.34,830.317 2070.8,813.893 2081.25,819.558 2091.71,853.735 2102.16,834.566 2112.62,893.392 2123.07,935.842 2133.52,916.921 2143.98,919.953 2154.43,926.796 2164.89,940.612 2175.34,951.155 2185.8,946.63 2196.25,957.326 2206.71,984.984 2217.16,980.073 2227.62,1028.87 2238.07,1055.95 2248.52,1075.15 2258.98,1098.59 2269.43,1104.57 2279.89,1102.73 2290.34,1177.05 "/>
<path clip-path="url(#clip850)" d="M1728.37 300.469 L2279.25 300.469 L2279.25 93.1086 L1728.37 93.1086  Z" fill="#ffffff" fill-rule="evenodd" fill-opacity="1"/>
<polyline clip-path="url(#clip850)" style="stroke:#000000; stroke-linecap:round; stroke-linejoin:round; stroke-width:4; stroke-opacity:1; fill:none" points="1728.37,300.469 2279.25,300.469 2279.25,93.1086 1728.37,93.1086 1728.37,300.469 "/>
<polyline clip-path="url(#clip850)" style="stroke:#009af9; stroke-linecap:round; stroke-linejoin:round; stroke-width:4; stroke-opacity:1; fill:none" points="1752.88,144.949 1899.9,144.949 "/>
<path clip-path="url(#clip850)" d="M1936.3 139.289 Q1932.87 139.289 1930.88 141.974 Q1928.89 144.636 1928.89 149.289 Q1928.89 153.942 1930.86 156.627 Q1932.85 159.289 1936.3 159.289 Q1939.7 159.289 1941.69 156.604 Q1943.68 153.918 1943.68 149.289 Q1943.68 144.682 1941.69 141.997 Q1939.7 139.289 1936.3 139.289 M1936.3 135.678 Q1941.85 135.678 1945.02 139.289 Q1948.19 142.9 1948.19 149.289 Q1948.19 155.655 1945.02 159.289 Q1941.85 162.9 1936.3 162.9 Q1930.72 162.9 1927.55 159.289 Q1924.4 155.655 1924.4 149.289 Q1924.4 142.9 1927.55 139.289 Q1930.72 135.678 1936.3 135.678 Z" fill="#000000" fill-rule="nonzero" fill-opacity="1" /><path clip-path="url(#clip850)" d="M1954.81 151.997 L1954.81 136.303 L1959.07 136.303 L1959.07 151.835 Q1959.07 155.516 1960.51 157.368 Q1961.94 159.196 1964.81 159.196 Q1968.26 159.196 1970.25 156.997 Q1972.27 154.798 1972.27 151.002 L1972.27 136.303 L1976.53 136.303 L1976.53 162.229 L1972.27 162.229 L1972.27 158.247 Q1970.72 160.608 1968.66 161.766 Q1966.62 162.9 1963.91 162.9 Q1959.44 162.9 1957.13 160.122 Q1954.81 157.344 1954.81 151.997 M1965.53 135.678 L1965.53 135.678 Z" fill="#000000" fill-rule="nonzero" fill-opacity="1" /><path clip-path="url(#clip850)" d="M1989.51 128.942 L1989.51 136.303 L1998.29 136.303 L1998.29 139.613 L1989.51 139.613 L1989.51 153.687 Q1989.51 156.858 1990.37 157.761 Q1991.25 158.664 1993.91 158.664 L1998.29 158.664 L1998.29 162.229 L1993.91 162.229 Q1988.98 162.229 1987.11 160.4 Q1985.23 158.548 1985.23 153.687 L1985.23 139.613 L1982.11 139.613 L1982.11 136.303 L1985.23 136.303 L1985.23 128.942 L1989.51 128.942 Z" fill="#000000" fill-rule="nonzero" fill-opacity="1" /><path clip-path="url(#clip850)" d="M2008.01 158.34 L2008.01 172.09 L2003.73 172.09 L2003.73 136.303 L2008.01 136.303 L2008.01 140.238 Q2009.35 137.923 2011.39 136.812 Q2013.45 135.678 2016.3 135.678 Q2021.02 135.678 2023.96 139.428 Q2026.92 143.178 2026.92 149.289 Q2026.92 155.4 2023.96 159.15 Q2021.02 162.9 2016.3 162.9 Q2013.45 162.9 2011.39 161.789 Q2009.35 160.655 2008.01 158.34 M2022.5 149.289 Q2022.5 144.59 2020.55 141.928 Q2018.63 139.243 2015.25 139.243 Q2011.87 139.243 2009.93 141.928 Q2008.01 144.59 2008.01 149.289 Q2008.01 153.988 2009.93 156.673 Q2011.87 159.335 2015.25 159.335 Q2018.63 159.335 2020.55 156.673 Q2022.5 153.988 2022.5 149.289 Z" fill="#000000" fill-rule="nonzero" fill-opacity="1" /><path clip-path="url(#clip850)" d="M2033.54 151.997 L2033.54 136.303 L2037.8 136.303 L2037.8 151.835 Q2037.8 155.516 2039.24 157.368 Q2040.67 159.196 2043.54 159.196 Q2046.99 159.196 2048.98 156.997 Q2050.99 154.798 2050.99 151.002 L2050.99 136.303 L2055.25 136.303 L2055.25 162.229 L2050.99 162.229 L2050.99 158.247 Q2049.44 160.608 2047.38 161.766 Q2045.35 162.9 2042.64 162.9 Q2038.17 162.9 2035.86 160.122 Q2033.54 157.344 2033.54 151.997 M2044.26 135.678 L2044.26 135.678 Z" fill="#000000" fill-rule="nonzero" fill-opacity="1" /><path clip-path="url(#clip850)" d="M2068.24 128.942 L2068.24 136.303 L2077.01 136.303 L2077.01 139.613 L2068.24 139.613 L2068.24 153.687 Q2068.24 156.858 2069.1 157.761 Q2069.98 158.664 2072.64 158.664 L2077.01 158.664 L2077.01 162.229 L2072.64 162.229 Q2067.71 162.229 2065.83 160.4 Q2063.96 158.548 2063.96 153.687 L2063.96 139.613 L2060.83 139.613 L2060.83 136.303 L2063.96 136.303 L2063.96 128.942 L2068.24 128.942 Z" fill="#000000" fill-rule="nonzero" fill-opacity="1" /><circle clip-path="url(#clip850)" cx="1826.39" cy="196.789" r="20.48" fill="#000000" fill-rule="evenodd" fill-opacity="1" stroke="none"/>
<path clip-path="url(#clip850)" d="M1944.75 193.12 Q1946.34 190.249 1948.56 188.884 Q1950.79 187.518 1953.8 187.518 Q1957.85 187.518 1960.05 190.365 Q1962.25 193.189 1962.25 198.421 L1962.25 214.069 L1957.96 214.069 L1957.96 198.559 Q1957.96 194.833 1956.64 193.027 Q1955.32 191.222 1952.62 191.222 Q1949.31 191.222 1947.38 193.421 Q1945.46 195.62 1945.46 199.416 L1945.46 214.069 L1941.18 214.069 L1941.18 198.559 Q1941.18 194.809 1939.86 193.027 Q1938.54 191.222 1935.79 191.222 Q1932.52 191.222 1930.6 193.444 Q1928.68 195.643 1928.68 199.416 L1928.68 214.069 L1924.4 214.069 L1924.4 188.143 L1928.68 188.143 L1928.68 192.171 Q1930.14 189.786 1932.18 188.652 Q1934.21 187.518 1937.01 187.518 Q1939.84 187.518 1941.81 188.953 Q1943.8 190.388 1944.75 193.12 Z" fill="#000000" fill-rule="nonzero" fill-opacity="1" /><path clip-path="url(#clip850)" d="M1992.92 200.041 L1992.92 202.124 L1973.33 202.124 Q1973.61 206.522 1975.97 208.837 Q1978.36 211.129 1982.59 211.129 Q1985.05 211.129 1987.34 210.527 Q1989.65 209.925 1991.92 208.721 L1991.92 212.749 Q1989.63 213.721 1987.22 214.231 Q1984.81 214.74 1982.34 214.74 Q1976.13 214.74 1972.5 211.129 Q1968.89 207.518 1968.89 201.36 Q1968.89 194.995 1972.31 191.268 Q1975.76 187.518 1981.6 187.518 Q1986.83 187.518 1989.86 190.897 Q1992.92 194.254 1992.92 200.041 M1988.66 198.791 Q1988.61 195.296 1986.69 193.212 Q1984.79 191.129 1981.64 191.129 Q1978.08 191.129 1975.93 193.143 Q1973.8 195.157 1973.47 198.814 L1988.66 198.791 Z" fill="#000000" fill-rule="nonzero" fill-opacity="1" /><path clip-path="url(#clip850)" d="M2011.69 201.036 Q2006.53 201.036 2004.54 202.217 Q2002.55 203.397 2002.55 206.245 Q2002.55 208.513 2004.03 209.856 Q2005.53 211.175 2008.1 211.175 Q2011.64 211.175 2013.77 208.675 Q2015.93 206.152 2015.93 201.985 L2015.93 201.036 L2011.69 201.036 M2020.18 199.277 L2020.18 214.069 L2015.93 214.069 L2015.93 210.133 Q2014.47 212.495 2012.29 213.629 Q2010.12 214.74 2006.97 214.74 Q2002.99 214.74 2000.62 212.518 Q1998.29 210.272 1998.29 206.522 Q1998.29 202.147 2001.2 199.925 Q2004.14 197.703 2009.95 197.703 L2015.93 197.703 L2015.93 197.286 Q2015.93 194.347 2013.98 192.749 Q2012.06 191.129 2008.56 191.129 Q2006.34 191.129 2004.24 191.661 Q2002.13 192.194 2000.18 193.259 L2000.18 189.323 Q2002.52 188.421 2004.72 187.981 Q2006.92 187.518 2009 187.518 Q2014.63 187.518 2017.41 190.434 Q2020.18 193.351 2020.18 199.277 Z" fill="#000000" fill-rule="nonzero" fill-opacity="1" /><path clip-path="url(#clip850)" d="M2045.49 188.907 L2045.49 192.934 Q2043.68 192.009 2041.74 191.546 Q2039.79 191.083 2037.71 191.083 Q2034.54 191.083 2032.94 192.055 Q2031.37 193.027 2031.37 194.971 Q2031.37 196.453 2032.5 197.309 Q2033.63 198.143 2037.06 198.907 L2038.52 199.231 Q2043.05 200.203 2044.95 201.985 Q2046.87 203.745 2046.87 206.916 Q2046.87 210.527 2044 212.633 Q2041.16 214.74 2036.16 214.74 Q2034.07 214.74 2031.8 214.323 Q2029.56 213.93 2027.06 213.12 L2027.06 208.721 Q2029.42 209.948 2031.71 210.573 Q2034 211.175 2036.25 211.175 Q2039.26 211.175 2040.88 210.157 Q2042.5 209.115 2042.5 207.24 Q2042.5 205.504 2041.32 204.578 Q2040.16 203.652 2036.2 202.796 L2034.72 202.448 Q2030.76 201.615 2029 199.902 Q2027.24 198.166 2027.24 195.157 Q2027.24 191.499 2029.84 189.509 Q2032.43 187.518 2037.2 187.518 Q2039.56 187.518 2041.64 187.865 Q2043.73 188.212 2045.49 188.907 Z" fill="#000000" fill-rule="nonzero" fill-opacity="1" /><path clip-path="url(#clip850)" d="M2053.22 203.837 L2053.22 188.143 L2057.48 188.143 L2057.48 203.675 Q2057.48 207.356 2058.91 209.208 Q2060.35 211.036 2063.22 211.036 Q2066.67 211.036 2068.66 208.837 Q2070.67 206.638 2070.67 202.842 L2070.67 188.143 L2074.93 188.143 L2074.93 214.069 L2070.67 214.069 L2070.67 210.087 Q2069.12 212.448 2067.06 213.606 Q2065.02 214.74 2062.31 214.74 Q2057.85 214.74 2055.53 211.962 Q2053.22 209.184 2053.22 203.837 M2063.93 187.518 L2063.93 187.518 Z" fill="#000000" fill-rule="nonzero" fill-opacity="1" /><path clip-path="url(#clip850)" d="M2098.73 192.124 Q2098.01 191.708 2097.15 191.522 Q2096.32 191.314 2095.3 191.314 Q2091.69 191.314 2089.74 193.675 Q2087.82 196.013 2087.82 200.411 L2087.82 214.069 L2083.54 214.069 L2083.54 188.143 L2087.82 188.143 L2087.82 192.171 Q2089.17 189.809 2091.32 188.675 Q2093.47 187.518 2096.55 187.518 Q2096.99 187.518 2097.52 187.587 Q2098.05 187.634 2098.7 187.749 L2098.73 192.124 Z" fill="#000000" fill-rule="nonzero" fill-opacity="1" /><path clip-path="url(#clip850)" d="M2124.33 200.041 L2124.33 202.124 L2104.74 202.124 Q2105.02 206.522 2107.38 208.837 Q2109.77 211.129 2114 211.129 Q2116.46 211.129 2118.75 210.527 Q2121.06 209.925 2123.33 208.721 L2123.33 212.749 Q2121.04 213.721 2118.63 214.231 Q2116.23 214.74 2113.75 214.74 Q2107.55 214.74 2103.91 211.129 Q2100.3 207.518 2100.3 201.36 Q2100.3 194.995 2103.73 191.268 Q2107.17 187.518 2113.01 187.518 Q2118.24 187.518 2121.27 190.897 Q2124.33 194.254 2124.33 200.041 M2120.07 198.791 Q2120.02 195.296 2118.1 193.212 Q2116.2 191.129 2113.05 191.129 Q2109.49 191.129 2107.34 193.143 Q2105.21 195.157 2104.88 198.814 L2120.07 198.791 Z" fill="#000000" fill-rule="nonzero" fill-opacity="1" /><path clip-path="url(#clip850)" d="M2151.5 193.12 Q2153.1 190.249 2155.32 188.884 Q2157.54 187.518 2160.55 187.518 Q2164.61 187.518 2166.8 190.365 Q2169 193.189 2169 198.421 L2169 214.069 L2164.72 214.069 L2164.72 198.559 Q2164.72 194.833 2163.4 193.027 Q2162.08 191.222 2159.37 191.222 Q2156.06 191.222 2154.14 193.421 Q2152.22 195.62 2152.22 199.416 L2152.22 214.069 L2147.94 214.069 L2147.94 198.559 Q2147.94 194.809 2146.62 193.027 Q2145.3 191.222 2142.55 191.222 Q2139.28 191.222 2137.36 193.444 Q2135.44 195.643 2135.44 199.416 L2135.44 214.069 L2131.16 214.069 L2131.16 188.143 L2135.44 188.143 L2135.44 192.171 Q2136.9 189.786 2138.93 188.652 Q2140.97 187.518 2143.77 187.518 Q2146.6 187.518 2148.56 188.953 Q2150.55 190.388 2151.5 193.12 Z" fill="#000000" fill-rule="nonzero" fill-opacity="1" /><path clip-path="url(#clip850)" d="M2199.67 200.041 L2199.67 202.124 L2180.09 202.124 Q2180.37 206.522 2182.73 208.837 Q2185.11 211.129 2189.35 211.129 Q2191.8 211.129 2194.1 210.527 Q2196.41 209.925 2198.68 208.721 L2198.68 212.749 Q2196.39 213.721 2193.98 214.231 Q2191.57 214.74 2189.1 214.74 Q2182.89 214.74 2179.26 211.129 Q2175.65 207.518 2175.65 201.36 Q2175.65 194.995 2179.07 191.268 Q2182.52 187.518 2188.36 187.518 Q2193.59 187.518 2196.62 190.897 Q2199.67 194.254 2199.67 200.041 M2195.42 198.791 Q2195.37 195.296 2193.45 193.212 Q2191.55 191.129 2188.4 191.129 Q2184.84 191.129 2182.68 193.143 Q2180.55 195.157 2180.23 198.814 L2195.42 198.791 Z" fill="#000000" fill-rule="nonzero" fill-opacity="1" /><path clip-path="url(#clip850)" d="M2228.22 198.421 L2228.22 214.069 L2223.96 214.069 L2223.96 198.559 Q2223.96 194.879 2222.52 193.05 Q2221.09 191.222 2218.22 191.222 Q2214.77 191.222 2212.78 193.421 Q2210.79 195.62 2210.79 199.416 L2210.79 214.069 L2206.5 214.069 L2206.5 188.143 L2210.79 188.143 L2210.79 192.171 Q2212.31 189.833 2214.37 188.675 Q2216.46 187.518 2219.17 187.518 Q2223.63 187.518 2225.92 190.296 Q2228.22 193.05 2228.22 198.421 Z" fill="#000000" fill-rule="nonzero" fill-opacity="1" /><path clip-path="url(#clip850)" d="M2240.92 180.782 L2240.92 188.143 L2249.7 188.143 L2249.7 191.453 L2240.92 191.453 L2240.92 205.527 Q2240.92 208.698 2241.78 209.601 Q2242.66 210.504 2245.32 210.504 L2249.7 210.504 L2249.7 214.069 L2245.32 214.069 Q2240.39 214.069 2238.52 212.24 Q2236.64 210.388 2236.64 205.527 L2236.64 191.453 L2233.52 191.453 L2233.52 188.143 L2236.64 188.143 L2236.64 180.782 L2240.92 180.782 Z" fill="#000000" fill-rule="nonzero" fill-opacity="1" /><polyline clip-path="url(#clip850)" style="stroke:#3da44d; stroke-linecap:round; stroke-linejoin:round; stroke-width:4; stroke-opacity:1; fill:none" points="1752.88,248.629 1899.9,248.629 "/>
<path clip-path="url(#clip850)" d="M1940.9 229.89 L1940.9 233.432 L1936.83 233.432 Q1934.54 233.432 1933.63 234.358 Q1932.75 235.284 1932.75 237.691 L1932.75 239.983 L1939.77 239.983 L1939.77 243.293 L1932.75 243.293 L1932.75 265.909 L1928.47 265.909 L1928.47 243.293 L1924.4 243.293 L1924.4 239.983 L1928.47 239.983 L1928.47 238.177 Q1928.47 233.849 1930.49 231.881 Q1932.5 229.89 1936.87 229.89 L1940.9 229.89 Z" fill="#000000" fill-rule="nonzero" fill-opacity="1" /><path clip-path="url(#clip850)" d="M1944.47 239.983 L1948.73 239.983 L1948.73 265.909 L1944.47 265.909 L1944.47 239.983 M1944.47 229.89 L1948.73 229.89 L1948.73 235.284 L1944.47 235.284 L1944.47 229.89 Z" fill="#000000" fill-rule="nonzero" fill-opacity="1" /><path clip-path="url(#clip850)" d="M1957.64 229.89 L1961.9 229.89 L1961.9 265.909 L1957.64 265.909 L1957.64 229.89 Z" fill="#000000" fill-rule="nonzero" fill-opacity="1" /><path clip-path="url(#clip850)" d="M1975.02 232.622 L1975.02 239.983 L1983.8 239.983 L1983.8 243.293 L1975.02 243.293 L1975.02 257.367 Q1975.02 260.538 1975.88 261.441 Q1976.76 262.344 1979.42 262.344 L1983.8 262.344 L1983.8 265.909 L1979.42 265.909 Q1974.49 265.909 1972.62 264.08 Q1970.74 262.228 1970.74 257.367 L1970.74 243.293 L1967.62 243.293 L1967.62 239.983 L1970.74 239.983 L1970.74 232.622 L1975.02 232.622 Z" fill="#000000" fill-rule="nonzero" fill-opacity="1" /><path clip-path="url(#clip850)" d="M2011.57 251.881 L2011.57 253.964 L1991.99 253.964 Q1992.27 258.362 1994.63 260.677 Q1997.01 262.969 2001.25 262.969 Q2003.7 262.969 2005.99 262.367 Q2008.31 261.765 2010.58 260.561 L2010.58 264.589 Q2008.29 265.561 2005.88 266.071 Q2003.47 266.58 2000.99 266.58 Q1994.79 266.58 1991.16 262.969 Q1987.55 259.358 1987.55 253.2 Q1987.55 246.835 1990.97 243.108 Q1994.42 239.358 2000.25 239.358 Q2005.49 239.358 2008.52 242.737 Q2011.57 246.094 2011.57 251.881 M2007.31 250.631 Q2007.27 247.136 2005.35 245.052 Q2003.45 242.969 2000.3 242.969 Q1996.74 242.969 1994.58 244.983 Q1992.45 246.997 1992.13 250.654 L2007.31 250.631 Z" fill="#000000" fill-rule="nonzero" fill-opacity="1" /><path clip-path="url(#clip850)" d="M2033.59 243.964 Q2032.87 243.548 2032.01 243.362 Q2031.18 243.154 2030.16 243.154 Q2026.55 243.154 2024.61 245.515 Q2022.68 247.853 2022.68 252.251 L2022.68 265.909 L2018.4 265.909 L2018.4 239.983 L2022.68 239.983 L2022.68 244.011 Q2024.03 241.649 2026.18 240.515 Q2028.33 239.358 2031.41 239.358 Q2031.85 239.358 2032.38 239.427 Q2032.92 239.474 2033.56 239.589 L2033.59 243.964 Z" fill="#000000" fill-rule="nonzero" fill-opacity="1" /><path clip-path="url(#clip850)" d="M2075.3 251.881 L2075.3 253.964 L2055.72 253.964 Q2055.99 258.362 2058.36 260.677 Q2060.74 262.969 2064.98 262.969 Q2067.43 262.969 2069.72 262.367 Q2072.04 261.765 2074.3 260.561 L2074.3 264.589 Q2072.01 265.561 2069.61 266.071 Q2067.2 266.58 2064.72 266.58 Q2058.52 266.58 2054.88 262.969 Q2051.27 259.358 2051.27 253.2 Q2051.27 246.835 2054.7 243.108 Q2058.15 239.358 2063.98 239.358 Q2069.21 239.358 2072.24 242.737 Q2075.3 246.094 2075.3 251.881 M2071.04 250.631 Q2070.99 247.136 2069.07 245.052 Q2067.18 242.969 2064.03 242.969 Q2060.46 242.969 2058.31 244.983 Q2056.18 246.997 2055.86 250.654 L2071.04 250.631 Z" fill="#000000" fill-rule="nonzero" fill-opacity="1" /><path clip-path="url(#clip850)" d="M2098.82 240.747 L2098.82 244.774 Q2097.01 243.849 2095.07 243.386 Q2093.12 242.923 2091.04 242.923 Q2087.87 242.923 2086.27 243.895 Q2084.7 244.867 2084.7 246.811 Q2084.7 248.293 2085.83 249.149 Q2086.97 249.983 2090.39 250.747 L2091.85 251.071 Q2096.39 252.043 2098.29 253.825 Q2100.21 255.585 2100.21 258.756 Q2100.21 262.367 2097.34 264.473 Q2094.49 266.58 2089.49 266.58 Q2087.41 266.58 2085.14 266.163 Q2082.89 265.77 2080.39 264.96 L2080.39 260.561 Q2082.75 261.788 2085.05 262.413 Q2087.34 263.015 2089.58 263.015 Q2092.59 263.015 2094.21 261.997 Q2095.83 260.955 2095.83 259.08 Q2095.83 257.344 2094.65 256.418 Q2093.49 255.492 2089.54 254.636 L2088.05 254.288 Q2084.1 253.455 2082.34 251.742 Q2080.58 250.006 2080.58 246.997 Q2080.58 243.339 2083.17 241.349 Q2085.76 239.358 2090.53 239.358 Q2092.89 239.358 2094.98 239.705 Q2097.06 240.052 2098.82 240.747 Z" fill="#000000" fill-rule="nonzero" fill-opacity="1" /><path clip-path="url(#clip850)" d="M2111.2 232.622 L2111.2 239.983 L2119.98 239.983 L2119.98 243.293 L2111.2 243.293 L2111.2 257.367 Q2111.2 260.538 2112.06 261.441 Q2112.94 262.344 2115.6 262.344 L2119.98 262.344 L2119.98 265.909 L2115.6 265.909 Q2110.67 265.909 2108.8 264.08 Q2106.92 262.228 2106.92 257.367 L2106.92 243.293 L2103.8 243.293 L2103.8 239.983 L2106.92 239.983 L2106.92 232.622 L2111.2 232.622 Z" fill="#000000" fill-rule="nonzero" fill-opacity="1" /><path clip-path="url(#clip850)" d="M2125.58 239.983 L2129.84 239.983 L2129.84 265.909 L2125.58 265.909 L2125.58 239.983 M2125.58 229.89 L2129.84 229.89 L2129.84 235.284 L2125.58 235.284 L2125.58 229.89 Z" fill="#000000" fill-rule="nonzero" fill-opacity="1" /><path clip-path="url(#clip850)" d="M2158.93 244.96 Q2160.53 242.089 2162.75 240.724 Q2164.98 239.358 2167.98 239.358 Q2172.04 239.358 2174.23 242.205 Q2176.43 245.029 2176.43 250.261 L2176.43 265.909 L2172.15 265.909 L2172.15 250.399 Q2172.15 246.673 2170.83 244.867 Q2169.51 243.062 2166.8 243.062 Q2163.49 243.062 2161.57 245.261 Q2159.65 247.46 2159.65 251.256 L2159.65 265.909 L2155.37 265.909 L2155.37 250.399 Q2155.37 246.649 2154.05 244.867 Q2152.73 243.062 2149.98 243.062 Q2146.71 243.062 2144.79 245.284 Q2142.87 247.483 2142.87 251.256 L2142.87 265.909 L2138.59 265.909 L2138.59 239.983 L2142.87 239.983 L2142.87 244.011 Q2144.33 241.626 2146.36 240.492 Q2148.4 239.358 2151.2 239.358 Q2154.03 239.358 2155.99 240.793 Q2157.98 242.228 2158.93 244.96 Z" fill="#000000" fill-rule="nonzero" fill-opacity="1" /><path clip-path="url(#clip850)" d="M2196.71 252.876 Q2191.55 252.876 2189.56 254.057 Q2187.57 255.237 2187.57 258.085 Q2187.57 260.353 2189.05 261.696 Q2190.55 263.015 2193.12 263.015 Q2196.67 263.015 2198.79 260.515 Q2200.95 257.992 2200.95 253.825 L2200.95 252.876 L2196.71 252.876 M2205.21 251.117 L2205.21 265.909 L2200.95 265.909 L2200.95 261.973 Q2199.49 264.335 2197.31 265.469 Q2195.14 266.58 2191.99 266.58 Q2188.01 266.58 2185.65 264.358 Q2183.31 262.112 2183.31 258.362 Q2183.31 253.987 2186.23 251.765 Q2189.17 249.543 2194.98 249.543 L2200.95 249.543 L2200.95 249.126 Q2200.95 246.187 2199 244.589 Q2197.08 242.969 2193.59 242.969 Q2191.36 242.969 2189.26 243.501 Q2187.15 244.034 2185.21 245.099 L2185.21 241.163 Q2187.54 240.261 2189.74 239.821 Q2191.94 239.358 2194.03 239.358 Q2199.65 239.358 2202.43 242.274 Q2205.21 245.191 2205.21 251.117 Z" fill="#000000" fill-rule="nonzero" fill-opacity="1" /><path clip-path="url(#clip850)" d="M2218.19 232.622 L2218.19 239.983 L2226.97 239.983 L2226.97 243.293 L2218.19 243.293 L2218.19 257.367 Q2218.19 260.538 2219.05 261.441 Q2219.93 262.344 2222.59 262.344 L2226.97 262.344 L2226.97 265.909 L2222.59 265.909 Q2217.66 265.909 2215.79 264.08 Q2213.91 262.228 2213.91 257.367 L2213.91 243.293 L2210.79 243.293 L2210.79 239.983 L2213.91 239.983 L2213.91 232.622 L2218.19 232.622 Z" fill="#000000" fill-rule="nonzero" fill-opacity="1" /><path clip-path="url(#clip850)" d="M2254.74 251.881 L2254.74 253.964 L2235.16 253.964 Q2235.44 258.362 2237.8 260.677 Q2240.18 262.969 2244.42 262.969 Q2246.87 262.969 2249.16 262.367 Q2251.48 261.765 2253.75 260.561 L2253.75 264.589 Q2251.46 265.561 2249.05 266.071 Q2246.64 266.58 2244.16 266.58 Q2237.96 266.58 2234.33 262.969 Q2230.72 259.358 2230.72 253.2 Q2230.72 246.835 2234.14 243.108 Q2237.59 239.358 2243.42 239.358 Q2248.66 239.358 2251.69 242.737 Q2254.74 246.094 2254.74 251.881 M2250.48 250.631 Q2250.44 247.136 2248.52 245.052 Q2246.62 242.969 2243.47 242.969 Q2239.91 242.969 2237.75 244.983 Q2235.62 246.997 2235.3 250.654 L2250.48 250.631 Z" fill="#000000" fill-rule="nonzero" fill-opacity="1" /></svg>
