<?xml version="1.0" encoding="utf-8"?>
<svg xmlns="http://www.w3.org/2000/svg" xmlns:xlink="http://www.w3.org/1999/xlink" width="600" height="400" viewBox="0 0 2400 1600">
<defs>
  <clipPath id="clip150">
    <rect x="0" y="0" width="2400" height="1600"/>
  </clipPath>
</defs>
<path clip-path="url(#clip150)" d="M0 1600 L2400 1600 L2400 0 L0 0  Z" fill="#ffffff" fill-rule="evenodd" fill-opacity="1"/>
<defs>
  <clipPath id="clip151">
    <rect x="480" y="0" width="1681" height="1600"/>
  </clipPath>
</defs>
<path clip-path="url(#clip150)" d="M193.936 1423.18 L2352.76 1423.18 L2352.76 47.2441 L193.936 47.2441  Z" fill="#ffffff" fill-rule="evenodd" fill-opacity="1"/>
<defs>
  <clipPath id="clip152">
    <rect x="193" y="47" width="2160" height="1377"/>
  </clipPath>
</defs>
<polyline clip-path="url(#clip152)" style="stroke:#000000; stroke-linecap:round; stroke-linejoin:round; stroke-width:2; stroke-opacity:0.1; fill:none" points="255.035,1423.18 255.035,47.2441 "/>
<polyline clip-path="url(#clip152)" style="stroke:#000000; stroke-linecap:round; stroke-linejoin:round; stroke-width:2; stroke-opacity:0.1; fill:none" points="662.359,1423.18 662.359,47.2441 "/>
<polyline clip-path="url(#clip152)" style="stroke:#000000; stroke-linecap:round; stroke-linejoin:round; stroke-width:2; stroke-opacity:0.1; fill:none" points="1069.68,1423.18 1069.68,47.2441 "/>
<polyline clip-path="url(#clip152)" style="stroke:#000000; stroke-linecap:round; stroke-linejoin:round; stroke-width:2; stroke-opacity:0.1; fill:none" points="1477.01,1423.18 1477.01,47.2441 "/>
<polyline clip-path="url(#clip152)" style="stroke:#000000; stroke-linecap:round; stroke-linejoin:round; stroke-width:2; stroke-opacity:0.1; fill:none" points="1884.33,1423.18 1884.33,47.2441 "/>
<polyline clip-path="url(#clip152)" style="stroke:#000000; stroke-linecap:round; stroke-linejoin:round; stroke-width:2; stroke-opacity:0.1; fill:none" points="2291.66,1423.18 2291.66,47.2441 "/>
<polyline clip-path="url(#clip150)" style="stroke:#000000; stroke-linecap:round; stroke-linejoin:round; stroke-width:4; stroke-opacity:1; fill:none" points="193.936,1423.18 2352.76,1423.18 "/>
<polyline clip-path="url(#clip150)" style="stroke:#000000; stroke-linecap:round; stroke-linejoin:round; stroke-width:4; stroke-opacity:1; fill:none" points="255.035,1423.18 255.035,1404.28 "/>
<polyline clip-path="url(#clip150)" style="stroke:#000000; stroke-linecap:round; stroke-linejoin:round; stroke-width:4; stroke-opacity:1; fill:none" points="662.359,1423.18 662.359,1404.28 "/>
<polyline clip-path="url(#clip150)" style="stroke:#000000; stroke-linecap:round; stroke-linejoin:round; stroke-width:4; stroke-opacity:1; fill:none" points="1069.68,1423.18 1069.68,1404.28 "/>
<polyline clip-path="url(#clip150)" style="stroke:#000000; stroke-linecap:round; stroke-linejoin:round; stroke-width:4; stroke-opacity:1; fill:none" points="1477.01,1423.18 1477.01,1404.28 "/>
<polyline clip-path="url(#clip150)" style="stroke:#000000; stroke-linecap:round; stroke-linejoin:round; stroke-width:4; stroke-opacity:1; fill:none" points="1884.33,1423.18 1884.33,1404.28 "/>
<polyline clip-path="url(#clip150)" style="stroke:#000000; stroke-linecap:round; stroke-linejoin:round; stroke-width:4; stroke-opacity:1; fill:none" points="2291.66,1423.18 2291.66,1404.28 "/>
<path clip-path="url(#clip150)" d="M255.035 1454.1 Q251.424 1454.1 249.595 1457.66 Q247.789 1461.2 247.789 1468.33 Q247.789 1475.44 249.595 1479.01 Q251.424 1482.55 255.035 1482.55 Q258.669 1482.55 260.474 1479.01 Q262.303 1475.44 262.303 1468.33 Q262.303 1461.2 260.474 1457.66 Q258.669 1454.1 255.035 1454.1 M255.035 1450.39 Q260.845 1450.39 263.9 1455 Q266.979 1459.58 266.979 1468.33 Q266.979 1477.06 263.9 1481.67 Q260.845 1486.25 255.035 1486.25 Q249.225 1486.25 246.146 1481.67 Q243.09 1477.06 243.09 1468.33 Q243.09 1459.58 246.146 1455 Q249.225 1450.39 255.035 1450.39 Z" fill="#000000" fill-rule="nonzero" fill-opacity="1" /><path clip-path="url(#clip150)" d="M652.741 1481.64 L660.38 1481.64 L660.38 1455.28 L652.07 1456.95 L652.07 1452.69 L660.334 1451.02 L665.01 1451.02 L665.01 1481.64 L672.648 1481.64 L672.648 1485.58 L652.741 1485.58 L652.741 1481.64 Z" fill="#000000" fill-rule="nonzero" fill-opacity="1" /><path clip-path="url(#clip150)" d="M1064.34 1481.64 L1080.66 1481.64 L1080.66 1485.58 L1058.71 1485.58 L1058.71 1481.64 Q1061.37 1478.89 1065.96 1474.26 Q1070.56 1469.61 1071.74 1468.27 Q1073.99 1465.74 1074.87 1464.01 Q1075.77 1462.25 1075.77 1460.56 Q1075.77 1457.8 1073.83 1456.07 Q1071.91 1454.33 1068.8 1454.33 Q1066.61 1454.33 1064.15 1455.09 Q1061.72 1455.86 1058.94 1457.41 L1058.94 1452.69 Q1061.77 1451.55 1064.22 1450.97 Q1066.67 1450.39 1068.71 1450.39 Q1074.08 1450.39 1077.28 1453.08 Q1080.47 1455.77 1080.47 1460.26 Q1080.47 1462.39 1079.66 1464.31 Q1078.87 1466.2 1076.77 1468.8 Q1076.19 1469.47 1073.09 1472.69 Q1069.98 1475.88 1064.34 1481.64 Z" fill="#000000" fill-rule="nonzero" fill-opacity="1" /><path clip-path="url(#clip150)" d="M1481.26 1466.95 Q1484.61 1467.66 1486.49 1469.93 Q1488.39 1472.2 1488.39 1475.53 Q1488.39 1480.65 1484.87 1483.45 Q1481.35 1486.25 1474.87 1486.25 Q1472.69 1486.25 1470.38 1485.81 Q1468.08 1485.39 1465.63 1484.54 L1465.63 1480.02 Q1467.58 1481.16 1469.89 1481.74 Q1472.2 1482.32 1474.73 1482.32 Q1479.13 1482.32 1481.42 1480.58 Q1483.73 1478.84 1483.73 1475.53 Q1483.73 1472.48 1481.58 1470.77 Q1479.45 1469.03 1475.63 1469.03 L1471.6 1469.03 L1471.6 1465.19 L1475.82 1465.19 Q1479.27 1465.19 1481.09 1463.82 Q1482.92 1462.43 1482.92 1459.84 Q1482.92 1457.18 1481.02 1455.77 Q1479.15 1454.33 1475.63 1454.33 Q1473.71 1454.33 1471.51 1454.75 Q1469.31 1455.16 1466.67 1456.04 L1466.67 1451.88 Q1469.33 1451.14 1471.65 1450.77 Q1473.99 1450.39 1476.05 1450.39 Q1481.37 1450.39 1484.47 1452.83 Q1487.58 1455.23 1487.58 1459.35 Q1487.58 1462.22 1485.93 1464.21 Q1484.29 1466.18 1481.26 1466.95 Z" fill="#000000" fill-rule="nonzero" fill-opacity="1" /><path clip-path="url(#clip150)" d="M1887.34 1455.09 L1875.54 1473.54 L1887.34 1473.54 L1887.34 1455.09 M1886.12 1451.02 L1891.99 1451.02 L1891.99 1473.54 L1896.93 1473.54 L1896.93 1477.43 L1891.99 1477.43 L1891.99 1485.58 L1887.34 1485.58 L1887.34 1477.43 L1871.74 1477.43 L1871.74 1472.92 L1886.12 1451.02 Z" fill="#000000" fill-rule="nonzero" fill-opacity="1" /><path clip-path="url(#clip150)" d="M2281.94 1451.02 L2300.29 1451.02 L2300.29 1454.96 L2286.22 1454.96 L2286.22 1463.43 Q2287.24 1463.08 2288.25 1462.92 Q2289.27 1462.73 2290.29 1462.73 Q2296.08 1462.73 2299.46 1465.9 Q2302.84 1469.08 2302.84 1474.49 Q2302.84 1480.07 2299.37 1483.17 Q2295.89 1486.25 2289.57 1486.25 Q2287.4 1486.25 2285.13 1485.88 Q2282.88 1485.51 2280.48 1484.77 L2280.48 1480.07 Q2282.56 1481.2 2284.78 1481.76 Q2287 1482.32 2289.48 1482.32 Q2293.49 1482.32 2295.82 1480.21 Q2298.16 1478.1 2298.16 1474.49 Q2298.16 1470.88 2295.82 1468.77 Q2293.49 1466.67 2289.48 1466.67 Q2287.61 1466.67 2285.73 1467.08 Q2283.88 1467.5 2281.94 1468.38 L2281.94 1451.02 Z" fill="#000000" fill-rule="nonzero" fill-opacity="1" /><path clip-path="url(#clip150)" d="M1272.41 1522.27 L1272.41 1532.4 L1284.47 1532.4 L1284.47 1536.95 L1272.41 1536.95 L1272.41 1556.3 Q1272.41 1560.66 1273.58 1561.9 Q1274.79 1563.14 1278.45 1563.14 L1284.47 1563.14 L1284.47 1568.04 L1278.45 1568.04 Q1271.67 1568.04 1269.1 1565.53 Q1266.52 1562.98 1266.52 1556.3 L1266.52 1536.95 L1262.22 1536.95 L1262.22 1532.4 L1266.52 1532.4 L1266.52 1522.27 L1272.41 1522.27 Z" fill="#000000" fill-rule="nonzero" fill-opacity="1" /><polyline clip-path="url(#clip152)" style="stroke:#000000; stroke-linecap:round; stroke-linejoin:round; stroke-width:2; stroke-opacity:0.1; fill:none" points="193.936,1295.05 2352.76,1295.05 "/>
<polyline clip-path="url(#clip152)" style="stroke:#000000; stroke-linecap:round; stroke-linejoin:round; stroke-width:2; stroke-opacity:0.1; fill:none" points="193.936,1111.2 2352.76,1111.2 "/>
<polyline clip-path="url(#clip152)" style="stroke:#000000; stroke-linecap:round; stroke-linejoin:round; stroke-width:2; stroke-opacity:0.1; fill:none" points="193.936,927.343 2352.76,927.343 "/>
<polyline clip-path="url(#clip152)" style="stroke:#000000; stroke-linecap:round; stroke-linejoin:round; stroke-width:2; stroke-opacity:0.1; fill:none" points="193.936,743.491 2352.76,743.491 "/>
<polyline clip-path="url(#clip152)" style="stroke:#000000; stroke-linecap:round; stroke-linejoin:round; stroke-width:2; stroke-opacity:0.1; fill:none" points="193.936,559.638 2352.76,559.638 "/>
<polyline clip-path="url(#clip152)" style="stroke:#000000; stroke-linecap:round; stroke-linejoin:round; stroke-width:2; stroke-opacity:0.1; fill:none" points="193.936,375.785 2352.76,375.785 "/>
<polyline clip-path="url(#clip152)" style="stroke:#000000; stroke-linecap:round; stroke-linejoin:round; stroke-width:2; stroke-opacity:0.1; fill:none" points="193.936,191.932 2352.76,191.932 "/>
<polyline clip-path="url(#clip150)" style="stroke:#000000; stroke-linecap:round; stroke-linejoin:round; stroke-width:4; stroke-opacity:1; fill:none" points="193.936,1423.18 193.936,47.2441 "/>
<polyline clip-path="url(#clip150)" style="stroke:#000000; stroke-linecap:round; stroke-linejoin:round; stroke-width:4; stroke-opacity:1; fill:none" points="193.936,1295.05 212.834,1295.05 "/>
<polyline clip-path="url(#clip150)" style="stroke:#000000; stroke-linecap:round; stroke-linejoin:round; stroke-width:4; stroke-opacity:1; fill:none" points="193.936,1111.2 212.834,1111.2 "/>
<polyline clip-path="url(#clip150)" style="stroke:#000000; stroke-linecap:round; stroke-linejoin:round; stroke-width:4; stroke-opacity:1; fill:none" points="193.936,927.343 212.834,927.343 "/>
<polyline clip-path="url(#clip150)" style="stroke:#000000; stroke-linecap:round; stroke-linejoin:round; stroke-width:4; stroke-opacity:1; fill:none" points="193.936,743.491 212.834,743.491 "/>
<polyline clip-path="url(#clip150)" style="stroke:#000000; stroke-linecap:round; stroke-linejoin:round; stroke-width:4; stroke-opacity:1; fill:none" points="193.936,559.638 212.834,559.638 "/>
<polyline clip-path="url(#clip150)" style="stroke:#000000; stroke-linecap:round; stroke-linejoin:round; stroke-width:4; stroke-opacity:1; fill:none" points="193.936,375.785 212.834,375.785 "/>
<polyline clip-path="url(#clip150)" style="stroke:#000000; stroke-linecap:round; stroke-linejoin:round; stroke-width:4; stroke-opacity:1; fill:none" points="193.936,191.932 212.834,191.932 "/>
<path clip-path="url(#clip150)" d="M51.9875 1295.5 L81.6633 1295.5 L81.6633 1299.44 L51.9875 1299.44 L51.9875 1295.5 Z" fill="#000000" fill-rule="nonzero" fill-opacity="1" /><path clip-path="url(#clip150)" d="M92.566 1308.39 L100.205 1308.39 L100.205 1282.03 L91.8947 1283.69 L91.8947 1279.44 L100.159 1277.77 L104.834 1277.77 L104.834 1308.39 L112.473 1308.39 L112.473 1312.33 L92.566 1312.33 L92.566 1308.39 Z" fill="#000000" fill-rule="nonzero" fill-opacity="1" /><path clip-path="url(#clip150)" d="M121.918 1306.45 L126.802 1306.45 L126.802 1312.33 L121.918 1312.33 L121.918 1306.45 Z" fill="#000000" fill-rule="nonzero" fill-opacity="1" /><path clip-path="url(#clip150)" d="M137.033 1277.77 L155.39 1277.77 L155.39 1281.7 L141.316 1281.7 L141.316 1290.18 Q142.334 1289.83 143.353 1289.67 Q144.371 1289.48 145.39 1289.48 Q151.177 1289.48 154.556 1292.65 Q157.936 1295.82 157.936 1301.24 Q157.936 1306.82 154.464 1309.92 Q150.992 1313 144.672 1313 Q142.496 1313 140.228 1312.63 Q137.982 1312.26 135.575 1311.52 L135.575 1306.82 Q137.658 1307.95 139.881 1308.51 Q142.103 1309.06 144.58 1309.06 Q148.584 1309.06 150.922 1306.96 Q153.26 1304.85 153.26 1301.24 Q153.26 1297.63 150.922 1295.52 Q148.584 1293.42 144.58 1293.42 Q142.705 1293.42 140.83 1293.83 Q138.978 1294.25 137.033 1295.13 L137.033 1277.77 Z" fill="#000000" fill-rule="nonzero" fill-opacity="1" /><path clip-path="url(#clip150)" d="M50.9921 1111.65 L80.6679 1111.65 L80.6679 1115.58 L50.9921 1115.58 L50.9921 1111.65 Z" fill="#000000" fill-rule="nonzero" fill-opacity="1" /><path clip-path="url(#clip150)" d="M91.5706 1124.54 L99.2095 1124.54 L99.2095 1098.18 L90.8993 1099.84 L90.8993 1095.58 L99.1632 1093.92 L103.839 1093.92 L103.839 1124.54 L111.478 1124.54 L111.478 1128.48 L91.5706 1128.48 L91.5706 1124.54 Z" fill="#000000" fill-rule="nonzero" fill-opacity="1" /><path clip-path="url(#clip150)" d="M120.922 1122.6 L125.807 1122.6 L125.807 1128.48 L120.922 1128.48 L120.922 1122.6 Z" fill="#000000" fill-rule="nonzero" fill-opacity="1" /><path clip-path="url(#clip150)" d="M145.992 1096.99 Q142.381 1096.99 140.552 1100.56 Q138.746 1104.1 138.746 1111.23 Q138.746 1118.34 140.552 1121.9 Q142.381 1125.44 145.992 1125.44 Q149.626 1125.44 151.431 1121.9 Q153.26 1118.34 153.26 1111.23 Q153.26 1104.1 151.431 1100.56 Q149.626 1096.99 145.992 1096.99 M145.992 1093.29 Q151.802 1093.29 154.857 1097.9 Q157.936 1102.48 157.936 1111.23 Q157.936 1119.96 154.857 1124.56 Q151.802 1129.15 145.992 1129.15 Q140.181 1129.15 137.103 1124.56 Q134.047 1119.96 134.047 1111.23 Q134.047 1102.48 137.103 1097.9 Q140.181 1093.29 145.992 1093.29 Z" fill="#000000" fill-rule="nonzero" fill-opacity="1" /><path clip-path="url(#clip150)" d="M51.9875 927.795 L81.6633 927.795 L81.6633 931.73 L51.9875 931.73 L51.9875 927.795 Z" fill="#000000" fill-rule="nonzero" fill-opacity="1" /><path clip-path="url(#clip150)" d="M101.756 913.142 Q98.1447 913.142 96.316 916.707 Q94.5104 920.248 94.5104 927.378 Q94.5104 934.484 96.316 938.049 Q98.1447 941.591 101.756 941.591 Q105.39 941.591 107.196 938.049 Q109.024 934.484 109.024 927.378 Q109.024 920.248 107.196 916.707 Q105.39 913.142 101.756 913.142 M101.756 909.438 Q107.566 909.438 110.621 914.045 Q113.7 918.628 113.7 927.378 Q113.7 936.105 110.621 940.711 Q107.566 945.295 101.756 945.295 Q95.9456 945.295 92.8669 940.711 Q89.8114 936.105 89.8114 927.378 Q89.8114 918.628 92.8669 914.045 Q95.9456 909.438 101.756 909.438 Z" fill="#000000" fill-rule="nonzero" fill-opacity="1" /><path clip-path="url(#clip150)" d="M121.918 938.744 L126.802 938.744 L126.802 944.623 L121.918 944.623 L121.918 938.744 Z" fill="#000000" fill-rule="nonzero" fill-opacity="1" /><path clip-path="url(#clip150)" d="M137.033 910.063 L155.39 910.063 L155.39 913.998 L141.316 913.998 L141.316 922.471 Q142.334 922.123 143.353 921.961 Q144.371 921.776 145.39 921.776 Q151.177 921.776 154.556 924.947 Q157.936 928.119 157.936 933.535 Q157.936 939.114 154.464 942.216 Q150.992 945.295 144.672 945.295 Q142.496 945.295 140.228 944.924 Q137.982 944.554 135.575 943.813 L135.575 939.114 Q137.658 940.248 139.881 940.804 Q142.103 941.359 144.58 941.359 Q148.584 941.359 150.922 939.253 Q153.26 937.146 153.26 933.535 Q153.26 929.924 150.922 927.818 Q148.584 925.711 144.58 925.711 Q142.705 925.711 140.83 926.128 Q138.978 926.545 137.033 927.424 L137.033 910.063 Z" fill="#000000" fill-rule="nonzero" fill-opacity="1" /><path clip-path="url(#clip150)" d="M100.76 729.289 Q97.1493 729.289 95.3206 732.854 Q93.515 736.396 93.515 743.525 Q93.515 750.632 95.3206 754.196 Q97.1493 757.738 100.76 757.738 Q104.395 757.738 106.2 754.196 Q108.029 750.632 108.029 743.525 Q108.029 736.396 106.2 732.854 Q104.395 729.289 100.76 729.289 M100.76 725.586 Q106.571 725.586 109.626 730.192 Q112.705 734.775 112.705 743.525 Q112.705 752.252 109.626 756.858 Q106.571 761.442 100.76 761.442 Q94.9502 761.442 91.8715 756.858 Q88.816 752.252 88.816 743.525 Q88.816 734.775 91.8715 730.192 Q94.9502 725.586 100.76 725.586 Z" fill="#000000" fill-rule="nonzero" fill-opacity="1" /><path clip-path="url(#clip150)" d="M120.922 754.891 L125.807 754.891 L125.807 760.771 L120.922 760.771 L120.922 754.891 Z" fill="#000000" fill-rule="nonzero" fill-opacity="1" /><path clip-path="url(#clip150)" d="M145.992 729.289 Q142.381 729.289 140.552 732.854 Q138.746 736.396 138.746 743.525 Q138.746 750.632 140.552 754.196 Q142.381 757.738 145.992 757.738 Q149.626 757.738 151.431 754.196 Q153.26 750.632 153.26 743.525 Q153.26 736.396 151.431 732.854 Q149.626 729.289 145.992 729.289 M145.992 725.586 Q151.802 725.586 154.857 730.192 Q157.936 734.775 157.936 743.525 Q157.936 752.252 154.857 756.858 Q151.802 761.442 145.992 761.442 Q140.181 761.442 137.103 756.858 Q134.047 752.252 134.047 743.525 Q134.047 734.775 137.103 730.192 Q140.181 725.586 145.992 725.586 Z" fill="#000000" fill-rule="nonzero" fill-opacity="1" /><path clip-path="url(#clip150)" d="M101.756 545.436 Q98.1447 545.436 96.316 549.001 Q94.5104 552.543 94.5104 559.672 Q94.5104 566.779 96.316 570.344 Q98.1447 573.885 101.756 573.885 Q105.39 573.885 107.196 570.344 Q109.024 566.779 109.024 559.672 Q109.024 552.543 107.196 549.001 Q105.39 545.436 101.756 545.436 M101.756 541.733 Q107.566 541.733 110.621 546.339 Q113.7 550.923 113.7 559.672 Q113.7 568.399 110.621 573.006 Q107.566 577.589 101.756 577.589 Q95.9456 577.589 92.8669 573.006 Q89.8114 568.399 89.8114 559.672 Q89.8114 550.923 92.8669 546.339 Q95.9456 541.733 101.756 541.733 Z" fill="#000000" fill-rule="nonzero" fill-opacity="1" /><path clip-path="url(#clip150)" d="M121.918 571.038 L126.802 571.038 L126.802 576.918 L121.918 576.918 L121.918 571.038 Z" fill="#000000" fill-rule="nonzero" fill-opacity="1" /><path clip-path="url(#clip150)" d="M137.033 542.358 L155.39 542.358 L155.39 546.293 L141.316 546.293 L141.316 554.765 Q142.334 554.418 143.353 554.256 Q144.371 554.071 145.39 554.071 Q151.177 554.071 154.556 557.242 Q157.936 560.413 157.936 565.83 Q157.936 571.409 154.464 574.51 Q150.992 577.589 144.672 577.589 Q142.496 577.589 140.228 577.219 Q137.982 576.848 135.575 576.108 L135.575 571.409 Q137.658 572.543 139.881 573.098 Q142.103 573.654 144.58 573.654 Q148.584 573.654 150.922 571.547 Q153.26 569.441 153.26 565.83 Q153.26 562.219 150.922 560.112 Q148.584 558.006 144.58 558.006 Q142.705 558.006 140.83 558.422 Q138.978 558.839 137.033 559.719 L137.033 542.358 Z" fill="#000000" fill-rule="nonzero" fill-opacity="1" /><path clip-path="url(#clip150)" d="M91.5706 389.13 L99.2095 389.13 L99.2095 362.764 L90.8993 364.431 L90.8993 360.172 L99.1632 358.505 L103.839 358.505 L103.839 389.13 L111.478 389.13 L111.478 393.065 L91.5706 393.065 L91.5706 389.13 Z" fill="#000000" fill-rule="nonzero" fill-opacity="1" /><path clip-path="url(#clip150)" d="M120.922 387.185 L125.807 387.185 L125.807 393.065 L120.922 393.065 L120.922 387.185 Z" fill="#000000" fill-rule="nonzero" fill-opacity="1" /><path clip-path="url(#clip150)" d="M145.992 361.584 Q142.381 361.584 140.552 365.148 Q138.746 368.69 138.746 375.82 Q138.746 382.926 140.552 386.491 Q142.381 390.033 145.992 390.033 Q149.626 390.033 151.431 386.491 Q153.26 382.926 153.26 375.82 Q153.26 368.69 151.431 365.148 Q149.626 361.584 145.992 361.584 M145.992 357.88 Q151.802 357.88 154.857 362.486 Q157.936 367.07 157.936 375.82 Q157.936 384.546 154.857 389.153 Q151.802 393.736 145.992 393.736 Q140.181 393.736 137.103 389.153 Q134.047 384.546 134.047 375.82 Q134.047 367.07 137.103 362.486 Q140.181 357.88 145.992 357.88 Z" fill="#000000" fill-rule="nonzero" fill-opacity="1" /><path clip-path="url(#clip150)" d="M92.566 205.277 L100.205 205.277 L100.205 178.911 L91.8947 180.578 L91.8947 176.319 L100.159 174.652 L104.834 174.652 L104.834 205.277 L112.473 205.277 L112.473 209.212 L92.566 209.212 L92.566 205.277 Z" fill="#000000" fill-rule="nonzero" fill-opacity="1" /><path clip-path="url(#clip150)" d="M121.918 203.333 L126.802 203.333 L126.802 209.212 L121.918 209.212 L121.918 203.333 Z" fill="#000000" fill-rule="nonzero" fill-opacity="1" /><path clip-path="url(#clip150)" d="M137.033 174.652 L155.39 174.652 L155.39 178.587 L141.316 178.587 L141.316 187.06 Q142.334 186.712 143.353 186.55 Q144.371 186.365 145.39 186.365 Q151.177 186.365 154.556 189.536 Q157.936 192.708 157.936 198.124 Q157.936 203.703 154.464 206.805 Q150.992 209.883 144.672 209.883 Q142.496 209.883 140.228 209.513 Q137.982 209.143 135.575 208.402 L135.575 203.703 Q137.658 204.837 139.881 205.393 Q142.103 205.948 144.58 205.948 Q148.584 205.948 150.922 203.842 Q153.26 201.735 153.26 198.124 Q153.26 194.513 150.922 192.407 Q148.584 190.3 144.58 190.3 Q142.705 190.3 140.83 190.717 Q138.978 191.134 137.033 192.013 L137.033 174.652 Z" fill="#000000" fill-rule="nonzero" fill-opacity="1" /><polyline clip-path="url(#clip152)" style="stroke:#009af9; stroke-linecap:round; stroke-linejoin:round; stroke-width:4; stroke-opacity:1; fill:none" points="255.035,681.738 265.269,678.732 275.503,675.294 285.738,668.392 295.972,657.614 306.206,656.061 316.44,647.52 326.675,644.697 336.909,642.767 347.143,642.1 357.378,635.265 367.612,633.132 377.846,652.031 388.08,672.277 398.315,695.476 408.549,719.264 418.783,746.902 429.018,777.285 439.252,801.859 449.486,820.087 459.72,842.815 469.955,878.654 480.189,913.981 490.423,935.74 500.657,949.03 510.892,959.729 521.126,976.155 531.36,1006.6 541.595,1028.49 551.829,1046 562.063,1068.88 572.297,1100.08 582.532,1131.27 592.766,1156.22 603,1171.78 613.235,1173.89 623.469,1167.71 633.703,1162.49 643.937,1158.29 654.172,1151.94 664.406,1144.72 674.64,1125.77 684.875,1095.39 695.109,1075.21 705.343,1052.52 715.577,1027.09 725.812,1003.48 736.046,985.379 746.28,974.287 756.515,969.738 766.749,974.2 776.983,985.725 787.217,1002.04 797.452,1016.38 807.686,1030.35 817.92,1048.55 828.155,1064.39 838.389,1078.66 848.623,1088.06 858.857,1089.86 869.092,1095.64 879.326,1100.89 889.56,1098.21 899.795,1097.71 910.029,1099.63 920.263,1098.08 930.497,1097.49 940.732,1099.57 950.966,1098.08 961.2,1103.62 971.435,1104.46 981.669,1106.84 991.903,1105.07 1002.14,1096.88 1012.37,1078.52 1022.61,1064.58 1032.84,1052.89 1043.07,1032.72 1053.31,1004.67 1063.54,981.477 1073.78,960.033 1084.01,939.524 1094.25,919.842 1104.48,897.808 1114.71,877.49 1124.95,865.102 1135.18,855.54 1145.42,846.458 1155.65,839.348 1165.89,844.007 1176.12,847.491 1186.35,840.424 1196.59,836.914 1206.82,831.189 1217.06,814.012 1227.29,792.341 1237.53,774.845 1247.76,757.087 1257.99,741.764 1268.23,729.587 1278.46,712.239 1288.7,707.559 1298.93,701.218 1309.17,693.853 1319.4,685.963 1329.63,674.89 1339.87,663.446 1350.1,661.613 1360.34,671.488 1370.57,684.696 1380.81,695.946 1391.04,707.772 1401.27,718.55 1411.51,721.109 1421.74,718.543 1431.98,712.171 1442.21,706.401 1452.45,696.624 1462.68,687.026 1472.91,680.423 1483.15,669.78 1493.38,654.422 1503.62,648.765 1513.85,646.053 1524.09,637.239 1534.32,628.188 1544.55,624.652 1554.79,618.392 1565.02,598.74 1575.26,576.294 1585.49,550.896 1595.73,530.439 1605.96,513.143 1616.19,490.173 1626.43,460.694 1636.66,437.567 1646.9,409.349 1657.13,394.601 1667.37,384.163 1677.6,383.707 1687.83,381.762 1698.07,383.301 1708.3,393.976 1718.54,410.379 1728.77,436.15 1739.01,468.487 1749.24,498.035 1759.47,524.794 1769.71,550.33 1779.94,569.053 1790.18,584.586 1800.41,596.768 1810.65,618.447 1820.88,635.196 1831.11,658.151 1841.35,682.596 1851.58,711.667 1861.82,744.023 1872.05,770.456 1882.29,794.933 1892.52,819.181 1902.75,844.553 1912.99,874.837 1923.22,906.254 1933.46,931.633 1943.69,962.749 1953.93,984.7 1964.16,1008.15 1974.39,1020.34 1984.63,1032.1 1994.86,1049.81 2005.1,1073.73 2015.33,1092.74 2025.57,1107.38 2035.8,1119.55 2046.03,1121.81 2056.27,1126.09 2066.5,1120.52 2076.74,1113.8 2086.97,1102.19 2097.21,1083.25 2107.44,1058.71 2117.67,1034.35 2127.91,1013.27 2138.14,992.179 2148.38,966.425 2158.61,935.195 2168.85,905.948 2179.08,888.392 2189.31,884.72 2199.55,888.871 2209.78,885.798 2220.02,888.701 2230.25,883.245 2240.49,866.907 2250.72,851.654 2260.95,847.251 2271.19,835.532 2281.42,817.247 2291.66,795.44 "/>
<circle clip-path="url(#clip152)" cx="255.035" cy="716.534" r="14.4" fill="#000000" fill-rule="evenodd" fill-opacity="1" stroke="none"/>
<circle clip-path="url(#clip152)" cx="265.269" cy="619.206" r="14.4" fill="#000000" fill-rule="evenodd" fill-opacity="1" stroke="none"/>
<circle clip-path="url(#clip152)" cx="275.503" cy="641.544" r="14.4" fill="#000000" fill-rule="evenodd" fill-opacity="1" stroke="none"/>
<circle clip-path="url(#clip152)" cx="285.738" cy="680.897" r="14.4" fill="#000000" fill-rule="evenodd" fill-opacity="1" stroke="none"/>
<circle clip-path="url(#clip152)" cx="295.972" cy="750.841" r="14.4" fill="#000000" fill-rule="evenodd" fill-opacity="1" stroke="none"/>
<circle clip-path="url(#clip152)" cx="306.206" cy="801.142" r="14.4" fill="#000000" fill-rule="evenodd" fill-opacity="1" stroke="none"/>
<circle clip-path="url(#clip152)" cx="316.44" cy="503.567" r="14.4" fill="#000000" fill-rule="evenodd" fill-opacity="1" stroke="none"/>
<circle clip-path="url(#clip152)" cx="326.675" cy="785.506" r="14.4" fill="#000000" fill-rule="evenodd" fill-opacity="1" stroke="none"/>
<circle clip-path="url(#clip152)" cx="336.909" cy="614.934" r="14.4" fill="#000000" fill-rule="evenodd" fill-opacity="1" stroke="none"/>
<circle clip-path="url(#clip152)" cx="347.143" cy="798.138" r="14.4" fill="#000000" fill-rule="evenodd" fill-opacity="1" stroke="none"/>
<circle clip-path="url(#clip152)" cx="357.378" cy="686.895" r="14.4" fill="#000000" fill-rule="evenodd" fill-opacity="1" stroke="none"/>
<circle clip-path="url(#clip152)" cx="367.612" cy="571.584" r="14.4" fill="#000000" fill-rule="evenodd" fill-opacity="1" stroke="none"/>
<circle clip-path="url(#clip152)" cx="377.846" cy="762.193" r="14.4" fill="#000000" fill-rule="evenodd" fill-opacity="1" stroke="none"/>
<circle clip-path="url(#clip152)" cx="388.08" cy="550.386" r="14.4" fill="#000000" fill-rule="evenodd" fill-opacity="1" stroke="none"/>
<circle clip-path="url(#clip152)" cx="398.315" cy="633.924" r="14.4" fill="#000000" fill-rule="evenodd" fill-opacity="1" stroke="none"/>
<circle clip-path="url(#clip152)" cx="408.549" cy="589.562" r="14.4" fill="#000000" fill-rule="evenodd" fill-opacity="1" stroke="none"/>
<circle clip-path="url(#clip152)" cx="418.783" cy="722.073" r="14.4" fill="#000000" fill-rule="evenodd" fill-opacity="1" stroke="none"/>
<circle clip-path="url(#clip152)" cx="429.018" cy="556.122" r="14.4" fill="#000000" fill-rule="evenodd" fill-opacity="1" stroke="none"/>
<circle clip-path="url(#clip152)" cx="439.252" cy="998.719" r="14.4" fill="#000000" fill-rule="evenodd" fill-opacity="1" stroke="none"/>
<circle clip-path="url(#clip152)" cx="449.486" cy="812.952" r="14.4" fill="#000000" fill-rule="evenodd" fill-opacity="1" stroke="none"/>
<circle clip-path="url(#clip152)" cx="459.72" cy="960.659" r="14.4" fill="#000000" fill-rule="evenodd" fill-opacity="1" stroke="none"/>
<circle clip-path="url(#clip152)" cx="469.955" cy="830.347" r="14.4" fill="#000000" fill-rule="evenodd" fill-opacity="1" stroke="none"/>
<circle clip-path="url(#clip152)" cx="480.189" cy="853.008" r="14.4" fill="#000000" fill-rule="evenodd" fill-opacity="1" stroke="none"/>
<circle clip-path="url(#clip152)" cx="490.423" cy="911.998" r="14.4" fill="#000000" fill-rule="evenodd" fill-opacity="1" stroke="none"/>
<circle clip-path="url(#clip152)" cx="500.657" cy="1065.89" r="14.4" fill="#000000" fill-rule="evenodd" fill-opacity="1" stroke="none"/>
<circle clip-path="url(#clip152)" cx="510.892" cy="948.931" r="14.4" fill="#000000" fill-rule="evenodd" fill-opacity="1" stroke="none"/>
<circle clip-path="url(#clip152)" cx="521.126" cy="1140.58" r="14.4" fill="#000000" fill-rule="evenodd" fill-opacity="1" stroke="none"/>
<circle clip-path="url(#clip152)" cx="531.36" cy="1100.5" r="14.4" fill="#000000" fill-rule="evenodd" fill-opacity="1" stroke="none"/>
<circle clip-path="url(#clip152)" cx="541.595" cy="1166.31" r="14.4" fill="#000000" fill-rule="evenodd" fill-opacity="1" stroke="none"/>
<circle clip-path="url(#clip152)" cx="551.829" cy="944.445" r="14.4" fill="#000000" fill-rule="evenodd" fill-opacity="1" stroke="none"/>
<circle clip-path="url(#clip152)" cx="562.063" cy="980.449" r="14.4" fill="#000000" fill-rule="evenodd" fill-opacity="1" stroke="none"/>
<circle clip-path="url(#clip152)" cx="572.297" cy="1161.25" r="14.4" fill="#000000" fill-rule="evenodd" fill-opacity="1" stroke="none"/>
<circle clip-path="url(#clip152)" cx="582.532" cy="1280.66" r="14.4" fill="#000000" fill-rule="evenodd" fill-opacity="1" stroke="none"/>
<circle clip-path="url(#clip152)" cx="592.766" cy="1102" r="14.4" fill="#000000" fill-rule="evenodd" fill-opacity="1" stroke="none"/>
<circle clip-path="url(#clip152)" cx="603" cy="1153.1" r="14.4" fill="#000000" fill-rule="evenodd" fill-opacity="1" stroke="none"/>
<circle clip-path="url(#clip152)" cx="613.235" cy="1262.59" r="14.4" fill="#000000" fill-rule="evenodd" fill-opacity="1" stroke="none"/>
<circle clip-path="url(#clip152)" cx="623.469" cy="1129.57" r="14.4" fill="#000000" fill-rule="evenodd" fill-opacity="1" stroke="none"/>
<circle clip-path="url(#clip152)" cx="633.703" cy="1208.73" r="14.4" fill="#000000" fill-rule="evenodd" fill-opacity="1" stroke="none"/>
<circle clip-path="url(#clip152)" cx="643.937" cy="1013.64" r="14.4" fill="#000000" fill-rule="evenodd" fill-opacity="1" stroke="none"/>
<circle clip-path="url(#clip152)" cx="654.172" cy="1202.36" r="14.4" fill="#000000" fill-rule="evenodd" fill-opacity="1" stroke="none"/>
<circle clip-path="url(#clip152)" cx="664.406" cy="1254.34" r="14.4" fill="#000000" fill-rule="evenodd" fill-opacity="1" stroke="none"/>
<circle clip-path="url(#clip152)" cx="674.64" cy="1305.34" r="14.4" fill="#000000" fill-rule="evenodd" fill-opacity="1" stroke="none"/>
<circle clip-path="url(#clip152)" cx="684.875" cy="1213.65" r="14.4" fill="#000000" fill-rule="evenodd" fill-opacity="1" stroke="none"/>
<circle clip-path="url(#clip152)" cx="695.109" cy="977.808" r="14.4" fill="#000000" fill-rule="evenodd" fill-opacity="1" stroke="none"/>
<circle clip-path="url(#clip152)" cx="705.343" cy="1081.15" r="14.4" fill="#000000" fill-rule="evenodd" fill-opacity="1" stroke="none"/>
<circle clip-path="url(#clip152)" cx="715.577" cy="911.037" r="14.4" fill="#000000" fill-rule="evenodd" fill-opacity="1" stroke="none"/>
<circle clip-path="url(#clip152)" cx="725.812" cy="872.05" r="14.4" fill="#000000" fill-rule="evenodd" fill-opacity="1" stroke="none"/>
<circle clip-path="url(#clip152)" cx="736.046" cy="904.259" r="14.4" fill="#000000" fill-rule="evenodd" fill-opacity="1" stroke="none"/>
<circle clip-path="url(#clip152)" cx="746.28" cy="840.111" r="14.4" fill="#000000" fill-rule="evenodd" fill-opacity="1" stroke="none"/>
<circle clip-path="url(#clip152)" cx="756.515" cy="771.64" r="14.4" fill="#000000" fill-rule="evenodd" fill-opacity="1" stroke="none"/>
<circle clip-path="url(#clip152)" cx="766.749" cy="1066.94" r="14.4" fill="#000000" fill-rule="evenodd" fill-opacity="1" stroke="none"/>
<circle clip-path="url(#clip152)" cx="776.983" cy="1092.95" r="14.4" fill="#000000" fill-rule="evenodd" fill-opacity="1" stroke="none"/>
<circle clip-path="url(#clip152)" cx="787.217" cy="1293.69" r="14.4" fill="#000000" fill-rule="evenodd" fill-opacity="1" stroke="none"/>
<circle clip-path="url(#clip152)" cx="797.452" cy="945.613" r="14.4" fill="#000000" fill-rule="evenodd" fill-opacity="1" stroke="none"/>
<circle clip-path="url(#clip152)" cx="807.686" cy="1060" r="14.4" fill="#000000" fill-rule="evenodd" fill-opacity="1" stroke="none"/>
<circle clip-path="url(#clip152)" cx="817.92" cy="1090.56" r="14.4" fill="#000000" fill-rule="evenodd" fill-opacity="1" stroke="none"/>
<circle clip-path="url(#clip152)" cx="828.155" cy="973.305" r="14.4" fill="#000000" fill-rule="evenodd" fill-opacity="1" stroke="none"/>
<circle clip-path="url(#clip152)" cx="838.389" cy="746.757" r="14.4" fill="#000000" fill-rule="evenodd" fill-opacity="1" stroke="none"/>
<circle clip-path="url(#clip152)" cx="848.623" cy="1075.16" r="14.4" fill="#000000" fill-rule="evenodd" fill-opacity="1" stroke="none"/>
<circle clip-path="url(#clip152)" cx="858.857" cy="1232.43" r="14.4" fill="#000000" fill-rule="evenodd" fill-opacity="1" stroke="none"/>
<circle clip-path="url(#clip152)" cx="869.092" cy="1132.02" r="14.4" fill="#000000" fill-rule="evenodd" fill-opacity="1" stroke="none"/>
<circle clip-path="url(#clip152)" cx="879.326" cy="980.259" r="14.4" fill="#000000" fill-rule="evenodd" fill-opacity="1" stroke="none"/>
<circle clip-path="url(#clip152)" cx="889.56" cy="1196.75" r="14.4" fill="#000000" fill-rule="evenodd" fill-opacity="1" stroke="none"/>
<circle clip-path="url(#clip152)" cx="899.795" cy="868.182" r="14.4" fill="#000000" fill-rule="evenodd" fill-opacity="1" stroke="none"/>
<circle clip-path="url(#clip152)" cx="910.029" cy="1075.87" r="14.4" fill="#000000" fill-rule="evenodd" fill-opacity="1" stroke="none"/>
<circle clip-path="url(#clip152)" cx="920.263" cy="1252.84" r="14.4" fill="#000000" fill-rule="evenodd" fill-opacity="1" stroke="none"/>
<circle clip-path="url(#clip152)" cx="930.497" cy="1121.52" r="14.4" fill="#000000" fill-rule="evenodd" fill-opacity="1" stroke="none"/>
<circle clip-path="url(#clip152)" cx="940.732" cy="1191.82" r="14.4" fill="#000000" fill-rule="evenodd" fill-opacity="1" stroke="none"/>
<circle clip-path="url(#clip152)" cx="950.966" cy="1384.24" r="14.4" fill="#000000" fill-rule="evenodd" fill-opacity="1" stroke="none"/>
<circle clip-path="url(#clip152)" cx="961.2" cy="1065.23" r="14.4" fill="#000000" fill-rule="evenodd" fill-opacity="1" stroke="none"/>
<circle clip-path="url(#clip152)" cx="971.435" cy="1086.66" r="14.4" fill="#000000" fill-rule="evenodd" fill-opacity="1" stroke="none"/>
<circle clip-path="url(#clip152)" cx="981.669" cy="932.457" r="14.4" fill="#000000" fill-rule="evenodd" fill-opacity="1" stroke="none"/>
<circle clip-path="url(#clip152)" cx="991.903" cy="1131.71" r="14.4" fill="#000000" fill-rule="evenodd" fill-opacity="1" stroke="none"/>
<circle clip-path="url(#clip152)" cx="1002.14" cy="1076.36" r="14.4" fill="#000000" fill-rule="evenodd" fill-opacity="1" stroke="none"/>
<circle clip-path="url(#clip152)" cx="1012.37" cy="1137.21" r="14.4" fill="#000000" fill-rule="evenodd" fill-opacity="1" stroke="none"/>
<circle clip-path="url(#clip152)" cx="1022.61" cy="784.209" r="14.4" fill="#000000" fill-rule="evenodd" fill-opacity="1" stroke="none"/>
<circle clip-path="url(#clip152)" cx="1032.84" cy="1108.27" r="14.4" fill="#000000" fill-rule="evenodd" fill-opacity="1" stroke="none"/>
<circle clip-path="url(#clip152)" cx="1043.07" cy="1034.03" r="14.4" fill="#000000" fill-rule="evenodd" fill-opacity="1" stroke="none"/>
<circle clip-path="url(#clip152)" cx="1053.31" cy="942.975" r="14.4" fill="#000000" fill-rule="evenodd" fill-opacity="1" stroke="none"/>
<circle clip-path="url(#clip152)" cx="1063.54" cy="960.62" r="14.4" fill="#000000" fill-rule="evenodd" fill-opacity="1" stroke="none"/>
<circle clip-path="url(#clip152)" cx="1073.78" cy="1260.33" r="14.4" fill="#000000" fill-rule="evenodd" fill-opacity="1" stroke="none"/>
<circle clip-path="url(#clip152)" cx="1084.01" cy="785.128" r="14.4" fill="#000000" fill-rule="evenodd" fill-opacity="1" stroke="none"/>
<circle clip-path="url(#clip152)" cx="1094.25" cy="1258.45" r="14.4" fill="#000000" fill-rule="evenodd" fill-opacity="1" stroke="none"/>
<circle clip-path="url(#clip152)" cx="1104.48" cy="907.219" r="14.4" fill="#000000" fill-rule="evenodd" fill-opacity="1" stroke="none"/>
<circle clip-path="url(#clip152)" cx="1114.71" cy="688.08" r="14.4" fill="#000000" fill-rule="evenodd" fill-opacity="1" stroke="none"/>
<circle clip-path="url(#clip152)" cx="1124.95" cy="643.93" r="14.4" fill="#000000" fill-rule="evenodd" fill-opacity="1" stroke="none"/>
<circle clip-path="url(#clip152)" cx="1135.18" cy="959.109" r="14.4" fill="#000000" fill-rule="evenodd" fill-opacity="1" stroke="none"/>
<circle clip-path="url(#clip152)" cx="1145.42" cy="795.643" r="14.4" fill="#000000" fill-rule="evenodd" fill-opacity="1" stroke="none"/>
<circle clip-path="url(#clip152)" cx="1155.65" cy="575.121" r="14.4" fill="#000000" fill-rule="evenodd" fill-opacity="1" stroke="none"/>
<circle clip-path="url(#clip152)" cx="1165.89" cy="786.639" r="14.4" fill="#000000" fill-rule="evenodd" fill-opacity="1" stroke="none"/>
<circle clip-path="url(#clip152)" cx="1176.12" cy="670.636" r="14.4" fill="#000000" fill-rule="evenodd" fill-opacity="1" stroke="none"/>
<circle clip-path="url(#clip152)" cx="1186.35" cy="751.427" r="14.4" fill="#000000" fill-rule="evenodd" fill-opacity="1" stroke="none"/>
<circle clip-path="url(#clip152)" cx="1196.59" cy="992.64" r="14.4" fill="#000000" fill-rule="evenodd" fill-opacity="1" stroke="none"/>
<circle clip-path="url(#clip152)" cx="1206.82" cy="1061.62" r="14.4" fill="#000000" fill-rule="evenodd" fill-opacity="1" stroke="none"/>
<circle clip-path="url(#clip152)" cx="1217.06" cy="721.287" r="14.4" fill="#000000" fill-rule="evenodd" fill-opacity="1" stroke="none"/>
<circle clip-path="url(#clip152)" cx="1227.29" cy="1066.85" r="14.4" fill="#000000" fill-rule="evenodd" fill-opacity="1" stroke="none"/>
<circle clip-path="url(#clip152)" cx="1237.53" cy="856.735" r="14.4" fill="#000000" fill-rule="evenodd" fill-opacity="1" stroke="none"/>
<circle clip-path="url(#clip152)" cx="1247.76" cy="605.6" r="14.4" fill="#000000" fill-rule="evenodd" fill-opacity="1" stroke="none"/>
<circle clip-path="url(#clip152)" cx="1257.99" cy="818.828" r="14.4" fill="#000000" fill-rule="evenodd" fill-opacity="1" stroke="none"/>
<circle clip-path="url(#clip152)" cx="1268.23" cy="846.527" r="14.4" fill="#000000" fill-rule="evenodd" fill-opacity="1" stroke="none"/>
<circle clip-path="url(#clip152)" cx="1278.46" cy="577.965" r="14.4" fill="#000000" fill-rule="evenodd" fill-opacity="1" stroke="none"/>
<circle clip-path="url(#clip152)" cx="1288.7" cy="646.52" r="14.4" fill="#000000" fill-rule="evenodd" fill-opacity="1" stroke="none"/>
<circle clip-path="url(#clip152)" cx="1298.93" cy="643.011" r="14.4" fill="#000000" fill-rule="evenodd" fill-opacity="1" stroke="none"/>
<circle clip-path="url(#clip152)" cx="1309.17" cy="660.232" r="14.4" fill="#000000" fill-rule="evenodd" fill-opacity="1" stroke="none"/>
<circle clip-path="url(#clip152)" cx="1319.4" cy="483.457" r="14.4" fill="#000000" fill-rule="evenodd" fill-opacity="1" stroke="none"/>
<circle clip-path="url(#clip152)" cx="1329.63" cy="552.139" r="14.4" fill="#000000" fill-rule="evenodd" fill-opacity="1" stroke="none"/>
<circle clip-path="url(#clip152)" cx="1339.87" cy="801.858" r="14.4" fill="#000000" fill-rule="evenodd" fill-opacity="1" stroke="none"/>
<circle clip-path="url(#clip152)" cx="1350.1" cy="659.657" r="14.4" fill="#000000" fill-rule="evenodd" fill-opacity="1" stroke="none"/>
<circle clip-path="url(#clip152)" cx="1360.34" cy="745.831" r="14.4" fill="#000000" fill-rule="evenodd" fill-opacity="1" stroke="none"/>
<circle clip-path="url(#clip152)" cx="1370.57" cy="669.785" r="14.4" fill="#000000" fill-rule="evenodd" fill-opacity="1" stroke="none"/>
<circle clip-path="url(#clip152)" cx="1380.81" cy="906.172" r="14.4" fill="#000000" fill-rule="evenodd" fill-opacity="1" stroke="none"/>
<circle clip-path="url(#clip152)" cx="1391.04" cy="612.419" r="14.4" fill="#000000" fill-rule="evenodd" fill-opacity="1" stroke="none"/>
<circle clip-path="url(#clip152)" cx="1401.27" cy="702.489" r="14.4" fill="#000000" fill-rule="evenodd" fill-opacity="1" stroke="none"/>
<circle clip-path="url(#clip152)" cx="1411.51" cy="717.458" r="14.4" fill="#000000" fill-rule="evenodd" fill-opacity="1" stroke="none"/>
<circle clip-path="url(#clip152)" cx="1421.74" cy="821.634" r="14.4" fill="#000000" fill-rule="evenodd" fill-opacity="1" stroke="none"/>
<circle clip-path="url(#clip152)" cx="1431.98" cy="762.959" r="14.4" fill="#000000" fill-rule="evenodd" fill-opacity="1" stroke="none"/>
<circle clip-path="url(#clip152)" cx="1442.21" cy="672.788" r="14.4" fill="#000000" fill-rule="evenodd" fill-opacity="1" stroke="none"/>
<circle clip-path="url(#clip152)" cx="1452.45" cy="670.537" r="14.4" fill="#000000" fill-rule="evenodd" fill-opacity="1" stroke="none"/>
<circle clip-path="url(#clip152)" cx="1462.68" cy="574.782" r="14.4" fill="#000000" fill-rule="evenodd" fill-opacity="1" stroke="none"/>
<circle clip-path="url(#clip152)" cx="1472.91" cy="924.439" r="14.4" fill="#000000" fill-rule="evenodd" fill-opacity="1" stroke="none"/>
<circle clip-path="url(#clip152)" cx="1483.15" cy="801.286" r="14.4" fill="#000000" fill-rule="evenodd" fill-opacity="1" stroke="none"/>
<circle clip-path="url(#clip152)" cx="1493.38" cy="504.368" r="14.4" fill="#000000" fill-rule="evenodd" fill-opacity="1" stroke="none"/>
<circle clip-path="url(#clip152)" cx="1503.62" cy="572.904" r="14.4" fill="#000000" fill-rule="evenodd" fill-opacity="1" stroke="none"/>
<circle clip-path="url(#clip152)" cx="1513.85" cy="719.085" r="14.4" fill="#000000" fill-rule="evenodd" fill-opacity="1" stroke="none"/>
<circle clip-path="url(#clip152)" cx="1524.09" cy="450.647" r="14.4" fill="#000000" fill-rule="evenodd" fill-opacity="1" stroke="none"/>
<circle clip-path="url(#clip152)" cx="1534.32" cy="511.883" r="14.4" fill="#000000" fill-rule="evenodd" fill-opacity="1" stroke="none"/>
<circle clip-path="url(#clip152)" cx="1544.55" cy="819.386" r="14.4" fill="#000000" fill-rule="evenodd" fill-opacity="1" stroke="none"/>
<circle clip-path="url(#clip152)" cx="1554.79" cy="552.848" r="14.4" fill="#000000" fill-rule="evenodd" fill-opacity="1" stroke="none"/>
<circle clip-path="url(#clip152)" cx="1565.02" cy="443.266" r="14.4" fill="#000000" fill-rule="evenodd" fill-opacity="1" stroke="none"/>
<circle clip-path="url(#clip152)" cx="1575.26" cy="638.811" r="14.4" fill="#000000" fill-rule="evenodd" fill-opacity="1" stroke="none"/>
<circle clip-path="url(#clip152)" cx="1585.49" cy="399.113" r="14.4" fill="#000000" fill-rule="evenodd" fill-opacity="1" stroke="none"/>
<circle clip-path="url(#clip152)" cx="1595.73" cy="632.693" r="14.4" fill="#000000" fill-rule="evenodd" fill-opacity="1" stroke="none"/>
<circle clip-path="url(#clip152)" cx="1605.96" cy="629.954" r="14.4" fill="#000000" fill-rule="evenodd" fill-opacity="1" stroke="none"/>
<circle clip-path="url(#clip152)" cx="1616.19" cy="533.973" r="14.4" fill="#000000" fill-rule="evenodd" fill-opacity="1" stroke="none"/>
<circle clip-path="url(#clip152)" cx="1626.43" cy="557.395" r="14.4" fill="#000000" fill-rule="evenodd" fill-opacity="1" stroke="none"/>
<circle clip-path="url(#clip152)" cx="1636.66" cy="405.621" r="14.4" fill="#000000" fill-rule="evenodd" fill-opacity="1" stroke="none"/>
<circle clip-path="url(#clip152)" cx="1646.9" cy="569.881" r="14.4" fill="#000000" fill-rule="evenodd" fill-opacity="1" stroke="none"/>
<circle clip-path="url(#clip152)" cx="1657.13" cy="337.346" r="14.4" fill="#000000" fill-rule="evenodd" fill-opacity="1" stroke="none"/>
<circle clip-path="url(#clip152)" cx="1667.37" cy="404.808" r="14.4" fill="#000000" fill-rule="evenodd" fill-opacity="1" stroke="none"/>
<circle clip-path="url(#clip152)" cx="1677.6" cy="86.1857" r="14.4" fill="#000000" fill-rule="evenodd" fill-opacity="1" stroke="none"/>
<circle clip-path="url(#clip152)" cx="1687.83" cy="353.633" r="14.4" fill="#000000" fill-rule="evenodd" fill-opacity="1" stroke="none"/>
<circle clip-path="url(#clip152)" cx="1698.07" cy="362.32" r="14.4" fill="#000000" fill-rule="evenodd" fill-opacity="1" stroke="none"/>
<circle clip-path="url(#clip152)" cx="1708.3" cy="188.33" r="14.4" fill="#000000" fill-rule="evenodd" fill-opacity="1" stroke="none"/>
<circle clip-path="url(#clip152)" cx="1718.54" cy="513.625" r="14.4" fill="#000000" fill-rule="evenodd" fill-opacity="1" stroke="none"/>
<circle clip-path="url(#clip152)" cx="1728.77" cy="512.299" r="14.4" fill="#000000" fill-rule="evenodd" fill-opacity="1" stroke="none"/>
<circle clip-path="url(#clip152)" cx="1739.01" cy="519.038" r="14.4" fill="#000000" fill-rule="evenodd" fill-opacity="1" stroke="none"/>
<circle clip-path="url(#clip152)" cx="1749.24" cy="451.908" r="14.4" fill="#000000" fill-rule="evenodd" fill-opacity="1" stroke="none"/>
<circle clip-path="url(#clip152)" cx="1759.47" cy="439.037" r="14.4" fill="#000000" fill-rule="evenodd" fill-opacity="1" stroke="none"/>
<circle clip-path="url(#clip152)" cx="1769.71" cy="719.601" r="14.4" fill="#000000" fill-rule="evenodd" fill-opacity="1" stroke="none"/>
<circle clip-path="url(#clip152)" cx="1779.94" cy="586.52" r="14.4" fill="#000000" fill-rule="evenodd" fill-opacity="1" stroke="none"/>
<circle clip-path="url(#clip152)" cx="1790.18" cy="442.515" r="14.4" fill="#000000" fill-rule="evenodd" fill-opacity="1" stroke="none"/>
<circle clip-path="url(#clip152)" cx="1800.41" cy="532.025" r="14.4" fill="#000000" fill-rule="evenodd" fill-opacity="1" stroke="none"/>
<circle clip-path="url(#clip152)" cx="1810.65" cy="572.764" r="14.4" fill="#000000" fill-rule="evenodd" fill-opacity="1" stroke="none"/>
<circle clip-path="url(#clip152)" cx="1820.88" cy="651.731" r="14.4" fill="#000000" fill-rule="evenodd" fill-opacity="1" stroke="none"/>
<circle clip-path="url(#clip152)" cx="1831.11" cy="835.015" r="14.4" fill="#000000" fill-rule="evenodd" fill-opacity="1" stroke="none"/>
<circle clip-path="url(#clip152)" cx="1841.35" cy="481.68" r="14.4" fill="#000000" fill-rule="evenodd" fill-opacity="1" stroke="none"/>
<circle clip-path="url(#clip152)" cx="1851.58" cy="465.113" r="14.4" fill="#000000" fill-rule="evenodd" fill-opacity="1" stroke="none"/>
<circle clip-path="url(#clip152)" cx="1861.82" cy="882.058" r="14.4" fill="#000000" fill-rule="evenodd" fill-opacity="1" stroke="none"/>
<circle clip-path="url(#clip152)" cx="1872.05" cy="660.421" r="14.4" fill="#000000" fill-rule="evenodd" fill-opacity="1" stroke="none"/>
<circle clip-path="url(#clip152)" cx="1882.29" cy="709.82" r="14.4" fill="#000000" fill-rule="evenodd" fill-opacity="1" stroke="none"/>
<circle clip-path="url(#clip152)" cx="1892.52" cy="912.041" r="14.4" fill="#000000" fill-rule="evenodd" fill-opacity="1" stroke="none"/>
<circle clip-path="url(#clip152)" cx="1902.75" cy="723.556" r="14.4" fill="#000000" fill-rule="evenodd" fill-opacity="1" stroke="none"/>
<circle clip-path="url(#clip152)" cx="1912.99" cy="885.575" r="14.4" fill="#000000" fill-rule="evenodd" fill-opacity="1" stroke="none"/>
<circle clip-path="url(#clip152)" cx="1923.22" cy="964.685" r="14.4" fill="#000000" fill-rule="evenodd" fill-opacity="1" stroke="none"/>
<circle clip-path="url(#clip152)" cx="1933.46" cy="631.611" r="14.4" fill="#000000" fill-rule="evenodd" fill-opacity="1" stroke="none"/>
<circle clip-path="url(#clip152)" cx="1943.69" cy="963.993" r="14.4" fill="#000000" fill-rule="evenodd" fill-opacity="1" stroke="none"/>
<circle clip-path="url(#clip152)" cx="1953.93" cy="1007.55" r="14.4" fill="#000000" fill-rule="evenodd" fill-opacity="1" stroke="none"/>
<circle clip-path="url(#clip152)" cx="1964.16" cy="1193.26" r="14.4" fill="#000000" fill-rule="evenodd" fill-opacity="1" stroke="none"/>
<circle clip-path="url(#clip152)" cx="1974.39" cy="788.045" r="14.4" fill="#000000" fill-rule="evenodd" fill-opacity="1" stroke="none"/>
<circle clip-path="url(#clip152)" cx="1984.63" cy="1087.93" r="14.4" fill="#000000" fill-rule="evenodd" fill-opacity="1" stroke="none"/>
<circle clip-path="url(#clip152)" cx="1994.86" cy="1039.16" r="14.4" fill="#000000" fill-rule="evenodd" fill-opacity="1" stroke="none"/>
<circle clip-path="url(#clip152)" cx="2005.1" cy="984.36" r="14.4" fill="#000000" fill-rule="evenodd" fill-opacity="1" stroke="none"/>
<circle clip-path="url(#clip152)" cx="2015.33" cy="980.432" r="14.4" fill="#000000" fill-rule="evenodd" fill-opacity="1" stroke="none"/>
<circle clip-path="url(#clip152)" cx="2025.57" cy="1076.22" r="14.4" fill="#000000" fill-rule="evenodd" fill-opacity="1" stroke="none"/>
<circle clip-path="url(#clip152)" cx="2035.8" cy="1141.79" r="14.4" fill="#000000" fill-rule="evenodd" fill-opacity="1" stroke="none"/>
<circle clip-path="url(#clip152)" cx="2046.03" cy="1114.22" r="14.4" fill="#000000" fill-rule="evenodd" fill-opacity="1" stroke="none"/>
<circle clip-path="url(#clip152)" cx="2056.27" cy="1056.19" r="14.4" fill="#000000" fill-rule="evenodd" fill-opacity="1" stroke="none"/>
<circle clip-path="url(#clip152)" cx="2066.5" cy="1151.16" r="14.4" fill="#000000" fill-rule="evenodd" fill-opacity="1" stroke="none"/>
<circle clip-path="url(#clip152)" cx="2076.74" cy="1159.54" r="14.4" fill="#000000" fill-rule="evenodd" fill-opacity="1" stroke="none"/>
<circle clip-path="url(#clip152)" cx="2086.97" cy="1111.98" r="14.4" fill="#000000" fill-rule="evenodd" fill-opacity="1" stroke="none"/>
<circle clip-path="url(#clip152)" cx="2097.21" cy="1041.14" r="14.4" fill="#000000" fill-rule="evenodd" fill-opacity="1" stroke="none"/>
<circle clip-path="url(#clip152)" cx="2107.44" cy="1133.28" r="14.4" fill="#000000" fill-rule="evenodd" fill-opacity="1" stroke="none"/>
<circle clip-path="url(#clip152)" cx="2117.67" cy="1101.27" r="14.4" fill="#000000" fill-rule="evenodd" fill-opacity="1" stroke="none"/>
<circle clip-path="url(#clip152)" cx="2127.91" cy="943.15" r="14.4" fill="#000000" fill-rule="evenodd" fill-opacity="1" stroke="none"/>
<circle clip-path="url(#clip152)" cx="2138.14" cy="1253.94" r="14.4" fill="#000000" fill-rule="evenodd" fill-opacity="1" stroke="none"/>
<circle clip-path="url(#clip152)" cx="2148.38" cy="1023.16" r="14.4" fill="#000000" fill-rule="evenodd" fill-opacity="1" stroke="none"/>
<circle clip-path="url(#clip152)" cx="2158.61" cy="823.793" r="14.4" fill="#000000" fill-rule="evenodd" fill-opacity="1" stroke="none"/>
<circle clip-path="url(#clip152)" cx="2168.85" cy="778.324" r="14.4" fill="#000000" fill-rule="evenodd" fill-opacity="1" stroke="none"/>
<circle clip-path="url(#clip152)" cx="2179.08" cy="558.313" r="14.4" fill="#000000" fill-rule="evenodd" fill-opacity="1" stroke="none"/>
<circle clip-path="url(#clip152)" cx="2189.31" cy="934.38" r="14.4" fill="#000000" fill-rule="evenodd" fill-opacity="1" stroke="none"/>
<circle clip-path="url(#clip152)" cx="2199.55" cy="942.543" r="14.4" fill="#000000" fill-rule="evenodd" fill-opacity="1" stroke="none"/>
<circle clip-path="url(#clip152)" cx="2209.78" cy="775.426" r="14.4" fill="#000000" fill-rule="evenodd" fill-opacity="1" stroke="none"/>
<circle clip-path="url(#clip152)" cx="2220.02" cy="813.767" r="14.4" fill="#000000" fill-rule="evenodd" fill-opacity="1" stroke="none"/>
<circle clip-path="url(#clip152)" cx="2230.25" cy="732.306" r="14.4" fill="#000000" fill-rule="evenodd" fill-opacity="1" stroke="none"/>
<circle clip-path="url(#clip152)" cx="2240.49" cy="702.88" r="14.4" fill="#000000" fill-rule="evenodd" fill-opacity="1" stroke="none"/>
<circle clip-path="url(#clip152)" cx="2250.72" cy="719.975" r="14.4" fill="#000000" fill-rule="evenodd" fill-opacity="1" stroke="none"/>
<circle clip-path="url(#clip152)" cx="2260.95" cy="797.999" r="14.4" fill="#000000" fill-rule="evenodd" fill-opacity="1" stroke="none"/>
<circle clip-path="url(#clip152)" cx="2271.19" cy="597.138" r="14.4" fill="#000000" fill-rule="evenodd" fill-opacity="1" stroke="none"/>
<circle clip-path="url(#clip152)" cx="2281.42" cy="899.326" r="14.4" fill="#000000" fill-rule="evenodd" fill-opacity="1" stroke="none"/>
<circle clip-path="url(#clip152)" cx="2291.66" cy="700.757" r="14.4" fill="#000000" fill-rule="evenodd" fill-opacity="1" stroke="none"/>
<path clip-path="url(#clip152)" d="M255.035 936.285 L265.269 829.147 L275.503 794.013 L285.738 788.013 L295.972 806.238 L306.206 836.526 L316.44 784.639 L326.675 813.653 L336.909 793.972 L347.143 824.407 L357.378 821.29 L367.612 788.594 L377.846 808.952 L388.08 773.369 L398.315 764.1 L408.549 746.009 L418.783 764.353 L429.018 739.959 L439.252 829.025 L449.486 859.906 L459.72 921.208 L469.955 939.351 L480.189 957.401 L490.423 984.591 L500.657 1043.21 L510.892 1061.66 L521.126 1121.22 L531.36 1158.97 L541.595 1203.51 L551.829 1182.74 L562.063 1169.78 L572.297 1200.71 L582.532 1254.85 L592.766 1254.81 L603 1264.42 L613.235 1297.39 L623.469 1290.66 L633.703 1302.12 L643.937 1262.06 L654.172 1272.96 L664.406 1294.9 L674.64 1325.8 L684.875 1328.63 L695.109 1271.35 L705.343 1246.84 L715.577 1184.44 L725.812 1122.58 L736.046 1080.11 L746.28 1031.37 L756.515 976.495 L766.749 1006.64 L776.983 1043.22 L787.217 1126.67 L797.452 1113.02 L807.686 1128.43 L817.92 1148.53 L828.155 1135.89 L838.389 1068 L848.623 1090.65 L858.857 1150.07 L869.092 1176.36 L879.326 1160.13 L889.56 1198.21 L899.795 1148.73 L910.029 1156.28 L920.263 1206.46 L930.497 1216.67 L940.732 1241.37 L950.966 1308.66 L961.2 1285.64 L971.435 1268.37 L981.669 1213.87 L991.903 1215.74 L1002.14 1204.36 L1012.37 1210.17 L1022.61 1128.59 L1032.84 1139.41 L1043.07 1132.62 L1053.31 1105.84 L1063.54 1088.68 L1073.78 1149.77 L1084.01 1086.22 L1094.25 1148.74 L1104.48 1116.74 L1114.71 1034.86 L1124.95 954.55 L1135.18 966.288 L1145.42 939.754 L1155.65 865.302 L1165.89 856.747 L1176.12 824.727 L1186.35 820.61 L1196.59 879.971 L1206.82 950.279 L1217.06 926.728 L1227.29 990.669 L1237.53 992.871 L1247.76 930.784 L1257.99 928.957 L1268.23 934.604 L1278.46 873.404 L1288.7 838.244 L1298.93 808.993 L1309.17 790.408 L1319.4 733.24 L1329.63 703.714 L1339.87 743.386 L1350.1 745.275 L1360.34 769.627 L1370.57 772.686 L1380.81 833.906 L1391.04 813.655 L1401.27 817.175 L1411.51 823.26 L1421.74 853.625 L1431.98 864.45 L1442.21 850.205 L1452.45 836.302 L1462.68 800.224 L1472.91 855.734 L1483.15 873.494 L1493.38 814.554 L1503.62 780.194 L1513.85 787.681 L1524.09 729.143 L1534.32 695.213 L1544.55 744.365 L1554.79 722.938 L1565.02 678.279 L1575.26 689.551 L1585.49 641.884 L1595.73 660.127 L1605.96 677.125 L1616.19 669.085 L1626.43 668.49 L1636.66 631.058 L1646.9 640.154 L1657.13 591.752 L1667.37 567.885 L1677.6 470.607 L1687.83 455.663 L1698.07 448.999 L1708.3 403.735 L1718.54 448.262 L1728.77 489.183 L1739.01 527.157 L1749.24 543.028 L1759.47 552.486 L1769.71 628.774 L1779.94 659.903 L1790.18 648.159 L1800.41 657.382 L1810.65 673.398 L1820.88 704.863 L1831.11 775.271 L1841.35 745.95 L1851.58 713.479 L1861.82 786.917 L1872.05 794.189 L1882.29 810.289 L1892.52 872.02 L1902.75 876.213 L1912.99 916.809 L1923.22 968.566 L1933.46 927.571 L1943.69 971.214 L1953.93 1017.53 L1964.16 1100.55 L1974.39 1068.29 L1984.63 1110.5 L1994.86 1131.91 L2005.1 1133.63 L2015.33 1131.27 L2025.57 1150.69 L2035.8 1181.79 L2046.03 1199.75 L2056.27 1198.61 L2066.5 1219.01 L2076.74 1236.91 L2086.97 1238.71 L2097.21 1220.98 L2107.44 1227.21 L2117.67 1223.98 L2127.91 1181.52 L2138.14 1221.65 L2148.38 1199.62 L2158.61 1131.14 L2168.85 1061.71 L2179.08 950.01 L2189.31 950.794 L2199.55 958.699 L2209.78 928.155 L2220.02 914.446 L2230.25 885.602 L2240.49 856.356 L2250.72 838.371 L2260.95 845.138 L2271.19 803.922 L2281.42 845.265 L2291.66 833.931 L2291.66 607.386 L2281.42 618.719 L2271.19 577.377 L2260.95 618.593 L2250.72 611.826 L2240.49 629.811 L2230.25 659.057 L2220.02 687.901 L2209.78 701.609 L2199.55 732.153 L2189.31 724.249 L2179.08 723.465 L2168.85 835.164 L2158.61 904.592 L2148.38 973.07 L2138.14 995.105 L2127.91 954.971 L2117.67 997.432 L2107.44 1000.66 L2097.21 994.432 L2086.97 1012.16 L2076.74 1010.36 L2066.5 992.464 L2056.27 972.063 L2046.03 973.205 L2035.8 955.245 L2025.57 924.142 L2015.33 904.723 L2005.1 907.08 L1994.86 905.365 L1984.63 883.955 L1974.39 841.749 L1964.16 874.007 L1953.93 790.989 L1943.69 744.668 L1933.46 701.026 L1923.22 742.021 L1912.99 690.263 L1902.75 649.667 L1892.52 645.475 L1882.29 583.744 L1872.05 567.644 L1861.82 560.371 L1851.58 486.933 L1841.35 519.404 L1831.11 548.725 L1820.88 478.318 L1810.65 446.852 L1800.41 430.837 L1790.18 421.614 L1779.94 433.357 L1769.71 402.228 L1759.47 325.941 L1749.24 316.482 L1739.01 300.612 L1728.77 262.637 L1718.54 221.716 L1708.3 177.19 L1698.07 222.453 L1687.83 229.117 L1677.6 244.062 L1667.37 341.339 L1657.13 365.206 L1646.9 413.609 L1636.66 404.512 L1626.43 441.945 L1616.19 442.54 L1605.96 450.579 L1595.73 433.582 L1585.49 415.339 L1575.26 463.005 L1565.02 451.733 L1554.79 496.393 L1544.55 517.82 L1534.32 468.668 L1524.09 502.597 L1513.85 561.136 L1503.62 553.648 L1493.38 588.009 L1483.15 646.949 L1472.91 629.189 L1462.68 573.679 L1452.45 609.757 L1442.21 623.66 L1431.98 637.905 L1421.74 627.08 L1411.51 596.715 L1401.27 590.629 L1391.04 587.109 L1380.81 607.361 L1370.57 546.141 L1360.34 543.082 L1350.1 518.73 L1339.87 516.841 L1329.63 477.168 L1319.4 506.694 L1309.17 563.862 L1298.93 582.447 L1288.7 611.698 L1278.46 646.858 L1268.23 708.058 L1257.99 702.411 L1247.76 704.238 L1237.53 766.325 L1227.29 764.123 L1217.06 700.182 L1206.82 723.734 L1196.59 653.425 L1186.35 594.064 L1176.12 598.182 L1165.89 630.201 L1155.65 638.757 L1145.42 713.209 L1135.18 739.743 L1124.95 728.005 L1114.71 808.31 L1104.48 890.193 L1094.25 922.192 L1084.01 859.672 L1073.78 923.222 L1063.54 862.133 L1053.31 879.29 L1043.07 906.072 L1032.84 912.868 L1022.61 902.044 L1012.37 983.625 L1002.14 977.812 L991.903 989.191 L981.669 987.321 L971.435 1041.82 L961.2 1059.09 L950.966 1082.12 L940.732 1014.83 L930.497 990.127 L920.263 979.919 L910.029 929.735 L899.795 922.189 L889.56 971.663 L879.326 933.585 L869.092 949.816 L858.857 923.525 L848.623 864.1 L838.389 841.452 L828.155 909.343 L817.92 921.989 L807.686 901.881 L797.452 886.474 L787.217 900.128 L776.983 816.67 L766.749 780.09 L756.515 749.95 L746.28 804.82 L736.046 853.562 L725.812 896.036 L715.577 957.89 L705.343 1020.3 L695.109 1044.81 L684.875 1102.09 L674.64 1099.25 L664.406 1068.36 L654.172 1046.41 L643.937 1035.52 L633.703 1075.58 L623.469 1064.11 L613.235 1070.84 L603 1037.88 L592.766 1028.26 L582.532 1028.31 L572.297 974.159 L562.063 943.228 L551.829 956.193 L541.595 976.958 L531.36 932.415 L521.126 894.668 L510.892 835.104 L500.657 816.66 L490.423 758.036 L480.189 730.845 L469.955 712.792 L459.72 694.636 L449.486 633.303 L439.252 602.359 L429.018 513.175 L418.783 537.37 L408.549 518.712 L398.315 536.343 L388.08 544.979 L377.846 579.753 L367.612 558.442 L357.378 590.125 L347.143 592.311 L336.909 561.203 L326.675 580.601 L316.44 551.585 L306.206 603.023 L295.972 569.909 L285.738 542.582 L275.503 526.301 L265.269 512.625 L255.035 501.684  Z" fill="#3da44d" fill-rule="evenodd" fill-opacity="0.5"/>
<polyline clip-path="url(#clip152)" style="stroke:#3da44d; stroke-linecap:round; stroke-linejoin:round; stroke-width:4; stroke-opacity:1; fill:none" points="255.035,718.984 265.269,670.886 275.503,660.157 285.738,665.297 295.972,688.074 306.206,719.774 316.44,668.112 326.675,697.127 336.909,677.587 347.143,708.359 357.378,705.707 367.612,673.518 377.846,694.353 388.08,659.174 398.315,650.222 408.549,632.361 418.783,650.862 429.018,626.567 439.252,715.692 449.486,746.605 459.72,807.922 469.955,826.071 480.189,844.123 490.423,871.313 500.657,929.937 510.892,948.381 521.126,1007.95 531.36,1045.69 541.595,1090.23 551.829,1069.47 562.063,1056.5 572.297,1087.43 582.532,1141.58 592.766,1141.53 603,1151.15 613.235,1184.12 623.469,1177.39 633.703,1188.85 643.937,1148.79 654.172,1159.69 664.406,1181.63 674.64,1212.53 684.875,1215.36 695.109,1158.08 705.343,1133.57 715.577,1071.16 725.812,1009.31 736.046,966.835 746.28,918.092 756.515,863.223 766.749,893.363 776.983,929.943 787.217,1013.4 797.452,999.747 807.686,1015.15 817.92,1035.26 828.155,1022.62 838.389,954.724 848.623,977.373 858.857,1036.8 869.092,1063.09 879.326,1046.86 889.56,1084.94 899.795,1035.46 910.029,1043.01 920.263,1093.19 930.497,1103.4 940.732,1128.1 950.966,1195.39 961.2,1172.37 971.435,1155.09 981.669,1100.59 991.903,1102.46 1002.14,1091.08 1012.37,1096.9 1022.61,1015.32 1032.84,1026.14 1043.07,1019.34 1053.31,992.563 1063.54,975.405 1073.78,1036.49 1084.01,972.945 1094.25,1035.46 1104.48,1003.47 1114.71,921.583 1124.95,841.277 1135.18,853.015 1145.42,826.481 1155.65,752.029 1165.89,743.474 1176.12,711.454 1186.35,707.337 1196.59,766.698 1206.82,837.006 1217.06,813.455 1227.29,877.396 1237.53,879.598 1247.76,817.511 1257.99,815.684 1268.23,821.331 1278.46,760.131 1288.7,724.971 1298.93,695.72 1309.17,677.135 1319.4,619.967 1329.63,590.441 1339.87,630.113 1350.1,632.002 1360.34,656.355 1370.57,659.413 1380.81,720.633 1391.04,700.382 1401.27,703.902 1411.51,709.987 1421.74,740.352 1431.98,751.177 1442.21,736.932 1452.45,723.03 1462.68,686.952 1472.91,742.462 1483.15,760.222 1493.38,701.282 1503.62,666.921 1513.85,674.408 1524.09,615.87 1534.32,581.941 1544.55,631.093 1554.79,609.665 1565.02,565.006 1575.26,576.278 1585.49,528.611 1595.73,546.854 1605.96,563.852 1616.19,555.812 1626.43,555.217 1636.66,517.785 1646.9,526.882 1657.13,478.479 1667.37,454.612 1677.6,357.334 1687.83,342.39 1698.07,335.726 1708.3,290.463 1718.54,334.989 1728.77,375.91 1739.01,413.884 1749.24,429.755 1759.47,439.214 1769.71,515.501 1779.94,546.63 1790.18,534.886 1800.41,544.109 1810.65,560.125 1820.88,591.59 1831.11,661.998 1841.35,632.677 1851.58,600.206 1861.82,673.644 1872.05,680.917 1882.29,697.016 1892.52,758.747 1902.75,762.94 1912.99,803.536 1923.22,855.293 1933.46,814.299 1943.69,857.941 1953.93,904.262 1964.16,987.279 1974.39,955.022 1984.63,997.228 1994.86,1018.64 2005.1,1020.35 2015.33,1018 2025.57,1037.41 2035.8,1068.52 2046.03,1086.48 2056.27,1085.34 2066.5,1105.74 2076.74,1123.63 2086.97,1125.44 2097.21,1107.71 2107.44,1113.94 2117.67,1110.7 2127.91,1068.24 2138.14,1108.38 2148.38,1086.34 2158.61,1017.87 2168.85,948.437 2179.08,836.737 2189.31,837.522 2199.55,845.426 2209.78,814.882 2220.02,801.173 2230.25,772.329 2240.49,743.083 2250.72,725.098 2260.95,731.866 2271.19,690.649 2281.42,731.992 2291.66,720.658 "/>
<path clip-path="url(#clip150)" d="M1734.57 300.469 L2280.8 300.469 L2280.8 93.1086 L1734.57 93.1086  Z" fill="#ffffff" fill-rule="evenodd" fill-opacity="1"/>
<polyline clip-path="url(#clip150)" style="stroke:#000000; stroke-linecap:round; stroke-linejoin:round; stroke-width:4; stroke-opacity:1; fill:none" points="1734.57,300.469 2280.8,300.469 2280.8,93.1086 1734.57,93.1086 1734.57,300.469 "/>
<polyline clip-path="url(#clip150)" style="stroke:#009af9; stroke-linecap:round; stroke-linejoin:round; stroke-width:4; stroke-opacity:1; fill:none" points="1758.55,144.949 1902.48,144.949 "/>
<path clip-path="url(#clip150)" d="M1938.36 139.289 Q1934.94 139.289 1932.94 141.974 Q1930.95 144.636 1930.95 149.289 Q1930.95 153.942 1932.92 156.627 Q1934.91 159.289 1938.36 159.289 Q1941.76 159.289 1943.75 156.604 Q1945.75 153.918 1945.75 149.289 Q1945.75 144.682 1943.75 141.997 Q1941.76 139.289 1938.36 139.289 M1938.36 135.678 Q1943.92 135.678 1947.09 139.289 Q1950.26 142.9 1950.26 149.289 Q1950.26 155.655 1947.09 159.289 Q1943.92 162.9 1938.36 162.9 Q1932.78 162.9 1929.61 159.289 Q1926.46 155.655 1926.46 149.289 Q1926.46 142.9 1929.61 139.289 Q1932.78 135.678 1938.36 135.678 Z" fill="#000000" fill-rule="nonzero" fill-opacity="1" /><path clip-path="url(#clip150)" d="M1956.88 151.997 L1956.88 136.303 L1961.14 136.303 L1961.14 151.835 Q1961.14 155.516 1962.57 157.368 Q1964.01 159.196 1966.88 159.196 Q1970.33 159.196 1972.32 156.997 Q1974.33 154.798 1974.33 151.002 L1974.33 136.303 L1978.59 136.303 L1978.59 162.229 L1974.33 162.229 L1974.33 158.247 Q1972.78 160.608 1970.72 161.766 Q1968.68 162.9 1965.98 162.9 Q1961.51 162.9 1959.19 160.122 Q1956.88 157.344 1956.88 151.997 M1967.6 135.678 L1967.6 135.678 Z" fill="#000000" fill-rule="nonzero" fill-opacity="1" /><path clip-path="url(#clip150)" d="M1991.58 128.942 L1991.58 136.303 L2000.35 136.303 L2000.35 139.613 L1991.58 139.613 L1991.58 153.687 Q1991.58 156.858 1992.43 157.761 Q1993.31 158.664 1995.98 158.664 L2000.35 158.664 L2000.35 162.229 L1995.98 162.229 Q1991.05 162.229 1989.17 160.4 Q1987.3 158.548 1987.3 153.687 L1987.3 139.613 L1984.17 139.613 L1984.17 136.303 L1987.3 136.303 L1987.3 128.942 L1991.58 128.942 Z" fill="#000000" fill-rule="nonzero" fill-opacity="1" /><path clip-path="url(#clip150)" d="M2010.07 158.34 L2010.07 172.09 L2005.79 172.09 L2005.79 136.303 L2010.07 136.303 L2010.07 140.238 Q2011.42 137.923 2013.45 136.812 Q2015.51 135.678 2018.36 135.678 Q2023.08 135.678 2026.02 139.428 Q2028.99 143.178 2028.99 149.289 Q2028.99 155.4 2026.02 159.15 Q2023.08 162.9 2018.36 162.9 Q2015.51 162.9 2013.45 161.789 Q2011.42 160.655 2010.07 158.34 M2024.56 149.289 Q2024.56 144.59 2022.62 141.928 Q2020.7 139.243 2017.32 139.243 Q2013.94 139.243 2011.99 141.928 Q2010.07 144.59 2010.07 149.289 Q2010.07 153.988 2011.99 156.673 Q2013.94 159.335 2017.32 159.335 Q2020.7 159.335 2022.62 156.673 Q2024.56 153.988 2024.56 149.289 Z" fill="#000000" fill-rule="nonzero" fill-opacity="1" /><path clip-path="url(#clip150)" d="M2035.61 151.997 L2035.61 136.303 L2039.87 136.303 L2039.87 151.835 Q2039.87 155.516 2041.3 157.368 Q2042.74 159.196 2045.61 159.196 Q2049.05 159.196 2051.05 156.997 Q2053.06 154.798 2053.06 151.002 L2053.06 136.303 L2057.32 136.303 L2057.32 162.229 L2053.06 162.229 L2053.06 158.247 Q2051.51 160.608 2049.45 161.766 Q2047.41 162.9 2044.7 162.9 Q2040.24 162.9 2037.92 160.122 Q2035.61 157.344 2035.61 151.997 M2046.32 135.678 L2046.32 135.678 Z" fill="#000000" fill-rule="nonzero" fill-opacity="1" /><path clip-path="url(#clip150)" d="M2070.3 128.942 L2070.3 136.303 L2079.08 136.303 L2079.08 139.613 L2070.3 139.613 L2070.3 153.687 Q2070.3 156.858 2071.16 157.761 Q2072.04 158.664 2074.7 158.664 L2079.08 158.664 L2079.08 162.229 L2074.7 162.229 Q2069.77 162.229 2067.9 160.4 Q2066.02 158.548 2066.02 153.687 L2066.02 139.613 L2062.9 139.613 L2062.9 136.303 L2066.02 136.303 L2066.02 128.942 L2070.3 128.942 Z" fill="#000000" fill-rule="nonzero" fill-opacity="1" /><circle clip-path="url(#clip150)" cx="1830.52" cy="196.789" r="20.48" fill="#000000" fill-rule="evenodd" fill-opacity="1" stroke="none"/>
<path clip-path="url(#clip150)" d="M1946.81 193.12 Q1948.41 190.249 1950.63 188.884 Q1952.85 187.518 1955.86 187.518 Q1959.91 187.518 1962.11 190.365 Q1964.31 193.189 1964.31 198.421 L1964.31 214.069 L1960.03 214.069 L1960.03 198.559 Q1960.03 194.833 1958.71 193.027 Q1957.39 191.222 1954.68 191.222 Q1951.37 191.222 1949.45 193.421 Q1947.53 195.62 1947.53 199.416 L1947.53 214.069 L1943.25 214.069 L1943.25 198.559 Q1943.25 194.809 1941.93 193.027 Q1940.61 191.222 1937.85 191.222 Q1934.59 191.222 1932.67 193.444 Q1930.75 195.643 1930.75 199.416 L1930.75 214.069 L1926.46 214.069 L1926.46 188.143 L1930.75 188.143 L1930.75 192.171 Q1932.2 189.786 1934.24 188.652 Q1936.28 187.518 1939.08 187.518 Q1941.9 187.518 1943.87 188.953 Q1945.86 190.388 1946.81 193.12 Z" fill="#000000" fill-rule="nonzero" fill-opacity="1" /><path clip-path="url(#clip150)" d="M1994.98 200.041 L1994.98 202.124 L1975.4 202.124 Q1975.68 206.522 1978.04 208.837 Q1980.42 211.129 1984.66 211.129 Q1987.11 211.129 1989.4 210.527 Q1991.72 209.925 1993.99 208.721 L1993.99 212.749 Q1991.69 213.721 1989.29 214.231 Q1986.88 214.74 1984.4 214.74 Q1978.2 214.74 1974.56 211.129 Q1970.95 207.518 1970.95 201.36 Q1970.95 194.995 1974.38 191.268 Q1977.83 187.518 1983.66 187.518 Q1988.89 187.518 1991.93 190.897 Q1994.98 194.254 1994.98 200.041 M1990.72 198.791 Q1990.68 195.296 1988.75 193.212 Q1986.86 191.129 1983.71 191.129 Q1980.14 191.129 1977.99 193.143 Q1975.86 195.157 1975.54 198.814 L1990.72 198.791 Z" fill="#000000" fill-rule="nonzero" fill-opacity="1" /><path clip-path="url(#clip150)" d="M2013.75 201.036 Q2008.59 201.036 2006.6 202.217 Q2004.61 203.397 2004.61 206.245 Q2004.61 208.513 2006.09 209.856 Q2007.6 211.175 2010.17 211.175 Q2013.71 211.175 2015.84 208.675 Q2017.99 206.152 2017.99 201.985 L2017.99 201.036 L2013.75 201.036 M2022.25 199.277 L2022.25 214.069 L2017.99 214.069 L2017.99 210.133 Q2016.53 212.495 2014.36 213.629 Q2012.18 214.74 2009.03 214.74 Q2005.05 214.74 2002.69 212.518 Q2000.35 210.272 2000.35 206.522 Q2000.35 202.147 2003.27 199.925 Q2006.21 197.703 2012.02 197.703 L2017.99 197.703 L2017.99 197.286 Q2017.99 194.347 2016.05 192.749 Q2014.12 191.129 2010.63 191.129 Q2008.41 191.129 2006.3 191.661 Q2004.19 192.194 2002.25 193.259 L2002.25 189.323 Q2004.59 188.421 2006.79 187.981 Q2008.99 187.518 2011.07 187.518 Q2016.69 187.518 2019.47 190.434 Q2022.25 193.351 2022.25 199.277 Z" fill="#000000" fill-rule="nonzero" fill-opacity="1" /><path clip-path="url(#clip150)" d="M2047.55 188.907 L2047.55 192.934 Q2045.74 192.009 2043.8 191.546 Q2041.86 191.083 2039.77 191.083 Q2036.6 191.083 2035 192.055 Q2033.43 193.027 2033.43 194.971 Q2033.43 196.453 2034.56 197.309 Q2035.7 198.143 2039.12 198.907 L2040.58 199.231 Q2045.12 200.203 2047.02 201.985 Q2048.94 203.745 2048.94 206.916 Q2048.94 210.527 2046.07 212.633 Q2043.22 214.74 2038.22 214.74 Q2036.14 214.74 2033.87 214.323 Q2031.62 213.93 2029.12 213.12 L2029.12 208.721 Q2031.49 209.948 2033.78 210.573 Q2036.07 211.175 2038.31 211.175 Q2041.32 211.175 2042.94 210.157 Q2044.56 209.115 2044.56 207.24 Q2044.56 205.504 2043.38 204.578 Q2042.23 203.652 2038.27 202.796 L2036.79 202.448 Q2032.83 201.615 2031.07 199.902 Q2029.31 198.166 2029.31 195.157 Q2029.31 191.499 2031.9 189.509 Q2034.49 187.518 2039.26 187.518 Q2041.62 187.518 2043.71 187.865 Q2045.79 188.212 2047.55 188.907 Z" fill="#000000" fill-rule="nonzero" fill-opacity="1" /><path clip-path="url(#clip150)" d="M2055.28 203.837 L2055.28 188.143 L2059.54 188.143 L2059.54 203.675 Q2059.54 207.356 2060.98 209.208 Q2062.41 211.036 2065.28 211.036 Q2068.73 211.036 2070.72 208.837 Q2072.74 206.638 2072.74 202.842 L2072.74 188.143 L2076.99 188.143 L2076.99 214.069 L2072.74 214.069 L2072.74 210.087 Q2071.18 212.448 2069.12 213.606 Q2067.09 214.74 2064.38 214.74 Q2059.91 214.74 2057.6 211.962 Q2055.28 209.184 2055.28 203.837 M2066 187.518 L2066 187.518 Z" fill="#000000" fill-rule="nonzero" fill-opacity="1" /><path clip-path="url(#clip150)" d="M2100.79 192.124 Q2100.07 191.708 2099.22 191.522 Q2098.38 191.314 2097.36 191.314 Q2093.75 191.314 2091.81 193.675 Q2089.89 196.013 2089.89 200.411 L2089.89 214.069 L2085.61 214.069 L2085.61 188.143 L2089.89 188.143 L2089.89 192.171 Q2091.23 189.809 2093.38 188.675 Q2095.54 187.518 2098.61 187.518 Q2099.05 187.518 2099.59 187.587 Q2100.12 187.634 2100.77 187.749 L2100.79 192.124 Z" fill="#000000" fill-rule="nonzero" fill-opacity="1" /><path clip-path="url(#clip150)" d="M2126.39 200.041 L2126.39 202.124 L2106.81 202.124 Q2107.09 206.522 2109.45 208.837 Q2111.83 211.129 2116.07 211.129 Q2118.52 211.129 2120.81 210.527 Q2123.13 209.925 2125.4 208.721 L2125.4 212.749 Q2123.11 213.721 2120.7 214.231 Q2118.29 214.74 2115.81 214.74 Q2109.61 214.74 2105.98 211.129 Q2102.36 207.518 2102.36 201.36 Q2102.36 194.995 2105.79 191.268 Q2109.24 187.518 2115.07 187.518 Q2120.3 187.518 2123.34 190.897 Q2126.39 194.254 2126.39 200.041 M2122.13 198.791 Q2122.09 195.296 2120.17 193.212 Q2118.27 191.129 2115.12 191.129 Q2111.55 191.129 2109.4 193.143 Q2107.27 195.157 2106.95 198.814 L2122.13 198.791 Z" fill="#000000" fill-rule="nonzero" fill-opacity="1" /><path clip-path="url(#clip150)" d="M2153.57 193.12 Q2155.17 190.249 2157.39 188.884 Q2159.61 187.518 2162.62 187.518 Q2166.67 187.518 2168.87 190.365 Q2171.07 193.189 2171.07 198.421 L2171.07 214.069 L2166.79 214.069 L2166.79 198.559 Q2166.79 194.833 2165.47 193.027 Q2164.15 191.222 2161.44 191.222 Q2158.13 191.222 2156.21 193.421 Q2154.29 195.62 2154.29 199.416 L2154.29 214.069 L2150 214.069 L2150 198.559 Q2150 194.809 2148.68 193.027 Q2147.36 191.222 2144.61 191.222 Q2141.35 191.222 2139.42 193.444 Q2137.5 195.643 2137.5 199.416 L2137.5 214.069 L2133.22 214.069 L2133.22 188.143 L2137.5 188.143 L2137.5 192.171 Q2138.96 189.786 2141 188.652 Q2143.04 187.518 2145.84 187.518 Q2148.66 187.518 2150.63 188.953 Q2152.62 190.388 2153.57 193.12 Z" fill="#000000" fill-rule="nonzero" fill-opacity="1" /><path clip-path="url(#clip150)" d="M2201.74 200.041 L2201.74 202.124 L2182.16 202.124 Q2182.43 206.522 2184.79 208.837 Q2187.18 211.129 2191.42 211.129 Q2193.87 211.129 2196.16 210.527 Q2198.48 209.925 2200.74 208.721 L2200.74 212.749 Q2198.45 213.721 2196.04 214.231 Q2193.64 214.74 2191.16 214.74 Q2184.96 214.74 2181.32 211.129 Q2177.71 207.518 2177.71 201.36 Q2177.71 194.995 2181.14 191.268 Q2184.59 187.518 2190.42 187.518 Q2195.65 187.518 2198.68 190.897 Q2201.74 194.254 2201.74 200.041 M2197.48 198.791 Q2197.43 195.296 2195.51 193.212 Q2193.61 191.129 2190.47 191.129 Q2186.9 191.129 2184.75 193.143 Q2182.62 195.157 2182.29 198.814 L2197.48 198.791 Z" fill="#000000" fill-rule="nonzero" fill-opacity="1" /><path clip-path="url(#clip150)" d="M2230.28 198.421 L2230.28 214.069 L2226.02 214.069 L2226.02 198.559 Q2226.02 194.879 2224.59 193.05 Q2223.15 191.222 2220.28 191.222 Q2216.83 191.222 2214.84 193.421 Q2212.85 195.62 2212.85 199.416 L2212.85 214.069 L2208.57 214.069 L2208.57 188.143 L2212.85 188.143 L2212.85 192.171 Q2214.38 189.833 2216.44 188.675 Q2218.52 187.518 2221.23 187.518 Q2225.7 187.518 2227.99 190.296 Q2230.28 193.05 2230.28 198.421 Z" fill="#000000" fill-rule="nonzero" fill-opacity="1" /><path clip-path="url(#clip150)" d="M2242.99 180.782 L2242.99 188.143 L2251.76 188.143 L2251.76 191.453 L2242.99 191.453 L2242.99 205.527 Q2242.99 208.698 2243.85 209.601 Q2244.73 210.504 2247.39 210.504 L2251.76 210.504 L2251.76 214.069 L2247.39 214.069 Q2242.46 214.069 2240.58 212.24 Q2238.71 210.388 2238.71 205.527 L2238.71 191.453 L2235.58 191.453 L2235.58 188.143 L2238.71 188.143 L2238.71 180.782 L2242.99 180.782 Z" fill="#000000" fill-rule="nonzero" fill-opacity="1" /><polyline clip-path="url(#clip150)" style="stroke:#3da44d; stroke-linecap:round; stroke-linejoin:round; stroke-width:4; stroke-opacity:1; fill:none" points="1758.55,248.629 1902.48,248.629 "/>
<path clip-path="url(#clip150)" d="M1942.97 229.89 L1942.97 233.432 L1938.89 233.432 Q1936.6 233.432 1935.7 234.358 Q1934.82 235.284 1934.82 237.691 L1934.82 239.983 L1941.83 239.983 L1941.83 243.293 L1934.82 243.293 L1934.82 265.909 L1930.54 265.909 L1930.54 243.293 L1926.46 243.293 L1926.46 239.983 L1930.54 239.983 L1930.54 238.177 Q1930.54 233.849 1932.55 231.881 Q1934.56 229.89 1938.94 229.89 L1942.97 229.89 Z" fill="#000000" fill-rule="nonzero" fill-opacity="1" /><path clip-path="url(#clip150)" d="M1946.53 239.983 L1950.79 239.983 L1950.79 265.909 L1946.53 265.909 L1946.53 239.983 M1946.53 229.89 L1950.79 229.89 L1950.79 235.284 L1946.53 235.284 L1946.53 229.89 Z" fill="#000000" fill-rule="nonzero" fill-opacity="1" /><path clip-path="url(#clip150)" d="M1959.7 229.89 L1963.96 229.89 L1963.96 265.909 L1959.7 265.909 L1959.7 229.89 Z" fill="#000000" fill-rule="nonzero" fill-opacity="1" /><path clip-path="url(#clip150)" d="M1977.09 232.622 L1977.09 239.983 L1985.86 239.983 L1985.86 243.293 L1977.09 243.293 L1977.09 257.367 Q1977.09 260.538 1977.94 261.441 Q1978.82 262.344 1981.49 262.344 L1985.86 262.344 L1985.86 265.909 L1981.49 265.909 Q1976.56 265.909 1974.68 264.08 Q1972.81 262.228 1972.81 257.367 L1972.81 243.293 L1969.68 243.293 L1969.68 239.983 L1972.81 239.983 L1972.81 232.622 L1977.09 232.622 Z" fill="#000000" fill-rule="nonzero" fill-opacity="1" /><path clip-path="url(#clip150)" d="M2013.64 251.881 L2013.64 253.964 L1994.06 253.964 Q1994.33 258.362 1996.69 260.677 Q1999.08 262.969 2003.31 262.969 Q2005.77 262.969 2008.06 262.367 Q2010.37 261.765 2012.64 260.561 L2012.64 264.589 Q2010.35 265.561 2007.94 266.071 Q2005.54 266.58 2003.06 266.58 Q1996.86 266.58 1993.22 262.969 Q1989.61 259.358 1989.61 253.2 Q1989.61 246.835 1993.04 243.108 Q1996.49 239.358 2002.32 239.358 Q2007.55 239.358 2010.58 242.737 Q2013.64 246.094 2013.64 251.881 M2009.38 250.631 Q2009.33 247.136 2007.41 245.052 Q2005.51 242.969 2002.37 242.969 Q1998.8 242.969 1996.65 244.983 Q1994.52 246.997 1994.19 250.654 L2009.38 250.631 Z" fill="#000000" fill-rule="nonzero" fill-opacity="1" /><path clip-path="url(#clip150)" d="M2035.65 243.964 Q2034.93 243.548 2034.08 243.362 Q2033.24 243.154 2032.23 243.154 Q2028.62 243.154 2026.67 245.515 Q2024.75 247.853 2024.75 252.251 L2024.75 265.909 L2020.47 265.909 L2020.47 239.983 L2024.75 239.983 L2024.75 244.011 Q2026.09 241.649 2028.24 240.515 Q2030.4 239.358 2033.48 239.358 Q2033.92 239.358 2034.45 239.427 Q2034.98 239.474 2035.63 239.589 L2035.65 243.964 Z" fill="#000000" fill-rule="nonzero" fill-opacity="1" /><path clip-path="url(#clip150)" d="M2077.36 251.881 L2077.36 253.964 L2057.78 253.964 Q2058.06 258.362 2060.42 260.677 Q2062.8 262.969 2067.04 262.969 Q2069.49 262.969 2071.79 262.367 Q2074.1 261.765 2076.37 260.561 L2076.37 264.589 Q2074.08 265.561 2071.67 266.071 Q2069.26 266.58 2066.79 266.58 Q2060.58 266.58 2056.95 262.969 Q2053.34 259.358 2053.34 253.2 Q2053.34 246.835 2056.76 243.108 Q2060.21 239.358 2066.05 239.358 Q2071.28 239.358 2074.31 242.737 Q2077.36 246.094 2077.36 251.881 M2073.11 250.631 Q2073.06 247.136 2071.14 245.052 Q2069.24 242.969 2066.09 242.969 Q2062.53 242.969 2060.37 244.983 Q2058.24 246.997 2057.92 250.654 L2073.11 250.631 Z" fill="#000000" fill-rule="nonzero" fill-opacity="1" /><path clip-path="url(#clip150)" d="M2100.88 240.747 L2100.88 244.774 Q2099.08 243.849 2097.13 243.386 Q2095.19 242.923 2093.11 242.923 Q2089.93 242.923 2088.34 243.895 Q2086.76 244.867 2086.76 246.811 Q2086.76 248.293 2087.9 249.149 Q2089.03 249.983 2092.46 250.747 L2093.92 251.071 Q2098.45 252.043 2100.35 253.825 Q2102.27 255.585 2102.27 258.756 Q2102.27 262.367 2099.4 264.473 Q2096.55 266.58 2091.55 266.58 Q2089.47 266.58 2087.2 266.163 Q2084.96 265.77 2082.46 264.96 L2082.46 260.561 Q2084.82 261.788 2087.11 262.413 Q2089.4 263.015 2091.65 263.015 Q2094.66 263.015 2096.28 261.997 Q2097.9 260.955 2097.9 259.08 Q2097.9 257.344 2096.72 256.418 Q2095.56 255.492 2091.6 254.636 L2090.12 254.288 Q2086.16 253.455 2084.4 251.742 Q2082.64 250.006 2082.64 246.997 Q2082.64 243.339 2085.24 241.349 Q2087.83 239.358 2092.6 239.358 Q2094.96 239.358 2097.04 239.705 Q2099.12 240.052 2100.88 240.747 Z" fill="#000000" fill-rule="nonzero" fill-opacity="1" /><path clip-path="url(#clip150)" d="M2113.27 232.622 L2113.27 239.983 L2122.04 239.983 L2122.04 243.293 L2113.27 243.293 L2113.27 257.367 Q2113.27 260.538 2114.12 261.441 Q2115 262.344 2117.67 262.344 L2122.04 262.344 L2122.04 265.909 L2117.67 265.909 Q2112.74 265.909 2110.86 264.08 Q2108.99 262.228 2108.99 257.367 L2108.99 243.293 L2105.86 243.293 L2105.86 239.983 L2108.99 239.983 L2108.99 232.622 L2113.27 232.622 Z" fill="#000000" fill-rule="nonzero" fill-opacity="1" /><path clip-path="url(#clip150)" d="M2127.64 239.983 L2131.9 239.983 L2131.9 265.909 L2127.64 265.909 L2127.64 239.983 M2127.64 229.89 L2131.9 229.89 L2131.9 235.284 L2127.64 235.284 L2127.64 229.89 Z" fill="#000000" fill-rule="nonzero" fill-opacity="1" /><path clip-path="url(#clip150)" d="M2161 244.96 Q2162.6 242.089 2164.82 240.724 Q2167.04 239.358 2170.05 239.358 Q2174.1 239.358 2176.3 242.205 Q2178.5 245.029 2178.5 250.261 L2178.5 265.909 L2174.22 265.909 L2174.22 250.399 Q2174.22 246.673 2172.9 244.867 Q2171.58 243.062 2168.87 243.062 Q2165.56 243.062 2163.64 245.261 Q2161.72 247.46 2161.72 251.256 L2161.72 265.909 L2157.43 265.909 L2157.43 250.399 Q2157.43 246.649 2156.11 244.867 Q2154.8 243.062 2152.04 243.062 Q2148.78 243.062 2146.86 245.284 Q2144.93 247.483 2144.93 251.256 L2144.93 265.909 L2140.65 265.909 L2140.65 239.983 L2144.93 239.983 L2144.93 244.011 Q2146.39 241.626 2148.43 240.492 Q2150.47 239.358 2153.27 239.358 Q2156.09 239.358 2158.06 240.793 Q2160.05 242.228 2161 244.96 Z" fill="#000000" fill-rule="nonzero" fill-opacity="1" /><path clip-path="url(#clip150)" d="M2198.78 252.876 Q2193.61 252.876 2191.62 254.057 Q2189.63 255.237 2189.63 258.085 Q2189.63 260.353 2191.11 261.696 Q2192.62 263.015 2195.19 263.015 Q2198.73 263.015 2200.86 260.515 Q2203.01 257.992 2203.01 253.825 L2203.01 252.876 L2198.78 252.876 M2207.27 251.117 L2207.27 265.909 L2203.01 265.909 L2203.01 261.973 Q2201.55 264.335 2199.38 265.469 Q2197.2 266.58 2194.05 266.58 Q2190.07 266.58 2187.71 264.358 Q2185.37 262.112 2185.37 258.362 Q2185.37 253.987 2188.29 251.765 Q2191.23 249.543 2197.04 249.543 L2203.01 249.543 L2203.01 249.126 Q2203.01 246.187 2201.07 244.589 Q2199.15 242.969 2195.65 242.969 Q2193.43 242.969 2191.32 243.501 Q2189.22 244.034 2187.27 245.099 L2187.27 241.163 Q2189.61 240.261 2191.81 239.821 Q2194.01 239.358 2196.09 239.358 Q2201.72 239.358 2204.49 242.274 Q2207.27 245.191 2207.27 251.117 Z" fill="#000000" fill-rule="nonzero" fill-opacity="1" /><path clip-path="url(#clip150)" d="M2220.26 232.622 L2220.26 239.983 L2229.03 239.983 L2229.03 243.293 L2220.26 243.293 L2220.26 257.367 Q2220.26 260.538 2221.11 261.441 Q2221.99 262.344 2224.66 262.344 L2229.03 262.344 L2229.03 265.909 L2224.66 265.909 Q2219.73 265.909 2217.85 264.08 Q2215.98 262.228 2215.98 257.367 L2215.98 243.293 L2212.85 243.293 L2212.85 239.983 L2215.98 239.983 L2215.98 232.622 L2220.26 232.622 Z" fill="#000000" fill-rule="nonzero" fill-opacity="1" /><path clip-path="url(#clip150)" d="M2256.81 251.881 L2256.81 253.964 L2237.23 253.964 Q2237.5 258.362 2239.86 260.677 Q2242.25 262.969 2246.48 262.969 Q2248.94 262.969 2251.23 262.367 Q2253.54 261.765 2255.81 260.561 L2255.81 264.589 Q2253.52 265.561 2251.11 266.071 Q2248.71 266.58 2246.23 266.58 Q2240.03 266.58 2236.39 262.969 Q2232.78 259.358 2232.78 253.2 Q2232.78 246.835 2236.21 243.108 Q2239.66 239.358 2245.49 239.358 Q2250.72 239.358 2253.75 242.737 Q2256.81 246.094 2256.81 251.881 M2252.55 250.631 Q2252.5 247.136 2250.58 245.052 Q2248.68 242.969 2245.54 242.969 Q2241.97 242.969 2239.82 244.983 Q2237.69 246.997 2237.36 250.654 L2252.55 250.631 Z" fill="#000000" fill-rule="nonzero" fill-opacity="1" /></svg>
