<?xml version="1.0" encoding="utf-8"?>
<svg xmlns="http://www.w3.org/2000/svg" xmlns:xlink="http://www.w3.org/1999/xlink" width="600" height="400" viewBox="0 0 2400 1600">
<defs>
  <clipPath id="clip860">
    <rect x="0" y="0" width="2400" height="1600"/>
  </clipPath>
</defs>
<path clip-path="url(#clip860)" d="M0 1600 L2400 1600 L2400 0 L0 0  Z" fill="#ffffff" fill-rule="evenodd" fill-opacity="1"/>
<defs>
  <clipPath id="clip861">
    <rect x="480" y="0" width="1681" height="1600"/>
  </clipPath>
</defs>
<path clip-path="url(#clip860)" d="M147.478 1423.18 L2352.76 1423.18 L2352.76 47.2441 L147.478 47.2441  Z" fill="#ffffff" fill-rule="evenodd" fill-opacity="1"/>
<defs>
  <clipPath id="clip862">
    <rect x="147" y="47" width="2206" height="1377"/>
  </clipPath>
</defs>
<polyline clip-path="url(#clip862)" style="stroke:#000000; stroke-linecap:round; stroke-linejoin:round; stroke-width:2; stroke-opacity:0.1; fill:none" points="209.891,1423.18 209.891,47.2441 "/>
<polyline clip-path="url(#clip862)" style="stroke:#000000; stroke-linecap:round; stroke-linejoin:round; stroke-width:2; stroke-opacity:0.1; fill:none" points="625.982,1423.18 625.982,47.2441 "/>
<polyline clip-path="url(#clip862)" style="stroke:#000000; stroke-linecap:round; stroke-linejoin:round; stroke-width:2; stroke-opacity:0.1; fill:none" points="1042.07,1423.18 1042.07,47.2441 "/>
<polyline clip-path="url(#clip862)" style="stroke:#000000; stroke-linecap:round; stroke-linejoin:round; stroke-width:2; stroke-opacity:0.1; fill:none" points="1458.16,1423.18 1458.16,47.2441 "/>
<polyline clip-path="url(#clip862)" style="stroke:#000000; stroke-linecap:round; stroke-linejoin:round; stroke-width:2; stroke-opacity:0.1; fill:none" points="1874.25,1423.18 1874.25,47.2441 "/>
<polyline clip-path="url(#clip862)" style="stroke:#000000; stroke-linecap:round; stroke-linejoin:round; stroke-width:2; stroke-opacity:0.1; fill:none" points="2290.34,1423.18 2290.34,47.2441 "/>
<polyline clip-path="url(#clip862)" style="stroke:#000000; stroke-linecap:round; stroke-linejoin:round; stroke-width:2; stroke-opacity:0.1; fill:none" points="147.478,1318.15 2352.76,1318.15 "/>
<polyline clip-path="url(#clip862)" style="stroke:#000000; stroke-linecap:round; stroke-linejoin:round; stroke-width:2; stroke-opacity:0.1; fill:none" points="147.478,945.812 2352.76,945.812 "/>
<polyline clip-path="url(#clip862)" style="stroke:#000000; stroke-linecap:round; stroke-linejoin:round; stroke-width:2; stroke-opacity:0.1; fill:none" points="147.478,573.472 2352.76,573.472 "/>
<polyline clip-path="url(#clip862)" style="stroke:#000000; stroke-linecap:round; stroke-linejoin:round; stroke-width:2; stroke-opacity:0.1; fill:none" points="147.478,201.133 2352.76,201.133 "/>
<polyline clip-path="url(#clip860)" style="stroke:#000000; stroke-linecap:round; stroke-linejoin:round; stroke-width:4; stroke-opacity:1; fill:none" points="147.478,1423.18 2352.76,1423.18 "/>
<polyline clip-path="url(#clip860)" style="stroke:#000000; stroke-linecap:round; stroke-linejoin:round; stroke-width:4; stroke-opacity:1; fill:none" points="209.891,1423.18 209.891,1404.28 "/>
<polyline clip-path="url(#clip860)" style="stroke:#000000; stroke-linecap:round; stroke-linejoin:round; stroke-width:4; stroke-opacity:1; fill:none" points="625.982,1423.18 625.982,1404.28 "/>
<polyline clip-path="url(#clip860)" style="stroke:#000000; stroke-linecap:round; stroke-linejoin:round; stroke-width:4; stroke-opacity:1; fill:none" points="1042.07,1423.18 1042.07,1404.28 "/>
<polyline clip-path="url(#clip860)" style="stroke:#000000; stroke-linecap:round; stroke-linejoin:round; stroke-width:4; stroke-opacity:1; fill:none" points="1458.16,1423.18 1458.16,1404.28 "/>
<polyline clip-path="url(#clip860)" style="stroke:#000000; stroke-linecap:round; stroke-linejoin:round; stroke-width:4; stroke-opacity:1; fill:none" points="1874.25,1423.18 1874.25,1404.28 "/>
<polyline clip-path="url(#clip860)" style="stroke:#000000; stroke-linecap:round; stroke-linejoin:round; stroke-width:4; stroke-opacity:1; fill:none" points="2290.34,1423.18 2290.34,1404.28 "/>
<path clip-path="url(#clip860)" d="M209.891 1454.1 Q206.28 1454.1 204.452 1457.66 Q202.646 1461.2 202.646 1468.33 Q202.646 1475.44 204.452 1479.01 Q206.28 1482.55 209.891 1482.55 Q213.526 1482.55 215.331 1479.01 Q217.16 1475.44 217.16 1468.33 Q217.16 1461.2 215.331 1457.66 Q213.526 1454.1 209.891 1454.1 M209.891 1450.39 Q215.702 1450.39 218.757 1455 Q221.836 1459.58 221.836 1468.33 Q221.836 1477.06 218.757 1481.67 Q215.702 1486.25 209.891 1486.25 Q204.081 1486.25 201.003 1481.67 Q197.947 1477.06 197.947 1468.33 Q197.947 1459.58 201.003 1455 Q204.081 1450.39 209.891 1450.39 Z" fill="#000000" fill-rule="nonzero" fill-opacity="1" /><path clip-path="url(#clip860)" d="M616.364 1481.64 L624.002 1481.64 L624.002 1455.28 L615.692 1456.95 L615.692 1452.69 L623.956 1451.02 L628.632 1451.02 L628.632 1481.64 L636.271 1481.64 L636.271 1485.58 L616.364 1485.58 L616.364 1481.64 Z" fill="#000000" fill-rule="nonzero" fill-opacity="1" /><path clip-path="url(#clip860)" d="M1036.72 1481.64 L1053.04 1481.64 L1053.04 1485.58 L1031.1 1485.58 L1031.1 1481.64 Q1033.76 1478.89 1038.34 1474.26 Q1042.95 1469.61 1044.13 1468.27 Q1046.38 1465.74 1047.26 1464.01 Q1048.16 1462.25 1048.16 1460.56 Q1048.16 1457.8 1046.22 1456.07 Q1044.29 1454.33 1041.19 1454.33 Q1038.99 1454.33 1036.54 1455.09 Q1034.11 1455.86 1031.33 1457.41 L1031.33 1452.69 Q1034.16 1451.55 1036.61 1450.97 Q1039.06 1450.39 1041.1 1450.39 Q1046.47 1450.39 1049.66 1453.08 Q1052.86 1455.77 1052.86 1460.26 Q1052.86 1462.39 1052.05 1464.31 Q1051.26 1466.2 1049.16 1468.8 Q1048.58 1469.47 1045.47 1472.69 Q1042.37 1475.88 1036.72 1481.64 Z" fill="#000000" fill-rule="nonzero" fill-opacity="1" /><path clip-path="url(#clip860)" d="M1462.41 1466.95 Q1465.77 1467.66 1467.64 1469.93 Q1469.54 1472.2 1469.54 1475.53 Q1469.54 1480.65 1466.02 1483.45 Q1462.5 1486.25 1456.02 1486.25 Q1453.84 1486.25 1451.53 1485.81 Q1449.24 1485.39 1446.78 1484.54 L1446.78 1480.02 Q1448.73 1481.16 1451.04 1481.74 Q1453.36 1482.32 1455.88 1482.32 Q1460.28 1482.32 1462.57 1480.58 Q1464.89 1478.84 1464.89 1475.53 Q1464.89 1472.48 1462.73 1470.77 Q1460.6 1469.03 1456.78 1469.03 L1452.76 1469.03 L1452.76 1465.19 L1456.97 1465.19 Q1460.42 1465.19 1462.25 1463.82 Q1464.08 1462.43 1464.08 1459.84 Q1464.08 1457.18 1462.18 1455.77 Q1460.3 1454.33 1456.78 1454.33 Q1454.86 1454.33 1452.66 1454.75 Q1450.47 1455.16 1447.83 1456.04 L1447.83 1451.88 Q1450.49 1451.14 1452.8 1450.77 Q1455.14 1450.39 1457.2 1450.39 Q1462.53 1450.39 1465.63 1452.83 Q1468.73 1455.23 1468.73 1459.35 Q1468.73 1462.22 1467.09 1464.21 Q1465.44 1466.18 1462.41 1466.95 Z" fill="#000000" fill-rule="nonzero" fill-opacity="1" /><path clip-path="url(#clip860)" d="M1877.26 1455.09 L1865.46 1473.54 L1877.26 1473.54 L1877.26 1455.09 M1876.03 1451.02 L1881.91 1451.02 L1881.91 1473.54 L1886.84 1473.54 L1886.84 1477.43 L1881.91 1477.43 L1881.91 1485.58 L1877.26 1485.58 L1877.26 1477.43 L1861.66 1477.43 L1861.66 1472.92 L1876.03 1451.02 Z" fill="#000000" fill-rule="nonzero" fill-opacity="1" /><path clip-path="url(#clip860)" d="M2280.62 1451.02 L2298.98 1451.02 L2298.98 1454.96 L2284.9 1454.96 L2284.9 1463.43 Q2285.92 1463.08 2286.94 1462.92 Q2287.96 1462.73 2288.98 1462.73 Q2294.76 1462.73 2298.14 1465.9 Q2301.52 1469.08 2301.52 1474.49 Q2301.52 1480.07 2298.05 1483.17 Q2294.58 1486.25 2288.26 1486.25 Q2286.08 1486.25 2283.81 1485.88 Q2281.57 1485.51 2279.16 1484.77 L2279.16 1480.07 Q2281.25 1481.2 2283.47 1481.76 Q2285.69 1482.32 2288.17 1482.32 Q2292.17 1482.32 2294.51 1480.21 Q2296.85 1478.1 2296.85 1474.49 Q2296.85 1470.88 2294.51 1468.77 Q2292.17 1466.67 2288.17 1466.67 Q2286.29 1466.67 2284.42 1467.08 Q2282.56 1467.5 2280.62 1468.38 L2280.62 1451.02 Z" fill="#000000" fill-rule="nonzero" fill-opacity="1" /><path clip-path="url(#clip860)" d="M1249.18 1522.27 L1249.18 1532.4 L1261.24 1532.4 L1261.24 1536.95 L1249.18 1536.95 L1249.18 1556.3 Q1249.18 1560.66 1250.36 1561.9 Q1251.57 1563.14 1255.23 1563.14 L1261.24 1563.14 L1261.24 1568.04 L1255.23 1568.04 Q1248.45 1568.04 1245.87 1565.53 Q1243.29 1562.98 1243.29 1556.3 L1243.29 1536.95 L1238.99 1536.95 L1238.99 1532.4 L1243.29 1532.4 L1243.29 1522.27 L1249.18 1522.27 Z" fill="#000000" fill-rule="nonzero" fill-opacity="1" /><polyline clip-path="url(#clip860)" style="stroke:#000000; stroke-linecap:round; stroke-linejoin:round; stroke-width:4; stroke-opacity:1; fill:none" points="147.478,1423.18 147.478,47.2441 "/>
<polyline clip-path="url(#clip860)" style="stroke:#000000; stroke-linecap:round; stroke-linejoin:round; stroke-width:4; stroke-opacity:1; fill:none" points="147.478,1318.15 166.376,1318.15 "/>
<polyline clip-path="url(#clip860)" style="stroke:#000000; stroke-linecap:round; stroke-linejoin:round; stroke-width:4; stroke-opacity:1; fill:none" points="147.478,945.812 166.376,945.812 "/>
<polyline clip-path="url(#clip860)" style="stroke:#000000; stroke-linecap:round; stroke-linejoin:round; stroke-width:4; stroke-opacity:1; fill:none" points="147.478,573.472 166.376,573.472 "/>
<polyline clip-path="url(#clip860)" style="stroke:#000000; stroke-linecap:round; stroke-linejoin:round; stroke-width:4; stroke-opacity:1; fill:none" points="147.478,201.133 166.376,201.133 "/>
<path clip-path="url(#clip860)" d="M50.9921 1318.6 L80.6679 1318.6 L80.6679 1322.54 L50.9921 1322.54 L50.9921 1318.6 Z" fill="#000000" fill-rule="nonzero" fill-opacity="1" /><path clip-path="url(#clip860)" d="M91.5706 1331.5 L99.2095 1331.5 L99.2095 1305.13 L90.8993 1306.8 L90.8993 1302.54 L99.1632 1300.87 L103.839 1300.87 L103.839 1331.5 L111.478 1331.5 L111.478 1335.43 L91.5706 1335.43 L91.5706 1331.5 Z" fill="#000000" fill-rule="nonzero" fill-opacity="1" /><path clip-path="url(#clip860)" d="M99.5335 931.611 Q95.9224 931.611 94.0937 935.176 Q92.2882 938.717 92.2882 945.847 Q92.2882 952.953 94.0937 956.518 Q95.9224 960.06 99.5335 960.06 Q103.168 960.06 104.973 956.518 Q106.802 952.953 106.802 945.847 Q106.802 938.717 104.973 935.176 Q103.168 931.611 99.5335 931.611 M99.5335 927.907 Q105.344 927.907 108.399 932.513 Q111.478 937.097 111.478 945.847 Q111.478 954.574 108.399 959.18 Q105.344 963.763 99.5335 963.763 Q93.7234 963.763 90.6447 959.18 Q87.5892 954.574 87.5892 945.847 Q87.5892 937.097 90.6447 932.513 Q93.7234 927.907 99.5335 927.907 Z" fill="#000000" fill-rule="nonzero" fill-opacity="1" /><path clip-path="url(#clip860)" d="M91.5706 586.817 L99.2095 586.817 L99.2095 560.452 L90.8993 562.118 L90.8993 557.859 L99.1632 556.192 L103.839 556.192 L103.839 586.817 L111.478 586.817 L111.478 590.752 L91.5706 590.752 L91.5706 586.817 Z" fill="#000000" fill-rule="nonzero" fill-opacity="1" /><path clip-path="url(#clip860)" d="M95.1586 214.478 L111.478 214.478 L111.478 218.413 L89.5336 218.413 L89.5336 214.478 Q92.1956 211.723 96.7789 207.093 Q101.385 202.441 102.566 201.098 Q104.811 198.575 105.691 196.839 Q106.594 195.08 106.594 193.39 Q106.594 190.635 104.649 188.899 Q102.728 187.163 99.6261 187.163 Q97.4271 187.163 94.9734 187.927 Q92.5428 188.691 89.7651 190.242 L89.7651 185.519 Q92.5891 184.385 95.0428 183.806 Q97.4965 183.228 99.5335 183.228 Q104.904 183.228 108.098 185.913 Q111.293 188.598 111.293 193.089 Q111.293 195.218 110.483 197.14 Q109.696 199.038 107.589 201.63 Q107.01 202.302 103.909 205.519 Q100.807 208.714 95.1586 214.478 Z" fill="#000000" fill-rule="nonzero" fill-opacity="1" /><polyline clip-path="url(#clip862)" style="stroke:#009af9; stroke-linecap:round; stroke-linejoin:round; stroke-width:4; stroke-opacity:1; fill:none" points="209.891,980.25 220.346,970.992 230.8,953.814 241.255,942.096 251.71,926.965 262.164,911.713 272.619,887.744 283.073,863.123 293.528,836.335 303.982,809.39 314.437,777.938 324.891,746.206 335.346,714.699 345.8,683.857 356.255,653.527 366.709,621.938 377.164,590.534 387.618,563.625 398.073,543.473 408.527,537.178 418.982,527.158 429.437,514.861 439.891,506.301 450.346,492.595 460.8,477.026 471.255,469.709 481.709,466.183 492.164,466.676 502.618,485.661 513.073,509.391 523.527,529.605 533.982,552.811 544.436,565.463 554.891,569.629 565.345,578.691 575.8,590.378 586.254,604.545 596.709,627.488 607.163,654.822 617.618,679.018 628.073,699.819 638.527,718.732 648.982,743.276 659.436,766.756 669.891,784.773 680.345,804.242 690.8,820.634 701.254,826.569 711.709,824.697 722.163,814.089 732.618,805.992 743.072,797.262 753.527,783.756 763.981,764.004 774.436,740.218 784.89,712.287 795.345,689.922 805.799,673.163 816.254,652.608 826.709,615.099 837.163,569.143 847.618,519.834 858.072,469.282 868.527,427.003 878.981,392.45 889.436,373.038 899.89,356.727 910.345,343.235 920.799,326.205 931.254,325.29 941.708,321.48 952.163,322.014 962.617,325.541 973.072,322.643 983.526,317.026 993.981,309.135 1004.44,299.667 1014.89,292.292 1025.34,287.4 1035.8,279.5 1046.25,269.237 1056.71,253.175 1067.16,235.373 1077.62,214.787 1088.07,203.03 1098.53,200.849 1108.98,208.288 1119.44,204.934 1129.89,208.49 1140.34,200.212 1150.8,198.118 1161.25,198.537 1171.71,194.528 1182.16,191.607 1192.62,190.637 1203.07,182.054 1213.53,171.907 1223.98,173.638 1234.44,183.121 1244.89,195.817 1255.34,214.4 1265.8,232.647 1276.25,251.928 1286.71,274.219 1297.16,298.367 1307.62,322.435 1318.07,338.507 1328.53,360.588 1338.98,388.221 1349.43,415.277 1359.89,453.15 1370.34,498.612 1380.8,546.777 1391.25,588.722 1401.71,623.946 1412.16,661.432 1422.62,696.252 1433.07,730.668 1443.53,765.472 1453.98,801.417 1464.43,834.417 1474.89,868.943 1485.34,906.579 1495.8,935.776 1506.25,949.434 1516.71,951.082 1527.16,954.38 1537.62,960.019 1548.07,964.476 1558.53,971.099 1568.98,976.043 1579.43,975.316 1589.89,967.877 1600.34,958.35 1610.8,952.008 1621.25,939.344 1631.71,928.428 1642.16,916.098 1652.62,905.482 1663.07,899.18 1673.53,903.537 1683.98,905.462 1694.43,908.658 1704.89,905.973 1715.34,900.124 1725.8,894.576 1736.25,887.564 1746.71,879.642 1757.16,860.254 1767.62,846.764 1778.07,839.63 1788.53,844.203 1798.98,847.187 1809.43,838.313 1819.89,832.016 1830.34,831.806 1840.8,829.46 1851.25,825.202 1861.71,821.425 1872.16,829.238 1882.62,847.193 1893.07,858.608 1903.52,860.459 1913.98,848.215 1924.43,822.567 1934.89,793.723 1945.34,773.146 1955.8,764.727 1966.25,767.713 1976.71,769.782 1987.16,775.73 1997.62,780.016 2008.07,782.818 2018.52,783.54 2028.98,775.25 2039.43,779.253 2049.89,791.501 2060.34,804.473 2070.8,819.061 2081.25,839.598 2091.71,856.754 2102.16,878.282 2112.62,901.521 2123.07,922.67 2133.52,933.778 2143.98,952.562 2154.43,966.833 2164.89,978.307 2175.34,986.494 2185.8,998.04 2196.25,1020.28 2206.71,1045.05 2217.16,1077.27 2227.62,1107.92 2238.07,1135.49 2248.52,1158.98 2258.98,1183.89 2269.43,1211.94 2279.89,1247.89 2290.34,1292.52 "/>
<circle clip-path="url(#clip862)" cx="209.891" cy="943.466" r="14.4" fill="#000000" fill-rule="evenodd" fill-opacity="1" stroke="none"/>
<circle clip-path="url(#clip862)" cx="220.346" cy="1147.73" r="14.4" fill="#000000" fill-rule="evenodd" fill-opacity="1" stroke="none"/>
<circle clip-path="url(#clip862)" cx="230.8" cy="1283.78" r="14.4" fill="#000000" fill-rule="evenodd" fill-opacity="1" stroke="none"/>
<circle clip-path="url(#clip862)" cx="241.255" cy="1153.24" r="14.4" fill="#000000" fill-rule="evenodd" fill-opacity="1" stroke="none"/>
<circle clip-path="url(#clip862)" cx="251.71" cy="1194.01" r="14.4" fill="#000000" fill-rule="evenodd" fill-opacity="1" stroke="none"/>
<circle clip-path="url(#clip862)" cx="262.164" cy="971.39" r="14.4" fill="#000000" fill-rule="evenodd" fill-opacity="1" stroke="none"/>
<circle clip-path="url(#clip862)" cx="272.619" cy="786.345" r="14.4" fill="#000000" fill-rule="evenodd" fill-opacity="1" stroke="none"/>
<circle clip-path="url(#clip862)" cx="283.073" cy="733.13" r="14.4" fill="#000000" fill-rule="evenodd" fill-opacity="1" stroke="none"/>
<circle clip-path="url(#clip862)" cx="293.528" cy="864.739" r="14.4" fill="#000000" fill-rule="evenodd" fill-opacity="1" stroke="none"/>
<circle clip-path="url(#clip862)" cx="303.982" cy="727.363" r="14.4" fill="#000000" fill-rule="evenodd" fill-opacity="1" stroke="none"/>
<circle clip-path="url(#clip862)" cx="314.437" cy="848.255" r="14.4" fill="#000000" fill-rule="evenodd" fill-opacity="1" stroke="none"/>
<circle clip-path="url(#clip862)" cx="324.891" cy="1134.79" r="14.4" fill="#000000" fill-rule="evenodd" fill-opacity="1" stroke="none"/>
<circle clip-path="url(#clip862)" cx="335.346" cy="394.504" r="14.4" fill="#000000" fill-rule="evenodd" fill-opacity="1" stroke="none"/>
<circle clip-path="url(#clip862)" cx="345.8" cy="613.763" r="14.4" fill="#000000" fill-rule="evenodd" fill-opacity="1" stroke="none"/>
<circle clip-path="url(#clip862)" cx="356.255" cy="765.316" r="14.4" fill="#000000" fill-rule="evenodd" fill-opacity="1" stroke="none"/>
<circle clip-path="url(#clip862)" cx="366.709" cy="612.786" r="14.4" fill="#000000" fill-rule="evenodd" fill-opacity="1" stroke="none"/>
<circle clip-path="url(#clip862)" cx="377.164" cy="574.56" r="14.4" fill="#000000" fill-rule="evenodd" fill-opacity="1" stroke="none"/>
<circle clip-path="url(#clip862)" cx="387.618" cy="521.433" r="14.4" fill="#000000" fill-rule="evenodd" fill-opacity="1" stroke="none"/>
<circle clip-path="url(#clip862)" cx="398.073" cy="541.926" r="14.4" fill="#000000" fill-rule="evenodd" fill-opacity="1" stroke="none"/>
<circle clip-path="url(#clip862)" cx="408.527" cy="487.581" r="14.4" fill="#000000" fill-rule="evenodd" fill-opacity="1" stroke="none"/>
<circle clip-path="url(#clip862)" cx="418.982" cy="498.051" r="14.4" fill="#000000" fill-rule="evenodd" fill-opacity="1" stroke="none"/>
<circle clip-path="url(#clip862)" cx="429.437" cy="401.106" r="14.4" fill="#000000" fill-rule="evenodd" fill-opacity="1" stroke="none"/>
<circle clip-path="url(#clip862)" cx="439.891" cy="607.643" r="14.4" fill="#000000" fill-rule="evenodd" fill-opacity="1" stroke="none"/>
<circle clip-path="url(#clip862)" cx="450.346" cy="431.274" r="14.4" fill="#000000" fill-rule="evenodd" fill-opacity="1" stroke="none"/>
<circle clip-path="url(#clip862)" cx="460.8" cy="344.15" r="14.4" fill="#000000" fill-rule="evenodd" fill-opacity="1" stroke="none"/>
<circle clip-path="url(#clip862)" cx="471.255" cy="463.214" r="14.4" fill="#000000" fill-rule="evenodd" fill-opacity="1" stroke="none"/>
<circle clip-path="url(#clip862)" cx="481.709" cy="369.27" r="14.4" fill="#000000" fill-rule="evenodd" fill-opacity="1" stroke="none"/>
<circle clip-path="url(#clip862)" cx="492.164" cy="417.862" r="14.4" fill="#000000" fill-rule="evenodd" fill-opacity="1" stroke="none"/>
<circle clip-path="url(#clip862)" cx="502.618" cy="696.643" r="14.4" fill="#000000" fill-rule="evenodd" fill-opacity="1" stroke="none"/>
<circle clip-path="url(#clip862)" cx="513.073" cy="595.476" r="14.4" fill="#000000" fill-rule="evenodd" fill-opacity="1" stroke="none"/>
<circle clip-path="url(#clip862)" cx="523.527" cy="595.876" r="14.4" fill="#000000" fill-rule="evenodd" fill-opacity="1" stroke="none"/>
<circle clip-path="url(#clip862)" cx="533.982" cy="670.819" r="14.4" fill="#000000" fill-rule="evenodd" fill-opacity="1" stroke="none"/>
<circle clip-path="url(#clip862)" cx="544.436" cy="597.858" r="14.4" fill="#000000" fill-rule="evenodd" fill-opacity="1" stroke="none"/>
<circle clip-path="url(#clip862)" cx="554.891" cy="655.958" r="14.4" fill="#000000" fill-rule="evenodd" fill-opacity="1" stroke="none"/>
<circle clip-path="url(#clip862)" cx="565.345" cy="604.498" r="14.4" fill="#000000" fill-rule="evenodd" fill-opacity="1" stroke="none"/>
<circle clip-path="url(#clip862)" cx="575.8" cy="625.667" r="14.4" fill="#000000" fill-rule="evenodd" fill-opacity="1" stroke="none"/>
<circle clip-path="url(#clip862)" cx="586.254" cy="721.618" r="14.4" fill="#000000" fill-rule="evenodd" fill-opacity="1" stroke="none"/>
<circle clip-path="url(#clip862)" cx="596.709" cy="758.649" r="14.4" fill="#000000" fill-rule="evenodd" fill-opacity="1" stroke="none"/>
<circle clip-path="url(#clip862)" cx="607.163" cy="656.467" r="14.4" fill="#000000" fill-rule="evenodd" fill-opacity="1" stroke="none"/>
<circle clip-path="url(#clip862)" cx="617.618" cy="496.625" r="14.4" fill="#000000" fill-rule="evenodd" fill-opacity="1" stroke="none"/>
<circle clip-path="url(#clip862)" cx="628.073" cy="697.498" r="14.4" fill="#000000" fill-rule="evenodd" fill-opacity="1" stroke="none"/>
<circle clip-path="url(#clip862)" cx="638.527" cy="916.511" r="14.4" fill="#000000" fill-rule="evenodd" fill-opacity="1" stroke="none"/>
<circle clip-path="url(#clip862)" cx="648.982" cy="905.411" r="14.4" fill="#000000" fill-rule="evenodd" fill-opacity="1" stroke="none"/>
<circle clip-path="url(#clip862)" cx="659.436" cy="778.377" r="14.4" fill="#000000" fill-rule="evenodd" fill-opacity="1" stroke="none"/>
<circle clip-path="url(#clip862)" cx="669.891" cy="633.975" r="14.4" fill="#000000" fill-rule="evenodd" fill-opacity="1" stroke="none"/>
<circle clip-path="url(#clip862)" cx="680.345" cy="638.974" r="14.4" fill="#000000" fill-rule="evenodd" fill-opacity="1" stroke="none"/>
<circle clip-path="url(#clip862)" cx="690.8" cy="718.619" r="14.4" fill="#000000" fill-rule="evenodd" fill-opacity="1" stroke="none"/>
<circle clip-path="url(#clip862)" cx="701.254" cy="709.722" r="14.4" fill="#000000" fill-rule="evenodd" fill-opacity="1" stroke="none"/>
<circle clip-path="url(#clip862)" cx="711.709" cy="781.282" r="14.4" fill="#000000" fill-rule="evenodd" fill-opacity="1" stroke="none"/>
<circle clip-path="url(#clip862)" cx="722.163" cy="879.631" r="14.4" fill="#000000" fill-rule="evenodd" fill-opacity="1" stroke="none"/>
<circle clip-path="url(#clip862)" cx="732.618" cy="731.757" r="14.4" fill="#000000" fill-rule="evenodd" fill-opacity="1" stroke="none"/>
<circle clip-path="url(#clip862)" cx="743.072" cy="619.461" r="14.4" fill="#000000" fill-rule="evenodd" fill-opacity="1" stroke="none"/>
<circle clip-path="url(#clip862)" cx="753.527" cy="860.215" r="14.4" fill="#000000" fill-rule="evenodd" fill-opacity="1" stroke="none"/>
<circle clip-path="url(#clip862)" cx="763.981" cy="954.216" r="14.4" fill="#000000" fill-rule="evenodd" fill-opacity="1" stroke="none"/>
<circle clip-path="url(#clip862)" cx="774.436" cy="816.66" r="14.4" fill="#000000" fill-rule="evenodd" fill-opacity="1" stroke="none"/>
<circle clip-path="url(#clip862)" cx="784.89" cy="739.414" r="14.4" fill="#000000" fill-rule="evenodd" fill-opacity="1" stroke="none"/>
<circle clip-path="url(#clip862)" cx="795.345" cy="720.197" r="14.4" fill="#000000" fill-rule="evenodd" fill-opacity="1" stroke="none"/>
<circle clip-path="url(#clip862)" cx="805.799" cy="558.832" r="14.4" fill="#000000" fill-rule="evenodd" fill-opacity="1" stroke="none"/>
<circle clip-path="url(#clip862)" cx="816.254" cy="565.546" r="14.4" fill="#000000" fill-rule="evenodd" fill-opacity="1" stroke="none"/>
<circle clip-path="url(#clip862)" cx="826.709" cy="581.436" r="14.4" fill="#000000" fill-rule="evenodd" fill-opacity="1" stroke="none"/>
<circle clip-path="url(#clip862)" cx="837.163" cy="588.929" r="14.4" fill="#000000" fill-rule="evenodd" fill-opacity="1" stroke="none"/>
<circle clip-path="url(#clip862)" cx="847.618" cy="407.073" r="14.4" fill="#000000" fill-rule="evenodd" fill-opacity="1" stroke="none"/>
<circle clip-path="url(#clip862)" cx="858.072" cy="479.531" r="14.4" fill="#000000" fill-rule="evenodd" fill-opacity="1" stroke="none"/>
<circle clip-path="url(#clip862)" cx="868.527" cy="213.471" r="14.4" fill="#000000" fill-rule="evenodd" fill-opacity="1" stroke="none"/>
<circle clip-path="url(#clip862)" cx="878.981" cy="249.599" r="14.4" fill="#000000" fill-rule="evenodd" fill-opacity="1" stroke="none"/>
<circle clip-path="url(#clip862)" cx="889.436" cy="354.005" r="14.4" fill="#000000" fill-rule="evenodd" fill-opacity="1" stroke="none"/>
<circle clip-path="url(#clip862)" cx="899.89" cy="336.413" r="14.4" fill="#000000" fill-rule="evenodd" fill-opacity="1" stroke="none"/>
<circle clip-path="url(#clip862)" cx="910.345" cy="230.175" r="14.4" fill="#000000" fill-rule="evenodd" fill-opacity="1" stroke="none"/>
<circle clip-path="url(#clip862)" cx="920.799" cy="280.502" r="14.4" fill="#000000" fill-rule="evenodd" fill-opacity="1" stroke="none"/>
<circle clip-path="url(#clip862)" cx="931.254" cy="297.965" r="14.4" fill="#000000" fill-rule="evenodd" fill-opacity="1" stroke="none"/>
<circle clip-path="url(#clip862)" cx="941.708" cy="417.466" r="14.4" fill="#000000" fill-rule="evenodd" fill-opacity="1" stroke="none"/>
<circle clip-path="url(#clip862)" cx="952.163" cy="256.139" r="14.4" fill="#000000" fill-rule="evenodd" fill-opacity="1" stroke="none"/>
<circle clip-path="url(#clip862)" cx="962.617" cy="348.256" r="14.4" fill="#000000" fill-rule="evenodd" fill-opacity="1" stroke="none"/>
<circle clip-path="url(#clip862)" cx="973.072" cy="408.449" r="14.4" fill="#000000" fill-rule="evenodd" fill-opacity="1" stroke="none"/>
<circle clip-path="url(#clip862)" cx="983.526" cy="320.626" r="14.4" fill="#000000" fill-rule="evenodd" fill-opacity="1" stroke="none"/>
<circle clip-path="url(#clip862)" cx="993.981" cy="148.297" r="14.4" fill="#000000" fill-rule="evenodd" fill-opacity="1" stroke="none"/>
<circle clip-path="url(#clip862)" cx="1004.44" cy="443.413" r="14.4" fill="#000000" fill-rule="evenodd" fill-opacity="1" stroke="none"/>
<circle clip-path="url(#clip862)" cx="1014.89" cy="94.0778" r="14.4" fill="#000000" fill-rule="evenodd" fill-opacity="1" stroke="none"/>
<circle clip-path="url(#clip862)" cx="1025.34" cy="361.157" r="14.4" fill="#000000" fill-rule="evenodd" fill-opacity="1" stroke="none"/>
<circle clip-path="url(#clip862)" cx="1035.8" cy="289.119" r="14.4" fill="#000000" fill-rule="evenodd" fill-opacity="1" stroke="none"/>
<circle clip-path="url(#clip862)" cx="1046.25" cy="353.39" r="14.4" fill="#000000" fill-rule="evenodd" fill-opacity="1" stroke="none"/>
<circle clip-path="url(#clip862)" cx="1056.71" cy="297.266" r="14.4" fill="#000000" fill-rule="evenodd" fill-opacity="1" stroke="none"/>
<circle clip-path="url(#clip862)" cx="1067.16" cy="98.0545" r="14.4" fill="#000000" fill-rule="evenodd" fill-opacity="1" stroke="none"/>
<circle clip-path="url(#clip862)" cx="1077.62" cy="183.304" r="14.4" fill="#000000" fill-rule="evenodd" fill-opacity="1" stroke="none"/>
<circle clip-path="url(#clip862)" cx="1088.07" cy="247.993" r="14.4" fill="#000000" fill-rule="evenodd" fill-opacity="1" stroke="none"/>
<circle clip-path="url(#clip862)" cx="1098.53" cy="394.936" r="14.4" fill="#000000" fill-rule="evenodd" fill-opacity="1" stroke="none"/>
<circle clip-path="url(#clip862)" cx="1108.98" cy="86.1857" r="14.4" fill="#000000" fill-rule="evenodd" fill-opacity="1" stroke="none"/>
<circle clip-path="url(#clip862)" cx="1119.44" cy="148.8" r="14.4" fill="#000000" fill-rule="evenodd" fill-opacity="1" stroke="none"/>
<circle clip-path="url(#clip862)" cx="1129.89" cy="441.474" r="14.4" fill="#000000" fill-rule="evenodd" fill-opacity="1" stroke="none"/>
<circle clip-path="url(#clip862)" cx="1140.34" cy="359.657" r="14.4" fill="#000000" fill-rule="evenodd" fill-opacity="1" stroke="none"/>
<circle clip-path="url(#clip862)" cx="1150.8" cy="208.099" r="14.4" fill="#000000" fill-rule="evenodd" fill-opacity="1" stroke="none"/>
<circle clip-path="url(#clip862)" cx="1161.25" cy="431.595" r="14.4" fill="#000000" fill-rule="evenodd" fill-opacity="1" stroke="none"/>
<circle clip-path="url(#clip862)" cx="1171.71" cy="153.854" r="14.4" fill="#000000" fill-rule="evenodd" fill-opacity="1" stroke="none"/>
<circle clip-path="url(#clip862)" cx="1182.16" cy="233.047" r="14.4" fill="#000000" fill-rule="evenodd" fill-opacity="1" stroke="none"/>
<circle clip-path="url(#clip862)" cx="1192.62" cy="152.081" r="14.4" fill="#000000" fill-rule="evenodd" fill-opacity="1" stroke="none"/>
<circle clip-path="url(#clip862)" cx="1203.07" cy="230.584" r="14.4" fill="#000000" fill-rule="evenodd" fill-opacity="1" stroke="none"/>
<circle clip-path="url(#clip862)" cx="1213.53" cy="283.85" r="14.4" fill="#000000" fill-rule="evenodd" fill-opacity="1" stroke="none"/>
<circle clip-path="url(#clip862)" cx="1223.98" cy="199.231" r="14.4" fill="#000000" fill-rule="evenodd" fill-opacity="1" stroke="none"/>
<circle clip-path="url(#clip862)" cx="1234.44" cy="218.195" r="14.4" fill="#000000" fill-rule="evenodd" fill-opacity="1" stroke="none"/>
<circle clip-path="url(#clip862)" cx="1244.89" cy="241.153" r="14.4" fill="#000000" fill-rule="evenodd" fill-opacity="1" stroke="none"/>
<circle clip-path="url(#clip862)" cx="1255.34" cy="273.098" r="14.4" fill="#000000" fill-rule="evenodd" fill-opacity="1" stroke="none"/>
<circle clip-path="url(#clip862)" cx="1265.8" cy="261.129" r="14.4" fill="#000000" fill-rule="evenodd" fill-opacity="1" stroke="none"/>
<circle clip-path="url(#clip862)" cx="1276.25" cy="155.53" r="14.4" fill="#000000" fill-rule="evenodd" fill-opacity="1" stroke="none"/>
<circle clip-path="url(#clip862)" cx="1286.71" cy="326.908" r="14.4" fill="#000000" fill-rule="evenodd" fill-opacity="1" stroke="none"/>
<circle clip-path="url(#clip862)" cx="1297.16" cy="315.216" r="14.4" fill="#000000" fill-rule="evenodd" fill-opacity="1" stroke="none"/>
<circle clip-path="url(#clip862)" cx="1307.62" cy="396.036" r="14.4" fill="#000000" fill-rule="evenodd" fill-opacity="1" stroke="none"/>
<circle clip-path="url(#clip862)" cx="1318.07" cy="355.134" r="14.4" fill="#000000" fill-rule="evenodd" fill-opacity="1" stroke="none"/>
<circle clip-path="url(#clip862)" cx="1328.53" cy="520.869" r="14.4" fill="#000000" fill-rule="evenodd" fill-opacity="1" stroke="none"/>
<circle clip-path="url(#clip862)" cx="1338.98" cy="361.6" r="14.4" fill="#000000" fill-rule="evenodd" fill-opacity="1" stroke="none"/>
<circle clip-path="url(#clip862)" cx="1349.43" cy="299.078" r="14.4" fill="#000000" fill-rule="evenodd" fill-opacity="1" stroke="none"/>
<circle clip-path="url(#clip862)" cx="1359.89" cy="561.299" r="14.4" fill="#000000" fill-rule="evenodd" fill-opacity="1" stroke="none"/>
<circle clip-path="url(#clip862)" cx="1370.34" cy="408.147" r="14.4" fill="#000000" fill-rule="evenodd" fill-opacity="1" stroke="none"/>
<circle clip-path="url(#clip862)" cx="1380.8" cy="751.075" r="14.4" fill="#000000" fill-rule="evenodd" fill-opacity="1" stroke="none"/>
<circle clip-path="url(#clip862)" cx="1391.25" cy="680.326" r="14.4" fill="#000000" fill-rule="evenodd" fill-opacity="1" stroke="none"/>
<circle clip-path="url(#clip862)" cx="1401.71" cy="470.929" r="14.4" fill="#000000" fill-rule="evenodd" fill-opacity="1" stroke="none"/>
<circle clip-path="url(#clip862)" cx="1412.16" cy="703.366" r="14.4" fill="#000000" fill-rule="evenodd" fill-opacity="1" stroke="none"/>
<circle clip-path="url(#clip862)" cx="1422.62" cy="725.323" r="14.4" fill="#000000" fill-rule="evenodd" fill-opacity="1" stroke="none"/>
<circle clip-path="url(#clip862)" cx="1433.07" cy="739.303" r="14.4" fill="#000000" fill-rule="evenodd" fill-opacity="1" stroke="none"/>
<circle clip-path="url(#clip862)" cx="1443.53" cy="814.998" r="14.4" fill="#000000" fill-rule="evenodd" fill-opacity="1" stroke="none"/>
<circle clip-path="url(#clip862)" cx="1453.98" cy="656.222" r="14.4" fill="#000000" fill-rule="evenodd" fill-opacity="1" stroke="none"/>
<circle clip-path="url(#clip862)" cx="1464.43" cy="728.421" r="14.4" fill="#000000" fill-rule="evenodd" fill-opacity="1" stroke="none"/>
<circle clip-path="url(#clip862)" cx="1474.89" cy="838.922" r="14.4" fill="#000000" fill-rule="evenodd" fill-opacity="1" stroke="none"/>
<circle clip-path="url(#clip862)" cx="1485.34" cy="978.081" r="14.4" fill="#000000" fill-rule="evenodd" fill-opacity="1" stroke="none"/>
<circle clip-path="url(#clip862)" cx="1495.8" cy="939.675" r="14.4" fill="#000000" fill-rule="evenodd" fill-opacity="1" stroke="none"/>
<circle clip-path="url(#clip862)" cx="1506.25" cy="1023.94" r="14.4" fill="#000000" fill-rule="evenodd" fill-opacity="1" stroke="none"/>
<circle clip-path="url(#clip862)" cx="1516.71" cy="949.577" r="14.4" fill="#000000" fill-rule="evenodd" fill-opacity="1" stroke="none"/>
<circle clip-path="url(#clip862)" cx="1527.16" cy="895.83" r="14.4" fill="#000000" fill-rule="evenodd" fill-opacity="1" stroke="none"/>
<circle clip-path="url(#clip862)" cx="1537.62" cy="867.594" r="14.4" fill="#000000" fill-rule="evenodd" fill-opacity="1" stroke="none"/>
<circle clip-path="url(#clip862)" cx="1548.07" cy="946.002" r="14.4" fill="#000000" fill-rule="evenodd" fill-opacity="1" stroke="none"/>
<circle clip-path="url(#clip862)" cx="1558.53" cy="920.358" r="14.4" fill="#000000" fill-rule="evenodd" fill-opacity="1" stroke="none"/>
<circle clip-path="url(#clip862)" cx="1568.98" cy="961.373" r="14.4" fill="#000000" fill-rule="evenodd" fill-opacity="1" stroke="none"/>
<circle clip-path="url(#clip862)" cx="1579.43" cy="971.01" r="14.4" fill="#000000" fill-rule="evenodd" fill-opacity="1" stroke="none"/>
<circle clip-path="url(#clip862)" cx="1589.89" cy="915.783" r="14.4" fill="#000000" fill-rule="evenodd" fill-opacity="1" stroke="none"/>
<circle clip-path="url(#clip862)" cx="1600.34" cy="988.05" r="14.4" fill="#000000" fill-rule="evenodd" fill-opacity="1" stroke="none"/>
<circle clip-path="url(#clip862)" cx="1610.8" cy="882.762" r="14.4" fill="#000000" fill-rule="evenodd" fill-opacity="1" stroke="none"/>
<circle clip-path="url(#clip862)" cx="1621.25" cy="996.355" r="14.4" fill="#000000" fill-rule="evenodd" fill-opacity="1" stroke="none"/>
<circle clip-path="url(#clip862)" cx="1631.71" cy="1080.72" r="14.4" fill="#000000" fill-rule="evenodd" fill-opacity="1" stroke="none"/>
<circle clip-path="url(#clip862)" cx="1642.16" cy="1058.82" r="14.4" fill="#000000" fill-rule="evenodd" fill-opacity="1" stroke="none"/>
<circle clip-path="url(#clip862)" cx="1652.62" cy="709.862" r="14.4" fill="#000000" fill-rule="evenodd" fill-opacity="1" stroke="none"/>
<circle clip-path="url(#clip862)" cx="1663.07" cy="800.624" r="14.4" fill="#000000" fill-rule="evenodd" fill-opacity="1" stroke="none"/>
<circle clip-path="url(#clip862)" cx="1673.53" cy="1007.32" r="14.4" fill="#000000" fill-rule="evenodd" fill-opacity="1" stroke="none"/>
<circle clip-path="url(#clip862)" cx="1683.98" cy="727.679" r="14.4" fill="#000000" fill-rule="evenodd" fill-opacity="1" stroke="none"/>
<circle clip-path="url(#clip862)" cx="1694.43" cy="1117.85" r="14.4" fill="#000000" fill-rule="evenodd" fill-opacity="1" stroke="none"/>
<circle clip-path="url(#clip862)" cx="1704.89" cy="980.741" r="14.4" fill="#000000" fill-rule="evenodd" fill-opacity="1" stroke="none"/>
<circle clip-path="url(#clip862)" cx="1715.34" cy="894.99" r="14.4" fill="#000000" fill-rule="evenodd" fill-opacity="1" stroke="none"/>
<circle clip-path="url(#clip862)" cx="1725.8" cy="848.043" r="14.4" fill="#000000" fill-rule="evenodd" fill-opacity="1" stroke="none"/>
<circle clip-path="url(#clip862)" cx="1736.25" cy="856.609" r="14.4" fill="#000000" fill-rule="evenodd" fill-opacity="1" stroke="none"/>
<circle clip-path="url(#clip862)" cx="1746.71" cy="925.32" r="14.4" fill="#000000" fill-rule="evenodd" fill-opacity="1" stroke="none"/>
<circle clip-path="url(#clip862)" cx="1757.16" cy="957.529" r="14.4" fill="#000000" fill-rule="evenodd" fill-opacity="1" stroke="none"/>
<circle clip-path="url(#clip862)" cx="1767.62" cy="880.681" r="14.4" fill="#000000" fill-rule="evenodd" fill-opacity="1" stroke="none"/>
<circle clip-path="url(#clip862)" cx="1778.07" cy="926.682" r="14.4" fill="#000000" fill-rule="evenodd" fill-opacity="1" stroke="none"/>
<circle clip-path="url(#clip862)" cx="1788.53" cy="964.446" r="14.4" fill="#000000" fill-rule="evenodd" fill-opacity="1" stroke="none"/>
<circle clip-path="url(#clip862)" cx="1798.98" cy="712.498" r="14.4" fill="#000000" fill-rule="evenodd" fill-opacity="1" stroke="none"/>
<circle clip-path="url(#clip862)" cx="1809.43" cy="719.019" r="14.4" fill="#000000" fill-rule="evenodd" fill-opacity="1" stroke="none"/>
<circle clip-path="url(#clip862)" cx="1819.89" cy="662.949" r="14.4" fill="#000000" fill-rule="evenodd" fill-opacity="1" stroke="none"/>
<circle clip-path="url(#clip862)" cx="1830.34" cy="836.316" r="14.4" fill="#000000" fill-rule="evenodd" fill-opacity="1" stroke="none"/>
<circle clip-path="url(#clip862)" cx="1840.8" cy="635.783" r="14.4" fill="#000000" fill-rule="evenodd" fill-opacity="1" stroke="none"/>
<circle clip-path="url(#clip862)" cx="1851.25" cy="863.745" r="14.4" fill="#000000" fill-rule="evenodd" fill-opacity="1" stroke="none"/>
<circle clip-path="url(#clip862)" cx="1861.71" cy="994.117" r="14.4" fill="#000000" fill-rule="evenodd" fill-opacity="1" stroke="none"/>
<circle clip-path="url(#clip862)" cx="1872.16" cy="874.972" r="14.4" fill="#000000" fill-rule="evenodd" fill-opacity="1" stroke="none"/>
<circle clip-path="url(#clip862)" cx="1882.62" cy="737.53" r="14.4" fill="#000000" fill-rule="evenodd" fill-opacity="1" stroke="none"/>
<circle clip-path="url(#clip862)" cx="1893.07" cy="982.941" r="14.4" fill="#000000" fill-rule="evenodd" fill-opacity="1" stroke="none"/>
<circle clip-path="url(#clip862)" cx="1903.52" cy="941.336" r="14.4" fill="#000000" fill-rule="evenodd" fill-opacity="1" stroke="none"/>
<circle clip-path="url(#clip862)" cx="1913.98" cy="1097.04" r="14.4" fill="#000000" fill-rule="evenodd" fill-opacity="1" stroke="none"/>
<circle clip-path="url(#clip862)" cx="1924.43" cy="944.734" r="14.4" fill="#000000" fill-rule="evenodd" fill-opacity="1" stroke="none"/>
<circle clip-path="url(#clip862)" cx="1934.89" cy="662.114" r="14.4" fill="#000000" fill-rule="evenodd" fill-opacity="1" stroke="none"/>
<circle clip-path="url(#clip862)" cx="1945.34" cy="778.956" r="14.4" fill="#000000" fill-rule="evenodd" fill-opacity="1" stroke="none"/>
<circle clip-path="url(#clip862)" cx="1955.8" cy="725.054" r="14.4" fill="#000000" fill-rule="evenodd" fill-opacity="1" stroke="none"/>
<circle clip-path="url(#clip862)" cx="1966.25" cy="475.01" r="14.4" fill="#000000" fill-rule="evenodd" fill-opacity="1" stroke="none"/>
<circle clip-path="url(#clip862)" cx="1976.71" cy="502.18" r="14.4" fill="#000000" fill-rule="evenodd" fill-opacity="1" stroke="none"/>
<circle clip-path="url(#clip862)" cx="1987.16" cy="948.05" r="14.4" fill="#000000" fill-rule="evenodd" fill-opacity="1" stroke="none"/>
<circle clip-path="url(#clip862)" cx="1997.62" cy="760.091" r="14.4" fill="#000000" fill-rule="evenodd" fill-opacity="1" stroke="none"/>
<circle clip-path="url(#clip862)" cx="2008.07" cy="829.507" r="14.4" fill="#000000" fill-rule="evenodd" fill-opacity="1" stroke="none"/>
<circle clip-path="url(#clip862)" cx="2018.52" cy="813.505" r="14.4" fill="#000000" fill-rule="evenodd" fill-opacity="1" stroke="none"/>
<circle clip-path="url(#clip862)" cx="2028.98" cy="767.797" r="14.4" fill="#000000" fill-rule="evenodd" fill-opacity="1" stroke="none"/>
<circle clip-path="url(#clip862)" cx="2039.43" cy="863.052" r="14.4" fill="#000000" fill-rule="evenodd" fill-opacity="1" stroke="none"/>
<circle clip-path="url(#clip862)" cx="2049.89" cy="806.849" r="14.4" fill="#000000" fill-rule="evenodd" fill-opacity="1" stroke="none"/>
<circle clip-path="url(#clip862)" cx="2060.34" cy="909.406" r="14.4" fill="#000000" fill-rule="evenodd" fill-opacity="1" stroke="none"/>
<circle clip-path="url(#clip862)" cx="2070.8" cy="736.268" r="14.4" fill="#000000" fill-rule="evenodd" fill-opacity="1" stroke="none"/>
<circle clip-path="url(#clip862)" cx="2081.25" cy="821.434" r="14.4" fill="#000000" fill-rule="evenodd" fill-opacity="1" stroke="none"/>
<circle clip-path="url(#clip862)" cx="2091.71" cy="942.815" r="14.4" fill="#000000" fill-rule="evenodd" fill-opacity="1" stroke="none"/>
<circle clip-path="url(#clip862)" cx="2102.16" cy="749.758" r="14.4" fill="#000000" fill-rule="evenodd" fill-opacity="1" stroke="none"/>
<circle clip-path="url(#clip862)" cx="2112.62" cy="1059.51" r="14.4" fill="#000000" fill-rule="evenodd" fill-opacity="1" stroke="none"/>
<circle clip-path="url(#clip862)" cx="2123.07" cy="1030.45" r="14.4" fill="#000000" fill-rule="evenodd" fill-opacity="1" stroke="none"/>
<circle clip-path="url(#clip862)" cx="2133.52" cy="814.915" r="14.4" fill="#000000" fill-rule="evenodd" fill-opacity="1" stroke="none"/>
<circle clip-path="url(#clip862)" cx="2143.98" cy="902.688" r="14.4" fill="#000000" fill-rule="evenodd" fill-opacity="1" stroke="none"/>
<circle clip-path="url(#clip862)" cx="2154.43" cy="925.826" r="14.4" fill="#000000" fill-rule="evenodd" fill-opacity="1" stroke="none"/>
<circle clip-path="url(#clip862)" cx="2164.89" cy="962.978" r="14.4" fill="#000000" fill-rule="evenodd" fill-opacity="1" stroke="none"/>
<circle clip-path="url(#clip862)" cx="2175.34" cy="962.369" r="14.4" fill="#000000" fill-rule="evenodd" fill-opacity="1" stroke="none"/>
<circle clip-path="url(#clip862)" cx="2185.8" cy="912.435" r="14.4" fill="#000000" fill-rule="evenodd" fill-opacity="1" stroke="none"/>
<circle clip-path="url(#clip862)" cx="2196.25" cy="976.111" r="14.4" fill="#000000" fill-rule="evenodd" fill-opacity="1" stroke="none"/>
<circle clip-path="url(#clip862)" cx="2206.71" cy="1054.34" r="14.4" fill="#000000" fill-rule="evenodd" fill-opacity="1" stroke="none"/>
<circle clip-path="url(#clip862)" cx="2217.16" cy="942.487" r="14.4" fill="#000000" fill-rule="evenodd" fill-opacity="1" stroke="none"/>
<circle clip-path="url(#clip862)" cx="2227.62" cy="1162.49" r="14.4" fill="#000000" fill-rule="evenodd" fill-opacity="1" stroke="none"/>
<circle clip-path="url(#clip862)" cx="2238.07" cy="1107.37" r="14.4" fill="#000000" fill-rule="evenodd" fill-opacity="1" stroke="none"/>
<circle clip-path="url(#clip862)" cx="2248.52" cy="1099.34" r="14.4" fill="#000000" fill-rule="evenodd" fill-opacity="1" stroke="none"/>
<circle clip-path="url(#clip862)" cx="2258.98" cy="1136.7" r="14.4" fill="#000000" fill-rule="evenodd" fill-opacity="1" stroke="none"/>
<circle clip-path="url(#clip862)" cx="2269.43" cy="1088.57" r="14.4" fill="#000000" fill-rule="evenodd" fill-opacity="1" stroke="none"/>
<circle clip-path="url(#clip862)" cx="2279.89" cy="1069.54" r="14.4" fill="#000000" fill-rule="evenodd" fill-opacity="1" stroke="none"/>
<circle clip-path="url(#clip862)" cx="2290.34" cy="1384.24" r="14.4" fill="#000000" fill-rule="evenodd" fill-opacity="1" stroke="none"/>
<path clip-path="url(#clip860)" d="M1733.42 248.629 L2279.25 248.629 L2279.25 93.1086 L1733.42 93.1086  Z" fill="#ffffff" fill-rule="evenodd" fill-opacity="1"/>
<polyline clip-path="url(#clip860)" style="stroke:#000000; stroke-linecap:round; stroke-linejoin:round; stroke-width:4; stroke-opacity:1; fill:none" points="1733.42,248.629 2279.25,248.629 2279.25,93.1086 1733.42,93.1086 1733.42,248.629 "/>
<polyline clip-path="url(#clip860)" style="stroke:#009af9; stroke-linecap:round; stroke-linejoin:round; stroke-width:4; stroke-opacity:1; fill:none" points="1757.92,144.949 1904.94,144.949 "/>
<path clip-path="url(#clip860)" d="M1941.34 139.289 Q1937.92 139.289 1935.93 141.974 Q1933.94 144.636 1933.94 149.289 Q1933.94 153.942 1935.9 156.627 Q1937.89 159.289 1941.34 159.289 Q1944.75 159.289 1946.74 156.604 Q1948.73 153.918 1948.73 149.289 Q1948.73 144.682 1946.74 141.997 Q1944.75 139.289 1941.34 139.289 M1941.34 135.678 Q1946.9 135.678 1950.07 139.289 Q1953.24 142.9 1953.24 149.289 Q1953.24 155.655 1950.07 159.289 Q1946.9 162.9 1941.34 162.9 Q1935.76 162.9 1932.59 159.289 Q1929.44 155.655 1929.44 149.289 Q1929.44 142.9 1932.59 139.289 Q1935.76 135.678 1941.34 135.678 Z" fill="#000000" fill-rule="nonzero" fill-opacity="1" /><path clip-path="url(#clip860)" d="M1959.86 151.997 L1959.86 136.303 L1964.12 136.303 L1964.12 151.835 Q1964.12 155.516 1965.56 157.368 Q1966.99 159.196 1969.86 159.196 Q1973.31 159.196 1975.3 156.997 Q1977.31 154.798 1977.31 151.002 L1977.31 136.303 L1981.57 136.303 L1981.57 162.229 L1977.31 162.229 L1977.31 158.247 Q1975.76 160.608 1973.7 161.766 Q1971.67 162.9 1968.96 162.9 Q1964.49 162.9 1962.18 160.122 Q1959.86 157.344 1959.86 151.997 M1970.58 135.678 L1970.58 135.678 Z" fill="#000000" fill-rule="nonzero" fill-opacity="1" /><path clip-path="url(#clip860)" d="M1994.56 128.942 L1994.56 136.303 L2003.33 136.303 L2003.33 139.613 L1994.56 139.613 L1994.56 153.687 Q1994.56 156.858 1995.42 157.761 Q1996.3 158.664 1998.96 158.664 L2003.33 158.664 L2003.33 162.229 L1998.96 162.229 Q1994.03 162.229 1992.15 160.4 Q1990.28 158.548 1990.28 153.687 L1990.28 139.613 L1987.15 139.613 L1987.15 136.303 L1990.28 136.303 L1990.28 128.942 L1994.56 128.942 Z" fill="#000000" fill-rule="nonzero" fill-opacity="1" /><path clip-path="url(#clip860)" d="M2013.06 158.34 L2013.06 172.09 L2008.77 172.09 L2008.77 136.303 L2013.06 136.303 L2013.06 140.238 Q2014.4 137.923 2016.43 136.812 Q2018.49 135.678 2021.34 135.678 Q2026.06 135.678 2029 139.428 Q2031.97 143.178 2031.97 149.289 Q2031.97 155.4 2029 159.15 Q2026.06 162.9 2021.34 162.9 Q2018.49 162.9 2016.43 161.789 Q2014.4 160.655 2013.06 158.34 M2027.55 149.289 Q2027.55 144.59 2025.6 141.928 Q2023.68 139.243 2020.3 139.243 Q2016.92 139.243 2014.98 141.928 Q2013.06 144.59 2013.06 149.289 Q2013.06 153.988 2014.98 156.673 Q2016.92 159.335 2020.3 159.335 Q2023.68 159.335 2025.6 156.673 Q2027.55 153.988 2027.55 149.289 Z" fill="#000000" fill-rule="nonzero" fill-opacity="1" /><path clip-path="url(#clip860)" d="M2038.59 151.997 L2038.59 136.303 L2042.85 136.303 L2042.85 151.835 Q2042.85 155.516 2044.28 157.368 Q2045.72 159.196 2048.59 159.196 Q2052.04 159.196 2054.03 156.997 Q2056.04 154.798 2056.04 151.002 L2056.04 136.303 L2060.3 136.303 L2060.3 162.229 L2056.04 162.229 L2056.04 158.247 Q2054.49 160.608 2052.43 161.766 Q2050.39 162.9 2047.68 162.9 Q2043.22 162.9 2040.9 160.122 Q2038.59 157.344 2038.59 151.997 M2049.3 135.678 L2049.3 135.678 Z" fill="#000000" fill-rule="nonzero" fill-opacity="1" /><path clip-path="url(#clip860)" d="M2073.29 128.942 L2073.29 136.303 L2082.06 136.303 L2082.06 139.613 L2073.29 139.613 L2073.29 153.687 Q2073.29 156.858 2074.14 157.761 Q2075.02 158.664 2077.68 158.664 L2082.06 158.664 L2082.06 162.229 L2077.68 162.229 Q2072.75 162.229 2070.88 160.4 Q2069 158.548 2069 153.687 L2069 139.613 L2065.88 139.613 L2065.88 136.303 L2069 136.303 L2069 128.942 L2073.29 128.942 Z" fill="#000000" fill-rule="nonzero" fill-opacity="1" /><circle clip-path="url(#clip860)" cx="1831.43" cy="196.789" r="20.48" fill="#000000" fill-rule="evenodd" fill-opacity="1" stroke="none"/>
<path clip-path="url(#clip860)" d="M1949.79 193.12 Q1951.39 190.249 1953.61 188.884 Q1955.83 187.518 1958.84 187.518 Q1962.89 187.518 1965.09 190.365 Q1967.29 193.189 1967.29 198.421 L1967.29 214.069 L1963.01 214.069 L1963.01 198.559 Q1963.01 194.833 1961.69 193.027 Q1960.37 191.222 1957.66 191.222 Q1954.35 191.222 1952.43 193.421 Q1950.51 195.62 1950.51 199.416 L1950.51 214.069 L1946.23 214.069 L1946.23 198.559 Q1946.23 194.809 1944.91 193.027 Q1943.59 191.222 1940.83 191.222 Q1937.57 191.222 1935.65 193.444 Q1933.73 195.643 1933.73 199.416 L1933.73 214.069 L1929.44 214.069 L1929.44 188.143 L1933.73 188.143 L1933.73 192.171 Q1935.19 189.786 1937.22 188.652 Q1939.26 187.518 1942.06 187.518 Q1944.88 187.518 1946.85 188.953 Q1948.84 190.388 1949.79 193.12 Z" fill="#000000" fill-rule="nonzero" fill-opacity="1" /><path clip-path="url(#clip860)" d="M1997.96 200.041 L1997.96 202.124 L1978.38 202.124 Q1978.66 206.522 1981.02 208.837 Q1983.4 211.129 1987.64 211.129 Q1990.09 211.129 1992.38 210.527 Q1994.7 209.925 1996.97 208.721 L1996.97 212.749 Q1994.68 213.721 1992.27 214.231 Q1989.86 214.74 1987.38 214.74 Q1981.18 214.74 1977.55 211.129 Q1973.93 207.518 1973.93 201.36 Q1973.93 194.995 1977.36 191.268 Q1980.81 187.518 1986.64 187.518 Q1991.87 187.518 1994.91 190.897 Q1997.96 194.254 1997.96 200.041 M1993.7 198.791 Q1993.66 195.296 1991.74 193.212 Q1989.84 191.129 1986.69 191.129 Q1983.12 191.129 1980.97 193.143 Q1978.84 195.157 1978.52 198.814 L1993.7 198.791 Z" fill="#000000" fill-rule="nonzero" fill-opacity="1" /><path clip-path="url(#clip860)" d="M2016.74 201.036 Q2011.57 201.036 2009.58 202.217 Q2007.59 203.397 2007.59 206.245 Q2007.59 208.513 2009.07 209.856 Q2010.58 211.175 2013.15 211.175 Q2016.69 211.175 2018.82 208.675 Q2020.97 206.152 2020.97 201.985 L2020.97 201.036 L2016.74 201.036 M2025.23 199.277 L2025.23 214.069 L2020.97 214.069 L2020.97 210.133 Q2019.51 212.495 2017.34 213.629 Q2015.16 214.74 2012.01 214.74 Q2008.03 214.74 2005.67 212.518 Q2003.33 210.272 2003.33 206.522 Q2003.33 202.147 2006.25 199.925 Q2009.19 197.703 2015 197.703 L2020.97 197.703 L2020.97 197.286 Q2020.97 194.347 2019.03 192.749 Q2017.11 191.129 2013.61 191.129 Q2011.39 191.129 2009.28 191.661 Q2007.18 192.194 2005.23 193.259 L2005.23 189.323 Q2007.57 188.421 2009.77 187.981 Q2011.97 187.518 2014.05 187.518 Q2019.68 187.518 2022.45 190.434 Q2025.23 193.351 2025.23 199.277 Z" fill="#000000" fill-rule="nonzero" fill-opacity="1" /><path clip-path="url(#clip860)" d="M2050.53 188.907 L2050.53 192.934 Q2048.73 192.009 2046.78 191.546 Q2044.84 191.083 2042.75 191.083 Q2039.58 191.083 2037.99 192.055 Q2036.41 193.027 2036.41 194.971 Q2036.41 196.453 2037.55 197.309 Q2038.68 198.143 2042.11 198.907 L2043.56 199.231 Q2048.1 200.203 2050 201.985 Q2051.92 203.745 2051.92 206.916 Q2051.92 210.527 2049.05 212.633 Q2046.2 214.74 2041.2 214.74 Q2039.12 214.74 2036.85 214.323 Q2034.61 213.93 2032.11 213.12 L2032.11 208.721 Q2034.47 209.948 2036.76 210.573 Q2039.05 211.175 2041.3 211.175 Q2044.3 211.175 2045.93 210.157 Q2047.55 209.115 2047.55 207.24 Q2047.55 205.504 2046.37 204.578 Q2045.21 203.652 2041.25 202.796 L2039.77 202.448 Q2035.81 201.615 2034.05 199.902 Q2032.29 198.166 2032.29 195.157 Q2032.29 191.499 2034.88 189.509 Q2037.48 187.518 2042.24 187.518 Q2044.61 187.518 2046.69 187.865 Q2048.77 188.212 2050.53 188.907 Z" fill="#000000" fill-rule="nonzero" fill-opacity="1" /><path clip-path="url(#clip860)" d="M2058.26 203.837 L2058.26 188.143 L2062.52 188.143 L2062.52 203.675 Q2062.52 207.356 2063.96 209.208 Q2065.39 211.036 2068.26 211.036 Q2071.71 211.036 2073.7 208.837 Q2075.72 206.638 2075.72 202.842 L2075.72 188.143 L2079.98 188.143 L2079.98 214.069 L2075.72 214.069 L2075.72 210.087 Q2074.17 212.448 2072.11 213.606 Q2070.07 214.74 2067.36 214.74 Q2062.89 214.74 2060.58 211.962 Q2058.26 209.184 2058.26 203.837 M2068.98 187.518 L2068.98 187.518 Z" fill="#000000" fill-rule="nonzero" fill-opacity="1" /><path clip-path="url(#clip860)" d="M2103.77 192.124 Q2103.05 191.708 2102.2 191.522 Q2101.36 191.314 2100.35 191.314 Q2096.74 191.314 2094.79 193.675 Q2092.87 196.013 2092.87 200.411 L2092.87 214.069 L2088.59 214.069 L2088.59 188.143 L2092.87 188.143 L2092.87 192.171 Q2094.21 189.809 2096.36 188.675 Q2098.52 187.518 2101.6 187.518 Q2102.04 187.518 2102.57 187.587 Q2103.1 187.634 2103.75 187.749 L2103.77 192.124 Z" fill="#000000" fill-rule="nonzero" fill-opacity="1" /><path clip-path="url(#clip860)" d="M2129.37 200.041 L2129.37 202.124 L2109.79 202.124 Q2110.07 206.522 2112.43 208.837 Q2114.81 211.129 2119.05 211.129 Q2121.5 211.129 2123.8 210.527 Q2126.11 209.925 2128.38 208.721 L2128.38 212.749 Q2126.09 213.721 2123.68 214.231 Q2121.27 214.74 2118.8 214.74 Q2112.59 214.74 2108.96 211.129 Q2105.35 207.518 2105.35 201.36 Q2105.35 194.995 2108.77 191.268 Q2112.22 187.518 2118.05 187.518 Q2123.29 187.518 2126.32 190.897 Q2129.37 194.254 2129.37 200.041 M2125.11 198.791 Q2125.07 195.296 2123.15 193.212 Q2121.25 191.129 2118.1 191.129 Q2114.54 191.129 2112.38 193.143 Q2110.25 195.157 2109.93 198.814 L2125.11 198.791 Z" fill="#000000" fill-rule="nonzero" fill-opacity="1" /><path clip-path="url(#clip860)" d="M2156.55 193.12 Q2158.15 190.249 2160.37 188.884 Q2162.59 187.518 2165.6 187.518 Q2169.65 187.518 2171.85 190.365 Q2174.05 193.189 2174.05 198.421 L2174.05 214.069 L2169.77 214.069 L2169.77 198.559 Q2169.77 194.833 2168.45 193.027 Q2167.13 191.222 2164.42 191.222 Q2161.11 191.222 2159.19 193.421 Q2157.27 195.62 2157.27 199.416 L2157.27 214.069 L2152.98 214.069 L2152.98 198.559 Q2152.98 194.809 2151.67 193.027 Q2150.35 191.222 2147.59 191.222 Q2144.33 191.222 2142.41 193.444 Q2140.48 195.643 2140.48 199.416 L2140.48 214.069 L2136.2 214.069 L2136.2 188.143 L2140.48 188.143 L2140.48 192.171 Q2141.94 189.786 2143.98 188.652 Q2146.02 187.518 2148.82 187.518 Q2151.64 187.518 2153.61 188.953 Q2155.6 190.388 2156.55 193.12 Z" fill="#000000" fill-rule="nonzero" fill-opacity="1" /><path clip-path="url(#clip860)" d="M2204.72 200.041 L2204.72 202.124 L2185.14 202.124 Q2185.42 206.522 2187.78 208.837 Q2190.16 211.129 2194.4 211.129 Q2196.85 211.129 2199.14 210.527 Q2201.46 209.925 2203.73 208.721 L2203.73 212.749 Q2201.43 213.721 2199.03 214.231 Q2196.62 214.74 2194.14 214.74 Q2187.94 214.74 2184.3 211.129 Q2180.69 207.518 2180.69 201.36 Q2180.69 194.995 2184.12 191.268 Q2187.57 187.518 2193.4 187.518 Q2198.63 187.518 2201.67 190.897 Q2204.72 194.254 2204.72 200.041 M2200.46 198.791 Q2200.42 195.296 2198.49 193.212 Q2196.6 191.129 2193.45 191.129 Q2189.88 191.129 2187.73 193.143 Q2185.6 195.157 2185.28 198.814 L2200.46 198.791 Z" fill="#000000" fill-rule="nonzero" fill-opacity="1" /><path clip-path="url(#clip860)" d="M2233.26 198.421 L2233.26 214.069 L2229 214.069 L2229 198.559 Q2229 194.879 2227.57 193.05 Q2226.13 191.222 2223.26 191.222 Q2219.81 191.222 2217.82 193.421 Q2215.83 195.62 2215.83 199.416 L2215.83 214.069 L2211.55 214.069 L2211.55 188.143 L2215.83 188.143 L2215.83 192.171 Q2217.36 189.833 2219.42 188.675 Q2221.5 187.518 2224.21 187.518 Q2228.68 187.518 2230.97 190.296 Q2233.26 193.05 2233.26 198.421 Z" fill="#000000" fill-rule="nonzero" fill-opacity="1" /><path clip-path="url(#clip860)" d="M2245.97 180.782 L2245.97 188.143 L2254.74 188.143 L2254.74 191.453 L2245.97 191.453 L2245.97 205.527 Q2245.97 208.698 2246.83 209.601 Q2247.71 210.504 2250.37 210.504 L2254.74 210.504 L2254.74 214.069 L2250.37 214.069 Q2245.44 214.069 2243.56 212.24 Q2241.69 210.388 2241.69 205.527 L2241.69 191.453 L2238.56 191.453 L2238.56 188.143 L2241.69 188.143 L2241.69 180.782 L2245.97 180.782 Z" fill="#000000" fill-rule="nonzero" fill-opacity="1" /></svg>
