<?xml version="1.0" encoding="utf-8"?>
<svg xmlns="http://www.w3.org/2000/svg" xmlns:xlink="http://www.w3.org/1999/xlink" width="600" height="400" viewBox="0 0 2400 1600">
<defs>
  <clipPath id="clip680">
    <rect x="0" y="0" width="2400" height="1600"/>
  </clipPath>
</defs>
<path clip-path="url(#clip680)" d="M0 1600 L2400 1600 L2400 0 L0 0  Z" fill="#ffffff" fill-rule="evenodd" fill-opacity="1"/>
<defs>
  <clipPath id="clip681">
    <rect x="480" y="0" width="1681" height="1600"/>
  </clipPath>
</defs>
<path clip-path="url(#clip680)" d="M147.478 1423.18 L2352.76 1423.18 L2352.76 47.2441 L147.478 47.2441  Z" fill="#ffffff" fill-rule="evenodd" fill-opacity="1"/>
<defs>
  <clipPath id="clip682">
    <rect x="147" y="47" width="2206" height="1377"/>
  </clipPath>
</defs>
<polyline clip-path="url(#clip682)" style="stroke:#000000; stroke-linecap:round; stroke-linejoin:round; stroke-width:2; stroke-opacity:0.1; fill:none" points="209.891,1423.18 209.891,47.2441 "/>
<polyline clip-path="url(#clip682)" style="stroke:#000000; stroke-linecap:round; stroke-linejoin:round; stroke-width:2; stroke-opacity:0.1; fill:none" points="730.004,1423.18 730.004,47.2441 "/>
<polyline clip-path="url(#clip682)" style="stroke:#000000; stroke-linecap:round; stroke-linejoin:round; stroke-width:2; stroke-opacity:0.1; fill:none" points="1250.12,1423.18 1250.12,47.2441 "/>
<polyline clip-path="url(#clip682)" style="stroke:#000000; stroke-linecap:round; stroke-linejoin:round; stroke-width:2; stroke-opacity:0.1; fill:none" points="1770.23,1423.18 1770.23,47.2441 "/>
<polyline clip-path="url(#clip682)" style="stroke:#000000; stroke-linecap:round; stroke-linejoin:round; stroke-width:2; stroke-opacity:0.1; fill:none" points="2290.34,1423.18 2290.34,47.2441 "/>
<polyline clip-path="url(#clip682)" style="stroke:#000000; stroke-linecap:round; stroke-linejoin:round; stroke-width:2; stroke-opacity:0.1; fill:none" points="147.478,1313.06 2352.76,1313.06 "/>
<polyline clip-path="url(#clip682)" style="stroke:#000000; stroke-linecap:round; stroke-linejoin:round; stroke-width:2; stroke-opacity:0.1; fill:none" points="147.478,977.933 2352.76,977.933 "/>
<polyline clip-path="url(#clip682)" style="stroke:#000000; stroke-linecap:round; stroke-linejoin:round; stroke-width:2; stroke-opacity:0.1; fill:none" points="147.478,642.803 2352.76,642.803 "/>
<polyline clip-path="url(#clip682)" style="stroke:#000000; stroke-linecap:round; stroke-linejoin:round; stroke-width:2; stroke-opacity:0.1; fill:none" points="147.478,307.674 2352.76,307.674 "/>
<polyline clip-path="url(#clip680)" style="stroke:#000000; stroke-linecap:round; stroke-linejoin:round; stroke-width:4; stroke-opacity:1; fill:none" points="147.478,1423.18 2352.76,1423.18 "/>
<polyline clip-path="url(#clip680)" style="stroke:#000000; stroke-linecap:round; stroke-linejoin:round; stroke-width:4; stroke-opacity:1; fill:none" points="209.891,1423.18 209.891,1404.28 "/>
<polyline clip-path="url(#clip680)" style="stroke:#000000; stroke-linecap:round; stroke-linejoin:round; stroke-width:4; stroke-opacity:1; fill:none" points="730.004,1423.18 730.004,1404.28 "/>
<polyline clip-path="url(#clip680)" style="stroke:#000000; stroke-linecap:round; stroke-linejoin:round; stroke-width:4; stroke-opacity:1; fill:none" points="1250.12,1423.18 1250.12,1404.28 "/>
<polyline clip-path="url(#clip680)" style="stroke:#000000; stroke-linecap:round; stroke-linejoin:round; stroke-width:4; stroke-opacity:1; fill:none" points="1770.23,1423.18 1770.23,1404.28 "/>
<polyline clip-path="url(#clip680)" style="stroke:#000000; stroke-linecap:round; stroke-linejoin:round; stroke-width:4; stroke-opacity:1; fill:none" points="2290.34,1423.18 2290.34,1404.28 "/>
<path clip-path="url(#clip680)" d="M209.891 1454.1 Q206.28 1454.1 204.452 1457.66 Q202.646 1461.2 202.646 1468.33 Q202.646 1475.44 204.452 1479.01 Q206.28 1482.55 209.891 1482.55 Q213.526 1482.55 215.331 1479.01 Q217.16 1475.44 217.16 1468.33 Q217.16 1461.2 215.331 1457.66 Q213.526 1454.1 209.891 1454.1 M209.891 1450.39 Q215.702 1450.39 218.757 1455 Q221.836 1459.58 221.836 1468.33 Q221.836 1477.06 218.757 1481.67 Q215.702 1486.25 209.891 1486.25 Q204.081 1486.25 201.003 1481.67 Q197.947 1477.06 197.947 1468.33 Q197.947 1459.58 201.003 1455 Q204.081 1450.39 209.891 1450.39 Z" fill="#000000" fill-rule="nonzero" fill-opacity="1" /><path clip-path="url(#clip680)" d="M720.282 1451.02 L738.638 1451.02 L738.638 1454.96 L724.564 1454.96 L724.564 1463.43 Q725.583 1463.08 726.601 1462.92 Q727.62 1462.73 728.638 1462.73 Q734.425 1462.73 737.805 1465.9 Q741.185 1469.08 741.185 1474.49 Q741.185 1480.07 737.712 1483.17 Q734.24 1486.25 727.921 1486.25 Q725.745 1486.25 723.476 1485.88 Q721.231 1485.51 718.824 1484.77 L718.824 1480.07 Q720.907 1481.2 723.129 1481.76 Q725.351 1482.32 727.828 1482.32 Q731.833 1482.32 734.171 1480.21 Q736.509 1478.1 736.509 1474.49 Q736.509 1470.88 734.171 1468.77 Q731.833 1466.67 727.828 1466.67 Q725.953 1466.67 724.078 1467.08 Q722.226 1467.5 720.282 1468.38 L720.282 1451.02 Z" fill="#000000" fill-rule="nonzero" fill-opacity="1" /><path clip-path="url(#clip680)" d="M1224.8 1481.64 L1232.44 1481.64 L1232.44 1455.28 L1224.13 1456.95 L1224.13 1452.69 L1232.4 1451.02 L1237.07 1451.02 L1237.07 1481.64 L1244.71 1481.64 L1244.71 1485.58 L1224.8 1485.58 L1224.8 1481.64 Z" fill="#000000" fill-rule="nonzero" fill-opacity="1" /><path clip-path="url(#clip680)" d="M1264.16 1454.1 Q1260.55 1454.1 1258.72 1457.66 Q1256.91 1461.2 1256.91 1468.33 Q1256.91 1475.44 1258.72 1479.01 Q1260.55 1482.55 1264.16 1482.55 Q1267.79 1482.55 1269.6 1479.01 Q1271.42 1475.44 1271.42 1468.33 Q1271.42 1461.2 1269.6 1457.66 Q1267.79 1454.1 1264.16 1454.1 M1264.16 1450.39 Q1269.97 1450.39 1273.02 1455 Q1276.1 1459.58 1276.1 1468.33 Q1276.1 1477.06 1273.02 1481.67 Q1269.97 1486.25 1264.16 1486.25 Q1258.35 1486.25 1255.27 1481.67 Q1252.21 1477.06 1252.21 1468.33 Q1252.21 1459.58 1255.27 1455 Q1258.35 1450.39 1264.16 1450.39 Z" fill="#000000" fill-rule="nonzero" fill-opacity="1" /><path clip-path="url(#clip680)" d="M1745.41 1481.64 L1753.05 1481.64 L1753.05 1455.28 L1744.74 1456.95 L1744.74 1452.69 L1753.01 1451.02 L1757.68 1451.02 L1757.68 1481.64 L1765.32 1481.64 L1765.32 1485.58 L1745.41 1485.58 L1745.41 1481.64 Z" fill="#000000" fill-rule="nonzero" fill-opacity="1" /><path clip-path="url(#clip680)" d="M1774.81 1451.02 L1793.17 1451.02 L1793.17 1454.96 L1779.1 1454.96 L1779.1 1463.43 Q1780.11 1463.08 1781.13 1462.92 Q1782.15 1462.73 1783.17 1462.73 Q1788.96 1462.73 1792.34 1465.9 Q1795.72 1469.08 1795.72 1474.49 Q1795.72 1480.07 1792.24 1483.17 Q1788.77 1486.25 1782.45 1486.25 Q1780.28 1486.25 1778.01 1485.88 Q1775.76 1485.51 1773.35 1484.77 L1773.35 1480.07 Q1775.44 1481.2 1777.66 1481.76 Q1779.88 1482.32 1782.36 1482.32 Q1786.36 1482.32 1788.7 1480.21 Q1791.04 1478.1 1791.04 1474.49 Q1791.04 1470.88 1788.7 1468.77 Q1786.36 1466.67 1782.36 1466.67 Q1780.48 1466.67 1778.61 1467.08 Q1776.76 1467.5 1774.81 1468.38 L1774.81 1451.02 Z" fill="#000000" fill-rule="nonzero" fill-opacity="1" /><path clip-path="url(#clip680)" d="M2269.12 1481.64 L2285.43 1481.64 L2285.43 1485.58 L2263.49 1485.58 L2263.49 1481.64 Q2266.15 1478.89 2270.74 1474.26 Q2275.34 1469.61 2276.52 1468.27 Q2278.77 1465.74 2279.65 1464.01 Q2280.55 1462.25 2280.55 1460.56 Q2280.55 1457.8 2278.61 1456.07 Q2276.69 1454.33 2273.58 1454.33 Q2271.38 1454.33 2268.93 1455.09 Q2266.5 1455.86 2263.72 1457.41 L2263.72 1452.69 Q2266.55 1451.55 2269 1450.97 Q2271.45 1450.39 2273.49 1450.39 Q2278.86 1450.39 2282.06 1453.08 Q2285.25 1455.77 2285.25 1460.26 Q2285.25 1462.39 2284.44 1464.31 Q2283.65 1466.2 2281.55 1468.8 Q2280.97 1469.47 2277.87 1472.69 Q2274.76 1475.88 2269.12 1481.64 Z" fill="#000000" fill-rule="nonzero" fill-opacity="1" /><path clip-path="url(#clip680)" d="M2305.25 1454.1 Q2301.64 1454.1 2299.81 1457.66 Q2298 1461.2 2298 1468.33 Q2298 1475.44 2299.81 1479.01 Q2301.64 1482.55 2305.25 1482.55 Q2308.88 1482.55 2310.69 1479.01 Q2312.52 1475.44 2312.52 1468.33 Q2312.52 1461.2 2310.69 1457.66 Q2308.88 1454.1 2305.25 1454.1 M2305.25 1450.39 Q2311.06 1450.39 2314.12 1455 Q2317.19 1459.58 2317.19 1468.33 Q2317.19 1477.06 2314.12 1481.67 Q2311.06 1486.25 2305.25 1486.25 Q2299.44 1486.25 2296.36 1481.67 Q2293.31 1477.06 2293.31 1468.33 Q2293.31 1459.58 2296.36 1455 Q2299.44 1450.39 2305.25 1450.39 Z" fill="#000000" fill-rule="nonzero" fill-opacity="1" /><path clip-path="url(#clip680)" d="M1249.18 1522.27 L1249.18 1532.4 L1261.24 1532.4 L1261.24 1536.95 L1249.18 1536.95 L1249.18 1556.3 Q1249.18 1560.66 1250.36 1561.9 Q1251.57 1563.14 1255.23 1563.14 L1261.24 1563.14 L1261.24 1568.04 L1255.23 1568.04 Q1248.45 1568.04 1245.87 1565.53 Q1243.29 1562.98 1243.29 1556.3 L1243.29 1536.95 L1238.99 1536.95 L1238.99 1532.4 L1243.29 1532.4 L1243.29 1522.27 L1249.18 1522.27 Z" fill="#000000" fill-rule="nonzero" fill-opacity="1" /><polyline clip-path="url(#clip680)" style="stroke:#000000; stroke-linecap:round; stroke-linejoin:round; stroke-width:4; stroke-opacity:1; fill:none" points="147.478,1423.18 147.478,47.2441 "/>
<polyline clip-path="url(#clip680)" style="stroke:#000000; stroke-linecap:round; stroke-linejoin:round; stroke-width:4; stroke-opacity:1; fill:none" points="147.478,1313.06 166.376,1313.06 "/>
<polyline clip-path="url(#clip680)" style="stroke:#000000; stroke-linecap:round; stroke-linejoin:round; stroke-width:4; stroke-opacity:1; fill:none" points="147.478,977.933 166.376,977.933 "/>
<polyline clip-path="url(#clip680)" style="stroke:#000000; stroke-linecap:round; stroke-linejoin:round; stroke-width:4; stroke-opacity:1; fill:none" points="147.478,642.803 166.376,642.803 "/>
<polyline clip-path="url(#clip680)" style="stroke:#000000; stroke-linecap:round; stroke-linejoin:round; stroke-width:4; stroke-opacity:1; fill:none" points="147.478,307.674 166.376,307.674 "/>
<path clip-path="url(#clip680)" d="M51.3625 1313.51 L81.0383 1313.51 L81.0383 1317.45 L51.3625 1317.45 L51.3625 1313.51 Z" fill="#000000" fill-rule="nonzero" fill-opacity="1" /><path clip-path="url(#clip680)" d="M95.1586 1326.41 L111.478 1326.41 L111.478 1330.34 L89.5336 1330.34 L89.5336 1326.41 Q92.1956 1323.65 96.7789 1319.02 Q101.385 1314.37 102.566 1313.03 Q104.811 1310.5 105.691 1308.77 Q106.594 1307.01 106.594 1305.32 Q106.594 1302.56 104.649 1300.83 Q102.728 1299.09 99.6261 1299.09 Q97.4271 1299.09 94.9734 1299.86 Q92.5428 1300.62 89.7651 1302.17 L89.7651 1297.45 Q92.5891 1296.31 95.0428 1295.74 Q97.4965 1295.16 99.5335 1295.16 Q104.904 1295.16 108.098 1297.84 Q111.293 1300.53 111.293 1305.02 Q111.293 1307.15 110.483 1309.07 Q109.696 1310.97 107.589 1313.56 Q107.01 1314.23 103.909 1317.45 Q100.807 1320.64 95.1586 1326.41 Z" fill="#000000" fill-rule="nonzero" fill-opacity="1" /><path clip-path="url(#clip680)" d="M50.9921 978.384 L80.6679 978.384 L80.6679 982.319 L50.9921 982.319 L50.9921 978.384 Z" fill="#000000" fill-rule="nonzero" fill-opacity="1" /><path clip-path="url(#clip680)" d="M91.5706 991.278 L99.2095 991.278 L99.2095 964.912 L90.8993 966.579 L90.8993 962.319 L99.1632 960.653 L103.839 960.653 L103.839 991.278 L111.478 991.278 L111.478 995.213 L91.5706 995.213 L91.5706 991.278 Z" fill="#000000" fill-rule="nonzero" fill-opacity="1" /><path clip-path="url(#clip680)" d="M99.5335 628.602 Q95.9224 628.602 94.0937 632.167 Q92.2882 635.708 92.2882 642.838 Q92.2882 649.945 94.0937 653.509 Q95.9224 657.051 99.5335 657.051 Q103.168 657.051 104.973 653.509 Q106.802 649.945 106.802 642.838 Q106.802 635.708 104.973 632.167 Q103.168 628.602 99.5335 628.602 M99.5335 624.898 Q105.344 624.898 108.399 629.505 Q111.478 634.088 111.478 642.838 Q111.478 651.565 108.399 656.171 Q105.344 660.755 99.5335 660.755 Q93.7234 660.755 90.6447 656.171 Q87.5892 651.565 87.5892 642.838 Q87.5892 634.088 90.6447 629.505 Q93.7234 624.898 99.5335 624.898 Z" fill="#000000" fill-rule="nonzero" fill-opacity="1" /><path clip-path="url(#clip680)" d="M91.5706 321.019 L99.2095 321.019 L99.2095 294.653 L90.8993 296.32 L90.8993 292.061 L99.1632 290.394 L103.839 290.394 L103.839 321.019 L111.478 321.019 L111.478 324.954 L91.5706 324.954 L91.5706 321.019 Z" fill="#000000" fill-rule="nonzero" fill-opacity="1" /><polyline clip-path="url(#clip682)" style="stroke:#000000; stroke-linecap:round; stroke-linejoin:round; stroke-width:4; stroke-opacity:1; fill:none" points="209.891,322.987 213.955,332.661 218.018,339.482 222.082,344.009 226.145,346.566 230.208,347.071 234.272,345.209 238.335,341.795 242.398,338.955 246.462,338.614 250.525,340.863 254.589,345.295 258.652,352.21 262.715,361.554 266.779,374.973 270.842,393.292 274.906,417.218 278.969,445.937 283.032,478.164 287.096,513.041 291.159,548.318 295.222,582.83 299.286,616.791 303.349,650.892 307.413,685.737 311.476,722.042 315.539,758.651 319.603,794.675 323.666,830.022 327.729,864.51 331.793,898.771 335.856,932.996 339.92,967.149 343.983,1000.83 348.046,1033.4 352.11,1064.27 356.173,1094.59 360.237,1125.29 364.3,1155.26 368.363,1182.6 372.427,1207.45 376.49,1228.76 380.553,1245.45 384.617,1256.82 388.68,1263.43 392.744,1265.66 396.807,1264.05 400.87,1260.53 404.934,1254.99 408.997,1246.96 413.06,1236.55 417.124,1224.23 421.187,1210.83 425.251,1196.93 429.314,1183.19 433.377,1169.01 437.441,1154.37 441.504,1139.81 445.568,1125.74 449.631,1111.81 453.694,1099.3 457.758,1089.76 461.821,1084.29 465.884,1083.76 469.948,1087.33 474.011,1093.4 478.075,1102.36 482.138,1113.71 486.201,1127.93 490.265,1143.74 494.328,1159.81 498.391,1174.93 502.455,1188 506.518,1198.48 510.582,1204.79 514.645,1209.14 518.708,1212.32 522.772,1214.29 526.835,1213.9 530.899,1209.96 534.962,1201.96 539.025,1190.98 543.089,1178.62 547.152,1165.1 551.215,1150.1 555.279,1133.91 559.342,1118.35 563.406,1104.17 567.469,1090.96 571.532,1077.96 575.596,1064.92 579.659,1051.68 583.722,1038.68 587.786,1026.91 591.849,1017.11 595.913,1008.28 599.976,1000.63 604.039,995.166 608.103,991.982 612.166,990.795 616.23,992.136 620.293,997.04 624.356,1004.85 628.42,1014.53 632.483,1024.63 636.546,1034 640.61,1041.81 644.673,1047.71 648.737,1052.39 652.8,1056.82 656.863,1060.58 660.927,1063.43 664.99,1064.8 669.053,1064.44 673.117,1061.77 677.18,1056.81 681.244,1051.55 685.307,1046.39 689.37,1039.37 693.434,1030.28 697.497,1020.23 701.561,1010.61 705.624,1001.29 709.687,991.441 713.751,979.908 717.814,966.96 721.877,952.231 725.941,937.105 730.004,923.656 734.068,911.98 738.131,902.406 742.194,895.219 746.258,890.572 750.321,887.27 754.384,883.955 758.448,881.365 762.511,879.7 766.575,879.633 770.638,882.297 774.701,886.754 778.765,891.69 782.828,896.761 786.892,902.348 790.955,909.718 795.018,918.937 799.082,930.262 803.145,942.634 807.208,953.885 811.272,962.842 815.335,968.815 819.399,972.302 823.462,974.628 827.525,975.203 831.589,974.004 835.652,971.444 839.715,968.074 843.779,964.478 847.842,961.523 851.906,959.722 855.969,960.015 860.032,963.055 864.096,967.993 868.159,976.341 872.223,988.352 876.286,1003.54 880.349,1021.05 884.413,1039.72 888.476,1058.58 892.539,1076.6 896.603,1092.19 900.666,1104.87 904.73,1115.21 908.793,1122.88 912.856,1127.63 916.92,1129.44 920.983,1129.59 925.046,1128.96 929.11,1129.13 933.173,1130.87 937.237,1134.43 941.3,1138.37 945.363,1140.87 949.427,1141.42 953.49,1140.56 957.553,1138.69 961.617,1137.01 965.68,1136.14 969.744,1135.78 973.807,1136.77 977.87,1139.82 981.934,1144.95 985.997,1151.35 990.061,1157.77 994.124,1163.04 998.187,1167.38 1002.25,1171.04 1006.31,1174.84 1010.38,1178.63 1014.44,1182.79 1018.5,1186.35 1022.57,1189.46 1026.63,1191.78 1030.69,1193.28 1034.76,1193.13 1038.82,1191.55 1042.88,1188.41 1046.95,1182.91 1051.01,1175.99 1055.07,1167.39 1059.14,1157.61 1063.2,1148.34 1067.26,1139.54 1071.33,1130.88 1075.39,1121.82 1079.45,1111.95 1083.52,1101.27 1087.58,1088.9 1091.65,1075.71 1095.71,1063.05 1099.77,1051.66 1103.84,1041.95 1107.9,1033.15 1111.96,1025.29 1116.03,1017.62 1120.09,1009.56 1124.15,1002.11 1128.22,995.732 1132.28,988.117 1136.34,977.081 1140.41,963.147 1144.47,948.159 1148.53,932.751 1152.6,917.155 1156.66,901.699 1160.72,887.269 1164.79,873.613 1168.85,859.382 1172.91,843.619 1176.98,823.888 1181.04,798.849 1185.1,770.179 1189.17,738.967 1193.23,706.409 1197.29,674.361 1201.36,643.164 1205.42,612.416 1209.48,583.303 1213.55,555.85 1217.61,530.983 1221.67,508.454 1225.74,487.702 1229.8,468.846 1233.86,451.571 1237.93,436.977 1241.99,424.669 1246.05,415.129 1250.12,408.641 1254.18,405.461 1258.24,404.158 1262.31,404.26 1266.37,406.191 1270.43,411.076 1274.5,417.936 1278.56,427.625 1282.62,440.806 1286.69,457.306 1290.75,476.195 1294.81,498.174 1298.88,521.876 1302.94,545.532 1307,569.598 1311.07,595.73 1315.13,623.056 1319.19,650.915 1323.26,677.543 1327.32,702.926 1331.38,727.604 1335.45,751.079 1339.51,772.89 1343.57,792.39 1347.64,811.7 1351.7,831.362 1355.76,850.999 1359.83,869.69 1363.89,886.246 1367.95,901.738 1372.02,916.544 1376.08,930.875 1380.15,944.594 1384.21,957.422 1388.27,968.976 1392.34,979.886 1396.4,990.528 1400.46,1000.75 1404.53,1010.65 1408.59,1019.85 1412.65,1028.15 1416.72,1033.94 1420.78,1036.54 1424.84,1038.51 1428.91,1041.04 1432.97,1044.3 1437.03,1050 1441.1,1058.45 1445.16,1068.35 1449.22,1079.41 1453.29,1089.86 1457.35,1098.35 1461.41,1105.3 1465.48,1111.24 1469.54,1116.75 1473.6,1121.57 1477.67,1125.94 1481.73,1129.98 1485.79,1133.91 1489.86,1136.6 1493.92,1137.91 1497.98,1138.79 1502.05,1140 1506.11,1140.49 1510.17,1139.39 1514.24,1136.89 1518.3,1132.54 1522.36,1126.99 1526.43,1121.47 1530.49,1116.02 1534.55,1111.74 1538.62,1106.68 1542.68,1099.89 1546.74,1092.23 1550.81,1084.18 1554.87,1075.59 1558.93,1066.03 1563,1055.14 1567.06,1043.74 1571.12,1033.8 1575.19,1026.01 1579.25,1020.81 1583.31,1018.18 1587.38,1017.49 1591.44,1017.13 1595.5,1016.8 1599.57,1018.07 1603.63,1020.35 1607.69,1023.39 1611.76,1027.11 1615.82,1030.27 1619.88,1032.69 1623.95,1034.25 1628.01,1034.5 1632.07,1033.62 1636.14,1032.08 1640.2,1030.65 1644.26,1029.98 1648.33,1028.43 1652.39,1024.09 1656.45,1016.23 1660.52,1006.19 1664.58,995.074 1668.65,984.149 1672.71,972.942 1676.77,960.948 1680.84,947.963 1684.9,935.045 1688.96,923.049 1693.03,912.243 1697.09,902.627 1701.15,894.629 1705.22,888.893 1709.28,885.355 1713.34,882.483 1717.41,878.624 1721.47,872.479 1725.53,864.792 1729.6,856.388 1733.66,847.272 1737.72,837.255 1741.79,826.399 1745.85,815.77 1749.91,806.965 1753.98,800.643 1758.04,797.318 1762.1,796.538 1766.17,799.236 1770.23,804.746 1774.29,812.389 1778.36,821.119 1782.42,829.711 1786.48,837.096 1790.55,843.169 1794.61,847.236 1798.67,850.013 1802.74,851.502 1806.8,851.773 1810.86,850.124 1814.93,846.673 1818.99,842.441 1823.05,838.079 1827.12,834.222 1831.18,830.936 1835.24,828.851 1839.31,827.862 1843.37,827.222 1847.43,827.665 1851.5,830.614 1855.56,834.517 1859.62,838.044 1863.69,840.622 1867.75,841.953 1871.81,840.998 1875.88,838.354 1879.94,834.037 1884,829.899 1888.07,827.379 1892.13,826.638 1896.19,827.261 1900.26,829.097 1904.32,831.713 1908.38,835.349 1912.45,840.017 1916.51,844.117 1920.57,846.92 1924.64,847.996 1928.7,846.966 1932.76,844.045 1936.83,841.908 1940.89,841.386 1944.96,842.706 1949.02,845.793 1953.08,851.279 1957.15,859.775 1961.21,871.462 1965.27,885.315 1969.34,900.546 1973.4,915.657 1977.46,929.547 1981.53,941.174 1985.59,949.536 1989.65,954.813 1993.72,957.867 1997.78,959.422 2001.84,958.959 2005.91,957.397 2009.97,955.52 2014.03,953.133 2018.1,950.788 2022.16,949.056 2026.22,948.733 2030.29,950.462 2034.35,952.378 2038.41,953.629 2042.48,954.279 2046.54,955.465 2050.6,958.209 2054.67,960.791 2058.73,963.422 2062.79,965.563 2066.86,966.232 2070.92,965.193 2074.98,963.072 2079.05,961.203 2083.11,960.354 2087.17,960.369 2091.24,960.746 2095.3,961.405 2099.36,961.959 2103.43,963.08 2107.49,965.668 2111.55,969.737 2115.62,975.214 2119.68,980.691 2123.74,984.66 2127.81,987.112 2131.87,989.755 2135.93,991.989 2140,991.821 2144.06,990.208 2148.12,988.001 2152.19,984.034 2156.25,978.463 2160.31,971.545 2164.38,964.036 2168.44,956.794 2172.5,950.754 2176.57,945.496 2180.63,939.814 2184.69,933.214 2188.76,924.464 2192.82,913.539 2196.88,901.898 2200.95,889.749 2205.01,877.893 2209.07,866.465 2213.14,855.243 2217.2,844.114 2221.26,832.663 2225.33,820.575 2229.39,807.763 2233.46,794.616 2237.52,781.011 2241.58,766.134 2245.65,752.031 2249.71,739.744 2253.77,729.733 2257.84,720.606 2261.9,712.097 2265.96,703.865 2270.03,695.085 2274.09,686.885 2278.15,678.416 2282.22,669.57 2286.28,659.755 2290.34,649.954 "/>
<circle clip-path="url(#clip682)" cx="209.891" cy="263.116" r="14.4" fill="#ff0000" fill-rule="evenodd" fill-opacity="1" stroke="#000000" stroke-opacity="1" stroke-width="3.2"/>
<circle clip-path="url(#clip682)" cx="242.398" cy="208.247" r="14.4" fill="#ff0000" fill-rule="evenodd" fill-opacity="1" stroke="#000000" stroke-opacity="1" stroke-width="3.2"/>
<circle clip-path="url(#clip682)" cx="274.906" cy="436.017" r="14.4" fill="#ff0000" fill-rule="evenodd" fill-opacity="1" stroke="#000000" stroke-opacity="1" stroke-width="3.2"/>
<circle clip-path="url(#clip682)" cx="307.413" cy="558.683" r="14.4" fill="#ff0000" fill-rule="evenodd" fill-opacity="1" stroke="#000000" stroke-opacity="1" stroke-width="3.2"/>
<circle clip-path="url(#clip682)" cx="339.92" cy="904.231" r="14.4" fill="#ff0000" fill-rule="evenodd" fill-opacity="1" stroke="#000000" stroke-opacity="1" stroke-width="3.2"/>
<circle clip-path="url(#clip682)" cx="372.427" cy="988.87" r="14.4" fill="#ff0000" fill-rule="evenodd" fill-opacity="1" stroke="#000000" stroke-opacity="1" stroke-width="3.2"/>
<circle clip-path="url(#clip682)" cx="404.934" cy="1277.64" r="14.4" fill="#ff0000" fill-rule="evenodd" fill-opacity="1" stroke="#000000" stroke-opacity="1" stroke-width="3.2"/>
<circle clip-path="url(#clip682)" cx="437.441" cy="1168.73" r="14.4" fill="#ff0000" fill-rule="evenodd" fill-opacity="1" stroke="#000000" stroke-opacity="1" stroke-width="3.2"/>
<circle clip-path="url(#clip682)" cx="469.948" cy="936.969" r="14.4" fill="#ff0000" fill-rule="evenodd" fill-opacity="1" stroke="#000000" stroke-opacity="1" stroke-width="3.2"/>
<circle clip-path="url(#clip682)" cx="502.455" cy="1074.27" r="14.4" fill="#ff0000" fill-rule="evenodd" fill-opacity="1" stroke="#000000" stroke-opacity="1" stroke-width="3.2"/>
<circle clip-path="url(#clip682)" cx="534.962" cy="1310.81" r="14.4" fill="#ff0000" fill-rule="evenodd" fill-opacity="1" stroke="#000000" stroke-opacity="1" stroke-width="3.2"/>
<circle clip-path="url(#clip682)" cx="567.469" cy="1002.44" r="14.4" fill="#ff0000" fill-rule="evenodd" fill-opacity="1" stroke="#000000" stroke-opacity="1" stroke-width="3.2"/>
<circle clip-path="url(#clip682)" cx="599.976" cy="1267.64" r="14.4" fill="#ff0000" fill-rule="evenodd" fill-opacity="1" stroke="#000000" stroke-opacity="1" stroke-width="3.2"/>
<circle clip-path="url(#clip682)" cx="632.483" cy="953.607" r="14.4" fill="#ff0000" fill-rule="evenodd" fill-opacity="1" stroke="#000000" stroke-opacity="1" stroke-width="3.2"/>
<circle clip-path="url(#clip682)" cx="664.99" cy="1031.61" r="14.4" fill="#ff0000" fill-rule="evenodd" fill-opacity="1" stroke="#000000" stroke-opacity="1" stroke-width="3.2"/>
<circle clip-path="url(#clip682)" cx="697.497" cy="1026.42" r="14.4" fill="#ff0000" fill-rule="evenodd" fill-opacity="1" stroke="#000000" stroke-opacity="1" stroke-width="3.2"/>
<circle clip-path="url(#clip682)" cx="730.004" cy="942.107" r="14.4" fill="#ff0000" fill-rule="evenodd" fill-opacity="1" stroke="#000000" stroke-opacity="1" stroke-width="3.2"/>
<circle clip-path="url(#clip682)" cx="762.511" cy="744.4" r="14.4" fill="#ff0000" fill-rule="evenodd" fill-opacity="1" stroke="#000000" stroke-opacity="1" stroke-width="3.2"/>
<circle clip-path="url(#clip682)" cx="795.018" cy="1006.96" r="14.4" fill="#ff0000" fill-rule="evenodd" fill-opacity="1" stroke="#000000" stroke-opacity="1" stroke-width="3.2"/>
<circle clip-path="url(#clip682)" cx="827.525" cy="847.573" r="14.4" fill="#ff0000" fill-rule="evenodd" fill-opacity="1" stroke="#000000" stroke-opacity="1" stroke-width="3.2"/>
<circle clip-path="url(#clip682)" cx="860.032" cy="1090.04" r="14.4" fill="#ff0000" fill-rule="evenodd" fill-opacity="1" stroke="#000000" stroke-opacity="1" stroke-width="3.2"/>
<circle clip-path="url(#clip682)" cx="892.539" cy="1066.87" r="14.4" fill="#ff0000" fill-rule="evenodd" fill-opacity="1" stroke="#000000" stroke-opacity="1" stroke-width="3.2"/>
<circle clip-path="url(#clip682)" cx="925.046" cy="1137.16" r="14.4" fill="#ff0000" fill-rule="evenodd" fill-opacity="1" stroke="#000000" stroke-opacity="1" stroke-width="3.2"/>
<circle clip-path="url(#clip682)" cx="957.553" cy="1174.38" r="14.4" fill="#ff0000" fill-rule="evenodd" fill-opacity="1" stroke="#000000" stroke-opacity="1" stroke-width="3.2"/>
<circle clip-path="url(#clip682)" cx="990.061" cy="1216.4" r="14.4" fill="#ff0000" fill-rule="evenodd" fill-opacity="1" stroke="#000000" stroke-opacity="1" stroke-width="3.2"/>
<circle clip-path="url(#clip682)" cx="1022.57" cy="1220.43" r="14.4" fill="#ff0000" fill-rule="evenodd" fill-opacity="1" stroke="#000000" stroke-opacity="1" stroke-width="3.2"/>
<circle clip-path="url(#clip682)" cx="1055.07" cy="1199.58" r="14.4" fill="#ff0000" fill-rule="evenodd" fill-opacity="1" stroke="#000000" stroke-opacity="1" stroke-width="3.2"/>
<circle clip-path="url(#clip682)" cx="1087.58" cy="1208.85" r="14.4" fill="#ff0000" fill-rule="evenodd" fill-opacity="1" stroke="#000000" stroke-opacity="1" stroke-width="3.2"/>
<circle clip-path="url(#clip682)" cx="1120.09" cy="943.113" r="14.4" fill="#ff0000" fill-rule="evenodd" fill-opacity="1" stroke="#000000" stroke-opacity="1" stroke-width="3.2"/>
<circle clip-path="url(#clip682)" cx="1152.6" cy="902.22" r="14.4" fill="#ff0000" fill-rule="evenodd" fill-opacity="1" stroke="#000000" stroke-opacity="1" stroke-width="3.2"/>
<circle clip-path="url(#clip682)" cx="1185.1" cy="642.207" r="14.4" fill="#ff0000" fill-rule="evenodd" fill-opacity="1" stroke="#000000" stroke-opacity="1" stroke-width="3.2"/>
<circle clip-path="url(#clip682)" cx="1217.61" cy="452.121" r="14.4" fill="#ff0000" fill-rule="evenodd" fill-opacity="1" stroke="#000000" stroke-opacity="1" stroke-width="3.2"/>
<circle clip-path="url(#clip682)" cx="1250.12" cy="562.692" r="14.4" fill="#ff0000" fill-rule="evenodd" fill-opacity="1" stroke="#000000" stroke-opacity="1" stroke-width="3.2"/>
<circle clip-path="url(#clip682)" cx="1282.62" cy="356.271" r="14.4" fill="#ff0000" fill-rule="evenodd" fill-opacity="1" stroke="#000000" stroke-opacity="1" stroke-width="3.2"/>
<circle clip-path="url(#clip682)" cx="1315.13" cy="785.467" r="14.4" fill="#ff0000" fill-rule="evenodd" fill-opacity="1" stroke="#000000" stroke-opacity="1" stroke-width="3.2"/>
<circle clip-path="url(#clip682)" cx="1347.64" cy="817.359" r="14.4" fill="#ff0000" fill-rule="evenodd" fill-opacity="1" stroke="#000000" stroke-opacity="1" stroke-width="3.2"/>
<circle clip-path="url(#clip682)" cx="1380.15" cy="1020.57" r="14.4" fill="#ff0000" fill-rule="evenodd" fill-opacity="1" stroke="#000000" stroke-opacity="1" stroke-width="3.2"/>
<circle clip-path="url(#clip682)" cx="1412.65" cy="962.329" r="14.4" fill="#ff0000" fill-rule="evenodd" fill-opacity="1" stroke="#000000" stroke-opacity="1" stroke-width="3.2"/>
<circle clip-path="url(#clip682)" cx="1445.16" cy="950.265" r="14.4" fill="#ff0000" fill-rule="evenodd" fill-opacity="1" stroke="#000000" stroke-opacity="1" stroke-width="3.2"/>
<circle clip-path="url(#clip682)" cx="1477.67" cy="1156.39" r="14.4" fill="#ff0000" fill-rule="evenodd" fill-opacity="1" stroke="#000000" stroke-opacity="1" stroke-width="3.2"/>
<circle clip-path="url(#clip682)" cx="1510.17" cy="1089.58" r="14.4" fill="#ff0000" fill-rule="evenodd" fill-opacity="1" stroke="#000000" stroke-opacity="1" stroke-width="3.2"/>
<circle clip-path="url(#clip682)" cx="1542.68" cy="1000.73" r="14.4" fill="#ff0000" fill-rule="evenodd" fill-opacity="1" stroke="#000000" stroke-opacity="1" stroke-width="3.2"/>
<circle clip-path="url(#clip682)" cx="1575.19" cy="1067.59" r="14.4" fill="#ff0000" fill-rule="evenodd" fill-opacity="1" stroke="#000000" stroke-opacity="1" stroke-width="3.2"/>
<circle clip-path="url(#clip682)" cx="1607.69" cy="1066.36" r="14.4" fill="#ff0000" fill-rule="evenodd" fill-opacity="1" stroke="#000000" stroke-opacity="1" stroke-width="3.2"/>
<circle clip-path="url(#clip682)" cx="1640.2" cy="886.546" r="14.4" fill="#ff0000" fill-rule="evenodd" fill-opacity="1" stroke="#000000" stroke-opacity="1" stroke-width="3.2"/>
<circle clip-path="url(#clip682)" cx="1672.71" cy="902.292" r="14.4" fill="#ff0000" fill-rule="evenodd" fill-opacity="1" stroke="#000000" stroke-opacity="1" stroke-width="3.2"/>
<circle clip-path="url(#clip682)" cx="1705.22" cy="1025.93" r="14.4" fill="#ff0000" fill-rule="evenodd" fill-opacity="1" stroke="#000000" stroke-opacity="1" stroke-width="3.2"/>
<circle clip-path="url(#clip682)" cx="1737.72" cy="893.828" r="14.4" fill="#ff0000" fill-rule="evenodd" fill-opacity="1" stroke="#000000" stroke-opacity="1" stroke-width="3.2"/>
<circle clip-path="url(#clip682)" cx="1770.23" cy="881.441" r="14.4" fill="#ff0000" fill-rule="evenodd" fill-opacity="1" stroke="#000000" stroke-opacity="1" stroke-width="3.2"/>
<circle clip-path="url(#clip682)" cx="1802.74" cy="1051.54" r="14.4" fill="#ff0000" fill-rule="evenodd" fill-opacity="1" stroke="#000000" stroke-opacity="1" stroke-width="3.2"/>
<circle clip-path="url(#clip682)" cx="1835.24" cy="1022.75" r="14.4" fill="#ff0000" fill-rule="evenodd" fill-opacity="1" stroke="#000000" stroke-opacity="1" stroke-width="3.2"/>
<circle clip-path="url(#clip682)" cx="1867.75" cy="964.68" r="14.4" fill="#ff0000" fill-rule="evenodd" fill-opacity="1" stroke="#000000" stroke-opacity="1" stroke-width="3.2"/>
<circle clip-path="url(#clip682)" cx="1900.26" cy="848.627" r="14.4" fill="#ff0000" fill-rule="evenodd" fill-opacity="1" stroke="#000000" stroke-opacity="1" stroke-width="3.2"/>
<circle clip-path="url(#clip682)" cx="1932.76" cy="747.272" r="14.4" fill="#ff0000" fill-rule="evenodd" fill-opacity="1" stroke="#000000" stroke-opacity="1" stroke-width="3.2"/>
<circle clip-path="url(#clip682)" cx="1965.27" cy="747.745" r="14.4" fill="#ff0000" fill-rule="evenodd" fill-opacity="1" stroke="#000000" stroke-opacity="1" stroke-width="3.2"/>
<circle clip-path="url(#clip682)" cx="1997.78" cy="883.873" r="14.4" fill="#ff0000" fill-rule="evenodd" fill-opacity="1" stroke="#000000" stroke-opacity="1" stroke-width="3.2"/>
<circle clip-path="url(#clip682)" cx="2030.29" cy="1134.05" r="14.4" fill="#ff0000" fill-rule="evenodd" fill-opacity="1" stroke="#000000" stroke-opacity="1" stroke-width="3.2"/>
<circle clip-path="url(#clip682)" cx="2062.79" cy="906.537" r="14.4" fill="#ff0000" fill-rule="evenodd" fill-opacity="1" stroke="#000000" stroke-opacity="1" stroke-width="3.2"/>
<circle clip-path="url(#clip682)" cx="2095.3" cy="846.697" r="14.4" fill="#ff0000" fill-rule="evenodd" fill-opacity="1" stroke="#000000" stroke-opacity="1" stroke-width="3.2"/>
<circle clip-path="url(#clip682)" cx="2127.81" cy="984.934" r="14.4" fill="#ff0000" fill-rule="evenodd" fill-opacity="1" stroke="#000000" stroke-opacity="1" stroke-width="3.2"/>
<circle clip-path="url(#clip682)" cx="2160.31" cy="971.724" r="14.4" fill="#ff0000" fill-rule="evenodd" fill-opacity="1" stroke="#000000" stroke-opacity="1" stroke-width="3.2"/>
<circle clip-path="url(#clip682)" cx="2192.82" cy="839.987" r="14.4" fill="#ff0000" fill-rule="evenodd" fill-opacity="1" stroke="#000000" stroke-opacity="1" stroke-width="3.2"/>
<circle clip-path="url(#clip682)" cx="2225.33" cy="813.94" r="14.4" fill="#ff0000" fill-rule="evenodd" fill-opacity="1" stroke="#000000" stroke-opacity="1" stroke-width="3.2"/>
<circle clip-path="url(#clip682)" cx="2257.84" cy="660.151" r="14.4" fill="#ff0000" fill-rule="evenodd" fill-opacity="1" stroke="#000000" stroke-opacity="1" stroke-width="3.2"/>
<circle clip-path="url(#clip682)" cx="2290.34" cy="516.477" r="14.4" fill="#ff0000" fill-rule="evenodd" fill-opacity="1" stroke="#000000" stroke-opacity="1" stroke-width="3.2"/>
<path clip-path="url(#clip682)" d="M209.891 421.639 L213.955 411.304 L218.018 403.679 L222.082 398.799 L226.145 396.633 L230.208 397.102 L234.272 400.096 L238.335 405.489 L242.398 413.145 L246.462 422.916 L250.525 434.644 L254.589 448.171 L258.652 463.349 L262.715 480.056 L266.779 498.188 L270.842 517.663 L274.906 538.409 L278.969 560.356 L283.032 583.428 L287.096 607.546 L291.159 632.633 L295.222 658.616 L299.286 685.426 L303.349 712.992 L307.413 741.232 L311.476 770.041 L315.539 799.284 L319.603 828.805 L323.666 858.438 L327.729 888.022 L331.793 917.4 L335.856 946.431 L339.92 974.979 L343.983 1002.91 L348.046 1030.1 L352.11 1056.42 L356.173 1081.75 L360.237 1106 L364.3 1129.06 L368.363 1150.86 L372.427 1171.31 L376.49 1190.31 L380.553 1207.73 L384.617 1223.46 L388.68 1237.36 L392.744 1249.33 L396.807 1259.3 L400.87 1267.21 L404.934 1273.06 L408.997 1276.87 L413.06 1278.71 L417.124 1278.68 L421.187 1276.93 L425.251 1273.63 L429.314 1269.01 L433.377 1263.32 L437.441 1256.82 L441.504 1249.79 L445.568 1242.52 L449.631 1235.25 L453.694 1228.26 L457.758 1221.81 L461.821 1216.14 L465.884 1211.47 L469.948 1207.97 L474.011 1205.75 L478.075 1204.88 L482.138 1205.31 L486.201 1206.99 L490.265 1209.81 L494.328 1213.66 L498.391 1218.39 L502.455 1223.83 L506.518 1229.8 L510.582 1236.08 L514.645 1242.45 L518.708 1248.68 L522.772 1254.57 L526.835 1259.94 L530.899 1264.65 L534.962 1268.6 L539.025 1271.73 L543.089 1274.02 L547.152 1275.48 L551.215 1276.15 L555.279 1276.13 L559.342 1275.48 L563.406 1274.32 L567.469 1272.73 L571.532 1270.75 L575.596 1268.39 L579.659 1265.63 L583.722 1262.41 L587.786 1258.69 L591.849 1254.43 L595.913 1249.62 L599.976 1244.26 L604.039 1238.39 L608.103 1232.05 L612.166 1225.32 L616.23 1218.32 L620.293 1211.15 L624.356 1203.95 L628.42 1196.85 L632.483 1189.97 L636.546 1183.39 L640.61 1177.14 L644.673 1171.22 L648.737 1165.6 L652.8 1160.24 L656.863 1155.09 L660.927 1150.1 L664.99 1145.2 L669.053 1140.33 L673.117 1135.41 L677.18 1130.35 L681.244 1125.07 L685.307 1119.51 L689.37 1113.62 L693.434 1107.39 L697.497 1100.8 L701.561 1093.88 L705.624 1086.63 L709.687 1079.09 L713.751 1071.32 L717.814 1063.4 L721.877 1055.41 L725.941 1047.49 L730.004 1039.76 L734.068 1032.36 L738.131 1025.41 L742.194 1019.03 L746.258 1013.34 L750.321 1008.45 L754.384 1004.47 L758.448 1001.49 L762.511 999.583 L766.575 998.767 L770.638 999.011 L774.701 1000.24 L778.765 1002.36 L782.828 1005.26 L786.892 1008.85 L790.955 1013.05 L795.018 1017.76 L799.082 1022.95 L803.145 1028.56 L807.208 1034.57 L811.272 1040.96 L815.335 1047.74 L819.399 1054.93 L823.462 1062.55 L827.525 1070.61 L831.589 1079.09 L835.652 1087.94 L839.715 1097.07 L843.779 1106.4 L847.842 1115.81 L851.906 1125.24 L855.969 1134.59 L860.032 1143.81 L864.096 1152.84 L868.159 1161.62 L872.223 1170.13 L876.286 1178.33 L880.349 1186.23 L884.413 1193.84 L888.476 1201.19 L892.539 1208.31 L896.603 1215.23 L900.666 1221.97 L904.73 1228.51 L908.793 1234.87 L912.856 1241.06 L916.92 1247.08 L920.983 1252.96 L925.046 1258.72 L929.11 1264.37 L933.173 1269.91 L937.237 1275.32 L941.3 1280.61 L945.363 1285.76 L949.427 1290.78 L953.49 1295.67 L957.553 1300.44 L961.617 1305.1 L965.68 1309.61 L969.744 1313.97 L973.807 1318.13 L977.87 1322.09 L981.934 1325.82 L985.997 1329.32 L990.061 1332.59 L994.124 1335.61 L998.187 1338.35 L1002.25 1340.79 L1006.31 1342.88 L1010.38 1344.61 L1014.44 1345.95 L1018.5 1346.89 L1022.57 1347.4 L1026.63 1347.48 L1030.69 1347.06 L1034.76 1346.1 L1038.82 1344.54 L1042.88 1342.34 L1046.95 1339.45 L1051.01 1335.83 L1055.07 1331.44 L1059.14 1326.24 L1063.2 1320.17 L1067.26 1313.16 L1071.33 1305.16 L1075.39 1296.13 L1079.45 1286.02 L1083.52 1274.85 L1087.58 1262.62 L1091.65 1249.36 L1095.71 1235.09 L1099.77 1219.86 L1103.84 1203.72 L1107.9 1186.76 L1111.96 1169.05 L1116.03 1150.67 L1120.09 1131.73 L1124.15 1112.26 L1128.22 1092.33 L1132.28 1071.93 L1136.34 1051.09 L1140.41 1029.82 L1144.47 1008.15 L1148.53 986.126 L1152.6 963.8 L1156.66 941.239 L1160.72 918.517 L1164.79 895.718 L1168.85 872.942 L1172.91 850.307 L1176.98 827.949 L1181.04 806.017 L1185.1 784.661 L1189.17 764.025 L1193.23 744.231 L1197.29 725.391 L1201.36 707.609 L1205.42 690.989 L1209.48 675.632 L1213.55 661.635 L1217.61 649.079 L1221.67 638.019 L1225.74 628.476 L1229.8 620.449 L1233.86 613.924 L1237.93 608.894 L1241.99 605.359 L1246.05 603.332 L1250.12 602.838 L1254.18 603.911 L1258.24 606.585 L1262.31 610.9 L1266.37 616.898 L1270.43 624.626 L1274.5 634.12 L1278.56 645.402 L1282.62 658.457 L1286.69 673.219 L1290.75 689.551 L1294.81 707.267 L1298.88 726.145 L1302.94 745.95 L1307 766.447 L1311.07 787.406 L1315.13 808.608 L1319.19 829.85 L1323.26 850.942 L1327.32 871.713 L1331.38 892.02 L1335.45 911.742 L1339.51 930.787 L1343.57 949.084 L1347.64 966.571 L1351.7 983.19 L1355.76 998.875 L1359.83 1013.56 L1363.89 1027.19 L1367.95 1039.74 L1372.02 1051.18 L1376.08 1061.54 L1380.15 1070.85 L1384.21 1079.17 L1388.27 1086.56 L1392.34 1093.11 L1396.4 1098.91 L1400.46 1104.09 L1404.53 1108.77 L1408.59 1113.11 L1412.65 1117.24 L1416.72 1121.28 L1420.78 1125.34 L1424.84 1129.47 L1428.91 1133.75 L1432.97 1138.21 L1437.03 1142.89 L1441.1 1147.82 L1445.16 1153 L1449.22 1158.38 L1453.29 1163.89 L1457.35 1169.43 L1461.41 1174.86 L1465.48 1180.09 L1469.54 1184.98 L1473.6 1189.44 L1477.67 1193.4 L1481.73 1196.78 L1485.79 1199.54 L1489.86 1201.63 L1493.92 1203.06 L1497.98 1203.84 L1502.05 1204 L1506.11 1203.61 L1510.17 1202.75 L1514.24 1201.48 L1518.3 1199.87 L1522.36 1197.99 L1526.43 1195.88 L1530.49 1193.63 L1534.55 1191.29 L1538.62 1188.92 L1542.68 1186.58 L1546.74 1184.28 L1550.81 1182.01 L1554.87 1179.73 L1558.93 1177.4 L1563 1174.95 L1567.06 1172.34 L1571.12 1169.52 L1575.19 1166.45 L1579.25 1163.09 L1583.31 1159.39 L1587.38 1155.3 L1591.44 1150.81 L1595.5 1145.9 L1599.57 1140.59 L1603.63 1134.91 L1607.69 1128.92 L1611.76 1122.7 L1615.82 1116.31 L1619.88 1109.85 L1623.95 1103.41 L1628.01 1097.1 L1632.07 1091.04 L1636.14 1085.35 L1640.2 1080.12 L1644.26 1075.45 L1648.33 1071.36 L1652.39 1067.87 L1656.45 1064.96 L1660.52 1062.62 L1664.58 1060.82 L1668.65 1059.52 L1672.71 1058.68 L1676.77 1058.23 L1680.84 1058.08 L1684.9 1058.14 L1688.96 1058.29 L1693.03 1058.45 L1697.09 1058.55 L1701.15 1058.54 L1705.22 1058.4 L1709.28 1058.13 L1713.34 1057.74 L1717.41 1057.27 L1721.47 1056.76 L1725.53 1056.3 L1729.6 1055.98 L1733.66 1055.92 L1737.72 1056.2 L1741.79 1056.93 L1745.85 1058.15 L1749.91 1059.92 L1753.98 1062.25 L1758.04 1065.16 L1762.1 1068.66 L1766.17 1072.73 L1770.23 1077.33 L1774.29 1082.42 L1778.36 1087.87 L1782.42 1093.56 L1786.48 1099.33 L1790.55 1105.03 L1794.61 1110.5 L1798.67 1115.62 L1802.74 1120.24 L1806.8 1124.23 L1810.86 1127.49 L1814.93 1129.9 L1818.99 1131.37 L1823.05 1131.83 L1827.12 1131.23 L1831.18 1129.56 L1835.24 1126.81 L1839.31 1122.98 L1843.37 1118.09 L1847.43 1112.15 L1851.5 1105.18 L1855.56 1097.23 L1859.62 1088.39 L1863.69 1078.74 L1867.75 1068.38 L1871.81 1057.42 L1875.88 1045.98 L1879.94 1034.16 L1884 1022.09 L1888.07 1009.9 L1892.13 997.736 L1896.19 985.767 L1900.26 974.154 L1904.32 963.051 L1908.38 952.6 L1912.45 942.932 L1916.51 934.172 L1920.57 926.446 L1924.64 919.879 L1928.7 914.591 L1932.76 910.689 L1936.83 908.25 L1940.89 907.32 L1944.96 907.912 L1949.02 910.021 L1953.08 913.626 L1957.15 918.696 L1961.21 925.183 L1965.27 933.014 L1969.34 942.083 L1973.4 952.243 L1977.46 963.312 L1981.53 975.094 L1985.59 987.38 L1989.65 999.962 L1993.72 1012.63 L1997.78 1025.18 L2001.84 1037.38 L2005.91 1049.01 L2009.97 1059.83 L2014.03 1069.65 L2018.1 1078.28 L2022.16 1085.58 L2026.22 1091.44 L2030.29 1095.83 L2034.35 1098.74 L2038.41 1100.21 L2042.48 1100.34 L2046.54 1099.27 L2050.6 1097.17 L2054.67 1094.23 L2058.73 1090.7 L2062.79 1086.78 L2066.86 1082.69 L2070.92 1078.6 L2074.98 1074.67 L2079.05 1071.03 L2083.11 1067.79 L2087.17 1065.06 L2091.24 1062.92 L2095.3 1061.4 L2099.36 1060.52 L2103.43 1060.24 L2107.49 1060.45 L2111.55 1061.06 L2115.62 1061.94 L2119.68 1062.96 L2123.74 1064.01 L2127.81 1064.95 L2131.87 1065.67 L2135.93 1066.04 L2140 1065.95 L2144.06 1065.29 L2148.12 1063.99 L2152.19 1061.97 L2156.25 1059.21 L2160.31 1055.67 L2164.38 1051.36 L2168.44 1046.26 L2172.5 1040.38 L2176.57 1033.72 L2180.63 1026.32 L2184.69 1018.23 L2188.76 1009.48 L2192.82 1000.13 L2196.88 990.212 L2200.95 979.751 L2205.01 968.744 L2209.07 957.193 L2213.14 945.103 L2217.2 932.492 L2221.26 919.39 L2225.33 905.837 L2229.39 891.879 L2233.46 877.567 L2237.52 862.963 L2241.58 848.155 L2245.65 833.26 L2249.71 818.433 L2253.77 803.868 L2257.84 789.79 L2261.9 776.447 L2265.96 764.101 L2270.03 753.021 L2274.09 743.48 L2278.15 735.745 L2282.22 730.051 L2286.28 726.583 L2290.34 725.452 L2290.34 389.998 L2286.28 409.724 L2282.22 428.685 L2278.15 446.884 L2274.09 464.379 L2270.03 481.256 L2265.96 497.617 L2261.9 513.563 L2257.84 529.181 L2253.77 544.547 L2249.71 559.723 L2245.65 574.749 L2241.58 589.639 L2237.52 604.376 L2233.46 618.915 L2229.39 633.197 L2225.33 647.154 L2221.26 660.73 L2217.2 673.886 L2213.14 686.6 L2209.07 698.851 L2205.01 710.618 L2200.95 721.872 L2196.88 732.575 L2192.82 742.688 L2188.76 752.178 L2184.69 761.017 L2180.63 769.183 L2176.57 776.651 L2172.5 783.392 L2168.44 789.37 L2164.38 794.55 L2160.31 798.905 L2156.25 802.432 L2152.19 805.158 L2148.12 807.134 L2144.06 808.423 L2140 809.098 L2135.93 809.232 L2131.87 808.903 L2127.81 808.203 L2123.74 807.242 L2119.68 806.153 L2115.62 805.088 L2111.55 804.193 L2107.49 803.605 L2103.43 803.435 L2099.36 803.77 L2095.3 804.669 L2091.24 806.166 L2087.17 808.268 L2083.11 810.956 L2079.05 814.175 L2074.98 817.836 L2070.92 821.812 L2066.86 825.946 L2062.79 830.057 L2058.73 833.956 L2054.67 837.446 L2050.6 840.331 L2046.54 842.417 L2042.48 843.507 L2038.41 843.419 L2034.35 841.993 L2030.29 839.106 L2026.22 834.699 L2022.16 828.787 L2018.1 821.447 L2014.03 812.801 L2009.97 803.001 L2005.91 792.217 L2001.84 780.635 L1997.78 768.453 L1993.72 755.888 L1989.65 743.173 L1985.59 730.546 L1981.53 718.242 L1977.46 706.479 L1973.4 695.454 L1969.34 685.341 L1965.27 676.291 L1961.21 668.44 L1957.15 661.908 L1953.08 656.793 L1949.02 653.169 L1944.96 651.078 L1940.89 650.531 L1936.83 651.508 L1932.76 653.966 L1928.7 657.849 L1924.64 663.09 L1920.57 669.612 L1916.51 677.32 L1912.45 686.098 L1908.38 695.812 L1904.32 706.308 L1900.26 717.431 L1896.19 729.025 L1892.13 740.947 L1888.07 753.063 L1884 765.237 L1879.94 777.328 L1875.88 789.192 L1871.81 800.681 L1867.75 811.656 L1863.69 821.995 L1859.62 831.602 L1855.56 840.4 L1851.5 848.324 L1847.43 855.312 L1843.37 861.302 L1839.31 866.241 L1835.24 870.086 L1831.18 872.816 L1827.12 874.44 L1823.05 874.992 L1818.99 874.516 L1814.93 873.068 L1810.86 870.704 L1806.8 867.492 L1802.74 863.513 L1798.67 858.874 L1794.61 853.715 L1790.55 848.194 L1786.48 842.479 L1782.42 836.727 L1778.36 831.084 L1774.29 825.675 L1770.23 820.611 L1766.17 815.983 L1762.1 811.869 L1758.04 808.331 L1753.98 805.401 L1749.91 803.087 L1745.85 801.363 L1741.79 800.183 L1737.72 799.477 L1733.66 799.173 L1729.6 799.195 L1725.53 799.467 L1721.47 799.909 L1717.41 800.434 L1713.34 800.956 L1709.28 801.392 L1705.22 801.682 L1701.15 801.799 L1697.09 801.758 L1693.03 801.613 L1688.96 801.434 L1684.9 801.302 L1680.84 801.295 L1676.77 801.49 L1672.71 801.96 L1668.65 802.782 L1664.58 804.034 L1660.52 805.791 L1656.45 808.113 L1652.39 811.036 L1648.33 814.572 L1644.26 818.706 L1640.2 823.401 L1636.14 828.605 L1632.07 834.252 L1628.01 840.266 L1623.95 846.556 L1619.88 853.015 L1615.82 859.522 L1611.76 865.955 L1607.69 872.201 L1603.63 878.168 L1599.57 883.8 L1595.5 889.069 L1591.44 893.96 L1587.38 898.47 L1583.31 902.596 L1579.25 906.344 L1575.19 909.726 L1571.12 912.777 L1567.06 915.551 L1563 918.117 L1558.93 920.547 L1554.87 922.899 L1550.81 925.219 L1546.74 927.534 L1542.68 929.853 L1538.62 932.177 L1534.55 934.497 L1530.49 936.794 L1526.43 939.031 L1522.36 941.152 L1518.3 943.083 L1514.24 944.737 L1510.17 946.026 L1506.11 946.871 L1502.05 947.212 L1497.98 947.003 L1493.92 946.21 L1489.86 944.801 L1485.79 942.749 L1481.73 940.039 L1477.67 936.677 L1473.6 932.7 L1469.54 928.189 L1465.48 923.252 L1461.41 918.013 L1457.35 912.592 L1453.29 907.101 L1449.22 901.635 L1445.16 896.274 L1441.1 891.081 L1437.03 886.105 L1432.97 881.376 L1428.91 876.896 L1424.84 872.639 L1420.78 868.549 L1416.72 864.542 L1412.65 860.518 L1408.59 856.368 L1404.53 851.984 L1400.46 847.253 L1396.4 842.058 L1392.34 836.274 L1388.27 829.773 L1384.21 822.429 L1380.15 814.131 L1376.08 804.8 L1372.02 794.393 L1367.95 782.903 L1363.89 770.341 L1359.83 756.727 L1355.76 742.086 L1351.7 726.448 L1347.64 709.849 L1343.57 692.341 L1339.51 673.999 L1335.45 654.908 L1331.38 635.168 L1327.32 614.88 L1323.26 594.153 L1319.19 573.107 L1315.13 551.885 L1311.07 530.663 L1307 509.658 L1302.94 489.117 L1298.88 469.293 L1294.81 450.433 L1290.75 432.762 L1286.69 416.476 L1282.62 401.735 L1278.56 388.659 L1274.5 377.331 L1270.43 367.792 L1266.37 360.047 L1262.31 354.066 L1258.24 349.796 L1254.18 347.168 L1250.12 346.116 L1246.05 346.589 L1241.99 348.57 L1237.93 352.06 L1233.86 357.072 L1229.8 363.615 L1225.74 371.688 L1221.67 381.277 L1217.61 392.356 L1213.55 404.893 L1209.48 418.843 L1205.42 434.155 L1201.36 450.757 L1197.29 468.557 L1193.23 487.442 L1189.17 507.282 L1185.1 527.939 L1181.04 549.274 L1176.98 571.16 L1172.91 593.473 L1168.85 616.09 L1164.79 638.885 L1160.72 661.729 L1156.66 684.497 L1152.6 707.077 L1148.53 729.384 L1144.47 751.363 L1140.41 772.988 L1136.34 794.24 L1132.28 815.099 L1128.22 835.538 L1124.15 855.522 L1120.09 875.003 L1116.03 893.932 L1111.96 912.258 L1107.9 929.926 L1103.84 946.873 L1099.77 963.024 L1095.71 978.298 L1091.65 992.614 L1087.58 1005.9 L1083.52 1018.11 L1079.45 1029.24 L1075.39 1039.29 L1071.33 1048.31 L1067.26 1056.33 L1063.2 1063.38 L1059.14 1069.5 L1055.07 1074.72 L1051.01 1079.08 L1046.95 1082.66 L1042.88 1085.51 L1038.82 1087.69 L1034.76 1089.27 L1030.69 1090.27 L1026.63 1090.73 L1022.57 1090.68 L1018.5 1090.14 L1014.44 1089.16 L1010.38 1087.78 L1006.31 1086.03 L1002.25 1083.96 L998.187 1081.56 L994.124 1078.86 L990.061 1075.87 L985.997 1072.58 L981.934 1069.03 L977.87 1065.25 L973.807 1061.28 L969.744 1057.13 L965.68 1052.82 L961.617 1048.35 L957.553 1043.72 L953.49 1038.93 L949.427 1033.99 L945.363 1028.93 L941.3 1023.76 L937.237 1018.49 L933.173 1013.12 L929.11 1007.62 L925.046 1001.99 L920.983 996.215 L916.92 990.289 L912.856 984.223 L908.793 978.021 L904.73 971.678 L900.666 965.176 L896.603 958.49 L892.539 951.587 L888.476 944.445 L884.413 937.049 L880.349 929.394 L876.286 921.478 L872.223 913.293 L868.159 904.834 L864.096 896.096 L860.032 887.089 L855.969 877.851 L851.906 868.45 L847.842 858.98 L843.779 849.544 L839.715 840.238 L835.652 831.149 L831.589 822.347 L827.525 813.885 L823.462 805.806 L819.399 798.14 L815.335 790.904 L811.272 784.104 L807.208 777.732 L803.145 771.771 L799.082 766.208 L795.018 761.041 L790.955 756.303 L786.892 752.065 L782.828 748.428 L778.765 745.506 L774.701 743.406 L770.638 742.222 L766.575 742.025 L762.511 742.861 L758.448 744.748 L754.384 747.678 L750.321 751.613 L746.258 756.485 L742.194 762.196 L738.131 768.621 L734.068 775.618 L730.004 783.04 L725.941 790.748 L721.877 798.624 L717.814 806.563 L713.751 814.472 L709.687 822.261 L705.624 829.841 L701.561 837.136 L697.497 844.082 L693.434 850.647 L689.37 856.836 L685.307 862.678 L681.244 868.221 L677.18 873.519 L673.117 878.624 L669.053 883.592 L664.99 888.479 L660.927 893.356 L656.863 898.304 L652.8 903.409 L648.737 908.751 L644.673 914.388 L640.61 920.351 L636.546 926.645 L632.483 933.246 L628.42 940.107 L624.356 947.158 L620.293 954.313 L616.23 961.464 L612.166 968.49 L608.103 975.259 L604.039 981.645 L599.976 987.542 L595.913 992.881 L591.849 997.645 L587.786 1001.86 L583.722 1005.56 L579.659 1008.8 L575.596 1011.61 L571.532 1014.01 L567.469 1016.01 L563.406 1017.58 L559.342 1018.69 L555.279 1019.29 L551.215 1019.3 L547.152 1018.64 L543.089 1017.23 L539.025 1014.99 L534.962 1011.88 L530.899 1007.9 L526.835 1003.15 L522.772 997.732 L518.708 991.828 L514.645 985.617 L510.582 979.296 L506.518 973.061 L502.455 967.111 L498.391 961.648 L494.328 956.873 L490.265 952.98 L486.201 950.137 L482.138 948.476 L478.075 948.087 L474.011 949.012 L469.948 951.243 L465.884 954.724 L461.821 959.352 L457.758 964.979 L453.694 971.412 L449.631 978.416 L445.568 985.726 L441.504 993.052 L437.441 1000.1 L433.377 1006.57 L429.314 1012.22 L425.251 1016.79 L421.187 1020.07 L417.124 1021.84 L413.06 1021.91 L408.997 1020.12 L404.934 1016.32 L400.87 1010.45 L396.807 1002.5 L392.744 992.485 L388.68 980.492 L384.617 966.606 L380.553 950.922 L376.49 933.54 L372.427 914.562 L368.363 894.094 L364.3 872.249 L360.237 849.142 L356.173 824.881 L352.11 799.566 L348.046 773.289 L343.983 746.139 L339.92 718.212 L335.856 689.622 L331.793 660.51 L327.729 631.037 L323.666 601.367 L319.603 571.664 L315.539 542.076 L311.476 512.743 L307.413 483.794 L303.349 455.355 L299.286 427.547 L295.222 400.491 L291.159 374.292 L287.096 349.043 L283.032 324.822 L278.969 301.695 L274.906 279.726 L270.842 258.981 L266.779 239.537 L262.715 221.468 L258.652 204.834 L254.589 189.66 L250.525 175.934 L246.462 163.595 L242.398 152.536 L238.335 142.605 L234.272 133.613 L230.208 125.337 L226.145 117.531 L222.082 109.938 L218.018 102.313 L213.955 94.4453 L209.891 86.1857  Z" fill="#0000ff" fill-rule="evenodd" fill-opacity="0.5"/>
<polyline clip-path="url(#clip682)" style="stroke:#0000ff; stroke-linecap:round; stroke-linejoin:round; stroke-width:4; stroke-opacity:1; fill:none" points="209.891,253.912 213.955,252.875 218.018,252.996 222.082,254.368 226.145,257.082 230.208,261.219 234.272,266.854 238.335,274.047 242.398,282.84 246.462,293.256 250.525,305.289 254.589,318.915 258.652,334.091 262.715,350.762 266.779,368.862 270.842,388.322 274.906,409.067 278.969,431.025 283.032,454.125 287.096,478.294 291.159,503.462 295.222,529.553 299.286,556.487 303.349,584.173 307.413,612.513 311.476,641.392 315.539,670.68 319.603,700.234 323.666,729.903 327.729,759.529 331.793,788.955 335.856,818.026 339.92,846.595 343.983,874.526 348.046,901.695 352.11,927.993 356.173,953.316 360.237,977.569 364.3,1000.65 368.363,1022.48 372.427,1042.93 376.49,1061.92 380.553,1079.33 384.617,1095.03 388.68,1108.93 392.744,1120.91 396.807,1130.9 400.87,1138.83 404.934,1144.69 408.997,1148.49 413.06,1150.31 417.124,1150.26 421.187,1148.5 425.251,1145.21 429.314,1140.61 433.377,1134.94 437.441,1128.46 441.504,1121.42 445.568,1114.12 449.631,1106.83 453.694,1099.84 457.758,1093.4 461.821,1087.75 465.884,1083.1 469.948,1079.6 474.011,1077.38 478.075,1076.48 482.138,1076.89 486.201,1078.56 490.265,1081.4 494.328,1085.27 498.391,1090.02 502.455,1095.47 506.518,1101.43 510.582,1107.69 514.645,1114.03 518.708,1120.25 522.772,1126.15 526.835,1131.54 530.899,1136.28 534.962,1140.24 539.025,1143.36 543.089,1145.62 547.152,1147.06 551.215,1147.73 555.279,1147.71 559.342,1147.09 563.406,1145.95 567.469,1144.37 571.532,1142.38 575.596,1140 579.659,1137.21 583.722,1133.99 587.786,1130.27 591.849,1126.04 595.913,1121.25 599.976,1115.9 604.039,1110.02 608.103,1103.65 612.166,1096.91 616.23,1089.89 620.293,1082.73 624.356,1075.55 628.42,1068.48 632.483,1061.61 636.546,1055.02 640.61,1048.75 644.673,1042.8 648.737,1037.18 652.8,1031.83 656.863,1026.7 660.927,1021.73 664.99,1016.84 669.053,1011.96 673.117,1007.02 677.18,1001.94 681.244,996.647 685.307,991.095 689.37,985.23 693.434,979.019 697.497,972.443 701.561,965.507 705.624,958.236 709.687,950.677 713.751,942.898 717.814,934.98 721.877,927.018 725.941,919.12 730.004,911.402 734.068,903.989 738.131,897.015 742.194,890.613 746.258,884.911 750.321,880.03 754.384,876.072 758.448,873.119 762.511,871.222 766.575,870.396 770.638,870.616 774.701,871.822 778.765,873.931 782.828,876.845 786.892,880.459 790.955,884.674 795.018,889.403 799.082,894.579 803.145,900.166 807.208,906.149 811.272,912.53 815.335,919.321 819.399,926.534 823.462,934.177 827.525,942.247 831.589,950.718 835.652,959.543 839.715,968.655 843.779,977.97 847.842,987.397 851.906,996.844 855.969,1006.22 860.032,1015.45 864.096,1024.47 868.159,1033.23 872.223,1041.71 876.286,1049.9 880.349,1057.81 884.413,1065.44 888.476,1072.82 892.539,1079.95 896.603,1086.86 900.666,1093.57 904.73,1100.09 908.793,1106.45 912.856,1112.64 916.92,1118.68 920.983,1124.59 925.046,1130.35 929.11,1135.99 933.173,1141.51 937.237,1146.91 941.3,1152.18 945.363,1157.34 949.427,1162.38 953.49,1167.3 957.553,1172.08 961.617,1176.72 965.68,1181.22 969.744,1185.55 973.807,1189.71 977.87,1193.67 981.934,1197.43 985.997,1200.95 990.061,1204.23 994.124,1207.24 998.187,1209.96 1002.25,1212.37 1006.31,1214.46 1010.38,1216.2 1014.44,1217.56 1018.5,1218.52 1022.57,1219.04 1026.63,1219.1 1030.69,1218.66 1034.76,1217.68 1038.82,1216.12 1042.88,1213.92 1046.95,1211.05 1051.01,1207.45 1055.07,1203.08 1059.14,1197.87 1063.2,1191.77 1067.26,1184.75 1071.33,1176.74 1075.39,1167.71 1079.45,1157.63 1083.52,1146.48 1087.58,1134.26 1091.65,1120.98 1095.71,1106.69 1099.77,1091.44 1103.84,1075.3 1107.9,1058.34 1111.96,1040.65 1116.03,1022.3 1120.09,1003.36 1124.15,983.893 1128.22,963.933 1132.28,943.515 1136.34,922.665 1140.41,901.405 1144.47,879.758 1148.53,857.755 1152.6,835.438 1156.66,812.868 1160.72,790.123 1164.79,767.301 1168.85,744.516 1172.91,721.89 1176.98,699.554 1181.04,677.646 1185.1,656.3 1189.17,635.653 1193.23,615.837 1197.29,596.974 1201.36,579.183 1205.42,562.572 1209.48,547.238 1213.55,533.264 1217.61,520.718 1221.67,509.648 1225.74,500.082 1229.8,492.032 1233.86,485.498 1237.93,480.477 1241.99,476.964 1246.05,474.961 1250.12,474.477 1254.18,475.54 1258.24,478.19 1262.31,482.483 1266.37,488.472 1270.43,496.209 1274.5,505.725 1278.56,517.03 1282.62,530.096 1286.69,544.848 1290.75,561.157 1294.81,578.85 1298.88,597.719 1302.94,617.534 1307,638.053 1311.07,659.034 1315.13,680.247 1319.19,701.479 1323.26,722.547 1327.32,743.297 1331.38,763.594 1335.45,783.325 1339.51,802.393 1343.57,820.713 1347.64,838.21 1351.7,854.819 1355.76,870.481 1359.83,885.144 1363.89,898.767 1367.95,911.32 1372.02,922.788 1376.08,933.171 1380.15,942.493 1384.21,950.8 1388.27,958.168 1392.34,964.691 1396.4,970.483 1400.46,975.669 1404.53,980.378 1408.59,984.74 1412.65,988.879 1416.72,992.913 1420.78,996.943 1424.84,1001.06 1428.91,1005.32 1432.97,1009.79 1437.03,1014.5 1441.1,1019.45 1445.16,1024.64 1449.22,1030.01 1453.29,1035.5 1457.35,1041.01 1461.41,1046.44 1465.48,1051.67 1469.54,1056.58 1473.6,1061.07 1477.67,1065.04 1481.73,1068.41 1485.79,1071.14 1489.86,1073.22 1493.92,1074.64 1497.98,1075.42 1502.05,1075.61 1506.11,1075.24 1510.17,1074.39 1514.24,1073.11 1518.3,1071.48 1522.36,1069.57 1526.43,1067.46 1530.49,1065.21 1534.55,1062.89 1538.62,1060.55 1542.68,1058.21 1546.74,1055.9 1550.81,1053.61 1554.87,1051.32 1558.93,1048.97 1563,1046.53 1567.06,1043.95 1571.12,1041.15 1575.19,1038.09 1579.25,1034.72 1583.31,1030.99 1587.38,1026.89 1591.44,1022.39 1595.5,1017.49 1599.57,1012.19 1603.63,1006.54 1607.69,1000.56 1611.76,994.326 1615.82,987.916 1619.88,981.431 1623.95,974.982 1628.01,968.683 1632.07,962.646 1636.14,956.976 1640.2,951.763 1644.26,947.077 1648.33,942.966 1652.39,939.453 1656.45,936.539 1660.52,934.208 1664.58,932.429 1668.65,931.153 1672.71,930.321 1676.77,929.861 1680.84,929.689 1684.9,929.719 1688.96,929.86 1693.03,930.03 1697.09,930.153 1701.15,930.17 1705.22,930.044 1709.28,929.763 1713.34,929.35 1717.41,928.851 1721.47,928.335 1725.53,927.884 1729.6,927.59 1733.66,927.544 1737.72,927.839 1741.79,928.554 1745.85,929.758 1749.91,931.504 1753.98,933.827 1758.04,936.748 1762.1,940.264 1766.17,944.354 1770.23,948.972 1774.29,954.047 1778.36,959.478 1782.42,965.144 1786.48,970.905 1790.55,976.611 1794.61,982.109 1798.67,987.245 1802.74,991.874 1806.8,995.863 1810.86,999.098 1814.93,1001.48 1818.99,1002.94 1823.05,1003.41 1827.12,1002.83 1831.18,1001.19 1835.24,998.447 1839.31,994.612 1843.37,989.697 1847.43,983.728 1851.5,976.75 1855.56,968.817 1859.62,959.996 1863.69,950.366 1867.75,940.017 1871.81,929.052 1875.88,917.586 1879.94,905.745 1884,893.663 1888.07,881.48 1892.13,869.342 1896.19,857.396 1900.26,845.792 1904.32,834.68 1908.38,824.206 1912.45,814.515 1916.51,805.746 1920.57,798.029 1924.64,791.484 1928.7,786.22 1932.76,782.327 1936.83,779.879 1940.89,778.925 1944.96,779.495 1949.02,781.595 1953.08,785.21 1957.15,790.302 1961.21,796.812 1965.27,804.653 1969.34,813.712 1973.4,823.848 1977.46,834.895 1981.53,846.668 1985.59,858.963 1989.65,871.567 1993.72,884.26 1997.78,896.815 2001.84,909.006 2005.91,920.611 2009.97,931.418 2014.03,941.227 2018.1,949.864 2022.16,957.182 2026.22,963.071 2030.29,967.467 2034.35,970.364 2038.41,971.814 2042.48,971.924 2046.54,970.843 2050.6,968.748 2054.67,965.84 2058.73,962.327 2062.79,958.419 2066.86,954.317 2070.92,950.207 2074.98,946.254 2079.05,942.603 2083.11,939.375 2087.17,936.665 2091.24,934.541 2095.3,933.035 2099.36,932.147 2103.43,931.837 2107.49,932.03 2111.55,932.629 2115.62,933.515 2119.68,934.559 2123.74,935.624 2127.81,936.576 2131.87,937.286 2135.93,937.637 2140,937.525 2144.06,936.859 2148.12,935.561 2152.19,933.564 2156.25,930.819 2160.31,927.289 2164.38,922.955 2168.44,917.815 2172.5,911.885 2176.57,905.187 2180.63,897.753 2184.69,889.621 2188.76,880.827 2192.82,871.407 2196.88,861.394 2200.95,850.811 2205.01,839.681 2209.07,828.022 2213.14,815.851 2217.2,803.189 2221.26,790.06 2225.33,776.496 2229.39,762.538 2233.46,748.241 2237.52,733.669 2241.58,718.897 2245.65,704.004 2249.71,689.078 2253.77,674.207 2257.84,659.485 2261.9,645.005 2265.96,630.859 2270.03,617.138 2274.09,603.93 2278.15,591.315 2282.22,579.368 2286.28,568.153 2290.34,557.725 "/>
<polyline clip-path="url(#clip682)" style="stroke:#0000ff; stroke-linecap:round; stroke-linejoin:round; stroke-width:4; stroke-opacity:1; fill:none" points="209.891,308.454 213.955,314.515 218.018,320.184 222.082,325.217 226.145,329.021 230.208,332.406 234.272,336.396 238.335,340.101 242.398,341.995 246.462,341.268 250.525,338.593 254.589,335.834 258.652,334.449 262.715,335.198 266.779,339.402 270.842,347.044 274.906,358.461 278.969,373.505 283.032,392.564 287.096,414.504 291.159,438.719 295.222,464.386 299.286,491.694 303.349,520.489 307.413,551.054 311.476,582.783 315.539,614.982 319.603,647.952 323.666,680.722 327.729,712.943 331.793,742.993 335.856,769.093 339.92,792.302 343.983,814.427 348.046,836.952 352.11,858.735 356.173,879.618 360.237,899.714 364.3,918.936 368.363,937.861 372.427,954.746 376.49,969.382 380.553,982.725 384.617,994.673 388.68,1004.4 392.744,1012.04 396.807,1018.29 400.87,1024.46 404.934,1031.38 408.997,1038.45 413.06,1043.31 417.124,1045.34 421.187,1045.38 425.251,1044.75 429.314,1044.67 433.377,1045.28 437.441,1046 441.504,1046.38 445.568,1047.5 449.631,1050.51 453.694,1055.99 457.758,1062.77 461.821,1069.78 465.884,1076.7 469.948,1083.77 474.011,1091.55 478.075,1100.56 482.138,1110.91 486.201,1122.73 490.265,1136.71 494.328,1151.97 498.391,1166.6 502.455,1179.55 506.518,1190 510.582,1198.54 514.645,1204.24 518.708,1207.16 522.772,1207.78 526.835,1206.04 530.899,1202.27 534.962,1197.45 539.025,1191.75 543.089,1185.87 547.152,1180.46 551.215,1177.06 555.279,1174.76 559.342,1172.54 563.406,1169.81 567.469,1166.74 571.532,1164.43 575.596,1162.53 579.659,1161.22 583.722,1160.56 587.786,1160.51 591.849,1160.13 595.913,1159.29 599.976,1157.58 604.039,1154.67 608.103,1149.86 612.166,1143.99 616.23,1138.5 620.293,1132.54 624.356,1124.92 628.42,1115.15 632.483,1103.48 636.546,1089.77 640.61,1075.76 644.673,1062.27 648.737,1049.68 652.8,1038.69 656.863,1030.47 660.927,1024.78 664.99,1019.64 669.053,1014.21 673.117,1006.5 677.18,997.379 681.244,987.108 685.307,975.313 689.37,962.425 693.434,949.577 697.497,937.429 701.561,925.61 705.624,914.254 709.687,903.693 713.751,894.351 717.814,885.613 721.877,876.553 725.941,866.991 730.004,856.413 734.068,843.991 738.131,830.871 742.194,818.517 746.258,808.15 750.321,800.021 754.384,794.639 758.448,791.271 762.511,789.767 766.575,789.999 770.638,790.866 774.701,793.053 778.765,796.812 782.828,801.378 786.892,805.898 790.955,811.36 795.018,818.343 799.082,826.528 803.145,836.253 807.208,849.195 811.272,865.313 815.335,883.314 819.399,901.496 823.462,919.095 827.525,934.38 831.589,946.121 835.652,954.781 839.715,961.453 843.779,967.302 847.842,972.811 851.906,976.617 855.969,977.334 860.032,975.059 864.096,970.441 868.159,965.364 872.223,961.544 876.286,958.807 880.349,957.189 884.413,957.647 888.476,960.478 892.539,966.271 896.603,975.478 900.666,988.63 904.73,1004.9 908.793,1024.39 912.856,1045.66 916.92,1066.97 920.983,1086.11 925.046,1102.55 929.11,1117.78 933.173,1132.32 937.237,1147.55 941.3,1162.76 945.363,1177.36 949.427,1190.51 953.49,1201.2 957.553,1210.19 961.617,1218.26 965.68,1226.89 969.744,1235.65 973.807,1244.83 977.87,1254.22 981.934,1262.44 985.997,1269.45 990.061,1275.83 994.124,1281.08 998.187,1284.3 1002.25,1285.89 1006.31,1286.4 1010.38,1285.56 1014.44,1282.79 1018.5,1279.48 1022.57,1277.05 1026.63,1275.71 1030.69,1274.91 1034.76,1274.6 1038.82,1275.19 1042.88,1275.02 1046.95,1273.05 1051.01,1268.29 1055.07,1260.79 1059.14,1250.47 1063.2,1239.35 1067.26,1228.56 1071.33,1218.29 1075.39,1207.82 1079.45,1195.61 1083.52,1181.7 1087.58,1167.38 1091.65,1153.87 1095.71,1140.83 1099.77,1127.09 1103.84,1111.73 1107.9,1095.89 1111.96,1080.42 1116.03,1064.94 1120.09,1048.08 1124.15,1027.61 1128.22,1004.6 1132.28,979.606 1136.34,951.456 1140.41,920.436 1144.47,887.255 1148.53,852.159 1152.6,817.16 1156.66,784.396 1160.72,754.236 1164.79,727.445 1168.85,704.401 1172.91,684.21 1176.98,666.609 1181.04,652.414 1185.1,640.16 1189.17,627.954 1193.23,616.169 1197.29,604.875 1201.36,594.491 1205.42,585.164 1209.48,576.078 1213.55,567.164 1217.61,560.145 1221.67,554.803 1225.74,550.14 1229.8,545.072 1233.86,538.763 1237.93,531.925 1241.99,525.7 1246.05,520.8 1250.12,518.407 1254.18,518.619 1258.24,520.775 1262.31,524.097 1266.37,528.421 1270.43,535.241 1274.5,543.551 1278.56,552.102 1282.62,560.298 1286.69,568.977 1290.75,579.643 1294.81,592.56 1298.88,607.517 1302.94,624.703 1307,642.843 1311.07,661.347 1315.13,681.637 1319.19,704.141 1323.26,729.092 1327.32,756.987 1331.38,788.462 1335.45,822.032 1339.51,855.635 1343.57,886.794 1347.64,914.38 1351.7,939.827 1355.76,962.922 1359.83,983.406 1363.89,1001.71 1367.95,1017.59 1372.02,1031.5 1376.08,1044.4 1380.15,1056.62 1384.21,1065.99 1388.27,1072.6 1392.34,1077.54 1396.4,1081.25 1400.46,1085.03 1404.53,1089.11 1408.59,1093.88 1412.65,1099.14 1416.72,1103.35 1420.78,1106.07 1424.84,1107.88 1428.91,1108.31 1432.97,1107.81 1437.03,1107.43 1441.1,1106.06 1445.16,1103.87 1449.22,1102.33 1453.29,1101.14 1457.35,1099.8 1461.41,1099.22 1465.48,1098.22 1469.54,1096.71 1473.6,1094.07 1477.67,1089.05 1481.73,1082.37 1485.79,1076.14 1489.86,1071.69 1493.92,1067.89 1497.98,1063.93 1502.05,1059.18 1506.11,1053.07 1510.17,1045.01 1514.24,1034.24 1518.3,1020.69 1522.36,1004.3 1526.43,986.398 1530.49,967.885 1534.55,949.494 1538.62,933.234 1542.68,919.309 1546.74,908.978 1550.81,902.59 1554.87,899.831 1558.93,900.277 1563,904.126 1567.06,909.194 1571.12,914.024 1575.19,918.309 1579.25,921.759 1583.31,924.25 1587.38,926.583 1591.44,929.282 1595.5,933.219 1599.57,937.679 1603.63,941.348 1607.69,944.377 1611.76,947.524 1615.82,951.899 1619.88,957.74 1623.95,963.945 1628.01,970.623 1632.07,977.327 1636.14,983.457 1640.2,987.95 1644.26,988.716 1648.33,984.552 1652.39,975.266 1656.45,961.539 1660.52,944.253 1664.58,925.16 1668.65,904.966 1672.71,883.356 1676.77,860.416 1680.84,837.147 1684.9,815.207 1688.96,795.143 1693.03,776.892 1697.09,762.769 1701.15,752.808 1705.22,746.353 1709.28,742.374 1713.34,740.709 1717.41,741.786 1721.47,746.622 1725.53,754.301 1729.6,765.296 1733.66,778.651 1737.72,793.22 1741.79,806.69 1745.85,818.255 1749.91,828.722 1753.98,837.79 1758.04,845.835 1762.1,853.62 1766.17,861.603 1770.23,870.807 1774.29,882.374 1778.36,896.112 1782.42,912.003 1786.48,929.272 1790.55,946.02 1794.61,961.728 1798.67,976.775 1802.74,991.877 1806.8,1005.98 1810.86,1018.96 1814.93,1029.52 1818.99,1036.51 1823.05,1041.77 1827.12,1045.67 1831.18,1046.85 1835.24,1046.16 1839.31,1043.4 1843.37,1038.56 1847.43,1033.09 1851.5,1026.46 1855.56,1018.52 1859.62,1008.58 1863.69,997.556 1867.75,986.808 1871.81,976.383 1875.88,965.818 1879.94,955.082 1884,943.771 1888.07,932.645 1892.13,921.855 1896.19,911.471 1900.26,901.72 1904.32,892.526 1908.38,883.45 1912.45,874.257 1916.51,864.204 1920.57,854.505 1924.64,845.817 1928.7,837.397 1932.76,829.098 1936.83,822.978 1940.89,819.327 1944.96,817.868 1949.02,818.442 1953.08,820.104 1957.15,821.938 1961.21,822.861 1965.27,822.521 1969.34,821.469 1973.4,819.693 1977.46,817.35 1981.53,814.862 1985.59,812.083 1989.65,810.009 1993.72,809.282 1997.78,810.13 2001.84,812.258 2005.91,815.206 2009.97,819.885 2014.03,824.73 2018.1,829.67 2022.16,833.084 2026.22,833.655 2030.29,831.936 2034.35,830.727 2038.41,831.035 2042.48,832.252 2046.54,834.389 2050.6,837.183 2054.67,840.346 2058.73,844.836 2062.79,850.795 2066.86,857.285 2070.92,863.998 2074.98,870.444 2079.05,876.162 2083.11,881.739 2087.17,887.56 2091.24,893.242 2095.3,897.652 2099.36,900.673 2103.43,902.942 2107.49,906.025 2111.55,910.65 2115.62,915.66 2119.68,919.06 2123.74,921.212 2127.81,922.319 2131.87,922.908 2135.93,922.199 2140,920.524 2144.06,919.826 2148.12,921.153 2152.19,924.643 2156.25,930.062 2160.31,936.223 2164.38,939.888 2168.44,940.68 2172.5,938.666 2176.57,933.415 2180.63,925.547 2184.69,916.106 2188.76,906.472 2192.82,894.981 2196.88,880.755 2200.95,865.506 2205.01,850.7 2209.07,837.197 2213.14,824.662 2217.2,811.85 2221.26,798.492 2225.33,785.149 2229.39,770.829 2233.46,756.617 2237.52,743.379 2241.58,730.91 2245.65,718.996 2249.71,707.797 2253.77,697.573 2257.84,688.104 2261.9,678.759 2265.96,669.637 2270.03,661.07 2274.09,652.742 2278.15,645.671 2282.22,639.252 2286.28,633.431 2290.34,627.07 "/>
<polyline clip-path="url(#clip682)" style="stroke:#0000ff; stroke-linecap:round; stroke-linejoin:round; stroke-width:4; stroke-opacity:1; fill:none" points="209.891,305.133 213.955,291.398 218.018,277.95 222.082,266.407 226.145,257.819 230.208,252.741 234.272,251.73 238.335,254.574 242.398,260.948 246.462,270.283 250.525,281.747 254.589,295.203 258.652,310.833 262.715,328.959 266.779,349.627 270.842,371.881 274.906,394.598 278.969,417.406 283.032,441.443 287.096,467.532 291.159,494.757 295.222,522.253 299.286,548.418 303.349,572.736 307.413,595.542 311.476,617.652 315.539,638.996 319.603,660.215 323.666,682.369 327.729,705.681 331.793,730.244 335.856,755.725 339.92,782.544 343.983,810.694 348.046,839.859 352.11,869.754 356.173,900.094 360.237,931.303 364.3,962.651 368.363,993.027 372.427,1020.59 376.49,1043.73 380.553,1062.57 384.617,1078.23 388.68,1090.96 392.744,1100.33 396.807,1105.47 400.87,1106.06 404.934,1102.68 408.997,1096.17 413.06,1087.29 417.124,1076.12 421.187,1062.58 425.251,1049.18 429.314,1036.65 433.377,1024.1 437.441,1012.75 441.504,1004.22 445.568,999.491 449.631,998.68 453.694,1002.03 457.758,1009.11 461.821,1019.08 465.884,1030.74 469.948,1043.09 474.011,1055.17 478.075,1066.31 482.138,1075.65 486.201,1084.29 490.265,1094.1 494.328,1105.09 498.391,1117.11 502.455,1129.86 506.518,1143.12 510.582,1155.52 514.645,1166.24 518.708,1174.26 522.772,1180.26 526.835,1184.5 530.899,1187.81 534.962,1189.66 539.025,1188.89 543.089,1185.81 547.152,1182.68 551.215,1179.41 555.279,1173.54 559.342,1164.96 563.406,1154.71 567.469,1143.86 571.532,1132.76 575.596,1120.56 579.659,1107.48 583.722,1093.5 587.786,1079.96 591.849,1067.37 595.913,1055.37 599.976,1043 604.039,1029.95 608.103,1016.89 612.166,1005.46 616.23,997.231 620.293,991.296 624.356,987.339 628.42,984.583 632.483,983.193 636.546,983.882 640.61,986.228 644.673,990.596 648.737,995.299 652.8,998.434 656.863,999.578 660.927,1000.27 664.99,1000.43 669.053,999.688 673.117,997.612 677.18,994.515 681.244,991.269 685.307,987.738 689.37,984.74 693.434,983.151 697.497,984.608 701.561,987.746 705.624,991.492 709.687,995.797 713.751,998.933 717.814,999.123 721.877,996.693 725.941,992.401 730.004,986.571 734.068,979.439 738.131,971.439 742.194,963.494 746.258,956.397 750.321,950.536 754.384,946.726 758.448,944.241 762.511,941.248 766.575,936.938 770.638,931.104 774.701,924.932 778.765,919.555 782.828,915.418 786.892,913.425 790.955,912.589 795.018,912.121 799.082,911.678 803.145,911.197 807.208,910.791 811.272,910.471 815.335,910.481 819.399,911.521 823.462,914.023 827.525,918.577 831.589,925.051 835.652,931.351 839.715,937.828 843.779,944.435 847.842,950.56 851.906,957.708 855.969,967.281 860.032,979.414 864.096,992.903 868.159,1006.36 872.223,1017.81 876.286,1026.96 880.349,1035.87 884.413,1046.12 888.476,1057.85 892.539,1070.5 896.603,1084.03 900.666,1098.81 904.73,1114.92 908.793,1131.58 912.856,1148.41 916.92,1163.18 920.983,1175.2 925.046,1184.9 929.11,1192.91 933.173,1199.99 937.237,1206.32 941.3,1212.16 945.363,1217.73 949.427,1222.26 953.49,1225.6 957.553,1226.86 961.617,1225.91 965.68,1222.81 969.744,1217.68 973.807,1211.06 977.87,1202.62 981.934,1192.12 985.997,1179.49 990.061,1166.4 994.124,1154.55 998.187,1145.13 1002.25,1138.84 1006.31,1135.39 1010.38,1134.03 1014.44,1134.62 1018.5,1137.22 1022.57,1142.27 1026.63,1147.65 1030.69,1152.25 1034.76,1155.19 1038.82,1155.67 1042.88,1153.75 1046.95,1149.33 1051.01,1143.83 1055.07,1137.74 1059.14,1131.75 1063.2,1126 1067.26,1120.72 1071.33,1114.51 1075.39,1106.64 1079.45,1096.22 1083.52,1082.65 1087.58,1067.96 1091.65,1053.39 1095.71,1039.95 1099.77,1028.14 1103.84,1017.26 1107.9,1006.82 1111.96,998.063 1116.03,990.182 1120.09,982.297 1124.15,974.355 1128.22,965.173 1132.28,954.052 1136.34,939.952 1140.41,922.78 1144.47,902.655 1148.53,882.208 1152.6,862.452 1156.66,843.095 1160.72,822.971 1164.79,801.855 1168.85,778.534 1172.91,754.439 1176.98,731.565 1181.04,709.187 1185.1,687.537 1189.17,667.556 1193.23,649.67 1197.29,633.695 1201.36,619.341 1205.42,605.438 1209.48,590.374 1213.55,574.409 1217.61,557.56 1221.67,540.123 1225.74,522.689 1229.8,505.556 1233.86,490.02 1237.93,477.507 1241.99,467.145 1246.05,457.536 1250.12,449.801 1254.18,444.906 1258.24,443.039 1262.31,444.943 1266.37,450.743 1270.43,458.995 1274.5,468.657 1278.56,478.104 1282.62,488.026 1286.69,500.096 1290.75,515.127 1294.81,533.652 1298.88,555.751 1302.94,581.561 1307,609.965 1311.07,639.936 1315.13,671.227 1319.19,703.03 1323.26,734.87 1327.32,766.818 1331.38,797.554 1335.45,825.853 1339.51,852.244 1343.57,876.836 1347.64,899.395 1351.7,920.872 1355.76,941.435 1359.83,961.112 1363.89,978.255 1367.95,992.3 1372.02,1003.94 1376.08,1013 1380.15,1019.27 1384.21,1022.79 1388.27,1022.75 1392.34,1019.96 1396.4,1015.27 1400.46,1009.68 1404.53,1004.38 1408.59,1000.61 1412.65,998.392 1416.72,998.555 1420.78,1001.43 1424.84,1006.23 1428.91,1012.03 1432.97,1018.14 1437.03,1025.55 1441.1,1034.74 1445.16,1045.46 1449.22,1056.75 1453.29,1068.25 1457.35,1079.52 1461.41,1089.58 1465.48,1096.84 1469.54,1100.35 1473.6,1100.18 1477.67,1097.89 1481.73,1096.05 1485.79,1095.34 1489.86,1095.1 1493.92,1095.03 1497.98,1093.52 1502.05,1090.52 1506.11,1087.4 1510.17,1085.19 1514.24,1083.55 1518.3,1082.21 1522.36,1080.44 1526.43,1078.95 1530.49,1078.97 1534.55,1081.42 1538.62,1086.68 1542.68,1093.1 1546.74,1099.98 1550.81,1105.26 1554.87,1109.06 1558.93,1113.08 1563,1117.23 1567.06,1120.63 1571.12,1123.88 1575.19,1127 1579.25,1129.69 1583.31,1131.65 1587.38,1133.19 1591.44,1134.08 1595.5,1133.94 1599.57,1133.26 1603.63,1131.19 1607.69,1127.52 1611.76,1121.9 1615.82,1114.34 1619.88,1104.83 1623.95,1094.22 1628.01,1085.01 1632.07,1077.23 1636.14,1070.35 1640.2,1064.17 1644.26,1059.43 1648.33,1055.94 1652.39,1053.17 1656.45,1051.02 1660.52,1048.65 1664.58,1045.37 1668.65,1041.84 1672.71,1038.21 1676.77,1035.06 1680.84,1032.48 1684.9,1030.36 1688.96,1028.52 1693.03,1027.83 1697.09,1028.53 1701.15,1031 1705.22,1034.37 1709.28,1038.7 1713.34,1043.59 1717.41,1047.72 1721.47,1050.5 1725.53,1051.7 1729.6,1051.12 1733.66,1049.31 1737.72,1046.44 1741.79,1043.28 1745.85,1039.96 1749.91,1036.2 1753.98,1031.12 1758.04,1024.7 1762.1,1017.57 1766.17,1010.94 1770.23,1005.67 1774.29,1002.53 1778.36,1000.78 1782.42,1000.47 1786.48,1000.91 1790.55,1003.32 1794.61,1009.07 1798.67,1017.79 1802.74,1027.56 1806.8,1036.79 1810.86,1044.97 1814.93,1052.67 1818.99,1060.67 1823.05,1068.08 1827.12,1075.67 1831.18,1084.92 1835.24,1095.52 1839.31,1106.75 1843.37,1118.28 1847.43,1128.38 1851.5,1134.72 1855.56,1136.1 1859.62,1133.34 1863.69,1126.22 1867.75,1113.89 1871.81,1096.93 1875.88,1076.75 1879.94,1054.58 1884,1031.4 1888.07,1006.71 1892.13,980.381 1896.19,953.939 1900.26,929.191 1904.32,905.834 1908.38,884.007 1912.45,864.224 1916.51,846.401 1920.57,831.5 1924.64,820.385 1928.7,811.462 1932.76,801.701 1936.83,791.262 1940.89,781.643 1944.96,773.267 1949.02,766.602 1953.08,762.256 1957.15,760.323 1961.21,761.196 1965.27,765.364 1969.34,773.139 1973.4,783.068 1977.46,794.219 1981.53,806.049 1985.59,819.92 1989.65,837.261 1993.72,857.457 1997.78,879.49 2001.84,901.315 2005.91,920.433 2009.97,936.606 2014.03,951.064 2018.1,964.955 2022.16,978.814 2026.22,992.277 2030.29,1005.13 2034.35,1016.87 2038.41,1025.66 2042.48,1030.95 2046.54,1035.1 2050.6,1037.91 2054.67,1038.05 2058.73,1034.48 2062.79,1027.13 2066.86,1017.39 2070.92,1006.35 2074.98,995.301 2079.05,986.074 2083.11,978.743 2087.17,973.38 2091.24,971.626 2095.3,974.799 2099.36,982.374 2103.43,993.928 2107.49,1007.59 2111.55,1021.19 2115.62,1032.9 2119.68,1041.13 2123.74,1044.62 2127.81,1042.32 2131.87,1033.23 2135.93,1016.92 2140,996.049 2144.06,971.552 2148.12,943.753 2152.19,913.519 2156.25,881.713 2160.31,850.494 2164.38,820.961 2168.44,794.584 2172.5,770.834 2176.57,748.342 2180.63,725.632 2184.69,703.891 2188.76,684.377 2192.82,667.087 2196.88,652.511 2200.95,640.666 2205.01,629.91 2209.07,619.126 2213.14,608.768 2217.2,598.496 2221.26,588.323 2225.33,579.75 2229.39,571.609 2233.46,563.856 2237.52,556.056 2241.58,549.302 2245.65,544.64 2249.71,542.662 2253.77,544.03 2257.84,547.156 2261.9,550.291 2265.96,553.159 2270.03,554.882 2274.09,553.941 2278.15,550.464 2282.22,545.529 2286.28,540.497 2290.34,535.727 "/>
<polyline clip-path="url(#clip682)" style="stroke:#0000ff; stroke-linecap:round; stroke-linejoin:round; stroke-width:4; stroke-opacity:1; fill:none" points="209.891,121.449 213.955,127.217 218.018,134.583 222.082,143.416 226.145,154.017 230.208,167.262 234.272,184.585 238.335,206.169 242.398,231.618 246.462,259.234 250.525,286.906 254.589,312.895 258.652,337.803 262.715,363.184 266.779,390.148 270.842,419.229 274.906,451.03 278.969,484.2 283.032,518.753 287.096,553.452 291.159,588.3 295.222,621.818 299.286,653.377 303.349,681.673 307.413,705.351 311.476,725.202 315.539,742.444 319.603,758.55 323.666,773.462 327.729,787.48 331.793,802.284 335.856,817.749 339.92,832.925 343.983,847.443 348.046,861.497 352.11,874.804 356.173,887.486 360.237,900.561 364.3,914.282 368.363,929.378 372.427,944.475 376.49,959.522 380.553,974.826 384.617,989.9 388.68,1005.5 392.744,1021.5 396.807,1036.86 400.87,1050.38 404.934,1062.76 408.997,1073.74 413.06,1083.23 417.124,1090.63 421.187,1094.1 425.251,1093.46 429.314,1089.27 433.377,1082.83 437.441,1075.96 441.504,1070.13 445.568,1066.13 449.631,1063.31 453.694,1060.51 457.758,1057.37 461.821,1054.86 465.884,1052.34 469.948,1050.65 474.011,1051.19 478.075,1054.87 482.138,1062.43 486.201,1073.1 490.265,1085.5 494.328,1099.22 498.391,1114.45 502.455,1130.55 506.518,1146.73 510.582,1162.64 514.645,1176.71 518.708,1186.37 522.772,1190.9 526.835,1190.82 530.899,1187.53 534.962,1181.55 539.025,1173.64 543.089,1165.07 547.152,1156.34 551.215,1148.45 555.279,1141.74 559.342,1136.11 563.406,1131.01 567.469,1126.51 571.532,1123.09 575.596,1120.5 579.659,1119.5 583.722,1119.23 587.786,1117.66 591.849,1113.39 595.913,1109 599.976,1105.35 604.039,1102.85 608.103,1100.62 612.166,1098.01 616.23,1094.27 620.293,1089.84 624.356,1085.43 628.42,1082.26 632.483,1079.58 636.546,1078.2 640.61,1077.66 644.673,1078.06 648.737,1079.76 652.8,1082.49 656.863,1084.8 660.927,1085.99 664.99,1085.09 669.053,1081.65 673.117,1076.11 677.18,1068.74 681.244,1059.55 685.307,1048.69 689.37,1036.81 693.434,1025.2 697.497,1013.29 701.561,1000.75 705.624,988.077 709.687,975.036 713.751,962.396 717.814,949.906 721.877,937.721 725.941,924.591 730.004,909.739 734.068,893.234 738.131,876.685 742.194,860.427 746.258,844.15 750.321,828.769 754.384,814.509 758.448,800.773 762.511,787.012 766.575,773.451 770.638,761.424 774.701,751.237 778.765,743.819 782.828,739.28 786.892,736.901 790.955,736.238 795.018,738.224 799.082,743.164 803.145,751.117 807.208,763.224 811.272,779.979 815.335,800.682 819.399,824.337 823.462,850.628 827.525,878.897 831.589,908.795 835.652,938.13 839.715,966.372 843.779,992.228 847.842,1014.54 851.906,1032.73 855.969,1046.42 860.032,1055.71 864.096,1061.36 868.159,1064.14 872.223,1064.26 876.286,1063.47 880.349,1062.17 884.413,1060.58 888.476,1060.28 892.539,1062.02 896.603,1064.33 900.666,1066.74 904.73,1071.37 908.793,1077.73 912.856,1085.76 916.92,1094.82 920.983,1104.2 925.046,1113.58 929.11,1121.13 933.173,1127.09 937.237,1131.94 941.3,1136.03 945.363,1140.94 949.427,1147.42 953.49,1156.59 957.553,1168.45 961.617,1181.3 965.68,1193.84 969.744,1205.49 973.807,1217.31 977.87,1229.17 981.934,1240.63 985.997,1251.01 990.061,1259.84 994.124,1267.6 998.187,1272.78 1002.25,1273.24 1006.31,1269.24 1010.38,1261.83 1014.44,1251.93 1018.5,1240.19 1022.57,1226.81 1026.63,1212.63 1030.69,1197.86 1034.76,1184.27 1038.82,1172.78 1042.88,1163.21 1046.95,1155.22 1051.01,1148.44 1055.07,1143.08 1059.14,1138.42 1063.2,1133.01 1067.26,1126.67 1071.33,1119.89 1075.39,1113.46 1079.45,1106.65 1083.52,1100 1087.58,1093.43 1091.65,1086.32 1095.71,1078.98 1099.77,1071.04 1103.84,1061.18 1107.9,1049.06 1111.96,1033.78 1116.03,1014.87 1120.09,992.044 1124.15,966.109 1128.22,938.567 1132.28,908.913 1136.34,876.494 1140.41,841.718 1144.47,804.646 1148.53,767.23 1152.6,730.97 1156.66,697.006 1160.72,665.267 1164.79,635.818 1168.85,609.251 1172.91,585.602 1176.98,564.775 1181.04,545.441 1185.1,528.421 1189.17,514.613 1193.23,503.081 1197.29,494.244 1201.36,488.01 1205.42,484.083 1209.48,481.396 1213.55,480.058 1217.61,480.414 1221.67,482.857 1225.74,486.17 1229.8,488.402 1233.86,489.021 1237.93,488.831 1241.99,487.929 1246.05,487.616 1250.12,488.114 1254.18,489.365 1258.24,491.464 1262.31,495.205 1266.37,502.072 1270.43,510.821 1274.5,521.524 1278.56,534.96 1282.62,551.349 1286.69,570.873 1290.75,593.107 1294.81,617.497 1298.88,643.676 1302.94,671.721 1307,700.667 1311.07,730.398 1315.13,760.056 1319.19,788.823 1323.26,815.381 1327.32,839.57 1331.38,860.801 1335.45,878.138 1339.51,891.766 1343.57,903.051 1347.64,911.401 1351.7,916.299 1355.76,918.259 1359.83,918.197 1363.89,917.114 1367.95,915.217 1372.02,913.545 1376.08,912.08 1380.15,911.359 1384.21,910.894 1388.27,910.661 1392.34,910.755 1396.4,910.927 1400.46,912.07 1404.53,912.672 1408.59,911.934 1412.65,908.814 1416.72,903.705 1420.78,898.573 1424.84,894.596 1428.91,891.61 1432.97,889.672 1437.03,889.471 1441.1,893.158 1445.16,900.674 1449.22,911.154 1453.29,923.846 1457.35,938.113 1461.41,953.952 1465.48,969.851 1469.54,984.664 1473.6,999.924 1477.67,1015.92 1481.73,1032.54 1485.79,1049.25 1489.86,1064.42 1493.92,1077.98 1497.98,1089.77 1502.05,1099.94 1506.11,1108.59 1510.17,1115.8 1514.24,1122.74 1518.3,1128.56 1522.36,1132.32 1526.43,1133.51 1530.49,1131.85 1534.55,1127.73 1538.62,1120.81 1542.68,1111.26 1546.74,1101.12 1550.81,1090.24 1554.87,1078.1 1558.93,1065.92 1563,1053.88 1567.06,1041.77 1571.12,1029.73 1575.19,1018.29 1579.25,1007.01 1583.31,997.223 1587.38,989.346 1591.44,982.057 1595.5,974.501 1599.57,965.511 1603.63,956.201 1607.69,947.524 1611.76,940.854 1615.82,934.133 1619.88,925.112 1623.95,913.549 1628.01,901.368 1632.07,891.997 1636.14,887.199 1640.2,886.161 1644.26,887.692 1648.33,890.035 1652.39,893.029 1656.45,896.426 1660.52,898.898 1664.58,900.371 1668.65,901.503 1672.71,901.377 1676.77,900.588 1680.84,899.584 1684.9,898.572 1688.96,897.818 1693.03,897.604 1697.09,898.858 1701.15,902.644 1705.22,908.414 1709.28,916.768 1713.34,926.634 1717.41,938.012 1721.47,950.497 1725.53,962.056 1729.6,972.538 1733.66,981.883 1737.72,989.162 1741.79,995.599 1745.85,1001.28 1749.91,1006.49 1753.98,1010.97 1758.04,1015.03 1762.1,1018.33 1766.17,1020.06 1770.23,1019.88 1774.29,1019.34 1778.36,1019.99 1782.42,1022.13 1786.48,1026.14 1790.55,1030.7 1794.61,1035.39 1798.67,1039.83 1802.74,1044.96 1806.8,1050.9 1810.86,1057.28 1814.93,1063.61 1818.99,1068.19 1823.05,1069.52 1827.12,1068.08 1831.18,1065.51 1835.24,1062.3 1839.31,1057.39 1843.37,1050.97 1847.43,1042.99 1851.5,1032.84 1855.56,1020.45 1859.62,1006.86 1863.69,992.6 1867.75,977.397 1871.81,960.797 1875.88,942.769 1879.94,924.564 1884,907.391 1888.07,892.008 1892.13,877.745 1896.19,864.338 1900.26,851.72 1904.32,839.806 1908.38,827.72 1912.45,815.007 1916.51,802.255 1920.57,790.867 1924.64,781.631 1928.7,775.531 1932.76,772.584 1936.83,771.72 1940.89,772.119 1944.96,773.383 1949.02,775.455 1953.08,778.648 1957.15,783.009 1961.21,788.722 1965.27,795.201 1969.34,802.596 1973.4,812.061 1977.46,823.643 1981.53,837.234 1985.59,852.705 1989.65,870.091 1993.72,890.164 1997.78,912.811 2001.84,936.922 2005.91,961.57 2009.97,985.731 2014.03,1008.26 2018.1,1028.81 2022.16,1046.01 2026.22,1059.42 2030.29,1068.18 2034.35,1072.85 2038.41,1073.85 2042.48,1070.62 2046.54,1063.72 2050.6,1054.99 2054.67,1044.26 2058.73,1030.81 2062.79,1014.52 2066.86,995.492 2070.92,974.221 2074.98,952.529 2079.05,932.686 2083.11,916.039 2087.17,901.909 2091.24,891.04 2095.3,884.284 2099.36,880.617 2103.43,879.147 2107.49,880.137 2111.55,882.821 2115.62,886.547 2119.68,890.574 2123.74,895.584 2127.81,901.788 2131.87,909.495 2135.93,917.067 2140,922.966 2144.06,927.402 2148.12,931.716 2152.19,935.956 2156.25,939.632 2160.31,942.526 2164.38,944.648 2168.44,945.987 2172.5,945.895 2176.57,944.029 2180.63,940.735 2184.69,935.684 2188.76,927.512 2192.82,916.981 2196.88,904.001 2200.95,888.292 2205.01,870.544 2209.07,850.806 2213.14,829.457 2217.2,806.987 2221.26,783.926 2225.33,761.595 2229.39,740.846 2233.46,721.169 2237.52,702.009 2241.58,683.069 2245.65,664.431 2249.71,647.908 2253.77,633.167 2257.84,620.471 2261.9,609.254 2265.96,600.183 2270.03,593.376 2274.09,588.419 2278.15,585.507 2282.22,583.519 2286.28,580.688 2290.34,575.872 "/>
<polyline clip-path="url(#clip682)" style="stroke:#0000ff; stroke-linecap:round; stroke-linejoin:round; stroke-width:4; stroke-opacity:1; fill:none" points="209.891,377.314 213.955,371.453 218.018,364.309 222.082,355.765 226.145,346.183 230.208,335.905 234.272,324.808 238.335,313.44 242.398,302.988 246.462,293.703 250.525,286.833 254.589,283.009 258.652,281.036 262.715,280.79 266.779,284.357 270.842,292.431 274.906,304.383 278.969,318.923 283.032,336.704 287.096,355.827 291.159,375.543 295.222,398.1 299.286,424.262 303.349,453.719 307.413,485.753 311.476,520.715 315.539,556.706 319.603,592.537 323.666,628.329 327.729,662.896 331.793,695.813 335.856,726.039 339.92,753.579 343.983,779.518 348.046,805.976 352.11,834.148 356.173,863.872 360.237,894.458 364.3,925.508 368.363,957.195 372.427,989.488 376.49,1022 380.553,1053.88 384.617,1084.14 388.68,1111.55 392.744,1136.31 396.807,1159.44 400.87,1181.14 404.934,1201.38 408.997,1219.98 413.06,1236.23 417.124,1248.1 421.187,1256.46 425.251,1262.45 429.314,1266.38 433.377,1268.15 437.441,1267.38 441.504,1263.84 445.568,1257.65 449.631,1249.24 453.694,1238.02 457.758,1224.93 461.821,1209.73 465.884,1192.98 469.948,1175.53 474.011,1158.31 478.075,1142.17 482.138,1127.7 486.201,1113.88 490.265,1101.02 494.328,1089.34 498.391,1078.06 502.455,1067.63 506.518,1058.63 510.582,1051.32 514.645,1046.59 518.708,1044.14 522.772,1043.08 526.835,1044.04 530.899,1046.73 534.962,1049.79 539.025,1052.37 543.089,1054.97 547.152,1056.1 551.215,1055.69 555.279,1054.7 559.342,1053.95 563.406,1054.08 567.469,1053.81 571.532,1053.09 575.596,1052.98 579.659,1054.93 583.722,1060.02 587.786,1067.68 591.849,1075.61 595.913,1083.55 599.976,1090.28 604.039,1095.6 608.103,1098.54 612.166,1098.62 616.23,1096.53 620.293,1093.09 624.356,1088.81 628.42,1084.41 632.483,1080.29 636.546,1075.96 640.61,1071.99 644.673,1069.82 648.737,1068.95 652.8,1068.51 656.863,1065.81 660.927,1060.34 664.99,1050.89 669.053,1036.51 673.117,1019.53 677.18,1000.75 681.244,982.442 685.307,965.923 689.37,951.876 693.434,940.809 697.497,931.619 701.561,921.948 705.624,910.793 709.687,899.918 713.751,889.214 717.814,878.896 721.877,869.662 725.941,860.943 730.004,851.431 734.068,841.597 738.131,831.081 742.194,819.937 746.258,808.519 750.321,796.982 754.384,785.509 758.448,774.57 762.511,763.998 766.575,755.055 770.638,750.145 774.701,749.586 778.765,753.31 782.828,761.18 786.892,772 790.955,784.815 795.018,799.587 799.082,815.072 803.145,830.145 807.208,843.985 811.272,855.596 815.335,865.069 819.399,872.978 823.462,879.925 827.525,887.855 831.589,897.573 835.652,908.214 839.715,918.88 843.779,929.35 847.842,939.427 851.906,949.57 855.969,959.565 860.032,969.775 864.096,980.476 868.159,991.493 872.223,1000.86 876.286,1008.37 880.349,1014.87 884.413,1020.29 888.476,1024.39 892.539,1027.47 896.603,1030.6 900.666,1034.26 904.73,1039.67 908.793,1046.47 912.856,1053.2 916.92,1059.32 920.983,1065.94 925.046,1073.04 929.11,1079.06 933.173,1084.68 937.237,1091.17 941.3,1098.38 945.363,1107.02 949.427,1116.34 953.49,1126.03 957.553,1135.32 961.617,1144.1 965.68,1153.94 969.744,1165.3 973.807,1177.89 977.87,1191.93 981.934,1206.33 985.997,1220.72 990.061,1235.34 994.124,1250.6 998.187,1265.99 1002.25,1279.76 1006.31,1292.69 1010.38,1304.64 1014.44,1315.19 1018.5,1324.21 1022.57,1332.72 1026.63,1340.26 1030.69,1345.91 1034.76,1350.3 1038.82,1355.8 1042.88,1362.3 1046.95,1369.64 1051.01,1376.52 1055.07,1381.94 1059.14,1384.24 1063.2,1382.25 1067.26,1374.99 1071.33,1363.61 1075.39,1348.67 1079.45,1329.33 1083.52,1306.47 1087.58,1281.38 1091.65,1254.94 1095.71,1228.65 1099.77,1203.02 1103.84,1178.85 1107.9,1156.84 1111.96,1137.52 1116.03,1120.4 1120.09,1106.12 1124.15,1092.1 1128.22,1076.37 1132.28,1058.61 1136.34,1038.73 1140.41,1016.97 1144.47,992.959 1148.53,966.325 1152.6,937.296 1156.66,906.629 1160.72,874.987 1164.79,842.405 1168.85,809.129 1172.91,775.889 1176.98,744.152 1181.04,714.546 1185.1,687.845 1189.17,663.766 1193.23,642.482 1197.29,624.03 1201.36,607.727 1205.42,592.496 1209.48,578.483 1213.55,565.87 1217.61,554.8 1221.67,545.077 1225.74,535.905 1229.8,525.333 1233.86,512.935 1237.93,499.032 1241.99,483.955 1246.05,467.963 1250.12,451.46 1254.18,434.728 1258.24,418.832 1262.31,405.142 1266.37,394.475 1270.43,387.697 1274.5,385.501 1278.56,388.395 1282.62,396.408 1286.69,408.872 1290.75,425.038 1294.81,443.954 1298.88,464.839 1302.94,487.291 1307,511.922 1311.07,537.635 1315.13,562.647 1319.19,588.185 1323.26,615.272 1327.32,643.788 1331.38,672.858 1335.45,702.522 1339.51,732.907 1343.57,763.259 1347.64,794.104 1351.7,825.577 1355.76,855.871 1359.83,883.786 1363.89,908.587 1367.95,929.827 1372.02,947.084 1376.08,960.142 1380.15,969.198 1384.21,974.111 1388.27,977.029 1392.34,978.79 1396.4,981.716 1400.46,985.543 1404.53,989.022 1408.59,992.57 1412.65,997.325 1416.72,1003.99 1420.78,1011.61 1424.84,1018.35 1428.91,1023.82 1432.97,1028 1437.03,1031.05 1441.1,1034.02 1445.16,1036.57 1449.22,1039.48 1453.29,1043.71 1457.35,1049.81 1461.41,1056.69 1465.48,1063.98 1469.54,1070.91 1473.6,1077.95 1477.67,1085.38 1481.73,1093.33 1485.79,1101.61 1489.86,1109.95 1493.92,1117.34 1497.98,1123.57 1502.05,1128.14 1506.11,1129.79 1510.17,1130.18 1514.24,1129.12 1518.3,1124.59 1522.36,1116.34 1526.43,1105.72 1530.49,1093 1534.55,1078.67 1538.62,1063.38 1542.68,1047.71 1546.74,1032.92 1550.81,1018.72 1554.87,1005.85 1558.93,995.258 1563,986.151 1567.06,977.563 1571.12,970.288 1575.19,963.091 1579.25,956.138 1583.31,950.839 1587.38,945.989 1591.44,941.99 1595.5,938.681 1599.57,936.978 1603.63,937.328 1607.69,940.437 1611.76,946.02 1615.82,952.543 1619.88,959.489 1623.95,965.467 1628.01,969.446 1632.07,971.405 1636.14,971.182 1640.2,968.631 1644.26,964.37 1648.33,959.681 1652.39,955.122 1656.45,952.109 1660.52,951.672 1664.58,953.871 1668.65,958.214 1672.71,963.089 1676.77,967.737 1680.84,972.526 1684.9,977.531 1688.96,982.574 1693.03,988.912 1697.09,995.811 1701.15,1000.91 1705.22,1003.18 1709.28,1002.42 1713.34,998.36 1717.41,992.372 1721.47,986.05 1725.53,979.494 1729.6,972.14 1733.66,963.335 1737.72,954.117 1741.79,945.225 1745.85,938.141 1749.91,933.872 1753.98,932.747 1758.04,934.439 1762.1,938.109 1766.17,944.249 1770.23,953.432 1774.29,965.501 1778.36,977.586 1782.42,988.096 1786.48,996.32 1790.55,1004.01 1794.61,1011.42 1798.67,1016.98 1802.74,1021.04 1806.8,1023.33 1810.86,1022.44 1814.93,1017.25 1818.99,1007.64 1823.05,994.89 1827.12,980.053 1831.18,963.139 1835.24,946.12 1839.31,929.963 1843.37,914.397 1847.43,900.562 1851.5,889.265 1855.56,879.952 1859.62,873.486 1863.69,870.285 1867.75,869.023 1871.81,867.843 1875.88,866.697 1879.94,866.797 1884,867.462 1888.07,867.737 1892.13,866.862 1896.19,866.14 1900.26,866.005 1904.32,865.4 1908.38,862.155 1912.45,856.706 1916.51,850.243 1920.57,843.953 1924.64,839.164 1928.7,835.351 1932.76,832.219 1936.83,830.367 1940.89,829.731 1944.96,829.829 1949.02,831.293 1953.08,833.898 1957.15,837.573 1961.21,842.684 1965.27,848.589 1969.34,854.835 1973.4,860.741 1977.46,864.68 1981.53,867.08 1985.59,869.886 1989.65,871.988 1993.72,872.435 1997.78,871.094 2001.84,867.419 2005.91,863.244 2009.97,859.93 2014.03,857.544 2018.1,855.63 2022.16,854.028 2026.22,852.835 2030.29,851.008 2034.35,848.361 2038.41,845.676 2042.48,844.65 2046.54,844.074 2050.6,842.526 2054.67,840.725 2058.73,840.448 2062.79,841.615 2066.86,843.324 2070.92,845.006 2074.98,847.224 2079.05,851.554 2083.11,858.977 2087.17,867.95 2091.24,877.71 2095.3,888.023 2099.36,897.936 2103.43,906.551 2107.49,913.297 2111.55,918.285 2115.62,922.273 2119.68,925.427 2123.74,928.3 2127.81,931.278 2131.87,934.845 2135.93,938.999 2140,942.035 2144.06,943.118 2148.12,942.731 2152.19,940.281 2156.25,935.823 2160.31,928.79 2164.38,918.948 2168.44,905.882 2172.5,889.791 2176.57,872.141 2180.63,853.816 2184.69,834.114 2188.76,813.147 2192.82,792.06 2196.88,772.983 2200.95,756.699 2205.01,743.477 2209.07,732.494 2213.14,723.068 2217.2,713.719 2221.26,703.934 2225.33,693.305 2229.39,681.045 2233.46,667.037 2237.52,653.221 2241.58,640.521 2245.65,627.62 2249.71,614.543 2253.77,602.118 2257.84,591.109 2261.9,580.647 2265.96,570.256 2270.03,560.251 2274.09,552.124 2278.15,545.071 2282.22,538.235 2286.28,530.137 2290.34,520.638 "/>
<polyline clip-path="url(#clip682)" style="stroke:#0000ff; stroke-linecap:round; stroke-linejoin:round; stroke-width:4; stroke-opacity:1; fill:none" points="209.891,349.739 213.955,354.964 218.018,359.495 222.082,364.587 226.145,370.315 230.208,376.887 234.272,385.002 238.335,394.342 242.398,404.817 246.462,416.819 250.525,430.427 254.589,444.347 258.652,457.191 262.715,469.198 266.779,480.798 270.842,492.424 274.906,504.441 278.969,516.214 283.032,526.841 287.096,535.998 291.159,544.126 295.222,551.491 299.286,558.669 303.349,567.501 307.413,579.528 311.476,595.451 315.539,615.752 319.603,640.703 323.666,669.871 327.729,702.334 331.793,736.131 335.856,770.294 339.92,805.384 343.983,842.086 348.046,879.804 352.11,917.57 356.173,953.933 360.237,987.951 364.3,1018.24 368.363,1043.97 372.427,1065.67 376.49,1083.37 380.553,1097.91 384.617,1108.67 388.68,1116.6 392.744,1122.4 396.807,1126.34 400.87,1129.23 404.934,1132.42 408.997,1134.81 413.06,1133.96 417.124,1130.13 421.187,1124.9 425.251,1118.57 429.314,1111.28 433.377,1103.48 437.441,1096.54 441.504,1091.63 445.568,1088.97 449.631,1088.05 453.694,1088.61 457.758,1090.42 461.821,1093.5 465.884,1097.58 469.948,1102.96 474.011,1109.54 478.075,1117.28 482.138,1125.53 486.201,1134.39 490.265,1143.52 494.328,1151.44 498.391,1159.46 502.455,1167.96 506.518,1176.01 510.582,1182.91 514.645,1190.23 518.708,1198.33 522.772,1207.77 526.835,1217.45 530.899,1228.57 534.962,1241.17 539.025,1255.06 543.089,1270.05 547.152,1285.12 551.215,1299.45 555.279,1312.65 559.342,1325.04 563.406,1335.93 567.469,1344.6 571.532,1349.89 575.596,1352.48 579.659,1352.77 583.722,1350 587.786,1346.4 591.849,1343.62 595.913,1341 599.976,1337.14 604.039,1332.08 608.103,1325.74 612.166,1318.82 616.23,1312.47 620.293,1306.83 624.356,1300.67 628.42,1294.58 632.483,1288.44 636.546,1282.22 640.61,1274.71 644.673,1264.63 648.737,1250.83 652.8,1232.96 656.863,1211.82 660.927,1189.33 664.99,1166.97 669.053,1145.46 673.117,1126.13 677.18,1109.35 681.244,1095.68 685.307,1084.86 689.37,1076.08 693.434,1068.5 697.497,1062.27 701.561,1057.93 705.624,1053.74 709.687,1049.98 713.751,1045.04 717.814,1036.68 721.877,1025.28 725.941,1011.08 730.004,994.14 734.068,974.216 738.131,952.026 742.194,929.227 746.258,906.717 750.321,885.363 754.384,865.595 758.448,847.342 762.511,830.739 766.575,816.33 770.638,804.324 774.701,794.2 778.765,785.582 782.828,779.2 786.892,775.51 790.955,774.529 795.018,775.948 799.082,779.577 803.145,784.482 807.208,788.726 811.272,792.889 815.335,797.404 819.399,802.412 823.462,807.402 827.525,811.544 831.589,816.601 835.652,823.661 839.715,832.69 843.779,843.563 847.842,857.008 851.906,872.09 855.969,889.029 860.032,907.44 864.096,927.631 868.159,948.713 872.223,968.897 876.286,988.299 880.349,1006 884.413,1023.65 888.476,1042.66 892.539,1063.63 896.603,1086.26 900.666,1110.43 904.73,1136.74 908.793,1164.65 912.856,1192.78 916.92,1218.4 920.983,1240.66 925.046,1260.51 929.11,1277.95 933.173,1291.91 937.237,1302.45 941.3,1309.37 945.363,1311.6 949.427,1309.3 953.49,1301.55 957.553,1289.8 961.617,1276.33 965.68,1262.61 969.744,1249.68 973.807,1239.01 977.87,1232.53 981.934,1229.39 985.997,1228.53 990.061,1229.03 994.124,1230.99 998.187,1233.02 1002.25,1235.43 1006.31,1239.19 1010.38,1244.81 1014.44,1251.78 1018.5,1258.71 1022.57,1264.46 1026.63,1268.76 1030.69,1271.55 1034.76,1272.71 1038.82,1272.89 1042.88,1272.88 1046.95,1273.95 1051.01,1276.25 1055.07,1279.06 1059.14,1282.53 1063.2,1287.34 1067.26,1293.2 1071.33,1298.73 1075.39,1302.46 1079.45,1303.53 1083.52,1303.02 1087.58,1300.63 1091.65,1295.03 1095.71,1285.86 1099.77,1272.74 1103.84,1255.47 1107.9,1233.67 1111.96,1208.82 1116.03,1181.9 1120.09,1153.77 1124.15,1125.41 1128.22,1097.64 1132.28,1070.83 1136.34,1043.49 1140.41,1016.15 1144.47,989.37 1148.53,962.922 1152.6,935.75 1156.66,907.56 1160.72,878.835 1164.79,851.251 1168.85,825.223 1172.91,800.473 1176.98,777.13 1181.04,755.079 1185.1,734.441 1189.17,714.787 1193.23,697.383 1197.29,681.894 1201.36,666.792 1205.42,651.678 1209.48,638.185 1213.55,626.753 1217.61,615.686 1221.67,604.333 1225.74,593.377 1229.8,583.816 1233.86,575.749 1237.93,569.246 1241.99,563.721 1246.05,559.937 1250.12,558.349 1254.18,558.174 1258.24,558.836 1262.31,560.053 1266.37,562.156 1270.43,563.704 1274.5,565.005 1278.56,567.438 1282.62,571.798 1286.69,578.33 1290.75,585.296 1294.81,592.244 1298.88,597.448 1302.94,601.286 1307,604.636 1311.07,609.364 1315.13,615.906 1319.19,624.028 1323.26,633.082 1327.32,643.972 1331.38,657.515 1335.45,672.388 1339.51,687.626 1343.57,703.004 1347.64,717.384 1351.7,729.933 1355.76,741.409 1359.83,752.93 1363.89,763.596 1367.95,772.051 1372.02,777.63 1376.08,781.395 1380.15,785.335 1384.21,789.858 1388.27,794.657 1392.34,799.71 1396.4,805.04 1400.46,810.447 1404.53,815.772 1408.59,821.041 1412.65,826.433 1416.72,831.738 1420.78,837.697 1424.84,844.255 1428.91,850.532 1432.97,857.444 1437.03,865.74 1441.1,874.563 1445.16,883.762 1449.22,893.162 1453.29,903.024 1457.35,914.386 1461.41,926.015 1465.48,937.836 1469.54,950.45 1473.6,964.938 1477.67,982.443 1481.73,1002.2 1485.79,1023.97 1489.86,1046.92 1493.92,1069.61 1497.98,1091.36 1502.05,1110.82 1506.11,1127.14 1510.17,1139.2 1514.24,1146.19 1518.3,1149.65 1522.36,1150.54 1526.43,1149.54 1530.49,1147.87 1534.55,1146.01 1538.62,1144.38 1542.68,1144.39 1546.74,1145.46 1550.81,1148.37 1554.87,1153.2 1558.93,1159.47 1563,1166.56 1567.06,1173.51 1571.12,1180.05 1575.19,1184.04 1579.25,1184.9 1583.31,1183.76 1587.38,1180.96 1591.44,1175.29 1595.5,1166.42 1599.57,1154.45 1603.63,1139.79 1607.69,1122.08 1611.76,1103.02 1615.82,1082.58 1619.88,1060.43 1623.95,1037.74 1628.01,1015.39 1632.07,993.655 1636.14,973.294 1640.2,955.946 1644.26,941.946 1648.33,931.216 1652.39,923.098 1656.45,915.384 1660.52,908.125 1664.58,902.499 1668.65,899.373 1672.71,898.219 1676.77,898.554 1680.84,898.44 1684.9,898.554 1688.96,898.267 1693.03,896.289 1697.09,892.935 1701.15,889.106 1705.22,886.804 1709.28,885.303 1713.34,884.7 1717.41,885.842 1721.47,888.733 1725.53,893.077 1729.6,899.615 1733.66,907.998 1737.72,915.995 1741.79,923.027 1745.85,929.837 1749.91,937.352 1753.98,945.806 1758.04,955.605 1762.1,967.451 1766.17,981.96 1770.23,998.705 1774.29,1016.98 1778.36,1036.21 1782.42,1054.77 1786.48,1071.25 1790.55,1084.99 1794.61,1095.6 1798.67,1103.22 1802.74,1107.81 1806.8,1109.02 1810.86,1106.01 1814.93,1098.87 1818.99,1089.03 1823.05,1078.28 1827.12,1066.65 1831.18,1054.02 1835.24,1040.91 1839.31,1027.23 1843.37,1011.56 1847.43,993.373 1851.5,973.616 1855.56,953.205 1859.62,933.444 1863.69,914.48 1867.75,897.138 1871.81,881.773 1875.88,868.505 1879.94,856.898 1884,846.427 1888.07,837.01 1892.13,829.189 1896.19,822.935 1900.26,817.408 1904.32,812.567 1908.38,809.176 1912.45,806.751 1916.51,804.601 1920.57,802.084 1924.64,799.167 1928.7,795.639 1932.76,791.845 1936.83,789.488 1940.89,789.033 1944.96,789.345 1949.02,790.711 1953.08,793.257 1957.15,796.425 1961.21,799.939 1965.27,804.296 1969.34,809.918 1973.4,817.274 1977.46,825.614 1981.53,835.145 1985.59,846.601 1989.65,860.136 1993.72,876.012 1997.78,894.749 2001.84,916.744 2005.91,941.541 2009.97,966.902 2014.03,991.117 2018.1,1013.4 2022.16,1034.1 2026.22,1052.88 2030.29,1069.17 2034.35,1082.87 2038.41,1093.97 2042.48,1101.77 2046.54,1106.25 2050.6,1108.53 2054.67,1108.12 2058.73,1105.74 2062.79,1102.87 2066.86,1099.23 2070.92,1094.13 2074.98,1088.52 2079.05,1083.48 2083.11,1078.5 2087.17,1072.62 2091.24,1065.22 2095.3,1057.9 2099.36,1051.75 2103.43,1047.82 2107.49,1045.52 2111.55,1043.56 2115.62,1041.66 2119.68,1039.57 2123.74,1037.06 2127.81,1034.11 2131.87,1029.92 2135.93,1024.23 2140,1017.1 2144.06,1008.05 2148.12,996.863 2152.19,984.189 2156.25,971.283 2160.31,958.891 2164.38,945.21 2168.44,929.877 2172.5,912.981 2176.57,895.229 2180.63,877.017 2184.69,859.135 2188.76,841.891 2192.82,825.329 2196.88,808.542 2200.95,792.177 2205.01,777.391 2209.07,764.93 2213.14,755.276 2217.2,748.427 2221.26,744.151 2225.33,741.745 2229.39,741.958 2233.46,743.629 2237.52,745.141 2241.58,746.33 2245.65,746.562 2249.71,743.614 2253.77,737.012 2257.84,726.947 2261.9,713.386 2265.96,697.458 2270.03,680.738 2274.09,663.664 2278.15,647.416 2282.22,632.327 2286.28,618.741 2290.34,605.921 "/>
</svg>
