<?xml version="1.0" encoding="utf-8"?>
<svg xmlns="http://www.w3.org/2000/svg" xmlns:xlink="http://www.w3.org/1999/xlink" width="600" height="400" viewBox="0 0 2400 1600">
<defs>
  <clipPath id="clip620">
    <rect x="0" y="0" width="2400" height="1600"/>
  </clipPath>
</defs>
<path clip-path="url(#clip620)" d="M0 1600 L2400 1600 L2400 0 L0 0  Z" fill="#ffffff" fill-rule="evenodd" fill-opacity="1"/>
<defs>
  <clipPath id="clip621">
    <rect x="480" y="0" width="1681" height="1600"/>
  </clipPath>
</defs>
<path clip-path="url(#clip620)" d="M147.478 1423.18 L2352.76 1423.18 L2352.76 47.2441 L147.478 47.2441  Z" fill="#ffffff" fill-rule="evenodd" fill-opacity="1"/>
<defs>
  <clipPath id="clip622">
    <rect x="147" y="47" width="2206" height="1377"/>
  </clipPath>
</defs>
<polyline clip-path="url(#clip622)" style="stroke:#000000; stroke-linecap:round; stroke-linejoin:round; stroke-width:2; stroke-opacity:0.1; fill:none" points="209.891,1423.18 209.891,47.2441 "/>
<polyline clip-path="url(#clip622)" style="stroke:#000000; stroke-linecap:round; stroke-linejoin:round; stroke-width:2; stroke-opacity:0.1; fill:none" points="730.004,1423.18 730.004,47.2441 "/>
<polyline clip-path="url(#clip622)" style="stroke:#000000; stroke-linecap:round; stroke-linejoin:round; stroke-width:2; stroke-opacity:0.1; fill:none" points="1250.12,1423.18 1250.12,47.2441 "/>
<polyline clip-path="url(#clip622)" style="stroke:#000000; stroke-linecap:round; stroke-linejoin:round; stroke-width:2; stroke-opacity:0.1; fill:none" points="1770.23,1423.18 1770.23,47.2441 "/>
<polyline clip-path="url(#clip622)" style="stroke:#000000; stroke-linecap:round; stroke-linejoin:round; stroke-width:2; stroke-opacity:0.1; fill:none" points="2290.34,1423.18 2290.34,47.2441 "/>
<polyline clip-path="url(#clip622)" style="stroke:#000000; stroke-linecap:round; stroke-linejoin:round; stroke-width:2; stroke-opacity:0.1; fill:none" points="147.478,1386.88 2352.76,1386.88 "/>
<polyline clip-path="url(#clip622)" style="stroke:#000000; stroke-linecap:round; stroke-linejoin:round; stroke-width:2; stroke-opacity:0.1; fill:none" points="147.478,992.337 2352.76,992.337 "/>
<polyline clip-path="url(#clip622)" style="stroke:#000000; stroke-linecap:round; stroke-linejoin:round; stroke-width:2; stroke-opacity:0.1; fill:none" points="147.478,597.789 2352.76,597.789 "/>
<polyline clip-path="url(#clip622)" style="stroke:#000000; stroke-linecap:round; stroke-linejoin:round; stroke-width:2; stroke-opacity:0.1; fill:none" points="147.478,203.241 2352.76,203.241 "/>
<polyline clip-path="url(#clip620)" style="stroke:#000000; stroke-linecap:round; stroke-linejoin:round; stroke-width:4; stroke-opacity:1; fill:none" points="147.478,1423.18 2352.76,1423.18 "/>
<polyline clip-path="url(#clip620)" style="stroke:#000000; stroke-linecap:round; stroke-linejoin:round; stroke-width:4; stroke-opacity:1; fill:none" points="209.891,1423.18 209.891,1404.28 "/>
<polyline clip-path="url(#clip620)" style="stroke:#000000; stroke-linecap:round; stroke-linejoin:round; stroke-width:4; stroke-opacity:1; fill:none" points="730.004,1423.18 730.004,1404.28 "/>
<polyline clip-path="url(#clip620)" style="stroke:#000000; stroke-linecap:round; stroke-linejoin:round; stroke-width:4; stroke-opacity:1; fill:none" points="1250.12,1423.18 1250.12,1404.28 "/>
<polyline clip-path="url(#clip620)" style="stroke:#000000; stroke-linecap:round; stroke-linejoin:round; stroke-width:4; stroke-opacity:1; fill:none" points="1770.23,1423.18 1770.23,1404.28 "/>
<polyline clip-path="url(#clip620)" style="stroke:#000000; stroke-linecap:round; stroke-linejoin:round; stroke-width:4; stroke-opacity:1; fill:none" points="2290.34,1423.18 2290.34,1404.28 "/>
<path clip-path="url(#clip620)" d="M209.891 1454.1 Q206.28 1454.1 204.452 1457.66 Q202.646 1461.2 202.646 1468.33 Q202.646 1475.44 204.452 1479.01 Q206.28 1482.55 209.891 1482.55 Q213.526 1482.55 215.331 1479.01 Q217.16 1475.44 217.16 1468.33 Q217.16 1461.2 215.331 1457.66 Q213.526 1454.1 209.891 1454.1 M209.891 1450.39 Q215.702 1450.39 218.757 1455 Q221.836 1459.58 221.836 1468.33 Q221.836 1477.06 218.757 1481.67 Q215.702 1486.25 209.891 1486.25 Q204.081 1486.25 201.003 1481.67 Q197.947 1477.06 197.947 1468.33 Q197.947 1459.58 201.003 1455 Q204.081 1450.39 209.891 1450.39 Z" fill="#000000" fill-rule="nonzero" fill-opacity="1" /><path clip-path="url(#clip620)" d="M720.282 1451.02 L738.638 1451.02 L738.638 1454.96 L724.564 1454.96 L724.564 1463.43 Q725.583 1463.08 726.601 1462.92 Q727.62 1462.73 728.638 1462.73 Q734.425 1462.73 737.805 1465.9 Q741.185 1469.08 741.185 1474.49 Q741.185 1480.07 737.712 1483.17 Q734.24 1486.25 727.921 1486.25 Q725.745 1486.25 723.476 1485.88 Q721.231 1485.51 718.824 1484.77 L718.824 1480.07 Q720.907 1481.2 723.129 1481.76 Q725.351 1482.32 727.828 1482.32 Q731.833 1482.32 734.171 1480.21 Q736.509 1478.1 736.509 1474.49 Q736.509 1470.88 734.171 1468.77 Q731.833 1466.67 727.828 1466.67 Q725.953 1466.67 724.078 1467.08 Q722.226 1467.5 720.282 1468.38 L720.282 1451.02 Z" fill="#000000" fill-rule="nonzero" fill-opacity="1" /><path clip-path="url(#clip620)" d="M1224.8 1481.64 L1232.44 1481.64 L1232.44 1455.28 L1224.13 1456.95 L1224.13 1452.69 L1232.4 1451.02 L1237.07 1451.02 L1237.07 1481.64 L1244.71 1481.64 L1244.71 1485.58 L1224.8 1485.58 L1224.8 1481.64 Z" fill="#000000" fill-rule="nonzero" fill-opacity="1" /><path clip-path="url(#clip620)" d="M1264.16 1454.1 Q1260.55 1454.1 1258.72 1457.66 Q1256.91 1461.2 1256.91 1468.33 Q1256.91 1475.44 1258.72 1479.01 Q1260.55 1482.55 1264.16 1482.55 Q1267.79 1482.55 1269.6 1479.01 Q1271.42 1475.44 1271.42 1468.33 Q1271.42 1461.2 1269.6 1457.66 Q1267.79 1454.1 1264.16 1454.1 M1264.16 1450.39 Q1269.97 1450.39 1273.02 1455 Q1276.1 1459.58 1276.1 1468.33 Q1276.1 1477.06 1273.02 1481.67 Q1269.97 1486.25 1264.16 1486.25 Q1258.35 1486.25 1255.27 1481.67 Q1252.21 1477.06 1252.21 1468.33 Q1252.21 1459.58 1255.27 1455 Q1258.35 1450.39 1264.16 1450.39 Z" fill="#000000" fill-rule="nonzero" fill-opacity="1" /><path clip-path="url(#clip620)" d="M1745.41 1481.64 L1753.05 1481.64 L1753.05 1455.28 L1744.74 1456.95 L1744.74 1452.69 L1753.01 1451.02 L1757.68 1451.02 L1757.68 1481.64 L1765.32 1481.64 L1765.32 1485.58 L1745.41 1485.58 L1745.41 1481.64 Z" fill="#000000" fill-rule="nonzero" fill-opacity="1" /><path clip-path="url(#clip620)" d="M1774.81 1451.02 L1793.17 1451.02 L1793.17 1454.96 L1779.1 1454.96 L1779.1 1463.43 Q1780.11 1463.08 1781.13 1462.92 Q1782.15 1462.73 1783.17 1462.73 Q1788.96 1462.73 1792.34 1465.9 Q1795.72 1469.08 1795.72 1474.49 Q1795.72 1480.07 1792.24 1483.17 Q1788.77 1486.25 1782.45 1486.25 Q1780.28 1486.25 1778.01 1485.88 Q1775.76 1485.51 1773.35 1484.77 L1773.35 1480.07 Q1775.44 1481.2 1777.66 1481.76 Q1779.88 1482.32 1782.36 1482.32 Q1786.36 1482.32 1788.7 1480.21 Q1791.04 1478.1 1791.04 1474.49 Q1791.04 1470.88 1788.7 1468.77 Q1786.36 1466.67 1782.36 1466.67 Q1780.48 1466.67 1778.61 1467.08 Q1776.76 1467.5 1774.81 1468.38 L1774.81 1451.02 Z" fill="#000000" fill-rule="nonzero" fill-opacity="1" /><path clip-path="url(#clip620)" d="M2269.12 1481.64 L2285.43 1481.64 L2285.43 1485.58 L2263.49 1485.58 L2263.49 1481.64 Q2266.15 1478.89 2270.74 1474.26 Q2275.34 1469.61 2276.52 1468.27 Q2278.77 1465.74 2279.65 1464.01 Q2280.55 1462.25 2280.55 1460.56 Q2280.55 1457.8 2278.61 1456.07 Q2276.69 1454.33 2273.58 1454.33 Q2271.38 1454.33 2268.93 1455.09 Q2266.5 1455.86 2263.72 1457.41 L2263.72 1452.69 Q2266.55 1451.55 2269 1450.97 Q2271.45 1450.39 2273.49 1450.39 Q2278.86 1450.39 2282.06 1453.08 Q2285.25 1455.77 2285.25 1460.26 Q2285.25 1462.39 2284.44 1464.31 Q2283.65 1466.2 2281.55 1468.8 Q2280.97 1469.47 2277.87 1472.69 Q2274.76 1475.88 2269.12 1481.64 Z" fill="#000000" fill-rule="nonzero" fill-opacity="1" /><path clip-path="url(#clip620)" d="M2305.25 1454.1 Q2301.64 1454.1 2299.81 1457.66 Q2298 1461.2 2298 1468.33 Q2298 1475.44 2299.81 1479.01 Q2301.64 1482.55 2305.25 1482.55 Q2308.88 1482.55 2310.69 1479.01 Q2312.52 1475.44 2312.52 1468.33 Q2312.52 1461.2 2310.69 1457.66 Q2308.88 1454.1 2305.25 1454.1 M2305.25 1450.39 Q2311.06 1450.39 2314.12 1455 Q2317.19 1459.58 2317.19 1468.33 Q2317.19 1477.06 2314.12 1481.67 Q2311.06 1486.25 2305.25 1486.25 Q2299.44 1486.25 2296.36 1481.67 Q2293.31 1477.06 2293.31 1468.33 Q2293.31 1459.58 2296.36 1455 Q2299.44 1450.39 2305.25 1450.39 Z" fill="#000000" fill-rule="nonzero" fill-opacity="1" /><path clip-path="url(#clip620)" d="M1249.18 1522.27 L1249.18 1532.4 L1261.24 1532.4 L1261.24 1536.95 L1249.18 1536.95 L1249.18 1556.3 Q1249.18 1560.66 1250.36 1561.9 Q1251.57 1563.14 1255.23 1563.14 L1261.24 1563.14 L1261.24 1568.04 L1255.23 1568.04 Q1248.45 1568.04 1245.87 1565.53 Q1243.29 1562.98 1243.29 1556.3 L1243.29 1536.95 L1238.99 1536.95 L1238.99 1532.4 L1243.29 1532.4 L1243.29 1522.27 L1249.18 1522.27 Z" fill="#000000" fill-rule="nonzero" fill-opacity="1" /><polyline clip-path="url(#clip620)" style="stroke:#000000; stroke-linecap:round; stroke-linejoin:round; stroke-width:4; stroke-opacity:1; fill:none" points="147.478,1423.18 147.478,47.2441 "/>
<polyline clip-path="url(#clip620)" style="stroke:#000000; stroke-linecap:round; stroke-linejoin:round; stroke-width:4; stroke-opacity:1; fill:none" points="147.478,1386.88 166.376,1386.88 "/>
<polyline clip-path="url(#clip620)" style="stroke:#000000; stroke-linecap:round; stroke-linejoin:round; stroke-width:4; stroke-opacity:1; fill:none" points="147.478,992.337 166.376,992.337 "/>
<polyline clip-path="url(#clip620)" style="stroke:#000000; stroke-linecap:round; stroke-linejoin:round; stroke-width:4; stroke-opacity:1; fill:none" points="147.478,597.789 166.376,597.789 "/>
<polyline clip-path="url(#clip620)" style="stroke:#000000; stroke-linecap:round; stroke-linejoin:round; stroke-width:4; stroke-opacity:1; fill:none" points="147.478,203.241 166.376,203.241 "/>
<path clip-path="url(#clip620)" d="M51.3625 1387.34 L81.0383 1387.34 L81.0383 1391.27 L51.3625 1391.27 L51.3625 1387.34 Z" fill="#000000" fill-rule="nonzero" fill-opacity="1" /><path clip-path="url(#clip620)" d="M95.1586 1400.23 L111.478 1400.23 L111.478 1404.16 L89.5336 1404.16 L89.5336 1400.23 Q92.1956 1397.47 96.7789 1392.85 Q101.385 1388.19 102.566 1386.85 Q104.811 1384.33 105.691 1382.59 Q106.594 1380.83 106.594 1379.14 Q106.594 1376.39 104.649 1374.65 Q102.728 1372.91 99.6261 1372.91 Q97.4271 1372.91 94.9734 1373.68 Q92.5428 1374.44 89.7651 1375.99 L89.7651 1371.27 Q92.5891 1370.14 95.0428 1369.56 Q97.4965 1368.98 99.5335 1368.98 Q104.904 1368.98 108.098 1371.66 Q111.293 1374.35 111.293 1378.84 Q111.293 1380.97 110.483 1382.89 Q109.696 1384.79 107.589 1387.38 Q107.01 1388.05 103.909 1391.27 Q100.807 1394.47 95.1586 1400.23 Z" fill="#000000" fill-rule="nonzero" fill-opacity="1" /><path clip-path="url(#clip620)" d="M50.9921 992.788 L80.6679 992.788 L80.6679 996.723 L50.9921 996.723 L50.9921 992.788 Z" fill="#000000" fill-rule="nonzero" fill-opacity="1" /><path clip-path="url(#clip620)" d="M91.5706 1005.68 L99.2095 1005.68 L99.2095 979.316 L90.8993 980.983 L90.8993 976.723 L99.1632 975.057 L103.839 975.057 L103.839 1005.68 L111.478 1005.68 L111.478 1009.62 L91.5706 1009.62 L91.5706 1005.68 Z" fill="#000000" fill-rule="nonzero" fill-opacity="1" /><path clip-path="url(#clip620)" d="M99.5335 583.588 Q95.9224 583.588 94.0937 587.152 Q92.2882 590.694 92.2882 597.824 Q92.2882 604.93 94.0937 608.495 Q95.9224 612.037 99.5335 612.037 Q103.168 612.037 104.973 608.495 Q106.802 604.93 106.802 597.824 Q106.802 590.694 104.973 587.152 Q103.168 583.588 99.5335 583.588 M99.5335 579.884 Q105.344 579.884 108.399 584.49 Q111.478 589.074 111.478 597.824 Q111.478 606.55 108.399 611.157 Q105.344 615.74 99.5335 615.74 Q93.7234 615.74 90.6447 611.157 Q87.5892 606.55 87.5892 597.824 Q87.5892 589.074 90.6447 584.49 Q93.7234 579.884 99.5335 579.884 Z" fill="#000000" fill-rule="nonzero" fill-opacity="1" /><path clip-path="url(#clip620)" d="M91.5706 216.586 L99.2095 216.586 L99.2095 190.22 L90.8993 191.887 L90.8993 187.628 L99.1632 185.961 L103.839 185.961 L103.839 216.586 L111.478 216.586 L111.478 220.521 L91.5706 220.521 L91.5706 216.586 Z" fill="#000000" fill-rule="nonzero" fill-opacity="1" /><polyline clip-path="url(#clip622)" style="stroke:#000000; stroke-linecap:round; stroke-linejoin:round; stroke-width:4; stroke-opacity:1; fill:none" points="209.891,221.269 213.955,232.659 218.018,240.689 222.082,246.018 226.145,249.028 230.208,249.624 234.272,247.431 238.335,243.412 242.398,240.068 246.462,239.667 250.525,242.315 254.589,247.532 258.652,255.673 262.715,266.673 266.779,282.472 270.842,304.04 274.906,332.207 278.969,366.018 283.032,403.959 287.096,445.02 291.159,486.551 295.222,527.182 299.286,567.165 303.349,607.311 307.413,648.335 311.476,691.077 315.539,734.177 319.603,776.588 323.666,818.202 327.729,858.805 331.793,899.14 335.856,939.433 339.92,979.641 343.983,1019.3 348.046,1057.64 352.11,1093.98 356.173,1129.68 360.237,1165.83 364.3,1201.1 368.363,1233.3 372.427,1262.55 376.49,1287.63 380.553,1307.29 384.617,1320.67 388.68,1328.45 392.744,1331.08 396.807,1329.19 400.87,1325.04 404.934,1318.51 408.997,1309.07 413.06,1296.81 417.124,1282.3 421.187,1266.52 425.251,1250.17 429.314,1233.98 433.377,1217.29 437.441,1200.06 441.504,1182.92 445.568,1166.34 449.631,1149.95 453.694,1135.23 457.758,1123.99 461.821,1117.55 465.884,1116.93 469.948,1121.13 474.011,1128.27 478.075,1138.83 482.138,1152.19 486.201,1168.93 490.265,1187.54 494.328,1206.46 498.391,1224.27 502.455,1239.65 506.518,1251.99 510.582,1259.41 514.645,1264.54 518.708,1268.28 522.772,1270.6 526.835,1270.14 530.899,1265.5 534.962,1256.08 539.025,1243.16 543.089,1228.6 547.152,1212.69 551.215,1195.02 555.279,1175.97 559.342,1157.65 563.406,1140.95 567.469,1125.4 571.532,1110.1 575.596,1094.75 579.659,1079.16 583.722,1063.86 587.786,1050 591.849,1038.46 595.913,1028.07 599.976,1019.05 604.039,1012.63 608.103,1008.88 612.166,1007.48 616.23,1009.06 620.293,1014.83 624.356,1024.03 628.42,1035.42 632.483,1047.31 636.546,1058.34 640.61,1067.55 644.673,1074.48 648.737,1080 652.8,1085.21 656.863,1089.64 660.927,1093 664.99,1094.6 669.053,1094.18 673.117,1091.04 677.18,1085.2 681.244,1079 685.307,1072.93 689.37,1064.67 693.434,1053.97 697.497,1042.13 701.561,1030.81 705.624,1019.84 709.687,1008.24 713.751,994.662 717.814,979.418 721.877,962.078 725.941,944.271 730.004,928.436 734.068,914.691 738.131,903.42 742.194,894.958 746.258,889.487 750.321,885.6 754.384,881.697 758.448,878.648 762.511,876.687 766.575,876.608 770.638,879.745 774.701,884.992 778.765,890.803 782.828,896.774 786.892,903.351 790.955,912.027 795.018,922.881 799.082,936.214 803.145,950.78 807.208,964.026 811.272,974.571 815.335,981.602 819.399,985.708 823.462,988.446 827.525,989.123 831.589,987.711 835.652,984.698 839.715,980.73 843.779,976.496 847.842,973.018 851.906,970.898 855.969,971.242 860.032,974.821 864.096,980.635 868.159,990.463 872.223,1004.6 876.286,1022.48 880.349,1043.1 884.413,1065.08 888.476,1087.28 892.539,1108.5 896.603,1126.85 900.666,1141.78 904.73,1153.95 908.793,1162.98 912.856,1168.58 916.92,1170.7 920.983,1170.88 925.046,1170.15 929.11,1170.34 933.173,1172.39 937.237,1176.58 941.3,1181.22 945.363,1184.16 949.427,1184.81 953.49,1183.79 957.553,1181.59 961.617,1179.62 965.68,1178.6 969.744,1178.18 973.807,1179.34 977.87,1182.93 981.934,1188.97 985.997,1196.5 990.061,1204.06 994.124,1210.26 998.187,1215.37 1002.25,1219.68 1006.31,1224.15 1010.38,1228.62 1014.44,1233.52 1018.5,1237.71 1022.57,1241.37 1026.63,1244.1 1030.69,1245.87 1034.76,1245.69 1038.82,1243.83 1042.88,1240.13 1046.95,1233.66 1051.01,1225.51 1055.07,1215.39 1059.14,1203.87 1063.2,1192.95 1067.26,1182.59 1071.33,1172.4 1075.39,1161.74 1079.45,1150.12 1083.52,1137.54 1087.58,1122.98 1091.65,1107.45 1095.71,1092.55 1099.77,1079.13 1103.84,1067.7 1107.9,1057.35 1111.96,1048.1 1116.03,1039.06 1120.09,1029.57 1124.15,1020.8 1128.22,1013.29 1132.28,1004.33 1136.34,991.334 1140.41,974.93 1144.47,957.284 1148.53,939.145 1152.6,920.784 1156.66,902.587 1160.72,885.599 1164.79,869.521 1168.85,852.767 1172.91,834.21 1176.98,810.98 1181.04,781.501 1185.1,747.748 1189.17,711.002 1193.23,672.672 1197.29,634.942 1201.36,598.213 1205.42,562.013 1209.48,527.739 1213.55,495.418 1217.61,466.143 1221.67,439.619 1225.74,415.188 1229.8,392.989 1233.86,372.65 1237.93,355.469 1241.99,340.979 1246.05,329.748 1250.12,322.109 1254.18,318.366 1258.24,316.832 1262.31,316.952 1266.37,319.225 1270.43,324.976 1274.5,333.053 1278.56,344.46 1282.62,359.977 1286.69,379.402 1290.75,401.641 1294.81,427.517 1298.88,455.421 1302.94,483.272 1307,511.604 1311.07,542.37 1315.13,574.54 1319.19,607.339 1323.26,638.688 1327.32,668.571 1331.38,697.625 1335.45,725.262 1339.51,750.939 1343.57,773.897 1347.64,796.631 1351.7,819.779 1355.76,842.897 1359.83,864.903 1363.89,884.394 1367.95,902.633 1372.02,920.064 1376.08,936.936 1380.15,953.087 1384.21,968.19 1388.27,981.792 1392.34,994.637 1396.4,1007.16 1400.46,1019.2 1404.53,1030.85 1408.59,1041.69 1412.65,1051.46 1416.72,1058.28 1420.78,1061.34 1424.84,1063.66 1428.91,1066.63 1432.97,1070.47 1437.03,1077.18 1441.1,1087.13 1445.16,1098.78 1449.22,1111.8 1453.29,1124.11 1457.35,1134.11 1461.41,1142.29 1465.48,1149.28 1469.54,1155.77 1473.6,1161.44 1477.67,1166.59 1481.73,1171.34 1485.79,1175.97 1489.86,1179.13 1493.92,1180.68 1497.98,1181.71 1502.05,1183.13 1506.11,1183.72 1510.17,1182.42 1514.24,1179.48 1518.3,1174.36 1522.36,1167.82 1526.43,1161.32 1530.49,1154.91 1534.55,1149.87 1538.62,1143.91 1542.68,1135.92 1546.74,1126.89 1550.81,1117.42 1554.87,1107.31 1558.93,1096.06 1563,1083.23 1567.06,1069.82 1571.12,1058.1 1575.19,1048.94 1579.25,1042.81 1583.31,1039.72 1587.38,1038.91 1591.44,1038.48 1595.5,1038.09 1599.57,1039.6 1603.63,1042.28 1607.69,1045.86 1611.76,1050.23 1615.82,1053.96 1619.88,1056.8 1623.95,1058.64 1628.01,1058.93 1632.07,1057.9 1636.14,1056.08 1640.2,1054.41 1644.26,1053.62 1648.33,1051.78 1652.39,1046.68 1656.45,1037.42 1660.52,1025.6 1664.58,1012.52 1668.65,999.655 1672.71,986.462 1676.77,972.341 1680.84,957.054 1684.9,941.846 1688.96,927.722 1693.03,915.001 1697.09,903.68 1701.15,894.263 1705.22,887.51 1709.28,883.345 1713.34,879.964 1717.41,875.421 1721.47,868.186 1725.53,859.136 1729.6,849.243 1733.66,838.51 1737.72,826.717 1741.79,813.936 1745.85,801.422 1749.91,791.056 1753.98,783.613 1758.04,779.699 1762.1,778.781 1766.17,781.958 1770.23,788.444 1774.29,797.442 1778.36,807.72 1782.42,817.835 1786.48,826.529 1790.55,833.679 1794.61,838.468 1798.67,841.737 1802.74,843.49 1806.8,843.809 1810.86,841.868 1814.93,837.805 1818.99,832.823 1823.05,827.687 1827.12,823.147 1831.18,819.277 1835.24,816.823 1839.31,815.659 1843.37,814.906 1847.43,815.427 1851.5,818.898 1855.56,823.493 1859.62,827.646 1863.69,830.681 1867.75,832.248 1871.81,831.124 1875.88,828.01 1879.94,822.929 1884,818.056 1888.07,815.09 1892.13,814.217 1896.19,814.951 1900.26,817.113 1904.32,820.192 1908.38,824.473 1912.45,829.968 1916.51,834.795 1920.57,838.096 1924.64,839.362 1928.7,838.15 1932.76,834.711 1936.83,832.195 1940.89,831.581 1944.96,833.135 1949.02,836.769 1953.08,843.228 1957.15,853.23 1961.21,866.988 1965.27,883.298 1969.34,901.23 1973.4,919.02 1977.46,935.373 1981.53,949.061 1985.59,958.906 1989.65,965.119 1993.72,968.713 1997.78,970.545 2001.84,969.999 2005.91,968.16 2009.97,965.951 2014.03,963.14 2018.1,960.38 2022.16,958.341 2026.22,957.96 2030.29,959.996 2034.35,962.251 2038.41,963.724 2042.48,964.489 2046.54,965.885 2050.6,969.116 2054.67,972.156 2058.73,975.254 2062.79,977.774 2066.86,978.562 2070.92,977.338 2074.98,974.841 2079.05,972.64 2083.11,971.642 2087.17,971.66 2091.24,972.102 2095.3,972.878 2099.36,973.531 2103.43,974.85 2107.49,977.897 2111.55,982.688 2115.62,989.136 2119.68,995.584 2123.74,1000.26 2127.81,1003.14 2131.87,1006.25 2135.93,1008.88 2140,1008.69 2144.06,1006.79 2148.12,1004.19 2152.19,999.52 2156.25,992.961 2160.31,984.817 2164.38,975.976 2168.44,967.45 2172.5,960.339 2176.57,954.149 2180.63,947.46 2184.69,939.689 2188.76,929.388 2192.82,916.526 2196.88,902.821 2200.95,888.518 2205.01,874.561 2209.07,861.106 2213.14,847.895 2217.2,834.792 2221.26,821.311 2225.33,807.08 2229.39,791.996 2233.46,776.518 2237.52,760.501 2241.58,742.987 2245.65,726.383 2249.71,711.917 2253.77,700.131 2257.84,689.386 2261.9,679.368 2265.96,669.677 2270.03,659.34 2274.09,649.686 2278.15,639.716 2282.22,629.302 2286.28,617.746 2290.34,606.207 "/>
<circle clip-path="url(#clip622)" cx="209.891" cy="150.782" r="14.4" fill="#ff0000" fill-rule="evenodd" fill-opacity="1" stroke="#000000" stroke-opacity="1" stroke-width="3.2"/>
<circle clip-path="url(#clip622)" cx="242.398" cy="86.1857" r="14.4" fill="#ff0000" fill-rule="evenodd" fill-opacity="1" stroke="#000000" stroke-opacity="1" stroke-width="3.2"/>
<circle clip-path="url(#clip622)" cx="274.906" cy="354.34" r="14.4" fill="#ff0000" fill-rule="evenodd" fill-opacity="1" stroke="#000000" stroke-opacity="1" stroke-width="3.2"/>
<circle clip-path="url(#clip622)" cx="307.413" cy="498.754" r="14.4" fill="#ff0000" fill-rule="evenodd" fill-opacity="1" stroke="#000000" stroke-opacity="1" stroke-width="3.2"/>
<circle clip-path="url(#clip622)" cx="339.92" cy="905.567" r="14.4" fill="#ff0000" fill-rule="evenodd" fill-opacity="1" stroke="#000000" stroke-opacity="1" stroke-width="3.2"/>
<circle clip-path="url(#clip622)" cx="372.427" cy="1005.21" r="14.4" fill="#ff0000" fill-rule="evenodd" fill-opacity="1" stroke="#000000" stroke-opacity="1" stroke-width="3.2"/>
<circle clip-path="url(#clip622)" cx="404.934" cy="1345.19" r="14.4" fill="#ff0000" fill-rule="evenodd" fill-opacity="1" stroke="#000000" stroke-opacity="1" stroke-width="3.2"/>
<circle clip-path="url(#clip622)" cx="437.441" cy="1216.96" r="14.4" fill="#ff0000" fill-rule="evenodd" fill-opacity="1" stroke="#000000" stroke-opacity="1" stroke-width="3.2"/>
<circle clip-path="url(#clip622)" cx="469.948" cy="944.11" r="14.4" fill="#ff0000" fill-rule="evenodd" fill-opacity="1" stroke="#000000" stroke-opacity="1" stroke-width="3.2"/>
<circle clip-path="url(#clip622)" cx="502.455" cy="1105.76" r="14.4" fill="#ff0000" fill-rule="evenodd" fill-opacity="1" stroke="#000000" stroke-opacity="1" stroke-width="3.2"/>
<circle clip-path="url(#clip622)" cx="534.962" cy="1384.24" r="14.4" fill="#ff0000" fill-rule="evenodd" fill-opacity="1" stroke="#000000" stroke-opacity="1" stroke-width="3.2"/>
<circle clip-path="url(#clip622)" cx="567.469" cy="1021.19" r="14.4" fill="#ff0000" fill-rule="evenodd" fill-opacity="1" stroke="#000000" stroke-opacity="1" stroke-width="3.2"/>
<circle clip-path="url(#clip622)" cx="599.976" cy="1333.41" r="14.4" fill="#ff0000" fill-rule="evenodd" fill-opacity="1" stroke="#000000" stroke-opacity="1" stroke-width="3.2"/>
<circle clip-path="url(#clip622)" cx="632.483" cy="963.698" r="14.4" fill="#ff0000" fill-rule="evenodd" fill-opacity="1" stroke="#000000" stroke-opacity="1" stroke-width="3.2"/>
<circle clip-path="url(#clip622)" cx="664.99" cy="1055.53" r="14.4" fill="#ff0000" fill-rule="evenodd" fill-opacity="1" stroke="#000000" stroke-opacity="1" stroke-width="3.2"/>
<circle clip-path="url(#clip622)" cx="697.497" cy="1049.42" r="14.4" fill="#ff0000" fill-rule="evenodd" fill-opacity="1" stroke="#000000" stroke-opacity="1" stroke-width="3.2"/>
<circle clip-path="url(#clip622)" cx="730.004" cy="950.159" r="14.4" fill="#ff0000" fill-rule="evenodd" fill-opacity="1" stroke="#000000" stroke-opacity="1" stroke-width="3.2"/>
<circle clip-path="url(#clip622)" cx="762.511" cy="717.399" r="14.4" fill="#ff0000" fill-rule="evenodd" fill-opacity="1" stroke="#000000" stroke-opacity="1" stroke-width="3.2"/>
<circle clip-path="url(#clip622)" cx="795.018" cy="1026.51" r="14.4" fill="#ff0000" fill-rule="evenodd" fill-opacity="1" stroke="#000000" stroke-opacity="1" stroke-width="3.2"/>
<circle clip-path="url(#clip622)" cx="827.525" cy="838.865" r="14.4" fill="#ff0000" fill-rule="evenodd" fill-opacity="1" stroke="#000000" stroke-opacity="1" stroke-width="3.2"/>
<circle clip-path="url(#clip622)" cx="860.032" cy="1124.32" r="14.4" fill="#ff0000" fill-rule="evenodd" fill-opacity="1" stroke="#000000" stroke-opacity="1" stroke-width="3.2"/>
<circle clip-path="url(#clip622)" cx="892.539" cy="1097.05" r="14.4" fill="#ff0000" fill-rule="evenodd" fill-opacity="1" stroke="#000000" stroke-opacity="1" stroke-width="3.2"/>
<circle clip-path="url(#clip622)" cx="925.046" cy="1179.8" r="14.4" fill="#ff0000" fill-rule="evenodd" fill-opacity="1" stroke="#000000" stroke-opacity="1" stroke-width="3.2"/>
<circle clip-path="url(#clip622)" cx="957.553" cy="1223.61" r="14.4" fill="#ff0000" fill-rule="evenodd" fill-opacity="1" stroke="#000000" stroke-opacity="1" stroke-width="3.2"/>
<circle clip-path="url(#clip622)" cx="990.061" cy="1273.09" r="14.4" fill="#ff0000" fill-rule="evenodd" fill-opacity="1" stroke="#000000" stroke-opacity="1" stroke-width="3.2"/>
<circle clip-path="url(#clip622)" cx="1022.57" cy="1277.83" r="14.4" fill="#ff0000" fill-rule="evenodd" fill-opacity="1" stroke="#000000" stroke-opacity="1" stroke-width="3.2"/>
<circle clip-path="url(#clip622)" cx="1055.07" cy="1253.28" r="14.4" fill="#ff0000" fill-rule="evenodd" fill-opacity="1" stroke="#000000" stroke-opacity="1" stroke-width="3.2"/>
<circle clip-path="url(#clip622)" cx="1087.58" cy="1264.19" r="14.4" fill="#ff0000" fill-rule="evenodd" fill-opacity="1" stroke="#000000" stroke-opacity="1" stroke-width="3.2"/>
<circle clip-path="url(#clip622)" cx="1120.09" cy="951.343" r="14.4" fill="#ff0000" fill-rule="evenodd" fill-opacity="1" stroke="#000000" stroke-opacity="1" stroke-width="3.2"/>
<circle clip-path="url(#clip622)" cx="1152.6" cy="903.2" r="14.4" fill="#ff0000" fill-rule="evenodd" fill-opacity="1" stroke="#000000" stroke-opacity="1" stroke-width="3.2"/>
<circle clip-path="url(#clip622)" cx="1185.1" cy="597.087" r="14.4" fill="#ff0000" fill-rule="evenodd" fill-opacity="1" stroke="#000000" stroke-opacity="1" stroke-width="3.2"/>
<circle clip-path="url(#clip622)" cx="1217.61" cy="373.298" r="14.4" fill="#ff0000" fill-rule="evenodd" fill-opacity="1" stroke="#000000" stroke-opacity="1" stroke-width="3.2"/>
<circle clip-path="url(#clip622)" cx="1250.12" cy="503.473" r="14.4" fill="#ff0000" fill-rule="evenodd" fill-opacity="1" stroke="#000000" stroke-opacity="1" stroke-width="3.2"/>
<circle clip-path="url(#clip622)" cx="1282.62" cy="260.454" r="14.4" fill="#ff0000" fill-rule="evenodd" fill-opacity="1" stroke="#000000" stroke-opacity="1" stroke-width="3.2"/>
<circle clip-path="url(#clip622)" cx="1315.13" cy="765.747" r="14.4" fill="#ff0000" fill-rule="evenodd" fill-opacity="1" stroke="#000000" stroke-opacity="1" stroke-width="3.2"/>
<circle clip-path="url(#clip622)" cx="1347.64" cy="803.294" r="14.4" fill="#ff0000" fill-rule="evenodd" fill-opacity="1" stroke="#000000" stroke-opacity="1" stroke-width="3.2"/>
<circle clip-path="url(#clip622)" cx="1380.15" cy="1042.54" r="14.4" fill="#ff0000" fill-rule="evenodd" fill-opacity="1" stroke="#000000" stroke-opacity="1" stroke-width="3.2"/>
<circle clip-path="url(#clip622)" cx="1412.65" cy="973.967" r="14.4" fill="#ff0000" fill-rule="evenodd" fill-opacity="1" stroke="#000000" stroke-opacity="1" stroke-width="3.2"/>
<circle clip-path="url(#clip622)" cx="1445.16" cy="959.764" r="14.4" fill="#ff0000" fill-rule="evenodd" fill-opacity="1" stroke="#000000" stroke-opacity="1" stroke-width="3.2"/>
<circle clip-path="url(#clip622)" cx="1477.67" cy="1202.44" r="14.4" fill="#ff0000" fill-rule="evenodd" fill-opacity="1" stroke="#000000" stroke-opacity="1" stroke-width="3.2"/>
<circle clip-path="url(#clip622)" cx="1510.17" cy="1123.78" r="14.4" fill="#ff0000" fill-rule="evenodd" fill-opacity="1" stroke="#000000" stroke-opacity="1" stroke-width="3.2"/>
<circle clip-path="url(#clip622)" cx="1542.68" cy="1019.17" r="14.4" fill="#ff0000" fill-rule="evenodd" fill-opacity="1" stroke="#000000" stroke-opacity="1" stroke-width="3.2"/>
<circle clip-path="url(#clip622)" cx="1575.19" cy="1097.89" r="14.4" fill="#ff0000" fill-rule="evenodd" fill-opacity="1" stroke="#000000" stroke-opacity="1" stroke-width="3.2"/>
<circle clip-path="url(#clip622)" cx="1607.69" cy="1096.45" r="14.4" fill="#ff0000" fill-rule="evenodd" fill-opacity="1" stroke="#000000" stroke-opacity="1" stroke-width="3.2"/>
<circle clip-path="url(#clip622)" cx="1640.2" cy="884.747" r="14.4" fill="#ff0000" fill-rule="evenodd" fill-opacity="1" stroke="#000000" stroke-opacity="1" stroke-width="3.2"/>
<circle clip-path="url(#clip622)" cx="1672.71" cy="903.285" r="14.4" fill="#ff0000" fill-rule="evenodd" fill-opacity="1" stroke="#000000" stroke-opacity="1" stroke-width="3.2"/>
<circle clip-path="url(#clip622)" cx="1705.22" cy="1048.84" r="14.4" fill="#ff0000" fill-rule="evenodd" fill-opacity="1" stroke="#000000" stroke-opacity="1" stroke-width="3.2"/>
<circle clip-path="url(#clip622)" cx="1737.72" cy="893.32" r="14.4" fill="#ff0000" fill-rule="evenodd" fill-opacity="1" stroke="#000000" stroke-opacity="1" stroke-width="3.2"/>
<circle clip-path="url(#clip622)" cx="1770.23" cy="878.737" r="14.4" fill="#ff0000" fill-rule="evenodd" fill-opacity="1" stroke="#000000" stroke-opacity="1" stroke-width="3.2"/>
<circle clip-path="url(#clip622)" cx="1802.74" cy="1078.99" r="14.4" fill="#ff0000" fill-rule="evenodd" fill-opacity="1" stroke="#000000" stroke-opacity="1" stroke-width="3.2"/>
<circle clip-path="url(#clip622)" cx="1835.24" cy="1045.1" r="14.4" fill="#ff0000" fill-rule="evenodd" fill-opacity="1" stroke="#000000" stroke-opacity="1" stroke-width="3.2"/>
<circle clip-path="url(#clip622)" cx="1867.75" cy="976.734" r="14.4" fill="#ff0000" fill-rule="evenodd" fill-opacity="1" stroke="#000000" stroke-opacity="1" stroke-width="3.2"/>
<circle clip-path="url(#clip622)" cx="1900.26" cy="840.105" r="14.4" fill="#ff0000" fill-rule="evenodd" fill-opacity="1" stroke="#000000" stroke-opacity="1" stroke-width="3.2"/>
<circle clip-path="url(#clip622)" cx="1932.76" cy="720.78" r="14.4" fill="#ff0000" fill-rule="evenodd" fill-opacity="1" stroke="#000000" stroke-opacity="1" stroke-width="3.2"/>
<circle clip-path="url(#clip622)" cx="1965.27" cy="721.337" r="14.4" fill="#ff0000" fill-rule="evenodd" fill-opacity="1" stroke="#000000" stroke-opacity="1" stroke-width="3.2"/>
<circle clip-path="url(#clip622)" cx="1997.78" cy="881.6" r="14.4" fill="#ff0000" fill-rule="evenodd" fill-opacity="1" stroke="#000000" stroke-opacity="1" stroke-width="3.2"/>
<circle clip-path="url(#clip622)" cx="2030.29" cy="1176.13" r="14.4" fill="#ff0000" fill-rule="evenodd" fill-opacity="1" stroke="#000000" stroke-opacity="1" stroke-width="3.2"/>
<circle clip-path="url(#clip622)" cx="2062.79" cy="908.283" r="14.4" fill="#ff0000" fill-rule="evenodd" fill-opacity="1" stroke="#000000" stroke-opacity="1" stroke-width="3.2"/>
<circle clip-path="url(#clip622)" cx="2095.3" cy="837.833" r="14.4" fill="#ff0000" fill-rule="evenodd" fill-opacity="1" stroke="#000000" stroke-opacity="1" stroke-width="3.2"/>
<circle clip-path="url(#clip622)" cx="2127.81" cy="1000.58" r="14.4" fill="#ff0000" fill-rule="evenodd" fill-opacity="1" stroke="#000000" stroke-opacity="1" stroke-width="3.2"/>
<circle clip-path="url(#clip622)" cx="2160.31" cy="985.027" r="14.4" fill="#ff0000" fill-rule="evenodd" fill-opacity="1" stroke="#000000" stroke-opacity="1" stroke-width="3.2"/>
<circle clip-path="url(#clip622)" cx="2192.82" cy="829.933" r="14.4" fill="#ff0000" fill-rule="evenodd" fill-opacity="1" stroke="#000000" stroke-opacity="1" stroke-width="3.2"/>
<circle clip-path="url(#clip622)" cx="2225.33" cy="799.268" r="14.4" fill="#ff0000" fill-rule="evenodd" fill-opacity="1" stroke="#000000" stroke-opacity="1" stroke-width="3.2"/>
<circle clip-path="url(#clip622)" cx="2257.84" cy="618.212" r="14.4" fill="#ff0000" fill-rule="evenodd" fill-opacity="1" stroke="#000000" stroke-opacity="1" stroke-width="3.2"/>
<circle clip-path="url(#clip622)" cx="2290.34" cy="449.065" r="14.4" fill="#ff0000" fill-rule="evenodd" fill-opacity="1" stroke="#000000" stroke-opacity="1" stroke-width="3.2"/>
</svg>
