<?xml version="1.0" encoding="utf-8"?>
<svg xmlns="http://www.w3.org/2000/svg" xmlns:xlink="http://www.w3.org/1999/xlink" width="600" height="400" viewBox="0 0 2400 1600">
<defs>
  <clipPath id="clip060">
    <rect x="0" y="0" width="2400" height="1600"/>
  </clipPath>
</defs>
<path clip-path="url(#clip060)" d="M0 1600 L2400 1600 L2400 0 L0 0  Z" fill="#ffffff" fill-rule="evenodd" fill-opacity="1"/>
<defs>
  <clipPath id="clip061">
    <rect x="480" y="0" width="1681" height="1600"/>
  </clipPath>
</defs>
<path clip-path="url(#clip060)" d="M147.478 1423.18 L2352.76 1423.18 L2352.76 47.2441 L147.478 47.2441  Z" fill="#ffffff" fill-rule="evenodd" fill-opacity="1"/>
<defs>
  <clipPath id="clip062">
    <rect x="147" y="47" width="2206" height="1377"/>
  </clipPath>
</defs>
<polyline clip-path="url(#clip062)" style="stroke:#000000; stroke-linecap:round; stroke-linejoin:round; stroke-width:2; stroke-opacity:0.1; fill:none" points="209.891,1423.18 209.891,47.2441 "/>
<polyline clip-path="url(#clip062)" style="stroke:#000000; stroke-linecap:round; stroke-linejoin:round; stroke-width:2; stroke-opacity:0.1; fill:none" points="730.004,1423.18 730.004,47.2441 "/>
<polyline clip-path="url(#clip062)" style="stroke:#000000; stroke-linecap:round; stroke-linejoin:round; stroke-width:2; stroke-opacity:0.1; fill:none" points="1250.12,1423.18 1250.12,47.2441 "/>
<polyline clip-path="url(#clip062)" style="stroke:#000000; stroke-linecap:round; stroke-linejoin:round; stroke-width:2; stroke-opacity:0.1; fill:none" points="1770.23,1423.18 1770.23,47.2441 "/>
<polyline clip-path="url(#clip062)" style="stroke:#000000; stroke-linecap:round; stroke-linejoin:round; stroke-width:2; stroke-opacity:0.1; fill:none" points="2290.34,1423.18 2290.34,47.2441 "/>
<polyline clip-path="url(#clip062)" style="stroke:#000000; stroke-linecap:round; stroke-linejoin:round; stroke-width:2; stroke-opacity:0.1; fill:none" points="147.478,1136.58 2352.76,1136.58 "/>
<polyline clip-path="url(#clip062)" style="stroke:#000000; stroke-linecap:round; stroke-linejoin:round; stroke-width:2; stroke-opacity:0.1; fill:none" points="147.478,829.614 2352.76,829.614 "/>
<polyline clip-path="url(#clip062)" style="stroke:#000000; stroke-linecap:round; stroke-linejoin:round; stroke-width:2; stroke-opacity:0.1; fill:none" points="147.478,522.65 2352.76,522.65 "/>
<polyline clip-path="url(#clip062)" style="stroke:#000000; stroke-linecap:round; stroke-linejoin:round; stroke-width:2; stroke-opacity:0.1; fill:none" points="147.478,215.686 2352.76,215.686 "/>
<polyline clip-path="url(#clip060)" style="stroke:#000000; stroke-linecap:round; stroke-linejoin:round; stroke-width:4; stroke-opacity:1; fill:none" points="147.478,1423.18 2352.76,1423.18 "/>
<polyline clip-path="url(#clip060)" style="stroke:#000000; stroke-linecap:round; stroke-linejoin:round; stroke-width:4; stroke-opacity:1; fill:none" points="209.891,1423.18 209.891,1404.28 "/>
<polyline clip-path="url(#clip060)" style="stroke:#000000; stroke-linecap:round; stroke-linejoin:round; stroke-width:4; stroke-opacity:1; fill:none" points="730.004,1423.18 730.004,1404.28 "/>
<polyline clip-path="url(#clip060)" style="stroke:#000000; stroke-linecap:round; stroke-linejoin:round; stroke-width:4; stroke-opacity:1; fill:none" points="1250.12,1423.18 1250.12,1404.28 "/>
<polyline clip-path="url(#clip060)" style="stroke:#000000; stroke-linecap:round; stroke-linejoin:round; stroke-width:4; stroke-opacity:1; fill:none" points="1770.23,1423.18 1770.23,1404.28 "/>
<polyline clip-path="url(#clip060)" style="stroke:#000000; stroke-linecap:round; stroke-linejoin:round; stroke-width:4; stroke-opacity:1; fill:none" points="2290.34,1423.18 2290.34,1404.28 "/>
<path clip-path="url(#clip060)" d="M209.891 1454.1 Q206.28 1454.1 204.452 1457.66 Q202.646 1461.2 202.646 1468.33 Q202.646 1475.44 204.452 1479.01 Q206.28 1482.55 209.891 1482.55 Q213.526 1482.55 215.331 1479.01 Q217.16 1475.44 217.16 1468.33 Q217.16 1461.2 215.331 1457.66 Q213.526 1454.1 209.891 1454.1 M209.891 1450.39 Q215.702 1450.39 218.757 1455 Q221.836 1459.58 221.836 1468.33 Q221.836 1477.06 218.757 1481.67 Q215.702 1486.25 209.891 1486.25 Q204.081 1486.25 201.003 1481.67 Q197.947 1477.06 197.947 1468.33 Q197.947 1459.58 201.003 1455 Q204.081 1450.39 209.891 1450.39 Z" fill="#000000" fill-rule="nonzero" fill-opacity="1" /><path clip-path="url(#clip060)" d="M720.282 1451.02 L738.638 1451.02 L738.638 1454.96 L724.564 1454.96 L724.564 1463.43 Q725.583 1463.08 726.601 1462.92 Q727.62 1462.73 728.638 1462.73 Q734.425 1462.73 737.805 1465.9 Q741.185 1469.08 741.185 1474.49 Q741.185 1480.07 737.712 1483.17 Q734.24 1486.25 727.921 1486.25 Q725.745 1486.25 723.476 1485.88 Q721.231 1485.51 718.824 1484.77 L718.824 1480.07 Q720.907 1481.2 723.129 1481.76 Q725.351 1482.32 727.828 1482.32 Q731.833 1482.32 734.171 1480.21 Q736.509 1478.1 736.509 1474.49 Q736.509 1470.88 734.171 1468.77 Q731.833 1466.67 727.828 1466.67 Q725.953 1466.67 724.078 1467.08 Q722.226 1467.5 720.282 1468.38 L720.282 1451.02 Z" fill="#000000" fill-rule="nonzero" fill-opacity="1" /><path clip-path="url(#clip060)" d="M1224.8 1481.64 L1232.44 1481.64 L1232.44 1455.28 L1224.13 1456.95 L1224.13 1452.69 L1232.4 1451.02 L1237.07 1451.02 L1237.07 1481.64 L1244.71 1481.64 L1244.71 1485.58 L1224.8 1485.58 L1224.8 1481.64 Z" fill="#000000" fill-rule="nonzero" fill-opacity="1" /><path clip-path="url(#clip060)" d="M1264.16 1454.1 Q1260.55 1454.1 1258.72 1457.66 Q1256.91 1461.2 1256.91 1468.33 Q1256.91 1475.44 1258.72 1479.01 Q1260.55 1482.55 1264.16 1482.55 Q1267.79 1482.55 1269.6 1479.01 Q1271.42 1475.44 1271.42 1468.33 Q1271.42 1461.2 1269.6 1457.66 Q1267.79 1454.1 1264.16 1454.1 M1264.16 1450.39 Q1269.97 1450.39 1273.02 1455 Q1276.1 1459.58 1276.1 1468.33 Q1276.1 1477.06 1273.02 1481.67 Q1269.97 1486.25 1264.16 1486.25 Q1258.35 1486.25 1255.27 1481.67 Q1252.21 1477.06 1252.21 1468.33 Q1252.21 1459.58 1255.27 1455 Q1258.35 1450.39 1264.16 1450.39 Z" fill="#000000" fill-rule="nonzero" fill-opacity="1" /><path clip-path="url(#clip060)" d="M1745.41 1481.64 L1753.05 1481.64 L1753.05 1455.28 L1744.74 1456.95 L1744.74 1452.69 L1753.01 1451.02 L1757.68 1451.02 L1757.68 1481.64 L1765.32 1481.64 L1765.32 1485.58 L1745.41 1485.58 L1745.41 1481.64 Z" fill="#000000" fill-rule="nonzero" fill-opacity="1" /><path clip-path="url(#clip060)" d="M1774.81 1451.02 L1793.17 1451.02 L1793.17 1454.96 L1779.1 1454.96 L1779.1 1463.43 Q1780.11 1463.08 1781.13 1462.92 Q1782.15 1462.73 1783.17 1462.73 Q1788.96 1462.73 1792.34 1465.9 Q1795.72 1469.08 1795.72 1474.49 Q1795.72 1480.07 1792.24 1483.17 Q1788.77 1486.25 1782.45 1486.25 Q1780.28 1486.25 1778.01 1485.88 Q1775.76 1485.51 1773.35 1484.77 L1773.35 1480.07 Q1775.44 1481.2 1777.66 1481.76 Q1779.88 1482.32 1782.36 1482.32 Q1786.36 1482.32 1788.7 1480.21 Q1791.04 1478.1 1791.04 1474.49 Q1791.04 1470.88 1788.7 1468.77 Q1786.36 1466.67 1782.36 1466.67 Q1780.48 1466.67 1778.61 1467.08 Q1776.76 1467.5 1774.81 1468.38 L1774.81 1451.02 Z" fill="#000000" fill-rule="nonzero" fill-opacity="1" /><path clip-path="url(#clip060)" d="M2269.12 1481.64 L2285.43 1481.64 L2285.43 1485.58 L2263.49 1485.58 L2263.49 1481.64 Q2266.15 1478.89 2270.74 1474.26 Q2275.34 1469.61 2276.52 1468.27 Q2278.77 1465.74 2279.65 1464.01 Q2280.55 1462.25 2280.55 1460.56 Q2280.55 1457.8 2278.61 1456.07 Q2276.69 1454.33 2273.58 1454.33 Q2271.38 1454.33 2268.93 1455.09 Q2266.5 1455.86 2263.72 1457.41 L2263.72 1452.69 Q2266.55 1451.55 2269 1450.97 Q2271.45 1450.39 2273.49 1450.39 Q2278.86 1450.39 2282.06 1453.08 Q2285.25 1455.77 2285.25 1460.26 Q2285.25 1462.39 2284.44 1464.31 Q2283.65 1466.2 2281.55 1468.8 Q2280.97 1469.47 2277.87 1472.69 Q2274.76 1475.88 2269.12 1481.64 Z" fill="#000000" fill-rule="nonzero" fill-opacity="1" /><path clip-path="url(#clip060)" d="M2305.25 1454.1 Q2301.64 1454.1 2299.81 1457.66 Q2298 1461.2 2298 1468.33 Q2298 1475.44 2299.81 1479.01 Q2301.64 1482.55 2305.25 1482.55 Q2308.88 1482.55 2310.69 1479.01 Q2312.52 1475.44 2312.52 1468.33 Q2312.52 1461.2 2310.69 1457.66 Q2308.88 1454.1 2305.25 1454.1 M2305.25 1450.39 Q2311.06 1450.39 2314.12 1455 Q2317.19 1459.58 2317.19 1468.33 Q2317.19 1477.06 2314.12 1481.67 Q2311.06 1486.25 2305.25 1486.25 Q2299.44 1486.25 2296.36 1481.67 Q2293.31 1477.06 2293.31 1468.33 Q2293.31 1459.58 2296.36 1455 Q2299.44 1450.39 2305.25 1450.39 Z" fill="#000000" fill-rule="nonzero" fill-opacity="1" /><path clip-path="url(#clip060)" d="M1249.18 1522.27 L1249.18 1532.4 L1261.24 1532.4 L1261.24 1536.95 L1249.18 1536.95 L1249.18 1556.3 Q1249.18 1560.66 1250.36 1561.9 Q1251.57 1563.14 1255.23 1563.14 L1261.24 1563.14 L1261.24 1568.04 L1255.23 1568.04 Q1248.45 1568.04 1245.87 1565.53 Q1243.29 1562.98 1243.29 1556.3 L1243.29 1536.95 L1238.99 1536.95 L1238.99 1532.4 L1243.29 1532.4 L1243.29 1522.27 L1249.18 1522.27 Z" fill="#000000" fill-rule="nonzero" fill-opacity="1" /><polyline clip-path="url(#clip060)" style="stroke:#000000; stroke-linecap:round; stroke-linejoin:round; stroke-width:4; stroke-opacity:1; fill:none" points="147.478,1423.18 147.478,47.2441 "/>
<polyline clip-path="url(#clip060)" style="stroke:#000000; stroke-linecap:round; stroke-linejoin:round; stroke-width:4; stroke-opacity:1; fill:none" points="147.478,1136.58 166.376,1136.58 "/>
<polyline clip-path="url(#clip060)" style="stroke:#000000; stroke-linecap:round; stroke-linejoin:round; stroke-width:4; stroke-opacity:1; fill:none" points="147.478,829.614 166.376,829.614 "/>
<polyline clip-path="url(#clip060)" style="stroke:#000000; stroke-linecap:round; stroke-linejoin:round; stroke-width:4; stroke-opacity:1; fill:none" points="147.478,522.65 166.376,522.65 "/>
<polyline clip-path="url(#clip060)" style="stroke:#000000; stroke-linecap:round; stroke-linejoin:round; stroke-width:4; stroke-opacity:1; fill:none" points="147.478,215.686 166.376,215.686 "/>
<path clip-path="url(#clip060)" d="M51.3625 1137.03 L81.0383 1137.03 L81.0383 1140.96 L51.3625 1140.96 L51.3625 1137.03 Z" fill="#000000" fill-rule="nonzero" fill-opacity="1" /><path clip-path="url(#clip060)" d="M95.1586 1149.92 L111.478 1149.92 L111.478 1153.86 L89.5336 1153.86 L89.5336 1149.92 Q92.1956 1147.17 96.7789 1142.54 Q101.385 1137.89 102.566 1136.54 Q104.811 1134.02 105.691 1132.28 Q106.594 1130.52 106.594 1128.84 Q106.594 1126.08 104.649 1124.34 Q102.728 1122.61 99.6261 1122.61 Q97.4271 1122.61 94.9734 1123.37 Q92.5428 1124.14 89.7651 1125.69 L89.7651 1120.96 Q92.5891 1119.83 95.0428 1119.25 Q97.4965 1118.67 99.5335 1118.67 Q104.904 1118.67 108.098 1121.36 Q111.293 1124.04 111.293 1128.53 Q111.293 1130.66 110.483 1132.59 Q109.696 1134.48 107.589 1137.08 Q107.01 1137.75 103.909 1140.96 Q100.807 1144.16 95.1586 1149.92 Z" fill="#000000" fill-rule="nonzero" fill-opacity="1" /><path clip-path="url(#clip060)" d="M50.9921 830.066 L80.6679 830.066 L80.6679 834.001 L50.9921 834.001 L50.9921 830.066 Z" fill="#000000" fill-rule="nonzero" fill-opacity="1" /><path clip-path="url(#clip060)" d="M91.5706 842.959 L99.2095 842.959 L99.2095 816.593 L90.8993 818.26 L90.8993 814.001 L99.1632 812.334 L103.839 812.334 L103.839 842.959 L111.478 842.959 L111.478 846.894 L91.5706 846.894 L91.5706 842.959 Z" fill="#000000" fill-rule="nonzero" fill-opacity="1" /><path clip-path="url(#clip060)" d="M99.5335 508.449 Q95.9224 508.449 94.0937 512.014 Q92.2882 515.555 92.2882 522.685 Q92.2882 529.791 94.0937 533.356 Q95.9224 536.898 99.5335 536.898 Q103.168 536.898 104.973 533.356 Q106.802 529.791 106.802 522.685 Q106.802 515.555 104.973 512.014 Q103.168 508.449 99.5335 508.449 M99.5335 504.745 Q105.344 504.745 108.399 509.352 Q111.478 513.935 111.478 522.685 Q111.478 531.412 108.399 536.018 Q105.344 540.602 99.5335 540.602 Q93.7234 540.602 90.6447 536.018 Q87.5892 531.412 87.5892 522.685 Q87.5892 513.935 90.6447 509.352 Q93.7234 504.745 99.5335 504.745 Z" fill="#000000" fill-rule="nonzero" fill-opacity="1" /><path clip-path="url(#clip060)" d="M91.5706 229.031 L99.2095 229.031 L99.2095 202.666 L90.8993 204.332 L90.8993 200.073 L99.1632 198.406 L103.839 198.406 L103.839 229.031 L111.478 229.031 L111.478 232.966 L91.5706 232.966 L91.5706 229.031 Z" fill="#000000" fill-rule="nonzero" fill-opacity="1" /><polyline clip-path="url(#clip062)" style="stroke:#000000; stroke-linecap:round; stroke-linejoin:round; stroke-width:4; stroke-opacity:1; fill:none" points="209.891,108.485 213.955,115.89 218.018,123.404 222.082,130.884 226.145,138.183 230.208,145.188 234.272,151.797 238.335,158.015 242.398,163.885 246.462,169.436 250.525,174.746 254.589,179.93 258.652,184.977 262.715,189.829 266.779,194.424 270.842,198.706 274.906,202.575 278.969,205.857 283.032,208.369 287.096,210.057 291.159,210.969 295.222,211.181 299.286,210.778 303.349,209.857 307.413,208.516 311.476,206.829 315.539,204.878 319.603,202.742 323.666,200.579 327.729,198.592 331.793,196.944 335.856,195.742 339.92,195.045 343.983,194.861 348.046,195.172 352.11,196.072 356.173,197.702 360.237,200.1 364.3,203.26 368.363,207.141 372.427,211.712 376.49,217.049 380.553,223.212 384.617,230.227 388.68,238.176 392.744,247.172 396.807,257.429 400.87,269.179 404.934,282.488 408.997,297.267 413.06,313.447 417.124,330.992 421.187,349.856 425.251,369.906 429.314,391.087 433.377,413.349 437.441,436.487 441.504,460.072 445.568,483.623 449.631,506.728 453.694,529.052 457.758,550.322 461.821,570.379 465.884,589.187 469.948,606.719 474.011,622.937 478.075,637.83 482.138,651.421 486.201,663.735 490.265,674.831 494.328,684.812 498.391,693.744 502.455,701.645 506.518,708.625 510.582,714.87 514.645,720.584 518.708,726.064 522.772,731.657 526.835,737.638 530.899,744.139 534.962,751.146 539.025,758.611 543.089,766.55 547.152,774.997 551.215,783.947 555.279,793.32 559.342,803.074 563.406,813.183 567.469,823.663 571.532,834.555 575.596,845.912 579.659,857.83 583.722,870.358 587.786,883.443 591.849,896.963 595.913,910.694 599.976,924.233 604.039,937.204 608.103,949.294 612.166,960.301 616.23,970.15 620.293,978.772 624.356,986.125 628.42,992.208 632.483,997.066 636.546,1000.82 640.61,1003.55 644.673,1005.24 648.737,1005.76 652.8,1005.01 656.863,1002.91 660.927,999.361 664.99,994.273 669.053,987.535 673.117,979.041 677.18,968.733 681.244,956.625 685.307,942.781 689.37,927.376 693.434,910.563 697.497,892.422 701.561,873.003 705.624,852.358 709.687,830.537 713.751,807.617 717.814,783.654 721.877,758.646 725.941,732.525 730.004,705.261 734.068,676.976 738.131,647.866 742.194,618.218 746.258,588.442 750.321,559.046 754.384,530.447 758.448,502.875 762.511,476.455 766.575,451.331 770.638,427.552 774.701,405.087 778.765,383.92 782.828,364.062 786.892,345.596 790.955,328.598 795.018,313.145 799.082,299.261 803.145,286.934 807.208,276.031 811.272,266.373 815.335,257.822 819.399,250.269 823.462,243.643 827.525,237.896 831.589,232.889 835.652,228.492 839.715,224.676 843.779,221.507 847.842,219.041 851.906,217.376 855.969,216.652 860.032,216.949 864.096,218.362 868.159,221.051 872.223,225.133 876.286,230.631 880.349,237.499 884.413,245.69 888.476,255.195 892.539,265.997 896.603,278.063 900.666,291.365 904.73,305.821 908.793,321.217 912.856,337.367 916.92,354.112 920.983,371.276 925.046,388.667 929.11,406.134 933.173,423.508 937.237,440.65 941.3,457.455 945.363,473.851 949.427,489.75 953.49,505.008 957.553,519.444 961.617,532.956 965.68,545.495 969.744,557.066 973.807,567.728 977.87,577.559 981.934,586.658 985.997,595.105 990.061,602.914 994.124,610.135 998.187,616.866 1002.25,623.215 1006.31,629.345 1010.38,635.444 1014.44,641.564 1018.5,647.737 1022.57,653.944 1026.63,660.192 1030.69,666.422 1034.76,672.473 1038.82,678.18 1042.88,683.386 1046.95,687.908 1051.01,691.544 1055.07,694.139 1059.14,695.618 1063.2,695.884 1067.26,694.928 1071.33,692.836 1075.39,689.77 1079.45,685.889 1083.52,681.294 1087.58,676.02 1091.65,670.118 1095.71,663.588 1099.77,656.399 1103.84,648.515 1107.9,639.984 1111.96,630.918 1116.03,621.45 1120.09,611.783 1124.15,602.062 1128.22,592.339 1132.28,582.658 1136.34,573.115 1140.41,563.786 1144.47,554.677 1148.53,545.751 1152.6,536.996 1156.66,528.469 1160.72,520.238 1164.79,512.365 1168.85,504.879 1172.91,497.82 1176.98,491.265 1181.04,485.284 1185.1,479.968 1189.17,475.388 1193.23,471.579 1197.29,468.598 1201.36,466.487 1205.42,465.246 1209.48,464.807 1213.55,465.082 1217.61,466.03 1221.67,467.654 1225.74,469.955 1229.8,472.874 1233.86,476.25 1237.93,479.923 1241.99,483.793 1246.05,487.783 1250.12,491.788 1254.18,495.705 1258.24,499.429 1262.31,502.889 1266.37,506.104 1270.43,509.09 1274.5,511.814 1278.56,514.273 1282.62,516.467 1286.69,518.426 1290.75,520.223 1294.81,521.996 1298.88,523.945 1302.94,526.279 1307,529.126 1311.07,532.479 1315.13,536.171 1319.19,539.993 1323.26,543.787 1327.32,547.35 1331.38,550.455 1335.45,552.938 1339.51,554.621 1343.57,555.397 1347.64,555.225 1351.7,554.175 1355.76,552.363 1359.83,549.921 1363.89,546.996 1367.95,543.782 1372.02,540.524 1376.08,537.475 1380.15,534.812 1384.21,532.626 1388.27,530.922 1392.34,529.7 1396.4,528.981 1400.46,528.804 1404.53,529.221 1408.59,530.259 1412.65,531.895 1416.72,534.049 1420.78,536.702 1424.84,539.914 1428.91,543.716 1432.97,548.149 1437.03,553.267 1441.1,559.021 1445.16,565.259 1449.22,571.777 1453.29,578.462 1457.35,585.18 1461.41,591.715 1465.48,597.827 1469.54,603.411 1473.6,608.478 1477.67,613 1481.73,616.907 1485.79,620.152 1489.86,622.799 1493.92,624.942 1497.98,626.75 1502.05,628.468 1506.11,630.417 1510.17,632.874 1514.24,636.001 1518.3,639.944 1522.36,644.919 1526.43,651.124 1530.49,658.682 1534.55,667.657 1538.62,678.128 1542.68,690.109 1546.74,703.491 1550.81,718.146 1554.87,733.913 1558.93,750.547 1563,767.717 1567.06,785.063 1571.12,802.29 1575.19,819.167 1579.25,835.502 1583.31,851.067 1587.38,865.694 1591.44,879.388 1595.5,892.268 1599.57,904.475 1603.63,916.065 1607.69,927.127 1611.76,937.755 1615.82,948.099 1619.88,958.321 1623.95,968.551 1628.01,978.878 1632.07,989.384 1636.14,1000.16 1640.2,1011.26 1644.26,1022.67 1648.33,1034.26 1652.39,1045.88 1656.45,1057.42 1660.52,1068.74 1664.58,1079.75 1668.65,1090.38 1672.71,1100.63 1676.77,1110.52 1680.84,1120.03 1684.9,1129.15 1688.96,1137.91 1693.03,1146.28 1697.09,1154.18 1701.15,1161.52 1705.22,1168.13 1709.28,1173.79 1713.34,1178.3 1717.41,1181.52 1721.47,1183.39 1725.53,1183.85 1729.6,1182.79 1733.66,1180.08 1737.72,1175.72 1741.79,1169.82 1745.85,1162.45 1749.91,1153.7 1753.98,1143.71 1758.04,1132.64 1762.1,1120.63 1766.17,1107.79 1770.23,1094.12 1774.29,1079.57 1778.36,1064.08 1782.42,1047.7 1786.48,1030.44 1790.55,1012.41 1794.61,993.775 1798.67,974.621 1802.74,955.069 1806.8,935.311 1810.86,915.586 1814.93,896.16 1818.99,877.247 1823.05,859.014 1827.12,841.644 1831.18,825.348 1835.24,810.271 1839.31,796.418 1843.37,783.744 1847.43,772.188 1851.5,761.657 1855.56,752.041 1859.62,743.254 1863.69,735.166 1867.75,727.606 1871.81,720.47 1875.88,713.677 1879.94,707.198 1884,701.1 1888.07,695.483 1892.13,690.38 1896.19,685.779 1900.26,681.553 1904.32,677.542 1908.38,673.628 1912.45,669.761 1916.51,665.855 1920.57,661.81 1924.64,657.512 1928.7,652.748 1932.76,647.311 1936.83,641.05 1940.89,633.866 1944.96,625.746 1949.02,616.744 1953.08,606.999 1957.15,596.601 1961.21,585.512 1965.27,573.639 1969.34,560.949 1973.4,547.481 1977.46,533.359 1981.53,518.677 1985.59,503.428 1989.65,487.548 1993.72,470.979 1997.78,453.759 2001.84,435.983 2005.91,417.82 2009.97,399.461 2014.03,381.059 2018.1,362.795 2022.16,344.832 2026.22,327.376 2030.29,310.571 2034.35,294.602 2038.41,279.626 2042.48,265.689 2046.54,252.87 2050.6,241.231 2054.67,230.639 2058.73,220.924 2062.79,211.941 2066.86,203.591 2070.92,195.783 2074.98,188.452 2079.05,181.543 2083.11,174.985 2087.17,168.694 2091.24,162.6 2095.3,156.723 2099.36,151.154 2103.43,146.077 2107.49,141.69 2111.55,138.207 2115.62,135.778 2119.68,134.484 2123.74,134.369 2127.81,135.495 2131.87,137.915 2135.93,141.659 2140,146.712 2144.06,153.066 2148.12,160.732 2152.19,169.666 2156.25,179.842 2160.31,191.172 2164.38,203.476 2168.44,216.517 2172.5,230.103 2176.57,244.052 2180.63,258.229 2184.69,272.45 2188.76,286.477 2192.82,300.036 2196.88,312.891 2200.95,324.939 2205.01,336.262 2209.07,346.994 2213.14,357.21 2217.2,366.92 2221.26,376.157 2225.33,384.927 2229.39,393.332 2233.46,401.533 2237.52,409.692 2241.58,417.924 2245.65,426.292 2249.71,434.81 2253.77,443.42 2257.84,452.082 2261.9,460.779 2265.96,469.527 2270.03,478.334 2274.09,487.169 2278.15,496.045 2282.22,505.104 2286.28,514.522 2290.34,524.35 "/>
<circle clip-path="url(#clip062)" cx="209.891" cy="86.1857" r="14.4" fill="#ff0000" fill-rule="evenodd" fill-opacity="1" stroke="#000000" stroke-opacity="1" stroke-width="3.2"/>
<circle clip-path="url(#clip062)" cx="242.398" cy="306.714" r="14.4" fill="#ff0000" fill-rule="evenodd" fill-opacity="1" stroke="#000000" stroke-opacity="1" stroke-width="3.2"/>
<circle clip-path="url(#clip062)" cx="274.906" cy="250.5" r="14.4" fill="#ff0000" fill-rule="evenodd" fill-opacity="1" stroke="#000000" stroke-opacity="1" stroke-width="3.2"/>
<circle clip-path="url(#clip062)" cx="307.413" cy="173.956" r="14.4" fill="#ff0000" fill-rule="evenodd" fill-opacity="1" stroke="#000000" stroke-opacity="1" stroke-width="3.2"/>
<circle clip-path="url(#clip062)" cx="339.92" cy="98.8869" r="14.4" fill="#ff0000" fill-rule="evenodd" fill-opacity="1" stroke="#000000" stroke-opacity="1" stroke-width="3.2"/>
<circle clip-path="url(#clip062)" cx="372.427" cy="131.281" r="14.4" fill="#ff0000" fill-rule="evenodd" fill-opacity="1" stroke="#000000" stroke-opacity="1" stroke-width="3.2"/>
<circle clip-path="url(#clip062)" cx="404.934" cy="251.111" r="14.4" fill="#ff0000" fill-rule="evenodd" fill-opacity="1" stroke="#000000" stroke-opacity="1" stroke-width="3.2"/>
<circle clip-path="url(#clip062)" cx="437.441" cy="491.766" r="14.4" fill="#ff0000" fill-rule="evenodd" fill-opacity="1" stroke="#000000" stroke-opacity="1" stroke-width="3.2"/>
<circle clip-path="url(#clip062)" cx="469.948" cy="634.513" r="14.4" fill="#ff0000" fill-rule="evenodd" fill-opacity="1" stroke="#000000" stroke-opacity="1" stroke-width="3.2"/>
<circle clip-path="url(#clip062)" cx="502.455" cy="462.621" r="14.4" fill="#ff0000" fill-rule="evenodd" fill-opacity="1" stroke="#000000" stroke-opacity="1" stroke-width="3.2"/>
<circle clip-path="url(#clip062)" cx="534.962" cy="652.007" r="14.4" fill="#ff0000" fill-rule="evenodd" fill-opacity="1" stroke="#000000" stroke-opacity="1" stroke-width="3.2"/>
<circle clip-path="url(#clip062)" cx="567.469" cy="756.49" r="14.4" fill="#ff0000" fill-rule="evenodd" fill-opacity="1" stroke="#000000" stroke-opacity="1" stroke-width="3.2"/>
<circle clip-path="url(#clip062)" cx="599.976" cy="800.558" r="14.4" fill="#ff0000" fill-rule="evenodd" fill-opacity="1" stroke="#000000" stroke-opacity="1" stroke-width="3.2"/>
<circle clip-path="url(#clip062)" cx="632.483" cy="882.885" r="14.4" fill="#ff0000" fill-rule="evenodd" fill-opacity="1" stroke="#000000" stroke-opacity="1" stroke-width="3.2"/>
<circle clip-path="url(#clip062)" cx="664.99" cy="974.13" r="14.4" fill="#ff0000" fill-rule="evenodd" fill-opacity="1" stroke="#000000" stroke-opacity="1" stroke-width="3.2"/>
<circle clip-path="url(#clip062)" cx="697.497" cy="967.965" r="14.4" fill="#ff0000" fill-rule="evenodd" fill-opacity="1" stroke="#000000" stroke-opacity="1" stroke-width="3.2"/>
<circle clip-path="url(#clip062)" cx="730.004" cy="655.709" r="14.4" fill="#ff0000" fill-rule="evenodd" fill-opacity="1" stroke="#000000" stroke-opacity="1" stroke-width="3.2"/>
<circle clip-path="url(#clip062)" cx="762.511" cy="561.736" r="14.4" fill="#ff0000" fill-rule="evenodd" fill-opacity="1" stroke="#000000" stroke-opacity="1" stroke-width="3.2"/>
<circle clip-path="url(#clip062)" cx="795.018" cy="231.437" r="14.4" fill="#ff0000" fill-rule="evenodd" fill-opacity="1" stroke="#000000" stroke-opacity="1" stroke-width="3.2"/>
<circle clip-path="url(#clip062)" cx="827.525" cy="270.992" r="14.4" fill="#ff0000" fill-rule="evenodd" fill-opacity="1" stroke="#000000" stroke-opacity="1" stroke-width="3.2"/>
<circle clip-path="url(#clip062)" cx="860.032" cy="224.328" r="14.4" fill="#ff0000" fill-rule="evenodd" fill-opacity="1" stroke="#000000" stroke-opacity="1" stroke-width="3.2"/>
<circle clip-path="url(#clip062)" cx="892.539" cy="210.04" r="14.4" fill="#ff0000" fill-rule="evenodd" fill-opacity="1" stroke="#000000" stroke-opacity="1" stroke-width="3.2"/>
<circle clip-path="url(#clip062)" cx="925.046" cy="381.148" r="14.4" fill="#ff0000" fill-rule="evenodd" fill-opacity="1" stroke="#000000" stroke-opacity="1" stroke-width="3.2"/>
<circle clip-path="url(#clip062)" cx="957.553" cy="522.195" r="14.4" fill="#ff0000" fill-rule="evenodd" fill-opacity="1" stroke="#000000" stroke-opacity="1" stroke-width="3.2"/>
<circle clip-path="url(#clip062)" cx="990.061" cy="620.245" r="14.4" fill="#ff0000" fill-rule="evenodd" fill-opacity="1" stroke="#000000" stroke-opacity="1" stroke-width="3.2"/>
<circle clip-path="url(#clip062)" cx="1022.57" cy="668.377" r="14.4" fill="#ff0000" fill-rule="evenodd" fill-opacity="1" stroke="#000000" stroke-opacity="1" stroke-width="3.2"/>
<circle clip-path="url(#clip062)" cx="1055.07" cy="577.078" r="14.4" fill="#ff0000" fill-rule="evenodd" fill-opacity="1" stroke="#000000" stroke-opacity="1" stroke-width="3.2"/>
<circle clip-path="url(#clip062)" cx="1087.58" cy="784.585" r="14.4" fill="#ff0000" fill-rule="evenodd" fill-opacity="1" stroke="#000000" stroke-opacity="1" stroke-width="3.2"/>
<circle clip-path="url(#clip062)" cx="1120.09" cy="700.387" r="14.4" fill="#ff0000" fill-rule="evenodd" fill-opacity="1" stroke="#000000" stroke-opacity="1" stroke-width="3.2"/>
<circle clip-path="url(#clip062)" cx="1152.6" cy="510.369" r="14.4" fill="#ff0000" fill-rule="evenodd" fill-opacity="1" stroke="#000000" stroke-opacity="1" stroke-width="3.2"/>
<circle clip-path="url(#clip062)" cx="1185.1" cy="531.883" r="14.4" fill="#ff0000" fill-rule="evenodd" fill-opacity="1" stroke="#000000" stroke-opacity="1" stroke-width="3.2"/>
<circle clip-path="url(#clip062)" cx="1217.61" cy="320.918" r="14.4" fill="#ff0000" fill-rule="evenodd" fill-opacity="1" stroke="#000000" stroke-opacity="1" stroke-width="3.2"/>
<circle clip-path="url(#clip062)" cx="1250.12" cy="530.54" r="14.4" fill="#ff0000" fill-rule="evenodd" fill-opacity="1" stroke="#000000" stroke-opacity="1" stroke-width="3.2"/>
<circle clip-path="url(#clip062)" cx="1282.62" cy="589.149" r="14.4" fill="#ff0000" fill-rule="evenodd" fill-opacity="1" stroke="#000000" stroke-opacity="1" stroke-width="3.2"/>
<circle clip-path="url(#clip062)" cx="1315.13" cy="605.597" r="14.4" fill="#ff0000" fill-rule="evenodd" fill-opacity="1" stroke="#000000" stroke-opacity="1" stroke-width="3.2"/>
<circle clip-path="url(#clip062)" cx="1347.64" cy="425.397" r="14.4" fill="#ff0000" fill-rule="evenodd" fill-opacity="1" stroke="#000000" stroke-opacity="1" stroke-width="3.2"/>
<circle clip-path="url(#clip062)" cx="1380.15" cy="595.263" r="14.4" fill="#ff0000" fill-rule="evenodd" fill-opacity="1" stroke="#000000" stroke-opacity="1" stroke-width="3.2"/>
<circle clip-path="url(#clip062)" cx="1412.65" cy="557.04" r="14.4" fill="#ff0000" fill-rule="evenodd" fill-opacity="1" stroke="#000000" stroke-opacity="1" stroke-width="3.2"/>
<circle clip-path="url(#clip062)" cx="1445.16" cy="449.76" r="14.4" fill="#ff0000" fill-rule="evenodd" fill-opacity="1" stroke="#000000" stroke-opacity="1" stroke-width="3.2"/>
<circle clip-path="url(#clip062)" cx="1477.67" cy="636.5" r="14.4" fill="#ff0000" fill-rule="evenodd" fill-opacity="1" stroke="#000000" stroke-opacity="1" stroke-width="3.2"/>
<circle clip-path="url(#clip062)" cx="1510.17" cy="548.149" r="14.4" fill="#ff0000" fill-rule="evenodd" fill-opacity="1" stroke="#000000" stroke-opacity="1" stroke-width="3.2"/>
<circle clip-path="url(#clip062)" cx="1542.68" cy="704.394" r="14.4" fill="#ff0000" fill-rule="evenodd" fill-opacity="1" stroke="#000000" stroke-opacity="1" stroke-width="3.2"/>
<circle clip-path="url(#clip062)" cx="1575.19" cy="823.331" r="14.4" fill="#ff0000" fill-rule="evenodd" fill-opacity="1" stroke="#000000" stroke-opacity="1" stroke-width="3.2"/>
<circle clip-path="url(#clip062)" cx="1607.69" cy="1098.89" r="14.4" fill="#ff0000" fill-rule="evenodd" fill-opacity="1" stroke="#000000" stroke-opacity="1" stroke-width="3.2"/>
<circle clip-path="url(#clip062)" cx="1640.2" cy="893.248" r="14.4" fill="#ff0000" fill-rule="evenodd" fill-opacity="1" stroke="#000000" stroke-opacity="1" stroke-width="3.2"/>
<circle clip-path="url(#clip062)" cx="1672.71" cy="982.335" r="14.4" fill="#ff0000" fill-rule="evenodd" fill-opacity="1" stroke="#000000" stroke-opacity="1" stroke-width="3.2"/>
<circle clip-path="url(#clip062)" cx="1705.22" cy="1384.24" r="14.4" fill="#ff0000" fill-rule="evenodd" fill-opacity="1" stroke="#000000" stroke-opacity="1" stroke-width="3.2"/>
<circle clip-path="url(#clip062)" cx="1737.72" cy="1218.03" r="14.4" fill="#ff0000" fill-rule="evenodd" fill-opacity="1" stroke="#000000" stroke-opacity="1" stroke-width="3.2"/>
<circle clip-path="url(#clip062)" cx="1770.23" cy="1087.79" r="14.4" fill="#ff0000" fill-rule="evenodd" fill-opacity="1" stroke="#000000" stroke-opacity="1" stroke-width="3.2"/>
<circle clip-path="url(#clip062)" cx="1802.74" cy="1010.55" r="14.4" fill="#ff0000" fill-rule="evenodd" fill-opacity="1" stroke="#000000" stroke-opacity="1" stroke-width="3.2"/>
<circle clip-path="url(#clip062)" cx="1835.24" cy="854.209" r="14.4" fill="#ff0000" fill-rule="evenodd" fill-opacity="1" stroke="#000000" stroke-opacity="1" stroke-width="3.2"/>
<circle clip-path="url(#clip062)" cx="1867.75" cy="696.752" r="14.4" fill="#ff0000" fill-rule="evenodd" fill-opacity="1" stroke="#000000" stroke-opacity="1" stroke-width="3.2"/>
<circle clip-path="url(#clip062)" cx="1900.26" cy="853.547" r="14.4" fill="#ff0000" fill-rule="evenodd" fill-opacity="1" stroke="#000000" stroke-opacity="1" stroke-width="3.2"/>
<circle clip-path="url(#clip062)" cx="1932.76" cy="711.499" r="14.4" fill="#ff0000" fill-rule="evenodd" fill-opacity="1" stroke="#000000" stroke-opacity="1" stroke-width="3.2"/>
<circle clip-path="url(#clip062)" cx="1965.27" cy="566.516" r="14.4" fill="#ff0000" fill-rule="evenodd" fill-opacity="1" stroke="#000000" stroke-opacity="1" stroke-width="3.2"/>
<circle clip-path="url(#clip062)" cx="1997.78" cy="507.972" r="14.4" fill="#ff0000" fill-rule="evenodd" fill-opacity="1" stroke="#000000" stroke-opacity="1" stroke-width="3.2"/>
<circle clip-path="url(#clip062)" cx="2030.29" cy="371.329" r="14.4" fill="#ff0000" fill-rule="evenodd" fill-opacity="1" stroke="#000000" stroke-opacity="1" stroke-width="3.2"/>
<circle clip-path="url(#clip062)" cx="2062.79" cy="185.816" r="14.4" fill="#ff0000" fill-rule="evenodd" fill-opacity="1" stroke="#000000" stroke-opacity="1" stroke-width="3.2"/>
<circle clip-path="url(#clip062)" cx="2095.3" cy="264.644" r="14.4" fill="#ff0000" fill-rule="evenodd" fill-opacity="1" stroke="#000000" stroke-opacity="1" stroke-width="3.2"/>
<circle clip-path="url(#clip062)" cx="2127.81" cy="133.844" r="14.4" fill="#ff0000" fill-rule="evenodd" fill-opacity="1" stroke="#000000" stroke-opacity="1" stroke-width="3.2"/>
<circle clip-path="url(#clip062)" cx="2160.31" cy="171.148" r="14.4" fill="#ff0000" fill-rule="evenodd" fill-opacity="1" stroke="#000000" stroke-opacity="1" stroke-width="3.2"/>
<circle clip-path="url(#clip062)" cx="2192.82" cy="549.031" r="14.4" fill="#ff0000" fill-rule="evenodd" fill-opacity="1" stroke="#000000" stroke-opacity="1" stroke-width="3.2"/>
<circle clip-path="url(#clip062)" cx="2225.33" cy="254.462" r="14.4" fill="#ff0000" fill-rule="evenodd" fill-opacity="1" stroke="#000000" stroke-opacity="1" stroke-width="3.2"/>
<circle clip-path="url(#clip062)" cx="2257.84" cy="344.233" r="14.4" fill="#ff0000" fill-rule="evenodd" fill-opacity="1" stroke="#000000" stroke-opacity="1" stroke-width="3.2"/>
<circle clip-path="url(#clip062)" cx="2290.34" cy="701.33" r="14.4" fill="#ff0000" fill-rule="evenodd" fill-opacity="1" stroke="#000000" stroke-opacity="1" stroke-width="3.2"/>
</svg>
