<?xml version="1.0" encoding="utf-8"?>
<svg xmlns="http://www.w3.org/2000/svg" xmlns:xlink="http://www.w3.org/1999/xlink" width="600" height="400" viewBox="0 0 2400 1600">
<defs>
  <clipPath id="clip190">
    <rect x="0" y="0" width="2400" height="1600"/>
  </clipPath>
</defs>
<path clip-path="url(#clip190)" d="M0 1600 L2400 1600 L2400 0 L0 0  Z" fill="#ffffff" fill-rule="evenodd" fill-opacity="1"/>
<defs>
  <clipPath id="clip191">
    <rect x="480" y="0" width="1681" height="1600"/>
  </clipPath>
</defs>
<path clip-path="url(#clip190)" d="M193.936 661.294 L2352.76 661.294 L2352.76 123.472 L193.936 123.472  Z" fill="#ffffff" fill-rule="evenodd" fill-opacity="1"/>
<defs>
  <clipPath id="clip192">
    <rect x="193" y="123" width="2160" height="539"/>
  </clipPath>
</defs>
<polyline clip-path="url(#clip192)" style="stroke:#000000; stroke-linecap:round; stroke-linejoin:round; stroke-width:2; stroke-opacity:0.1; fill:none" points="255.035,661.294 255.035,123.472 "/>
<polyline clip-path="url(#clip192)" style="stroke:#000000; stroke-linecap:round; stroke-linejoin:round; stroke-width:2; stroke-opacity:0.1; fill:none" points="662.359,661.294 662.359,123.472 "/>
<polyline clip-path="url(#clip192)" style="stroke:#000000; stroke-linecap:round; stroke-linejoin:round; stroke-width:2; stroke-opacity:0.1; fill:none" points="1069.68,661.294 1069.68,123.472 "/>
<polyline clip-path="url(#clip192)" style="stroke:#000000; stroke-linecap:round; stroke-linejoin:round; stroke-width:2; stroke-opacity:0.1; fill:none" points="1477.01,661.294 1477.01,123.472 "/>
<polyline clip-path="url(#clip192)" style="stroke:#000000; stroke-linecap:round; stroke-linejoin:round; stroke-width:2; stroke-opacity:0.1; fill:none" points="1884.33,661.294 1884.33,123.472 "/>
<polyline clip-path="url(#clip192)" style="stroke:#000000; stroke-linecap:round; stroke-linejoin:round; stroke-width:2; stroke-opacity:0.1; fill:none" points="2291.66,661.294 2291.66,123.472 "/>
<polyline clip-path="url(#clip190)" style="stroke:#000000; stroke-linecap:round; stroke-linejoin:round; stroke-width:4; stroke-opacity:1; fill:none" points="193.936,661.294 2352.76,661.294 "/>
<polyline clip-path="url(#clip190)" style="stroke:#000000; stroke-linecap:round; stroke-linejoin:round; stroke-width:4; stroke-opacity:1; fill:none" points="255.035,661.294 255.035,642.396 "/>
<polyline clip-path="url(#clip190)" style="stroke:#000000; stroke-linecap:round; stroke-linejoin:round; stroke-width:4; stroke-opacity:1; fill:none" points="662.359,661.294 662.359,642.396 "/>
<polyline clip-path="url(#clip190)" style="stroke:#000000; stroke-linecap:round; stroke-linejoin:round; stroke-width:4; stroke-opacity:1; fill:none" points="1069.68,661.294 1069.68,642.396 "/>
<polyline clip-path="url(#clip190)" style="stroke:#000000; stroke-linecap:round; stroke-linejoin:round; stroke-width:4; stroke-opacity:1; fill:none" points="1477.01,661.294 1477.01,642.396 "/>
<polyline clip-path="url(#clip190)" style="stroke:#000000; stroke-linecap:round; stroke-linejoin:round; stroke-width:4; stroke-opacity:1; fill:none" points="1884.33,661.294 1884.33,642.396 "/>
<polyline clip-path="url(#clip190)" style="stroke:#000000; stroke-linecap:round; stroke-linejoin:round; stroke-width:4; stroke-opacity:1; fill:none" points="2291.66,661.294 2291.66,642.396 "/>
<path clip-path="url(#clip190)" d="M255.035 692.213 Q251.424 692.213 249.595 695.777 Q247.789 699.319 247.789 706.449 Q247.789 713.555 249.595 717.12 Q251.424 720.661 255.035 720.661 Q258.669 720.661 260.474 717.12 Q262.303 713.555 262.303 706.449 Q262.303 699.319 260.474 695.777 Q258.669 692.213 255.035 692.213 M255.035 688.509 Q260.845 688.509 263.9 693.115 Q266.979 697.699 266.979 706.449 Q266.979 715.175 263.9 719.782 Q260.845 724.365 255.035 724.365 Q249.225 724.365 246.146 719.782 Q243.09 715.175 243.09 706.449 Q243.09 697.699 246.146 693.115 Q249.225 688.509 255.035 688.509 Z" fill="#000000" fill-rule="nonzero" fill-opacity="1" /><path clip-path="url(#clip190)" d="M652.741 719.759 L660.38 719.759 L660.38 693.393 L652.07 695.06 L652.07 690.801 L660.334 689.134 L665.01 689.134 L665.01 719.759 L672.648 719.759 L672.648 723.694 L652.741 723.694 L652.741 719.759 Z" fill="#000000" fill-rule="nonzero" fill-opacity="1" /><path clip-path="url(#clip190)" d="M1064.34 719.759 L1080.66 719.759 L1080.66 723.694 L1058.71 723.694 L1058.71 719.759 Q1061.37 717.004 1065.96 712.374 Q1070.56 707.722 1071.74 706.379 Q1073.99 703.856 1074.87 702.12 Q1075.77 700.361 1075.77 698.671 Q1075.77 695.916 1073.83 694.18 Q1071.91 692.444 1068.8 692.444 Q1066.61 692.444 1064.15 693.208 Q1061.72 693.972 1058.94 695.523 L1058.94 690.801 Q1061.77 689.666 1064.22 689.088 Q1066.67 688.509 1068.71 688.509 Q1074.08 688.509 1077.28 691.194 Q1080.47 693.879 1080.47 698.37 Q1080.47 700.5 1079.66 702.421 Q1078.87 704.319 1076.77 706.912 Q1076.19 707.583 1073.09 710.8 Q1069.98 713.995 1064.34 719.759 Z" fill="#000000" fill-rule="nonzero" fill-opacity="1" /><path clip-path="url(#clip190)" d="M1481.26 705.06 Q1484.61 705.777 1486.49 708.046 Q1488.39 710.314 1488.39 713.648 Q1488.39 718.763 1484.87 721.564 Q1481.35 724.365 1474.87 724.365 Q1472.69 724.365 1470.38 723.925 Q1468.08 723.509 1465.63 722.652 L1465.63 718.138 Q1467.58 719.273 1469.89 719.851 Q1472.2 720.43 1474.73 720.43 Q1479.13 720.43 1481.42 718.694 Q1483.73 716.958 1483.73 713.648 Q1483.73 710.592 1481.58 708.879 Q1479.45 707.143 1475.63 707.143 L1471.6 707.143 L1471.6 703.3 L1475.82 703.3 Q1479.27 703.3 1481.09 701.935 Q1482.92 700.546 1482.92 697.953 Q1482.92 695.291 1481.02 693.879 Q1479.15 692.444 1475.63 692.444 Q1473.71 692.444 1471.51 692.861 Q1469.31 693.277 1466.67 694.157 L1466.67 689.99 Q1469.33 689.25 1471.65 688.879 Q1473.99 688.509 1476.05 688.509 Q1481.37 688.509 1484.47 690.939 Q1487.58 693.347 1487.58 697.467 Q1487.58 700.338 1485.93 702.328 Q1484.29 704.296 1481.26 705.06 Z" fill="#000000" fill-rule="nonzero" fill-opacity="1" /><path clip-path="url(#clip190)" d="M1887.34 693.208 L1875.54 711.657 L1887.34 711.657 L1887.34 693.208 M1886.12 689.134 L1891.99 689.134 L1891.99 711.657 L1896.93 711.657 L1896.93 715.546 L1891.99 715.546 L1891.99 723.694 L1887.34 723.694 L1887.34 715.546 L1871.74 715.546 L1871.74 711.032 L1886.12 689.134 Z" fill="#000000" fill-rule="nonzero" fill-opacity="1" /><path clip-path="url(#clip190)" d="M2281.94 689.134 L2300.29 689.134 L2300.29 693.069 L2286.22 693.069 L2286.22 701.541 Q2287.24 701.194 2288.25 701.032 Q2289.27 700.847 2290.29 700.847 Q2296.08 700.847 2299.46 704.018 Q2302.84 707.189 2302.84 712.606 Q2302.84 718.185 2299.37 721.286 Q2295.89 724.365 2289.57 724.365 Q2287.4 724.365 2285.13 723.995 Q2282.88 723.624 2280.48 722.884 L2280.48 718.185 Q2282.56 719.319 2284.78 719.874 Q2287 720.43 2289.48 720.43 Q2293.49 720.43 2295.82 718.324 Q2298.16 716.217 2298.16 712.606 Q2298.16 708.995 2295.82 706.888 Q2293.49 704.782 2289.48 704.782 Q2287.61 704.782 2285.73 705.199 Q2283.88 705.615 2281.94 706.495 L2281.94 689.134 Z" fill="#000000" fill-rule="nonzero" fill-opacity="1" /><path clip-path="url(#clip190)" d="M1272.41 760.388 L1272.41 770.51 L1284.47 770.51 L1284.47 775.061 L1272.41 775.061 L1272.41 794.413 Q1272.41 798.774 1273.58 800.015 Q1274.79 801.256 1278.45 801.256 L1284.47 801.256 L1284.47 806.158 L1278.45 806.158 Q1271.67 806.158 1269.1 803.643 Q1266.52 801.097 1266.52 794.413 L1266.52 775.061 L1262.22 775.061 L1262.22 770.51 L1266.52 770.51 L1266.52 760.388 L1272.41 760.388 Z" fill="#000000" fill-rule="nonzero" fill-opacity="1" /><polyline clip-path="url(#clip192)" style="stroke:#000000; stroke-linecap:round; stroke-linejoin:round; stroke-width:2; stroke-opacity:0.1; fill:none" points="193.936,636.36 2352.76,636.36 "/>
<polyline clip-path="url(#clip192)" style="stroke:#000000; stroke-linecap:round; stroke-linejoin:round; stroke-width:2; stroke-opacity:0.1; fill:none" points="193.936,502.28 2352.76,502.28 "/>
<polyline clip-path="url(#clip192)" style="stroke:#000000; stroke-linecap:round; stroke-linejoin:round; stroke-width:2; stroke-opacity:0.1; fill:none" points="193.936,368.2 2352.76,368.2 "/>
<polyline clip-path="url(#clip192)" style="stroke:#000000; stroke-linecap:round; stroke-linejoin:round; stroke-width:2; stroke-opacity:0.1; fill:none" points="193.936,234.119 2352.76,234.119 "/>
<polyline clip-path="url(#clip190)" style="stroke:#000000; stroke-linecap:round; stroke-linejoin:round; stroke-width:4; stroke-opacity:1; fill:none" points="193.936,661.294 193.936,123.472 "/>
<polyline clip-path="url(#clip190)" style="stroke:#000000; stroke-linecap:round; stroke-linejoin:round; stroke-width:4; stroke-opacity:1; fill:none" points="193.936,636.36 212.834,636.36 "/>
<polyline clip-path="url(#clip190)" style="stroke:#000000; stroke-linecap:round; stroke-linejoin:round; stroke-width:4; stroke-opacity:1; fill:none" points="193.936,502.28 212.834,502.28 "/>
<polyline clip-path="url(#clip190)" style="stroke:#000000; stroke-linecap:round; stroke-linejoin:round; stroke-width:4; stroke-opacity:1; fill:none" points="193.936,368.2 212.834,368.2 "/>
<polyline clip-path="url(#clip190)" style="stroke:#000000; stroke-linecap:round; stroke-linejoin:round; stroke-width:4; stroke-opacity:1; fill:none" points="193.936,234.119 212.834,234.119 "/>
<path clip-path="url(#clip190)" d="M97.8206 636.811 L127.496 636.811 L127.496 640.747 L97.8206 640.747 L97.8206 636.811 Z" fill="#000000" fill-rule="nonzero" fill-opacity="1" /><path clip-path="url(#clip190)" d="M141.617 649.705 L157.936 649.705 L157.936 653.64 L135.992 653.64 L135.992 649.705 Q138.654 646.95 143.237 642.321 Q147.843 637.668 149.024 636.325 Q151.269 633.802 152.149 632.066 Q153.052 630.307 153.052 628.617 Q153.052 625.862 151.107 624.126 Q149.186 622.39 146.084 622.39 Q143.885 622.39 141.431 623.154 Q139.001 623.918 136.223 625.469 L136.223 620.747 Q139.047 619.613 141.501 619.034 Q143.955 618.455 145.992 618.455 Q151.362 618.455 154.556 621.14 Q157.751 623.825 157.751 628.316 Q157.751 630.446 156.941 632.367 Q156.154 634.265 154.047 636.858 Q153.468 637.529 150.367 640.747 Q147.265 643.941 141.617 649.705 Z" fill="#000000" fill-rule="nonzero" fill-opacity="1" /><path clip-path="url(#clip190)" d="M97.4502 502.731 L127.126 502.731 L127.126 506.666 L97.4502 506.666 L97.4502 502.731 Z" fill="#000000" fill-rule="nonzero" fill-opacity="1" /><path clip-path="url(#clip190)" d="M138.029 515.625 L145.668 515.625 L145.668 489.259 L137.357 490.926 L137.357 486.666 L145.621 485 L150.297 485 L150.297 515.625 L157.936 515.625 L157.936 519.56 L138.029 519.56 L138.029 515.625 Z" fill="#000000" fill-rule="nonzero" fill-opacity="1" /><path clip-path="url(#clip190)" d="M145.992 353.998 Q142.381 353.998 140.552 357.563 Q138.746 361.105 138.746 368.234 Q138.746 375.341 140.552 378.905 Q142.381 382.447 145.992 382.447 Q149.626 382.447 151.431 378.905 Q153.26 375.341 153.26 368.234 Q153.26 361.105 151.431 357.563 Q149.626 353.998 145.992 353.998 M145.992 350.295 Q151.802 350.295 154.857 354.901 Q157.936 359.484 157.936 368.234 Q157.936 376.961 154.857 381.567 Q151.802 386.151 145.992 386.151 Q140.181 386.151 137.103 381.567 Q134.047 376.961 134.047 368.234 Q134.047 359.484 137.103 354.901 Q140.181 350.295 145.992 350.295 Z" fill="#000000" fill-rule="nonzero" fill-opacity="1" /><path clip-path="url(#clip190)" d="M138.029 247.464 L145.668 247.464 L145.668 221.098 L137.357 222.765 L137.357 218.506 L145.621 216.839 L150.297 216.839 L150.297 247.464 L157.936 247.464 L157.936 251.399 L138.029 251.399 L138.029 247.464 Z" fill="#000000" fill-rule="nonzero" fill-opacity="1" /><path clip-path="url(#clip190)" d="M668.019 12.096 L676.202 12.096 L676.202 65.6895 L705.652 65.6895 L705.652 72.576 L668.019 72.576 L668.019 12.096 Z" fill="#000000" fill-rule="nonzero" fill-opacity="1" /><path clip-path="url(#clip190)" d="M734.535 49.7694 Q725.502 49.7694 722.018 51.8354 Q718.534 53.9013 718.534 58.8839 Q718.534 62.8538 721.127 65.2034 Q723.76 67.5124 728.256 67.5124 Q734.454 67.5124 738.181 63.1374 Q741.948 58.7219 741.948 51.4303 L741.948 49.7694 L734.535 49.7694 M749.402 46.6907 L749.402 72.576 L741.948 72.576 L741.948 65.6895 Q739.396 69.8214 735.588 71.8063 Q731.781 73.7508 726.271 73.7508 Q719.304 73.7508 715.172 69.8619 Q711.08 65.9325 711.08 59.3701 Q711.08 51.7138 716.185 47.825 Q721.329 43.9361 731.497 43.9361 L741.948 43.9361 L741.948 43.2069 Q741.948 38.0623 738.546 35.2672 Q735.183 32.4315 729.066 32.4315 Q725.178 32.4315 721.491 33.3632 Q717.805 34.295 714.402 36.1584 L714.402 29.2718 Q718.494 27.692 722.342 26.9223 Q726.19 26.1121 729.836 26.1121 Q739.68 26.1121 744.541 31.2163 Q749.402 36.3204 749.402 46.6907 Z" fill="#000000" fill-rule="nonzero" fill-opacity="1" /><path clip-path="url(#clip190)" d="M772.128 14.324 L772.128 27.2059 L787.48 27.2059 L787.48 32.9987 L772.128 32.9987 L772.128 57.6282 Q772.128 63.1779 773.626 64.7578 Q775.166 66.3376 779.824 66.3376 L787.48 66.3376 L787.48 72.576 L779.824 72.576 Q771.196 72.576 767.915 69.3758 Q764.633 66.1351 764.633 57.6282 L764.633 32.9987 L759.165 32.9987 L759.165 27.2059 L764.633 27.2059 L764.633 14.324 L772.128 14.324 Z" fill="#000000" fill-rule="nonzero" fill-opacity="1" /><path clip-path="url(#clip190)" d="M836.091 48.0275 L836.091 51.6733 L801.821 51.6733 Q802.307 59.3701 806.439 63.421 Q810.611 67.4314 818.024 67.4314 Q822.318 67.4314 826.329 66.3781 Q830.38 65.3249 834.349 63.2184 L834.349 70.267 Q830.339 71.9684 826.126 72.8596 Q821.913 73.7508 817.579 73.7508 Q806.722 73.7508 800.362 67.4314 Q794.043 61.1119 794.043 50.3365 Q794.043 39.1965 800.038 32.6746 Q806.074 26.1121 816.282 26.1121 Q825.437 26.1121 830.744 32.0264 Q836.091 37.9003 836.091 48.0275 M828.638 45.84 Q828.557 39.7232 825.194 36.0774 Q821.873 32.4315 816.363 32.4315 Q810.125 32.4315 806.358 35.9558 Q802.631 39.4801 802.064 45.8805 L828.638 45.84 Z" fill="#000000" fill-rule="nonzero" fill-opacity="1" /><path clip-path="url(#clip190)" d="M886.039 45.1919 L886.039 72.576 L878.585 72.576 L878.585 45.4349 Q878.585 38.994 876.074 35.7938 Q873.562 32.5936 868.539 32.5936 Q862.503 32.5936 859.019 36.4419 Q855.536 40.2903 855.536 46.9338 L855.536 72.576 L848.042 72.576 L848.042 27.2059 L855.536 27.2059 L855.536 34.2544 Q858.209 30.163 861.815 28.1376 Q865.46 26.1121 870.2 26.1121 Q878.018 26.1121 882.029 30.9732 Q886.039 35.7938 886.039 45.1919 Z" fill="#000000" fill-rule="nonzero" fill-opacity="1" /><path clip-path="url(#clip190)" d="M908.278 14.324 L908.278 27.2059 L923.631 27.2059 L923.631 32.9987 L908.278 32.9987 L908.278 57.6282 Q908.278 63.1779 909.777 64.7578 Q911.317 66.3376 915.975 66.3376 L923.631 66.3376 L923.631 72.576 L915.975 72.576 Q907.347 72.576 904.066 69.3758 Q900.784 66.1351 900.784 57.6282 L900.784 32.9987 L895.316 32.9987 L895.316 27.2059 L900.784 27.2059 L900.784 14.324 L908.278 14.324 Z" fill="#000000" fill-rule="nonzero" fill-opacity="1" /><path clip-path="url(#clip190)" d="M1001.37 63.9476 L1001.37 47.7034 L988 47.7034 L988 40.9789 L1009.47 40.9789 L1009.47 66.9452 Q1004.73 70.3075 999.019 72.0494 Q993.307 73.7508 986.825 73.7508 Q972.647 73.7508 964.627 65.4869 Q956.646 57.1826 956.646 42.3968 Q956.646 27.5705 964.627 19.3066 Q972.647 11.0023 986.825 11.0023 Q992.74 11.0023 998.047 12.4606 Q1003.39 13.9189 1007.89 16.7545 L1007.89 25.464 Q1003.35 21.6156 998.249 19.6712 Q993.145 17.7268 987.514 17.7268 Q976.415 17.7268 970.824 23.9246 Q965.275 30.1225 965.275 42.3968 Q965.275 54.6305 970.824 60.8284 Q976.415 67.0263 987.514 67.0263 Q991.849 67.0263 995.251 66.2971 Q998.654 65.5274 1001.37 63.9476 Z" fill="#000000" fill-rule="nonzero" fill-opacity="1" /><path clip-path="url(#clip190)" d="M1044.71 49.7694 Q1035.68 49.7694 1032.2 51.8354 Q1028.71 53.9013 1028.71 58.8839 Q1028.71 62.8538 1031.3 65.2034 Q1033.94 67.5124 1038.43 67.5124 Q1044.63 67.5124 1048.36 63.1374 Q1052.13 58.7219 1052.13 51.4303 L1052.13 49.7694 L1044.71 49.7694 M1059.58 46.6907 L1059.58 72.576 L1052.13 72.576 L1052.13 65.6895 Q1049.57 69.8214 1045.77 71.8063 Q1041.96 73.7508 1036.45 73.7508 Q1029.48 73.7508 1025.35 69.8619 Q1021.26 65.9325 1021.26 59.3701 Q1021.26 51.7138 1026.36 47.825 Q1031.51 43.9361 1041.67 43.9361 L1052.13 43.9361 L1052.13 43.2069 Q1052.13 38.0623 1048.72 35.2672 Q1045.36 32.4315 1039.24 32.4315 Q1035.36 32.4315 1031.67 33.3632 Q1027.98 34.295 1024.58 36.1584 L1024.58 29.2718 Q1028.67 27.692 1032.52 26.9223 Q1036.37 26.1121 1040.01 26.1121 Q1049.86 26.1121 1054.72 31.2163 Q1059.58 36.3204 1059.58 46.6907 Z" fill="#000000" fill-rule="nonzero" fill-opacity="1" /><path clip-path="url(#clip190)" d="M1074.16 54.671 L1074.16 27.2059 L1081.62 27.2059 L1081.62 54.3874 Q1081.62 60.8284 1084.13 64.0691 Q1086.64 67.2693 1091.66 67.2693 Q1097.7 67.2693 1101.18 63.421 Q1104.71 59.5726 1104.71 52.9291 L1104.71 27.2059 L1112.16 27.2059 L1112.16 72.576 L1104.71 72.576 L1104.71 65.6084 Q1101.99 69.7404 1098.39 71.7658 Q1094.82 73.7508 1090.08 73.7508 Q1082.26 73.7508 1078.21 68.8897 Q1074.16 64.0286 1074.16 54.671 M1092.92 26.1121 L1092.92 26.1121 Z" fill="#000000" fill-rule="nonzero" fill-opacity="1" /><path clip-path="url(#clip190)" d="M1156.44 28.5427 L1156.44 35.5912 Q1153.28 33.9709 1149.87 33.1607 Q1146.47 32.3505 1142.83 32.3505 Q1137.28 32.3505 1134.48 34.0519 Q1131.73 35.7533 1131.73 39.156 Q1131.73 41.7486 1133.71 43.2475 Q1135.7 44.7058 1141.69 46.0426 L1144.24 46.6097 Q1152.18 48.3111 1155.51 51.4303 Q1158.87 54.509 1158.87 60.0587 Q1158.87 66.3781 1153.84 70.0644 Q1148.86 73.7508 1140.11 73.7508 Q1136.47 73.7508 1132.5 73.0216 Q1128.57 72.3329 1124.19 70.9151 L1124.19 63.2184 Q1128.32 65.3654 1132.33 66.4591 Q1136.34 67.5124 1140.27 67.5124 Q1145.54 67.5124 1148.38 65.73 Q1151.21 63.9071 1151.21 60.6258 Q1151.21 57.5877 1149.15 55.9673 Q1147.12 54.3469 1140.19 52.8481 L1137.6 52.2405 Q1130.67 50.7821 1127.59 47.7845 Q1124.52 44.7463 1124.52 39.4801 Q1124.52 33.0797 1129.05 29.5959 Q1133.59 26.1121 1141.93 26.1121 Q1146.07 26.1121 1149.71 26.7198 Q1153.36 27.3274 1156.44 28.5427 Z" fill="#000000" fill-rule="nonzero" fill-opacity="1" /><path clip-path="url(#clip190)" d="M1199.66 28.5427 L1199.66 35.5912 Q1196.5 33.9709 1193.1 33.1607 Q1189.69 32.3505 1186.05 32.3505 Q1180.5 32.3505 1177.7 34.0519 Q1174.95 35.7533 1174.95 39.156 Q1174.95 41.7486 1176.93 43.2475 Q1178.92 44.7058 1184.91 46.0426 L1187.47 46.6097 Q1195.41 48.3111 1198.73 51.4303 Q1202.09 54.509 1202.09 60.0587 Q1202.09 66.3781 1197.07 70.0644 Q1192.08 73.7508 1183.33 73.7508 Q1179.69 73.7508 1175.72 73.0216 Q1171.79 72.3329 1167.41 70.9151 L1167.41 63.2184 Q1171.55 65.3654 1175.56 66.4591 Q1179.57 67.5124 1183.5 67.5124 Q1188.76 67.5124 1191.6 65.73 Q1194.43 63.9071 1194.43 60.6258 Q1194.43 57.5877 1192.37 55.9673 Q1190.34 54.3469 1183.42 52.8481 L1180.82 52.2405 Q1173.9 50.7821 1170.82 47.7845 Q1167.74 44.7463 1167.74 39.4801 Q1167.74 33.0797 1172.28 29.5959 Q1176.81 26.1121 1185.16 26.1121 Q1189.29 26.1121 1192.94 26.7198 Q1196.58 27.3274 1199.66 28.5427 Z" fill="#000000" fill-rule="nonzero" fill-opacity="1" /><path clip-path="url(#clip190)" d="M1210.19 46.5287 L1232.03 46.5287 L1232.03 53.1722 L1210.19 53.1722 L1210.19 46.5287 Z" fill="#000000" fill-rule="nonzero" fill-opacity="1" /><path clip-path="url(#clip190)" d="M1244.22 12.096 L1256.41 12.096 L1271.85 53.2532 L1287.36 12.096 L1299.56 12.096 L1299.56 72.576 L1291.58 72.576 L1291.58 19.4686 L1275.98 60.9499 L1267.76 60.9499 L1252.16 19.4686 L1252.16 72.576 L1244.22 72.576 L1244.22 12.096 Z" fill="#000000" fill-rule="nonzero" fill-opacity="1" /><path clip-path="url(#clip190)" d="M1336.09 49.7694 Q1327.06 49.7694 1323.58 51.8354 Q1320.09 53.9013 1320.09 58.8839 Q1320.09 62.8538 1322.69 65.2034 Q1325.32 67.5124 1329.82 67.5124 Q1336.01 67.5124 1339.74 63.1374 Q1343.51 58.7219 1343.51 51.4303 L1343.51 49.7694 L1336.09 49.7694 M1350.96 46.6907 L1350.96 72.576 L1343.51 72.576 L1343.51 65.6895 Q1340.96 69.8214 1337.15 71.8063 Q1333.34 73.7508 1327.83 73.7508 Q1320.86 73.7508 1316.73 69.8619 Q1312.64 65.9325 1312.64 59.3701 Q1312.64 51.7138 1317.74 47.825 Q1322.89 43.9361 1333.06 43.9361 L1343.51 43.9361 L1343.51 43.2069 Q1343.51 38.0623 1340.1 35.2672 Q1336.74 32.4315 1330.63 32.4315 Q1326.74 32.4315 1323.05 33.3632 Q1319.36 34.295 1315.96 36.1584 L1315.96 29.2718 Q1320.05 27.692 1323.9 26.9223 Q1327.75 26.1121 1331.4 26.1121 Q1341.24 26.1121 1346.1 31.2163 Q1350.96 36.3204 1350.96 46.6907 Z" fill="#000000" fill-rule="nonzero" fill-opacity="1" /><path clip-path="url(#clip190)" d="M1392.6 34.1734 Q1391.35 33.4443 1389.85 33.1202 Q1388.39 32.7556 1386.61 32.7556 Q1380.29 32.7556 1376.89 36.8875 Q1373.52 40.9789 1373.52 48.6757 L1373.52 72.576 L1366.03 72.576 L1366.03 27.2059 L1373.52 27.2059 L1373.52 34.2544 Q1375.87 30.1225 1379.64 28.1376 Q1383.41 26.1121 1388.8 26.1121 Q1389.57 26.1121 1390.5 26.2337 Q1391.43 26.3147 1392.56 26.5172 L1392.6 34.1734 Z" fill="#000000" fill-rule="nonzero" fill-opacity="1" /><path clip-path="url(#clip190)" d="M1400.14 9.54393 L1407.63 9.54393 L1407.63 46.7717 L1429.87 27.2059 L1439.39 27.2059 L1415.33 48.4326 L1440.41 72.576 L1430.68 72.576 L1407.63 50.4176 L1407.63 72.576 L1400.14 72.576 L1400.14 9.54393 Z" fill="#000000" fill-rule="nonzero" fill-opacity="1" /><path clip-path="url(#clip190)" d="M1463.09 32.4315 Q1457.09 32.4315 1453.61 37.1306 Q1450.13 41.7891 1450.13 49.9314 Q1450.13 58.0738 1453.57 62.7728 Q1457.05 67.4314 1463.09 67.4314 Q1469.05 67.4314 1472.53 62.7323 Q1476.01 58.0333 1476.01 49.9314 Q1476.01 41.8701 1472.53 37.1711 Q1469.05 32.4315 1463.09 32.4315 M1463.09 26.1121 Q1472.81 26.1121 1478.36 32.4315 Q1483.91 38.7509 1483.91 49.9314 Q1483.91 61.0714 1478.36 67.4314 Q1472.81 73.7508 1463.09 73.7508 Q1453.33 73.7508 1447.78 67.4314 Q1442.27 61.0714 1442.27 49.9314 Q1442.27 38.7509 1447.78 32.4315 Q1453.33 26.1121 1463.09 26.1121 Z" fill="#000000" fill-rule="nonzero" fill-opacity="1" /><path clip-path="url(#clip190)" d="M1490.92 27.2059 L1498.82 27.2059 L1513 65.2844 L1527.18 27.2059 L1535.07 27.2059 L1518.06 72.576 L1507.93 72.576 L1490.92 27.2059 Z" fill="#000000" fill-rule="nonzero" fill-opacity="1" /><path clip-path="url(#clip190)" d="M1578.95 65.7705 L1578.95 89.8329 L1571.45 89.8329 L1571.45 27.2059 L1578.95 27.2059 L1578.95 34.0924 Q1581.3 30.0415 1584.86 28.0971 Q1588.47 26.1121 1593.45 26.1121 Q1601.71 26.1121 1606.86 32.6746 Q1612.04 39.2371 1612.04 49.9314 Q1612.04 60.6258 1606.86 67.1883 Q1601.71 73.7508 1593.45 73.7508 Q1588.47 73.7508 1584.86 71.8063 Q1581.3 69.8214 1578.95 65.7705 M1604.3 49.9314 Q1604.3 41.7081 1600.9 37.0496 Q1597.54 32.3505 1591.63 32.3505 Q1585.71 32.3505 1582.31 37.0496 Q1578.95 41.7081 1578.95 49.9314 Q1578.95 58.1548 1582.31 62.8538 Q1585.71 67.5124 1591.63 67.5124 Q1597.54 67.5124 1600.9 62.8538 Q1604.3 58.1548 1604.3 49.9314 Z" fill="#000000" fill-rule="nonzero" fill-opacity="1" /><path clip-path="url(#clip190)" d="M1650.69 34.1734 Q1649.43 33.4443 1647.93 33.1202 Q1646.47 32.7556 1644.69 32.7556 Q1638.37 32.7556 1634.97 36.8875 Q1631.61 40.9789 1631.61 48.6757 L1631.61 72.576 L1624.11 72.576 L1624.11 27.2059 L1631.61 27.2059 L1631.61 34.2544 Q1633.96 30.1225 1637.72 28.1376 Q1641.49 26.1121 1646.88 26.1121 Q1647.65 26.1121 1648.58 26.2337 Q1649.51 26.3147 1650.65 26.5172 L1650.69 34.1734 Z" fill="#000000" fill-rule="nonzero" fill-opacity="1" /><path clip-path="url(#clip190)" d="M1674.26 32.4315 Q1668.27 32.4315 1664.78 37.1306 Q1661.3 41.7891 1661.3 49.9314 Q1661.3 58.0738 1664.74 62.7728 Q1668.23 67.4314 1674.26 67.4314 Q1680.22 67.4314 1683.7 62.7323 Q1687.19 58.0333 1687.19 49.9314 Q1687.19 41.8701 1683.7 37.1711 Q1680.22 32.4315 1674.26 32.4315 M1674.26 26.1121 Q1683.99 26.1121 1689.54 32.4315 Q1695.09 38.7509 1695.09 49.9314 Q1695.09 61.0714 1689.54 67.4314 Q1683.99 73.7508 1674.26 73.7508 Q1664.5 73.7508 1658.95 67.4314 Q1653.44 61.0714 1653.44 49.9314 Q1653.44 38.7509 1658.95 32.4315 Q1664.5 26.1121 1674.26 26.1121 Z" fill="#000000" fill-rule="nonzero" fill-opacity="1" /><path clip-path="url(#clip190)" d="M1740.09 28.9478 L1740.09 35.9153 Q1736.93 34.1734 1733.73 33.3227 Q1730.57 32.4315 1727.33 32.4315 Q1720.08 32.4315 1716.07 37.0496 Q1712.06 41.6271 1712.06 49.9314 Q1712.06 58.2358 1716.07 62.8538 Q1720.08 67.4314 1727.33 67.4314 Q1730.57 67.4314 1733.73 66.5807 Q1736.93 65.6895 1740.09 63.9476 L1740.09 70.8341 Q1736.97 72.2924 1733.61 73.0216 Q1730.29 73.7508 1726.52 73.7508 Q1716.27 73.7508 1710.24 67.3098 Q1704.2 60.8689 1704.2 49.9314 Q1704.2 38.832 1710.28 32.472 Q1716.39 26.1121 1727.01 26.1121 Q1730.45 26.1121 1733.73 26.8413 Q1737.01 27.5299 1740.09 28.9478 Z" fill="#000000" fill-rule="nonzero" fill-opacity="1" /><path clip-path="url(#clip190)" d="M1791.86 48.0275 L1791.86 51.6733 L1757.59 51.6733 Q1758.08 59.3701 1762.21 63.421 Q1766.38 67.4314 1773.79 67.4314 Q1778.09 67.4314 1782.1 66.3781 Q1786.15 65.3249 1790.12 63.2184 L1790.12 70.267 Q1786.11 71.9684 1781.9 72.8596 Q1777.68 73.7508 1773.35 73.7508 Q1762.49 73.7508 1756.13 67.4314 Q1749.81 61.1119 1749.81 50.3365 Q1749.81 39.1965 1755.81 32.6746 Q1761.84 26.1121 1772.05 26.1121 Q1781.21 26.1121 1786.51 32.0264 Q1791.86 37.9003 1791.86 48.0275 M1784.41 45.84 Q1784.33 39.7232 1780.96 36.0774 Q1777.64 32.4315 1772.13 32.4315 Q1765.9 32.4315 1762.13 35.9558 Q1758.4 39.4801 1757.83 45.8805 L1784.41 45.84 Z" fill="#000000" fill-rule="nonzero" fill-opacity="1" /><path clip-path="url(#clip190)" d="M1833.02 28.5427 L1833.02 35.5912 Q1829.86 33.9709 1826.46 33.1607 Q1823.05 32.3505 1819.41 32.3505 Q1813.86 32.3505 1811.06 34.0519 Q1808.31 35.7533 1808.31 39.156 Q1808.31 41.7486 1810.29 43.2475 Q1812.28 44.7058 1818.27 46.0426 L1820.83 46.6097 Q1828.77 48.3111 1832.09 51.4303 Q1835.45 54.509 1835.45 60.0587 Q1835.45 66.3781 1830.43 70.0644 Q1825.44 73.7508 1816.69 73.7508 Q1813.05 73.7508 1809.08 73.0216 Q1805.15 72.3329 1800.77 70.9151 L1800.77 63.2184 Q1804.91 65.3654 1808.92 66.4591 Q1812.93 67.5124 1816.86 67.5124 Q1822.12 67.5124 1824.96 65.73 Q1827.79 63.9071 1827.79 60.6258 Q1827.79 57.5877 1825.73 55.9673 Q1823.7 54.3469 1816.77 52.8481 L1814.18 52.2405 Q1807.26 50.7821 1804.18 47.7845 Q1801.1 44.7463 1801.1 39.4801 Q1801.1 33.0797 1805.63 29.5959 Q1810.17 26.1121 1818.52 26.1121 Q1822.65 26.1121 1826.29 26.7198 Q1829.94 27.3274 1833.02 28.5427 Z" fill="#000000" fill-rule="nonzero" fill-opacity="1" /><path clip-path="url(#clip190)" d="M1876.24 28.5427 L1876.24 35.5912 Q1873.08 33.9709 1869.68 33.1607 Q1866.28 32.3505 1862.63 32.3505 Q1857.08 32.3505 1854.29 34.0519 Q1851.53 35.7533 1851.53 39.156 Q1851.53 41.7486 1853.52 43.2475 Q1855.5 44.7058 1861.5 46.0426 L1864.05 46.6097 Q1871.99 48.3111 1875.31 51.4303 Q1878.67 54.509 1878.67 60.0587 Q1878.67 66.3781 1873.65 70.0644 Q1868.67 73.7508 1859.92 73.7508 Q1856.27 73.7508 1852.3 73.0216 Q1848.37 72.3329 1844 70.9151 L1844 63.2184 Q1848.13 65.3654 1852.14 66.4591 Q1856.15 67.5124 1860.08 67.5124 Q1865.35 67.5124 1868.18 65.73 Q1871.02 63.9071 1871.02 60.6258 Q1871.02 57.5877 1868.95 55.9673 Q1866.92 54.3469 1860 52.8481 L1857.41 52.2405 Q1850.48 50.7821 1847.4 47.7845 Q1844.32 44.7463 1844.32 39.4801 Q1844.32 33.0797 1848.86 29.5959 Q1853.39 26.1121 1861.74 26.1121 Q1865.87 26.1121 1869.52 26.7198 Q1873.16 27.3274 1876.24 28.5427 Z" fill="#000000" fill-rule="nonzero" fill-opacity="1" /><polyline clip-path="url(#clip192)" style="stroke:#009af9; stroke-linecap:round; stroke-linejoin:round; stroke-width:4; stroke-opacity:1; fill:none" points="255.035,314.122 265.269,335.294 275.503,339.469 285.738,297.391 295.972,341.502 306.206,319.123 316.44,304.224 326.675,306.243 336.909,347.45 347.143,311.877 357.378,318.348 367.612,368.226 377.846,476.772 388.08,477.42 398.315,473.025 408.549,473.568 418.783,519.112 429.018,503.493 439.252,499.906 449.486,502.791 459.72,532.698 469.955,580.378 480.189,585.499 490.423,497.283 500.657,488.92 510.892,473.504 521.126,556.857 531.36,579.656 541.595,534.1 551.829,561.914 562.063,619.289 572.297,614.268 582.532,646.072 592.766,584.49 603,530.359 613.235,464.215 623.469,415.582 633.703,472.796 643.937,437.405 654.172,452.387 664.406,399.503 674.64,347.058 684.875,304.545 695.109,354.286 705.343,297.571 715.577,319.083 725.812,325.287 736.046,342.136 746.28,387.631 756.515,412.486 766.749,484.125 776.983,513.806 787.217,519.722 797.452,518.121 807.686,506.583 817.92,552.032 828.155,476.919 838.389,512.987 848.623,473.612 858.857,471.745 869.092,484.02 879.326,441.116 889.56,430.089 899.795,449.544 910.029,493.152 920.263,414.13 930.497,504.077 940.732,464.053 950.966,465.391 961.2,497.875 971.435,449.521 981.669,466.881 991.903,436.186 1002.14,400.168 1012.37,352.44 1022.61,401.018 1032.84,370.943 1043.07,311.581 1053.31,313.011 1063.54,276.497 1073.78,340.477 1084.01,314.776 1094.25,298.219 1104.48,301.489 1114.71,295.263 1124.95,354.002 1135.18,348.731 1145.42,347.274 1155.65,411.4 1165.89,437.978 1176.12,367.293 1186.35,356.744 1196.59,370.386 1206.82,344.541 1217.06,267.694 1227.29,293.779 1237.53,312.353 1247.76,268.327 1257.99,313.52 1268.23,319.588 1278.46,304.969 1288.7,331.64 1298.93,318.054 1309.17,346.521 1319.4,291.688 1329.63,304.211 1339.87,306.185 1350.1,367.014 1360.34,433.032 1370.57,437.891 1380.81,429.504 1391.04,422.16 1401.27,406.204 1411.51,369.993 1421.74,331.8 1431.98,342.925 1442.21,322.961 1452.45,291.045 1462.68,322.731 1472.91,344.192 1483.15,264.497 1493.38,300.734 1503.62,371.361 1513.85,317.05 1524.09,308.755 1534.32,291.671 1544.55,325.264 1554.79,264.153 1565.02,207.543 1575.26,210.811 1585.49,195.778 1595.73,194.925 1605.96,199.145 1616.19,178.392 1626.43,138.693 1636.66,176.426 1646.9,171.766 1657.13,220.639 1667.37,232.873 1677.6,281.544 1687.83,273.056 1698.07,314.035 1708.3,344.367 1718.54,369.951 1728.77,442.367 1739.01,468.707 1749.24,453.945 1759.47,433.028 1769.71,427.346 1779.94,409.209 1790.18,388.634 1800.41,399.547 1810.65,473.012 1820.88,437.326 1831.11,484.745 1841.35,451.175 1851.58,495.212 1861.82,527.336 1872.05,487.805 1882.29,504.771 1892.52,500.997 1902.75,521.049 1912.99,576.864 1923.22,554.04 1933.46,545.695 1943.69,567.109 1953.93,535.448 1964.16,514.622 1974.39,528 1984.63,502.527 1994.86,563.895 2005.1,569.983 2015.33,547.498 2025.57,524.509 2035.8,501.209 2046.03,452.163 2056.27,458.462 2066.5,452.722 2076.74,438.682 2086.97,398.533 2097.21,309.272 2107.44,318.503 2117.67,276.066 2127.91,345.917 2138.14,288.552 2148.38,297.909 2158.61,228.892 2168.85,311.43 2179.08,356.399 2189.31,392.611 2199.55,404.936 2209.78,401.873 2220.02,413.111 2230.25,341.539 2240.49,299.379 2250.72,355.762 2260.95,361.788 2271.19,287.034 2281.42,272.017 2291.66,243.031 "/>
<path clip-path="url(#clip190)" d="M265.897 245.08 L534.255 245.08 L534.255 141.4 L265.897 141.4  Z" fill="#ffffff" fill-rule="evenodd" fill-opacity="1"/>
<polyline clip-path="url(#clip190)" style="stroke:#000000; stroke-linecap:round; stroke-linejoin:round; stroke-width:4; stroke-opacity:1; fill:none" points="265.897,245.08 534.255,245.08 534.255,141.4 265.897,141.4 265.897,245.08 "/>
<polyline clip-path="url(#clip190)" style="stroke:#009af9; stroke-linecap:round; stroke-linejoin:round; stroke-width:4; stroke-opacity:1; fill:none" points="289.884,193.24 433.805,193.24 "/>
<path clip-path="url(#clip190)" d="M482.444 184.594 L473.069 197.209 L482.931 210.52 L477.907 210.52 L470.361 200.334 L462.815 210.52 L457.792 210.52 L467.861 196.955 L458.648 184.594 L463.671 184.594 L470.546 193.83 L477.421 184.594 L482.444 184.594 Z" fill="#000000" fill-rule="nonzero" fill-opacity="1" /><path clip-path="url(#clip190)" d="M490.361 206.584 L498 206.584 L498 180.219 L489.69 181.885 L489.69 177.626 L497.954 175.96 L502.629 175.96 L502.629 206.584 L510.268 206.584 L510.268 210.52 L490.361 210.52 L490.361 206.584 Z" fill="#000000" fill-rule="nonzero" fill-opacity="1" /><path clip-path="url(#clip190)" d="M193.936 1423.18 L2352.76 1423.18 L2352.76 885.358 L193.936 885.358  Z" fill="#ffffff" fill-rule="evenodd" fill-opacity="1"/>
<defs>
  <clipPath id="clip193">
    <rect x="193" y="885" width="2160" height="539"/>
  </clipPath>
</defs>
<polyline clip-path="url(#clip193)" style="stroke:#000000; stroke-linecap:round; stroke-linejoin:round; stroke-width:2; stroke-opacity:0.1; fill:none" points="255.035,1423.18 255.035,885.358 "/>
<polyline clip-path="url(#clip193)" style="stroke:#000000; stroke-linecap:round; stroke-linejoin:round; stroke-width:2; stroke-opacity:0.1; fill:none" points="662.359,1423.18 662.359,885.358 "/>
<polyline clip-path="url(#clip193)" style="stroke:#000000; stroke-linecap:round; stroke-linejoin:round; stroke-width:2; stroke-opacity:0.1; fill:none" points="1069.68,1423.18 1069.68,885.358 "/>
<polyline clip-path="url(#clip193)" style="stroke:#000000; stroke-linecap:round; stroke-linejoin:round; stroke-width:2; stroke-opacity:0.1; fill:none" points="1477.01,1423.18 1477.01,885.358 "/>
<polyline clip-path="url(#clip193)" style="stroke:#000000; stroke-linecap:round; stroke-linejoin:round; stroke-width:2; stroke-opacity:0.1; fill:none" points="1884.33,1423.18 1884.33,885.358 "/>
<polyline clip-path="url(#clip193)" style="stroke:#000000; stroke-linecap:round; stroke-linejoin:round; stroke-width:2; stroke-opacity:0.1; fill:none" points="2291.66,1423.18 2291.66,885.358 "/>
<polyline clip-path="url(#clip190)" style="stroke:#000000; stroke-linecap:round; stroke-linejoin:round; stroke-width:4; stroke-opacity:1; fill:none" points="193.936,1423.18 2352.76,1423.18 "/>
<polyline clip-path="url(#clip190)" style="stroke:#000000; stroke-linecap:round; stroke-linejoin:round; stroke-width:4; stroke-opacity:1; fill:none" points="255.035,1423.18 255.035,1404.28 "/>
<polyline clip-path="url(#clip190)" style="stroke:#000000; stroke-linecap:round; stroke-linejoin:round; stroke-width:4; stroke-opacity:1; fill:none" points="662.359,1423.18 662.359,1404.28 "/>
<polyline clip-path="url(#clip190)" style="stroke:#000000; stroke-linecap:round; stroke-linejoin:round; stroke-width:4; stroke-opacity:1; fill:none" points="1069.68,1423.18 1069.68,1404.28 "/>
<polyline clip-path="url(#clip190)" style="stroke:#000000; stroke-linecap:round; stroke-linejoin:round; stroke-width:4; stroke-opacity:1; fill:none" points="1477.01,1423.18 1477.01,1404.28 "/>
<polyline clip-path="url(#clip190)" style="stroke:#000000; stroke-linecap:round; stroke-linejoin:round; stroke-width:4; stroke-opacity:1; fill:none" points="1884.33,1423.18 1884.33,1404.28 "/>
<polyline clip-path="url(#clip190)" style="stroke:#000000; stroke-linecap:round; stroke-linejoin:round; stroke-width:4; stroke-opacity:1; fill:none" points="2291.66,1423.18 2291.66,1404.28 "/>
<path clip-path="url(#clip190)" d="M255.035 1454.1 Q251.424 1454.1 249.595 1457.66 Q247.789 1461.2 247.789 1468.33 Q247.789 1475.44 249.595 1479.01 Q251.424 1482.55 255.035 1482.55 Q258.669 1482.55 260.474 1479.01 Q262.303 1475.44 262.303 1468.33 Q262.303 1461.2 260.474 1457.66 Q258.669 1454.1 255.035 1454.1 M255.035 1450.39 Q260.845 1450.39 263.9 1455 Q266.979 1459.58 266.979 1468.33 Q266.979 1477.06 263.9 1481.67 Q260.845 1486.25 255.035 1486.25 Q249.225 1486.25 246.146 1481.67 Q243.09 1477.06 243.09 1468.33 Q243.09 1459.58 246.146 1455 Q249.225 1450.39 255.035 1450.39 Z" fill="#000000" fill-rule="nonzero" fill-opacity="1" /><path clip-path="url(#clip190)" d="M652.741 1481.64 L660.38 1481.64 L660.38 1455.28 L652.07 1456.95 L652.07 1452.69 L660.334 1451.02 L665.01 1451.02 L665.01 1481.64 L672.648 1481.64 L672.648 1485.58 L652.741 1485.58 L652.741 1481.64 Z" fill="#000000" fill-rule="nonzero" fill-opacity="1" /><path clip-path="url(#clip190)" d="M1064.34 1481.64 L1080.66 1481.64 L1080.66 1485.58 L1058.71 1485.58 L1058.71 1481.64 Q1061.37 1478.89 1065.96 1474.26 Q1070.56 1469.61 1071.74 1468.27 Q1073.99 1465.74 1074.87 1464.01 Q1075.77 1462.25 1075.77 1460.56 Q1075.77 1457.8 1073.83 1456.07 Q1071.91 1454.33 1068.8 1454.33 Q1066.61 1454.33 1064.15 1455.09 Q1061.72 1455.86 1058.94 1457.41 L1058.94 1452.69 Q1061.77 1451.55 1064.22 1450.97 Q1066.67 1450.39 1068.71 1450.39 Q1074.08 1450.39 1077.28 1453.08 Q1080.47 1455.77 1080.47 1460.26 Q1080.47 1462.39 1079.66 1464.31 Q1078.87 1466.2 1076.77 1468.8 Q1076.19 1469.47 1073.09 1472.69 Q1069.98 1475.88 1064.34 1481.64 Z" fill="#000000" fill-rule="nonzero" fill-opacity="1" /><path clip-path="url(#clip190)" d="M1481.26 1466.95 Q1484.61 1467.66 1486.49 1469.93 Q1488.39 1472.2 1488.39 1475.53 Q1488.39 1480.65 1484.87 1483.45 Q1481.35 1486.25 1474.87 1486.25 Q1472.69 1486.25 1470.38 1485.81 Q1468.08 1485.39 1465.63 1484.54 L1465.63 1480.02 Q1467.58 1481.16 1469.89 1481.74 Q1472.2 1482.32 1474.73 1482.32 Q1479.13 1482.32 1481.42 1480.58 Q1483.73 1478.84 1483.73 1475.53 Q1483.73 1472.48 1481.58 1470.77 Q1479.45 1469.03 1475.63 1469.03 L1471.6 1469.03 L1471.6 1465.19 L1475.82 1465.19 Q1479.27 1465.19 1481.09 1463.82 Q1482.92 1462.43 1482.92 1459.84 Q1482.92 1457.18 1481.02 1455.77 Q1479.15 1454.33 1475.63 1454.33 Q1473.71 1454.33 1471.51 1454.75 Q1469.31 1455.16 1466.67 1456.04 L1466.67 1451.88 Q1469.33 1451.14 1471.65 1450.77 Q1473.99 1450.39 1476.05 1450.39 Q1481.37 1450.39 1484.47 1452.83 Q1487.58 1455.23 1487.58 1459.35 Q1487.58 1462.22 1485.93 1464.21 Q1484.29 1466.18 1481.26 1466.95 Z" fill="#000000" fill-rule="nonzero" fill-opacity="1" /><path clip-path="url(#clip190)" d="M1887.34 1455.09 L1875.54 1473.54 L1887.34 1473.54 L1887.34 1455.09 M1886.12 1451.02 L1891.99 1451.02 L1891.99 1473.54 L1896.93 1473.54 L1896.93 1477.43 L1891.99 1477.43 L1891.99 1485.58 L1887.34 1485.58 L1887.34 1477.43 L1871.74 1477.43 L1871.74 1472.92 L1886.12 1451.02 Z" fill="#000000" fill-rule="nonzero" fill-opacity="1" /><path clip-path="url(#clip190)" d="M2281.94 1451.02 L2300.29 1451.02 L2300.29 1454.96 L2286.22 1454.96 L2286.22 1463.43 Q2287.24 1463.08 2288.25 1462.92 Q2289.27 1462.73 2290.29 1462.73 Q2296.08 1462.73 2299.46 1465.9 Q2302.84 1469.08 2302.84 1474.49 Q2302.84 1480.07 2299.37 1483.17 Q2295.89 1486.25 2289.57 1486.25 Q2287.4 1486.25 2285.13 1485.88 Q2282.88 1485.51 2280.48 1484.77 L2280.48 1480.07 Q2282.56 1481.2 2284.78 1481.76 Q2287 1482.32 2289.48 1482.32 Q2293.49 1482.32 2295.82 1480.21 Q2298.16 1478.1 2298.16 1474.49 Q2298.16 1470.88 2295.82 1468.77 Q2293.49 1466.67 2289.48 1466.67 Q2287.61 1466.67 2285.73 1467.08 Q2283.88 1467.5 2281.94 1468.38 L2281.94 1451.02 Z" fill="#000000" fill-rule="nonzero" fill-opacity="1" /><path clip-path="url(#clip190)" d="M1272.41 1522.27 L1272.41 1532.4 L1284.47 1532.4 L1284.47 1536.95 L1272.41 1536.95 L1272.41 1556.3 Q1272.41 1560.66 1273.58 1561.9 Q1274.79 1563.14 1278.45 1563.14 L1284.47 1563.14 L1284.47 1568.04 L1278.45 1568.04 Q1271.67 1568.04 1269.1 1565.53 Q1266.52 1562.98 1266.52 1556.3 L1266.52 1536.95 L1262.22 1536.95 L1262.22 1532.4 L1266.52 1532.4 L1266.52 1522.27 L1272.41 1522.27 Z" fill="#000000" fill-rule="nonzero" fill-opacity="1" /><polyline clip-path="url(#clip193)" style="stroke:#000000; stroke-linecap:round; stroke-linejoin:round; stroke-width:2; stroke-opacity:0.1; fill:none" points="193.936,1365.07 2352.76,1365.07 "/>
<polyline clip-path="url(#clip193)" style="stroke:#000000; stroke-linecap:round; stroke-linejoin:round; stroke-width:2; stroke-opacity:0.1; fill:none" points="193.936,1295.29 2352.76,1295.29 "/>
<polyline clip-path="url(#clip193)" style="stroke:#000000; stroke-linecap:round; stroke-linejoin:round; stroke-width:2; stroke-opacity:0.1; fill:none" points="193.936,1225.51 2352.76,1225.51 "/>
<polyline clip-path="url(#clip193)" style="stroke:#000000; stroke-linecap:round; stroke-linejoin:round; stroke-width:2; stroke-opacity:0.1; fill:none" points="193.936,1155.73 2352.76,1155.73 "/>
<polyline clip-path="url(#clip193)" style="stroke:#000000; stroke-linecap:round; stroke-linejoin:round; stroke-width:2; stroke-opacity:0.1; fill:none" points="193.936,1085.94 2352.76,1085.94 "/>
<polyline clip-path="url(#clip193)" style="stroke:#000000; stroke-linecap:round; stroke-linejoin:round; stroke-width:2; stroke-opacity:0.1; fill:none" points="193.936,1016.16 2352.76,1016.16 "/>
<polyline clip-path="url(#clip193)" style="stroke:#000000; stroke-linecap:round; stroke-linejoin:round; stroke-width:2; stroke-opacity:0.1; fill:none" points="193.936,946.379 2352.76,946.379 "/>
<polyline clip-path="url(#clip190)" style="stroke:#000000; stroke-linecap:round; stroke-linejoin:round; stroke-width:4; stroke-opacity:1; fill:none" points="193.936,1423.18 193.936,885.358 "/>
<polyline clip-path="url(#clip190)" style="stroke:#000000; stroke-linecap:round; stroke-linejoin:round; stroke-width:4; stroke-opacity:1; fill:none" points="193.936,1365.07 212.834,1365.07 "/>
<polyline clip-path="url(#clip190)" style="stroke:#000000; stroke-linecap:round; stroke-linejoin:round; stroke-width:4; stroke-opacity:1; fill:none" points="193.936,1295.29 212.834,1295.29 "/>
<polyline clip-path="url(#clip190)" style="stroke:#000000; stroke-linecap:round; stroke-linejoin:round; stroke-width:4; stroke-opacity:1; fill:none" points="193.936,1225.51 212.834,1225.51 "/>
<polyline clip-path="url(#clip190)" style="stroke:#000000; stroke-linecap:round; stroke-linejoin:round; stroke-width:4; stroke-opacity:1; fill:none" points="193.936,1155.73 212.834,1155.73 "/>
<polyline clip-path="url(#clip190)" style="stroke:#000000; stroke-linecap:round; stroke-linejoin:round; stroke-width:4; stroke-opacity:1; fill:none" points="193.936,1085.94 212.834,1085.94 "/>
<polyline clip-path="url(#clip190)" style="stroke:#000000; stroke-linecap:round; stroke-linejoin:round; stroke-width:4; stroke-opacity:1; fill:none" points="193.936,1016.16 212.834,1016.16 "/>
<polyline clip-path="url(#clip190)" style="stroke:#000000; stroke-linecap:round; stroke-linejoin:round; stroke-width:4; stroke-opacity:1; fill:none" points="193.936,946.379 212.834,946.379 "/>
<path clip-path="url(#clip190)" d="M51.9875 1365.52 L81.6633 1365.52 L81.6633 1369.46 L51.9875 1369.46 L51.9875 1365.52 Z" fill="#000000" fill-rule="nonzero" fill-opacity="1" /><path clip-path="url(#clip190)" d="M92.566 1378.42 L100.205 1378.42 L100.205 1352.05 L91.8947 1353.72 L91.8947 1349.46 L100.159 1347.79 L104.834 1347.79 L104.834 1378.42 L112.473 1378.42 L112.473 1382.35 L92.566 1382.35 L92.566 1378.42 Z" fill="#000000" fill-rule="nonzero" fill-opacity="1" /><path clip-path="url(#clip190)" d="M121.918 1376.47 L126.802 1376.47 L126.802 1382.35 L121.918 1382.35 L121.918 1376.47 Z" fill="#000000" fill-rule="nonzero" fill-opacity="1" /><path clip-path="url(#clip190)" d="M137.033 1347.79 L155.39 1347.79 L155.39 1351.73 L141.316 1351.73 L141.316 1360.2 Q142.334 1359.85 143.353 1359.69 Q144.371 1359.51 145.39 1359.51 Q151.177 1359.51 154.556 1362.68 Q157.936 1365.85 157.936 1371.26 Q157.936 1376.84 154.464 1379.95 Q150.992 1383.02 144.672 1383.02 Q142.496 1383.02 140.228 1382.65 Q137.982 1382.28 135.575 1381.54 L135.575 1376.84 Q137.658 1377.98 139.881 1378.53 Q142.103 1379.09 144.58 1379.09 Q148.584 1379.09 150.922 1376.98 Q153.26 1374.88 153.26 1371.26 Q153.26 1367.65 150.922 1365.55 Q148.584 1363.44 144.58 1363.44 Q142.705 1363.44 140.83 1363.86 Q138.978 1364.27 137.033 1365.15 L137.033 1347.79 Z" fill="#000000" fill-rule="nonzero" fill-opacity="1" /><path clip-path="url(#clip190)" d="M50.9921 1295.74 L80.6679 1295.74 L80.6679 1299.68 L50.9921 1299.68 L50.9921 1295.74 Z" fill="#000000" fill-rule="nonzero" fill-opacity="1" /><path clip-path="url(#clip190)" d="M91.5706 1308.64 L99.2095 1308.64 L99.2095 1282.27 L90.8993 1283.94 L90.8993 1279.68 L99.1632 1278.01 L103.839 1278.01 L103.839 1308.64 L111.478 1308.64 L111.478 1312.57 L91.5706 1312.57 L91.5706 1308.64 Z" fill="#000000" fill-rule="nonzero" fill-opacity="1" /><path clip-path="url(#clip190)" d="M120.922 1306.69 L125.807 1306.69 L125.807 1312.57 L120.922 1312.57 L120.922 1306.69 Z" fill="#000000" fill-rule="nonzero" fill-opacity="1" /><path clip-path="url(#clip190)" d="M145.992 1281.09 Q142.381 1281.09 140.552 1284.65 Q138.746 1288.2 138.746 1295.32 Q138.746 1302.43 140.552 1306 Q142.381 1309.54 145.992 1309.54 Q149.626 1309.54 151.431 1306 Q153.26 1302.43 153.26 1295.32 Q153.26 1288.2 151.431 1284.65 Q149.626 1281.09 145.992 1281.09 M145.992 1277.39 Q151.802 1277.39 154.857 1281.99 Q157.936 1286.57 157.936 1295.32 Q157.936 1304.05 154.857 1308.66 Q151.802 1313.24 145.992 1313.24 Q140.181 1313.24 137.103 1308.66 Q134.047 1304.05 134.047 1295.32 Q134.047 1286.57 137.103 1281.99 Q140.181 1277.39 145.992 1277.39 Z" fill="#000000" fill-rule="nonzero" fill-opacity="1" /><path clip-path="url(#clip190)" d="M51.9875 1225.96 L81.6633 1225.96 L81.6633 1229.89 L51.9875 1229.89 L51.9875 1225.96 Z" fill="#000000" fill-rule="nonzero" fill-opacity="1" /><path clip-path="url(#clip190)" d="M101.756 1211.31 Q98.1447 1211.31 96.316 1214.87 Q94.5104 1218.41 94.5104 1225.54 Q94.5104 1232.65 96.316 1236.21 Q98.1447 1239.76 101.756 1239.76 Q105.39 1239.76 107.196 1236.21 Q109.024 1232.65 109.024 1225.54 Q109.024 1218.41 107.196 1214.87 Q105.39 1211.31 101.756 1211.31 M101.756 1207.6 Q107.566 1207.6 110.621 1212.21 Q113.7 1216.79 113.7 1225.54 Q113.7 1234.27 110.621 1238.88 Q107.566 1243.46 101.756 1243.46 Q95.9456 1243.46 92.8669 1238.88 Q89.8114 1234.27 89.8114 1225.54 Q89.8114 1216.79 92.8669 1212.21 Q95.9456 1207.6 101.756 1207.6 Z" fill="#000000" fill-rule="nonzero" fill-opacity="1" /><path clip-path="url(#clip190)" d="M121.918 1236.91 L126.802 1236.91 L126.802 1242.79 L121.918 1242.79 L121.918 1236.91 Z" fill="#000000" fill-rule="nonzero" fill-opacity="1" /><path clip-path="url(#clip190)" d="M137.033 1208.23 L155.39 1208.23 L155.39 1212.16 L141.316 1212.16 L141.316 1220.64 Q142.334 1220.29 143.353 1220.13 Q144.371 1219.94 145.39 1219.94 Q151.177 1219.94 154.556 1223.11 Q157.936 1226.28 157.936 1231.7 Q157.936 1237.28 154.464 1240.38 Q150.992 1243.46 144.672 1243.46 Q142.496 1243.46 140.228 1243.09 Q137.982 1242.72 135.575 1241.98 L135.575 1237.28 Q137.658 1238.41 139.881 1238.97 Q142.103 1239.52 144.58 1239.52 Q148.584 1239.52 150.922 1237.42 Q153.26 1235.31 153.26 1231.7 Q153.26 1228.09 150.922 1225.98 Q148.584 1223.88 144.58 1223.88 Q142.705 1223.88 140.83 1224.29 Q138.978 1224.71 137.033 1225.59 L137.033 1208.23 Z" fill="#000000" fill-rule="nonzero" fill-opacity="1" /><path clip-path="url(#clip190)" d="M100.76 1141.52 Q97.1493 1141.52 95.3206 1145.09 Q93.515 1148.63 93.515 1155.76 Q93.515 1162.87 95.3206 1166.43 Q97.1493 1169.97 100.76 1169.97 Q104.395 1169.97 106.2 1166.43 Q108.029 1162.87 108.029 1155.76 Q108.029 1148.63 106.2 1145.09 Q104.395 1141.52 100.76 1141.52 M100.76 1137.82 Q106.571 1137.82 109.626 1142.43 Q112.705 1147.01 112.705 1155.76 Q112.705 1164.49 109.626 1169.09 Q106.571 1173.68 100.76 1173.68 Q94.9502 1173.68 91.8715 1169.09 Q88.816 1164.49 88.816 1155.76 Q88.816 1147.01 91.8715 1142.43 Q94.9502 1137.82 100.76 1137.82 Z" fill="#000000" fill-rule="nonzero" fill-opacity="1" /><path clip-path="url(#clip190)" d="M120.922 1167.13 L125.807 1167.13 L125.807 1173.01 L120.922 1173.01 L120.922 1167.13 Z" fill="#000000" fill-rule="nonzero" fill-opacity="1" /><path clip-path="url(#clip190)" d="M145.992 1141.52 Q142.381 1141.52 140.552 1145.09 Q138.746 1148.63 138.746 1155.76 Q138.746 1162.87 140.552 1166.43 Q142.381 1169.97 145.992 1169.97 Q149.626 1169.97 151.431 1166.43 Q153.26 1162.87 153.26 1155.76 Q153.26 1148.63 151.431 1145.09 Q149.626 1141.52 145.992 1141.52 M145.992 1137.82 Q151.802 1137.82 154.857 1142.43 Q157.936 1147.01 157.936 1155.76 Q157.936 1164.49 154.857 1169.09 Q151.802 1173.68 145.992 1173.68 Q140.181 1173.68 137.103 1169.09 Q134.047 1164.49 134.047 1155.76 Q134.047 1147.01 137.103 1142.43 Q140.181 1137.82 145.992 1137.82 Z" fill="#000000" fill-rule="nonzero" fill-opacity="1" /><path clip-path="url(#clip190)" d="M101.756 1071.74 Q98.1447 1071.74 96.316 1075.31 Q94.5104 1078.85 94.5104 1085.98 Q94.5104 1093.08 96.316 1096.65 Q98.1447 1100.19 101.756 1100.19 Q105.39 1100.19 107.196 1096.65 Q109.024 1093.08 109.024 1085.98 Q109.024 1078.85 107.196 1075.31 Q105.39 1071.74 101.756 1071.74 M101.756 1068.04 Q107.566 1068.04 110.621 1072.64 Q113.7 1077.23 113.7 1085.98 Q113.7 1094.7 110.621 1099.31 Q107.566 1103.89 101.756 1103.89 Q95.9456 1103.89 92.8669 1099.31 Q89.8114 1094.7 89.8114 1085.98 Q89.8114 1077.23 92.8669 1072.64 Q95.9456 1068.04 101.756 1068.04 Z" fill="#000000" fill-rule="nonzero" fill-opacity="1" /><path clip-path="url(#clip190)" d="M121.918 1097.34 L126.802 1097.34 L126.802 1103.22 L121.918 1103.22 L121.918 1097.34 Z" fill="#000000" fill-rule="nonzero" fill-opacity="1" /><path clip-path="url(#clip190)" d="M137.033 1068.66 L155.39 1068.66 L155.39 1072.6 L141.316 1072.6 L141.316 1081.07 Q142.334 1080.72 143.353 1080.56 Q144.371 1080.38 145.39 1080.38 Q151.177 1080.38 154.556 1083.55 Q157.936 1086.72 157.936 1092.14 Q157.936 1097.71 154.464 1100.82 Q150.992 1103.89 144.672 1103.89 Q142.496 1103.89 140.228 1103.52 Q137.982 1103.15 135.575 1102.41 L135.575 1097.71 Q137.658 1098.85 139.881 1099.4 Q142.103 1099.96 144.58 1099.96 Q148.584 1099.96 150.922 1097.85 Q153.26 1095.75 153.26 1092.14 Q153.26 1088.52 150.922 1086.42 Q148.584 1084.31 144.58 1084.31 Q142.705 1084.31 140.83 1084.73 Q138.978 1085.14 137.033 1086.02 L137.033 1068.66 Z" fill="#000000" fill-rule="nonzero" fill-opacity="1" /><path clip-path="url(#clip190)" d="M91.5706 1029.51 L99.2095 1029.51 L99.2095 1003.14 L90.8993 1004.81 L90.8993 1000.55 L99.1632 998.881 L103.839 998.881 L103.839 1029.51 L111.478 1029.51 L111.478 1033.44 L91.5706 1033.44 L91.5706 1029.51 Z" fill="#000000" fill-rule="nonzero" fill-opacity="1" /><path clip-path="url(#clip190)" d="M120.922 1027.56 L125.807 1027.56 L125.807 1033.44 L120.922 1033.44 L120.922 1027.56 Z" fill="#000000" fill-rule="nonzero" fill-opacity="1" /><path clip-path="url(#clip190)" d="M145.992 1001.96 Q142.381 1001.96 140.552 1005.52 Q138.746 1009.07 138.746 1016.2 Q138.746 1023.3 140.552 1026.87 Q142.381 1030.41 145.992 1030.41 Q149.626 1030.41 151.431 1026.87 Q153.26 1023.3 153.26 1016.2 Q153.26 1009.07 151.431 1005.52 Q149.626 1001.96 145.992 1001.96 M145.992 998.256 Q151.802 998.256 154.857 1002.86 Q157.936 1007.45 157.936 1016.2 Q157.936 1024.92 154.857 1029.53 Q151.802 1034.11 145.992 1034.11 Q140.181 1034.11 137.103 1029.53 Q134.047 1024.92 134.047 1016.2 Q134.047 1007.45 137.103 1002.86 Q140.181 998.256 145.992 998.256 Z" fill="#000000" fill-rule="nonzero" fill-opacity="1" /><path clip-path="url(#clip190)" d="M92.566 959.724 L100.205 959.724 L100.205 933.358 L91.8947 935.025 L91.8947 930.765 L100.159 929.099 L104.834 929.099 L104.834 959.724 L112.473 959.724 L112.473 963.659 L92.566 963.659 L92.566 959.724 Z" fill="#000000" fill-rule="nonzero" fill-opacity="1" /><path clip-path="url(#clip190)" d="M121.918 957.779 L126.802 957.779 L126.802 963.659 L121.918 963.659 L121.918 957.779 Z" fill="#000000" fill-rule="nonzero" fill-opacity="1" /><path clip-path="url(#clip190)" d="M137.033 929.099 L155.39 929.099 L155.39 933.034 L141.316 933.034 L141.316 941.506 Q142.334 941.159 143.353 940.997 Q144.371 940.812 145.39 940.812 Q151.177 940.812 154.556 943.983 Q157.936 947.154 157.936 952.571 Q157.936 958.15 154.464 961.251 Q150.992 964.33 144.672 964.33 Q142.496 964.33 140.228 963.96 Q137.982 963.589 135.575 962.849 L135.575 958.15 Q137.658 959.284 139.881 959.839 Q142.103 960.395 144.58 960.395 Q148.584 960.395 150.922 958.288 Q153.26 956.182 153.26 952.571 Q153.26 948.96 150.922 946.853 Q148.584 944.747 144.58 944.747 Q142.705 944.747 140.83 945.163 Q138.978 945.58 137.033 946.46 L137.033 929.099 Z" fill="#000000" fill-rule="nonzero" fill-opacity="1" /><polyline clip-path="url(#clip193)" style="stroke:#009af9; stroke-linecap:round; stroke-linejoin:round; stroke-width:4; stroke-opacity:1; fill:none" points="255.035,1132.58 265.269,1156.24 275.503,1162.43 285.738,1122.33 295.972,1174.03 306.206,1151.57 316.44,1140.65 326.675,1144.26 336.909,1188.19 347.143,1151.52 357.378,1161.93 367.612,1214.99 377.846,1317.83 388.08,1307.64 398.315,1290.61 408.549,1278.41 418.783,1310.98 429.018,1278.41 439.252,1261.49 449.486,1254.71 459.72,1273.64 469.955,1304.03 480.189,1290.4 490.423,1186.89 500.657,1171.06 510.892,1149.27 521.126,1227.21 531.36,1234.6 541.595,1175.43 551.829,1194.98 562.063,1242.43 572.297,1220.45 582.532,1236.82 592.766,1159.32 603,1094.62 613.235,1024.64 623.469,977.336 633.703,1039.69 643.937,1005.11 654.172,1024.11 664.406,972.942 674.64,928.522 684.875,900.579 695.109,963.184 705.343,916.329 715.577,952.369 725.812,971.502 736.046,998.757 746.28,1052.07 756.515,1080.38 766.749,1152.55 776.983,1177.26 787.217,1174.67 797.452,1165.3 807.686,1145.79 817.92,1183.33 828.155,1096.64 838.389,1126.52 848.623,1080.5 858.857,1077.59 869.092,1087.26 879.326,1039.78 889.56,1029.74 899.795,1050.26 910.029,1094.62 920.263,1013.2 930.497,1107.14 940.732,1064.36 950.966,1066.56 961.2,1097.4 971.435,1046.61 981.669,1063.41 991.903,1032.41 1002.14,999.311 1012.37,959.488 1022.61,1017.53 1032.84,992.505 1043.07,941.543 1053.31,958.087 1063.54,932.528 1073.78,1010.64 1084.01,994.892 1094.25,988.222 1104.48,1003.45 1114.71,1007.88 1124.95,1075.67 1135.18,1075.32 1145.42,1078.67 1155.65,1149.24 1165.89,1174.4 1176.12,1098.96 1186.35,1091.77 1196.59,1107.85 1206.82,1084.03 1217.06,1013.25 1227.29,1052.04 1237.53,1080.76 1247.76,1044.47 1257.99,1099.74 1268.23,1112.59 1278.46,1106.68 1288.7,1136.96 1298.93,1126.22 1309.17,1159.8 1319.4,1106.96 1329.63,1125.94 1339.87,1134.14 1350.1,1198.44 1360.34,1261.86 1370.57,1259.83 1380.81,1245.06 1391.04,1231.07 1401.27,1208.67 1411.51,1169.61 1421.74,1131.23 1431.98,1146.23 1442.21,1128.54 1452.45,1100.57 1462.68,1138.71 1472.91,1164.59 1483.15,1087.35 1493.38,1133.31 1503.62,1209.86 1513.85,1154.79 1524.09,1150.88 1534.32,1137.96 1544.55,1174.82 1554.79,1114.57 1565.02,1066.2 1575.26,1081.65 1585.49,1079.63 1595.73,1089.72 1605.96,1103.4 1616.19,1094.13 1626.43,1068.63 1636.66,1120.32 1646.9,1130.62 1657.13,1189.4 1667.37,1207.74 1677.6,1258.65 1687.83,1250.86 1698.07,1292.69 1708.3,1318.53 1718.54,1336.35 1728.77,1397.9 1739.01,1407.96 1749.24,1376.73 1759.47,1340.6 1769.71,1320.97 1779.94,1292.05 1790.18,1262.29 1800.41,1267.11 1810.65,1331.95 1820.88,1285.81 1831.11,1322.85 1841.35,1274.78 1851.58,1305.02 1861.82,1321.09 1872.05,1265.75 1882.29,1270.27 1892.52,1253.33 1902.75,1260.58 1912.99,1302.42 1923.22,1261.8 1933.46,1239.49 1943.69,1245.08 1953.93,1200.34 1964.16,1166.07 1974.39,1173.45 1984.63,1140.63 1994.86,1195 2005.1,1188.5 2015.33,1154.89 2025.57,1123.1 2035.8,1092.31 2046.03,1040.05 2056.27,1044.31 2066.5,1041.33 2076.74,1030.32 2086.97,994.759 2097.21,912.017 2107.44,934.794 2117.67,903.7 2127.91,987.721 2138.14,939.331 2148.38,962.895 2158.61,907.819 2168.85,1009.43 2179.08,1065.66 2189.31,1105.33 2199.55,1115.93 2209.78,1114.39 2220.02,1124.53 2230.25,1052.96 2240.49,1017.84 2250.72,1084.72 2260.95,1093.36 2271.19,1021.83 2281.42,1016.02 2291.66,997.552 "/>
<path clip-path="url(#clip190)" d="M2012.81 1405.25 L2280.8 1405.25 L2280.8 1301.57 L2012.81 1301.57  Z" fill="#ffffff" fill-rule="evenodd" fill-opacity="1"/>
<polyline clip-path="url(#clip190)" style="stroke:#000000; stroke-linecap:round; stroke-linejoin:round; stroke-width:4; stroke-opacity:1; fill:none" points="2012.81,1405.25 2280.8,1405.25 2280.8,1301.57 2012.81,1301.57 2012.81,1405.25 "/>
<polyline clip-path="url(#clip190)" style="stroke:#009af9; stroke-linecap:round; stroke-linejoin:round; stroke-width:4; stroke-opacity:1; fill:none" points="2036.79,1353.41 2180.72,1353.41 "/>
<path clip-path="url(#clip190)" d="M2229.35 1344.77 L2219.98 1357.38 L2229.84 1370.69 L2224.82 1370.69 L2217.27 1360.51 L2209.73 1370.69 L2204.7 1370.69 L2214.77 1357.13 L2205.56 1344.77 L2210.58 1344.77 L2217.46 1354 L2224.33 1344.77 L2229.35 1344.77 Z" fill="#000000" fill-rule="nonzero" fill-opacity="1" /><path clip-path="url(#clip190)" d="M2240.49 1366.76 L2256.81 1366.76 L2256.81 1370.69 L2234.86 1370.69 L2234.86 1366.76 Q2237.53 1364 2242.11 1359.37 Q2246.72 1354.72 2247.9 1353.38 Q2250.14 1350.85 2251.02 1349.12 Q2251.92 1347.36 2251.92 1345.67 Q2251.92 1342.91 2249.98 1341.18 Q2248.06 1339.44 2244.96 1339.44 Q2242.76 1339.44 2240.3 1340.21 Q2237.87 1340.97 2235.1 1342.52 L2235.1 1337.8 Q2237.92 1336.66 2240.37 1336.09 Q2242.83 1335.51 2244.86 1335.51 Q2250.23 1335.51 2253.43 1338.19 Q2256.62 1340.88 2256.62 1345.37 Q2256.62 1347.5 2255.81 1349.42 Q2255.03 1351.32 2252.92 1353.91 Q2252.34 1354.58 2249.24 1357.8 Q2246.14 1360.99 2240.49 1366.76 Z" fill="#000000" fill-rule="nonzero" fill-opacity="1" /></svg>
