<?xml version="1.0" encoding="utf-8"?>
<svg xmlns="http://www.w3.org/2000/svg" xmlns:xlink="http://www.w3.org/1999/xlink" width="600" height="400" viewBox="0 0 2400 1600">
<defs>
  <clipPath id="clip020">
    <rect x="0" y="0" width="2400" height="1600"/>
  </clipPath>
</defs>
<path clip-path="url(#clip020)" d="M0 1600 L2400 1600 L2400 0 L0 0  Z" fill="#ffffff" fill-rule="evenodd" fill-opacity="1"/>
<defs>
  <clipPath id="clip021">
    <rect x="480" y="0" width="1681" height="1600"/>
  </clipPath>
</defs>
<path clip-path="url(#clip020)" d="M193.936 1423.18 L2352.76 1423.18 L2352.76 47.2441 L193.936 47.2441  Z" fill="#ffffff" fill-rule="evenodd" fill-opacity="1"/>
<defs>
  <clipPath id="clip022">
    <rect x="193" y="47" width="2160" height="1377"/>
  </clipPath>
</defs>
<polyline clip-path="url(#clip022)" style="stroke:#000000; stroke-linecap:round; stroke-linejoin:round; stroke-width:2; stroke-opacity:0.1; fill:none" points="255.035,1423.18 255.035,47.2441 "/>
<polyline clip-path="url(#clip022)" style="stroke:#000000; stroke-linecap:round; stroke-linejoin:round; stroke-width:2; stroke-opacity:0.1; fill:none" points="662.359,1423.18 662.359,47.2441 "/>
<polyline clip-path="url(#clip022)" style="stroke:#000000; stroke-linecap:round; stroke-linejoin:round; stroke-width:2; stroke-opacity:0.1; fill:none" points="1069.68,1423.18 1069.68,47.2441 "/>
<polyline clip-path="url(#clip022)" style="stroke:#000000; stroke-linecap:round; stroke-linejoin:round; stroke-width:2; stroke-opacity:0.1; fill:none" points="1477.01,1423.18 1477.01,47.2441 "/>
<polyline clip-path="url(#clip022)" style="stroke:#000000; stroke-linecap:round; stroke-linejoin:round; stroke-width:2; stroke-opacity:0.1; fill:none" points="1884.33,1423.18 1884.33,47.2441 "/>
<polyline clip-path="url(#clip022)" style="stroke:#000000; stroke-linecap:round; stroke-linejoin:round; stroke-width:2; stroke-opacity:0.1; fill:none" points="2291.66,1423.18 2291.66,47.2441 "/>
<polyline clip-path="url(#clip020)" style="stroke:#000000; stroke-linecap:round; stroke-linejoin:round; stroke-width:4; stroke-opacity:1; fill:none" points="193.936,1423.18 2352.76,1423.18 "/>
<polyline clip-path="url(#clip020)" style="stroke:#000000; stroke-linecap:round; stroke-linejoin:round; stroke-width:4; stroke-opacity:1; fill:none" points="255.035,1423.18 255.035,1404.28 "/>
<polyline clip-path="url(#clip020)" style="stroke:#000000; stroke-linecap:round; stroke-linejoin:round; stroke-width:4; stroke-opacity:1; fill:none" points="662.359,1423.18 662.359,1404.28 "/>
<polyline clip-path="url(#clip020)" style="stroke:#000000; stroke-linecap:round; stroke-linejoin:round; stroke-width:4; stroke-opacity:1; fill:none" points="1069.68,1423.18 1069.68,1404.28 "/>
<polyline clip-path="url(#clip020)" style="stroke:#000000; stroke-linecap:round; stroke-linejoin:round; stroke-width:4; stroke-opacity:1; fill:none" points="1477.01,1423.18 1477.01,1404.28 "/>
<polyline clip-path="url(#clip020)" style="stroke:#000000; stroke-linecap:round; stroke-linejoin:round; stroke-width:4; stroke-opacity:1; fill:none" points="1884.33,1423.18 1884.33,1404.28 "/>
<polyline clip-path="url(#clip020)" style="stroke:#000000; stroke-linecap:round; stroke-linejoin:round; stroke-width:4; stroke-opacity:1; fill:none" points="2291.66,1423.18 2291.66,1404.28 "/>
<path clip-path="url(#clip020)" d="M255.035 1454.1 Q251.424 1454.1 249.595 1457.66 Q247.789 1461.2 247.789 1468.33 Q247.789 1475.44 249.595 1479.01 Q251.424 1482.55 255.035 1482.55 Q258.669 1482.55 260.474 1479.01 Q262.303 1475.44 262.303 1468.33 Q262.303 1461.2 260.474 1457.66 Q258.669 1454.1 255.035 1454.1 M255.035 1450.39 Q260.845 1450.39 263.9 1455 Q266.979 1459.58 266.979 1468.33 Q266.979 1477.06 263.9 1481.67 Q260.845 1486.25 255.035 1486.25 Q249.225 1486.25 246.146 1481.67 Q243.09 1477.06 243.09 1468.33 Q243.09 1459.58 246.146 1455 Q249.225 1450.39 255.035 1450.39 Z" fill="#000000" fill-rule="nonzero" fill-opacity="1" /><path clip-path="url(#clip020)" d="M652.741 1481.64 L660.38 1481.64 L660.38 1455.28 L652.07 1456.95 L652.07 1452.69 L660.334 1451.02 L665.01 1451.02 L665.01 1481.64 L672.648 1481.64 L672.648 1485.58 L652.741 1485.58 L652.741 1481.64 Z" fill="#000000" fill-rule="nonzero" fill-opacity="1" /><path clip-path="url(#clip020)" d="M1064.34 1481.64 L1080.66 1481.64 L1080.66 1485.58 L1058.71 1485.58 L1058.71 1481.64 Q1061.37 1478.89 1065.96 1474.26 Q1070.56 1469.61 1071.74 1468.27 Q1073.99 1465.74 1074.87 1464.01 Q1075.77 1462.25 1075.77 1460.56 Q1075.77 1457.8 1073.83 1456.07 Q1071.91 1454.33 1068.8 1454.33 Q1066.61 1454.33 1064.15 1455.09 Q1061.72 1455.86 1058.94 1457.41 L1058.94 1452.69 Q1061.77 1451.55 1064.22 1450.97 Q1066.67 1450.39 1068.71 1450.39 Q1074.08 1450.39 1077.28 1453.08 Q1080.47 1455.77 1080.47 1460.26 Q1080.47 1462.39 1079.66 1464.31 Q1078.87 1466.2 1076.77 1468.8 Q1076.19 1469.47 1073.09 1472.69 Q1069.98 1475.88 1064.34 1481.64 Z" fill="#000000" fill-rule="nonzero" fill-opacity="1" /><path clip-path="url(#clip020)" d="M1481.26 1466.95 Q1484.61 1467.66 1486.49 1469.93 Q1488.39 1472.2 1488.39 1475.53 Q1488.39 1480.65 1484.87 1483.45 Q1481.35 1486.25 1474.87 1486.25 Q1472.69 1486.25 1470.38 1485.81 Q1468.08 1485.39 1465.63 1484.54 L1465.63 1480.02 Q1467.58 1481.16 1469.89 1481.74 Q1472.2 1482.32 1474.73 1482.32 Q1479.13 1482.32 1481.42 1480.58 Q1483.73 1478.84 1483.73 1475.53 Q1483.73 1472.48 1481.58 1470.77 Q1479.45 1469.03 1475.63 1469.03 L1471.6 1469.03 L1471.6 1465.19 L1475.82 1465.19 Q1479.27 1465.19 1481.09 1463.82 Q1482.92 1462.43 1482.92 1459.84 Q1482.92 1457.18 1481.02 1455.77 Q1479.15 1454.33 1475.63 1454.33 Q1473.71 1454.33 1471.51 1454.75 Q1469.31 1455.16 1466.67 1456.04 L1466.67 1451.88 Q1469.33 1451.14 1471.65 1450.77 Q1473.99 1450.39 1476.05 1450.39 Q1481.37 1450.39 1484.47 1452.83 Q1487.58 1455.23 1487.58 1459.35 Q1487.58 1462.22 1485.93 1464.21 Q1484.29 1466.18 1481.26 1466.95 Z" fill="#000000" fill-rule="nonzero" fill-opacity="1" /><path clip-path="url(#clip020)" d="M1887.34 1455.09 L1875.54 1473.54 L1887.34 1473.54 L1887.34 1455.09 M1886.12 1451.02 L1891.99 1451.02 L1891.99 1473.54 L1896.93 1473.54 L1896.93 1477.43 L1891.99 1477.43 L1891.99 1485.58 L1887.34 1485.58 L1887.34 1477.43 L1871.74 1477.43 L1871.74 1472.92 L1886.12 1451.02 Z" fill="#000000" fill-rule="nonzero" fill-opacity="1" /><path clip-path="url(#clip020)" d="M2281.94 1451.02 L2300.29 1451.02 L2300.29 1454.96 L2286.22 1454.96 L2286.22 1463.43 Q2287.24 1463.08 2288.25 1462.92 Q2289.27 1462.73 2290.29 1462.73 Q2296.08 1462.73 2299.46 1465.9 Q2302.84 1469.08 2302.84 1474.49 Q2302.84 1480.07 2299.37 1483.17 Q2295.89 1486.25 2289.57 1486.25 Q2287.4 1486.25 2285.13 1485.88 Q2282.88 1485.51 2280.48 1484.77 L2280.48 1480.07 Q2282.56 1481.2 2284.78 1481.76 Q2287 1482.32 2289.48 1482.32 Q2293.49 1482.32 2295.82 1480.21 Q2298.16 1478.1 2298.16 1474.49 Q2298.16 1470.88 2295.82 1468.77 Q2293.49 1466.67 2289.48 1466.67 Q2287.61 1466.67 2285.73 1467.08 Q2283.88 1467.5 2281.94 1468.38 L2281.94 1451.02 Z" fill="#000000" fill-rule="nonzero" fill-opacity="1" /><path clip-path="url(#clip020)" d="M1272.41 1522.27 L1272.41 1532.4 L1284.47 1532.4 L1284.47 1536.95 L1272.41 1536.95 L1272.41 1556.3 Q1272.41 1560.66 1273.58 1561.9 Q1274.79 1563.14 1278.45 1563.14 L1284.47 1563.14 L1284.47 1568.04 L1278.45 1568.04 Q1271.67 1568.04 1269.1 1565.53 Q1266.52 1562.98 1266.52 1556.3 L1266.52 1536.95 L1262.22 1536.95 L1262.22 1532.4 L1266.52 1532.4 L1266.52 1522.27 L1272.41 1522.27 Z" fill="#000000" fill-rule="nonzero" fill-opacity="1" /><polyline clip-path="url(#clip022)" style="stroke:#000000; stroke-linecap:round; stroke-linejoin:round; stroke-width:2; stroke-opacity:0.1; fill:none" points="193.936,1295.05 2352.76,1295.05 "/>
<polyline clip-path="url(#clip022)" style="stroke:#000000; stroke-linecap:round; stroke-linejoin:round; stroke-width:2; stroke-opacity:0.1; fill:none" points="193.936,1111.2 2352.76,1111.2 "/>
<polyline clip-path="url(#clip022)" style="stroke:#000000; stroke-linecap:round; stroke-linejoin:round; stroke-width:2; stroke-opacity:0.1; fill:none" points="193.936,927.343 2352.76,927.343 "/>
<polyline clip-path="url(#clip022)" style="stroke:#000000; stroke-linecap:round; stroke-linejoin:round; stroke-width:2; stroke-opacity:0.1; fill:none" points="193.936,743.491 2352.76,743.491 "/>
<polyline clip-path="url(#clip022)" style="stroke:#000000; stroke-linecap:round; stroke-linejoin:round; stroke-width:2; stroke-opacity:0.1; fill:none" points="193.936,559.638 2352.76,559.638 "/>
<polyline clip-path="url(#clip022)" style="stroke:#000000; stroke-linecap:round; stroke-linejoin:round; stroke-width:2; stroke-opacity:0.1; fill:none" points="193.936,375.785 2352.76,375.785 "/>
<polyline clip-path="url(#clip022)" style="stroke:#000000; stroke-linecap:round; stroke-linejoin:round; stroke-width:2; stroke-opacity:0.1; fill:none" points="193.936,191.932 2352.76,191.932 "/>
<polyline clip-path="url(#clip020)" style="stroke:#000000; stroke-linecap:round; stroke-linejoin:round; stroke-width:4; stroke-opacity:1; fill:none" points="193.936,1423.18 193.936,47.2441 "/>
<polyline clip-path="url(#clip020)" style="stroke:#000000; stroke-linecap:round; stroke-linejoin:round; stroke-width:4; stroke-opacity:1; fill:none" points="193.936,1295.05 212.834,1295.05 "/>
<polyline clip-path="url(#clip020)" style="stroke:#000000; stroke-linecap:round; stroke-linejoin:round; stroke-width:4; stroke-opacity:1; fill:none" points="193.936,1111.2 212.834,1111.2 "/>
<polyline clip-path="url(#clip020)" style="stroke:#000000; stroke-linecap:round; stroke-linejoin:round; stroke-width:4; stroke-opacity:1; fill:none" points="193.936,927.343 212.834,927.343 "/>
<polyline clip-path="url(#clip020)" style="stroke:#000000; stroke-linecap:round; stroke-linejoin:round; stroke-width:4; stroke-opacity:1; fill:none" points="193.936,743.491 212.834,743.491 "/>
<polyline clip-path="url(#clip020)" style="stroke:#000000; stroke-linecap:round; stroke-linejoin:round; stroke-width:4; stroke-opacity:1; fill:none" points="193.936,559.638 212.834,559.638 "/>
<polyline clip-path="url(#clip020)" style="stroke:#000000; stroke-linecap:round; stroke-linejoin:round; stroke-width:4; stroke-opacity:1; fill:none" points="193.936,375.785 212.834,375.785 "/>
<polyline clip-path="url(#clip020)" style="stroke:#000000; stroke-linecap:round; stroke-linejoin:round; stroke-width:4; stroke-opacity:1; fill:none" points="193.936,191.932 212.834,191.932 "/>
<path clip-path="url(#clip020)" d="M51.9875 1295.5 L81.6633 1295.5 L81.6633 1299.44 L51.9875 1299.44 L51.9875 1295.5 Z" fill="#000000" fill-rule="nonzero" fill-opacity="1" /><path clip-path="url(#clip020)" d="M92.566 1308.39 L100.205 1308.39 L100.205 1282.03 L91.8947 1283.69 L91.8947 1279.44 L100.159 1277.77 L104.834 1277.77 L104.834 1308.39 L112.473 1308.39 L112.473 1312.33 L92.566 1312.33 L92.566 1308.39 Z" fill="#000000" fill-rule="nonzero" fill-opacity="1" /><path clip-path="url(#clip020)" d="M121.918 1306.45 L126.802 1306.45 L126.802 1312.33 L121.918 1312.33 L121.918 1306.45 Z" fill="#000000" fill-rule="nonzero" fill-opacity="1" /><path clip-path="url(#clip020)" d="M137.033 1277.77 L155.39 1277.77 L155.39 1281.7 L141.316 1281.7 L141.316 1290.18 Q142.334 1289.83 143.353 1289.67 Q144.371 1289.48 145.39 1289.48 Q151.177 1289.48 154.556 1292.65 Q157.936 1295.82 157.936 1301.24 Q157.936 1306.82 154.464 1309.92 Q150.992 1313 144.672 1313 Q142.496 1313 140.228 1312.63 Q137.982 1312.26 135.575 1311.52 L135.575 1306.82 Q137.658 1307.95 139.881 1308.51 Q142.103 1309.06 144.58 1309.06 Q148.584 1309.06 150.922 1306.96 Q153.26 1304.85 153.26 1301.24 Q153.26 1297.63 150.922 1295.52 Q148.584 1293.42 144.58 1293.42 Q142.705 1293.42 140.83 1293.83 Q138.978 1294.25 137.033 1295.13 L137.033 1277.77 Z" fill="#000000" fill-rule="nonzero" fill-opacity="1" /><path clip-path="url(#clip020)" d="M50.9921 1111.65 L80.6679 1111.65 L80.6679 1115.58 L50.9921 1115.58 L50.9921 1111.65 Z" fill="#000000" fill-rule="nonzero" fill-opacity="1" /><path clip-path="url(#clip020)" d="M91.5706 1124.54 L99.2095 1124.54 L99.2095 1098.18 L90.8993 1099.84 L90.8993 1095.58 L99.1632 1093.92 L103.839 1093.92 L103.839 1124.54 L111.478 1124.54 L111.478 1128.48 L91.5706 1128.48 L91.5706 1124.54 Z" fill="#000000" fill-rule="nonzero" fill-opacity="1" /><path clip-path="url(#clip020)" d="M120.922 1122.6 L125.807 1122.6 L125.807 1128.48 L120.922 1128.48 L120.922 1122.6 Z" fill="#000000" fill-rule="nonzero" fill-opacity="1" /><path clip-path="url(#clip020)" d="M145.992 1096.99 Q142.381 1096.99 140.552 1100.56 Q138.746 1104.1 138.746 1111.23 Q138.746 1118.34 140.552 1121.9 Q142.381 1125.44 145.992 1125.44 Q149.626 1125.44 151.431 1121.9 Q153.26 1118.34 153.26 1111.23 Q153.26 1104.1 151.431 1100.56 Q149.626 1096.99 145.992 1096.99 M145.992 1093.29 Q151.802 1093.29 154.857 1097.9 Q157.936 1102.48 157.936 1111.23 Q157.936 1119.96 154.857 1124.56 Q151.802 1129.15 145.992 1129.15 Q140.181 1129.15 137.103 1124.56 Q134.047 1119.96 134.047 1111.23 Q134.047 1102.48 137.103 1097.9 Q140.181 1093.29 145.992 1093.29 Z" fill="#000000" fill-rule="nonzero" fill-opacity="1" /><path clip-path="url(#clip020)" d="M51.9875 927.795 L81.6633 927.795 L81.6633 931.73 L51.9875 931.73 L51.9875 927.795 Z" fill="#000000" fill-rule="nonzero" fill-opacity="1" /><path clip-path="url(#clip020)" d="M101.756 913.142 Q98.1447 913.142 96.316 916.707 Q94.5104 920.248 94.5104 927.378 Q94.5104 934.484 96.316 938.049 Q98.1447 941.591 101.756 941.591 Q105.39 941.591 107.196 938.049 Q109.024 934.484 109.024 927.378 Q109.024 920.248 107.196 916.707 Q105.39 913.142 101.756 913.142 M101.756 909.438 Q107.566 909.438 110.621 914.045 Q113.7 918.628 113.7 927.378 Q113.7 936.105 110.621 940.711 Q107.566 945.295 101.756 945.295 Q95.9456 945.295 92.8669 940.711 Q89.8114 936.105 89.8114 927.378 Q89.8114 918.628 92.8669 914.045 Q95.9456 909.438 101.756 909.438 Z" fill="#000000" fill-rule="nonzero" fill-opacity="1" /><path clip-path="url(#clip020)" d="M121.918 938.744 L126.802 938.744 L126.802 944.623 L121.918 944.623 L121.918 938.744 Z" fill="#000000" fill-rule="nonzero" fill-opacity="1" /><path clip-path="url(#clip020)" d="M137.033 910.063 L155.39 910.063 L155.39 913.998 L141.316 913.998 L141.316 922.471 Q142.334 922.123 143.353 921.961 Q144.371 921.776 145.39 921.776 Q151.177 921.776 154.556 924.947 Q157.936 928.119 157.936 933.535 Q157.936 939.114 154.464 942.216 Q150.992 945.295 144.672 945.295 Q142.496 945.295 140.228 944.924 Q137.982 944.554 135.575 943.813 L135.575 939.114 Q137.658 940.248 139.881 940.804 Q142.103 941.359 144.58 941.359 Q148.584 941.359 150.922 939.253 Q153.26 937.146 153.26 933.535 Q153.26 929.924 150.922 927.818 Q148.584 925.711 144.58 925.711 Q142.705 925.711 140.83 926.128 Q138.978 926.545 137.033 927.424 L137.033 910.063 Z" fill="#000000" fill-rule="nonzero" fill-opacity="1" /><path clip-path="url(#clip020)" d="M100.76 729.289 Q97.1493 729.289 95.3206 732.854 Q93.515 736.396 93.515 743.525 Q93.515 750.632 95.3206 754.196 Q97.1493 757.738 100.76 757.738 Q104.395 757.738 106.2 754.196 Q108.029 750.632 108.029 743.525 Q108.029 736.396 106.2 732.854 Q104.395 729.289 100.76 729.289 M100.76 725.586 Q106.571 725.586 109.626 730.192 Q112.705 734.775 112.705 743.525 Q112.705 752.252 109.626 756.858 Q106.571 761.442 100.76 761.442 Q94.9502 761.442 91.8715 756.858 Q88.816 752.252 88.816 743.525 Q88.816 734.775 91.8715 730.192 Q94.9502 725.586 100.76 725.586 Z" fill="#000000" fill-rule="nonzero" fill-opacity="1" /><path clip-path="url(#clip020)" d="M120.922 754.891 L125.807 754.891 L125.807 760.771 L120.922 760.771 L120.922 754.891 Z" fill="#000000" fill-rule="nonzero" fill-opacity="1" /><path clip-path="url(#clip020)" d="M145.992 729.289 Q142.381 729.289 140.552 732.854 Q138.746 736.396 138.746 743.525 Q138.746 750.632 140.552 754.196 Q142.381 757.738 145.992 757.738 Q149.626 757.738 151.431 754.196 Q153.26 750.632 153.26 743.525 Q153.26 736.396 151.431 732.854 Q149.626 729.289 145.992 729.289 M145.992 725.586 Q151.802 725.586 154.857 730.192 Q157.936 734.775 157.936 743.525 Q157.936 752.252 154.857 756.858 Q151.802 761.442 145.992 761.442 Q140.181 761.442 137.103 756.858 Q134.047 752.252 134.047 743.525 Q134.047 734.775 137.103 730.192 Q140.181 725.586 145.992 725.586 Z" fill="#000000" fill-rule="nonzero" fill-opacity="1" /><path clip-path="url(#clip020)" d="M101.756 545.436 Q98.1447 545.436 96.316 549.001 Q94.5104 552.543 94.5104 559.672 Q94.5104 566.779 96.316 570.344 Q98.1447 573.885 101.756 573.885 Q105.39 573.885 107.196 570.344 Q109.024 566.779 109.024 559.672 Q109.024 552.543 107.196 549.001 Q105.39 545.436 101.756 545.436 M101.756 541.733 Q107.566 541.733 110.621 546.339 Q113.7 550.923 113.7 559.672 Q113.7 568.399 110.621 573.006 Q107.566 577.589 101.756 577.589 Q95.9456 577.589 92.8669 573.006 Q89.8114 568.399 89.8114 559.672 Q89.8114 550.923 92.8669 546.339 Q95.9456 541.733 101.756 541.733 Z" fill="#000000" fill-rule="nonzero" fill-opacity="1" /><path clip-path="url(#clip020)" d="M121.918 571.038 L126.802 571.038 L126.802 576.918 L121.918 576.918 L121.918 571.038 Z" fill="#000000" fill-rule="nonzero" fill-opacity="1" /><path clip-path="url(#clip020)" d="M137.033 542.358 L155.39 542.358 L155.39 546.293 L141.316 546.293 L141.316 554.765 Q142.334 554.418 143.353 554.256 Q144.371 554.071 145.39 554.071 Q151.177 554.071 154.556 557.242 Q157.936 560.413 157.936 565.83 Q157.936 571.409 154.464 574.51 Q150.992 577.589 144.672 577.589 Q142.496 577.589 140.228 577.219 Q137.982 576.848 135.575 576.108 L135.575 571.409 Q137.658 572.543 139.881 573.098 Q142.103 573.654 144.58 573.654 Q148.584 573.654 150.922 571.547 Q153.26 569.441 153.26 565.83 Q153.26 562.219 150.922 560.112 Q148.584 558.006 144.58 558.006 Q142.705 558.006 140.83 558.422 Q138.978 558.839 137.033 559.719 L137.033 542.358 Z" fill="#000000" fill-rule="nonzero" fill-opacity="1" /><path clip-path="url(#clip020)" d="M91.5706 389.13 L99.2095 389.13 L99.2095 362.764 L90.8993 364.431 L90.8993 360.172 L99.1632 358.505 L103.839 358.505 L103.839 389.13 L111.478 389.13 L111.478 393.065 L91.5706 393.065 L91.5706 389.13 Z" fill="#000000" fill-rule="nonzero" fill-opacity="1" /><path clip-path="url(#clip020)" d="M120.922 387.185 L125.807 387.185 L125.807 393.065 L120.922 393.065 L120.922 387.185 Z" fill="#000000" fill-rule="nonzero" fill-opacity="1" /><path clip-path="url(#clip020)" d="M145.992 361.584 Q142.381 361.584 140.552 365.148 Q138.746 368.69 138.746 375.82 Q138.746 382.926 140.552 386.491 Q142.381 390.033 145.992 390.033 Q149.626 390.033 151.431 386.491 Q153.26 382.926 153.26 375.82 Q153.26 368.69 151.431 365.148 Q149.626 361.584 145.992 361.584 M145.992 357.88 Q151.802 357.88 154.857 362.486 Q157.936 367.07 157.936 375.82 Q157.936 384.546 154.857 389.153 Q151.802 393.736 145.992 393.736 Q140.181 393.736 137.103 389.153 Q134.047 384.546 134.047 375.82 Q134.047 367.07 137.103 362.486 Q140.181 357.88 145.992 357.88 Z" fill="#000000" fill-rule="nonzero" fill-opacity="1" /><path clip-path="url(#clip020)" d="M92.566 205.277 L100.205 205.277 L100.205 178.911 L91.8947 180.578 L91.8947 176.319 L100.159 174.652 L104.834 174.652 L104.834 205.277 L112.473 205.277 L112.473 209.212 L92.566 209.212 L92.566 205.277 Z" fill="#000000" fill-rule="nonzero" fill-opacity="1" /><path clip-path="url(#clip020)" d="M121.918 203.333 L126.802 203.333 L126.802 209.212 L121.918 209.212 L121.918 203.333 Z" fill="#000000" fill-rule="nonzero" fill-opacity="1" /><path clip-path="url(#clip020)" d="M137.033 174.652 L155.39 174.652 L155.39 178.587 L141.316 178.587 L141.316 187.06 Q142.334 186.712 143.353 186.55 Q144.371 186.365 145.39 186.365 Q151.177 186.365 154.556 189.536 Q157.936 192.708 157.936 198.124 Q157.936 203.703 154.464 206.805 Q150.992 209.883 144.672 209.883 Q142.496 209.883 140.228 209.513 Q137.982 209.143 135.575 208.402 L135.575 203.703 Q137.658 204.837 139.881 205.393 Q142.103 205.948 144.58 205.948 Q148.584 205.948 150.922 203.842 Q153.26 201.735 153.26 198.124 Q153.26 194.513 150.922 192.407 Q148.584 190.3 144.58 190.3 Q142.705 190.3 140.83 190.717 Q138.978 191.134 137.033 192.013 L137.033 174.652 Z" fill="#000000" fill-rule="nonzero" fill-opacity="1" /><polyline clip-path="url(#clip022)" style="stroke:#009af9; stroke-linecap:round; stroke-linejoin:round; stroke-width:4; stroke-opacity:1; fill:none" points="255.035,681.738 265.269,678.732 275.503,675.294 285.738,668.392 295.972,657.614 306.206,656.061 316.44,647.52 326.675,644.697 336.909,642.767 347.143,642.1 357.378,635.265 367.612,633.132 377.846,652.031 388.08,672.277 398.315,695.476 408.549,719.264 418.783,746.902 429.018,777.285 439.252,801.859 449.486,820.087 459.72,842.815 469.955,878.654 480.189,913.981 490.423,935.74 500.657,949.03 510.892,959.729 521.126,976.155 531.36,1006.6 541.595,1028.49 551.829,1046 562.063,1068.88 572.297,1100.08 582.532,1131.27 592.766,1156.22 603,1171.78 613.235,1173.89 623.469,1167.71 633.703,1162.49 643.937,1158.29 654.172,1151.94 664.406,1144.72 674.64,1125.77 684.875,1095.39 695.109,1075.21 705.343,1052.52 715.577,1027.09 725.812,1003.48 736.046,985.379 746.28,974.287 756.515,969.738 766.749,974.2 776.983,985.725 787.217,1002.04 797.452,1016.38 807.686,1030.35 817.92,1048.55 828.155,1064.39 838.389,1078.66 848.623,1088.06 858.857,1089.86 869.092,1095.64 879.326,1100.89 889.56,1098.21 899.795,1097.71 910.029,1099.63 920.263,1098.08 930.497,1097.49 940.732,1099.57 950.966,1098.08 961.2,1103.62 971.435,1104.46 981.669,1106.84 991.903,1105.07 1002.14,1096.88 1012.37,1078.52 1022.61,1064.58 1032.84,1052.89 1043.07,1032.72 1053.31,1004.67 1063.54,981.477 1073.78,960.033 1084.01,939.524 1094.25,919.842 1104.48,897.808 1114.71,877.49 1124.95,865.102 1135.18,855.54 1145.42,846.458 1155.65,839.348 1165.89,844.007 1176.12,847.491 1186.35,840.424 1196.59,836.914 1206.82,831.189 1217.06,814.012 1227.29,792.341 1237.53,774.845 1247.76,757.087 1257.99,741.764 1268.23,729.587 1278.46,712.239 1288.7,707.559 1298.93,701.218 1309.17,693.853 1319.4,685.963 1329.63,674.89 1339.87,663.446 1350.1,661.613 1360.34,671.488 1370.57,684.696 1380.81,695.946 1391.04,707.772 1401.27,718.55 1411.51,721.109 1421.74,718.543 1431.98,712.171 1442.21,706.401 1452.45,696.624 1462.68,687.026 1472.91,680.423 1483.15,669.78 1493.38,654.422 1503.62,648.765 1513.85,646.053 1524.09,637.239 1534.32,628.188 1544.55,624.652 1554.79,618.392 1565.02,598.74 1575.26,576.294 1585.49,550.896 1595.73,530.439 1605.96,513.143 1616.19,490.173 1626.43,460.694 1636.66,437.567 1646.9,409.349 1657.13,394.601 1667.37,384.163 1677.6,383.707 1687.83,381.762 1698.07,383.301 1708.3,393.976 1718.54,410.379 1728.77,436.15 1739.01,468.487 1749.24,498.035 1759.47,524.794 1769.71,550.33 1779.94,569.053 1790.18,584.586 1800.41,596.768 1810.65,618.447 1820.88,635.196 1831.11,658.151 1841.35,682.596 1851.58,711.667 1861.82,744.023 1872.05,770.456 1882.29,794.933 1892.52,819.181 1902.75,844.553 1912.99,874.837 1923.22,906.254 1933.46,931.633 1943.69,962.749 1953.93,984.7 1964.16,1008.15 1974.39,1020.34 1984.63,1032.1 1994.86,1049.81 2005.1,1073.73 2015.33,1092.74 2025.57,1107.38 2035.8,1119.55 2046.03,1121.81 2056.27,1126.09 2066.5,1120.52 2076.74,1113.8 2086.97,1102.19 2097.21,1083.25 2107.44,1058.71 2117.67,1034.35 2127.91,1013.27 2138.14,992.179 2148.38,966.425 2158.61,935.195 2168.85,905.948 2179.08,888.392 2189.31,884.72 2199.55,888.871 2209.78,885.798 2220.02,888.701 2230.25,883.245 2240.49,866.907 2250.72,851.654 2260.95,847.251 2271.19,835.532 2281.42,817.247 2291.66,795.44 "/>
<circle clip-path="url(#clip022)" cx="255.035" cy="716.534" r="14.4" fill="#000000" fill-rule="evenodd" fill-opacity="1" stroke="none"/>
<circle clip-path="url(#clip022)" cx="265.269" cy="619.206" r="14.4" fill="#000000" fill-rule="evenodd" fill-opacity="1" stroke="none"/>
<circle clip-path="url(#clip022)" cx="275.503" cy="641.544" r="14.4" fill="#000000" fill-rule="evenodd" fill-opacity="1" stroke="none"/>
<circle clip-path="url(#clip022)" cx="285.738" cy="680.897" r="14.4" fill="#000000" fill-rule="evenodd" fill-opacity="1" stroke="none"/>
<circle clip-path="url(#clip022)" cx="295.972" cy="750.841" r="14.4" fill="#000000" fill-rule="evenodd" fill-opacity="1" stroke="none"/>
<circle clip-path="url(#clip022)" cx="306.206" cy="801.142" r="14.4" fill="#000000" fill-rule="evenodd" fill-opacity="1" stroke="none"/>
<circle clip-path="url(#clip022)" cx="316.44" cy="503.567" r="14.4" fill="#000000" fill-rule="evenodd" fill-opacity="1" stroke="none"/>
<circle clip-path="url(#clip022)" cx="326.675" cy="785.506" r="14.4" fill="#000000" fill-rule="evenodd" fill-opacity="1" stroke="none"/>
<circle clip-path="url(#clip022)" cx="336.909" cy="614.934" r="14.4" fill="#000000" fill-rule="evenodd" fill-opacity="1" stroke="none"/>
<circle clip-path="url(#clip022)" cx="347.143" cy="798.138" r="14.4" fill="#000000" fill-rule="evenodd" fill-opacity="1" stroke="none"/>
<circle clip-path="url(#clip022)" cx="357.378" cy="686.895" r="14.4" fill="#000000" fill-rule="evenodd" fill-opacity="1" stroke="none"/>
<circle clip-path="url(#clip022)" cx="367.612" cy="571.584" r="14.4" fill="#000000" fill-rule="evenodd" fill-opacity="1" stroke="none"/>
<circle clip-path="url(#clip022)" cx="377.846" cy="762.193" r="14.4" fill="#000000" fill-rule="evenodd" fill-opacity="1" stroke="none"/>
<circle clip-path="url(#clip022)" cx="388.08" cy="550.386" r="14.4" fill="#000000" fill-rule="evenodd" fill-opacity="1" stroke="none"/>
<circle clip-path="url(#clip022)" cx="398.315" cy="633.924" r="14.4" fill="#000000" fill-rule="evenodd" fill-opacity="1" stroke="none"/>
<circle clip-path="url(#clip022)" cx="408.549" cy="589.562" r="14.4" fill="#000000" fill-rule="evenodd" fill-opacity="1" stroke="none"/>
<circle clip-path="url(#clip022)" cx="418.783" cy="722.073" r="14.4" fill="#000000" fill-rule="evenodd" fill-opacity="1" stroke="none"/>
<circle clip-path="url(#clip022)" cx="429.018" cy="556.122" r="14.4" fill="#000000" fill-rule="evenodd" fill-opacity="1" stroke="none"/>
<circle clip-path="url(#clip022)" cx="439.252" cy="998.719" r="14.4" fill="#000000" fill-rule="evenodd" fill-opacity="1" stroke="none"/>
<circle clip-path="url(#clip022)" cx="449.486" cy="812.952" r="14.4" fill="#000000" fill-rule="evenodd" fill-opacity="1" stroke="none"/>
<circle clip-path="url(#clip022)" cx="459.72" cy="960.659" r="14.4" fill="#000000" fill-rule="evenodd" fill-opacity="1" stroke="none"/>
<circle clip-path="url(#clip022)" cx="469.955" cy="830.347" r="14.4" fill="#000000" fill-rule="evenodd" fill-opacity="1" stroke="none"/>
<circle clip-path="url(#clip022)" cx="480.189" cy="853.008" r="14.4" fill="#000000" fill-rule="evenodd" fill-opacity="1" stroke="none"/>
<circle clip-path="url(#clip022)" cx="490.423" cy="911.998" r="14.4" fill="#000000" fill-rule="evenodd" fill-opacity="1" stroke="none"/>
<circle clip-path="url(#clip022)" cx="500.657" cy="1065.89" r="14.4" fill="#000000" fill-rule="evenodd" fill-opacity="1" stroke="none"/>
<circle clip-path="url(#clip022)" cx="510.892" cy="948.931" r="14.4" fill="#000000" fill-rule="evenodd" fill-opacity="1" stroke="none"/>
<circle clip-path="url(#clip022)" cx="521.126" cy="1140.58" r="14.4" fill="#000000" fill-rule="evenodd" fill-opacity="1" stroke="none"/>
<circle clip-path="url(#clip022)" cx="531.36" cy="1100.5" r="14.4" fill="#000000" fill-rule="evenodd" fill-opacity="1" stroke="none"/>
<circle clip-path="url(#clip022)" cx="541.595" cy="1166.31" r="14.4" fill="#000000" fill-rule="evenodd" fill-opacity="1" stroke="none"/>
<circle clip-path="url(#clip022)" cx="551.829" cy="944.445" r="14.4" fill="#000000" fill-rule="evenodd" fill-opacity="1" stroke="none"/>
<circle clip-path="url(#clip022)" cx="562.063" cy="980.449" r="14.4" fill="#000000" fill-rule="evenodd" fill-opacity="1" stroke="none"/>
<circle clip-path="url(#clip022)" cx="572.297" cy="1161.25" r="14.4" fill="#000000" fill-rule="evenodd" fill-opacity="1" stroke="none"/>
<circle clip-path="url(#clip022)" cx="582.532" cy="1280.66" r="14.4" fill="#000000" fill-rule="evenodd" fill-opacity="1" stroke="none"/>
<circle clip-path="url(#clip022)" cx="592.766" cy="1102" r="14.4" fill="#000000" fill-rule="evenodd" fill-opacity="1" stroke="none"/>
<circle clip-path="url(#clip022)" cx="603" cy="1153.1" r="14.4" fill="#000000" fill-rule="evenodd" fill-opacity="1" stroke="none"/>
<circle clip-path="url(#clip022)" cx="613.235" cy="1262.59" r="14.4" fill="#000000" fill-rule="evenodd" fill-opacity="1" stroke="none"/>
<circle clip-path="url(#clip022)" cx="623.469" cy="1129.57" r="14.4" fill="#000000" fill-rule="evenodd" fill-opacity="1" stroke="none"/>
<circle clip-path="url(#clip022)" cx="633.703" cy="1208.73" r="14.4" fill="#000000" fill-rule="evenodd" fill-opacity="1" stroke="none"/>
<circle clip-path="url(#clip022)" cx="643.937" cy="1013.64" r="14.4" fill="#000000" fill-rule="evenodd" fill-opacity="1" stroke="none"/>
<circle clip-path="url(#clip022)" cx="654.172" cy="1202.36" r="14.4" fill="#000000" fill-rule="evenodd" fill-opacity="1" stroke="none"/>
<circle clip-path="url(#clip022)" cx="664.406" cy="1254.34" r="14.4" fill="#000000" fill-rule="evenodd" fill-opacity="1" stroke="none"/>
<circle clip-path="url(#clip022)" cx="674.64" cy="1305.34" r="14.4" fill="#000000" fill-rule="evenodd" fill-opacity="1" stroke="none"/>
<circle clip-path="url(#clip022)" cx="684.875" cy="1213.65" r="14.4" fill="#000000" fill-rule="evenodd" fill-opacity="1" stroke="none"/>
<circle clip-path="url(#clip022)" cx="695.109" cy="977.808" r="14.4" fill="#000000" fill-rule="evenodd" fill-opacity="1" stroke="none"/>
<circle clip-path="url(#clip022)" cx="705.343" cy="1081.15" r="14.4" fill="#000000" fill-rule="evenodd" fill-opacity="1" stroke="none"/>
<circle clip-path="url(#clip022)" cx="715.577" cy="911.037" r="14.4" fill="#000000" fill-rule="evenodd" fill-opacity="1" stroke="none"/>
<circle clip-path="url(#clip022)" cx="725.812" cy="872.05" r="14.4" fill="#000000" fill-rule="evenodd" fill-opacity="1" stroke="none"/>
<circle clip-path="url(#clip022)" cx="736.046" cy="904.259" r="14.4" fill="#000000" fill-rule="evenodd" fill-opacity="1" stroke="none"/>
<circle clip-path="url(#clip022)" cx="746.28" cy="840.111" r="14.4" fill="#000000" fill-rule="evenodd" fill-opacity="1" stroke="none"/>
<circle clip-path="url(#clip022)" cx="756.515" cy="771.64" r="14.4" fill="#000000" fill-rule="evenodd" fill-opacity="1" stroke="none"/>
<circle clip-path="url(#clip022)" cx="766.749" cy="1066.94" r="14.4" fill="#000000" fill-rule="evenodd" fill-opacity="1" stroke="none"/>
<circle clip-path="url(#clip022)" cx="776.983" cy="1092.95" r="14.4" fill="#000000" fill-rule="evenodd" fill-opacity="1" stroke="none"/>
<circle clip-path="url(#clip022)" cx="787.217" cy="1293.69" r="14.4" fill="#000000" fill-rule="evenodd" fill-opacity="1" stroke="none"/>
<circle clip-path="url(#clip022)" cx="797.452" cy="945.613" r="14.4" fill="#000000" fill-rule="evenodd" fill-opacity="1" stroke="none"/>
<circle clip-path="url(#clip022)" cx="807.686" cy="1060" r="14.4" fill="#000000" fill-rule="evenodd" fill-opacity="1" stroke="none"/>
<circle clip-path="url(#clip022)" cx="817.92" cy="1090.56" r="14.4" fill="#000000" fill-rule="evenodd" fill-opacity="1" stroke="none"/>
<circle clip-path="url(#clip022)" cx="828.155" cy="973.305" r="14.4" fill="#000000" fill-rule="evenodd" fill-opacity="1" stroke="none"/>
<circle clip-path="url(#clip022)" cx="838.389" cy="746.757" r="14.4" fill="#000000" fill-rule="evenodd" fill-opacity="1" stroke="none"/>
<circle clip-path="url(#clip022)" cx="848.623" cy="1075.16" r="14.4" fill="#000000" fill-rule="evenodd" fill-opacity="1" stroke="none"/>
<circle clip-path="url(#clip022)" cx="858.857" cy="1232.43" r="14.4" fill="#000000" fill-rule="evenodd" fill-opacity="1" stroke="none"/>
<circle clip-path="url(#clip022)" cx="869.092" cy="1132.02" r="14.4" fill="#000000" fill-rule="evenodd" fill-opacity="1" stroke="none"/>
<circle clip-path="url(#clip022)" cx="879.326" cy="980.259" r="14.4" fill="#000000" fill-rule="evenodd" fill-opacity="1" stroke="none"/>
<circle clip-path="url(#clip022)" cx="889.56" cy="1196.75" r="14.4" fill="#000000" fill-rule="evenodd" fill-opacity="1" stroke="none"/>
<circle clip-path="url(#clip022)" cx="899.795" cy="868.182" r="14.4" fill="#000000" fill-rule="evenodd" fill-opacity="1" stroke="none"/>
<circle clip-path="url(#clip022)" cx="910.029" cy="1075.87" r="14.4" fill="#000000" fill-rule="evenodd" fill-opacity="1" stroke="none"/>
<circle clip-path="url(#clip022)" cx="920.263" cy="1252.84" r="14.4" fill="#000000" fill-rule="evenodd" fill-opacity="1" stroke="none"/>
<circle clip-path="url(#clip022)" cx="930.497" cy="1121.52" r="14.4" fill="#000000" fill-rule="evenodd" fill-opacity="1" stroke="none"/>
<circle clip-path="url(#clip022)" cx="940.732" cy="1191.82" r="14.4" fill="#000000" fill-rule="evenodd" fill-opacity="1" stroke="none"/>
<circle clip-path="url(#clip022)" cx="950.966" cy="1384.24" r="14.4" fill="#000000" fill-rule="evenodd" fill-opacity="1" stroke="none"/>
<circle clip-path="url(#clip022)" cx="961.2" cy="1065.23" r="14.4" fill="#000000" fill-rule="evenodd" fill-opacity="1" stroke="none"/>
<circle clip-path="url(#clip022)" cx="971.435" cy="1086.66" r="14.4" fill="#000000" fill-rule="evenodd" fill-opacity="1" stroke="none"/>
<circle clip-path="url(#clip022)" cx="981.669" cy="932.457" r="14.4" fill="#000000" fill-rule="evenodd" fill-opacity="1" stroke="none"/>
<circle clip-path="url(#clip022)" cx="991.903" cy="1131.71" r="14.4" fill="#000000" fill-rule="evenodd" fill-opacity="1" stroke="none"/>
<circle clip-path="url(#clip022)" cx="1002.14" cy="1076.36" r="14.4" fill="#000000" fill-rule="evenodd" fill-opacity="1" stroke="none"/>
<circle clip-path="url(#clip022)" cx="1012.37" cy="1137.21" r="14.4" fill="#000000" fill-rule="evenodd" fill-opacity="1" stroke="none"/>
<circle clip-path="url(#clip022)" cx="1022.61" cy="784.209" r="14.4" fill="#000000" fill-rule="evenodd" fill-opacity="1" stroke="none"/>
<circle clip-path="url(#clip022)" cx="1032.84" cy="1108.27" r="14.4" fill="#000000" fill-rule="evenodd" fill-opacity="1" stroke="none"/>
<circle clip-path="url(#clip022)" cx="1043.07" cy="1034.03" r="14.4" fill="#000000" fill-rule="evenodd" fill-opacity="1" stroke="none"/>
<circle clip-path="url(#clip022)" cx="1053.31" cy="942.975" r="14.4" fill="#000000" fill-rule="evenodd" fill-opacity="1" stroke="none"/>
<circle clip-path="url(#clip022)" cx="1063.54" cy="960.62" r="14.4" fill="#000000" fill-rule="evenodd" fill-opacity="1" stroke="none"/>
<circle clip-path="url(#clip022)" cx="1073.78" cy="1260.33" r="14.4" fill="#000000" fill-rule="evenodd" fill-opacity="1" stroke="none"/>
<circle clip-path="url(#clip022)" cx="1084.01" cy="785.128" r="14.4" fill="#000000" fill-rule="evenodd" fill-opacity="1" stroke="none"/>
<circle clip-path="url(#clip022)" cx="1094.25" cy="1258.45" r="14.4" fill="#000000" fill-rule="evenodd" fill-opacity="1" stroke="none"/>
<circle clip-path="url(#clip022)" cx="1104.48" cy="907.219" r="14.4" fill="#000000" fill-rule="evenodd" fill-opacity="1" stroke="none"/>
<circle clip-path="url(#clip022)" cx="1114.71" cy="688.08" r="14.4" fill="#000000" fill-rule="evenodd" fill-opacity="1" stroke="none"/>
<circle clip-path="url(#clip022)" cx="1124.95" cy="643.93" r="14.4" fill="#000000" fill-rule="evenodd" fill-opacity="1" stroke="none"/>
<circle clip-path="url(#clip022)" cx="1135.18" cy="959.109" r="14.4" fill="#000000" fill-rule="evenodd" fill-opacity="1" stroke="none"/>
<circle clip-path="url(#clip022)" cx="1145.42" cy="795.643" r="14.4" fill="#000000" fill-rule="evenodd" fill-opacity="1" stroke="none"/>
<circle clip-path="url(#clip022)" cx="1155.65" cy="575.121" r="14.4" fill="#000000" fill-rule="evenodd" fill-opacity="1" stroke="none"/>
<circle clip-path="url(#clip022)" cx="1165.89" cy="786.639" r="14.4" fill="#000000" fill-rule="evenodd" fill-opacity="1" stroke="none"/>
<circle clip-path="url(#clip022)" cx="1176.12" cy="670.636" r="14.4" fill="#000000" fill-rule="evenodd" fill-opacity="1" stroke="none"/>
<circle clip-path="url(#clip022)" cx="1186.35" cy="751.427" r="14.4" fill="#000000" fill-rule="evenodd" fill-opacity="1" stroke="none"/>
<circle clip-path="url(#clip022)" cx="1196.59" cy="992.64" r="14.4" fill="#000000" fill-rule="evenodd" fill-opacity="1" stroke="none"/>
<circle clip-path="url(#clip022)" cx="1206.82" cy="1061.62" r="14.4" fill="#000000" fill-rule="evenodd" fill-opacity="1" stroke="none"/>
<circle clip-path="url(#clip022)" cx="1217.06" cy="721.287" r="14.4" fill="#000000" fill-rule="evenodd" fill-opacity="1" stroke="none"/>
<circle clip-path="url(#clip022)" cx="1227.29" cy="1066.85" r="14.4" fill="#000000" fill-rule="evenodd" fill-opacity="1" stroke="none"/>
<circle clip-path="url(#clip022)" cx="1237.53" cy="856.735" r="14.4" fill="#000000" fill-rule="evenodd" fill-opacity="1" stroke="none"/>
<circle clip-path="url(#clip022)" cx="1247.76" cy="605.6" r="14.4" fill="#000000" fill-rule="evenodd" fill-opacity="1" stroke="none"/>
<circle clip-path="url(#clip022)" cx="1257.99" cy="818.828" r="14.4" fill="#000000" fill-rule="evenodd" fill-opacity="1" stroke="none"/>
<circle clip-path="url(#clip022)" cx="1268.23" cy="846.527" r="14.4" fill="#000000" fill-rule="evenodd" fill-opacity="1" stroke="none"/>
<circle clip-path="url(#clip022)" cx="1278.46" cy="577.965" r="14.4" fill="#000000" fill-rule="evenodd" fill-opacity="1" stroke="none"/>
<circle clip-path="url(#clip022)" cx="1288.7" cy="646.52" r="14.4" fill="#000000" fill-rule="evenodd" fill-opacity="1" stroke="none"/>
<circle clip-path="url(#clip022)" cx="1298.93" cy="643.011" r="14.4" fill="#000000" fill-rule="evenodd" fill-opacity="1" stroke="none"/>
<circle clip-path="url(#clip022)" cx="1309.17" cy="660.232" r="14.4" fill="#000000" fill-rule="evenodd" fill-opacity="1" stroke="none"/>
<circle clip-path="url(#clip022)" cx="1319.4" cy="483.457" r="14.4" fill="#000000" fill-rule="evenodd" fill-opacity="1" stroke="none"/>
<circle clip-path="url(#clip022)" cx="1329.63" cy="552.139" r="14.4" fill="#000000" fill-rule="evenodd" fill-opacity="1" stroke="none"/>
<circle clip-path="url(#clip022)" cx="1339.87" cy="801.858" r="14.4" fill="#000000" fill-rule="evenodd" fill-opacity="1" stroke="none"/>
<circle clip-path="url(#clip022)" cx="1350.1" cy="659.657" r="14.4" fill="#000000" fill-rule="evenodd" fill-opacity="1" stroke="none"/>
<circle clip-path="url(#clip022)" cx="1360.34" cy="745.831" r="14.4" fill="#000000" fill-rule="evenodd" fill-opacity="1" stroke="none"/>
<circle clip-path="url(#clip022)" cx="1370.57" cy="669.785" r="14.4" fill="#000000" fill-rule="evenodd" fill-opacity="1" stroke="none"/>
<circle clip-path="url(#clip022)" cx="1380.81" cy="906.172" r="14.4" fill="#000000" fill-rule="evenodd" fill-opacity="1" stroke="none"/>
<circle clip-path="url(#clip022)" cx="1391.04" cy="612.419" r="14.4" fill="#000000" fill-rule="evenodd" fill-opacity="1" stroke="none"/>
<circle clip-path="url(#clip022)" cx="1401.27" cy="702.489" r="14.4" fill="#000000" fill-rule="evenodd" fill-opacity="1" stroke="none"/>
<circle clip-path="url(#clip022)" cx="1411.51" cy="717.458" r="14.4" fill="#000000" fill-rule="evenodd" fill-opacity="1" stroke="none"/>
<circle clip-path="url(#clip022)" cx="1421.74" cy="821.634" r="14.4" fill="#000000" fill-rule="evenodd" fill-opacity="1" stroke="none"/>
<circle clip-path="url(#clip022)" cx="1431.98" cy="762.959" r="14.4" fill="#000000" fill-rule="evenodd" fill-opacity="1" stroke="none"/>
<circle clip-path="url(#clip022)" cx="1442.21" cy="672.788" r="14.4" fill="#000000" fill-rule="evenodd" fill-opacity="1" stroke="none"/>
<circle clip-path="url(#clip022)" cx="1452.45" cy="670.537" r="14.4" fill="#000000" fill-rule="evenodd" fill-opacity="1" stroke="none"/>
<circle clip-path="url(#clip022)" cx="1462.68" cy="574.782" r="14.4" fill="#000000" fill-rule="evenodd" fill-opacity="1" stroke="none"/>
<circle clip-path="url(#clip022)" cx="1472.91" cy="924.439" r="14.4" fill="#000000" fill-rule="evenodd" fill-opacity="1" stroke="none"/>
<circle clip-path="url(#clip022)" cx="1483.15" cy="801.286" r="14.4" fill="#000000" fill-rule="evenodd" fill-opacity="1" stroke="none"/>
<circle clip-path="url(#clip022)" cx="1493.38" cy="504.368" r="14.4" fill="#000000" fill-rule="evenodd" fill-opacity="1" stroke="none"/>
<circle clip-path="url(#clip022)" cx="1503.62" cy="572.904" r="14.4" fill="#000000" fill-rule="evenodd" fill-opacity="1" stroke="none"/>
<circle clip-path="url(#clip022)" cx="1513.85" cy="719.085" r="14.4" fill="#000000" fill-rule="evenodd" fill-opacity="1" stroke="none"/>
<circle clip-path="url(#clip022)" cx="1524.09" cy="450.647" r="14.4" fill="#000000" fill-rule="evenodd" fill-opacity="1" stroke="none"/>
<circle clip-path="url(#clip022)" cx="1534.32" cy="511.883" r="14.4" fill="#000000" fill-rule="evenodd" fill-opacity="1" stroke="none"/>
<circle clip-path="url(#clip022)" cx="1544.55" cy="819.386" r="14.4" fill="#000000" fill-rule="evenodd" fill-opacity="1" stroke="none"/>
<circle clip-path="url(#clip022)" cx="1554.79" cy="552.848" r="14.4" fill="#000000" fill-rule="evenodd" fill-opacity="1" stroke="none"/>
<circle clip-path="url(#clip022)" cx="1565.02" cy="443.266" r="14.4" fill="#000000" fill-rule="evenodd" fill-opacity="1" stroke="none"/>
<circle clip-path="url(#clip022)" cx="1575.26" cy="638.811" r="14.4" fill="#000000" fill-rule="evenodd" fill-opacity="1" stroke="none"/>
<circle clip-path="url(#clip022)" cx="1585.49" cy="399.113" r="14.4" fill="#000000" fill-rule="evenodd" fill-opacity="1" stroke="none"/>
<circle clip-path="url(#clip022)" cx="1595.73" cy="632.693" r="14.4" fill="#000000" fill-rule="evenodd" fill-opacity="1" stroke="none"/>
<circle clip-path="url(#clip022)" cx="1605.96" cy="629.954" r="14.4" fill="#000000" fill-rule="evenodd" fill-opacity="1" stroke="none"/>
<circle clip-path="url(#clip022)" cx="1616.19" cy="533.973" r="14.4" fill="#000000" fill-rule="evenodd" fill-opacity="1" stroke="none"/>
<circle clip-path="url(#clip022)" cx="1626.43" cy="557.395" r="14.4" fill="#000000" fill-rule="evenodd" fill-opacity="1" stroke="none"/>
<circle clip-path="url(#clip022)" cx="1636.66" cy="405.621" r="14.4" fill="#000000" fill-rule="evenodd" fill-opacity="1" stroke="none"/>
<circle clip-path="url(#clip022)" cx="1646.9" cy="569.881" r="14.4" fill="#000000" fill-rule="evenodd" fill-opacity="1" stroke="none"/>
<circle clip-path="url(#clip022)" cx="1657.13" cy="337.346" r="14.4" fill="#000000" fill-rule="evenodd" fill-opacity="1" stroke="none"/>
<circle clip-path="url(#clip022)" cx="1667.37" cy="404.808" r="14.4" fill="#000000" fill-rule="evenodd" fill-opacity="1" stroke="none"/>
<circle clip-path="url(#clip022)" cx="1677.6" cy="86.1857" r="14.4" fill="#000000" fill-rule="evenodd" fill-opacity="1" stroke="none"/>
<circle clip-path="url(#clip022)" cx="1687.83" cy="353.633" r="14.4" fill="#000000" fill-rule="evenodd" fill-opacity="1" stroke="none"/>
<circle clip-path="url(#clip022)" cx="1698.07" cy="362.32" r="14.4" fill="#000000" fill-rule="evenodd" fill-opacity="1" stroke="none"/>
<circle clip-path="url(#clip022)" cx="1708.3" cy="188.33" r="14.4" fill="#000000" fill-rule="evenodd" fill-opacity="1" stroke="none"/>
<circle clip-path="url(#clip022)" cx="1718.54" cy="513.625" r="14.4" fill="#000000" fill-rule="evenodd" fill-opacity="1" stroke="none"/>
<circle clip-path="url(#clip022)" cx="1728.77" cy="512.299" r="14.4" fill="#000000" fill-rule="evenodd" fill-opacity="1" stroke="none"/>
<circle clip-path="url(#clip022)" cx="1739.01" cy="519.038" r="14.4" fill="#000000" fill-rule="evenodd" fill-opacity="1" stroke="none"/>
<circle clip-path="url(#clip022)" cx="1749.24" cy="451.908" r="14.4" fill="#000000" fill-rule="evenodd" fill-opacity="1" stroke="none"/>
<circle clip-path="url(#clip022)" cx="1759.47" cy="439.037" r="14.4" fill="#000000" fill-rule="evenodd" fill-opacity="1" stroke="none"/>
<circle clip-path="url(#clip022)" cx="1769.71" cy="719.601" r="14.4" fill="#000000" fill-rule="evenodd" fill-opacity="1" stroke="none"/>
<circle clip-path="url(#clip022)" cx="1779.94" cy="586.52" r="14.4" fill="#000000" fill-rule="evenodd" fill-opacity="1" stroke="none"/>
<circle clip-path="url(#clip022)" cx="1790.18" cy="442.515" r="14.4" fill="#000000" fill-rule="evenodd" fill-opacity="1" stroke="none"/>
<circle clip-path="url(#clip022)" cx="1800.41" cy="532.025" r="14.4" fill="#000000" fill-rule="evenodd" fill-opacity="1" stroke="none"/>
<circle clip-path="url(#clip022)" cx="1810.65" cy="572.764" r="14.4" fill="#000000" fill-rule="evenodd" fill-opacity="1" stroke="none"/>
<circle clip-path="url(#clip022)" cx="1820.88" cy="651.731" r="14.4" fill="#000000" fill-rule="evenodd" fill-opacity="1" stroke="none"/>
<circle clip-path="url(#clip022)" cx="1831.11" cy="835.015" r="14.4" fill="#000000" fill-rule="evenodd" fill-opacity="1" stroke="none"/>
<circle clip-path="url(#clip022)" cx="1841.35" cy="481.68" r="14.4" fill="#000000" fill-rule="evenodd" fill-opacity="1" stroke="none"/>
<circle clip-path="url(#clip022)" cx="1851.58" cy="465.113" r="14.4" fill="#000000" fill-rule="evenodd" fill-opacity="1" stroke="none"/>
<circle clip-path="url(#clip022)" cx="1861.82" cy="882.058" r="14.4" fill="#000000" fill-rule="evenodd" fill-opacity="1" stroke="none"/>
<circle clip-path="url(#clip022)" cx="1872.05" cy="660.421" r="14.4" fill="#000000" fill-rule="evenodd" fill-opacity="1" stroke="none"/>
<circle clip-path="url(#clip022)" cx="1882.29" cy="709.82" r="14.4" fill="#000000" fill-rule="evenodd" fill-opacity="1" stroke="none"/>
<circle clip-path="url(#clip022)" cx="1892.52" cy="912.041" r="14.4" fill="#000000" fill-rule="evenodd" fill-opacity="1" stroke="none"/>
<circle clip-path="url(#clip022)" cx="1902.75" cy="723.556" r="14.4" fill="#000000" fill-rule="evenodd" fill-opacity="1" stroke="none"/>
<circle clip-path="url(#clip022)" cx="1912.99" cy="885.575" r="14.4" fill="#000000" fill-rule="evenodd" fill-opacity="1" stroke="none"/>
<circle clip-path="url(#clip022)" cx="1923.22" cy="964.685" r="14.4" fill="#000000" fill-rule="evenodd" fill-opacity="1" stroke="none"/>
<circle clip-path="url(#clip022)" cx="1933.46" cy="631.611" r="14.4" fill="#000000" fill-rule="evenodd" fill-opacity="1" stroke="none"/>
<circle clip-path="url(#clip022)" cx="1943.69" cy="963.993" r="14.4" fill="#000000" fill-rule="evenodd" fill-opacity="1" stroke="none"/>
<circle clip-path="url(#clip022)" cx="1953.93" cy="1007.55" r="14.4" fill="#000000" fill-rule="evenodd" fill-opacity="1" stroke="none"/>
<circle clip-path="url(#clip022)" cx="1964.16" cy="1193.26" r="14.4" fill="#000000" fill-rule="evenodd" fill-opacity="1" stroke="none"/>
<circle clip-path="url(#clip022)" cx="1974.39" cy="788.045" r="14.4" fill="#000000" fill-rule="evenodd" fill-opacity="1" stroke="none"/>
<circle clip-path="url(#clip022)" cx="1984.63" cy="1087.93" r="14.4" fill="#000000" fill-rule="evenodd" fill-opacity="1" stroke="none"/>
<circle clip-path="url(#clip022)" cx="1994.86" cy="1039.16" r="14.4" fill="#000000" fill-rule="evenodd" fill-opacity="1" stroke="none"/>
<circle clip-path="url(#clip022)" cx="2005.1" cy="984.36" r="14.4" fill="#000000" fill-rule="evenodd" fill-opacity="1" stroke="none"/>
<circle clip-path="url(#clip022)" cx="2015.33" cy="980.432" r="14.4" fill="#000000" fill-rule="evenodd" fill-opacity="1" stroke="none"/>
<circle clip-path="url(#clip022)" cx="2025.57" cy="1076.22" r="14.4" fill="#000000" fill-rule="evenodd" fill-opacity="1" stroke="none"/>
<circle clip-path="url(#clip022)" cx="2035.8" cy="1141.79" r="14.4" fill="#000000" fill-rule="evenodd" fill-opacity="1" stroke="none"/>
<circle clip-path="url(#clip022)" cx="2046.03" cy="1114.22" r="14.4" fill="#000000" fill-rule="evenodd" fill-opacity="1" stroke="none"/>
<circle clip-path="url(#clip022)" cx="2056.27" cy="1056.19" r="14.4" fill="#000000" fill-rule="evenodd" fill-opacity="1" stroke="none"/>
<circle clip-path="url(#clip022)" cx="2066.5" cy="1151.16" r="14.4" fill="#000000" fill-rule="evenodd" fill-opacity="1" stroke="none"/>
<circle clip-path="url(#clip022)" cx="2076.74" cy="1159.54" r="14.4" fill="#000000" fill-rule="evenodd" fill-opacity="1" stroke="none"/>
<circle clip-path="url(#clip022)" cx="2086.97" cy="1111.98" r="14.4" fill="#000000" fill-rule="evenodd" fill-opacity="1" stroke="none"/>
<circle clip-path="url(#clip022)" cx="2097.21" cy="1041.14" r="14.4" fill="#000000" fill-rule="evenodd" fill-opacity="1" stroke="none"/>
<circle clip-path="url(#clip022)" cx="2107.44" cy="1133.28" r="14.4" fill="#000000" fill-rule="evenodd" fill-opacity="1" stroke="none"/>
<circle clip-path="url(#clip022)" cx="2117.67" cy="1101.27" r="14.4" fill="#000000" fill-rule="evenodd" fill-opacity="1" stroke="none"/>
<circle clip-path="url(#clip022)" cx="2127.91" cy="943.15" r="14.4" fill="#000000" fill-rule="evenodd" fill-opacity="1" stroke="none"/>
<circle clip-path="url(#clip022)" cx="2138.14" cy="1253.94" r="14.4" fill="#000000" fill-rule="evenodd" fill-opacity="1" stroke="none"/>
<circle clip-path="url(#clip022)" cx="2148.38" cy="1023.16" r="14.4" fill="#000000" fill-rule="evenodd" fill-opacity="1" stroke="none"/>
<circle clip-path="url(#clip022)" cx="2158.61" cy="823.793" r="14.4" fill="#000000" fill-rule="evenodd" fill-opacity="1" stroke="none"/>
<circle clip-path="url(#clip022)" cx="2168.85" cy="778.324" r="14.4" fill="#000000" fill-rule="evenodd" fill-opacity="1" stroke="none"/>
<circle clip-path="url(#clip022)" cx="2179.08" cy="558.313" r="14.4" fill="#000000" fill-rule="evenodd" fill-opacity="1" stroke="none"/>
<circle clip-path="url(#clip022)" cx="2189.31" cy="934.38" r="14.4" fill="#000000" fill-rule="evenodd" fill-opacity="1" stroke="none"/>
<circle clip-path="url(#clip022)" cx="2199.55" cy="942.543" r="14.4" fill="#000000" fill-rule="evenodd" fill-opacity="1" stroke="none"/>
<circle clip-path="url(#clip022)" cx="2209.78" cy="775.426" r="14.4" fill="#000000" fill-rule="evenodd" fill-opacity="1" stroke="none"/>
<circle clip-path="url(#clip022)" cx="2220.02" cy="813.767" r="14.4" fill="#000000" fill-rule="evenodd" fill-opacity="1" stroke="none"/>
<circle clip-path="url(#clip022)" cx="2230.25" cy="732.306" r="14.4" fill="#000000" fill-rule="evenodd" fill-opacity="1" stroke="none"/>
<circle clip-path="url(#clip022)" cx="2240.49" cy="702.88" r="14.4" fill="#000000" fill-rule="evenodd" fill-opacity="1" stroke="none"/>
<circle clip-path="url(#clip022)" cx="2250.72" cy="719.975" r="14.4" fill="#000000" fill-rule="evenodd" fill-opacity="1" stroke="none"/>
<circle clip-path="url(#clip022)" cx="2260.95" cy="797.999" r="14.4" fill="#000000" fill-rule="evenodd" fill-opacity="1" stroke="none"/>
<circle clip-path="url(#clip022)" cx="2271.19" cy="597.138" r="14.4" fill="#000000" fill-rule="evenodd" fill-opacity="1" stroke="none"/>
<circle clip-path="url(#clip022)" cx="2281.42" cy="899.326" r="14.4" fill="#000000" fill-rule="evenodd" fill-opacity="1" stroke="none"/>
<circle clip-path="url(#clip022)" cx="2291.66" cy="700.757" r="14.4" fill="#000000" fill-rule="evenodd" fill-opacity="1" stroke="none"/>
<path clip-path="url(#clip022)" d="M255.035 793.695 L265.269 777.958 L275.503 765.679 L285.738 756.763 L295.972 750.513 L306.206 746.017 L316.44 742.683 L326.675 740.398 L336.909 738.877 L347.143 738.208 L357.378 738.634 L367.612 740.885 L377.846 745.83 L388.08 754.118 L398.315 766.513 L408.549 783.366 L418.783 804.614 L429.018 829.728 L439.252 857.873 L449.486 887.703 L459.72 918.416 L469.955 949.468 L480.189 980.645 L490.423 1011.61 L500.657 1041.77 L510.892 1070.44 L521.126 1097.17 L531.36 1121.52 L541.595 1143.4 L551.829 1163.03 L562.063 1180.87 L572.297 1196.81 L582.532 1210.2 L592.766 1220.49 L603 1227.57 L613.235 1231.27 L623.469 1231.41 L633.703 1228.1 L643.937 1221.48 L654.172 1211.65 L664.406 1198.34 L674.64 1181.45 L684.875 1161.5 L695.109 1139.84 L705.343 1118.33 L715.577 1098.63 L725.812 1082.33 L736.046 1070.56 L746.28 1063.81 L756.515 1062.01 L766.749 1064.31 L776.983 1069.09 L787.217 1074.85 L797.452 1080.73 L807.686 1086.87 L817.92 1093.44 L828.155 1100.78 L838.389 1109.45 L848.623 1119.61 L858.857 1130.4 L869.092 1140.96 L879.326 1151.07 L889.56 1160.77 L899.795 1169.88 L910.029 1178.33 L920.263 1185.26 L930.497 1189.66 L940.732 1190.9 L950.966 1188.56 L961.2 1182.6 L971.435 1173.93 L981.669 1163.47 L991.903 1151.88 L1002.14 1139.31 L1012.37 1125.92 L1022.61 1112.02 L1032.84 1097.95 L1043.07 1083.32 L1053.31 1067.8 L1063.54 1051.15 L1073.78 1032.92 L1084.01 1012.81 L1094.25 991.316 L1104.48 968.971 L1114.71 947.293 L1124.95 927.953 L1135.18 911.82 L1145.42 898.986 L1155.65 889.746 L1165.89 884.187 L1176.12 881.532 L1186.35 880.597 L1196.59 879.65 L1206.82 876.792 L1217.06 870.896 L1227.29 861.767 L1237.53 849.365 L1247.76 834.566 L1257.99 818.584 L1268.23 802.215 L1278.46 786.447 L1288.7 772.6 L1298.93 761.579 L1309.17 753.953 L1319.4 750.072 L1329.63 750.016 L1339.87 753.088 L1350.1 758.103 L1360.34 764.155 L1370.57 770.386 L1380.81 776.064 L1391.04 780.558 L1401.27 783.799 L1411.51 785.534 L1421.74 785.381 L1431.98 783.032 L1442.21 778.568 L1452.45 772.286 L1462.68 764.364 L1472.91 754.731 L1483.15 743.074 L1493.38 729.888 L1503.62 716.16 L1513.85 702.394 L1524.09 688.785 L1534.32 675.613 L1544.55 662.586 L1554.79 649.139 L1565.02 635.373 L1575.26 621.382 L1585.49 606.897 L1595.73 591.717 L1605.96 575.342 L1616.19 557.625 L1626.43 538.968 L1636.66 520.102 L1646.9 502.057 L1657.13 485.908 L1667.37 473.099 L1677.6 464.943 L1687.83 462.452 L1698.07 465.592 L1708.3 473.933 L1718.54 486.743 L1728.77 502.635 L1739.01 520.451 L1749.24 539.449 L1759.47 559.18 L1769.71 579.149 L1779.94 598.856 L1790.18 618.519 L1800.41 638.635 L1810.65 659.36 L1820.88 680.625 L1831.11 702.309 L1841.35 724.585 L1851.58 748.205 L1861.82 773.328 L1872.05 799.402 L1882.29 826.245 L1892.52 853.551 L1902.75 880.91 L1912.99 908.228 L1923.22 935.261 L1933.46 961.93 L1943.69 988.307 L1953.93 1013.7 L1964.16 1037.4 L1974.39 1059.11 L1984.63 1079.21 L1994.86 1097.59 L2005.1 1114.28 L2015.33 1129.33 L2025.57 1142.51 L2035.8 1153.27 L2046.03 1161.05 L2056.27 1165.46 L2066.5 1166.21 L2076.74 1162.92 L2086.97 1155.37 L2097.21 1143.62 L2107.44 1127.83 L2117.67 1108.11 L2127.91 1084.82 L2138.14 1058.51 L2148.38 1029.75 L2158.61 999.984 L2168.85 970.981 L2179.08 944.109 L2189.31 919.975 L2199.55 898.111 L2209.78 878.216 L2220.02 860.503 L2230.25 845.323 L2240.49 833.224 L2250.72 824.783 L2260.95 820.46 L2271.19 820.577 L2281.42 825.255 L2291.66 833.931 L2291.66 607.386 L2281.42 627.59 L2271.19 645.2 L2260.95 660.789 L2250.72 675.096 L2240.49 689.191 L2230.25 704.089 L2220.02 720.433 L2209.78 738.511 L2199.55 758.465 L2189.31 780.329 L2179.08 804.5 L2168.85 831.463 L2158.61 860.595 L2148.38 890.505 L2138.14 919.397 L2127.91 945.82 L2117.67 969.2 L2107.44 988.985 L2097.21 1004.81 L2086.97 1016.59 L2076.74 1024.16 L2066.5 1027.46 L2056.27 1026.71 L2046.03 1022.3 L2035.8 1014.53 L2025.57 1003.76 L2015.33 990.582 L2005.1 975.536 L1994.86 958.846 L1984.63 940.46 L1974.39 920.367 L1964.16 898.65 L1953.93 874.955 L1943.69 849.563 L1933.46 823.186 L1923.22 796.517 L1912.99 769.484 L1902.75 742.166 L1892.52 714.807 L1882.29 687.5 L1872.05 660.658 L1861.82 634.583 L1851.58 609.46 L1841.35 585.841 L1831.11 563.564 L1820.88 541.881 L1810.65 520.616 L1800.41 499.89 L1790.18 479.775 L1779.94 460.112 L1769.71 440.404 L1759.47 420.435 L1749.24 400.705 L1739.01 381.706 L1728.77 363.89 L1718.54 347.998 L1708.3 335.188 L1698.07 326.848 L1687.83 323.708 L1677.6 326.198 L1667.37 334.355 L1657.13 347.164 L1646.9 363.313 L1636.66 381.357 L1626.43 400.224 L1616.19 418.881 L1605.96 436.597 L1595.73 452.973 L1585.49 468.152 L1575.26 482.638 L1565.02 496.629 L1554.79 510.395 L1544.55 523.841 L1534.32 536.869 L1524.09 550.04 L1513.85 563.65 L1503.62 577.415 L1493.38 591.143 L1483.15 604.33 L1472.91 615.986 L1462.68 625.62 L1452.45 633.542 L1442.21 639.824 L1431.98 644.288 L1421.74 646.637 L1411.51 646.79 L1401.27 645.055 L1391.04 641.814 L1380.81 637.32 L1370.57 631.642 L1360.34 625.41 L1350.1 619.358 L1339.87 614.343 L1329.63 611.272 L1319.4 611.327 L1309.17 615.208 L1298.93 622.835 L1288.7 633.856 L1278.46 647.703 L1268.23 663.47 L1257.99 679.839 L1247.76 695.821 L1237.53 710.621 L1227.29 723.022 L1217.06 732.152 L1206.82 738.048 L1196.59 740.906 L1186.35 741.853 L1176.12 742.788 L1165.89 745.442 L1155.65 751.001 L1145.42 760.241 L1135.18 773.075 L1124.95 789.209 L1114.71 808.548 L1104.48 830.227 L1094.25 852.572 L1084.01 874.061 L1073.78 894.18 L1063.54 912.406 L1053.31 929.057 L1043.07 944.574 L1032.84 959.204 L1022.61 973.275 L1012.37 987.179 L1002.14 1000.56 L991.903 1013.14 L981.669 1024.72 L971.435 1035.19 L961.2 1043.86 L950.966 1049.81 L940.732 1052.16 L930.497 1050.91 L920.263 1046.52 L910.029 1039.58 L899.795 1031.14 L889.56 1022.02 L879.326 1012.33 L869.092 1002.22 L858.857 991.657 L848.623 980.865 L838.389 970.708 L828.155 962.039 L817.92 954.693 L807.686 948.121 L797.452 941.989 L787.217 936.108 L776.983 930.346 L766.749 925.568 L756.515 923.264 L746.28 925.068 L736.046 931.82 L725.812 943.587 L715.577 959.884 L705.343 979.588 L695.109 1001.1 L684.875 1022.75 L674.64 1042.71 L664.406 1059.6 L654.172 1072.9 L643.937 1082.73 L633.703 1089.36 L623.469 1092.66 L613.235 1092.52 L603 1088.83 L592.766 1081.75 L582.532 1071.46 L572.297 1058.07 L562.063 1042.12 L551.829 1024.29 L541.595 1004.65 L531.36 982.776 L521.126 958.426 L510.892 931.691 L500.657 903.023 L490.423 872.865 L480.189 841.893 L469.955 810.707 L459.72 779.64 L449.486 748.899 L439.252 719.025 L429.018 690.816 L418.783 665.614 L408.549 644.252 L398.315 627.265 L388.08 614.728 L377.846 606.313 L367.612 601.277 L357.378 598.988 L347.143 598.562 L336.909 599.171 L326.675 600.328 L316.44 601.45 L306.206 601.984 L295.972 600.826 L285.738 597.092 L275.503 590.303 L265.269 580.292 L255.035 567.15  Z" fill="#3da44d" fill-rule="evenodd" fill-opacity="0.5"/>
<polyline clip-path="url(#clip022)" style="stroke:#3da44d; stroke-linecap:round; stroke-linejoin:round; stroke-width:4; stroke-opacity:1; fill:none" points="255.035,680.422 265.269,679.125 275.503,677.991 285.738,676.927 295.972,675.67 306.206,674.001 316.44,672.067 326.675,670.363 336.909,669.024 347.143,668.385 357.378,668.811 367.612,671.081 377.846,676.071 388.08,684.423 398.315,696.889 408.549,713.809 418.783,735.114 429.018,760.272 439.252,788.449 449.486,818.301 459.72,849.028 469.955,880.087 480.189,911.269 490.423,942.239 500.657,972.396 510.892,1001.06 521.126,1027.8 531.36,1052.15 541.595,1074.02 551.829,1093.66 562.063,1111.5 572.297,1127.44 582.532,1140.83 592.766,1151.12 603,1158.2 613.235,1161.89 623.469,1162.03 633.703,1158.73 643.937,1152.11 654.172,1142.28 664.406,1128.97 674.64,1112.08 684.875,1092.13 695.109,1070.47 705.343,1048.96 715.577,1029.26 725.812,1012.96 736.046,1001.19 746.28,994.441 756.515,992.636 766.749,994.94 776.983,999.718 787.217,1005.48 797.452,1011.36 807.686,1017.49 817.92,1024.06 828.155,1031.41 838.389,1040.08 848.623,1050.24 858.857,1061.03 869.092,1071.59 879.326,1081.7 889.56,1091.39 899.795,1100.51 910.029,1108.95 920.263,1115.89 930.497,1120.28 940.732,1121.53 950.966,1119.18 961.2,1113.23 971.435,1104.56 981.669,1094.1 991.903,1082.51 1002.14,1069.94 1012.37,1056.55 1022.61,1042.65 1032.84,1028.58 1043.07,1013.95 1053.31,998.429 1063.54,981.778 1073.78,963.553 1084.01,943.434 1094.25,921.944 1104.48,899.599 1114.71,877.92 1124.95,858.581 1135.18,842.448 1145.42,829.614 1155.65,820.373 1165.89,814.815 1176.12,812.16 1186.35,811.225 1196.59,810.278 1206.82,807.42 1217.06,801.524 1227.29,792.394 1237.53,779.993 1247.76,765.193 1257.99,749.212 1268.23,732.842 1278.46,717.075 1288.7,703.228 1298.93,692.207 1309.17,684.58 1319.4,680.7 1329.63,680.644 1339.87,683.716 1350.1,688.731 1360.34,694.782 1370.57,701.014 1380.81,706.692 1391.04,711.186 1401.27,714.427 1411.51,716.162 1421.74,716.009 1431.98,713.66 1442.21,709.196 1452.45,702.914 1462.68,694.992 1472.91,685.359 1483.15,673.702 1493.38,660.515 1503.62,646.788 1513.85,633.022 1524.09,619.412 1534.32,606.241 1544.55,593.213 1554.79,579.767 1565.02,566.001 1575.26,552.01 1585.49,537.524 1595.73,522.345 1605.96,505.97 1616.19,488.253 1626.43,469.596 1636.66,450.73 1646.9,432.685 1657.13,416.536 1667.37,403.727 1677.6,395.57 1687.83,393.08 1698.07,396.22 1708.3,404.561 1718.54,417.37 1728.77,433.263 1739.01,451.078 1749.24,470.077 1759.47,489.807 1769.71,509.776 1779.94,529.484 1790.18,549.147 1800.41,569.263 1810.65,589.988 1820.88,611.253 1831.11,632.936 1841.35,655.213 1851.58,678.833 1861.82,703.955 1872.05,730.03 1882.29,756.872 1892.52,784.179 1902.75,811.538 1912.99,838.856 1923.22,865.889 1933.46,892.558 1943.69,918.935 1953.93,944.328 1964.16,968.023 1974.39,989.74 1984.63,1009.83 1994.86,1028.22 2005.1,1044.91 2015.33,1059.96 2025.57,1073.14 2035.8,1083.9 2046.03,1091.67 2056.27,1096.09 2066.5,1096.84 2076.74,1093.54 2086.97,1085.98 2097.21,1074.22 2107.44,1058.41 2117.67,1038.66 2127.91,1015.32 2138.14,988.954 2148.38,960.129 2158.61,930.289 2168.85,901.222 2179.08,874.305 2189.31,850.152 2199.55,828.288 2209.78,808.363 2220.02,790.468 2230.25,774.706 2240.49,761.207 2250.72,749.94 2260.95,740.624 2271.19,732.889 2281.42,726.423 2291.66,720.658 "/>
<path clip-path="url(#clip020)" d="M1620.15 300.469 L2280.8 300.469 L2280.8 93.1086 L1620.15 93.1086  Z" fill="#ffffff" fill-rule="evenodd" fill-opacity="1"/>
<polyline clip-path="url(#clip020)" style="stroke:#000000; stroke-linecap:round; stroke-linejoin:round; stroke-width:4; stroke-opacity:1; fill:none" points="1620.15,300.469 2280.8,300.469 2280.8,93.1086 1620.15,93.1086 1620.15,300.469 "/>
<polyline clip-path="url(#clip020)" style="stroke:#009af9; stroke-linecap:round; stroke-linejoin:round; stroke-width:4; stroke-opacity:1; fill:none" points="1644.13,144.949 1788.06,144.949 "/>
<path clip-path="url(#clip020)" d="M1823.94 139.289 Q1820.51 139.289 1818.52 141.974 Q1816.53 144.636 1816.53 149.289 Q1816.53 153.942 1818.5 156.627 Q1820.49 159.289 1823.94 159.289 Q1827.34 159.289 1829.33 156.604 Q1831.32 153.918 1831.32 149.289 Q1831.32 144.682 1829.33 141.997 Q1827.34 139.289 1823.94 139.289 M1823.94 135.678 Q1829.5 135.678 1832.67 139.289 Q1835.84 142.9 1835.84 149.289 Q1835.84 155.655 1832.67 159.289 Q1829.5 162.9 1823.94 162.9 Q1818.36 162.9 1815.19 159.289 Q1812.04 155.655 1812.04 149.289 Q1812.04 142.9 1815.19 139.289 Q1818.36 135.678 1823.94 135.678 Z" fill="#000000" fill-rule="nonzero" fill-opacity="1" /><path clip-path="url(#clip020)" d="M1842.46 151.997 L1842.46 136.303 L1846.72 136.303 L1846.72 151.835 Q1846.72 155.516 1848.15 157.368 Q1849.59 159.196 1852.46 159.196 Q1855.91 159.196 1857.9 156.997 Q1859.91 154.798 1859.91 151.002 L1859.91 136.303 L1864.17 136.303 L1864.17 162.229 L1859.91 162.229 L1859.91 158.247 Q1858.36 160.608 1856.3 161.766 Q1854.26 162.9 1851.56 162.9 Q1847.09 162.9 1844.77 160.122 Q1842.46 157.344 1842.46 151.997 M1853.18 135.678 L1853.18 135.678 Z" fill="#000000" fill-rule="nonzero" fill-opacity="1" /><path clip-path="url(#clip020)" d="M1877.16 128.942 L1877.16 136.303 L1885.93 136.303 L1885.93 139.613 L1877.16 139.613 L1877.16 153.687 Q1877.16 156.858 1878.01 157.761 Q1878.89 158.664 1881.56 158.664 L1885.93 158.664 L1885.93 162.229 L1881.56 162.229 Q1876.63 162.229 1874.75 160.4 Q1872.88 158.548 1872.88 153.687 L1872.88 139.613 L1869.75 139.613 L1869.75 136.303 L1872.88 136.303 L1872.88 128.942 L1877.16 128.942 Z" fill="#000000" fill-rule="nonzero" fill-opacity="1" /><path clip-path="url(#clip020)" d="M1895.65 158.34 L1895.65 172.09 L1891.37 172.09 L1891.37 136.303 L1895.65 136.303 L1895.65 140.238 Q1897 137.923 1899.03 136.812 Q1901.09 135.678 1903.94 135.678 Q1908.66 135.678 1911.6 139.428 Q1914.56 143.178 1914.56 149.289 Q1914.56 155.4 1911.6 159.15 Q1908.66 162.9 1903.94 162.9 Q1901.09 162.9 1899.03 161.789 Q1897 160.655 1895.65 158.34 M1910.14 149.289 Q1910.14 144.59 1908.2 141.928 Q1906.28 139.243 1902.9 139.243 Q1899.52 139.243 1897.57 141.928 Q1895.65 144.59 1895.65 149.289 Q1895.65 153.988 1897.57 156.673 Q1899.52 159.335 1902.9 159.335 Q1906.28 159.335 1908.2 156.673 Q1910.14 153.988 1910.14 149.289 Z" fill="#000000" fill-rule="nonzero" fill-opacity="1" /><path clip-path="url(#clip020)" d="M1921.19 151.997 L1921.19 136.303 L1925.44 136.303 L1925.44 151.835 Q1925.44 155.516 1926.88 157.368 Q1928.31 159.196 1931.19 159.196 Q1934.63 159.196 1936.62 156.997 Q1938.64 154.798 1938.64 151.002 L1938.64 136.303 L1942.9 136.303 L1942.9 162.229 L1938.64 162.229 L1938.64 158.247 Q1937.09 160.608 1935.03 161.766 Q1932.99 162.9 1930.28 162.9 Q1925.81 162.9 1923.5 160.122 Q1921.19 157.344 1921.19 151.997 M1931.9 135.678 L1931.9 135.678 Z" fill="#000000" fill-rule="nonzero" fill-opacity="1" /><path clip-path="url(#clip020)" d="M1955.88 128.942 L1955.88 136.303 L1964.66 136.303 L1964.66 139.613 L1955.88 139.613 L1955.88 153.687 Q1955.88 156.858 1956.74 157.761 Q1957.62 158.664 1960.28 158.664 L1964.66 158.664 L1964.66 162.229 L1960.28 162.229 Q1955.35 162.229 1953.48 160.4 Q1951.6 158.548 1951.6 153.687 L1951.6 139.613 L1948.48 139.613 L1948.48 136.303 L1951.6 136.303 L1951.6 128.942 L1955.88 128.942 Z" fill="#000000" fill-rule="nonzero" fill-opacity="1" /><circle clip-path="url(#clip020)" cx="1716.09" cy="196.789" r="20.48" fill="#000000" fill-rule="evenodd" fill-opacity="1" stroke="none"/>
<path clip-path="url(#clip020)" d="M1832.39 193.12 Q1833.99 190.249 1836.21 188.884 Q1838.43 187.518 1841.44 187.518 Q1845.49 187.518 1847.69 190.365 Q1849.89 193.189 1849.89 198.421 L1849.89 214.069 L1845.61 214.069 L1845.61 198.559 Q1845.61 194.833 1844.29 193.027 Q1842.97 191.222 1840.26 191.222 Q1836.95 191.222 1835.03 193.421 Q1833.11 195.62 1833.11 199.416 L1833.11 214.069 L1828.82 214.069 L1828.82 198.559 Q1828.82 194.809 1827.51 193.027 Q1826.19 191.222 1823.43 191.222 Q1820.17 191.222 1818.25 193.444 Q1816.32 195.643 1816.32 199.416 L1816.32 214.069 L1812.04 214.069 L1812.04 188.143 L1816.32 188.143 L1816.32 192.171 Q1817.78 189.786 1819.82 188.652 Q1821.86 187.518 1824.66 187.518 Q1827.48 187.518 1829.45 188.953 Q1831.44 190.388 1832.39 193.12 Z" fill="#000000" fill-rule="nonzero" fill-opacity="1" /><path clip-path="url(#clip020)" d="M1880.56 200.041 L1880.56 202.124 L1860.98 202.124 Q1861.25 206.522 1863.62 208.837 Q1866 211.129 1870.24 211.129 Q1872.69 211.129 1874.98 210.527 Q1877.3 209.925 1879.57 208.721 L1879.57 212.749 Q1877.27 213.721 1874.87 214.231 Q1872.46 214.74 1869.98 214.74 Q1863.78 214.74 1860.14 211.129 Q1856.53 207.518 1856.53 201.36 Q1856.53 194.995 1859.96 191.268 Q1863.41 187.518 1869.24 187.518 Q1874.47 187.518 1877.5 190.897 Q1880.56 194.254 1880.56 200.041 M1876.3 198.791 Q1876.25 195.296 1874.33 193.212 Q1872.44 191.129 1869.29 191.129 Q1865.72 191.129 1863.57 193.143 Q1861.44 195.157 1861.12 198.814 L1876.3 198.791 Z" fill="#000000" fill-rule="nonzero" fill-opacity="1" /><path clip-path="url(#clip020)" d="M1899.33 201.036 Q1894.17 201.036 1892.18 202.217 Q1890.19 203.397 1890.19 206.245 Q1890.19 208.513 1891.67 209.856 Q1893.18 211.175 1895.75 211.175 Q1899.29 211.175 1901.42 208.675 Q1903.57 206.152 1903.57 201.985 L1903.57 201.036 L1899.33 201.036 M1907.83 199.277 L1907.83 214.069 L1903.57 214.069 L1903.57 210.133 Q1902.11 212.495 1899.94 213.629 Q1897.76 214.74 1894.61 214.74 Q1890.63 214.74 1888.27 212.518 Q1885.93 210.272 1885.93 206.522 Q1885.93 202.147 1888.85 199.925 Q1891.79 197.703 1897.6 197.703 L1903.57 197.703 L1903.57 197.286 Q1903.57 194.347 1901.63 192.749 Q1899.7 191.129 1896.21 191.129 Q1893.99 191.129 1891.88 191.661 Q1889.77 192.194 1887.83 193.259 L1887.83 189.323 Q1890.17 188.421 1892.37 187.981 Q1894.56 187.518 1896.65 187.518 Q1902.27 187.518 1905.05 190.434 Q1907.83 193.351 1907.83 199.277 Z" fill="#000000" fill-rule="nonzero" fill-opacity="1" /><path clip-path="url(#clip020)" d="M1933.13 188.907 L1933.13 192.934 Q1931.32 192.009 1929.38 191.546 Q1927.44 191.083 1925.35 191.083 Q1922.18 191.083 1920.58 192.055 Q1919.01 193.027 1919.01 194.971 Q1919.01 196.453 1920.14 197.309 Q1921.28 198.143 1924.7 198.907 L1926.16 199.231 Q1930.7 200.203 1932.6 201.985 Q1934.52 203.745 1934.52 206.916 Q1934.52 210.527 1931.65 212.633 Q1928.8 214.74 1923.8 214.74 Q1921.72 214.74 1919.45 214.323 Q1917.2 213.93 1914.7 213.12 L1914.7 208.721 Q1917.06 209.948 1919.36 210.573 Q1921.65 211.175 1923.89 211.175 Q1926.9 211.175 1928.52 210.157 Q1930.14 209.115 1930.14 207.24 Q1930.14 205.504 1928.96 204.578 Q1927.81 203.652 1923.85 202.796 L1922.37 202.448 Q1918.41 201.615 1916.65 199.902 Q1914.89 198.166 1914.89 195.157 Q1914.89 191.499 1917.48 189.509 Q1920.07 187.518 1924.84 187.518 Q1927.2 187.518 1929.29 187.865 Q1931.37 188.212 1933.13 188.907 Z" fill="#000000" fill-rule="nonzero" fill-opacity="1" /><path clip-path="url(#clip020)" d="M1940.86 203.837 L1940.86 188.143 L1945.12 188.143 L1945.12 203.675 Q1945.12 207.356 1946.56 209.208 Q1947.99 211.036 1950.86 211.036 Q1954.31 211.036 1956.3 208.837 Q1958.31 206.638 1958.31 202.842 L1958.31 188.143 L1962.57 188.143 L1962.57 214.069 L1958.31 214.069 L1958.31 210.087 Q1956.76 212.448 1954.7 213.606 Q1952.67 214.74 1949.96 214.74 Q1945.49 214.74 1943.18 211.962 Q1940.86 209.184 1940.86 203.837 M1951.58 187.518 L1951.58 187.518 Z" fill="#000000" fill-rule="nonzero" fill-opacity="1" /><path clip-path="url(#clip020)" d="M1986.37 192.124 Q1985.65 191.708 1984.8 191.522 Q1983.96 191.314 1982.94 191.314 Q1979.33 191.314 1977.39 193.675 Q1975.47 196.013 1975.47 200.411 L1975.47 214.069 L1971.18 214.069 L1971.18 188.143 L1975.47 188.143 L1975.47 192.171 Q1976.81 189.809 1978.96 188.675 Q1981.12 187.518 1984.19 187.518 Q1984.63 187.518 1985.17 187.587 Q1985.7 187.634 1986.35 187.749 L1986.37 192.124 Z" fill="#000000" fill-rule="nonzero" fill-opacity="1" /><path clip-path="url(#clip020)" d="M2011.97 200.041 L2011.97 202.124 L1992.39 202.124 Q1992.67 206.522 1995.03 208.837 Q1997.41 211.129 2001.65 211.129 Q2004.1 211.129 2006.39 210.527 Q2008.71 209.925 2010.98 208.721 L2010.98 212.749 Q2008.68 213.721 2006.28 214.231 Q2003.87 214.74 2001.39 214.74 Q1995.19 214.74 1991.56 211.129 Q1987.94 207.518 1987.94 201.36 Q1987.94 194.995 1991.37 191.268 Q1994.82 187.518 2000.65 187.518 Q2005.88 187.518 2008.92 190.897 Q2011.97 194.254 2011.97 200.041 M2007.71 198.791 Q2007.67 195.296 2005.74 193.212 Q2003.85 191.129 2000.7 191.129 Q1997.13 191.129 1994.98 193.143 Q1992.85 195.157 1992.53 198.814 L2007.71 198.791 Z" fill="#000000" fill-rule="nonzero" fill-opacity="1" /><path clip-path="url(#clip020)" d="M2039.15 193.12 Q2040.74 190.249 2042.97 188.884 Q2045.19 187.518 2048.2 187.518 Q2052.25 187.518 2054.45 190.365 Q2056.65 193.189 2056.65 198.421 L2056.65 214.069 L2052.37 214.069 L2052.37 198.559 Q2052.37 194.833 2051.05 193.027 Q2049.73 191.222 2047.02 191.222 Q2043.71 191.222 2041.79 193.421 Q2039.87 195.62 2039.87 199.416 L2039.87 214.069 L2035.58 214.069 L2035.58 198.559 Q2035.58 194.809 2034.26 193.027 Q2032.94 191.222 2030.19 191.222 Q2026.93 191.222 2025 193.444 Q2023.08 195.643 2023.08 199.416 L2023.08 214.069 L2018.8 214.069 L2018.8 188.143 L2023.08 188.143 L2023.08 192.171 Q2024.54 189.786 2026.58 188.652 Q2028.62 187.518 2031.42 187.518 Q2034.24 187.518 2036.21 188.953 Q2038.2 190.388 2039.15 193.12 Z" fill="#000000" fill-rule="nonzero" fill-opacity="1" /><path clip-path="url(#clip020)" d="M2087.32 200.041 L2087.32 202.124 L2067.74 202.124 Q2068.01 206.522 2070.37 208.837 Q2072.76 211.129 2076.99 211.129 Q2079.45 211.129 2081.74 210.527 Q2084.05 209.925 2086.32 208.721 L2086.32 212.749 Q2084.03 213.721 2081.62 214.231 Q2079.22 214.74 2076.74 214.74 Q2070.54 214.74 2066.9 211.129 Q2063.29 207.518 2063.29 201.36 Q2063.29 194.995 2066.72 191.268 Q2070.17 187.518 2076 187.518 Q2081.23 187.518 2084.26 190.897 Q2087.32 194.254 2087.32 200.041 M2083.06 198.791 Q2083.01 195.296 2081.09 193.212 Q2079.19 191.129 2076.05 191.129 Q2072.48 191.129 2070.33 193.143 Q2068.2 195.157 2067.87 198.814 L2083.06 198.791 Z" fill="#000000" fill-rule="nonzero" fill-opacity="1" /><path clip-path="url(#clip020)" d="M2115.86 198.421 L2115.86 214.069 L2111.6 214.069 L2111.6 198.559 Q2111.6 194.879 2110.17 193.05 Q2108.73 191.222 2105.86 191.222 Q2102.41 191.222 2100.42 193.421 Q2098.43 195.62 2098.43 199.416 L2098.43 214.069 L2094.15 214.069 L2094.15 188.143 L2098.43 188.143 L2098.43 192.171 Q2099.96 189.833 2102.02 188.675 Q2104.1 187.518 2106.81 187.518 Q2111.28 187.518 2113.57 190.296 Q2115.86 193.05 2115.86 198.421 Z" fill="#000000" fill-rule="nonzero" fill-opacity="1" /><path clip-path="url(#clip020)" d="M2128.57 180.782 L2128.57 188.143 L2137.34 188.143 L2137.34 191.453 L2128.57 191.453 L2128.57 205.527 Q2128.57 208.698 2129.42 209.601 Q2130.3 210.504 2132.97 210.504 L2137.34 210.504 L2137.34 214.069 L2132.97 214.069 Q2128.04 214.069 2126.16 212.24 Q2124.29 210.388 2124.29 205.527 L2124.29 191.453 L2121.16 191.453 L2121.16 188.143 L2124.29 188.143 L2124.29 180.782 L2128.57 180.782 Z" fill="#000000" fill-rule="nonzero" fill-opacity="1" /><polyline clip-path="url(#clip020)" style="stroke:#3da44d; stroke-linecap:round; stroke-linejoin:round; stroke-width:4; stroke-opacity:1; fill:none" points="1644.13,248.629 1788.06,248.629 "/>
<path clip-path="url(#clip020)" d="M1830.47 240.747 L1830.47 244.774 Q1828.66 243.849 1826.72 243.386 Q1824.77 242.923 1822.69 242.923 Q1819.52 242.923 1817.92 243.895 Q1816.35 244.867 1816.35 246.811 Q1816.35 248.293 1817.48 249.149 Q1818.62 249.983 1822.04 250.747 L1823.5 251.071 Q1828.04 252.043 1829.94 253.825 Q1831.86 255.585 1831.86 258.756 Q1831.86 262.367 1828.99 264.473 Q1826.14 266.58 1821.14 266.58 Q1819.06 266.58 1816.79 266.163 Q1814.54 265.77 1812.04 264.96 L1812.04 260.561 Q1814.4 261.788 1816.69 262.413 Q1818.99 263.015 1821.23 263.015 Q1824.24 263.015 1825.86 261.997 Q1827.48 260.955 1827.48 259.08 Q1827.48 257.344 1826.3 256.418 Q1825.14 255.492 1821.19 254.636 L1819.7 254.288 Q1815.75 253.455 1813.99 251.742 Q1812.23 250.006 1812.23 246.997 Q1812.23 243.339 1814.82 241.349 Q1817.41 239.358 1822.18 239.358 Q1824.54 239.358 1826.63 239.705 Q1828.71 240.052 1830.47 240.747 Z" fill="#000000" fill-rule="nonzero" fill-opacity="1" /><path clip-path="url(#clip020)" d="M1858.82 244.96 Q1860.42 242.089 1862.64 240.724 Q1864.87 239.358 1867.88 239.358 Q1871.93 239.358 1874.13 242.205 Q1876.32 245.029 1876.32 250.261 L1876.32 265.909 L1872.04 265.909 L1872.04 250.399 Q1872.04 246.673 1870.72 244.867 Q1869.4 243.062 1866.69 243.062 Q1863.38 243.062 1861.46 245.261 Q1859.54 247.46 1859.54 251.256 L1859.54 265.909 L1855.26 265.909 L1855.26 250.399 Q1855.26 246.649 1853.94 244.867 Q1852.62 243.062 1849.87 243.062 Q1846.6 243.062 1844.68 245.284 Q1842.76 247.483 1842.76 251.256 L1842.76 265.909 L1838.48 265.909 L1838.48 239.983 L1842.76 239.983 L1842.76 244.011 Q1844.22 241.626 1846.25 240.492 Q1848.29 239.358 1851.09 239.358 Q1853.92 239.358 1855.88 240.793 Q1857.88 242.228 1858.82 244.96 Z" fill="#000000" fill-rule="nonzero" fill-opacity="1" /><path clip-path="url(#clip020)" d="M1894.87 242.969 Q1891.44 242.969 1889.45 245.654 Q1887.46 248.316 1887.46 252.969 Q1887.46 257.622 1889.43 260.307 Q1891.42 262.969 1894.87 262.969 Q1898.27 262.969 1900.26 260.284 Q1902.25 257.598 1902.25 252.969 Q1902.25 248.362 1900.26 245.677 Q1898.27 242.969 1894.87 242.969 M1894.87 239.358 Q1900.42 239.358 1903.59 242.969 Q1906.76 246.58 1906.76 252.969 Q1906.76 259.335 1903.59 262.969 Q1900.42 266.58 1894.87 266.58 Q1889.29 266.58 1886.12 262.969 Q1882.97 259.335 1882.97 252.969 Q1882.97 246.58 1886.12 242.969 Q1889.29 239.358 1894.87 239.358 Z" fill="#000000" fill-rule="nonzero" fill-opacity="1" /><path clip-path="url(#clip020)" d="M1923.87 242.969 Q1920.44 242.969 1918.45 245.654 Q1916.46 248.316 1916.46 252.969 Q1916.46 257.622 1918.43 260.307 Q1920.42 262.969 1923.87 262.969 Q1927.27 262.969 1929.26 260.284 Q1931.25 257.598 1931.25 252.969 Q1931.25 248.362 1929.26 245.677 Q1927.27 242.969 1923.87 242.969 M1923.87 239.358 Q1929.43 239.358 1932.6 242.969 Q1935.77 246.58 1935.77 252.969 Q1935.77 259.335 1932.6 262.969 Q1929.43 266.58 1923.87 266.58 Q1918.29 266.58 1915.12 262.969 Q1911.97 259.335 1911.97 252.969 Q1911.97 246.58 1915.12 242.969 Q1918.29 239.358 1923.87 239.358 Z" fill="#000000" fill-rule="nonzero" fill-opacity="1" /><path clip-path="url(#clip020)" d="M1947.04 232.622 L1947.04 239.983 L1955.81 239.983 L1955.81 243.293 L1947.04 243.293 L1947.04 257.367 Q1947.04 260.538 1947.9 261.441 Q1948.78 262.344 1951.44 262.344 L1955.81 262.344 L1955.81 265.909 L1951.44 265.909 Q1946.51 265.909 1944.63 264.08 Q1942.76 262.228 1942.76 257.367 L1942.76 243.293 L1939.63 243.293 L1939.63 239.983 L1942.76 239.983 L1942.76 232.622 L1947.04 232.622 Z" fill="#000000" fill-rule="nonzero" fill-opacity="1" /><path clip-path="url(#clip020)" d="M1982.97 250.261 L1982.97 265.909 L1978.71 265.909 L1978.71 250.399 Q1978.71 246.719 1977.27 244.89 Q1975.84 243.062 1972.97 243.062 Q1969.52 243.062 1967.53 245.261 Q1965.54 247.46 1965.54 251.256 L1965.54 265.909 L1961.25 265.909 L1961.25 229.89 L1965.54 229.89 L1965.54 244.011 Q1967.06 241.673 1969.12 240.515 Q1971.21 239.358 1973.92 239.358 Q1978.38 239.358 1980.68 242.136 Q1982.97 244.89 1982.97 250.261 Z" fill="#000000" fill-rule="nonzero" fill-opacity="1" /><path clip-path="url(#clip020)" d="M2013.64 251.881 L2013.64 253.964 L1994.06 253.964 Q1994.33 258.362 1996.69 260.677 Q1999.08 262.969 2003.31 262.969 Q2005.77 262.969 2008.06 262.367 Q2010.37 261.765 2012.64 260.561 L2012.64 264.589 Q2010.35 265.561 2007.94 266.071 Q2005.54 266.58 2003.06 266.58 Q1996.86 266.58 1993.22 262.969 Q1989.61 259.358 1989.61 253.2 Q1989.61 246.835 1993.04 243.108 Q1996.49 239.358 2002.32 239.358 Q2007.55 239.358 2010.58 242.737 Q2013.64 246.094 2013.64 251.881 M2009.38 250.631 Q2009.33 247.136 2007.41 245.052 Q2005.51 242.969 2002.37 242.969 Q1998.8 242.969 1996.65 244.983 Q1994.52 246.997 1994.19 250.654 L2009.38 250.631 Z" fill="#000000" fill-rule="nonzero" fill-opacity="1" /><path clip-path="url(#clip020)" d="M2035.65 243.964 Q2034.93 243.548 2034.08 243.362 Q2033.24 243.154 2032.23 243.154 Q2028.62 243.154 2026.67 245.515 Q2024.75 247.853 2024.75 252.251 L2024.75 265.909 L2020.47 265.909 L2020.47 239.983 L2024.75 239.983 L2024.75 244.011 Q2026.09 241.649 2028.24 240.515 Q2030.4 239.358 2033.48 239.358 Q2033.92 239.358 2034.45 239.427 Q2034.98 239.474 2035.63 239.589 L2035.65 243.964 Z" fill="#000000" fill-rule="nonzero" fill-opacity="1" /><path clip-path="url(#clip020)" d="M2077.36 251.881 L2077.36 253.964 L2057.78 253.964 Q2058.06 258.362 2060.42 260.677 Q2062.8 262.969 2067.04 262.969 Q2069.49 262.969 2071.79 262.367 Q2074.1 261.765 2076.37 260.561 L2076.37 264.589 Q2074.08 265.561 2071.67 266.071 Q2069.26 266.58 2066.79 266.58 Q2060.58 266.58 2056.95 262.969 Q2053.34 259.358 2053.34 253.2 Q2053.34 246.835 2056.76 243.108 Q2060.21 239.358 2066.05 239.358 Q2071.28 239.358 2074.31 242.737 Q2077.36 246.094 2077.36 251.881 M2073.11 250.631 Q2073.06 247.136 2071.14 245.052 Q2069.24 242.969 2066.09 242.969 Q2062.53 242.969 2060.37 244.983 Q2058.24 246.997 2057.92 250.654 L2073.11 250.631 Z" fill="#000000" fill-rule="nonzero" fill-opacity="1" /><path clip-path="url(#clip020)" d="M2100.88 240.747 L2100.88 244.774 Q2099.08 243.849 2097.13 243.386 Q2095.19 242.923 2093.11 242.923 Q2089.93 242.923 2088.34 243.895 Q2086.76 244.867 2086.76 246.811 Q2086.76 248.293 2087.9 249.149 Q2089.03 249.983 2092.46 250.747 L2093.92 251.071 Q2098.45 252.043 2100.35 253.825 Q2102.27 255.585 2102.27 258.756 Q2102.27 262.367 2099.4 264.473 Q2096.55 266.58 2091.55 266.58 Q2089.47 266.58 2087.2 266.163 Q2084.96 265.77 2082.46 264.96 L2082.46 260.561 Q2084.82 261.788 2087.11 262.413 Q2089.4 263.015 2091.65 263.015 Q2094.66 263.015 2096.28 261.997 Q2097.9 260.955 2097.9 259.08 Q2097.9 257.344 2096.72 256.418 Q2095.56 255.492 2091.6 254.636 L2090.12 254.288 Q2086.16 253.455 2084.4 251.742 Q2082.64 250.006 2082.64 246.997 Q2082.64 243.339 2085.24 241.349 Q2087.83 239.358 2092.6 239.358 Q2094.96 239.358 2097.04 239.705 Q2099.12 240.052 2100.88 240.747 Z" fill="#000000" fill-rule="nonzero" fill-opacity="1" /><path clip-path="url(#clip020)" d="M2113.27 232.622 L2113.27 239.983 L2122.04 239.983 L2122.04 243.293 L2113.27 243.293 L2113.27 257.367 Q2113.27 260.538 2114.12 261.441 Q2115 262.344 2117.67 262.344 L2122.04 262.344 L2122.04 265.909 L2117.67 265.909 Q2112.74 265.909 2110.86 264.08 Q2108.99 262.228 2108.99 257.367 L2108.99 243.293 L2105.86 243.293 L2105.86 239.983 L2108.99 239.983 L2108.99 232.622 L2113.27 232.622 Z" fill="#000000" fill-rule="nonzero" fill-opacity="1" /><path clip-path="url(#clip020)" d="M2127.64 239.983 L2131.9 239.983 L2131.9 265.909 L2127.64 265.909 L2127.64 239.983 M2127.64 229.89 L2131.9 229.89 L2131.9 235.284 L2127.64 235.284 L2127.64 229.89 Z" fill="#000000" fill-rule="nonzero" fill-opacity="1" /><path clip-path="url(#clip020)" d="M2161 244.96 Q2162.6 242.089 2164.82 240.724 Q2167.04 239.358 2170.05 239.358 Q2174.1 239.358 2176.3 242.205 Q2178.5 245.029 2178.5 250.261 L2178.5 265.909 L2174.22 265.909 L2174.22 250.399 Q2174.22 246.673 2172.9 244.867 Q2171.58 243.062 2168.87 243.062 Q2165.56 243.062 2163.64 245.261 Q2161.72 247.46 2161.72 251.256 L2161.72 265.909 L2157.43 265.909 L2157.43 250.399 Q2157.43 246.649 2156.11 244.867 Q2154.8 243.062 2152.04 243.062 Q2148.78 243.062 2146.86 245.284 Q2144.93 247.483 2144.93 251.256 L2144.93 265.909 L2140.65 265.909 L2140.65 239.983 L2144.93 239.983 L2144.93 244.011 Q2146.39 241.626 2148.43 240.492 Q2150.47 239.358 2153.27 239.358 Q2156.09 239.358 2158.06 240.793 Q2160.05 242.228 2161 244.96 Z" fill="#000000" fill-rule="nonzero" fill-opacity="1" /><path clip-path="url(#clip020)" d="M2198.78 252.876 Q2193.61 252.876 2191.62 254.057 Q2189.63 255.237 2189.63 258.085 Q2189.63 260.353 2191.11 261.696 Q2192.62 263.015 2195.19 263.015 Q2198.73 263.015 2200.86 260.515 Q2203.01 257.992 2203.01 253.825 L2203.01 252.876 L2198.78 252.876 M2207.27 251.117 L2207.27 265.909 L2203.01 265.909 L2203.01 261.973 Q2201.55 264.335 2199.38 265.469 Q2197.2 266.58 2194.05 266.58 Q2190.07 266.58 2187.71 264.358 Q2185.37 262.112 2185.37 258.362 Q2185.37 253.987 2188.29 251.765 Q2191.23 249.543 2197.04 249.543 L2203.01 249.543 L2203.01 249.126 Q2203.01 246.187 2201.07 244.589 Q2199.15 242.969 2195.65 242.969 Q2193.43 242.969 2191.32 243.501 Q2189.22 244.034 2187.27 245.099 L2187.27 241.163 Q2189.61 240.261 2191.81 239.821 Q2194.01 239.358 2196.09 239.358 Q2201.72 239.358 2204.49 242.274 Q2207.27 245.191 2207.27 251.117 Z" fill="#000000" fill-rule="nonzero" fill-opacity="1" /><path clip-path="url(#clip020)" d="M2220.26 232.622 L2220.26 239.983 L2229.03 239.983 L2229.03 243.293 L2220.26 243.293 L2220.26 257.367 Q2220.26 260.538 2221.11 261.441 Q2221.99 262.344 2224.66 262.344 L2229.03 262.344 L2229.03 265.909 L2224.66 265.909 Q2219.73 265.909 2217.85 264.08 Q2215.98 262.228 2215.98 257.367 L2215.98 243.293 L2212.85 243.293 L2212.85 239.983 L2215.98 239.983 L2215.98 232.622 L2220.26 232.622 Z" fill="#000000" fill-rule="nonzero" fill-opacity="1" /><path clip-path="url(#clip020)" d="M2256.81 251.881 L2256.81 253.964 L2237.23 253.964 Q2237.5 258.362 2239.86 260.677 Q2242.25 262.969 2246.48 262.969 Q2248.94 262.969 2251.23 262.367 Q2253.54 261.765 2255.81 260.561 L2255.81 264.589 Q2253.52 265.561 2251.11 266.071 Q2248.71 266.58 2246.23 266.58 Q2240.03 266.58 2236.39 262.969 Q2232.78 259.358 2232.78 253.2 Q2232.78 246.835 2236.21 243.108 Q2239.66 239.358 2245.49 239.358 Q2250.72 239.358 2253.75 242.737 Q2256.81 246.094 2256.81 251.881 M2252.55 250.631 Q2252.5 247.136 2250.58 245.052 Q2248.68 242.969 2245.54 242.969 Q2241.97 242.969 2239.82 244.983 Q2237.69 246.997 2237.36 250.654 L2252.55 250.631 Z" fill="#000000" fill-rule="nonzero" fill-opacity="1" /></svg>
